<?xml version="1.0" encoding="utf-8"?>
<!-- Generator: Adobe Illustrator 25.2.3, SVG Export Plug-In . SVG Version: 6.00 Build 0)  -->
<svg version="1.1" id="Capa_1" xmlns="http://www.w3.org/2000/svg" xmlns:xlink="http://www.w3.org/1999/xlink" x="0px" y="0px"
	 width="74.6px" height="136.4px" viewBox="0 0 74.6 136.4" style="enable-background:new 0 0 74.6 136.4;" xml:space="preserve">
<style type="text/css">
	.st0{fill:#D5EAFA;}
	.st1{fill:#BEE0FA;}
	.st2{fill:#8AB6DF;}
	.st3{fill:#5D98E6;}
	.st4{fill:#518ADC;}
	.st5{fill:#4678D5;}
	.st6{fill:#FAFCFF;}
	.st7{fill:#ECF6FC;}
</style>
<g>
	<g>
		<rect x="2.2" y="75" class="st0" width="60.2" height="46.8"/>
		<rect x="62.4" y="75" class="st1" width="10" height="46.8"/>
		<rect x="2.2" y="73" class="st2" width="70.1" height="2.3"/>
		<g>
			<path class="st1" d="M39.5,63.1v-29c0-1.8,0.8-3.3,2-4.4c-1.3-0.9-2.9-1.4-4.6-1.4h-0.6c-3.2,0-5.8,2.6-5.8,5.8v29
				c0,3.2,2.6,5.8,5.8,5.8h9C42.1,68.9,39.5,66.3,39.5,63.1z"/>
			<path class="st1" d="M65.4,31.1L52.3,13.5h-9l13.2,17.6c5.9,7.9,9.2,17.6,9.2,27.5v12.4c0,1.1-0.9,1.9-1.9,1.9h9
				c1.1,0,1.9-0.9,1.9-1.9V58.6C74.6,48.7,71.4,39,65.4,31.1z"/>
			<path class="st0" d="M45.9,28.3h-0.6c-1.5,0-2.8,0.5-3.8,1.4c0.7,0.5,1.3,1,1.8,1.7c3.7,4.7,9.8,14.4,9.8,26.2v4
				c0,4-3.3,7.3-7.3,7.3h9c4,0,7.3-3.3,7.3-7.3v-4c0-11.8-6.1-21.5-9.8-26.2C50.8,29.4,48.4,28.3,45.9,28.3z"/>
			<path class="st0" d="M65.6,71.1V58.6c0-9.9-3.2-19.6-9.2-27.5L43.3,13.5H22.3L9.2,31.1C3.2,39,0,48.7,0,58.6v12.4
				C0,72.1,0.9,73,1.9,73h61.7C64.8,73,65.6,72.1,65.6,71.1z M62.1,61.6c0,4-3.3,7.3-7.3,7.3h-9h-0.5h-9c-3.2,0-5.8-2.6-5.8-5.8v-29
				c0-3.2,2.6-5.8,5.8-5.8h0.6c1.7,0,3.2,0.5,4.6,1.4c1-0.9,2.4-1.4,3.8-1.4h0.6c2.5,0,4.9,1.2,6.4,3.1c3.7,4.7,9.8,14.4,9.8,26.2
				V61.6z"/>
		</g>
		<g>
			<rect x="22.3" y="8.6" class="st2" width="29.9" height="4.9"/>
			<g>
				<path class="st3" d="M50.9,0H23.7c-1.9,0-3.4,1.5-3.4,3.4v5.9c0,1.1,0.9,1.9,1.9,1.9h29.9c1.1,0,1.9-0.9,1.9-1.9V3.4
					C54.2,1.5,52.7,0,50.9,0z"/>
				<path class="st4" d="M23.4,9.1c-0.6,0-1-0.5-1-1V3.6c0-0.6,0.5-1,1-1c0.6,0,1,0.5,1,1V8C24.4,8.6,23.9,9.1,23.4,9.1z"/>
				<path class="st4" d="M28.9,8.9c-0.6,0-1-0.5-1-1V3.5c0-0.6,0.5-1,1-1c0.6,0,1,0.5,1,1v4.4C30,8.5,29.5,8.9,28.9,8.9z"/>
				<path class="st4" d="M34.5,8.9c-0.6,0-1-0.5-1-1V3.5c0-0.6,0.5-1,1-1c0.6,0,1,0.5,1,1v4.4C35.6,8.5,35.1,8.9,34.5,8.9z"/>
				<path class="st4" d="M40.1,8.9c-0.6,0-1-0.5-1-1V3.5c0-0.6,0.5-1,1-1c0.6,0,1,0.5,1,1v4.4C41.1,8.5,40.7,8.9,40.1,8.9z"/>
				<path class="st4" d="M45.7,8.9c-0.6,0-1-0.5-1-1V3.5c0-0.6,0.5-1,1-1c0.6,0,1,0.5,1,1v4.4C46.7,8.5,46.2,8.9,45.7,8.9z"/>
				<path class="st4" d="M51.2,8.9c-0.6,0-1-0.5-1-1V3.5c0-0.6,0.5-1,1-1c0.6,0,1,0.5,1,1v4.4C52.3,8.5,51.8,8.9,51.2,8.9z"/>
			</g>
		</g>
		<g>
			<rect x="62.4" y="78.9" class="st5" width="10" height="36.9"/>
			<polygon class="st3" points="2.2,88.9 2.2,115.8 62.4,115.8 62.4,78.9 2.2,78.9 			"/>
		</g>
		<g>
			<path class="st1" d="M72.7,121.8h-10c1.1,0,1.9,0.9,1.9,1.9v2.8c0,5.5-4.5,10-10,10h10c5.5,0,10-4.5,10-10v-2.8
				C74.6,122.6,73.7,121.8,72.7,121.8z"/>
			<path class="st0" d="M64.6,126.5v-2.8c0-1.1-0.9-1.9-1.9-1.9H1.9c-1.1,0-1.9,0.9-1.9,1.9v2.8c0,5.5,4.5,10,10,10h44.7
				C60.2,136.4,64.6,132,64.6,126.5z"/>
		</g>
		<g>
			<path class="st6" d="M18.5,30c-0.4,0-0.7-0.1-1-0.3c-0.8-0.6-0.9-1.7-0.4-2.4l5.2-7c0.6-0.8,1.7-0.9,2.4-0.3
				c0.8,0.6,0.9,1.7,0.4,2.4l-5.2,7C19.5,29.8,19,30,18.5,30z"/>
			<path class="st6" d="M6,64.9c-1,0-1.7-0.8-1.7-1.7v-4.6c0-7.4,2-14.7,5.7-21.2c0.5-0.8,1.5-1.1,2.4-0.6c0.8,0.5,1.1,1.5,0.6,2.4
				c-3.4,6-5.2,12.7-5.2,19.5v4.6C7.7,64.2,6.9,64.9,6,64.9z"/>
		</g>
		<rect x="2.2" y="119.5" class="st7" width="70.1" height="2.3"/>
	</g>
	<g>
		<path class="st1" d="M55.2,92.6H19.4c-1.1,0-2.1-0.9-2.1-2.1c0-1.1,0.9-2.1,2.1-2.1h35.7c1.1,0,2.1,0.9,2.1,2.1
			C57.2,91.7,56.3,92.6,55.2,92.6z"/>
		<path class="st1" d="M30.2,102.1H19.4c-1.1,0-2.1-0.9-2.1-2.1s0.9-2.1,2.1-2.1h10.7c1.1,0,2.1,0.9,2.1,2.1S31.3,102.1,30.2,102.1z
			"/>
	</g>
</g>
</svg>
