<?xml version="1.0" encoding="utf-8"?>
<!-- Generator: Adobe Illustrator 25.2.3, SVG Export Plug-In . SVG Version: 6.00 Build 0)  -->
<svg version="1.1" id="Capa_1" xmlns="http://www.w3.org/2000/svg" xmlns:xlink="http://www.w3.org/1999/xlink" x="0px" y="0px"
	 width="65.2px" height="71.4px" viewBox="0 0 65.2 71.4" style="enable-background:new 0 0 65.2 71.4;" xml:space="preserve">
<style type="text/css">
	.st0{fill:#F7EDD7;}
	.st1{fill:#E8DCB8;}
	.st2{fill:#DBCCA7;}
	.st3{fill:#F4C9BE;}
	.st4{opacity:0.6;fill:#FFFAEE;}
	.st5{fill:#B79C80;}
	.st6{fill:#E2C88F;}
	.st7{fill:#CEBE99;}
	.st8{fill:#D8BB82;}
</style>
<g id="XMLID_2635_">
	<g id="XMLID_2622_">
		<path id="XMLID_2631_" class="st0" d="M51.5,44.9C51,55.1,43,57.9,35.9,59.3c-10.6,2.1-21,0-21,0S0.6,55.3,0.8,43.5
			c0-2,0.3-3.7,0.8-5.2v0c0.9-2.9,2.6-5,4.7-6.6c3.1-2.5,7.2-4,11.1-6.1c0.1,0,0.1-0.1,0.2-0.1c2.4-1.4,4-3.3,5.1-5.4
			c0.1-0.2,0.2-0.4,0.3-0.6c0.7-1.6,1.1-3.3,1.3-5c0.1-1.1,0.2-2.3,0.2-3.5c0-2.3-0.3-4.5-0.6-6.6c-1.2-7.2,5.5-1.6,7.7,1.5
			c0.6,0.9,0.4,2.4,0,4.3c-0.4,1.8-0.9,4-1,6.2c-0.1,1.4,0.1,2.9,0.5,4.3c0,0,0,0,0,0c0.5,1.5,1.3,2.9,2.7,4.2
			c0.6,0.6,1.3,1.1,2.1,1.6c3.8,2.3,7,4.1,9.5,5.8c2.3,1.6,3.9,3.2,5,5.3C51.2,39.4,51.6,41.8,51.5,44.9z"/>
		<path id="XMLID_2634_" class="st1" d="M51.5,44.6c0,0.1,0,0.1,0,0.2C51,55.1,43,57.9,35.9,59.3c-10.6,2.1-21,0-21,0
			S1.3,55.5,0.8,44.4c0-0.3,0-0.6,0-0.9c0-2,0.3-3.7,0.8-5.2C1.5,38.5,2,44.5,7,45c0,0-0.7-5.3,1.6-9c0,0-0.1,10.8,7.4,10.9
			c0,0,0.2-5.6,1.8-9.2c0,0-0.4,12.6,8.3,13.4c8.7,0.8,9.6-9.2,9.6-9.2s0.3,5.5-0.9,8.3c0.2-0.1,8.1-3.5,8-10.5c0,0,0.5,4.6,0.3,5.5
			c0,0,8.8-1.2,7-7.7c0,0,0,0,0,0C51.1,39.4,51.6,41.6,51.5,44.6z"/>
		<path id="XMLID_2615_" class="st2" d="M40.9,52.3c0.5-0.4,1-1.5,1.4-2.6c-2.5,4.3-9.5,5.5-9.7,5.6c0.7-1.7,1.5-3.7,2-5
			c-1.2,2.4-4.3,6.9-10.7,6.2c-5.8-0.6-7.6-11.1-7.6-11.1c-0.7,3.5,1.4,9.1,1.4,9.1C10.4,54.4,7.1,43.3,7.1,43.3
			c-0.4,4.3,2.2,9.2,2.2,9.2C4.4,52,1,45.1,0.8,44.4c0.5,11.2,14.2,14.9,14.2,14.9s1.2,0.2,3.3,0.5c-0.2,0.7-0.5,2.1,2.5,1.5
			c0,0,4.5,1.1,9.8,0.1c0,0,4.1,1.2,2.9-1.6c0.8-0.1,1.6-0.2,2.5-0.4C43,57.9,51,55.1,51.5,44.9c0-0.1,0-0.2,0-0.2
			C49.8,53,40.9,52.3,40.9,52.3z"/>
		<path id="XMLID_2598_" class="st1" d="M35.7,26.4c-0.8-0.5-1.5-1-2.1-1.6c-1.4-1.3-2.3-2.7-2.7-4.2c0,0-0.1,0-0.1,0
			c0,0,0.1,0,0.1,0c-0.5-1.4-0.6-2.9-0.5-4.3c0.1-2.2,0.6-4.3,1-6.2c-0.2,0.1-0.4,0.2-0.4,0.2s-3,3.5-6.7,0.5c0,1.2,0,2.3-0.2,3.5
			c-0.2,1.7-0.8,3.8-1.6,5.6c-1.1,2.2-2.7,4.1-5.1,5.4c-0.1,0-0.1,0.1-0.2,0.1c-3.9,2.1-8,3.7-11.1,6.1c0.6-0.2,4.1-1.2,7.1-1.7
			c3.2-0.5,6.4-4,9,0c0,0,5.7-4.9,8.5-1.9c0,0,8.4-0.8,11,5.4c0,0,1.3-1.1,3.4-1.1C42.7,30.5,39.5,28.8,35.7,26.4z"/>
		<path id="XMLID_2619_" class="st2" d="M33.6,24.9c-2.9-1.5-2.9,0.2-5-1.5c-2.1-1.7-4.6,1.8-5.6,0.9c-0.7-0.7-3.8,0.5-5.5,1.1
			c4.3-2.5,6.1-6.6,6.6-11.1c0,0,0,0,0,0c0.7,1.4,1.8,3.9,4,2.6c2.1-1.3,2.7-8.3,2.2-2.6c-0.1,0.6,0,1.3,0.1,1.9
			C30.2,19.2,30.9,22.3,33.6,24.9z"/>
		<g id="XMLID_2632_">
			<path id="XMLID_2653_" class="st3" d="M3.2,44.5c0-9.4,7-13.5,7-13.5c-1.3,0.4-7.7,4.5-7.5,13.6c0.1,4.7,2.8,8.1,5,10.1
				c2.4,2.2,4.7,3.2,4.8,3.3l0.2-0.5C12.6,57.4,3.1,53.2,3.2,44.5z"/>
			<path id="XMLID_2654_" class="st3" d="M8.1,33.9c-0.6,0.5-4.7,5.7-3,12.9c1.8,7.5,6.4,9.5,6.6,9.6l0.2-0.5c0,0-4.6-2-6.3-9.3
				C3.8,39.3,8.1,33.9,8.1,33.9z"/>
			<path id="XMLID_2655_" class="st3" d="M49.3,43.3c-0.5-4.8-3.7-8.5-6.3-10.7c-2.8-2.4-5.6-3.7-5.6-3.7c0,0,10.6,5.6,11.4,14.5
				c0.9,9.8-10.4,14.8-10.5,14.9l0.2,0.5C38.6,58.6,50.2,53.4,49.3,43.3z"/>
			<path id="XMLID_2656_" class="st3" d="M46.4,45.2c0-9.5-3.8-11.5-4-11.6c0,0,3.5,2.4,3.5,11.6c0,7.5-8.5,12.7-8.6,12.7l0.3,0.4
				C37.6,58.3,46.4,53,46.4,45.2z"/>
			<path id="XMLID_2657_" class="st3" d="M41.1,41.9c-0.4-7-5-11.5-8-14.4c-0.9-0.9-1.7-1.6-2.2-2.3c-2.4-3-2-10.9-2-11
				c0,0-0.8,8.2,1.6,11.3c0.6,0.7,1.4,1.5,2.3,2.4c3.2,3.1,7.5,7.3,7.9,14.1c0.4,8.7-7.2,16.6-7.9,17l0.3,0.4
				C33,59.4,41.6,51.4,41.1,41.9z"/>
			<path id="XMLID_2658_" class="st3" d="M36.7,34c0,0,1.3,3.9,1.3,8.9c0,4.6-1.4,11.2-8.5,16.8l0.3,0.4
				C43.7,49.1,36.8,34.2,36.7,34z"/>
			<path id="XMLID_2659_" class="st3" d="M21.2,42.7c1.1-5,2.8-8.5,4.1-11.4c1.5-3.3,1.8-6.4,1.8-6.4c-0.3,1.9-1.1,3.8-2.2,6.2
				c-1.3,2.9-3,6.5-4.1,11.5c-2.1,9,1.7,16.8,1.8,16.9l0.5-0.2C22.8,59.2,19.1,51.5,21.2,42.7z"/>
			<path id="XMLID_2660_" class="st3" d="M29.3,27c0,0,4.1,9.9,3.1,19.5c-1,9.4-5.6,13.2-5.6,13.3l0.3,0.4c0.2-0.2,4.8-4,5.8-13.6
				C33.9,36.7,29.3,27.1,29.3,27z"/>
			<path id="XMLID_2661_" class="st3" d="M28,27c0,0,1.9,8.4,1.5,16.3c-0.4,7.8-3.9,15.8-4.1,16.2l0.2,0.2l0,0.3l0.1,0l0.1-0.1
				c0.3-0.3,3.8-8.6,4.3-16.5C30.4,35.4,28,27.1,28,27z"/>
			<path id="XMLID_2662_" class="st3" d="M26.6,31.8c0,0.1-3.6,10.8-3.1,27.9l0.5,0C23.6,42.6,26.6,31.8,26.6,31.8z"/>
			<path id="XMLID_2651_" class="st3" d="M10.2,41.2c1.7-7.4,4.8-9.5,8.5-12c1.1-0.8,2.3-1.5,3.5-2.5c2.1-1.8,4.7-6.7,5.1-11.4
				c0.4-4.7-1.8-10.9-1.8-10.9c0,0.1,1.6,6.2,1.2,10.9c-0.4,4.6-2.9,9.3-4.9,11.1c-1.2,1-2.3,1.7-3.4,2.5c-3.6,2.4-6.9,4.6-8.7,12.3
				c-2.2,9.5,5.9,18.2,6,18.3l0.4-0.3c0,0-2-2.2-3.8-5.4C10.8,50.6,9.1,46,10.2,41.2z"/>
			<path id="XMLID_2652_" class="st3" d="M22.1,29.5c0.3-0.2,0.5-0.5,0.8-0.7c3-2.7,4.8-6.6,4.8-10.3c0,0-0.6,5.4-5.2,10
				c-0.2,0.2-0.5,0.5-0.8,0.7c-3.2,2.9-6.8,6.1-8.8,13.7c-2.1,8.1,4,16.5,4,16.6l0.4-0.3c-0.1-0.1-6-8.4-4-16.2
				C15.3,35.5,18.9,32.3,22.1,29.5z"/>
		</g>
		<path id="XMLID_2601_" class="st4" d="M8.6,36c0,0,1.6-3.1,2.4-4.2c0.8-1.1-2-2.3-5.7,3.8c-3.7,6.1,1.6,5.4,1.8,5.1
			C7.3,40.4,8.2,36.8,8.6,36z"/>
		<path id="XMLID_2608_" class="st4" d="M12.7,41.5c0.9,1,2.1,1.7,3.6,1.8c0,0,2.1-6.9,3.9-9.7c1.9-2.8-1.7-5.5-4.7-3.3
			c-0.6,0.4-1.2,0.9-1.7,1.3C10.7,33.9,10.1,38.6,12.7,41.5z"/>
		<path id="XMLID_2617_" class="st4" d="M33.2,32.8c0,0,1.2-3.7,4.2-1.8c3,1.9,4.9,8.5,2.5,12.7c-2.4,4.3-4.1,0.7-4.1,0.7
			S35,35.2,33.2,32.8z"/>
		<path id="XMLID_2618_" class="st4" d="M42.5,35.8c0,0-0.5-1.7,1.6-1.8s5.6,4.8,3.9,7c-1.7,2.3-4.7,2-4.7,2S43.4,37.8,42.5,35.8z"
			/>
		<path id="XMLID_2621_" class="st4" d="M26.1,3.7c0-0.1,3,6.4,4.8,3.5c1.8-2.9-0.9,8.8-0.8,11.2c0.1,2.4-2.6,1.1-2.4-2.7
			C27.9,12,26.9,5.8,26.1,3.7z"/>
		<path id="XMLID_2627_" class="st5" d="M40.3,28.3c-1.3-0.8-2.7-1.6-4.1-2.5c-6.5-4-5.2-9.9-4.3-14.7c0.5-2.5,0.9-4.5,0-5.8
			c-1.4-1.9-5.6-6.2-7.9-5.2c-1.7,0.7-1.3,3.4-1.1,4.2c1.8,10.4-0.2,17.3-6,20.4c-1.3,0.7-2.5,1.3-3.8,1.9C6.4,30,0.1,33.1,0,43.5
			c-0.1,5.1,2.5,9.6,7.4,13c3.6,2.5,7.2,3.5,7.4,3.6l0.1,0c0,0,0.8,0.2,2,0.3c0.3,0,0.5,0.3,0.6,0.6c0.1,0.2,0.2,0.4,0.3,0.6
			c0.5,0.6,1.4,0.8,2.8,0.5c0.1,0,0.2,0,0.3,0c0.7,0.1,2.5,0.4,4.9,0.4c1.4,0,2.9-0.1,4.5-0.4c0.1,0,0.2,0,0.3,0
			c0.9,0.2,2.6,0.5,3.4-0.4c0.2-0.2,0.3-0.5,0.4-0.8c0-0.3,0.3-0.6,0.6-0.7c0.3-0.1,0.7-0.1,1-0.2c7.3-1.4,15.7-4.4,16.2-15.1
			C52.6,35.6,48,32.9,40.3,28.3z M50.7,44.8c-0.2,5.1-2,10.7-13.3,13.3c-0.1,0-0.2-0.1-0.1-0.2c9.6-9,5.7-20.8,5.2-22.2
			c0-0.1,3.6,17.5-9.2,23.1l0,0c-0.5,0.1-0.8,0.6-0.6,1l0,0c0.2,0.5,0.2,0.7,0.1,0.7c-0.2,0.2-1.3,0.2-2.2-0.1l-0.2-0.1l-0.2,0
			c-5,1-9.4,0-9.4-0.1c-1.3-0.7-0.4-0.5,3.9-0.3c4.3,0.2,6-0.2,6-0.2c-0.3,0-0.7,0-1-0.1c2.5-2.5,12.7-14.5,1.3-31.2
			c0-0.1,6.9,11.3,3,22.5c-1.7,5-5.4,8.2-5.8,8.5c0,0-0.1,0-0.1,0c-2.7-0.2-5.1-0.4-6.9-0.5c0,0-10.2-12.2,0.9-28.5
			c-10.5,12.6-5.4,24.5-2.6,28.2c0.1,0.1,0,0.2-0.1,0.2C18.8,59,18.3,59,18.3,59c-1.7-0.2-2.9-0.4-3.2-0.5c0,0,0,0,0,0
			c-11.2-8.8-7.1-21-6.5-22.3c0-0.1-6.2,10.3,3.4,20.9c0.1,0.1,0,0.3-0.1,0.2C7.8,55.3,1.4,51.1,1.5,43.5
			c0.1-9.4,5.7-12.2,12.2-15.4c1.3-0.6,2.6-1.3,3.8-2c6.4-3.5,8.7-10.9,6.8-22c-0.3-1.8,0-2.5,0.2-2.6c1-0.4,4.4,2.2,6.1,4.7
			c0.5,0.7,0.1,2.6-0.3,4.6c-1,4.7-2.4,11.7,4.9,16.3c1.5,0.9,2.8,1.7,4.2,2.5C47.2,34.2,51.1,36.5,50.7,44.8z"/>
		<path id="XMLID_2616_" class="st4" d="M23.5,32.3c0,0,2.7-2.9,4.5-2.8c1.8,0.1,4.5,3.4,5,8.2c0.5,4.8,0.5,8.9-6,10.1
			C20.6,49.1,17.1,40.1,23.5,32.3z"/>
	</g>
	<g id="XMLID_2597_">
		<path id="XMLID_2604_" class="st0" d="M62.6,41.1c0.1,0.1,0.2,0.3,0.2,0.5c0,0.1,0,0.2,0,0.2c-0.2,2.1,0.9,6.5,1.5,9.4
			c0.6,2.9,1.5,8.6-4.3,14.6c-5.8,6-17,5.5-20.8,3.8c-1.4-0.6-2.4-1.2-3.2-1.7c0,0,0,0,0,0c-1.3-0.8-4.2,3.2-7.9,2.5
			c-3-0.6-1.4-1-0.1-1.2c0.6-0.1,1.2-0.3,1.8-0.5c2-0.9,6.4-2.9,7.2-3.9c1.1-1.3,4.8-6.4,8.2-9.3c3.4-2.9,8.8-9.4,8.9-12
			c0-1,0.3-1.8,0.7-2.4c0.6-0.9,1.5-1.2,2.6-1C58.8,40.4,61.9,40,62.6,41.1z"/>
		<path id="XMLID_2639_" class="st1" d="M62.6,41.1c0.1,0.2,0.2,0.4,0.2,0.8c-0.2,2.1,0.9,6.5,1.5,9.4c0.6,2.9,1.5,8.6-4.3,14.6
			c-5.6,5.8-16.1,5.6-20.3,4c0,0,0,0,0,0c-0.2-0.1-0.3-0.1-0.5-0.2c-1.4-0.6-2.4-1.2-3.2-1.7c0.5,0.2,9.4,3.2,18.2-9.1
			c7.2-10,5.4-14,4.4-15.3c-0.3-0.3-0.5-0.5-0.5-0.5S60.9,43.1,62.6,41.1z"/>
		<g id="XMLID_2633_">
			<path id="XMLID_2642_" class="st3" d="M50.1,53.8c2.9-2.9,5.5-7.4,5.4-11L55,42.7c0.1,3.8-3,8.9-6,11.6C46,57,36.9,65.9,36.8,66
				c0,0,9.6-8.7,12.5-11.4C49.6,54.4,49.8,54.1,50.1,53.8z"/>
			<path id="XMLID_2643_" class="st3" d="M48,59.8c7.1-8,9.8-15,7.4-19.1L55,40.9c2.3,4-0.4,10.7-7.3,18.6c-6.2,7-11.4,8.2-11.4,8.2
				c0.2,0,4.8-0.7,10.6-6.7C47.3,60.6,47.6,60.2,48,59.8z"/>
			<path id="XMLID_2644_" class="st3" d="M57.8,43.2C59.2,57.4,40,68,40,68c0.5,0.1,6-2.9,10.7-7.6c0.1-0.1,0.3-0.3,0.4-0.4
				c3.7-3.8,7.8-9.8,7.1-16.8L57.8,43.2z"/>
		</g>
		<path id="XMLID_2650_" class="st6" d="M62.4,41.3c0.1,0.1,0.2,0.3,0.2,0.5c-1,0.9-2.7,1.6-4.8,1.5c-4.3-0.2-3.4-1.9-3.4-1.9
			c0,0,0,0,0,0c0.2-0.3,0.4-0.5,0.7-0.7c0.5-0.4,1.2-0.5,2-0.4c1.1,0.2,3.2,0,4.4,0.3C61.9,40.8,62.2,41,62.4,41.3z"/>
		<path id="XMLID_2648_" class="st2" d="M62.6,41.1c0.1,0.2,0.2,0.4,0.2,0.8c-0.2,2.1,0.9,6.5,1.5,9.4c0.6,2.9,1.5,8.6-4.3,14.6
			c-1.3,1.4-2.9,2.4-4.6,3.1c-5.6,2.5-12.5,2.1-15.7,0.9c0.3,0.1,13.1,1.9,19.3-9.6c5.2-9.6,1.1-15.1-0.4-16.7
			c-0.3-0.3-0.5-0.5-0.5-0.5s0.9,0,2-0.4C60.8,42.5,61.8,42,62.6,41.1z"/>
		<path id="XMLID_2646_" class="st7" d="M62.6,41.1c0.1,0.2,0.2,0.4,0.2,0.8c-0.2,2.1,0.9,6.5,1.5,9.4c0.6,2.9,1.5,8.6-4.3,14.6
			c-1.3,1.4-2.9,2.4-4.6,3.1c3-2.7,7-7.4,7.3-12.4c0.4-8-0.7-10.1-2.6-13.8C60.8,42.5,61.8,42,62.6,41.1z"/>
		<path id="XMLID_2630_" class="st4" d="M41,63.3c0-0.3,2.7-4.4,6.2-7.2c3.5-2.8,6.2-5.5,7-6.9c0.8-1.4,4-0.6,2.6,2.8
			s-6.8,13.4-13.9,14.3C39.6,66.6,41,63.3,41,63.3z"/>
		<path id="XMLID_2647_" class="st8" d="M61.5,40.7c-0.5,1.3-2.6,1.7-3.9,1.8c-1.5,0.2-2-0.8-2-0.8c-0.2-0.4-0.4-0.7-0.5-1
			c0.5-0.4,1.2-0.5,2-0.4C58.2,40.5,60.2,40.3,61.5,40.7z"/>
		<path id="XMLID_2625_" class="st5" d="M60.3,66.3c-5.9,6.1-17.2,5.8-21.4,4c-1.4-0.6-2.4-1.2-3.1-1.7l-0.1-0.1
			c-0.3-0.2-1.2,0.4-1.9,0.8c-1.5,0.9-3.5,2.2-5.9,1.7c-1.4-0.3-2.2-0.5-2.2-1.2c0-0.6,0.8-0.9,2.1-1.1c0.6-0.1,1.2-0.3,1.7-0.5
			c3.8-1.7,6.5-3.1,7-3.8c0.2-0.2,0.4-0.5,0.7-0.9c1.6-2.1,4.7-6,7.5-8.4c3.4-2.9,8.6-9.2,8.7-11.6c0-1.1,0.3-2,0.8-2.7
			c0.7-1,1.8-1.4,3.2-1.2c0.4,0.1,1,0.1,1.6,0.1c1.7,0,3.5,0,4.2,1.1c0.1,0.2,0.2,0.5,0.3,0.8l0,0.1c0,0.1,0,0.2,0,0.2
			c-0.2,1.6,0.5,4.7,1.1,7.3c0.1,0.7,0.3,1.3,0.4,1.9C65.3,53.6,66.5,59.9,60.3,66.3z M36,67.5L36,67.5l0.2,0.1
			c0.7,0.4,1.7,1,3.1,1.7c3.5,1.5,14.5,2.1,20.2-3.7c5.2-5.3,5-10.4,4.2-14.1c-0.1-0.6-0.3-1.2-0.4-1.9c-0.6-2.8-1.3-5.9-1.1-7.7
			c0,0,0-0.1,0-0.1l0,0c0-0.1,0-0.2-0.1-0.2l0,0c-0.4-0.6-2-0.6-3.2-0.6c-0.6,0-1.3,0-1.7-0.1c-0.6-0.1-1.5,0-2.1,0.8
			c-0.3,0.5-0.5,1.2-0.6,2.1c-0.1,3-6,9.8-9.1,12.4c-2.8,2.4-5.7,6.2-7.4,8.3c-0.3,0.4-0.6,0.7-0.8,1c-0.9,1-4.5,2.8-7.4,4.1
			c-0.6,0.3-1.3,0.5-1.9,0.6c-0.1,0-0.1,0-0.2,0c0.1,0,0.2,0,0.3,0.1c1.9,0.4,3.7-0.7,5.1-1.6C34.3,67.7,35.2,67.1,36,67.5z"/>
	</g>
</g>
</svg>
