<?xml version="1.0" encoding="utf-8"?>
<!-- Generator: Adobe Illustrator 25.2.3, SVG Export Plug-In . SVG Version: 6.00 Build 0)  -->
<svg version="1.1" id="Capa_1" xmlns="http://www.w3.org/2000/svg" xmlns:xlink="http://www.w3.org/1999/xlink" x="0px" y="0px"
	 width="101.4px" height="142.8px" viewBox="0 0 101.4 142.8" style="enable-background:new 0 0 101.4 142.8;" xml:space="preserve"
	>
<style type="text/css">
	.st0{fill:#4A9B42;}
	.st1{opacity:0.65;fill:#6AC161;}
	.st2{fill:#408E38;}
	.st3{fill:#9ECE59;}
	.st4{fill:#35842C;}
	.st5{fill:#216D14;}
	.st6{opacity:0.5;fill:#9ECE59;}
	.st7{opacity:0.5;fill:#A9EAA2;}
</style>
<g id="XMLID_4135_">
	<g id="XMLID_4134_">
		<path id="XMLID_4145_" class="st0" d="M61.9,102.5l13.8,22.7c0,0,3.6,8.3,11.5,14.3c3.2,2.4,5.9,2.7,8.1,2.1c3.2-0.8,5-3.4,5-3.4
			s-0.1-0.1-0.2-0.4l-12.7-20.9c-2-3.2,0.9-3.9,0.6-6c-0.2-2.1-3.9-1.1-3.9-1.1l-5.9-10.4c-3.4-5.7-5.5-9.9-6.7-12.9
			c-0.1-0.4-0.3-0.7-0.4-1.1c-0.9-2.4-1.2-4-1.2-4.9c0-0.7-0.7-1.1-1.3-0.8l-17.5,8.2c3.6,1.1,9.5,11.6,9.5,11.6
			C56.8,101.8,61.9,102.5,61.9,102.5z"/>
		<path id="XMLID_4132_" class="st1" d="M70.9,91.5c-0.2-0.5-0.9-0.7-1.3-0.4c-0.7,0.5-1.6,1.1-2.2,1.1c-1.1,0.1,2.6,8.6,8.4,16.3
			c5.8,7.7,9.4,19.2,13,22.6c3.6,3.4,6.1,2.8,1.2-5.2c-4.8-8-5.8-11.9-7.6-14.9C80.7,108.2,73.6,98.2,70.9,91.5z"/>
		<path id="XMLID_4142_" class="st2" d="M61.9,102.5l13.8,22.7c0,0,3.6,8.3,11.5,14.3c3.2,2.4,5.9,2.7,8.1,2.1c3.2-0.8,5-3.4,5-3.4
			s-0.1-0.1-0.2-0.4c-0.3,0.1-0.6,0.2-0.9,0.3c-6.8,3.3-11-4.4-13.3-8.1c-2.3-3.8-6.7-13.4-12.9-22.7c-6.1-9.3-9.7-16.3-7.2-17
			c2.5-0.6,5.5-3.4,5.5-3.4s0.1-0.1,0.3-0.4c-0.1-0.4-0.3-0.7-0.4-1.1c-0.9-2.4-1.2-4-1.2-4.9c0-0.7-0.7-1.1-1.3-0.8l-17.5,8.2
			c3.6,1.1,9.5,11.6,9.5,11.6C56.8,101.8,61.9,102.5,61.9,102.5z"/>
		<path id="XMLID_4131_" class="st3" d="M83.6,111c0,0,2.5,2.4-1.5,4.7c0,0,3.5-0.2,4.8-2.3C88.1,111.3,88.5,108.5,83.6,111z"/>
		<path id="XMLID_4141_" class="st4" d="M61.9,102.5l13.8,22.7c0,0,3.6,8.3,11.5,14.3c3.2,2.4,5.9,2.7,8.1,2.1
			c-8.6-3.2-14.3-18.7-25.3-35.1c-11.7-17.4-7.7-18.4-5.8-18.6c1.9-0.2,6.1-2.7,6.1-2.7s0.2,0.5,0.9,0.3c-0.9-2.4-1.2-4-1.2-4.9
			c0-0.7-0.7-1.1-1.3-0.8l-17.5,8.2c3.6,1.1,9.5,11.6,9.5,11.6C56.8,101.8,61.9,102.5,61.9,102.5z"/>
		<path id="XMLID_4130_" class="st3" d="M61.9,99.8c0.6-0.1,5.2-0.5,7.9,6.4c0,0-2.8-3.8-7.9-3.7C56.9,102.5,60.1,100.2,61.9,99.8z"
			/>
		<path id="XMLID_4139_" class="st5" d="M58.3,101.3c0.3,1.3,2,1.8,3.1,2l13.6,22.2c0.4,0.8,4.1,8.7,11.8,14.6
			c2.7,2.1,5.4,2.9,8,2.5c1.3-0.2,2.5-0.7,3.4-1.3c1.9-1.2,2.9-2.6,3-2.7l0.4-0.5l-13.3-21.8c-0.9-1.5-0.6-2,0-3
			c0.4-0.7,0.9-1.5,0.8-2.6c-0.1-0.7-0.4-1.3-1-1.7c-1-0.7-2.5-0.6-3.4-0.4L79,98.9c-6.9-11.6-8.1-16.5-8.1-18.4
			c0-0.6-0.4-1.2-0.9-1.6c-0.5-0.3-1.2-0.4-1.8-0.1l-19.8,9.2l2.4,0.7c2.2,0.7,6.2,6.5,8.5,10.4C58.7,99.7,58.1,100.4,58.3,101.3z
			 M70,106.5c-3.1-5.4-7.5-4.9-7.5-4.9l-0.4-0.1c-0.7-0.1-2-0.7-1-1.2l0.8-0.5L61.4,99c-0.5-0.9-4.7-8.2-8.3-11L69,80.6l-0.4-0.9
			l0.4,0.9c0,2.5,1.5,8,8.3,19.3l6.2,11.1l0.7-0.2c0.7-0.2,2-0.4,2.5,0c0.1,0,0.1,0.1,0.2,0.3c0,0.3-0.1,0.6-0.2,0.9
			c0,0.1-0.1,0.1-0.1,0.2c0,0.1-0.1,0.2-0.1,0.2c-0.6,0.9-1.9,2.6-4.4,3.3c0,0,1.6,0.2,3.6-0.6c0,0.7,0.3,1.4,0.8,2.3l12.6,20.7
			c-0.7,0.8-2.4,2.4-4.8,2.7c-2.1,0.3-4.3-0.4-6.5-2.1c-7.6-5.8-11.2-13.9-11.2-14l-0.1-0.1l-13.1-21.4
			C67.6,103.6,70,106.5,70,106.5z"/>
		<path id="XMLID_4133_" class="st6" d="M69.7,92.8c0.3-0.2,0.7-0.1,0.9,0.3c0.9,1.7,3.1,6.6,6,10.8c3.4,4.9,5.6,8.2,5.6,9.2
			c0,1-0.9,1-3.6-3c-2.6-4-8.8-11.5-9.8-16.2c-0.1-0.3,0.1-0.5,0.3-0.6L69.7,92.8z"/>
	</g>
	<g id="XMLID_4127_">
		<path id="XMLID_3987_" class="st0" d="M13,77.9c1.8,2.6,4.9,6,9.9,8.4c4.9,2.5,11.7,4,20.9,2.8c5.3,2.9,11.1,0.8,15.8-3
			c0.8-0.6,1.4-1.3,2-2.1c0.4-0.5,0.8-1,1.1-1.5c-0.3,0.6-0.7,1.1-1.1,1.5c0,0,0.1,0,0.3,0c0.8-0.1,3.1-0.4,6.7-2.5
			c0.6-0.4,1.3-0.8,2.1-1.3c0,0,0.1-0.1,0.3-0.2c1.2-1,5.4-4.9,4.5-9.2c0-0.1-0.1-0.2-0.1-0.3c3.6-1.9,7.1-5.1,8.2-10.4
			c1.1-5.3-0.2-9.7-2.5-13.2c1.4-10.6-1.4-18.2-6.2-24.6c-1.5-2-3.3-4-5.2-5.8c0,0,0,0,0,0c-1.4-1.4-2.9-2.7-4.4-4.1
			c-0.3-0.2-0.7,0.1-0.5,0.4c0.2,0.3,0.4,0.6,0.5,0.9l0,0c2.2,3.5,3.6,7.4,4.5,11C67,17,58.8,8.4,36.9,1.9c-4-1.2-10.6-1.9-9,2
			c0.1,0.3,0.3,0.7,0.5,1c-1.5-1-2.8-1.8-3.5-2.3c-4.4-2.9-6.7,0.8-7.9,5.5c-0.2,0.9-0.4,1.8-0.6,2.7c-2.3-7-6.2-0.1-7.7,4.3
			c-2.1,6.4-3.4,11.9-4.1,16.7c-2.4-0.7-2.9,4.2-2.9,8.2c-0.1,4.2,0.2,9.6,0.9,13c-0.3-0.5-0.7-1.1-1-1.7c-0.2-0.3-0.7-0.1-0.6,0.2
			C3.3,61.2,6.3,69.9,14,76.2c-0.4-0.1-0.8,0.1-1.1,0.5C12.8,77.1,12.8,77.5,13,77.9z M15.7,77.5c1,0.7,2.1,1.4,3.2,2
			c0.1,0.1,0.2,0.2,0.3,0.3C18.1,79.1,16.9,78.4,15.7,77.5z"/>
		<g id="XMLID_3972_">
			<path id="XMLID_3926_" class="st2" d="M58.6,70.2c0,0-0.2,11.2-8.9,13.4C40.9,85.8,37,80.4,37,80.4s3.9,12.8,16.1,9.4
				c0,0,6.4-3.2,8.9-6c0,0,9.9-0.2,13.2-9.8c0,0-2.6,5.8-11.3,4.8l1.8-7L58.6,70.2z"/>
			<path id="XMLID_3985_" class="st2" d="M63.1,70.9l0.6,0.2l1.9,0.7l1.3-4.3c0,0,0,0,0,0c0,0,0,0,0,0c0,0,0,0,0,0
				c0,0,0.1,0,0.1-0.1c0,0,0,0,0,0c1.1-0.4,5.4-1.6,7.4,1.6l0.4,0.8l0.4,0.8c0.1,0,0.2-0.1,0.3-0.1c3.5-1.9,6.8-5.1,7.9-10.3
				c1.1-5.3-0.2-9.7-2.5-13.2c1.2-9-0.7-15.8-4.2-21.6c-0.6-1-1.3-2-2-3c-3.9-4.1-5-5.6-5.2-5.8c0.4,0.7,7.3,13.8,2.2,22.5
				c0,0,13.3,10.6,4.1,18.6c-9.3,8-13.1,6.3-13.1,6.3L63.1,70.9z"/>
			<path id="XMLID_4081_" class="st2" d="M15.7,77.5c7.7,4.6,13,6.5,20.4,6.1l1.8-0.3c0,0-3.4-9.9-2.6-16.6c0.1-0.7,0.2-1.3,0.4-1.8
				c0.8-2.7,3.2-3,5.8-2.4c3.6,0.8,7.4,3.2,7.4,3.2s6.9,3.7,9.1,4.2c2.2,0.5,5.3,1.8,5.8,1.2c0.5-0.6-1.5-10.7-1.8-16.7
				c-0.2-3.7-0.5-8.4-0.8-11.5c-0.2-1.9-0.3-3.2-0.3-3.2s1-4.1,6.9-2.5c0.2,0.1,0.5,0.1,0.7,0.2c1.9,0.5,2.8,0.8,3.2,1
				c0-0.3,0-1.7-0.2-3.5c-0.4-2.6-1.2-6.3-3.2-9.6c-0.8-1.4-1.9-2.7-3.2-3.9c0,0-0.1-0.1-0.1-0.1c0,0,0,0,0,0
				c-0.1-0.1-0.1-0.1-0.2-0.2c-6.7-6.1-8.4-5.7-8.4-5.7s12.9,13.8-5.1,23.3c0,0,3.2,4.3,4,9c0.5,3.1,0,6.4-3.5,8.5
				c-1.9,1.2-3.9,1.6-5.7,1.5c-6.3-0.3-11.5-6.4-11.5-9.1c0-2.2,0.9-7.3,1.5-10.7c0.3-1.9,0.6-3.2,0.6-3.2s-4.8,9.4-12.1,9.6
				c-4.6,0.1-5.7-3-5.9-5.3l-0.3,6.4l0,0.9l11.9,12.8c0,0,2.8,4.4,0.1,9.3c-0.4,0.7-0.8,1.3-1.4,2c-3.9,4.5-9.7,1.3-12.6-2.6
				c-0.7-1-1.3-2-1.5-3c0,0-0.2-0.2-0.6-0.4c-1.3-0.9-4.3-3.2-7.1-5.7c-0.2-0.2-0.4-0.4-0.6-0.6c0,0,0,0,0,0
				c-0.2-0.2-0.4-0.4-0.6-0.6c0,0,0,0,0,0c-0.4-0.4-0.8-0.8-1.2-1.2c-0.8-0.8-1.5-1.6-2-2.4c0,0-1,1.7,0.8,5.6c0.5,1,1,2.5,1.7,4.1
				C7,68.2,10.1,74.1,15.7,77.5z"/>
			<path id="XMLID_4076_" class="st2" d="M42.2,12.5l1.7,1l0,0l0.5,0.3l1.4,0.9c0,0,0,0,0,0c0.1-0.2,1.4-2.9,5.7-1.4
				c4.5,1.6,8.2,2.7,13,7.6c0.1,0.2,0.3,0.3,0.4,0.4l0,0c1.4,1.4,2.4,2.8,3.3,4c1.8,2.6,2.5,4.4,2.6,4.2c0.1-0.2,0.5-4-2.9-9.3
				C65.1,16,54.5,8.4,45.8,4.6c-2.1-0.9-4.2-1.6-5.9-2C39.2,2.5,44.4,7.8,42.2,12.5z"/>
			<path id="XMLID_4074_" class="st2" d="M36.3,34.3c0-0.1,0.3-0.4,0.9-0.8c0.8-0.6,2.2-1.3,4-0.4c2.9,1.4,10.1,5.7,10.1,5.7
				s-2.2-16.6-4.5-22.3c-0.3-0.8-0.6-1.3-0.9-1.8c-0.4-0.7-0.8-1-1.2-1.1c-0.3-0.1-0.6-0.1-0.8,0l0,0c-0.2,0.1-0.3,0.2-0.3,0.2
				s5.6,10.4-8.1,15.2L36.3,34.3z"/>
			<path id="XMLID_4068_" class="st2" d="M2.5,53.1c0,0,0.1,0.1,0.3,0.4c0,0,0,0,0,0c1.2,1.7,6.2,8.6,11.4,11.5
				c0,0,0.3-14.4,2.3-16.6c0.5-0.6,0.7-1.1,0.6-1.6C17,45.2,15,44,15,44S4.7,57.1,1.6,43l0.7,7.9l0,0l0.2,1.9l0,0L2.5,53.1z"/>
			<path id="XMLID_3981_" class="st2" d="M4.6,31.5c0,0,0.9-8.7,2.4-11.3c1.5,3.3,4,1.7,4,1.7l-0.7,7c8.6-1,10.1-10.3,10.1-10.3
				s-2.3-1.6,2.7-0.2c5,1.4,9.1-7.7,9.1-7.7S33.8,22,34,22.5c0.2,0.6,1.3,9.5,1.3,9.5s-11.4-11.2-11-10.9c0.3,0.3-0.1-1.2-3,1.6
				s-3,23.6-3,23.6s-7.8-8.9-8.3-9.2c-0.3-0.2-0.1-3.4,0.1-5.7l-0.5,5.1L4.6,31.5z"/>
		</g>
		<path id="XMLID_3929_" class="st3" d="M57.9,69.9c0.3,0.1,0.2,0.5-0.1,0.5c-2.2,0-4.2,1.8-10.8-2c-4.8-2.7-7.3-4.2-7-2.1
			c0.3,1.8,2.2,9.5,7.3,14.4c0.2,0.2,0,0.6-0.3,0.5c-2.5-1.6-6.1-4.5-7.7-9c-1.6-4.4-2.5-3.4-3-1.6c-0.1,0.3-0.6,0.3-0.6-0.1
			c0-3,0.2-7,1.7-8.1C39.5,60.9,53.9,67.9,57.9,69.9z"/>
		<path id="XMLID_3980_" class="st4" d="M63.7,71.1l1.6,0.2l1.6-3.9c0,0,0,0,0,0c0,0,0,0,0,0c0,0,0,0,0,0c0,0,0.1,0,0.1-0.1
			c0,0,0,0,0,0c0.9-0.3,3.8-1.1,5.5,0.1c0.8,0.6,1.5,1.4,2.3,2.2c0.2,0.2,0.4,0.5,0.7,0.7c3.5-1.9,6.8-5.1,7.9-10.3
			c1.1-5.3-0.2-9.7-2.5-13.2c1.2-9-0.7-15.8-4.2-21.6c1,5,1.5,11.6-0.9,16.2c0,0,8.3,7.5,5.2,13.8C78.1,61.5,69.9,65.9,63.4,66
			L63.7,71.1z"/>
		<path id="XMLID_4077_" class="st4" d="M13,77.9c1.2,1.8,3.1,4,5.8,5.9c1.2,0.9,2.5,1.7,4.1,2.5c4.9,2.5,11.7,4,20.9,2.8
			c5.3,2.9,11.1,0.8,15.8-3c0.8-0.6,1.4-1.3,2-2.1c0,0,0.1,0,0.3,0c0.1-0.2,0.2-0.3,0.2-0.3s3.4-0.7,6.5-2.2c1-0.5,2-1.1,2.8-1.7
			c0,0-0.2,0.1-0.4,0.2c-1.3,0.5-4.9,1.7-7,0.7l1.7-9L61.1,71c0,0,0.8,10.9-10.4,15c-11.1,4.1-13.6-2.7-13.6-2.7s-4.5,0.5-10.2-0.6
			c-4.1-0.8-8.9-2.5-13.1-5.9c0,0-0.5-0.3-0.9-0.1C12.8,77.1,12.8,77.5,13,77.9z"/>
		<path id="XMLID_3949_" class="st3" d="M74.6,72c0,0-1.3-3.6-3.9-3.4c-2.6,0.3,3.8,1.3,0.8,6.5c0,0,0.8-3.9-2.4-5.2
			c0,0-0.6-0.4-0.9,0.3s-0.7,4.3-2.5,6.5c-1.7,2.2,0.7-9.3,1.2-9.4c0.5-0.1,4.5-1.9,6.6,0.8C75.8,70.9,74.6,72,74.6,72z"/>
		<path id="XMLID_3951_" class="st3" d="M73.8,41.3c0,0-6.3-2.4-6.1-1.2c0.2,1.2,6.4,4.5,8.6,13.4c0.1,0.2-0.2,0.4-0.4,0.2
			c-1.8-2.9-6.8-10.8-10.1-11.6c-4-1-0.6,6.3-2.8,14.3l-2.1-14c0,0-1.4-4.7,2.7-4.8S71.1,38.6,73.8,41.3z"/>
		<path id="XMLID_4069_" class="st2" d="M71.6,38.4C71.6,38.5,71.6,38.5,71.6,38.4C71.6,38.5,72.3,38.7,71.6,38.4z"/>
		<path id="XMLID_4070_" class="st2" d="M18.6,39l0.1-2.5C18.7,36.7,18.5,37.7,18.6,39z"/>
		<path id="XMLID_4071_" class="st3" d="M18.8,83.8c-0.5-0.6-3.1-3.9,0.7-2c4.1,2.1,11.4,2.9,11.7,2.7c0,0-1.8-0.7-4.2-1.8
			c-4.1-0.8-8.9-2.5-13.1-5.9c0,0-0.5-0.3-0.9-0.1c-0.2,0.3-0.2,0.8,0,1.1C14.3,79.7,16.1,81.9,18.8,83.8z"/>
		<path id="XMLID_3976_" class="st3" d="M31,61.2c0,0-6.3-2.8-9.3-7.1s-2.1,4.5,1,10.4c3.1,5.9-1.5,1.2-3.4-5
			c-1.9-6.2-1.9-6.7-2.8-3.2c-0.9,3.5-0.6,9-0.6,9s-2.5-11.3,0-15.6c2.5-4.3,3.1-3.7,8.6,3.3C29.8,60.1,31,61.2,31,61.2z"/>
		<path id="XMLID_4072_" class="st4" d="M36.1,30.7c0,0,0.9,1.7,1,2.8c0.8-0.6,2.2-1.3,4-0.4c2.9,1.4,10.1,5.7,10.1,5.7
			s-2.2-16.6-4.5-22.3c-0.3-0.8-0.6-1.3-0.9-1.8c0.1-0.2,1.4-2.9,5.7-1.4c4.5,1.6,8.2,2.7,13,7.6c0.1,0.2,0.3,0.3,0.4,0.4l0,0
			c1.4,1.4,2.4,2.8,3.3,4c1.8,2.6,2.5,4.4,2.6,4.2c0.1-0.2,0.5-4-2.9-9.3C65.1,16,54.5,8.4,45.8,4.6c-0.1,0.1-0.2,0.1-0.3,0.2
			c0,0,2.4,4.2-0.9,8.8c-0.1,0.1-0.1,0.2-0.2,0.3c0,0.1-0.1,0.1-0.1,0.2c0,0,5.6,8.6,0.5,13.6C39.7,32.6,36.1,30.7,36.1,30.7z"/>
		<path id="XMLID_3979_" class="st3" d="M52.8,41.3c0,0-4.5-1.5-8.1-3.9c-3.1-2.2,2.4,4.9,3.8,12.2c0.1,0.6-0.7,0.8-0.9,0.3
			c-1.7-3.5-4.6-9.3-6.3-10.7c-2.3-2.1-4.5,1.3-6.5,7.4c0,0,0.8-10.7,3.3-12.8c2.4-2.1,6.2,0.5,9.8,2.9
			C51.4,39.2,52.8,41.3,52.8,41.3z"/>
		<path id="XMLID_4078_" class="st3" d="M71.3,31.2c0.9-7.7-2.1-14.7-2.1-14.7l0.6-0.1c0,0,0,0,0,0c-1.4-1.4-2.9-2.7-4.4-4.1
			c-0.3-0.2-0.7,0.1-0.5,0.4c0.2,0.3,0.4,0.6,0.5,0.9l0,0C69.6,19.1,71.2,30.8,71.3,31.2z"/>
		<path id="XMLID_3986_" class="st3" d="M35.1,33.5c0,0-6.2-4.7-8.3-7c-1.9-2.1-1.4,5.5-0.3,10.9c0.1,0.3-0.3,0.4-0.5,0.2
			c-1.2-2.3-3.2-6.8-3.2-9.8c0.1-4.3-4.5,6.5-4.6,9.4c0,0,1.3-12.5,3.1-14.4c1.8-1.9,2.1-3.4,4.9,0.5S35.1,33.5,35.1,33.5z"/>
		<path id="XMLID_3983_" class="st3" d="M13.2,42.8c0,0-4.6-2.7-6.6-5.3c-1.9-2.6-1.1,4.2,1.1,7.6c2.2,3.4-1.1,0.7-2.7-3.4
			c-1.6-4.1-2.8-6-3.1-1.8s-0.7-7.4,1.5-8c2.2-0.5,5.1,4.5,7.5,7.3C13.4,42,13.2,42.8,13.2,42.8z"/>
		<path id="XMLID_4073_" class="st4" d="M2.8,53.4C2.8,53.4,2.8,53.4,2.8,53.4c1.2,1.7,6.2,8.6,11.4,11.5c0,0,0.3-14.4,2.3-16.6
			c0.5-0.6,0.7-1.1,0.6-1.6c-1.3,1.5-3.6,3.9-6.2,4.9c-3.1,1.2-7.2-0.2-8.7-0.7l0,0c-0.3-0.1-0.5-0.2-0.5-0.2s0.2,0.9,0.7,2.2l0,0
			C2.6,53,2.7,53.2,2.8,53.4z"/>
		<path id="XMLID_3990_" class="st3" d="M38.2,2.3c0,0-6.5,0-6.5,0.5c0.1,0.6,2.9-0.1,6.7,2.8c3.8,2.8-1-0.4-4.3-0.8
			c-3.3-0.5-4.8,0.9-2.8,3.1S27.1,4.3,28,2.5C28.8,0.7,34.6,1,38.2,2.3z"/>
		<path id="XMLID_3991_" class="st3" d="M28.2,7.6c0,0-3.6,0.3-2.1,1.3s2.9,4.5,2.9,4.5s-2.8-3.9-4-4.1c-1.2-0.2-1.5,6.8-1.5,6.8
			s-2.2-7.8-0.2-8.8C25.3,6.1,28.2,7.6,28.2,7.6z"/>
		<path id="XMLID_3994_" class="st3" d="M20.1,17.9c0,0-3-2-3.2-1.9c-0.2,0-1.8,2.3-1.5,5.9c0,0.2-0.2,0.2-0.3,0.1
			c-0.4-1.2-0.9-3-0.7-4.2c0.3-1.8-3,2.5-3.3,4.9s1-8.2,3.2-8.8C16.6,13.3,18,15.5,20.1,17.9z"/>
		<path id="XMLID_4086_" class="st3" d="M17.4,8.9c0-1.4,1.8-4.2,1.7-2.7c-0.1,1.5,0.8,3.4,0.8,3.4c-0.1-4.4,1.8-5.9,2.8-6
			c0.9-0.1,5.1,2.8,5.4,2.6c0.6-0.6,0.5-1.4-0.2-2.3c0.1,0.3,0.3,0.7,0.5,1c-1.5-1-2.8-1.8-3.5-2.3c-4.4-2.9-6.7,0.8-7.9,5.5
			C17.2,8.9,17.4,9.2,17.4,8.9z"/>
		<path id="XMLID_4082_" class="st3" d="M11.4,12.8c0.7-1.3-2.1,1.3-2,2.7c0,0.3,0.1,0-0.1-0.8c1.2-4.5,3.3-8.1,7.3-5.9
			c0,0.1-0.1,0.2-0.1,0.3c-0.5,1.3-0.9,2.6-1.2,3.9c-0.4,0.1-0.6,0.3-0.7,0.4c-0.3,0.2,0.6-3.3-0.3-3.2c-0.9,0.1-3.4,3.4-3.7,7.9
			C10.6,18.1,10,15.5,11.4,12.8z"/>
		<path id="XMLID_3992_" class="st3" d="M42.6,13.3c0,0-4.9-0.6-5.6,0.1c-0.6,0.6,2.9,2.9,4.2,6.8c0.1,0.3-0.3,0.5-0.5,0.3
			c-1.2-1.6-3.6-4.5-5-5.3c-2-1-1.6,8.3-1.6,8.3s-2.9-10.4-1.4-11.8C34.3,10.2,37.1,10.3,42.6,13.3z"/>
		<path id="XMLID_3995_" class="st3" d="M13.9,66.1c0,0-5.3-2.4-7.6-5.2C4,58,7.1,63.7,9.5,66.1c2.5,2.5-3-1.3-5.2-5.3
			c-1.3-2.4-1.8-4.5-2-5.9c-0.1-0.5,0.6-1,1-0.5C7.6,60.6,17.1,66.2,13.9,66.1z"/>
		<path id="XMLID_4008_" class="st4" d="M15.7,77.5c7.7,4.6,13,6.5,20.4,6.1l1.8-0.3c0,0-4.1-12-2.2-18.4c1.9-6.4,13.2,0.8,13.2,0.8
			s6.9,3.7,9.1,4.2c2.2,0.5,5.3,1.8,5.8,1.2c0.5-0.6-1.5-10.7-1.8-16.7c-0.3-6.1-1.1-14.7-1.1-14.7s1-4.1,6.9-2.5
			c2.3,0.7,3.4,1,3.9,1.2c0-1,0-11-6.6-17c-0.1-0.1-0.2-0.2-0.3-0.3c0.9,2.3,4.3,13.9-11.9,18.8c0,0,4.6,2.8,5.3,8.7
			c0.7,5.9-3.3,13.1-11.1,12c-7.9-1.1-13.6-5.9-13.6-5.9s1.7,9.3-0.6,14.8c-2.4,5.5-10.5,7.7-16.8,1.8c-1.3,2.2-10.1-5.3-12.2-10.4
			C5.3,66.1,10.1,74.1,15.7,77.5z"/>
		<path id="XMLID_3975_" class="st4" d="M34.8,43.9c0,0-8.3,7.8-15.5,2.4c0,0,9.9,13.6,13.7,16.5c3.8,2.9-0.6-3.3,0.7-8.5
			C35.1,49,34.8,43.9,34.8,43.9z"/>
		<path id="XMLID_3977_" class="st3" d="M49.8,27.7c0,0,0.5-5.6-0.3-9.2c-0.8-3.6,3.6-0.3,5.1,3.4c1.5,3.6,2.1,7.6,2.1,7.6
			s1.2-4.5-1.7-9.4c-3-4.9-4.6-6.6-0.7-5.8c3.9,0.8-3.9-1.7-5.8-1s-2.8,1.6-1.8,4.7C47.7,21.2,49.8,27.7,49.8,27.7z"/>
		<path id="XMLID_3953_" class="st5" d="M12.2,78.4c3.7,5.4,12.8,14,31.4,11.7c4.1,2,8.9,1.6,13.7-1.3c0.9-0.6,1.9-1.2,2.8-2
			c0.7-0.6,1.3-1.2,1.9-1.9c1.1-0.1,3.8-0.6,7.9-3.1c0.4-0.2,0.8-0.5,1.2-0.8l0,0c0.3-0.2,6.1-4.7,5.3-10.1c0.2-0.1,0.4-0.2,0.6-0.4
			c3.4-2.1,6.4-5.3,7.4-10.3c1-4.9,0.2-9.5-2.4-13.6c2.1-17.2-6.8-26.7-16.1-35c-0.5-0.4-1.2-0.4-1.7,0c-0.5,0.4-0.6,1.1-0.2,1.7
			c0.7,1,1.3,2,1.8,3.1C60.1,10.1,50.5,4.9,37.2,1c-0.9-0.3-8.5-2.4-10.2,0.7c-0.2,0.3-0.3,0.7-0.3,1c-0.5-0.3-0.9-0.6-1.2-0.8
			c-1.9-1.2-3.6-1.5-5.1-0.8C18.4,1.9,17,4.2,16,8c-0.5-0.7-1.2-1-1.9-1.1c-3.5-0.4-6.1,7.1-6.4,8c-1.9,5.8-3.3,11.1-4,16
			c-0.1,0-0.2,0.1-0.4,0.1c-1.8,0.6-2.6,3.4-2.7,9c0,3.2,0.1,7.1,0.4,10.3c-0.1,0-0.2,0-0.3,0.1c-0.6,0.2-0.9,0.9-0.8,1.5
			C2.1,60.6,4.9,69.4,12.3,76C11.8,76.7,11.7,77.7,12.2,78.4z M6.3,34.5c1.9,2.3,9.4,11.2,9.4,11.3l0,0c0.3,0.3,0.5,0.6,0.8,1
			c-1.2,1.2-2.1,3.9-2.6,8.2c-0.3,2.8-0.4,5.7-0.2,8.6c-3.5-2.7-7.4-6.3-10.3-10.9C2.7,49.3,2.5,44,2.6,40c0.1-6.6,1.3-7.2,1.5-7.3
			C4.3,32.7,5,33,6.3,34.5z M33.8,11.9C33.9,11.9,33.9,11.9,33.8,11.9c0.7-0.4,2.8-0.8,8.8,2.3c0.8,0.4,1.7,0.9,2.6,1.4
			c0,0.3,0.1,0.6,0.2,1c3,8.9,4.7,16.3,4.9,21.1c-2.7-1.8-5.1-3.4-6.1-3.9c-0.3-0.2-0.7-0.4-1-0.6c-1.5-0.9-3.1-1.9-4.8-1.2
			c-0.4,0.2-0.7,0.4-1,0.7c-0.4-1-0.7-2-0.9-3.1c0-0.2-2.3-11.7-2.9-14.5C33.2,13.9,33.1,12.5,33.8,11.9z M31.6,15.4
			c0.6,2.9,2.9,14.5,2.9,14.5l0,0c0,0.2,0.1,0.4,0.1,0.6c-2.5-2.8-6.1-6.7-7.4-8c-0.9-1-1.8-1.6-2.6-1.9c-0.2-0.2-0.3-0.4-0.5-0.6
			c-0.3-3.5-0.8-7.8-0.9-9.4c-0.1-1.1-0.1-2.6,0.7-3l0,0c0.6-0.3,2.5-0.7,8.4,3.1C31.4,11.7,31.2,13.2,31.6,15.4z M47.2,16
			c-0.2-0.6-0.1-1.2,0.4-1.7c0.1-0.1,0.2-0.2,0.4-0.3c0.4-0.2,0.8-0.3,1.2-0.2l0,0C61.7,16.7,70.1,26,70.9,37.6
			c-0.6-0.2-1.2-0.5-1.7-0.6c-3.8-1.1-6.5-1-8,0.3c-0.7,0.6-1.5,1.8-1.2,4c0.1,0.9,0.3,2,0.4,3.3c-1.9-1.3-5.1-3.5-8.2-5.6
			C52.4,32.4,49.3,22.1,47.2,16z M60.7,47c0.2,2.7,0.4,6.3,0.6,11.5c0.2,5.1,0.9,8.9,1.5,11.5c-3.8-0.8-9.9-2.5-14.4-5.3
			c-5.2-3.2-8.6-4.3-10.8-3.5c-0.8,0.3-1.4,0.8-1.8,1.6c-2.4-5.4-0.6-15.2,0.9-23.2c0.8-4.1,1.7-5.5,2.3-5.9c0,0,0.1-0.1,0.1-0.1
			c0.8-0.3,1.9,0.4,3.1,1.1c0.4,0.2,0.7,0.5,1.1,0.7C45.9,36.9,58.4,45.5,60.7,47z M33.3,61.9c-3.4-3.6-9.4-10.1-11.3-13
			c-0.9-1.4-1.8-2.3-2.7-2.6c-0.9-3.1-0.3-10.3,0.5-15.5c1.1-7.1,2.7-8.3,3.3-8.5c0.9-0.3,1.9,0.7,2.7,1.5c2,2.2,9.9,10.8,10,10.9
			c0,0,0,0.1,0.1,0.1c-0.5,1.1-0.9,2.6-1.2,4.5C33.3,47.2,31.7,55.9,33.3,61.9z M22.2,20.6c-2,1-3.3,4.1-4.2,9.9
			c-0.7,4.6-1.2,10.2-0.8,14c-0.5-0.6-3.5-4.2-6-7.2c-0.5-3.5,0-9.7,0.7-14.4c1.1-7.1,2.7-8.3,3.3-8.5c0.9-0.3,1.9,0.7,2.7,1.5
			C18.7,16.8,20.4,18.7,22.2,20.6z M34.7,66.1c-0.7,4.1-1.1,11.1,1.9,16.9c-2.9,0.1-9.8-0.1-16.8-4c-0.4-0.4-0.8-0.8-1-1.1
			c-2-3.2-4.2-13.9-3.2-22.7c0.8-6.7,2.2-7.3,2.4-7.3c0.4-0.1,1.2,0.4,2.3,2c2.8,4.2,13.4,15.3,14,15.8C34.5,65.9,34.6,66,34.7,66.1
			z M15.4,10.9c-0.1,0.5-0.2,1-0.2,1.6c-0.2,0-0.3,0.1-0.5,0.1c-2.2,0.7-3.7,3.9-4.6,10C9.4,26.5,9,31.2,9,34.8
			c-0.5-0.6-0.9-1.1-1.2-1.5c-0.4-0.4-1.2-1.4-2.2-2c0.7-4.6,1.9-9.8,3.9-15.8c1.3-4,3.4-6.8,4.4-6.7C14.1,8.8,14.7,8.9,15.4,10.9z
			 M27.7,5.6c0.1,0.2,0.2,0.4,0.4,0.6c-2.2-0.9-3.9-1-5.1-0.2l0,0c-1.3,0.8-1.8,2.4-1.6,4.8c0.1,1.2,0.4,4,0.7,6.9
			c-1.2-1.3-2.2-2.4-2.7-3c-0.8-0.8-1.5-1.4-2.3-1.8c1.1-7.6,3-9.6,4-10.1c0.9-0.4,2-0.2,3.3,0.7C25,3.9,26.3,4.7,27.7,5.6z
			 M69,24.9c0.1,0.3,0.1,0.6,0.2,0.8C65.3,19,58.4,14,49.6,12c-1.3-0.3-2.6,0.1-3.4,1.1c-0.2,0.2-0.3,0.4-0.5,0.7
			c-0.7-0.4-1.4-0.8-2.1-1.2c-4.2-2.2-7.1-3.1-9.1-2.8c-0.3-0.2-0.5-0.4-0.8-0.5c-5.6-5-5.1-6.5-5-6.7c0.1-0.1,0.1-0.2,0.3-0.3
			c1-0.6,4.2-0.6,7.7,0.5C58.2,9.2,66.2,17.7,69,24.9z M80.2,44.2c-2.2-2.5-4.9-4.4-7.4-5.7c0-1.3-0.2-2.5-0.4-3.7
			c-0.3-4.5-1.3-12.1-4.7-19c7.6,7.2,13.6,15.2,12.7,28.5C80.4,44.3,80.3,44.3,80.2,44.2z M71.9,66.1c-2.3-0.6-5-0.1-5.9,0.9
			c-0.4,0.5-0.6,1.4-1,3.5c-0.1,0-0.2,0-0.2,0c-0.6-2.4-1.4-6.4-1.6-12c-0.4-10-0.8-14.3-1.3-17.5c-0.2-1.1,0-1.8,0.5-2.2
			c0.1-0.1,0.1-0.1,0.2-0.2c0.7-0.4,2.3-0.8,5.9,0.3c2.9,0.9,7.1,3,10.2,6.6c3.7,4.2,5,9,3.8,14.4c-1,4.5-3.7,7.4-6.8,9.2
			C75.1,67.6,73.8,66.6,71.9,66.1z M63.6,82.7c1.7-3.1,2.5-7.8,3.2-11.2c0.3-1.4,0.5-2.9,0.7-3.3c0,0,0,0,0,0c0.5-0.3,2.5-0.7,4.4,0
			c1.4,0.5,2.3,1.5,2.6,2.9c0.8,4.2-4.1,8.2-4.5,8.5C67.3,81.3,65.1,82.2,63.6,82.7z M37.1,64.4c0.3-1,0.8-1.2,1.1-1.4
			c1.1-0.4,3.5-0.1,9.1,3.3c5.9,3.6,14,5.4,17.4,6c-0.6,3.1-1.5,7.2-2.9,9.7c-0.3,0.5-0.7,1-1.1,1.5L59.4,85l0,0
			c-0.1,0.1-0.3,0.3-0.5,0.4c-3.2,2.6-11.5,7.9-18.5-0.1C34.5,78.5,36.1,67.7,37.1,64.4z M13.8,77.3C13.8,77.3,13.8,77.3,13.8,77.3
			c0-0.1,0-0.1,0-0.1c0.3,0.3,0.7,0.5,1,0.8c9.7,7.6,20.3,7.2,22.9,6.9c0.4,0.5,0.8,1.1,1.2,1.6c0.7,0.7,1.3,1.4,2.1,2
			C25,89.7,17.1,82.1,13.8,77.3z M2.9,55.4c3.3,4.6,7.5,8.2,11,10.7c0.5,4.2,1.3,8,2.3,10.5c-0.4-0.3-0.9-0.7-1.3-1
			c-0.1-0.1-0.3-0.2-0.4-0.3C8,70,5,63,2.9,55.4z"/>
		<path id="XMLID_3931_" class="st1" d="M42.1,65.4c0,0,3.9,3,8.4,4.8c3.8,1.6-5.1,9.7-9.3,8.6s-4-10.3-3.4-12.2
			C38.3,64.6,38.9,63.2,42.1,65.4z"/>
		<path id="XMLID_3950_" class="st7" d="M44.3,69.5c0,0-3.7-2.4-4.7-3.4c-1-1-1.3,1.3-1.3,3.1c0,1.8,0,3.3,0.5,3.5
			c0.5,0.2,0.2-1.9,1.7-2C42.1,70.5,46.8,70.8,44.3,69.5z"/>
		<path id="XMLID_4080_" class="st1" d="M20.9,56.3c0,0,3.3,4.3,6.4,6.8c2.3,1.8-4.4,6.8-7.1,5.8c-3.1-1.1-3.7-9.8-3.4-12.1
			C17,54.2,17.5,52.1,20.9,56.3z"/>
		<path id="XMLID_4079_" class="st7" d="M22.6,61.5c0,0-3.2-3.4-4.1-4.9c-1-1.6-1.2,1.4-1.1,3.5c0.1,1.9,0.2,3.4,0.7,3.7
			c0.4,0.3,0-1.9,1.4-1.7C20.8,62.2,24.4,63.2,22.6,61.5z"/>
		<path id="XMLID_4084_" class="st1" d="M25.6,28.5c0,0,3.2,4.1,6.8,6.7c3,2.2-6.1,7.2-9.1,5.8c-3-1.4-2.5-9.6-1.9-11.7
			C22,26.9,22.7,25.1,25.6,28.5z"/>
		<path id="XMLID_4083_" class="st7" d="M26.9,33.4c0,0-3-3.2-3.8-4.5c-0.8-1.4-1.3,1.3-1.5,3.2c-0.1,1.8-0.2,3.2,0.2,3.5
			c0.4,0.3,0.2-1.8,1.6-1.6C24.8,34.1,28.8,35.2,26.9,33.4z"/>
		<path id="XMLID_4119_" class="st1" d="M6.7,38c0,0,2.3,3,5,4.9c2.2,1.6-4.5,5.3-6.7,4.3c-2.2-1.1-1.8-7.1-1.4-8.6
			C4.1,36.9,4.6,35.5,6.7,38z"/>
		<path id="XMLID_4093_" class="st7" d="M7.7,41.7c0,0-2.2-2.4-2.8-3.3c-0.6-1-1,1-1.1,2.4C3.8,42,3.7,43.1,4,43.3
			c0.3,0.2,0.2-1.3,1.2-1.2C6.2,42.2,9.1,43,7.7,41.7z"/>
		<path id="XMLID_4121_" class="st1" d="M16.4,16.9c4,4.1-0.4,9.6-2.3,8.6c-1.9-1-0.9-5.4-0.6-6.7C13.9,17.4,14.4,14.9,16.4,16.9z"
			/>
		<path id="XMLID_3993_" class="st7" d="M15.9,17.4c2.8,2.8-0.1,4.5-1.4,3.8c-1.3-0.7-0.8-1.5-0.6-2.5C14.2,17.7,14.5,16,15.9,17.4z
			"/>
		<path id="XMLID_4092_" class="st1" d="M50.9,20.4c0,0,2,4.9,2.4,9.3c0.4,3.3,5.8-4.1,6-6.7c0.2-2.7-4.2-5.8-5.9-6.4
			C51.2,15.7,49.1,15.1,50.9,20.4z"/>
		<path id="XMLID_4088_" class="st7" d="M54.3,23.8c0,0-1.1-4.2-1.8-5.7c-0.8-1.6,1.6-0.6,2.9,0.3c1.1,0.7,1.9,1.3,2,1.7
			c0,0.4-1.1-0.5-1.4,0.7C55.5,22,54.7,26.1,54.3,23.8z"/>
		<path id="XMLID_4125_" class="st1" d="M39.8,9.5c3.1,1.3,2.4,0.1,1.6-2.4c-0.8-2.6-6.1-3.8-7.9-3.8C31.2,3.3,30.3,5.5,39.8,9.5z"
			/>
		<path id="XMLID_4120_" class="st7" d="M36.9,6.8c1.4,0.6,1.1,0,0.7-1.2c-0.4-1.2-2.9-1.8-3.7-1.8C32.9,3.9,32.4,4.9,36.9,6.8z"/>
		<path id="XMLID_4087_" class="st1" d="M36.9,23c1,2.5,6.7-1.6,6.8-4c0.1-2.4-5.4-4.8-7-5.1C32.7,12.3,35.7,19.9,36.9,23z"/>
		<path id="XMLID_4085_" class="st7" d="M37.6,18.9c0,0-1.1-3-1.7-4c-0.6-1,1.3-0.4,2.6,0.1c1.2,0.5,2.2,0.9,2.2,1.3
			c0.1,0.3-1.2-0.4-1.6,0.5C38.7,17.8,38.1,20.7,37.6,18.9z"/>
		<path id="XMLID_4123_" class="st1" d="M25.7,15.1c0.6,1.6,4.7-1.3,4.8-2.8c0.1-1.6-3.5-2.9-4.6-3C23.2,8.3,25,13.1,25.7,15.1z"/>
		<path id="XMLID_4122_" class="st7" d="M26.3,12.4c0,0-0.6-1.9-1-2.5c-0.4-0.6,0.9-0.3,1.8,0c0.8,0.3,1.4,0.5,1.5,0.7
			c0,0.2-0.8-0.2-1.1,0.4C27.1,11.6,26.6,13.5,26.3,12.4z"/>
		<path id="XMLID_4075_" class="st1" d="M39.5,51.3c1.2,4,11-0.1,11.9-4.4c1-4.2-7.4-8-9.3-8.6C38.5,37.2,37.8,45.9,39.5,51.3z"/>
		<path id="XMLID_4067_" class="st7" d="M40.5,46c0,0-0.5-3.9,0.4-6.2c0.5-1.3,1.8-0.6,3.4,0.2c1.6,0.8,2.9,1.5,2.9,2
			C47.1,42.5,40.5,48.8,40.5,46z"/>
		<path id="XMLID_3963_" class="st1" d="M64.1,43.8c0.2,5.1,1.3,8.3,2.2,11.9c0.9,3.6,11.4-3.2,9.8-8.4C74.6,42,63.7,35.5,64.1,43.8
			z"/>
		<path id="XMLID_3966_" class="st7" d="M70.2,41.8c0,0-2.9-1.6-4.2-0.7c-1.3,1-0.8,3-0.3,4.8c0.4,1.9,0.7-0.5,2.1-1.6
			C69.1,43.2,72,42.8,70.2,41.8z"/>
		<path id="XMLID_3967_" class="st1" d="M69.5,69.1c0,0-1-0.3-1.4,1.4c-0.4,1.7-0.6,3.7-0.9,5c-0.3,1.4,4.3,1.8,5.6-2.5
			C74.3,68.8,69.5,69.1,69.5,69.1z"/>
		<path id="XMLID_3971_" class="st7" d="M71.4,69.8c0,0-1.9-0.6-2.3-0.2c-0.4,0.4-0.6,2-0.6,2.8s0.6-0.7,1.6-1.1
			C71.1,70.9,72.9,70.1,71.4,69.8z"/>
		<path id="XMLID_4126_" class="st1" d="M22.5,4.8c0,0-2.4-1.6-3.3,1.4c-0.9,3-1,5.6-0.9,6c0.1,0.3,2.4,3,2.6,2.4
			c0.2-0.6-1-6.1,0.3-7.5C22.3,5.8,23.6,5.2,22.5,4.8z"/>
		<path id="XMLID_4124_" class="st7" d="M21.4,5.3c0,0-1.4-0.9-2,0.8c-0.5,1.7-0.5,3.3-0.5,3.5c-0.2,2.8,0.8,2,0.9,1.1
			c0.1-1.1,0-3.3,0.7-4.1C21.2,5.9,22,5.5,21.4,5.3z"/>
		<path id="XMLID_4129_" class="st1" d="M12.3,11.1c-1.4,1.6-2.1,3.3-2.2,3.6c-0.1,0.2,0.7,2.6,1,2.2c0.3-0.4,1.2-3.4,2.2-4.2
			C15.8,10.8,13.6,9.4,12.3,11.1z"/>
		<path id="XMLID_4128_" class="st7" d="M13.9,11.1c0,0-0.7-1-1.5,0c-0.8,1-1.2,2-1.3,2.1c-0.8,1.7,0,1.5,0.3,1
			c0.4-0.7,0.9-2.1,1.5-2.4C13.7,11.4,14.3,11.4,13.9,11.1z"/>
	</g>
</g>
</svg>
