<?xml version="1.0" encoding="utf-8"?>
<!-- Generator: Adobe Illustrator 25.2.3, SVG Export Plug-In . SVG Version: 6.00 Build 0)  -->
<svg version="1.1" id="Capa_1" xmlns="http://www.w3.org/2000/svg" xmlns:xlink="http://www.w3.org/1999/xlink" x="0px" y="0px"
	 width="1028.1px" height="337.5px" viewBox="0 0 1028.1 337.5" style="enable-background:new 0 0 1028.1 337.5;"
	 xml:space="preserve">
<style type="text/css">
	.st0{fill:#B04652;}
	.st1{fill:#C9B4A7;}
	.st2{fill:#CB8480;}
	.st3{fill:#F5DBD5;}
	.st4{fill:#915D59;}
	.st5{opacity:0.34;fill:#FFFFFF;}
	.st6{opacity:0.55;fill:#FFFFFF;}
</style>
<g>
	<g>
		<path class="st0" d="M120.7,271.5c5.7,8.2,15.2,12.7,24.6,16.2c12.8,4.7,26.1,8.2,38.1,14.5c7.2,3.8,14,8.6,21.9,10.3
			c1.7-9.9-3.4-20.1-11-26.8c-7.6-6.7-17.2-10.5-26.8-13.8c-9.6-3.3-19.4-6.2-27.9-11.6c-4.8-3-15.1-15.5-20.4-11.7
			C113.1,253,117.6,267,120.7,271.5z"/>
		<path class="st1" d="M210.9,315.2c13.1,4.1,26.1,8.1,39.2,12.2c19.3,6,39.5,12.1,59.7,9.5c20-2.6,37.6-13.4,55.9-21.5
			c62.4-27.5,135.2-23.7,198.9-48.2c42.4-16.3,78.9-44.4,119.9-63.9c65.1-30.8,139.1-38.6,211.5-41c39.9-1.3,80.9-1.4,118.4-14.8
			c7.8-2.8,17-10.4,12.6-17.1c-2.5-3.7-7.7-4.4-12.3-4.6C890,119.3,764,135.3,645.2,173c-108.5,34.4-213.1,86.9-326.9,95
			c-30,2.2-61,1.4-90,10.2c-9.6,2.9-28,8-34.9,15.5C183.6,304.4,202.5,312.6,210.9,315.2z"/>
		<path class="st2" d="M200.2,205.3c35.8-6.9,72.3-9.5,107.8-17.5c84.2-18.9,159.3-66.9,242.7-89.3c90.7-24.3,186.5-17.2,280.1-9.9
			c66.6,5.2,134.8,10.8,195.8,38.2c-26.8,13.3-57.6,15.3-87.4,17.6c-41.5,3.2-83,7.3-124.3,12.3c-59.9,7.2-121.3,16.9-173.5,47.2
			c-27.3,15.8-51.6,37-80.2,50.3c-38.6,18-82.4,20.4-124.3,27.9c-30.7,5.5-61.1,14-89.2,27.4c-16.9,8-33.6,18-52.2,19.5
			c-18.9,1.5-37.3-5.9-54.8-13.2c-33.9-14.1-67.9-28.2-101.8-42.4C76.5,247.8,176.9,209.8,200.2,205.3z"/>
		<g>
			<path class="st3" d="M707.8,101.8c-30.8,7.1-61.8,14.2-91.2,25.7c-51.7,20.1-98.1,53.4-151.8,67.3c-28.2,7.3-60.9,10.8-78.6,34
				c40.8-19.5,87.1-23.4,130-37.4c48.6-15.9,92.2-44.3,140.2-62c57.8-21.2,120-26.1,181.4-30.7c18.8-1.4,37.6-2.9,56.5-4.3
				c-21.1-2.4-42.4-4.1-63.5-5.8c-16.6-1.3-33.2-2.6-49.9-3.7C756.5,90.6,732.1,96.2,707.8,101.8z"/>
			<path class="st3" d="M964.3,106.2c-86,13-172,26-258,39.1c-41.9,6.4-84.3,13-123.3,29.6c-22.8,9.7-44.1,22.8-67.1,32.3
				c-57.1,23.5-120.6,23.3-181.8,31.6c-51.3,6.9-105.3,22.4-142.2,57.1c16.2,6.7,32.4,13.5,48.6,20.2c17.5,7.3,35.9,14.7,54.8,13.2
				c18.7-1.5,35.3-11.5,52.2-19.5c28.2-13.4,58.5-21.9,89.2-27.4c41.9-7.5,85.7-9.9,124.3-27.9c28.7-13.3,52.9-34.5,80.2-50.3
				c52.2-30.3,113.6-39.9,173.5-47.2c41.3-5,82.8-9.1,124.3-12.3c29.8-2.3,60.6-4.4,87.4-17.6C1006.5,117.9,985.6,111.2,964.3,106.2
				z"/>
			<path class="st3" d="M140.9,274.6c7.1,2.9,14.2,5.9,21.3,8.8c1.8-1.2,3.5-2.5,5.1-3.7c88.5-67.6,205.8-80,310.2-118.8
				c52.9-19.7,103-46.4,156.2-65.1c15.7-5.5,31.8-10.3,48.2-14c-21.1,0.4-42.2,1.6-63.1,4c-46.3,21.4-92.6,43-140.4,60.6
				C365,188.1,241,208.9,140.9,274.6z"/>
		</g>
	</g>
	<path class="st1" d="M22,156.9c0,0.8,0,1.7,0.4,2.4c0.8,1.5,2.6,1.9,4.2,2.4c5.2,1.7,9.7,6,15.1,6c0.4-2.8,0.7-5.7,1.1-8.5
		c0-0.3,0.1-0.6,0-0.9c-0.1-0.3-0.5-0.6-0.8-0.7c-4.6-2.6-9.2-5-14-7.3c-1.4-0.6-4.6-3-5.8-1.4C21.1,150.4,22,155.1,22,156.9z"/>
	<path class="st4" d="M223.1,232.6c20-5.6,38.9-14.6,58.8-20.4c43.2-12.6,89.3-9.7,133.6-17.6c37.4-6.7,73.1-21,107.6-36.9
		c19.7-9.1,39.2-18.8,59.6-26.2c84.9-30.5,178.2-17.8,268.5-18c21.7-0.1,55.9-4.6,75.1-14.7C788,61.1,628.6,61.2,488.5,92.4
		c-74.8,16.7-147.1,42.9-221.7,60.7c-21.3,5.1-43,9.5-62.5,19.5c-10.8,5.5-20.9,12.9-28.8,22.1c-5.4,6.4-16.7,20.2-18,28.6
		C154,245.7,212,235.7,223.1,232.6z"/>
	<g>
		<path class="st0" d="M3.3,143.5c5,8.6,14.1,14,23.1,18.2c12.3,5.8,25.3,10.3,36.8,17.6c6.8,4.3,13.2,9.7,20.9,12.1
			c2.6-9.8-1.7-20.4-8.7-27.7c-7-7.3-16.3-11.9-25.5-16C40.6,143.8,31.1,140,23,134c-4.5-3.4-13.8-16.7-19.3-13.4
			C-2.7,124.4,0.5,138.7,3.3,143.5z"/>
		<path class="st1" d="M89.5,194.6c12.7,5.2,25.3,10.3,38,15.5c18.8,7.6,38.3,15.4,58.7,14.5c20.1-0.9,38.6-10.2,57.5-16.7
			c64.5-22.1,136.7-12.3,202.2-31.4c43.7-12.7,82.3-37.7,124.8-53.6c67.5-25.2,141.9-26.8,214.2-23.1c39.9,2,80.7,5.4,119.2-4.8
			c8-2.1,18.5-13.1,13.2-19.2c-1.4-1.6-6.6-1.8-11.1-2.4c-123.6-17-250.5-11.5-372,16c-111,25.1-219.7,68.7-333.7,67.3
			c-30.1-0.4-60.9-3.7-90.6,2.6c-9.8,2.1-28.6,5.6-36.1,12.5C63.3,181.6,81.4,191.3,89.5,194.6z"/>
		<path class="st2" d="M88,84.2c36.2-3.9,72.8-3.4,108.9-8.4c85.5-11.7,164.4-53.3,249.3-68.6C538.7-9.4,633.5,5.8,726.2,21
			c66,10.8,133.4,22.1,191.9,54.5c-27.8,11-58.7,10.4-88.6,10.2c-41.6-0.3-83.3,0.3-124.9,1.8c-60.3,2.2-122.3,6.7-176.9,32.4
			c-28.6,13.5-54.5,32.6-84.2,43.4c-40,14.6-83.8,13.4-126.2,17.4c-31.1,2.9-62,8.8-91.2,19.8c-17.5,6.6-35,15.1-53.7,15.1
			c-19-0.1-36.7-9-53.5-17.8C86.2,181,53.6,164,20.9,147.1C-38.7,116.2,64.5,86.8,88,84.2z"/>
		<g>
			<path class="st3" d="M602.6,23.7c-31.3,4.5-62.8,9-93.1,18c-53.2,15.7-102.3,45-156.9,54.3c-28.7,4.9-61.6,5.6-81.1,27.3
				c42.3-16,88.7-16,132.7-26.4c49.8-11.7,95.6-36.4,144.9-50c59.3-16.3,121.8-15.9,183.3-15.4c18.9,0.2,37.8,0.3,56.6,0.5
				c-20.8-4.2-41.9-7.6-62.7-11.1c-16.4-2.7-32.9-5.4-49.4-7.9C652.1,16.6,627.3,20.2,602.6,23.7z"/>
			<path class="st3" d="M857.8,49.6C771,55.3,684.2,61.1,597.5,66.9c-42.3,2.8-85.1,5.8-125.4,19.1c-23.6,7.8-45.9,19-69.6,26.5
				c-58.9,18.6-122.2,13.1-183.8,16.2c-51.7,2.6-106.8,13.5-146.5,44.9c15.6,8.1,31.1,16.1,46.7,24.2c16.9,8.7,34.5,17.7,53.5,17.8
				c18.7,0.1,36.2-8.5,53.7-15.1c29.2-11,60.1-16.9,91.2-19.8c42.4-4,86.2-2.7,126.2-17.4c29.7-10.9,55.6-29.9,84.2-43.4
				c54.6-25.8,116.6-30.3,176.9-32.4c41.6-1.5,83.2-2.1,124.9-1.8c29.9,0.2,60.8,0.7,88.6-10.2C898.8,64.8,878.6,56.4,857.8,49.6z"
				/>
			<path class="st3" d="M23.1,148.2c6.8,3.5,13.6,7.1,20.4,10.6c1.9-1.1,3.6-2.2,5.4-3.2C142.8,95.7,260.8,93.2,368,63.3
				c54.3-15.1,106.5-37.6,161.1-51.8c16.1-4.2,32.6-7.6,49.2-9.9c-21.1-1.4-42.2-2-63.2-1.3c-48,17.5-95.9,35-145,48.6
				C253.7,80.9,128.4,91.2,23.1,148.2z"/>
		</g>
		<path class="st5" d="M370.1,41.7c-1,1.1-2.1,2.3-2.1,3.8c0,2,2,3.4,3.9,4.2c23.3,10.8,54.6-5.2,75,10.5c8,6.2,12.4,16.8,11.1,26.9
			c-1.8,14.1-13.4,24.7-18.7,37.9c-1.6,4.1-2.5,9.3,0.4,12.6c1.6,1.8,4,2.6,6.3,3c10.3,1.7,20.2-4.3,28.7-10.2
			c8.3-5.7,16.4-11.7,24.3-17.8c4.4-3.4,8.9-7,11.4-12c2.6-5.2,2.7-11.3,2-17c-1.1-8.8-4.1-17.5-10.2-24
			c-14.5-15.6-42-14.5-54.3-31.8c-1.8-2.5-3.2-5.3-5.6-7.2c-3.7-2.9-8.9-2.7-13.6-2.4C403.5,19.8,388.5,22.4,370.1,41.7z"/>
		<path class="st5" d="M67.6,109.6c4,3.9,10.4,3.5,15.9,3c29.2-2.5,59.3,1.5,85.4,14.8c7.9,4.1,15.6,9.2,20.2,16.8
			c3.4,5.6,4.9,12.2,8.1,17.9c8.2,14.3,28.5,20,43,12.1c5.6-3.1,10.6-8.9,9.5-15.2c-0.6-3.6-3-6.6-5.7-9
			c-12.4-11.1-30.7-12.9-44.5-22.1c-7-4.7-12.7-11.2-19.8-15.7c-9.1-5.8-20-8.1-30.6-10.3c-14.9-3.1-29.7-6.1-44.6-9.2
			C98.5,91.5,48.7,91.1,67.6,109.6z"/>
	</g>
	<path class="st6" d="M246.2,280.8c-1.5,1.7-2.9,3.5-3.6,5.7c-1.3,4.2,0.7,8.9,3.6,12.1c8.5,9.5,23,9.8,35.6,8.8
		c22.2-1.8,44.3-5.4,65.3-12.9c15.9-5.6,31.1-13.4,47.4-17.5c25.4-6.4,52.6-3.7,77.6-11.5c3.4-1.1,7.2-2.8,8.1-6.2
		c0.9-3.2-1.3-6.6-4.1-8.2c-2.9-1.6-6.3-1.8-9.6-1.9c-30.1-0.4-59.1,10.4-88.4,17.6c-11.5,2.8-23.4,5.2-35,3.2
		c-8.6-1.5-16.7-5.2-25.3-7.1C295.9,258.4,261.8,263.5,246.2,280.8z"/>
</g>
</svg>
