<?xml version="1.0" encoding="utf-8"?>
<!-- Generator: Adobe Illustrator 25.2.3, SVG Export Plug-In . SVG Version: 6.00 Build 0)  -->
<svg version="1.1" id="Capa_1" xmlns="http://www.w3.org/2000/svg" xmlns:xlink="http://www.w3.org/1999/xlink" x="0px" y="0px"
	 width="126.2px" height="119.4px" viewBox="0 0 126.2 119.4" style="enable-background:new 0 0 126.2 119.4;" xml:space="preserve"
	>
<style type="text/css">
	.st0{fill:#702F77;}
	.st1{fill:#63276B;}
	.st2{fill:#551F5E;}
	.st3{fill:#48154C;}
	.st4{fill:#894793;}
	.st5{fill:#A262AF;}
	.st6{fill:#7FAA3F;}
	.st7{fill:#789B3A;}
	.st8{fill:#6C892C;}
	.st9{fill:#95BF4C;}
	.st10{fill:#39421D;}
</style>
<g id="XMLID_2431_">
	<g id="XMLID_2378_">
		<path id="XMLID_2379_" class="st0" d="M125.3,93.9c-0.2,1.7-0.4,3.4-0.9,5c-0.4,1.8-1,3.4-1.8,5c-9.3,19.7-40.9,22.9-83.1-10.4
			C13.7,73,5.1,40.5,4.3,35.1c-0.9-6,0.4-15,7.2-17.5c3.7-1.3,9-0.7,16.6,3.4c5,2.7,11,7,18.1,13.3c9.8,8.7,22.6,27.3,36.1,29.1
			C95.8,65.3,127.6,68.4,125.3,93.9z"/>
		<path id="XMLID_2375_" class="st1" d="M124.4,98.8c-0.4,1.8-1,3.4-1.8,5c-9.3,19.7-40.9,22.9-83.1-10.4C13.7,73,5.1,40.5,4.3,35.1
			c-0.9-6,0.4-15,7.2-17.5c3.7-1.3,9-0.7,16.6,3.4c1.4,5.4,2.7,13.9,5.2,26.7c0,0-10.9-2-7.1,5.6c3.8,7.6,12.6,28.7,45,40.7
			C98.9,104.3,116.9,106.3,124.4,98.8z"/>
		<path id="XMLID_2376_" class="st2" d="M122.6,103.8c-9.3,19.7-40.9,22.9-83.1-10.4C13.7,73,5.1,40.5,4.3,35.1
			c-0.9-6,0.4-15,7.2-17.5c16.8,11.9,25.2,21.4,21.8,30.2c0,0-9.3-4.7-13.7-2.5c-4.4,2.2,9.7,29.7,27.3,41.2
			C64,97.7,111.6,122.7,122.6,103.8z"/>
		<path id="XMLID_2365_" class="st3" d="M96.3,119.4c-5,0-10.4-0.8-16.1-2.5C67.4,113.2,53.5,105.5,39,94c-7.6-6-18.5-16.9-27.2-35
			C6.2,47.3,3.9,37.7,3.5,35.2C2.8,30.3,3.3,21,9.8,17.5c7.6-4.1,20.1,1.3,36.9,16.2l0,0c2.8,2.5,5.8,5.7,8.9,9.1
			c8.1,8.7,17.3,18.6,26.7,19.9c0.5,0.1,1.1,0.2,1.7,0.2c14.4,1.9,44.3,5.8,42,31c-1,10.8-6.6,18.9-15.9,22.8
			C106.2,118.5,101.5,119.4,96.3,119.4z M15.4,17.9c-2,0-3.6,0.4-4.8,1.1c-5,2.7-6.3,10.2-5.5,16c0,0.3,6.7,35.5,34.9,57.7
			c14.3,11.3,28,18.9,40.7,22.6c11.2,3.2,21.2,3.2,28.8-0.1c8.6-3.7,13.9-11.3,14.9-21.4c2.2-23.6-26.7-27.4-40.5-29.2
			c-0.6-0.1-1.2-0.2-1.7-0.2C72.2,63,62.8,52.9,54.5,44c-3.1-3.4-6.1-6.6-8.8-9C30.6,21.7,21.2,17.9,15.4,17.9z"/>
		<path id="XMLID_2377_" class="st4" d="M48.4,41.9C52.5,47.3,61.6,56,68,60.3s32.9,8.8,42.4,15.3c9.5,6.5,6.9,20.6-3.3,21.4
			c-10.2,0.8-48.5-15.4-59.9-33.7C36.3,45.8,42.5,34.3,48.4,41.9z"/>
		<path id="XMLID_2374_" class="st5" d="M70.1,64.8c0,0,16.6,5.2,23,6.9c6.4,1.7,17.9,6.3,19.1,9.9c1.2,3.6-3.5,7.6-15.7,2.8
			c-12.2-4.8-12.8-9-18.3-9.5S58.5,61.2,70.1,64.8z"/>
		<path id="XMLID_20_" class="st5" d="M49.7,46.7c0,0,9.1,9.1,10.2,10.8c1.1,1.7,1.5,5.1-3.4,1.5s-5.2-3-6.8-5.3
			C45.9,48.4,44.7,40.3,49.7,46.7z"/>
	</g>
	<g id="XMLID_2210_">
		<path id="XMLID_2391_" class="st6" d="M31.8,34.1c-0.1,0.7,0.4,1.7,1,2.7c2.3,3.8,7.7,9.3,5.8,13.6c-1.6,3.5-4.9,3.3-7.2,2.7
			c-0.7-0.2-0.6-1.1,0-1.3c1.6-0.4,3.4-1.1,3.3-2.6c0-0.2-0.1-0.5-0.2-0.7c-1.4-3.2-4.7-7.2-11.6-7.9c-6.9-0.8-12.4-1.9-13.5-8.2
			c0,0-0.5,0.9-1,2.3c-0.6,1.6-1.3,3.9-1.5,6.4c-0.3,2.6-0.2,5.6,0.9,8.3c0.1,0.1,0.1,0.2,0.1,0.3c0,0.1,0,0.2,0,0.2
			c-0.6,1-9.3-7.2-6.4-15.9c0.7-2.1,1.3-4,1.9-5.8c2-6.5,2.9-11.2,0.7-15.9C1.3,6.6-0.7,4.1,4.7,1.3c0,0,3.1,12.7,8.9,14.1
			c1.3,0.3,2.7,0.6,4.3,0.8c1.1,0.2,2.2,0.4,3.4,0.5c4.5,0.7,9.1,1.7,11.7,3.9c0.1,0.1,0.2,0.2,0.3,0.3c4.1,3.8,7,6.5,7,6.5
			s0.3,1.4-0.1,3c0,0.1-0.1,0.3-0.1,0.4c-0.2,0.6-0.5,1.2-0.9,1.8c-1.1,1.5-3.9,0.3-5.7,0.2l0,0C32.6,32.7,31.8,32.9,31.8,34.1z"/>
		<path id="XMLID_2213_" class="st7" d="M39.4,30.2c0,0-3.9,2.8-9.2-2.9c-4.9-5.3-5.5-7.3-3.5-7.4c2.4,0,4.5,0.3,6.2,0.6
			c-2.6-2.2-7.3-3.1-11.7-3.9c-2.8-0.5-5.5-0.8-7.7-1.4C7.9,14,4.7,1.3,4.7,1.3c-5.4,2.8-3.4,5.3-0.7,11.2c2.2,4.7,1.3,9.5-0.8,16.1
			c-0.1,0.3-0.2,0.6-0.3,0.8c-0.1,0.3-0.2,0.6-0.3,0.9c-0.1,0.2-0.1,0.4-0.2,0.6c-0.2,0.5-0.3,1-0.5,1.5c0,0,0,0,0,0
			c-0.2,0.6-0.4,1.2-0.6,1.7C-1.4,42.9,7.2,51,7.9,50.1c0,0,0-0.1,0-0.2c0-0.1,0-0.2-0.1-0.3c-1.1-2.7-1.2-5.6-0.9-8.3
			c0.3-2.5,1-4.8,1.5-6.4c0.5-1.5,1-2.3,1-2.3c1.1,6.4,6.6,7.5,13.5,8.2c6.9,0.8,10.2,4.7,11.6,7.9c0.1,0.3,0.2,0.5,0.2,0.7
			c0.5-0.2,0.8-0.3,0.8-0.3c0.3-7-8-9-18.3-13.4c-7-3-5.8-10.8-0.7-14.1l0,0l0,0c0.3-0.2,0.6-0.3,1-0.4c1.1-0.4,3-0.5,4.9,1.6
			c2.6,2.9,7.1,8.5,11.2,10.1c0,0,0,0,0,0c1.8,0.1,4.6,1.3,5.7-0.2c0.4-0.6,0.7-1.2,0.9-1.8C39.8,30.5,39.4,30.2,39.4,30.2z"/>
		<path id="XMLID_2372_" class="st8" d="M21.3,16.7c-2.8-0.5-5.5-0.8-7.7-1.4C7.9,14,4.7,1.3,4.7,1.3c-5.4,2.8-3.4,5.3-0.7,11.2
			c2.7,5.9,0.6,12-2.6,21.7c-3.2,9.6,7.6,18.5,6.3,15.4c-1.1-2.7-1.2-5.6-0.9-8.3C6.3,34.6,6.8,27.9,9,22.9
			c3.3-7.5,12.9-5.6,12.9-5.6L21.3,16.7z M8.4,18.6c-1,2.2-0.3-2.4-2.1-6.1C4.4,8.8,3.4,7.2,4.3,6.5c0,0,2.7,7.1,5.3,8.9
			C12.3,17.1,9.4,16.5,8.4,18.6z"/>
		<path id="XMLID_2364_" class="st9" d="M32.9,22.9c2.7,2.6,5.6,5,5.7,5.3c0.1,0.4-0.9,1.6-3.9-1.1c-3.1-2.6-5.5-4.5-6.3-4.8
			C26.2,21.7,30.9,21.1,32.9,22.9z"/>
		<path id="XMLID_2373_" class="st9" d="M19.1,22.6c0,0,4.1,5,6.1,6.3c2,1.3-2.3,0.5-4.6-1.3c-2.3-1.8-2.3,0.9-0.5,3.1
			c1.8,2.2,3.6,3.4,5,4.1c1.3,0.7-2,1.2-5.3-1.2c-3.3-2.3-3.7-7.9-3.7-7.9S15.8,23.4,19.1,22.6z"/>
		<g id="XMLID_2214_">
			<path id="XMLID_2461_" class="st10" d="M35,33.9c1.7,0.3,3.8,0.8,4.9-0.8c2-2.6,1.3-5.8,1.2-6l-0.1-0.3l-0.2-0.2c0,0-3-2.7-7-6.5
				c-3.1-2.9-9.3-3.9-14.7-4.7c-2-0.3-3.9-0.6-5.5-1c-4.3-1-7.4-10-8.2-13.4L5.3,0l-1,0.5C-1.3,3.4,0.2,6.4,2.4,11
				c0.3,0.6,0.6,1.2,0.9,1.8C5.8,18.4,3.9,24,0.8,33.4l-0.2,0.5C-2,41.7,3.9,48.8,6.4,50.5c0.3,0.2,1.3,0.9,2,0.3
				c0.2-0.2,0.6-0.7,0.2-1.6c-2.1-5.1-0.5-11,0.6-14.1c2.1,4.8,7.4,5.8,13.6,6.5c6.6,0.7,9.6,4.4,10.9,7.4c0.2,0.4,0.1,0.6,0.1,0.8
				c-0.1,0.2-0.6,0.9-2.6,1.3c-0.7,0.2-1.2,0.8-1.2,1.5c0,0.7,0.4,1.3,1.1,1.5c0.7,0.2,1.4,0.3,2,0.3c2.9,0.2,5-1,6.2-3.5
				c1.7-3.8-1.4-8.2-4-11.8c-1.4-1.9-2.8-3.9-2.7-4.8c0-0.2,0.1-0.4,0.1-0.5C33.1,33.5,34.2,33.7,35,33.9z M33.9,40
				c2.3,3.2,5.1,7.1,3.8,10.1c-0.9,2.1-2.7,2.9-5.4,2.4c1.5-0.5,2.5-1.2,2.9-2c0.2-0.5,0.4-1.2,0-2.2c-1.3-2.8-4.5-7.6-12.3-8.4
				c-6.8-0.7-11.8-1.7-12.7-7.5l-0.4-2.6l-1.2,2.3c-0.2,0.4-4.3,8.6-2.1,16.2c-0.9-0.8-2-2.2-3-4.1c-1.2-2.3-2.5-5.9-1.2-9.8
				l0.2-0.5c3.2-9.5,5.2-15.7,2.4-21.8c-0.3-0.7-0.6-1.3-0.9-1.9C1.9,6,1.2,4.4,4.2,2.6c0.9,3.2,4,12.4,9.2,13.6
				c1.6,0.4,3.5,0.7,5.6,1c5.2,0.8,11,1.8,13.8,4.3c3.4,3.2,6.1,5.6,6.8,6.3c0.1,0.7,0.2,2.7-1,4.3c-0.5,0.6-1.6,0.4-3.2,0.1
				C35,32.1,34.6,32,34.2,32l0,0c-6.2-2.5-11.6-9-11.6-9c1.2,1.9,9.3,14.1,9.3,14.1s0,0,0,0C32.5,38,33.2,39,33.9,40z"/>
			<path id="XMLID_2464_" class="st10" d="M16.1,25.7c-1.1,11.7,8.8,9.7,8.8,9.7C17.2,34.4,16.1,25.7,16.1,25.7z"/>
		</g>
		<path id="XMLID_2433_" class="st9" d="M4.3,6.5c0,0,3.1,7.9,5.9,9.3c2.8,1.4-0.4,1.3-1.1,1.9c-0.3-0.9-0.9-2.5-2.6-5.5
			C6.1,11.3,4,7.4,4,6.9C4,6.4,4.3,6.5,4.3,6.5z"/>
	</g>
</g>
</svg>
