<?xml version="1.0" encoding="utf-8"?>
<!-- Generator: Adobe Illustrator 25.2.3, SVG Export Plug-In . SVG Version: 6.00 Build 0)  -->
<svg version="1.1" id="Capa_1" xmlns="http://www.w3.org/2000/svg" xmlns:xlink="http://www.w3.org/1999/xlink" x="0px" y="0px"
	 width="146.7px" height="161.4px" viewBox="0 0 146.7 161.4" style="enable-background:new 0 0 146.7 161.4;" xml:space="preserve"
	>
<style type="text/css">
	.st0{fill:#F28624;}
	.st1{fill:#D1610D;}
	.st2{fill:#8C3C06;}
	.st3{fill:#FF9B50;}
	.st4{fill:#FCB483;}
	.st5{fill:#4E841F;}
	.st6{fill:#659933;}
	.st7{fill:#467718;}
	.st8{fill:#7BAA48;}
	.st9{fill:#A2CE67;}
	.st10{fill:#295114;}
	.st11{fill:#E57315;}
	.st12{fill:#B5510D;}
</style>
<g id="XMLID_3573_">
	<g id="XMLID_3569_">
		<path id="XMLID_3585_" class="st0" d="M114,47.9v16.9H27.5V50.9c0,0,0.9-0.8,2.6-1.8c4.2-2.6,13-6.5,22.7-1.2c0,0,0.1-0.2,0.3-0.5
			c1-1.5,5.2-6.3,17.6-6.3c14.9,0,17.3,6.7,17.3,6.7s0.4-0.3,1.2-0.8c2.9-1.7,10.7-5.2,20.7-1.2C111.2,46.4,112.6,47,114,47.9z"/>
		<path id="XMLID_3576_" class="st1" d="M114,47.9v16.9H27.5V50.9c0,0,0.9-0.8,2.6-1.8c2,1,5.3,1.2,9.6,1.2c10,0,13.6-2.6,13.4-2.9
			c1-1.5,5.2-6.3,17.6-6.3c14.9,0,17.3,6.7,17.3,6.7s0.4-0.3,1.2-0.8c1.1,1.1,2.6,2,4.8,2.4c5.6,1,12.9-1.7,15.9-3.6
			C111.2,46.4,112.6,47,114,47.9z"/>
		<path id="XMLID_3517_" class="st2" d="M114.4,47.1c-12.2-7-22-2.9-25.6-0.8c-0.3,0.2-0.8,0.1-1-0.2c-1.6-2.1-6.1-5.8-17.2-5.8
			c-11.5,0-16.2,3.9-17.9,6c-0.2,0.3-0.6,0.4-0.9,0.2c-13.3-6.2-24.8,3.7-24.9,3.8l-0.3,0.2v14.3c0,0.4,0.4,0.8,0.8,0.8h86.6
			c0.4,0,0.8-0.4,0.8-0.8V47.4L114.4,47.1z M112.4,64H29.2c-0.4,0-0.8-0.4-0.8-0.8V51.7c0-0.2,0.1-0.5,0.3-0.6
			c2.5-1.9,12.4-8.6,23.7-2.5l0,0c0,0,2.3,1.2,4,3.7c0.2,0.3,0.7,0.4,1,0.2l0.1,0l0,0l0,0l0,0c0.4-0.2,0.5-0.8,0.2-1.1
			c-1.1-1.4-2.3-2.5-3.2-3.2c-0.4-0.3-0.4-0.8-0.1-1.2c1.7-1.8,6.1-5,16.2-5C81,42,85,45.3,86.5,47c0.3,0.3,0.2,0.8-0.1,1.1
			c-0.8,0.7-1.6,1.6-2.2,2.8c-0.2,0.4,0,0.9,0.4,1.1l0,0v0l0,0l0.1,0c0.4,0.1,0.8,0,1-0.4c1-1.9,2.9-3.2,3.3-3.5
			c1-0.6,3.3-2,6.7-2.7c5.7-1.3,11.4-0.4,17.1,2.7c0.3,0.1,0.4,0.4,0.4,0.7v14.4C113.2,63.6,112.8,64,112.4,64z"/>
		<path id="XMLID_3565_" class="st3" d="M92.3,47c2.8-1.6,8.6-2.5,13.6-1.3c0.3,0.1,0.4,0.5,0.1,0.7c-1.2,0.9-4.8,2.5-13.7,1.4
			C91.9,47.8,91.9,47.3,92.3,47z"/>
		<path id="XMLID_2970_" class="st4" d="M94.4,46.8c1.9-0.8,6-1.4,9.5-0.9c0.2,0,0.3,0.2,0.1,0.3c-0.9,0.5-3.3,1.3-9.5,1
			C94.1,47.1,94.1,46.9,94.4,46.8z"/>
		<path id="XMLID_3572_" class="st3" d="M33.8,48.3c2.8-1.6,8.6-2.5,13.6-1.3c0.3,0.1,0.4,0.5,0.1,0.7c-1.2,0.9-4.8,2.5-13.7,1.4
			C33.5,49.1,33.5,48.5,33.8,48.3z"/>
		<path id="XMLID_3570_" class="st4" d="M35.9,48c1.9-0.8,6-1.4,9.5-0.9c0.2,0,0.3,0.2,0.1,0.3c-0.9,0.5-3.3,1.3-9.5,1
			C35.7,48.4,35.6,48.1,35.9,48z"/>
	</g>
	<g id="XMLID_3544_">
		<path id="XMLID_3579_" class="st5" d="M97.5,52.2c0,0-3.5,2.1-9.2,4c-1.8,0.6-3.8,1.2-6,1.7c-0.7,0.2-1.4,0.3-2.1,0.4c0,0,0,0,0,0
			c-0.3,0.1-0.6,0.1-0.9,0.2c-0.9,0.1-1.7,0.3-2.6,0.4c-6.6,0.9-14.3,0.6-22.2-2.2c-3-1.1-6.1-2.5-9.1-4.4c0,0,11.3-2,16.8-10.1
			c1.6-2.3,2.6-5.1,2.8-8.5c0.6-9.5,5.1-20.9,10.4-27.5c2.7-3.4,5.7-5.6,8.4-5.5c0.3,0,0.7,0,1,0.1c0,0,0,0,0,0
			C88.9,1.3,89,3.2,88,5.3c-0.1,0.1-0.1,0.2-0.2,0.3c-0.6,1-1.4,2-2.1,2.8c-2.3,2.7-9.7,12.1-8.6,22.1
			C78.3,40.7,82.8,51.7,97.5,52.2z"/>
		<path id="XMLID_3574_" class="st6" d="M88.3,56.2c-1.8,0.6-3.8,1.2-6,1.7c-0.7,0.2-1.4,0.3-2.1,0.4c0,0,0,0,0,0
			c-6.9-6.3-3.4-14.5-1.6-12.3v0.2c0,0,1.4,6.2,9.6,9.9C88.2,56.2,88.2,56.2,88.3,56.2z"/>
		<path id="XMLID_3581_" class="st7" d="M65.9,59.2c-1.9-0.2-3.9-0.4-5.8-0.8c0.2-0.2,0.4-0.5,0.7-0.7c4.8-5.5,5.1-7,5.3-4
			C66.3,56.5,65.8,56.7,65.9,59.2z"/>
		<path id="XMLID_3582_" class="st7" d="M76.7,58.7c0,0.1-0.2,0.2-0.3,0.2c-2.5,0.3-5.1,0.5-7.8,0.4c0.1-0.9,0.1-2-0.2-3.5
			c-1.4-6-0.2-8.3,0-10.4c0.2-2.1-1.4,2.4-3.7,5.5c-2.3,3.1-5.8,5.4-5.9,5.5c-0.5,0.4-0.9,0.9-1.2,1.3c-0.9-0.3-1.9-0.5-2.9-0.9
			c-0.2-0.1-0.3-0.3-0.2-0.5c0.3-1.1,0.7-1.8,0.9-2c0-0.1,0.1-0.1,0.1-0.1c1.1-0.6,12.9-7.5,13.2-20c0.2-6.8,1.3-11.4,2.3-14.2
			c0.2-0.4,0.8-0.2,0.7,0.2c-0.7,3-1.4,7.2-0.9,10.6c0.9,5.9-2.1,17.1,2.9,24.4c0,0.1,0.1,0.1,0.2,0.1
			C74.4,55.5,77.3,56.5,76.7,58.7z"/>
		<path id="XMLID_3577_" class="st6" d="M80.2,58.4c-0.9-0.7-2.1-1.7-3.1-3c-3.3-4.1-4.3-12.4-4.3-19.6c0-7.2-0.5-6-0.3-12.5
			c0.2-6.4,6.8-17.4,2-12.1c-4.8,5.4-7.1,15.3-7.6,26c-0.5,9.9-10.1,16.2-11.4,17c-0.1,0.1-0.1,0.1-0.1,0.1l-2.5-1
			c5.1-2,7.6-5.9,9.2-11c1.6-2.3,2.6-5.1,2.8-8.5c0.6-9.5,9.5-29.3,13.9-27.9c1.5,0.5,1.8,3.4-1.6,9.6c-3.4,6.3-2.4,13.5-2.1,23.7
			c0.3,10.1,4.3,14.5,6.7,18c0.2,0.3,0.3,0.5,0.4,0.7C83.2,59.6,82,59.6,80.2,58.4z"/>
		<path id="XMLID_3578_" class="st8" d="M88.3,4.5C88.2,4.8,88.1,5,88,5.3c-2.3,0.3-5.5-2.5-6.4-3.2c-1.3-1,1.1-0.9,1.5-1
			c0,0,0.6-0.1,1.6-0.2c0,0,0,0,0,0c0,0,0.1,0,0.1,0C88.3,1.3,88.9,2.8,88.3,4.5z"/>
		<path id="XMLID_3553_" class="st7" d="M78.3,46.8c-0.1-0.5,0.5-0.8,0.8-0.4c1.9,2.4,6.1,6.5,12.3,7c1.3,0.1,2.1,0.3,2.7,0.5
			c2.1-1,3.3-1.7,3.3-1.7c-14.6-0.5-19.2-11.5-20.3-21.6C76,20.5,83.4,11.2,85.7,8.5c0.7-0.8,1.5-1.8,2.1-2.8L87,5.3
			c0,0-3.7-1.9-4.1-2.2c0.2,0.2,2,2.1,0,4.9c-2.1,3-10.2,10.2-9,22.1C75.1,42,72,44.2,78.8,57.6c0.2,0.3,0.3,0.6,0.5,0.9
			c2.3-0.4,4.4-0.9,6.3-1.5C83.3,55.7,79.8,52.9,78.3,46.8z"/>
		<path id="XMLID_3575_" class="st9" d="M88.3,4.5c-0.7-0.5-1.5-1-2.4-1.4c-3.1-1.5-2-2-1.2-2.2C88.3,1.3,88.9,2.8,88.3,4.5z"/>
		<path id="XMLID_3550_" class="st10" d="M70,60.2c-7.6,0-16.5-1.7-25.1-7.1L43,52l2.1-0.4c0.2,0,18.1-3.3,18.9-17.9
			C64.9,19.4,75-0.3,83.7,0c3,0.1,4.8,0.8,5.4,2.3c0.9,2-0.9,4.5-2.8,6.7c-2.9,3.4-9.4,12.2-8.4,21.5C79.5,44,86.1,51,97.5,51.4
			l2.8,0.1l-2.4,1.4C97.6,53.1,91,57,81.1,59C77.9,59.7,74.1,60.2,70,60.2z M47.5,52.8c19.8,11.1,40.1,3.3,47.1,0
			c-10.4-1.5-16.7-9.1-18.2-22.1c-1.1-10,5.7-19.3,8.8-22.8c2.1-2.4,2.9-4.1,2.5-5c-0.3-0.8-1.7-1.2-4-1.3c0,0-0.1,0-0.1,0
			c-7,0-16.9,17.9-17.8,32.2C64.9,46.6,52.5,51.3,47.5,52.8z"/>
	</g>
	<g id="XMLID_3548_">
		<g id="XMLID_3547_">
			<path id="XMLID_3519_" class="st0" d="M107.1,156.5L107.1,156.5c-5.9,3.2-15.5,4.9-21.9,1.8l0-0.1c-2.6,1.6-6,2.3-10.7,2.3
				c-2.9,0-5.3-1.1-7.3-3l0,0.9c-2.2,2.3-8.7,2.1-8.7,2.1c-4.6-0.1-8.8-0.9-12.5-2.5l0,0.1c0,0-3.6,2.7-14.7-0.9
				c-5.7-1.8-12.4-6.7-18.1-14.5C7.5,135,2.9,124.4,1.6,111c-2.6-27.4,1-40.3,10.5-53.1c9.6-13,24.5-4.3,25.6-3.6
				c2.2-1.2,4.5-1.8,7.1-1.8c6.4,0,10.5,1.4,13,3.1c2.5,1.7,3.5,3.7,3.9,5.1c4-6.4,9.4-5.3,13.1-5.3c2.8,0,5.5,0.8,8,3
				c0.6-0.7,4-4.1,12.1-5.8c2.4-0.5,5.4-0.6,8.5,0.3l0-0.3c0,0,8.2-8.1,19.6-4.5c4.1,1.3,8,4.5,11.4,9.3c6,8.6,10.4,22.4,11.4,40.4
				C147.7,133.3,132.3,159.2,107.1,156.5z"/>
		</g>
		<g id="XMLID_2877_">
			<path id="XMLID_2988_" class="st11" d="M54.8,54.4c-0.1-0.1-0.2-0.1-0.3-0.2C54.4,54.2,54.5,54.3,54.8,54.4z"/>
			<path id="XMLID_3512_" class="st11" d="M54.2,88.9c0.3-3.6,0.3-6,0.3-6C54.3,84.1,54.2,86.2,54.2,88.9z"/>
			<path id="XMLID_3549_" class="st11" d="M144.8,118.3c-3.8,24.5-17.7,40.4-37.7,38.3v0c-5.9,3.3-15.5,4.9-21.9,1.8l0-0.1
				c-2.6,1.6-6,2.3-10.7,2.3c-2.9,0-5.3-1.1-7.3-3l0,0.9c-2.2,2.3-8.7,2.1-8.7,2.1c-4.6-0.1-8.8-0.9-12.5-2.5l0,0.1
				c0,0-3.6,2.7-14.7-0.9c-2.7-0.9-7.2-3.5-12.1-8.1C13.8,144,8,136.3,4.4,125.7c3.3,9.6,17.6,9.4,15.9-8.5
				c-0.3-3.4-3.8-33.5,3.3-49.6c7.1-16.2,0-16.6,0-16.6s6.1-0.2,7.8,0.7c0,0,4.2,1,5.8,2.5c0,0-9.1,5-12.1,20.6
				c-1.6,8.1-2.2,17-2.4,24.5c0,16.5,4.8,33.9,4.8,33.9c10.4,2,22.4-3,20.7-15c-3.9-28.8,7.4-54.5,8.3-56.5c0.9-1.8,0-6-1.8-7.3
				c1.1,0.6,4.9,2.8,6.3,5.2c0,0-7,9.6-7,30.4c0-0.4,0.1-0.8,0.1-1.2c0,12.9,1.8,38.6,1.8,38.6c1.5,7.9,36.6,9.1,34.8-46
				c1.9,6,2.8,48.9,2.8,48.9s28.8-0.1,22.7-63.5c9.3,22.6,4.9,57.2,4.9,57.2c28.6-3.4,12.7-66.5,12.7-66.5s0.1-0.1,0.4-0.2
				c6,8.6,10.4,22.4,11.4,40.4C146.1,105,145.8,111.9,144.8,118.3z"/>
		</g>
		<path id="XMLID_3571_" class="st1" d="M144.8,118.3c-2,13-6.9,23.6-14,30.3c-6.3,5.9-14.3,8.9-23.7,7.9v0
			c-5.7,3.1-14.6,4.8-21,2.2c-0.3-0.1-0.6-0.2-0.9-0.4l0-0.1c-0.2,0.1-0.4,0.2-0.6,0.3c-2.5,1.4-5.8,2-10.1,2
			c-1.3,0-2.4-0.2-3.5-0.6c-1.4-0.5-2.7-1.3-3.8-2.4l0,0.1l0,0.8c-2.2,2.3-8.7,2.1-8.7,2.1c-4.6-0.1-8.8-0.9-12.5-2.5l0,0.1
			c0,0-3.6,2.7-14.7-0.9c-1.7-0.5-4.1-1.8-6.8-3.7l0,0c-1.7-1.2-3.4-2.6-5.2-4.3c10.7-0.8,8.1-15.2,8-15.8
			c1.4,4.8,6.4,14.2,6.4,14.2c23.2,7.4,22.7-18.3,22.7-18.3l3.2,15c25.1,17.1,34.1-14.1,34.1-14.1c0.4,3.8-1,15.9-1,15.9
			c27-0.6,28.6-22.2,28.6-22.2c0.2,9-4.6,20.8-4.6,20.8c15.2,2.3,26.1-21.6,28-26C144.7,118.5,144.7,118.4,144.8,118.3z"/>
		<path id="XMLID_3566_" class="st12" d="M130.8,148.6c-6.3,5.9-14.3,8.9-23.7,7.9v0c-5.7,3.1-14.6,4.8-21,2.2
			c-0.1-0.5-0.1-0.8,0-0.8c0.2-0.1,4.3-4.5,4.3-4.5s13.3,5.2,21.4-1C111.7,152.4,121.7,155,130.8,148.6z"/>
		<path id="XMLID_3568_" class="st12" d="M88.3,151c-0.7,2.5-2,5.3-3.7,7.6c-2.5,1.4-5.8,2-10.1,2c-1.3,0-2.4-0.2-3.5-0.6
			c-2.9-3.2-5.3-7.1-5.4-7.3C80.3,160.2,88.3,151,88.3,151z"/>
		<path id="XMLID_3567_" class="st12" d="M67.2,158.5c-2.2,2.3-8.7,2.1-8.7,2.1c-4.6-0.1-8.8-0.9-12.5-2.5l0,0.1
			c0,0-3.6,2.7-14.7-0.9c-1.7-0.5-4.1-1.8-6.8-3.7c11.3,5.5,15.6,1.2,15.6,1.2c12.8,6.3,22.1-2,22.1-2c0.5,1.1,3.2,2.9,5,5
			L67.2,158.5z"/>
		<path id="XMLID_2867_" class="st2" d="M146.5,97.7C145,71,135.8,51.3,123.2,47.3c-10.2-3.2-17.9,2.5-19.9,4.2
			c-0.3,0.2-0.6,0.3-1,0.2c-3.1-0.7-5.8-0.4-7.6,0c-6.3,1.4-9.8,3.7-11.5,5.1c-0.4,0.3-0.9,0.3-1.3,0c-2-1.5-4.4-2.3-7.1-2.3
			c-0.4,0-0.8,0-1.3,0c-3.3-0.1-7.9-0.2-11.9,3.8c-0.1,0.1-0.1,0.1-0.2,0.2c-0.8-1.4-2.3-2.9-4.2-4c-3.2-1.9-7.5-2.9-12.4-2.9
			c-2.3,0-4.5,0.5-6.6,1.4c-0.3,0.1-0.7,0.1-1,0c-3.7-1.9-17-7.7-25.8,4.3C2.6,69.4-2,82,0.8,111.1c2.7,28.1,19.6,43.5,30.3,47
			c4.5,1.5,7.9,1.9,10.3,1.9c2.2,0,3.7-0.4,4.4-0.7c0.3-0.1,0.5-0.1,0.8,0c3.6,1.4,7.5,2.1,11.9,2.2c0.1,0,0.2,0,0.3,0
			c1.3,0,5.8-0.1,8.2-1.8c0.4-0.2,0.8-0.3,1.2,0c1.8,1.2,3.9,1.8,6.2,1.8c4.4,0,7.8-0.6,10.5-1.8c0.3-0.1,0.6-0.1,0.9,0
			c2.3,0.9,4.8,1.3,7.4,1.3c4.9,0,9.9-1.4,13.7-3.3c0.2-0.1,0.4-0.1,0.6-0.1c1,0.1,2,0.1,3,0.1c7.9,0,15-2.9,20.8-8.4
			C142.3,138.8,147.8,120,146.5,97.7z M31.6,156.5c-10.3-3.3-26.5-18.2-29.1-45.5C-0.3,82.3,4.2,70,12.8,58.4
			c3.9-5.3,9.2-7.5,15.7-6.5c2.3,0.3,4.3,1,5.8,1.7c0.8,0.3,0.9,1.3,0.3,1.8c-0.8,0.7-1.7,1.5-2.4,2.3c-9,10.1-12.3,32.1-9,58.7
			c2.5,20.4,8.2,33.4,17.8,39.9c0.9,0.6,0.4,2-0.7,2C38.2,158.2,35.3,157.7,31.6,156.5z M58.6,159.8c-9.7-0.2-17-3.5-22.4-10.1
			c-5.7-7-9.4-18-11.4-33.4c-3.3-26.1-0.1-47.6,8.6-57.4c3.2-3.6,7-5.5,11.4-5.5c8.7,0,13.5,3.3,15.1,5.9c0.2,0.4,0.2,0.8-0.1,1.2
			c-5.1,7.3-7.2,21.6-6.3,43.4c0.7,19.3,2.9,43.6,11.8,53.2c0.5,0.6,0.3,1.5-0.4,1.8C62.8,159.7,59.9,159.8,58.6,159.8z M74.5,159.7
			c-15.4,0-18.4-31.9-19.3-55.9c-0.9-23.4,1.7-38.3,7.6-44.3c2.9-3,6.2-3.4,9.1-3.4c0.6,0,1.1,0,1.6,0c0.5,0,0.9,0,1.3,0
			c7.3,0,15,5.5,16.9,46.1c1.5,31.6,1.9,47.1-4.2,53.5C84.9,158.5,80.9,159.7,74.5,159.7z M89.2,158.8c-0.9-0.2-1.2-1.2-0.5-1.8
			c0,0,0,0,0.1-0.1c6.6-6.9,6.2-21.7,4.6-54.7c-1.1-22.6-3.8-36.3-9-42.8c-0.4-0.5-0.3-1.1,0.2-1.5c1.6-1.3,4.8-3.3,10.5-4.5
			c3.4-0.7,8.5-0.8,13.3,3c7.9,6.2,12.3,20.7,12.8,42.1c0.9,36.3-5.2,48.2-10.6,54.5C107.2,156.8,97.1,160.3,89.2,158.8z
			 M130.3,147.9c-5,4.7-11,7.4-17.6,7.9c-1,0.1-1.5-1.1-0.9-1.8c0,0,0,0,0,0c5.6-6.5,11.9-18.7,11-55.6c-0.5-22.1-5-36.7-13.4-43.3
			c-1-0.8-2-1.4-2.9-1.9c-0.8-0.4-0.8-1.4-0.1-1.9c3.1-2,9.1-4.7,16.4-2.5c5.5,1.7,10.6,7.1,14.5,15.2c4.3,8.8,6.9,20.5,7.7,33.8
			C146.1,119.6,140.8,137.9,130.3,147.9z"/>
		<path id="XMLID_2847_" class="st3" d="M60.3,114.8c-1.4-16.2-0.8-30.5,1.9-42.2c2.7-11.8,15.5-15.4,19.8-2.7
			c4.2,12.7,4.8,26.7,0,36.7C77.2,116.6,62,133.1,60.3,114.8z"/>
		<path id="XMLID_2879_" class="st3" d="M91.8,67.4c2.1,6.5,5.1,20.5,4.8,46.8c0,2.3,2.9,3.4,4.4,1.7c5.7-6.6,14.5-20.5,11-40.9
			c-2.8-16.1-10.4-17.1-16-15.4C92.6,60.5,90.7,64.1,91.8,67.4z"/>
		<path id="XMLID_2922_" class="st3" d="M116.3,57.2c-1.5-1.9-0.1-4.6,2.3-4.6c3.8,0.1,8.4,1.3,11.1,6.4c3.7,7,6.5,27.1,3.4,41.2
			c-0.7,3.3-5.5,2.8-5.7-0.5C127,87.2,124.9,68.3,116.3,57.2z"/>
		<path id="XMLID_3510_" class="st3" d="M28.2,116.4c-2.6-20.1,0.4-46.6,9.2-56c5.6-6,15.1-2.7,10.2,14.2s-5,33.4-5.5,39.2
			C41.5,121.7,30.3,132.4,28.2,116.4z"/>
		<path id="XMLID_3513_" class="st3" d="M16.2,59.8c1.7-2.2,5.3-1,5.2,1.9c-0.1,2.2-0.7,5.2-2.2,9.4c-4.9,13.9-4.8,33.6-4.8,40.7
			s-6.1,17.9-8.1,1.6C4.4,98.1,2.9,77.2,16.2,59.8z"/>
		<path id="XMLID_3518_" class="st4" d="M63.4,86.4c0.3-4,0.9-12.6,2.9-15.8c2-3.2,3.5,0.8,6.7,0s5.6-1.8,6.6,0.7
			c1,2.5,2.9,9.7,2.4,14C81.7,88.9,62.2,101.9,63.4,86.4z"/>
		<path id="XMLID_3538_" class="st4" d="M95.2,67.9c-1.5-3,3.6-1.1,5.8-1.4c2.3-0.3,4.3-2.8,5.4-0.8c7.3,12.9-6,33.8-6.6,25
			C99.5,86,96.7,70.9,95.2,67.9z"/>
		<path id="XMLID_3537_" class="st4" d="M122.8,58.7l0.7-0.4c1.3-0.8,3-0.2,3.6,1.1c1.5,3.2,3.7,8.7,3.8,13.5c0.2,7.2-1.4,9.8-3,4.5
			c-1.2-4-4.5-11.9-6.1-15.6C121.2,60.7,121.7,59.3,122.8,58.7z"/>
		<path id="XMLID_3545_" class="st4" d="M42.7,65.6c0,0,1.7,6.4-0.9,16c-2.7,9.6-3.1,14.6-7.5,15.4c-4.4,0.8-2-15.5,0-22.2
			C36.3,68.1,40.5,59.7,42.7,65.6z"/>
		<path id="XMLID_3546_" class="st4" d="M14.5,64.9c0,0-5.9,10.7-6.5,21s3.4,2.1,4.6-1.1s3.9-15.3,5.5-19.2
			C19.7,61.8,16.5,60.7,14.5,64.9z"/>
	</g>
</g>
</svg>
