<?xml version="1.0" encoding="utf-8"?>
<!-- Generator: Adobe Illustrator 25.2.3, SVG Export Plug-In . SVG Version: 6.00 Build 0)  -->
<svg version="1.1" id="Capa_1" xmlns="http://www.w3.org/2000/svg" xmlns:xlink="http://www.w3.org/1999/xlink" x="0px" y="0px"
	 width="179.7px" height="132.9px" viewBox="0 0 179.7 132.9" style="enable-background:new 0 0 179.7 132.9;" xml:space="preserve"
	>
<style type="text/css">
	.st0{fill:#507A1F;}
	.st1{fill:#4A7217;}
	.st2{fill:#436814;}
	.st3{fill:#7AA83F;}
	.st4{fill:#3A600F;}
	.st5{fill:#8CB74F;}
	.st6{fill:#699332;}
	.st7{fill:#2C4F04;}
	.st8{opacity:0.5;fill:#7AA83F;}
</style>
<g id="XMLID_2866_">
	<g id="XMLID_2801_">
		<path id="XMLID_2892_" class="st0" d="M7.3,18.4c-0.3,1.4-0.4,3-0.3,4.5c0.1,2.6,0.8,5.3,2.1,7.8c0.2,0.3,0.3,0.6,0.5,0.9
			c0.8,1.6,1.8,3.3,3,5c0.3,0.4,0.6,0.9,0.9,1.3c0.5,0.7,1,1.3,1.5,2c0.5,0.6,1,1.3,1.5,1.9c0,0.1,0.1,0.1,0.1,0.2
			c2.6,3.3,5.6,6.7,8.8,10.3c0,0,0.1,0.1,0.1,0.1c0.7,0.8,1.4,1.6,2.2,2.4c0.7,0.7,1.3,1.4,2,2.1c1,1,1.9,2.1,2.9,3.1
			c0.5,0.5,1,1,1.5,1.6c5.5,5.8,11.2,11.6,16.3,17.3c7.9,9.2,22.1,26,41.7,37.9c20.5,12.9,46.6,20.1,65.6,12.3
			c13-5.1,19.9-14.8,20.9-24.2c0,0,0,0,0,0c0-0.2,0-0.4,0.1-0.6c0.5-6.4-1.7-12.6-6.2-17.9l0,0c-1.1-1.3-2.3-2.5-3.6-3.6
			c0,0,0,0,0,0c-4-3.5-9.1-6.4-15.2-8.8c-6.3-2.5-13.7-4.4-22.2-5.9C95,61.1,78,52.8,67.7,45.7c-8-5.3-26.4-21.6-37.3-31.4
			c-2.8-2.3-5.4-4.1-7.7-5c-0.3-0.1-0.7-0.2-1-0.3c-2.9-0.8-5.4-0.7-7.6,0.3c-1.2,0.5-2.3,1.3-3.3,2.3c-1,1.1-1.9,2.3-2.5,3.8
			c0,0,0,0.1-0.1,0.1c-0.1,0.2-0.1,0.3-0.2,0.5C7.7,16.7,7.5,17.5,7.3,18.4z"/>
		<path id="XMLID_2837_" class="st1" d="M8.3,15.3c0,4.3,0.4,9.9,1.4,16.4C16.2,44.5,35.4,62.5,50.5,79c7.9,9.2,22.1,26,41.7,37.9
			c20.5,12.9,46.6,20.1,65.6,12.3c13-5.1,19.9-14.8,20.9-24.2c0-0.2,0-0.4,0.1-0.6c0.5-6.4-1.7-12.6-6.2-17.9l0,0
			c-1.1-1.3-2.3-2.5-3.6-3.6c0,0,0,0,0,0c-4-3.5-9.1-6.4-15.2-8.8c6.4,9.2,14.7,25.3-5.8,23.1c-27.4-4-61.8-27.4-98.5-56
			c-26.2-20.4-30.3-28-35.4-31.9c-1.2,0.5-2.3,1.3-3.3,2.3C9.7,12.5,8.9,13.8,8.3,15.3z"/>
		<path id="XMLID_2890_" class="st2" d="M7.3,18.4c-0.3,1.4-0.4,3-0.3,4.5c0.1,2.6,0.8,5.3,2.1,7.8c0.9,1.9,2.1,3.9,3.5,6
			c0.3,0.4,0.6,0.9,0.9,1.3c0.5,0.7,1,1.3,1.5,2c0.5,0.6,1,1.3,1.5,1.9c0,0.1,0.1,0.1,0.1,0.2c2.6,3.3,5.6,6.7,8.8,10.3
			c0,0,0.1,0.1,0.1,0.1c0.7,0.8,1.4,1.6,2.2,2.4c0.7,0.7,1.3,1.4,2,2.1c1,1,1.9,2.1,2.9,3.1c0.5,0.5,1,1,1.5,1.6
			c5.5,5.8,11.1,11.6,16.3,17.3c7.9,9.2,22.1,26,41.7,37.9c20.5,12.9,46.6,20.1,65.6,12.3c13-5.1,19.9-14.8,20.9-24.2c0,0,0,0,0,0
			c-0.3,0.5-10.6,18-45.1,10.4c-32.5-8.7-41.9-19.3-42.2-18.9c0.1-0.3-13.8-8.2-28.4-21.3C8.5,26.1,10.8,19.7,8.2,15.4
			c-0.1,0.2-0.1,0.3-0.2,0.5C7.7,16.7,7.5,17.5,7.3,18.4z"/>
		<path id="XMLID_2817_" class="st3" d="M137.9,74.6c17,4,16.9,16.4-2.1,11.7c-11.3-2.8-53.2-20.8-73-38.2l1.6-2.3
			C64.4,45.8,82,61.5,137.9,74.6z"/>
		<path id="XMLID_2831_" class="st4" d="M7.3,18.4c-0.2,1-0.3,2.1-0.3,3.3c0,0.4,8.7,29.3,81.4,76.4c0,0,38.6,22.2,66,21.6
			c0,0,7.5,0.6-0.4,5.7c-7.9,5.1-31.1,7.2-61.7-8.3c20.5,12.9,46.6,20.1,65.6,12.3c13-5.1,19.9-14.8,20.9-24.2
			c0.7-6.6-1.5-13.1-6.2-18.5l0,0c0,0,0,0,0,0c0.1,0.3,3.5,7.3-4.6,10.4c-8.2,3.2-46.1-2-96.5-39.7C30.6,26.8,25.3,20.6,24.6,20
			c2.4,2.4,59.6,60.2,110.1,75.5c0,0,23,6,35.9,4.9c8.3-0.7,5.6,10.4-0.6,12.4c-14.4,4.7-50.6,6.5-99.3-29.4C8.1,37.1,8,15.9,8,15.9
			C7.7,16.7,7.5,17.5,7.3,18.4z"/>
		<path id="XMLID_2824_" class="st3" d="M144.7,100.5c-10-1.4-39.8-12.5-60.2-26.4C52,52.2,39.3,38.3,37.1,40.5
			c-1.1,1,4.7,15.1,33.5,35.5c28.8,20.5,46.1,30.3,71.6,34.5C167.7,114.8,171,104.1,144.7,100.5z"/>
		<path id="XMLID_2825_" class="st5" d="M138.5,101.8c-6.5-0.6-25.9-6.9-39.1-15.2C78.2,73.5,68.1,66.8,66.6,68.2
			c-0.7,0.7,5.8,6.5,24.5,18.7s29.3,18.3,45.8,21.3C153.3,111.3,155.5,103.4,138.5,101.8z"/>
		<path id="XMLID_2878_" class="st5" d="M140.3,77.7c-5.3-1.3-29-7.4-39.6-11.6c-10.6-4.2,10.5,12,37,18
			C149.7,86.8,145.8,79,140.3,77.7z"/>
		<g id="XMLID_2868_">
			<path id="XMLID_2881_" class="st6" d="M147.1,84c0.2-0.8,3-0.9,6.3-0.1c3.3,0.8,5.8,2.2,5.6,3c-0.2,0.8-3,0.9-6.3,0.1
				C149.4,86.2,146.9,84.9,147.1,84z"/>
			<path id="XMLID_2882_" class="st6" d="M163.2,105.3c3.4,0.4,6,1.4,5.9,2.3c-0.1,0.9-2.9,1.2-6.3,0.8s-6-1.4-5.9-2.3
				C157,105.2,159.8,104.9,163.2,105.3z"/>
			<path id="XMLID_2889_" class="st6" d="M132.5,99.5c3.3,0.7,5.8,2,5.7,2.9c-0.2,0.9-3,1-6.3,0.2c-3.3-0.7-5.8-2-5.7-2.9
				C126.3,98.9,129.2,98.8,132.5,99.5z"/>
			<path id="XMLID_2891_" class="st6" d="M142.2,121.7c3.4,0.4,6,1.5,5.9,2.4c-0.1,0.9-2.9,1.2-6.3,0.8c-3.4-0.4-6-1.5-5.9-2.4
				C136,121.6,138.8,121.3,142.2,121.7z"/>
			<path id="XMLID_2893_" class="st6" d="M103.7,110.5c3.2,1.2,5.5,2.8,5.2,3.6c-0.3,0.8-3.1,0.5-6.3-0.7c-3.2-1.2-5.5-2.8-5.2-3.6
				C97.7,109,100.5,109.3,103.7,110.5z"/>
			<path id="XMLID_2895_" class="st6" d="M74.8,92.5c2.7,2.1,4.4,4.4,3.8,5.1c-0.5,0.7-3.1-0.5-5.8-2.6c-2.7-2.1-4.4-4.4-3.8-5.1
				C69.6,89.2,72.2,90.4,74.8,92.5z"/>
			<path id="XMLID_2896_" class="st6" d="M46.4,68.7c1.6,1.5,2.6,3.1,2.3,3.5c-0.4,0.4-2-0.5-3.7-2c-1.6-1.5-2.6-3.1-2.3-3.5
				C43.1,66.3,44.7,67.2,46.4,68.7z"/>
			<path id="XMLID_2897_" class="st6" d="M99.7,84.7c3.1,1.4,5.3,3.1,5,3.9c-0.4,0.8-3.2,0.3-6.3-1c-3.1-1.4-5.3-3.1-5-3.9
				C93.8,82.8,96.6,83.3,99.7,84.7z"/>
			<path id="XMLID_2901_" class="st6" d="M70.6,66c2.8,1.9,4.6,4.1,4.1,4.8c-0.5,0.7-3.2-0.3-5.9-2.2c-2.8-1.9-4.6-4.1-4.1-4.8
				C65.1,63.1,67.8,64.1,70.6,66z"/>
			<path id="XMLID_2904_" class="st6" d="M46,47c2.6,2.1,4.3,4.4,3.7,5.1c-0.6,0.7-3.1-0.5-5.7-2.7c-2.6-2.1-4.3-4.4-3.7-5.1
				C40.8,43.7,43.3,44.9,46,47z"/>
			<path id="XMLID_2907_" class="st6" d="M21.1,25.6c0.6-0.6,3.1,0.8,5.5,3.1s3.9,4.8,3.3,5.4c-0.6,0.6-3.1-0.8-5.5-3.1
				C22,28.7,20.5,26.3,21.1,25.6z"/>
			<path id="XMLID_2910_" class="st6" d="M115.3,74.6c0.2-0.8,3-0.9,6.3-0.1c3.3,0.8,5.8,2.2,5.6,3c-0.2,0.8-3,0.9-6.3,0.1
				C117.6,76.8,115.1,75.4,115.3,74.6z"/>
			<path id="XMLID_2913_" class="st6" d="M83.8,61c0.3-0.8,3.1-0.4,6.3,0.9c3.1,1.3,5.4,3,5.1,3.8c-0.3,0.8-3.1,0.4-6.3-0.9
				C85.7,63.5,83.5,61.8,83.8,61z"/>
			<path id="XMLID_2916_" class="st6" d="M64.4,45.8c2.4,1.7,4.1,3.6,3.6,4.3c-0.4,0.6-2.8-0.3-5.2-2c-2.4-1.7-4.1-3.6-3.6-4.3
				C59.6,43.2,61.9,44.1,64.4,45.8z"/>
			<path id="XMLID_2921_" class="st6" d="M40.4,26.3c2.4,1.7,4.1,3.6,3.6,4.3c-0.4,0.6-2.8-0.3-5.2-2c-2.4-1.7-4.1-3.6-3.6-4.3
				C35.7,23.7,38,24.6,40.4,26.3z"/>
		</g>
		<g id="XMLID_2828_">
			<path id="XMLID_2834_" class="st7" d="M91.8,117.3C72.8,105.7,59,89.7,50.8,80.2l-0.8-1c-3.9-4.3-8.2-8.8-12.3-13.1
				c-1.3-1.4-2.7-2.8-4-4.2c-0.5-0.5-1-1-1.5-1.6l-0.3-0.3c-0.9-1-1.8-1.9-2.7-2.9c-0.7-0.7-1.3-1.4-2-2.1c-0.7-0.8-1.5-1.6-2.2-2.4
				c0,0,0,0-0.1-0.1c-3.6-4-6.5-7.3-8.8-10.3l0,0c0,0,0,0-0.1-0.1L16,42.1c-0.6-0.8-1.1-1.4-1.5-1.9c-0.5-0.7-1-1.4-1.5-2.1L12.9,38
				c-0.3-0.4-0.6-0.8-0.9-1.2c-1.2-1.8-2.3-3.6-3.1-5.1c-0.2-0.3-0.3-0.6-0.5-1c-1.3-2.5-2.1-5.3-2.2-8.2c-0.1-1.6,0-3.2,0.3-4.8
				l0,0c0.2-0.9,0.4-1.8,0.7-2.6c0.1-0.2,0.1-0.4,0.2-0.5c0,0,0-0.1,0.1-0.1c0.7-1.6,1.6-2.9,2.7-4.1c1.1-1.1,2.3-1.9,3.6-2.5
				c2.4-1,5.1-1.1,8.1-0.3c0.3,0.1,0.7,0.2,1.1,0.4c2.2,0.9,4.6,2.5,8,5.2c7,6.3,28.5,25.6,37.2,31.3c8.6,6,24.6,14.8,63.5,22.3
				c8.6,1.5,16.1,3.5,22.4,5.9c6.2,2.4,11.3,5.4,15.3,8.9l0.2,0.1c1.3,1.1,2.5,2.3,3.5,3.5l0.2,0.2c4.7,5.5,6.9,11.9,6.4,18.5
				c0,0.2,0,0.3,0,0.5l0,0.1l0,0.1c-1.1,10.5-9.3,20-21.4,24.8c-9,3.7-20.4,4.3-32.7,1.7c-0.9-0.2-1.9-0.4-2.8-0.6
				C112.3,128.1,101.7,123.5,91.8,117.3z M177.9,104.5c0-0.2,0-0.3,0-0.5c0.5-6.1-1.6-12-5.9-17.1l-0.2-0.2c-1-1.2-2.1-2.3-3.4-3.4
				l-0.2-0.1c-3.9-3.4-8.9-6.3-14.9-8.7c-6.1-2.4-13.5-4.4-22-5.9C92.3,61,76.1,52.1,67.3,46c-5.9-3.9-18.2-14.2-37.4-31.4
				c-3.1-2.6-5.5-4.1-7.5-4.9c-0.4-0.1-0.7-0.2-1-0.3c-2.6-0.7-5-0.7-7,0.2c-1.1,0.5-2.1,1.2-3,2.1c-1,1-1.7,2.2-2.3,3.5
				c0,0,0,0.1-0.1,0.1c-0.1,0.2-0.1,0.3-0.2,0.5c-0.3,0.7-0.5,1.5-0.7,2.3v0c-0.3,1.4-0.4,2.9-0.3,4.3C8,25.1,8.8,27.7,10,30
				c0.2,0.3,0.3,0.6,0.5,1c0.8,1.5,1.8,3.2,3,4.9c0.3,0.4,0.6,0.8,0.8,1.2l0.1,0.1c0.5,0.7,1,1.3,1.5,2c0.5,0.6,0.9,1.2,1.4,1.9
				c0.1,0.1,0.1,0.1,0.2,0.2c2.3,3,5.2,6.3,8.7,10.2c0,0,0.1,0.1,0.1,0.1c0.7,0.8,1.4,1.6,2.2,2.4c0.7,0.7,1.3,1.4,2,2.1
				c0.9,0.9,1.8,1.9,2.7,2.8l0.3,0.3c0.5,0.5,1,1,1.5,1.6c1.3,1.4,2.7,2.8,4,4.2c4.1,4.3,8.4,8.8,12.4,13.2l0.9,1
				c8.2,9.5,21.8,25.3,40.7,36.8c10.6,6.7,22,11.4,33.1,13.8c12,2.5,23,2,31.8-1.6c11.5-4.5,19.3-13.5,20.3-23.4L177.9,104.5z"/>
		</g>
	</g>
	<g id="XMLID_2865_">
		<path id="XMLID_3511_" class="st6" d="M0.9,9.2L6.5,19c0.3,0.6,1.2,0.4,1.3-0.2L8,17.1c0-0.2,0.2-0.4,0.4-0.5
			c0.1,0,0.2-0.1,0.3-0.1l2,0l1,0c0.1,0,0.3,0,0.4-0.1c0.1-0.1,0.3-0.3,0.3-0.4l0.6-2.9c0.1-0.3,0.3-0.6,0.7-0.6l1.9,0l1.6,0
			c0.4,0,0.7-0.3,0.7-0.8l-0.2-1.9c0-0.4,0.2-0.7,0.6-0.7l1.5-0.2C20.3,8.8,20.5,8,20,7.6L11.2,1c-0.2-0.2-0.6-0.2-0.8,0L7.5,3.3
			L5.7,4.7l-2,1.6l-2.6,2C0.8,8.6,0.8,8.9,0.9,9.2z"/>
		<path id="XMLID_2923_" class="st1" d="M5.7,4.7l7.2,8.4c0.1-0.3,0.3-0.6,0.7-0.6l1.9,0l1.9-0.4l-10-8.8L5.7,4.7z"/>
		<path id="XMLID_2924_" class="st4" d="M0.9,9.2L6.5,19c0.3,0.6,1.2,0.4,1.3-0.2L8,17.1c0-0.2,0.2-0.4,0.4-0.5
			c0.1,0,0.2-0.1,0.3-0.1l2,0C8.7,13.5,5.5,8.8,3.7,6.3l-2.6,2C0.8,8.6,0.8,8.9,0.9,9.2z"/>
		<path id="XMLID_2925_" class="st1" d="M2.9,7.4l5.5,9.2c0.1,0,0.2-0.1,0.3-0.1l3,0c0.1,0,0.3,0,0.4-0.1c-0.3-0.4-0.5-0.7-0.5-0.7
			L4.2,6.2L2.9,7.4z"/>
		<path id="XMLID_2845_" class="st7" d="M5.8,19.4L0.2,9.7C-0.2,9,0,8.2,0.6,7.7l9.3-7.4c0.5-0.4,1.3-0.4,1.9,0L20.5,7l0,0
			c0.5,0.4,0.7,1,0.6,1.6c-0.1,0.6-0.6,1-1.2,1.1l-1.4,0.2l0.2,1.7c0,0.4-0.1,0.8-0.4,1.2c-0.3,0.3-0.7,0.5-1.1,0.5l-3.4,0l-0.5,2.8
			c-0.1,0.7-0.8,1.2-1.5,1.2l-2.8,0l-0.3,1.5C8.5,19.5,8,20,7.4,20.1c-0.2,0-0.4,0-0.6,0C6.3,20,6,19.8,5.8,19.4z M12.1,12.9
			c0.1-0.7,0.8-1.2,1.5-1.2l3.3,0l-0.1-1.7c-0.1-0.8,0.5-1.5,1.3-1.6l1.2-0.2l-8.4-6.4L1.7,8.9L7,18.2L7.2,17
			c0.1-0.7,0.8-1.3,1.5-1.3l2.8,0L12.1,12.9z"/>
		<path id="XMLID_2846_" class="st8" d="M16,6.7l-4.9-3.9c-0.2-0.2-0.6-0.2-0.8,0L6.3,6.2C6,6.4,6,6.8,6.2,7.1l3.9,4.8
			c0.4,0.5,1.1,0.2,1.1-0.4l0-0.7c0-0.4,0.3-0.7,0.7-0.6l3,0.4c0.4,0.1,0.7-0.2,0.7-0.6l0.1-1.8c0-0.2,0.1-0.4,0.3-0.5l0,0
			C16.3,7.5,16.4,7,16,6.7z"/>
		<path id="XMLID_2861_" class="st5" d="M15.2,6.7l-4-3.2c-0.1-0.1-0.2-0.1-0.3,0L10,4c-0.1,0.1-0.1,0.3,0,0.4l4.5,3.7
			c0.2,0.1,0.4,0,0.4-0.2c0-0.3,0.1-0.6,0.3-0.9C15.3,7,15.3,6.8,15.2,6.7z"/>
	</g>
</g>
</svg>
