<?xml version="1.0" encoding="utf-8"?>
<!-- Generator: Adobe Illustrator 25.2.3, SVG Export Plug-In . SVG Version: 6.00 Build 0)  -->
<svg version="1.1" id="Layer_1" xmlns="http://www.w3.org/2000/svg" xmlns:xlink="http://www.w3.org/1999/xlink" x="0px" y="0px"
	 width="512px" height="512px" viewBox="0 0 512 512" style="enable-background:new 0 0 512 512;" xml:space="preserve">
<style type="text/css">
	.st0{fill-rule:evenodd;clip-rule:evenodd;fill:#3366CC;}
	.st1{fill-rule:evenodd;clip-rule:evenodd;fill:#003399;}
	.st2{fill-rule:evenodd;clip-rule:evenodd;fill:#4B5055;}
	.st3{fill-rule:evenodd;clip-rule:evenodd;fill:#373C41;}
	.st4{fill-rule:evenodd;clip-rule:evenodd;fill:#FFD944;}
	.st5{fill-rule:evenodd;clip-rule:evenodd;fill:#FFC107;}
</style>
<g>
	<g>
		<path class="st0" d="M142.7,321.1h272.7c21.9,0,40.5-13.7,46.9-34.6l46.2-149.8c1.5-4.8,0.7-9.5-2.3-13.5c-3-4-7.3-6.2-12.3-6.2
			H93.5L142.7,321.1z"/>
		<path class="st1" d="M304.1,321.1h111.4c21.9,0,40.5-13.7,46.9-34.6l46.2-149.8c1.5-4.8,0.7-9.5-2.3-13.5c-3-4-7.3-6.2-12.3-6.2
			h-190V321.1z"/>
		<path class="st2" d="M434.2,409.7c4.5,0,8.1,3.6,8.1,8.1s-3.6,8.1-8.1,8.1H142.7c-15.6,0-29.7-6.4-39.9-16.6S86.2,385,86.2,369.5
			c0-27.7,20.1-50.8,46.4-55.6L63.1,25.6c-0.7-2.8-2.2-5.1-4.3-6.8c-2.1-1.6-4.7-2.6-7.6-2.6H10.8c-4.5,0-8.1-3.6-8.1-8.1
			S6.3,0,10.8,0h40.4c6.6,0,12.7,2.2,17.6,6.1c4.9,3.8,8.4,9.3,10,15.7l71.6,296.7c0.3,0.8,0.4,1.7,0.4,2.6c0,4.5-3.6,8.1-8.1,8.1
			c-22.1,0-40.3,18.1-40.3,40.3c0,11.1,4.5,21.1,11.8,28.4s17.4,11.8,28.4,11.8L434.2,409.7L434.2,409.7z"/>
		<path class="st3" d="M395.3,417.9c26,0,47.1,21.1,47.1,47.1S421.3,512,395.3,512s-47.1-21.1-47.1-47.1
			C348.3,438.9,369.3,417.9,395.3,417.9L395.3,417.9z M175.9,417.9c26,0,47.1,21.1,47.1,47.1S201.9,512,175.9,512
			s-47.1-21.1-47.1-47.1C128.8,438.9,149.9,417.9,175.9,417.9L175.9,417.9z"/>
		<path class="st2" d="M395.3,445.8c10.5,0,19.1,8.5,19.1,19.1s-8.5,19.1-19.1,19.1s-19.1-8.5-19.1-19.1
			C376.3,454.4,384.8,445.8,395.3,445.8z M175.9,445.8c10.5,0,19.1,8.5,19.1,19.1s-8.5,19.1-19.1,19.1s-19.1-8.5-19.1-19.1
			C156.8,454.4,165.4,445.8,175.9,445.8z"/>
	</g>
	<g>
		<path class="st4" d="M355,23.4v143.2h24.4c2.1,0,3.9,1.2,4.7,3.1c0.8,1.9,0.4,4-1,5.5l-67.9,70.6c-2.9,3-6.5,4.6-10.7,4.7
			c-4.2,0.1-7.8-1.4-10.9-4.3l-73.4-70.9c-1.5-1.5-2-3.6-1.2-5.6c0.8-2,2.6-3.2,4.7-3.2H254V23.4c0-8.4,6.8-15.2,15.2-15.2h70.5
			C348.2,8.1,355,15,355,23.4L355,23.4z"/>
		<path class="st5" d="M355,23.4v143.2h24.4c2.1,0,3.9,1.2,4.7,3.1c0.8,1.9,0.4,4-1,5.5l-67.9,70.6c-2.9,3-6.4,4.6-10.6,4.7V8.1
			h35.2C348.2,8.1,355,15,355,23.4L355,23.4z"/>
	</g>
</g>
</svg>
