<?xml version="1.0" encoding="utf-8"?>
<!-- Generator: Adobe Illustrator 25.2.3, SVG Export Plug-In . SVG Version: 6.00 Build 0)  -->
<svg version="1.1" id="Capa_1" xmlns="http://www.w3.org/2000/svg" xmlns:xlink="http://www.w3.org/1999/xlink" x="0px" y="0px"
	 width="78.7px" height="70.2px" viewBox="0 0 78.7 70.2" style="enable-background:new 0 0 78.7 70.2;" xml:space="preserve">
<style type="text/css">
	.st0{fill:#93315A;}
	.st1{fill:#841748;}
	.st2{fill:#6D0F3E;}
	.st3{fill:#A03866;}
	.st4{opacity:0.5;fill:#C1638E;}
	.st5{fill:#E3CEB3;}
	.st6{fill:#4C1131;}
	.st7{opacity:0.5;fill:#E288B5;}
	.st8{fill:#FBE5F8;}
	.st9{fill:#F4D4F0;}
	.st10{fill:#E8C9E3;}
	.st11{fill:#C1638E;}
	.st12{opacity:0.5;fill:#FFFFFF;}
</style>
<g id="XMLID_2584_">
	<g id="XMLID_2561_">
		<path id="XMLID_2573_" class="st0" d="M50.1,58.6c-0.5-0.1-0.9-0.1-1.2,0.2c-0.1,0.2-0.2,0.4-0.2,0.8c0.2,3.3-12.8-6.3-10.4-7.2
			c1.4-0.5,0.1-2.2-0.5-2.8c-0.5-0.4-0.9-0.8-1.3-1.3c0,0,0,0,0,0c-2.9-3.4-3-9.4-0.6-15c0.8-1.8,1.9-3.7,3.2-5.3
			c1.1-1.4,2.4-2.8,3.9-4c10.1-8,16.4-5.3,21.8-6c0,0,0.1,0,0.1,0c2.1-0.3,4.1-1.2,6.1-3.4c4.3-4.7-0.2-4.8,3.5-7.2
			C78.3,5.1,74.9,5,76,2.1c0.2-0.6,0.5-1,0.9-1.3c0.4-0.3,0.9,0.1,0.7,0.5c-0.1,0.2-0.2,0.4-0.2,0.6c-0.2,1.7,1.7,4.1-0.3,6.5
			c-2,2.4,0.6,0.4-1.5,3.8c-1.8,2.9-0.1,2.2-0.3,3.8c0,0.2-0.1,0.5-0.3,0.9c-1.1,2.6-1.4,5-1.2,7.4c0,0,0,0,0,0c0,0,0,0,0,0
			c0.2,2.6,1,5.1,1.6,7.7c1.2,5.1,1.9,10.7-2.8,18.4C65,62.9,57.2,63.2,50.1,58.6z"/>
		<path id="XMLID_2556_" class="st1" d="M72.6,50.4c4.7-7.7,4-13.3,2.8-18.4c-0.6-2.6-1.4-5.1-1.6-7.7c0,0,0,0,0,0c0,0,0,0,0,0
			c0,0,0,0,0,0c0,0,0,0,0,0c0-0.3,0-0.6-0.1-0.9c0-1.1,0-2.2,0.3-3.4c0.2-1,0.5-2,1-3.1c1.2-2.8-1.5-1.3,0.6-4.7
			c0.1-0.2,0.2-0.3,0.3-0.5c0,0,0,0,0,0c0.3-0.5-0.5-2.3-2.1,0.9c-1.5,3.2-5.3,4.1-5.3,4.1c-1.2,0.7-2.4,1.1-3.6,1.3
			c1-0.1,6.2-0.5,8.2,3.8c-0.8,23.8-16.8,24.9-27.2,18.6c-9.2-5.6-7.4-11.2-6.8-12.4c-1.3,1.7-2.4,3.5-3.2,5.3
			c-2.4,5.6-2.3,11.5,0.6,15c0,0,0,0,0,0c0.4,0.5,0.8,0.9,1.3,1.3c0.5,0.6,1.9,2.3,0.5,2.8c-2.4,0.9,10.5,10.5,10.4,7.2
			c0-0.4,0.1-0.6,0.2-0.8c0.3-0.3,0.7-0.3,1.2-0.2C57.2,63.2,65,62.9,72.6,50.4z"/>
		<path id="XMLID_2568_" class="st2" d="M50.1,58.6c-0.5-0.1-0.9-0.1-1.2,0.2c-0.1,0.2-0.2,0.4-0.2,0.8c0.2,3.3-12.8-6.3-10.4-7.2
			c1.4-0.5,0.1-2.2-0.5-2.8c-0.5-0.4-0.9-0.8-1.3-1.3c0,0,0,0,0,0c-2.9-3.4-3-9.4-0.6-15c0.1,0.6-1.8,8,13.8,16.1
			c15.9,8.3,24.9-7.4,25.3-16.1c0-0.6,0.2-1,0.4-1.4c1.2,5.1,1.9,10.7-2.8,18.4C65,62.9,57.2,63.2,50.1,58.6z"/>
		<g id="XMLID_2362_">
			<path id="XMLID_2557_" class="st3" d="M76.5,10.4l-0.7-0.6C75.7,9.9,72,13.9,65,28.8C57.2,45.4,44.6,55.9,44.4,56l0.6,0.7
				c0.1-0.1,12.9-10.6,20.8-27.5C72.7,14.5,76.4,10.4,76.5,10.4z"/>
			<path id="XMLID_2572_" class="st3" d="M74.9,15.5l-0.7-0.8c-0.1,0.1-6.2,12.9-9.1,20.9C60.5,47.9,48,58.1,47.9,58.2l0.7,0.6
				c0.1-0.1,12.7-10.4,17.3-22.9C68.8,27.9,74.8,15.6,74.9,15.5z"/>
			<path id="XMLID_2574_" class="st3" d="M73.5,23l-0.4-1.2c0,0.1-4.3,13.7-5.5,18c-2.1,7.4-8.7,16.1-15.2,19.8l0.4,0.8
				c6.6-3.8,13.4-12.8,15.6-20.4C69.7,35.8,73.5,23.2,73.5,23z"/>
			<path id="XMLID_2575_" class="st3" d="M71.5,44.6c1.5-6.8,3.5-16,3.5-16.1l-0.9-0.2c0,0.1-2,9.3-3.5,16.1
				c-1.8,8.3-9.6,15-13.1,16.2l0.3,0.9C61.4,60.2,69.6,53.2,71.5,44.6z"/>
			<path id="XMLID_2576_" class="st3" d="M51.4,28.5C55,26,65.5,18,65.6,17.9l-0.9-0.4c-0.1,0.1-10.3,7.8-13.8,10.4
				C44.5,32.4,38.5,42,37.2,49.5l0.9,0.1C39.3,42.3,45.2,33.1,51.4,28.5z"/>
			<path id="XMLID_2577_" class="st3" d="M46.1,27.4c5.9-3.8,13.8-8.8,13.9-8.9l-0.5-0.8c-0.1,0.1-8,5.1-13.9,8.9
				c-7.4,4.8-11.2,14.9-11.1,18.7l0.9,0C35.4,41.6,39,31.9,46.1,27.4z"/>
			<path id="XMLID_2578_" class="st3" d="M72,14.2l-0.7-0.5c-0.1,0.1-9.3,13.7-15,20c-5.7,6.4-13.6,21-13.7,21.1l0.8,0.4
				c0.1-0.1,7.9-14.7,13.5-21C62.6,28,71.9,14.3,72,14.2z"/>
			<path id="XMLID_2579_" class="st3" d="M51.7,33.8c4.3-4.1,15.6-15.9,15.7-16l-0.7-0.6c-0.1,0.1-11.4,11.9-15.7,16
				c-4.5,4.3-10.1,15.8-11,20.3l0.6,0.8C41.6,49.9,47.3,38,51.7,33.8z"/>
		</g>
		<path id="XMLID_2558_" class="st4" d="M45.1,26.4c1.4-1.7,3.2-3,5.1-3.9c3-1.3,8.6-3.2,12.7-2c5.9,1.8,9,4.7,5.4,11.7
			c-3.6,7-12.2,9.1-20.6,5C41.5,34.3,42.5,29.8,45.1,26.4z"/>
		<path id="XMLID_2571_" class="st1" d="M38.3,52.4c0.5-0.2,0.6-0.5,0.6-0.9c-0.1-0.7-0.7-1.5-1.1-1.9c-0.5-0.4-0.9-0.8-1.3-1.3
			c0.6,0.1,1.2,0.4,2,1c0,0,2.3,1.6,2.4,2.3c0.1,0.7-0.4,2.3,7.4,6.7c0.2,0.1,0.4,0.2,0.6,0.3c-0.1,0.1-0.2,0.3-0.2,0.5
			c0,0.1,0,0.2,0,0.3C48.9,62.9,35.9,53.3,38.3,52.4z"/>
		<path id="XMLID_2581_" class="st5" d="M48.7,59.3c-0.2-0.1-0.5-0.1-0.7-0.2c-1.9-0.4-8.1-5.1-8-5.7c0.1-0.6-0.5-2.3-0.5-2.3
			s-0.2,0.1-0.6,0.4c0,0.4-0.1,0.7-0.6,0.9c-2.4,0.9,10.5,10.5,10.4,7.2C48.7,59.5,48.7,59.4,48.7,59.3z"/>
		<path id="XMLID_2393_" class="st6" d="M42.8,58.5c-2.6-1.8-5.1-4.2-5.4-5.3c-0.2-0.6,0.1-1.2,0.7-1.4c0.1,0,0.2-0.1,0.2-0.1
			c0-0.2-0.2-0.7-0.9-1.6c-2.4-1.8-3.8-4.9-3.9-8.7C33.4,35,37,28,42.6,23.5c7.9-6.2,13.5-6.1,18.1-6c1.4,0,2.8,0,4.1-0.1
			c0,0,0,0,0.1,0c2.2-0.3,4-1.3,5.7-3.2c2.1-2.2,1.9-3.2,1.8-4.1c-0.2-1.1-0.1-2,1.9-3.2c1.7-1.1,1.6-1.3,1.3-2
			c-0.3-0.6-0.7-1.6-0.1-3c0.3-0.7,0.6-1.2,1-1.6c0.4-0.4,1-0.4,1.4-0.1c0.4,0.3,0.6,0.9,0.3,1.4c-0.1,0.1-0.1,0.2-0.1,0.4
			c0,0.4,0.1,1,0.3,1.6C78.7,5,79.2,7,77.6,8.9c-0.4,0.5-0.6,0.7-0.6,0.8c0.3,0.6,0.2,1.2-0.8,2.9c-0.9,1.5-0.8,1.7-0.6,1.9
			c0.4,0.6,0.7,1.2,0,2.7c-1,2.3-1.3,4.5-1.1,7l0,0.1c0.2,1.9,0.6,3.8,1.1,5.7c1.4,5.6,2.9,11.9-2.5,20.8c-3.8,6.2-8,9.9-12.4,10.9
			c-3.5,0.8-7.1,0-10.9-2.5c-0.3-0.1-0.4,0-0.5,0c0,0-0.1,0.1,0,0.3c0,0.7-0.4,1.3-1.1,1.4C47.2,61.1,45,60,42.8,58.5z M38.8,52.9
			c0.3,0.8,2.5,2.9,5.5,4.9c2.3,1.5,3.4,1.8,3.8,1.8c0-0.8,0.3-1.2,0.5-1.4c0.4-0.3,1-0.4,1.7-0.3l0.1,0l0.1,0.1
			c3.5,2.3,6.8,3.1,10,2.4c4.1-0.9,7.9-4.4,11.5-10.3c5.1-8.4,3.7-14.2,2.3-19.7c-0.5-2-1-3.9-1.1-5.9l0-0.1
			c-0.2-2.8,0.2-5.2,1.2-7.6c0.4-0.9,0.3-1.1,0.1-1.4c-0.5-0.8-0.6-1.5,0.6-3.4c0.7-1.1,0.8-1.5,0.8-1.6c-0.4-0.7-0.1-1.3,0.8-2.3
			c1.2-1.4,0.8-2.7,0.5-4c-0.2-0.6-0.3-1.2-0.3-1.8c0,0.1-0.1,0.1-0.1,0.2c-0.4,0.9-0.2,1.4,0.1,2c0.6,1.3,0.4,2.2-1.8,3.7
			c-1.4,0.9-1.3,1.2-1.2,1.9c0.2,1.3,0.2,2.7-2.1,5.2c-1.9,2.1-3.9,3.2-6.5,3.6l-0.1,0c-1.4,0.2-2.8,0.2-4.3,0.1
			c-4.6-0.1-9.7-0.2-17.2,5.7c-5.3,4.2-8.7,10.8-8.6,16.8c0.1,3.4,1.3,6.1,3.4,7.7l0.1,0.1c0.7,0.8,1.5,1.9,1.2,2.8
			C39.5,52.3,39.3,52.7,38.8,52.9z"/>
		<path id="XMLID_2562_" class="st7" d="M54.8,23.2c0,0,4.3-1.9,7.3-0.6c3,1.3,6.3,3.3,4.6,6.8s-2.5,2.8-4.2,0.8
			c-1.8-2-2.3-4-4.5-4.2C55.8,26,50.8,24.6,54.8,23.2z"/>
	</g>
	<g id="XMLID_2580_">
		<path id="XMLID_2566_" class="st0" d="M42.4,57.2C42.4,57.2,42.4,57.2,42.4,57.2c-0.1,0.1-0.2,0.2-0.3,0.3c-0.3,0.3-0.7,0.7-1.1,1
			c-0.5,0.6-1.4,0.9-1,2.3c0.3,0.9-6.1,7.2-8.6,6.7c-0.4-0.1-2.2-0.1-2.7,0c-7,4.6-17.8,1.2-22.4-8.2c-4-8.1-4-13.3-2.8-18.4
			c0.4-1.5,0.8-3,1.1-4.5c0.2-1.1,0.4-2.1,0.5-3.2c0,0,0,0,0,0c0,0,0,0,0,0c0.2-2.3,0-4.7-1.2-7.4c-0.2-0.4-0.3-0.7-0.3-0.9
			c-0.3-1.5,0.2-5.2-1.8-7.6c-2-2.4-0.9-8.4,0.2-7.6c0.4,0.3-1.4,4.3,2.3,6.6c3.7,2.3-0.8,2.5,3.5,7.2c2,2.2,4,3.1,6.1,3.4
			c0.1,0,0.1,0,0.1,0c5.4,0.8,11.1-1.2,21.8,6C47.9,41.1,45.3,53.8,42.4,57.2z"/>
		<path id="XMLID_2586_" class="st2" d="M42.1,57.5c-0.3,0.3-0.7,0.7-1.1,1c-0.5,0.6-1.4,0.9-1,2.3c0.3,0.9-6.1,7.2-8.6,6.7
			c-0.4-0.1-2.2-0.1-2.7,0c-7,4.6-17.8,1.2-22.4-8.2c-4-8.1-4-13.3-2.8-18.4c0.4-1.5,0.8-3,1.1-4.5c0,0,8.7,40,35.5,22.4
			C40.8,58.3,41.4,57.9,42.1,57.5z"/>
		<path id="XMLID_2605_" class="st8" d="M42,42.3c0.8,2.1,1,4.1,1,6c0,2.9-0.8,5.4-1.8,6.9c-0.2,0.3-0.3,0.5-0.5,0.7c0,0,0,0,0,0
			c-0.2,0.2-0.3,0.4-0.5,0.5c0,0,0,0,0,0c-0.1,0.1-0.2,0.2-0.4,0.3c0,0,0,0,0,0c-0.3,0.3-0.6,0.6-0.7,0.9c-0.1,0.2-0.3,0.5-0.4,0.8
			c-0.2,0.3-0.4,0.8-0.7,1.3c-0.9,1.6-5.4,5.5-6.5,5.2c-0.2,0-0.4,0-0.6,0c-0.3,0-0.6,0.1-0.9,0.1c-1.2,0.2-2.5,0.7-2.5,0.7l0,0
			c-0.2,0.1-0.4,0.2-0.6,0.3c-0.3,0.1-0.5,0.2-0.8,0.3c-0.6,0.2-1.2,0.4-1.9,0.5c-6.1,1.2-13.2-2.2-16.7-9.2
			c-3.7-7.5-3.7-12.3-2.6-17c0,0,0,0,0,0c0.6-2.4,1.3-4.7,1.5-7.1c0,0,0,0,0,0c0,0,0,0,0,0c0.1-0.7,0.1-1.3,0.1-1.9
			c0.1-4.1-0.9-5.6-0.1-6.2c1.3-1,4,2,8.2,2.2c0.1,0,0.1,0,0.1,0c5,0.7,10.3-1.1,20.2,5.6C38.6,36.1,40.9,39.2,42,42.3z"/>
		<path id="XMLID_2600_" class="st9" d="M42,42.3c0.8,2.1,1,4.1,1,6c0,2.9-0.8,5.4-1.8,6.9c-0.2,0.3-0.3,0.5-0.5,0.7c0,0,0,0,0,0
			c-0.2,0.2-0.3,0.4-0.5,0.5c0,0,0,0,0,0c-0.1,0.1-0.2,0.2-0.4,0.3c0,0,0,0,0,0c-0.3,0.3-0.6,0.6-0.7,0.9c-0.1,0.2-0.3,0.5-0.4,0.8
			c-0.2,0.3-0.4,0.8-0.7,1.3c-0.9,1.6-5.4,5.5-6.5,5.2c-0.2,0-0.4,0-0.6,0c-0.3,0-0.6,0.1-0.9,0.1c-1.2,0.2-2.5,0.7-2.5,0.7l0,0
			c-0.2,0.1-0.4,0.2-0.6,0.3c-0.3,0.1-0.5,0.2-0.8,0.3c-0.6,0.2-1.2,0.4-1.9,0.5c-6.1,1.2-13.2-2.2-16.7-9.2
			c-3.7-7.5-3.7-12.3-2.6-17c0,0,0,0,0,0c0.6-2.4,1.3-4.7,1.5-7.1c0,0,0,0,0,0c0,0,0,0,0,0c0.1-0.7,0.1-1.3,0.1-1.9
			c0,0,6.4,21.3,18.8,20.5C37.5,51.4,42,42.3,42,42.3z"/>
		<path id="XMLID_2599_" class="st10" d="M43.1,48.3c0,2.9-0.8,5.4-1.8,6.9c-0.2,0.3-0.3,0.5-0.5,0.7c0,0,0,0,0,0
			c-0.2,0.2-0.3,0.4-0.5,0.5c0,0,0,0,0,0c-0.1,0.1-0.2,0.2-0.4,0.3c0,0,0,0,0,0c-0.3,0.3-0.6,0.6-0.7,0.9c-0.1,0.2-0.3,0.5-0.4,0.8
			c-0.2,0.3-0.4,0.8-0.7,1.3c-0.9,1.6-5.4,5.5-6.5,5.2c-0.2,0-0.4,0-0.6,0c-0.3,0-0.6,0.1-0.9,0.1c-1.2,0.2-2.5,0.7-2.5,0.7l0,0
			c-0.2,0.1-0.4,0.2-0.6,0.3c-0.3,0.1-0.5,0.2-0.8,0.3c-0.6,0.2-1.2,0.4-1.9,0.5c-6.1,1.2-13.2-2.2-16.7-9.2
			c-3.7-7.5-3.7-12.3-2.6-17c0,0,0.5-1.9,0.5-1.9S14.9,75.9,43.1,48.3C43,48.4,43,48.3,43.1,48.3z"/>
		<g id="XMLID_2564_">
			<path id="XMLID_2583_" class="st11" d="M41.9,49c0,2.8-0.4,5.1-0.6,6.2c-0.2,0.3-0.3,0.5-0.5,0.7c0,0,0,0,0,0
				c-0.2,0.2-0.3,0.4-0.5,0.5C40.7,54.6,43,43.3,37,37c-7.1-7.5-17.4-7.6-21.9-7.6c-0.7,0-1.3,0-1.7,0c-1.8-0.1-3.6-1.1-4.9-1.8
				c-0.5-0.3-1-0.6-1.3-0.6c0,0.3,0.2,1,0.4,1.6c0.5,1.7,1.2,4.2,1,6.5c-0.1,1-0.5,2-1,3.2c-1.3,3.2-3.2,7.6-0.4,15.8
				c3.9,11.7,15,12.4,18.6,12.6c0,0,0.1,0,0.1,0c-0.6,0.2-1.2,0.4-1.9,0.5c-2-0.2-4.8-0.7-7.7-1.9c-4.8-2.1-8.1-5.8-9.8-11
				c-2.8-8.5-0.9-13,0.4-16.3c0.5-1.1,0.9-2.1,1-3c0.2-2.1-0.5-4.6-0.9-6.2c-0.4-1.5-0.6-2.1-0.2-2.4c0.4-0.3,1,0,2.1,0.6
				c1.2,0.7,2.9,1.6,4.6,1.8c0.4,0,1,0,1.7,0c4.5,0,15.1,0.1,22.3,7.8C41,40.3,41.8,45.4,41.9,49z"/>
			<path id="XMLID_2590_" class="st11" d="M37.6,40.9c-2.5-4.2-6.3-7.3-10.6-8.6c-4.4-1.4-7.3-1.2-9.6-1c-1.9,0.1-3.3,0.2-4.9-0.7
				c-1.8-1-2.3-1.3-2.7-1c-0.3,0.3-0.2,0.7,0.1,1.5c0.2,0.6,0.4,1.4,0.6,2.5c0.2,1.2-0.4,2.5-1.1,4.1C8,40.7,6.1,44.8,8.2,52
				C11.9,64.2,24,66,26.8,66.2c0.2-0.1,0.4-0.2,0.6-0.3l0,0c0,0,1.3-0.5,2.5-0.7c-0.2-0.4-0.4-1.5,0.3-2.7c0.5-0.8,0.6-1.4,0.7-1.8
				c0.1-0.5,0.2-0.8,0.8-1.4c0.6-0.7,1.3-0.7,1.9-0.8c0.5-0.1,1-0.1,1.5-0.5c0.7-0.6,2.9-0.7,3.9-0.3c0.2-0.3,0.4-0.6,0.7-0.9
				c0,0,0,0,0,0c0.1-0.1,0.2-0.2,0.4-0.3C41.2,50.8,40.2,45.4,37.6,40.9z M29,65c-1.6-0.4-13.8-3.6-16.4-10.5
				c-3.1-8.2-2.1-12.6-1.2-14.6c0.1-0.2,0.2-0.3,0.2-0.3c0.4,0.2,1.3,2.7,2,4.8c0.7,2.2,1.7,4.9,2.8,7.4c3,6.6,8.6,10.6,12.7,11.5
				C28.9,64.1,29,64.7,29,65z M31.3,58.8c-0.1,0.1-0.2,0.2-0.2,0.2C28,55,23.5,49,22.1,46.7c2.2,2.1,7.9,8.6,10,11.6
				C31.8,58.4,31.5,58.6,31.3,58.8z M33.6,57.9c-0.3,0-0.6,0.1-0.9,0.1c-1.1-1.5-3.6-4.5-6.1-7.4c-4.8-5.4-5.2-5.3-5.4-5.2
				c-0.2,0.1-0.3,0.2-0.3,0.4c0.1,1.1,7.3,10.7,9.7,13.9c-0.2,0.3-0.2,0.5-0.3,0.8C20.1,47,14.6,38.1,15.2,37.3
				c1.3-0.2,10.4,10.2,18.6,20.5C33.8,57.8,33.7,57.8,33.6,57.9z M35.6,57.1c-0.3,0.1-0.6,0.2-0.8,0.4c-0.1,0-0.1,0.1-0.2,0.1
				c-2.3-2.9-16.5-20.7-19.2-21c-0.3,0-0.4,0.1-0.5,0.1c-0.5,0.4-1.4,1.2,6.9,13.1c3.7,5.3,7.6,10.4,8.3,11.4
				c-0.1,0.2-0.2,0.4-0.3,0.7c-2.3-0.6-7.6-2.9-11.5-12.5c-4.7-11.8-5.1-14.4-4.9-14.9c0.8,0.2,4.5,3,7.3,5.1c2.2,1.7,4.3,3.2,5.5,4
				c1.3,0.8,3.6,2.9,5.8,5.8C34.1,52.3,35.4,55,35.6,57.1z M38.6,57c-0.4-0.1-0.8-0.1-1.2-0.1c0.1-1.5,0.1-7.4-5.4-12
				c-3.7-3.1-7.6-5.9-10.5-7.8c-1.9-1.3-3.3-2.3-3.7-2.7c0-0.1-0.1-0.1-0.1-0.2c0.3-0.4,2.5-0.8,5.6,0c4.4,1.2,13.1,5.7,14.6,14.7
				C37.9,49,38.8,54.1,38.6,57z M39.5,57.2c-0.1,0-0.1-0.1-0.2-0.1c0.2-3-0.7-8.1-0.7-8.3c-1.5-9.3-10.5-14.1-15-15.3
				c-3-0.8-5.8-0.7-6.4,0.2c-0.1,0.1-0.3,0.5,0.2,1c0.4,0.5,1.8,1.4,3.8,2.8c2.9,2,6.8,4.7,10.5,7.8c5.3,4.5,5.2,10.2,5.1,11.5
				c-0.2,0-0.3,0-0.5,0.1c-0.5-5.3-6.9-12.3-9.7-14c-1.2-0.7-3.2-2.3-5.4-3.9c-6.2-4.7-7.5-5.5-8-5.1c-0.7,0.5-0.9,2.2,4.6,15.8
				c3.9,9.6,9.2,12.2,11.7,12.8c-0.1,0.1-0.1,0.2-0.1,0.3c-4-0.9-9.4-4.7-12.3-11.2c-1.1-2.4-2-5.2-2.7-7.3
				c-1.2-3.6-1.8-5.3-2.6-5.3c-0.5,0-0.7,0.5-0.8,0.7c-0.9,2-2,6.7,1.2,15.1c1.2,3.2,4.5,6,9.7,8.4c2.8,1.3,5.5,2.1,6.7,2.4
				C26,65.4,12.5,63.9,8.9,51.8C6.8,44.9,8.7,40.9,10,38c0.8-1.6,1.4-3,1.2-4.5c-0.2-1.1-0.4-2-0.6-2.6c-0.1-0.3-0.2-0.5-0.2-0.7
				c0.4,0.1,1.1,0.6,1.8,1c1.8,1,3.3,0.9,5.3,0.7c2.2-0.2,5-0.4,9.3,1C37.2,36.2,41,47.9,39.5,57.2z"/>
			<path id="XMLID_2606_" class="st11" d="M19.1,57.8c-0.4-0.6-0.9-1.2-1.4-2c-2.5-3.7-3.9-6.6-5-10.6c-0.5-2-0.8-2.3-1.2-2.2
				c-0.3,0.1-0.8,0.2,0.5,7.2c1.2,6.4,6.3,9.5,6.5,9.6l0,0c0.8,0.4,1.2,0.6,1.5,0.5c0.1,0,0.1-0.1,0.2-0.1
				C20.6,59.9,20.3,59.5,19.1,57.8z M18.9,59.3c-0.2-0.1-5.1-3.2-6.2-9.2c-0.5-2.5-0.7-4.2-0.8-5.3c0.1,0.2,0.1,0.4,0.2,0.6
				c1.1,4.1,2.5,7,5.1,10.8c0.5,0.8,1,1.5,1.4,2c0.4,0.5,0.7,1,0.9,1.4C19.3,59.5,19.2,59.4,18.9,59.3z"/>
			<path id="XMLID_2609_" class="st11" d="M34.5,43.2c-2.1-3.7-6-6.6-10.2-7.6c-2.1-0.5-2.6-0.4-2.8,0c-0.2,0.5,0.1,1,5.5,4.2
				c5.9,3.5,8.4,7.8,8.4,7.8l0,0c0.2,0.3,0.6,0.8,0.9,0.7c0,0,0.1,0,0.1,0C36.6,48.1,37.2,47.8,34.5,43.2z M27.4,39.2
				c-3.5-2-4.7-2.9-5.1-3.3c0.3,0,0.8,0.1,1.8,0.3c4.1,1,7.7,3.7,9.8,7.3c0.6,1.1,1.1,2,1.4,2.7C34.2,44.7,31.8,41.7,27.4,39.2z"/>
		</g>
		<path id="XMLID_2595_" class="st7" d="M38.7,58.6c-0.2,0.3-0.4,0.7-0.7,1.2c0,0,0,0,0,0.1c-0.8,1.4-4.1,4.3-5.8,5.1
			c-0.3,0.1-0.6,0.2-0.7,0.1c-0.2,0-0.4,0-0.6,0c-0.1-0.4-0.2-1,0.3-1.8c0.7-1.1,0.6-2.4,1.3-3c0.6-0.6,2.1-1.1,2.9-1.1
			C36.1,59.2,38,57.9,38.7,58.6z"/>
		<path id="XMLID_2585_" class="st5" d="M38,59.9C38,59.9,38,59.9,38,59.9c-0.8,1.4-4.2,4.4-5.8,5.1c0.1-0.2,0.2-0.4,0.3-0.6
			c0.7-1.1,0.6-2.4,1.3-3c0.6-0.6,2.1-1.1,2.9-1.1C37,60.3,37.5,60.1,38,59.9z"/>
		<path id="XMLID_2567_" class="st6" d="M33,67.9c-0.6,0.2-1.2,0.3-1.7,0.2c-0.3-0.1-1.8-0.1-2.3,0c-3.3,2.1-7.3,2.6-11.5,1.5
			c-5-1.4-9.3-5-11.8-10c-4.4-8.8-4-14.2-2.9-18.8c0.1-0.6,0.3-1.2,0.4-1.8c0.2-0.9,0.4-1.8,0.6-2.7c0.2-1,0.4-1.9,0.5-2.7l0.1-0.9
			c0.1-2.4-0.2-4.5-1.1-6.6C3.1,25.7,3,25.3,2.9,25c-0.1-0.4-0.1-0.9-0.1-1.6c-0.1-1.7-0.2-4.1-1.5-5.7c-1.9-2.3-1.4-7.2-0.3-8.4
			c0.4-0.4,1-0.5,1.4-0.2c0.4,0.3,0.3,0.8,0.3,1.4c-0.2,1.3-0.4,3.7,2,5.2c2,1.2,2,2.1,1.9,3.2c-0.1,0.9-0.3,1.8,1.8,4.1
			c1.7,1.9,3.5,2.8,5.7,3.2c0.1,0,0.1,0,0.1,0c1.2,0.2,2.5,0.2,3.8,0.2c4.4,0.1,9.9,0.2,18.3,5.9c6.6,4.4,8.6,10,9.1,13.8
			c0.7,4.9-0.7,9.4-2.5,11.5l-0.1,0.1c-0.1,0.1-0.1,0.1-0.2,0.2c-0.3,0.4-0.7,0.7-1.1,1c-0.1,0.1-0.3,0.3-0.4,0.4
			c-0.4,0.4-0.6,0.5-0.4,1.2c0.1,0.4,0,1-1.3,2.5C38.3,64.3,35.4,67,33,67.9z M28.5,66.8l0.1,0c0.6-0.1,2.5-0.1,2.9,0
			c1.9,0.3,7.3-4.7,7.8-6c-0.4-1.4,0.4-2.1,0.9-2.5c0.1-0.1,0.2-0.2,0.3-0.3l0.1-0.1c0.4-0.3,0.7-0.6,1-0.9c0.1-0.1,0.1-0.1,0.2-0.2
			l0.1-0.1c1.2-1.5,2.8-5.4,2.1-10.3c-0.5-3.6-2.4-8.7-8.5-12.9c-8.1-5.5-13.1-5.6-17.6-5.7c-1.4,0-2.6-0.1-3.9-0.2l-0.1,0
			c-2.6-0.4-4.6-1.5-6.5-3.6c-2.3-2.5-2.3-3.9-2.1-5.2c0.1-0.7,0.2-1-1.2-1.9c-1.7-1.1-2.4-2.4-2.6-3.7c0,1.3,0.2,2.8,1,3.7
			c1.7,2,1.8,4.7,1.9,6.5c0,0.6,0,1,0.1,1.4c0,0.2,0.1,0.5,0.2,0.8c1,2.3,1.4,4.7,1.3,7.2l-0.1,0.9c-0.1,0.9-0.3,1.8-0.5,2.9
			c-0.2,0.9-0.4,1.8-0.6,2.7c-0.1,0.6-0.3,1.2-0.4,1.8C3,46.1,3,51.1,6.9,59c2.3,4.6,6.3,8,11,9.3c3.8,1,7.5,0.5,10.5-1.4L28.5,66.8
			z"/>
		<path id="XMLID_2582_" class="st12" d="M13.6,30.2c0,0,12.2-1.2,19.4,4.5c7.2,5.7-5.2,15.1-12,11.1C14.1,41.8,4,30.4,13.6,30.2z"
			/>
	</g>
</g>
<g id="XMLID_1_">
	<g id="XMLID_33_">
		<path id="XMLID_52_" class="st0" d="M50.1,58.6c-0.5-0.1-0.9-0.1-1.2,0.2c-0.1,0.2-0.2,0.4-0.2,0.8c0.2,3.3-12.8-6.3-10.4-7.2
			c1.4-0.5,0.1-2.2-0.5-2.8c-0.5-0.4-0.9-0.8-1.3-1.3c0,0,0,0,0,0c-2.9-3.4-3-9.4-0.6-15c0.8-1.8,1.9-3.7,3.2-5.3
			c1.1-1.4,2.4-2.8,3.9-4c10.1-8,16.4-5.3,21.8-6c0,0,0.1,0,0.1,0c2.1-0.3,4.1-1.2,6.1-3.4c4.3-4.7-0.2-4.8,3.5-7.2
			C78.3,5.1,74.9,5,76,2.1c0.2-0.6,0.5-1,0.9-1.3c0.4-0.3,0.9,0.1,0.7,0.5c-0.1,0.2-0.2,0.4-0.2,0.6c-0.2,1.7,1.7,4.1-0.3,6.5
			c-2,2.4,0.6,0.4-1.5,3.8c-1.8,2.9-0.1,2.2-0.3,3.8c0,0.2-0.1,0.5-0.3,0.9c-1.1,2.6-1.4,5-1.2,7.4c0,0,0,0,0,0c0,0,0,0,0,0
			c0.2,2.6,1,5.1,1.6,7.7c1.2,5.1,1.9,10.7-2.8,18.4C65,62.9,57.2,63.2,50.1,58.6z"/>
		<path id="XMLID_51_" class="st1" d="M72.6,50.4c4.7-7.7,4-13.3,2.8-18.4c-0.6-2.6-1.4-5.1-1.6-7.7c0,0,0,0,0,0c0,0,0,0,0,0
			c0,0,0,0,0,0c0,0,0,0,0,0c0-0.3,0-0.6-0.1-0.9c0-1.1,0-2.2,0.3-3.4c0.2-1,0.5-2,1-3.1c1.2-2.8-1.5-1.3,0.6-4.7
			c0.1-0.2,0.2-0.3,0.3-0.5c0,0,0,0,0,0c0.3-0.5-0.5-2.3-2.1,0.9c-1.5,3.2-5.3,4.1-5.3,4.1c-1.2,0.7-2.4,1.1-3.6,1.3
			c1-0.1,6.2-0.5,8.2,3.8c-0.8,23.8-16.8,24.9-27.2,18.6c-9.2-5.6-7.4-11.2-6.8-12.4c-1.3,1.7-2.4,3.5-3.2,5.3
			c-2.4,5.6-2.3,11.5,0.6,15c0,0,0,0,0,0c0.4,0.5,0.8,0.9,1.3,1.3c0.5,0.6,1.9,2.3,0.5,2.8c-2.4,0.9,10.5,10.5,10.4,7.2
			c0-0.4,0.1-0.6,0.2-0.8c0.3-0.3,0.7-0.3,1.2-0.2C57.2,63.2,65,62.9,72.6,50.4z"/>
		<path id="XMLID_50_" class="st2" d="M50.1,58.6c-0.5-0.1-0.9-0.1-1.2,0.2c-0.1,0.2-0.2,0.4-0.2,0.8c0.2,3.3-12.8-6.3-10.4-7.2
			c1.4-0.5,0.1-2.2-0.5-2.8c-0.5-0.4-0.9-0.8-1.3-1.3c0,0,0,0,0,0c-2.9-3.4-3-9.4-0.6-15c0.1,0.6-1.8,8,13.8,16.1
			c15.9,8.3,24.9-7.4,25.3-16.1c0-0.6,0.2-1,0.4-1.4c1.2,5.1,1.9,10.7-2.8,18.4C65,62.9,57.2,63.2,50.1,58.6z"/>
		<g id="XMLID_41_">
			<path id="XMLID_49_" class="st3" d="M76.5,10.4l-0.7-0.6C75.7,9.9,72,13.9,65,28.8C57.2,45.4,44.6,55.9,44.4,56l0.6,0.7
				c0.1-0.1,12.9-10.6,20.8-27.5C72.7,14.5,76.4,10.4,76.5,10.4z"/>
			<path id="XMLID_48_" class="st3" d="M74.9,15.5l-0.7-0.8c-0.1,0.1-6.2,12.9-9.1,20.9C60.5,47.9,48,58.1,47.9,58.2l0.7,0.6
				c0.1-0.1,12.7-10.4,17.3-22.9C68.8,27.9,74.8,15.6,74.9,15.5z"/>
			<path id="XMLID_47_" class="st3" d="M73.5,23l-0.4-1.2c0,0.1-4.3,13.7-5.5,18c-2.1,7.4-8.7,16.1-15.2,19.8l0.4,0.8
				c6.6-3.8,13.4-12.8,15.6-20.4C69.7,35.8,73.5,23.2,73.5,23z"/>
			<path id="XMLID_46_" class="st3" d="M71.5,44.6c1.5-6.8,3.5-16,3.5-16.1l-0.9-0.2c0,0.1-2,9.3-3.5,16.1
				c-1.8,8.3-9.6,15-13.1,16.2l0.3,0.9C61.4,60.2,69.6,53.2,71.5,44.6z"/>
			<path id="XMLID_45_" class="st3" d="M51.4,28.5C55,26,65.5,18,65.6,17.9l-0.9-0.4c-0.1,0.1-10.3,7.8-13.8,10.4
				C44.5,32.4,38.5,42,37.2,49.5l0.9,0.1C39.3,42.3,45.2,33.1,51.4,28.5z"/>
			<path id="XMLID_44_" class="st3" d="M46.1,27.4c5.9-3.8,13.8-8.8,13.9-8.9l-0.5-0.8c-0.1,0.1-8,5.1-13.9,8.9
				c-7.4,4.8-11.2,14.9-11.1,18.7l0.9,0C35.4,41.6,39,31.9,46.1,27.4z"/>
			<path id="XMLID_43_" class="st3" d="M72,14.2l-0.7-0.5c-0.1,0.1-9.3,13.7-15,20c-5.7,6.4-13.6,21-13.7,21.1l0.8,0.4
				c0.1-0.1,7.9-14.7,13.5-21C62.6,28,71.9,14.3,72,14.2z"/>
			<path id="XMLID_42_" class="st3" d="M51.7,33.8c4.3-4.1,15.6-15.9,15.7-16l-0.7-0.6c-0.1,0.1-11.4,11.9-15.7,16
				c-4.5,4.3-10.1,15.8-11,20.3l0.6,0.8C41.6,49.9,47.3,38,51.7,33.8z"/>
		</g>
		<path id="XMLID_40_" class="st4" d="M45.1,26.4c1.4-1.7,3.2-3,5.1-3.9c3-1.3,8.6-3.2,12.7-2c5.9,1.8,9,4.7,5.4,11.7
			c-3.6,7-12.2,9.1-20.6,5C41.5,34.3,42.5,29.8,45.1,26.4z"/>
		<path id="XMLID_39_" class="st1" d="M38.3,52.4c0.5-0.2,0.6-0.5,0.6-0.9c-0.1-0.7-0.7-1.5-1.1-1.9c-0.5-0.4-0.9-0.8-1.3-1.3
			c0.6,0.1,1.2,0.4,2,1c0,0,2.3,1.6,2.4,2.3c0.1,0.7-0.4,2.3,7.4,6.7c0.2,0.1,0.4,0.2,0.6,0.3c-0.1,0.1-0.2,0.3-0.2,0.5
			c0,0.1,0,0.2,0,0.3C48.9,62.9,35.9,53.3,38.3,52.4z"/>
		<path id="XMLID_38_" class="st5" d="M48.7,59.3c-0.2-0.1-0.5-0.1-0.7-0.2c-1.9-0.4-8.1-5.1-8-5.7c0.1-0.6-0.5-2.3-0.5-2.3
			s-0.2,0.1-0.6,0.4c0,0.4-0.1,0.7-0.6,0.9c-2.4,0.9,10.5,10.5,10.4,7.2C48.7,59.5,48.7,59.4,48.7,59.3z"/>
		<path id="XMLID_35_" class="st6" d="M42.8,58.5c-2.6-1.8-5.1-4.2-5.4-5.3c-0.2-0.6,0.1-1.2,0.7-1.4c0.1,0,0.2-0.1,0.2-0.1
			c0-0.2-0.2-0.7-0.9-1.6c-2.4-1.8-3.8-4.9-3.9-8.7C33.4,35,37,28,42.6,23.5c7.9-6.2,13.5-6.1,18.1-6c1.4,0,2.8,0,4.1-0.1
			c0,0,0,0,0.1,0c2.2-0.3,4-1.3,5.7-3.2c2.1-2.2,1.9-3.2,1.8-4.1c-0.2-1.1-0.1-2,1.9-3.2c1.7-1.1,1.6-1.3,1.3-2
			c-0.3-0.6-0.7-1.6-0.1-3c0.3-0.7,0.6-1.2,1-1.6c0.4-0.4,1-0.4,1.4-0.1c0.4,0.3,0.6,0.9,0.3,1.4c-0.1,0.1-0.1,0.2-0.1,0.4
			c0,0.4,0.1,1,0.3,1.6C78.7,5,79.2,7,77.6,8.9c-0.4,0.5-0.6,0.7-0.6,0.8c0.3,0.6,0.2,1.2-0.8,2.9c-0.9,1.5-0.8,1.7-0.6,1.9
			c0.4,0.6,0.7,1.2,0,2.7c-1,2.3-1.3,4.5-1.1,7l0,0.1c0.2,1.9,0.6,3.8,1.1,5.7c1.4,5.6,2.9,11.9-2.5,20.8c-3.8,6.2-8,9.9-12.4,10.9
			c-3.5,0.8-7.1,0-10.9-2.5c-0.3-0.1-0.4,0-0.5,0c0,0-0.1,0.1,0,0.3c0,0.7-0.4,1.3-1.1,1.4C47.2,61.1,45,60,42.8,58.5z M38.8,52.9
			c0.3,0.8,2.5,2.9,5.5,4.9c2.3,1.5,3.4,1.8,3.8,1.8c0-0.8,0.3-1.2,0.5-1.4c0.4-0.3,1-0.4,1.7-0.3l0.1,0l0.1,0.1
			c3.5,2.3,6.8,3.1,10,2.4c4.1-0.9,7.9-4.4,11.5-10.3c5.1-8.4,3.7-14.2,2.3-19.7c-0.5-2-1-3.9-1.1-5.9l0-0.1
			c-0.2-2.8,0.2-5.2,1.2-7.6c0.4-0.9,0.3-1.1,0.1-1.4c-0.5-0.8-0.6-1.5,0.6-3.4c0.7-1.1,0.8-1.5,0.8-1.6c-0.4-0.7-0.1-1.3,0.8-2.3
			c1.2-1.4,0.8-2.7,0.5-4c-0.2-0.6-0.3-1.2-0.3-1.8c0,0.1-0.1,0.1-0.1,0.2c-0.4,0.9-0.2,1.4,0.1,2c0.6,1.3,0.4,2.2-1.8,3.7
			c-1.4,0.9-1.3,1.2-1.2,1.9c0.2,1.3,0.2,2.7-2.1,5.2c-1.9,2.1-3.9,3.2-6.5,3.6l-0.1,0c-1.4,0.2-2.8,0.2-4.3,0.1
			c-4.6-0.1-9.7-0.2-17.2,5.7c-5.3,4.2-8.7,10.8-8.6,16.8c0.1,3.4,1.3,6.1,3.4,7.7l0.1,0.1c0.7,0.8,1.5,1.9,1.2,2.8
			C39.5,52.3,39.3,52.7,38.8,52.9z"/>
		<path id="XMLID_34_" class="st7" d="M54.8,23.2c0,0,4.3-1.9,7.3-0.6c3,1.3,6.3,3.3,4.6,6.8s-2.5,2.8-4.2,0.8c-1.8-2-2.3-4-4.5-4.2
			C55.8,26,50.8,24.6,54.8,23.2z"/>
	</g>
	<g id="XMLID_2_">
		<path id="XMLID_32_" class="st0" d="M42.4,57.2C42.4,57.2,42.4,57.2,42.4,57.2c-0.1,0.1-0.2,0.2-0.3,0.3c-0.3,0.3-0.7,0.7-1.1,1
			c-0.5,0.6-1.4,0.9-1,2.3c0.3,0.9-6.1,7.2-8.6,6.7c-0.4-0.1-2.2-0.1-2.7,0c-7,4.6-17.8,1.2-22.4-8.2c-4-8.1-4-13.3-2.8-18.4
			c0.4-1.5,0.8-3,1.1-4.5c0.2-1.1,0.4-2.1,0.5-3.2c0,0,0,0,0,0c0,0,0,0,0,0c0.2-2.3,0-4.7-1.2-7.4c-0.2-0.4-0.3-0.7-0.3-0.9
			c-0.3-1.5,0.2-5.2-1.8-7.6c-2-2.4-0.9-8.4,0.2-7.6c0.4,0.3-1.4,4.3,2.3,6.6c3.7,2.3-0.8,2.5,3.5,7.2c2,2.2,4,3.1,6.1,3.4
			c0.1,0,0.1,0,0.1,0c5.4,0.8,11.1-1.2,21.8,6C47.9,41.1,45.3,53.8,42.4,57.2z"/>
		<path id="XMLID_31_" class="st2" d="M42.1,57.5c-0.3,0.3-0.7,0.7-1.1,1c-0.5,0.6-1.4,0.9-1,2.3c0.3,0.9-6.1,7.2-8.6,6.7
			c-0.4-0.1-2.2-0.1-2.7,0c-7,4.6-17.8,1.2-22.4-8.2c-4-8.1-4-13.3-2.8-18.4c0.4-1.5,0.8-3,1.1-4.5c0,0,8.7,40,35.5,22.4
			C40.8,58.3,41.4,57.9,42.1,57.5z"/>
		<path id="XMLID_30_" class="st8" d="M42,42.3c0.8,2.1,1,4.1,1,6c0,2.9-0.8,5.4-1.8,6.9c-0.2,0.3-0.3,0.5-0.5,0.7c0,0,0,0,0,0
			c-0.2,0.2-0.3,0.4-0.5,0.5c0,0,0,0,0,0c-0.1,0.1-0.2,0.2-0.4,0.3c0,0,0,0,0,0c-0.3,0.3-0.6,0.6-0.7,0.9c-0.1,0.2-0.3,0.5-0.4,0.8
			c-0.2,0.3-0.4,0.8-0.7,1.3c-0.9,1.6-5.4,5.5-6.5,5.2c-0.2,0-0.4,0-0.6,0c-0.3,0-0.6,0.1-0.9,0.1c-1.2,0.2-2.5,0.7-2.5,0.7l0,0
			c-0.2,0.1-0.4,0.2-0.6,0.3c-0.3,0.1-0.5,0.2-0.8,0.3c-0.6,0.2-1.2,0.4-1.9,0.5c-6.1,1.2-13.2-2.2-16.7-9.2
			c-3.7-7.5-3.7-12.3-2.6-17c0,0,0,0,0,0c0.6-2.4,1.3-4.7,1.5-7.1c0,0,0,0,0,0c0,0,0,0,0,0c0.1-0.7,0.1-1.3,0.1-1.9
			c0.1-4.1-0.9-5.6-0.1-6.2c1.3-1,4,2,8.2,2.2c0.1,0,0.1,0,0.1,0c5,0.7,10.3-1.1,20.2,5.6C38.6,36.1,40.9,39.2,42,42.3z"/>
		<path id="XMLID_29_" class="st9" d="M42,42.3c0.8,2.1,1,4.1,1,6c0,2.9-0.8,5.4-1.8,6.9c-0.2,0.3-0.3,0.5-0.5,0.7c0,0,0,0,0,0
			c-0.2,0.2-0.3,0.4-0.5,0.5c0,0,0,0,0,0c-0.1,0.1-0.2,0.2-0.4,0.3c0,0,0,0,0,0c-0.3,0.3-0.6,0.6-0.7,0.9c-0.1,0.2-0.3,0.5-0.4,0.8
			c-0.2,0.3-0.4,0.8-0.7,1.3c-0.9,1.6-5.4,5.5-6.5,5.2c-0.2,0-0.4,0-0.6,0c-0.3,0-0.6,0.1-0.9,0.1c-1.2,0.2-2.5,0.7-2.5,0.7l0,0
			c-0.2,0.1-0.4,0.2-0.6,0.3c-0.3,0.1-0.5,0.2-0.8,0.3c-0.6,0.2-1.2,0.4-1.9,0.5c-6.1,1.2-13.2-2.2-16.7-9.2
			c-3.7-7.5-3.7-12.3-2.6-17c0,0,0,0,0,0c0.6-2.4,1.3-4.7,1.5-7.1c0,0,0,0,0,0c0,0,0,0,0,0c0.1-0.7,0.1-1.3,0.1-1.9
			c0,0,6.4,21.3,18.8,20.5C37.5,51.4,42,42.3,42,42.3z"/>
		<path id="XMLID_28_" class="st10" d="M43.1,48.3c0,2.9-0.8,5.4-1.8,6.9c-0.2,0.3-0.3,0.5-0.5,0.7c0,0,0,0,0,0
			c-0.2,0.2-0.3,0.4-0.5,0.5c0,0,0,0,0,0c-0.1,0.1-0.2,0.2-0.4,0.3c0,0,0,0,0,0c-0.3,0.3-0.6,0.6-0.7,0.9c-0.1,0.2-0.3,0.5-0.4,0.8
			c-0.2,0.3-0.4,0.8-0.7,1.3c-0.9,1.6-5.4,5.5-6.5,5.2c-0.2,0-0.4,0-0.6,0c-0.3,0-0.6,0.1-0.9,0.1c-1.2,0.2-2.5,0.7-2.5,0.7l0,0
			c-0.2,0.1-0.4,0.2-0.6,0.3c-0.3,0.1-0.5,0.2-0.8,0.3c-0.6,0.2-1.2,0.4-1.9,0.5c-6.1,1.2-13.2-2.2-16.7-9.2
			c-3.7-7.5-3.7-12.3-2.6-17c0,0,0.5-1.9,0.5-1.9S14.9,75.9,43.1,48.3C43,48.4,43,48.3,43.1,48.3z"/>
		<g id="XMLID_9_">
			<path id="XMLID_27_" class="st11" d="M41.9,49c0,2.8-0.4,5.1-0.6,6.2c-0.2,0.3-0.3,0.5-0.5,0.7c0,0,0,0,0,0
				c-0.2,0.2-0.3,0.4-0.5,0.5C40.7,54.6,43,43.3,37,37c-7.1-7.5-17.4-7.6-21.9-7.6c-0.7,0-1.3,0-1.7,0c-1.8-0.1-3.6-1.1-4.9-1.8
				c-0.5-0.3-1-0.6-1.3-0.6c0,0.3,0.2,1,0.4,1.6c0.5,1.7,1.2,4.2,1,6.5c-0.1,1-0.5,2-1,3.2c-1.3,3.2-3.2,7.6-0.4,15.8
				c3.9,11.7,15,12.4,18.6,12.6c0,0,0.1,0,0.1,0c-0.6,0.2-1.2,0.4-1.9,0.5c-2-0.2-4.8-0.7-7.7-1.9c-4.8-2.1-8.1-5.8-9.8-11
				c-2.8-8.5-0.9-13,0.4-16.3c0.5-1.1,0.9-2.1,1-3c0.2-2.1-0.5-4.6-0.9-6.2c-0.4-1.5-0.6-2.1-0.2-2.4c0.4-0.3,1,0,2.1,0.6
				c1.2,0.7,2.9,1.6,4.6,1.8c0.4,0,1,0,1.7,0c4.5,0,15.1,0.1,22.3,7.8C41,40.3,41.8,45.4,41.9,49z"/>
			<path id="XMLID_18_" class="st11" d="M37.6,40.9c-2.5-4.2-6.3-7.3-10.6-8.6c-4.4-1.4-7.3-1.2-9.6-1c-1.9,0.1-3.3,0.2-4.9-0.7
				c-1.8-1-2.3-1.3-2.7-1c-0.3,0.3-0.2,0.7,0.1,1.5c0.2,0.6,0.4,1.4,0.6,2.5c0.2,1.2-0.4,2.5-1.1,4.1C8,40.7,6.1,44.8,8.2,52
				C11.9,64.2,24,66,26.8,66.2c0.2-0.1,0.4-0.2,0.6-0.3l0,0c0,0,1.3-0.5,2.5-0.7c-0.2-0.4-0.4-1.5,0.3-2.7c0.5-0.8,0.6-1.4,0.7-1.8
				c0.1-0.5,0.2-0.8,0.8-1.4c0.6-0.7,1.3-0.7,1.9-0.8c0.5-0.1,1-0.1,1.5-0.5c0.7-0.6,2.9-0.7,3.9-0.3c0.2-0.3,0.4-0.6,0.7-0.9
				c0,0,0,0,0,0c0.1-0.1,0.2-0.2,0.4-0.3C41.2,50.8,40.2,45.4,37.6,40.9z M29,65c-1.6-0.4-13.8-3.6-16.4-10.5
				c-3.1-8.2-2.1-12.6-1.2-14.6c0.1-0.2,0.2-0.3,0.2-0.3c0.4,0.2,1.3,2.7,2,4.8c0.7,2.2,1.7,4.9,2.8,7.4c3,6.6,8.6,10.6,12.7,11.5
				C28.9,64.1,29,64.7,29,65z M31.3,58.8c-0.1,0.1-0.2,0.2-0.2,0.2C28,55,23.5,49,22.1,46.7c2.2,2.1,7.9,8.6,10,11.6
				C31.8,58.4,31.5,58.6,31.3,58.8z M33.6,57.9c-0.3,0-0.6,0.1-0.9,0.1c-1.1-1.5-3.6-4.5-6.1-7.4c-4.8-5.4-5.2-5.3-5.4-5.2
				c-0.2,0.1-0.3,0.2-0.3,0.4c0.1,1.1,7.3,10.7,9.7,13.9c-0.2,0.3-0.2,0.5-0.3,0.8C20.1,47,14.6,38.1,15.2,37.3
				c1.3-0.2,10.4,10.2,18.6,20.5C33.8,57.8,33.7,57.8,33.6,57.9z M35.6,57.1c-0.3,0.1-0.6,0.2-0.8,0.4c-0.1,0-0.1,0.1-0.2,0.1
				c-2.3-2.9-16.5-20.7-19.2-21c-0.3,0-0.4,0.1-0.5,0.1c-0.5,0.4-1.4,1.2,6.9,13.1c3.7,5.3,7.6,10.4,8.3,11.4
				c-0.1,0.2-0.2,0.4-0.3,0.7c-2.3-0.6-7.6-2.9-11.5-12.5c-4.7-11.8-5.1-14.4-4.9-14.9c0.8,0.2,4.5,3,7.3,5.1c2.2,1.7,4.3,3.2,5.5,4
				c1.3,0.8,3.6,2.9,5.8,5.8C34.1,52.3,35.4,55,35.6,57.1z M38.6,57c-0.4-0.1-0.8-0.1-1.2-0.1c0.1-1.5,0.1-7.4-5.4-12
				c-3.7-3.1-7.6-5.9-10.5-7.8c-1.9-1.3-3.3-2.3-3.7-2.7c0-0.1-0.1-0.1-0.1-0.2c0.3-0.4,2.5-0.8,5.6,0c4.4,1.2,13.1,5.7,14.6,14.7
				C37.9,49,38.8,54.1,38.6,57z M39.5,57.2c-0.1,0-0.1-0.1-0.2-0.1c0.2-3-0.7-8.1-0.7-8.3c-1.5-9.3-10.5-14.1-15-15.3
				c-3-0.8-5.8-0.7-6.4,0.2c-0.1,0.1-0.3,0.5,0.2,1c0.4,0.5,1.8,1.4,3.8,2.8c2.9,2,6.8,4.7,10.5,7.8c5.3,4.5,5.2,10.2,5.1,11.5
				c-0.2,0-0.3,0-0.5,0.1c-0.5-5.3-6.9-12.3-9.7-14c-1.2-0.7-3.2-2.3-5.4-3.9c-6.2-4.7-7.5-5.5-8-5.1c-0.7,0.5-0.9,2.2,4.6,15.8
				c3.9,9.6,9.2,12.2,11.7,12.8c-0.1,0.1-0.1,0.2-0.1,0.3c-4-0.9-9.4-4.7-12.3-11.2c-1.1-2.4-2-5.2-2.7-7.3
				c-1.2-3.6-1.8-5.3-2.6-5.3c-0.5,0-0.7,0.5-0.8,0.7c-0.9,2-2,6.7,1.2,15.1c1.2,3.2,4.5,6,9.7,8.4c2.8,1.3,5.5,2.1,6.7,2.4
				C26,65.4,12.5,63.9,8.9,51.8C6.8,44.9,8.7,40.9,10,38c0.8-1.6,1.4-3,1.2-4.5c-0.2-1.1-0.4-2-0.6-2.6c-0.1-0.3-0.2-0.5-0.2-0.7
				c0.4,0.1,1.1,0.6,1.8,1c1.8,1,3.3,0.9,5.3,0.7c2.2-0.2,5-0.4,9.3,1C37.2,36.2,41,47.9,39.5,57.2z"/>
			<path id="XMLID_14_" class="st11" d="M19.1,57.8c-0.4-0.6-0.9-1.2-1.4-2c-2.5-3.7-3.9-6.6-5-10.6c-0.5-2-0.8-2.3-1.2-2.2
				c-0.3,0.1-0.8,0.2,0.5,7.2c1.2,6.4,6.3,9.5,6.5,9.6l0,0c0.8,0.4,1.2,0.6,1.5,0.5c0.1,0,0.1-0.1,0.2-0.1
				C20.6,59.9,20.3,59.5,19.1,57.8z M18.9,59.3c-0.2-0.1-5.1-3.2-6.2-9.2c-0.5-2.5-0.7-4.2-0.8-5.3c0.1,0.2,0.1,0.4,0.2,0.6
				c1.1,4.1,2.5,7,5.1,10.8c0.5,0.8,1,1.5,1.4,2c0.4,0.5,0.7,1,0.9,1.4C19.3,59.5,19.2,59.4,18.9,59.3z"/>
			<path id="XMLID_10_" class="st11" d="M34.5,43.2c-2.1-3.7-6-6.6-10.2-7.6c-2.1-0.5-2.6-0.4-2.8,0c-0.2,0.5,0.1,1,5.5,4.2
				c5.9,3.5,8.4,7.8,8.4,7.8l0,0c0.2,0.3,0.6,0.8,0.9,0.7c0,0,0.1,0,0.1,0C36.6,48.1,37.2,47.8,34.5,43.2z M27.4,39.2
				c-3.5-2-4.7-2.9-5.1-3.3c0.3,0,0.8,0.1,1.8,0.3c4.1,1,7.7,3.7,9.8,7.3c0.6,1.1,1.1,2,1.4,2.7C34.2,44.7,31.8,41.7,27.4,39.2z"/>
		</g>
		<path id="XMLID_8_" class="st7" d="M38.7,58.6c-0.2,0.3-0.4,0.7-0.7,1.2c0,0,0,0,0,0.1c-0.8,1.4-4.1,4.3-5.8,5.1
			c-0.3,0.1-0.6,0.2-0.7,0.1c-0.2,0-0.4,0-0.6,0c-0.1-0.4-0.2-1,0.3-1.8c0.7-1.1,0.6-2.4,1.3-3c0.6-0.6,2.1-1.1,2.9-1.1
			C36.1,59.2,38,57.9,38.7,58.6z"/>
		<path id="XMLID_7_" class="st5" d="M38,59.9C38,59.9,38,59.9,38,59.9c-0.8,1.4-4.2,4.4-5.8,5.1c0.1-0.2,0.2-0.4,0.3-0.6
			c0.7-1.1,0.6-2.4,1.3-3c0.6-0.6,2.1-1.1,2.9-1.1C37,60.3,37.5,60.1,38,59.9z"/>
		<path id="XMLID_4_" class="st6" d="M33,67.9c-0.6,0.2-1.2,0.3-1.7,0.2c-0.3-0.1-1.8-0.1-2.3,0c-3.3,2.1-7.3,2.6-11.5,1.5
			c-5-1.4-9.3-5-11.8-10c-4.4-8.8-4-14.2-2.9-18.8c0.1-0.6,0.3-1.2,0.4-1.8c0.2-0.9,0.4-1.8,0.6-2.7c0.2-1,0.4-1.9,0.5-2.7l0.1-0.9
			c0.1-2.4-0.2-4.5-1.1-6.6C3.1,25.7,3,25.3,2.9,25c-0.1-0.4-0.1-0.9-0.1-1.6c-0.1-1.7-0.2-4.1-1.5-5.7c-1.9-2.3-1.4-7.2-0.3-8.4
			c0.4-0.4,1-0.5,1.4-0.2c0.4,0.3,0.3,0.8,0.3,1.4c-0.2,1.3-0.4,3.7,2,5.2c2,1.2,2,2.1,1.9,3.2c-0.1,0.9-0.3,1.8,1.8,4.1
			c1.7,1.9,3.5,2.8,5.7,3.2c0.1,0,0.1,0,0.1,0c1.2,0.2,2.5,0.2,3.8,0.2c4.4,0.1,9.9,0.2,18.3,5.9c6.6,4.4,8.6,10,9.1,13.8
			c0.7,4.9-0.7,9.4-2.5,11.5l-0.1,0.1c-0.1,0.1-0.1,0.1-0.2,0.2c-0.3,0.4-0.7,0.7-1.1,1c-0.1,0.1-0.3,0.3-0.4,0.4
			c-0.4,0.4-0.6,0.5-0.4,1.2c0.1,0.4,0,1-1.3,2.5C38.3,64.3,35.4,67,33,67.9z M28.5,66.8l0.1,0c0.6-0.1,2.5-0.1,2.9,0
			c1.9,0.3,7.3-4.7,7.8-6c-0.4-1.4,0.4-2.1,0.9-2.5c0.1-0.1,0.2-0.2,0.3-0.3l0.1-0.1c0.4-0.3,0.7-0.6,1-0.9c0.1-0.1,0.1-0.1,0.2-0.2
			l0.1-0.1c1.2-1.5,2.8-5.4,2.1-10.3c-0.5-3.6-2.4-8.7-8.5-12.9c-8.1-5.5-13.1-5.6-17.6-5.7c-1.4,0-2.6-0.1-3.9-0.2l-0.1,0
			c-2.6-0.4-4.6-1.5-6.5-3.6c-2.3-2.5-2.3-3.9-2.1-5.2c0.1-0.7,0.2-1-1.2-1.9c-1.7-1.1-2.4-2.4-2.6-3.7c0,1.3,0.2,2.8,1,3.7
			c1.7,2,1.8,4.7,1.9,6.5c0,0.6,0,1,0.1,1.4c0,0.2,0.1,0.5,0.2,0.8c1,2.3,1.4,4.7,1.3,7.2l-0.1,0.9c-0.1,0.9-0.3,1.8-0.5,2.9
			c-0.2,0.9-0.4,1.8-0.6,2.7c-0.1,0.6-0.3,1.2-0.4,1.8C3,46.1,3,51.1,6.9,59c2.3,4.6,6.3,8,11,9.3c3.8,1,7.5,0.5,10.5-1.4L28.5,66.8
			z"/>
		<path id="XMLID_3_" class="st12" d="M13.6,30.2c0,0,12.2-1.2,19.4,4.5c7.2,5.7-5.2,15.1-12,11.1C14.1,41.8,4,30.4,13.6,30.2z"/>
	</g>
</g>
</svg>
