<?xml version="1.0" encoding="utf-8"?>
<!-- Generator: Adobe Illustrator 25.2.3, SVG Export Plug-In . SVG Version: 6.00 Build 0)  -->
<svg version="1.1" id="Capa_1" xmlns="http://www.w3.org/2000/svg" xmlns:xlink="http://www.w3.org/1999/xlink" x="0px" y="0px"
	 width="101.7px" height="94.8px" viewBox="0 0 101.7 94.8" style="enable-background:new 0 0 101.7 94.8;" xml:space="preserve">
<style type="text/css">
	.st0{fill:#89AF32;}
	.st1{fill:#7B992A;}
	.st2{opacity:0.51;}
	.st3{fill:#55761E;}
	.st4{fill:#5B7E37;}
	.st5{fill:#5C8023;}
	.st6{fill:#B37E52;}
	.st7{opacity:0.27;}
	.st8{fill:#D4F669;}
	.st9{fill:#A26B3E;}
	.st10{fill:#687E22;}
	.st11{fill:#60711E;}
	.st12{fill:none;}
	.st13{fill:#7C1525;}
	.st14{opacity:0.48;}
	.st15{fill:#BD3456;}
	.st16{opacity:0.58;}
	.st17{fill:#870C26;}
	.st18{opacity:0.35;}
	.st19{fill:#C94C5E;}
	.st20{opacity:0.59;fill:#E8A3B2;}
	.st21{fill:#FBF2EA;}
</style>
<g>
	<path class="st0" d="M56.6,15.9c0,0-4.7,9.3-10.8,14.2c0,0-8.7,6.9-12.4,10.8c0,0-4.9,4.9-4.3,9.4c0.1,0.6,0.3,1.3,0.6,1.9
		l-3.2,1.4L26.5,53c0,0-0.4-1-0.4-2.7c0-2.5,1-6.3,5.8-10.1c0,0,10.5-9.6,11.7-10.4s7.8-7.3,10.1-14H56.6z"/>
</g>
<g>
	<path class="st1" d="M72.8,48.1c0,0-3.8,2.7-3.8,2.7c-0.1-1.6-0.9-2.9-1.6-3.9c-0.8-1.1-1.7-1.7-1.7-1.7c-3.7-2.8-6.3-6.4-6.3-6.4
		c-8.1-10-5.1-22.3-5.1-22.3l2.4-0.6c-1.6,4.1,0,13,0,13c0.9,3.3,2.5,6.3,4.7,8.9c0.7,0.9,1.5,1.7,2.3,2.4c1.8,1.6,3.9,2.7,5.7,4.3
		c0,0,0,0,0.1,0.1C69.9,45.1,72.8,48.1,72.8,48.1z"/>
</g>
<g>
	<g>
		<defs>
			<path id="SVGID_3_" d="M49.8,14c-3.9,13.5-17.6,7.4-17.6,7.4l1.7-1c-0.3,0-0.6,0-0.9-0.1c-4.1-0.5-6-3.6-6-3.6h1.8
				c-0.7,0-1.5-0.6-2.3-1.3v0c-0.6-0.5-1.2-1.1-1.5-1.5c-1-1.1-1.9-2.3-2.7-3.5c-1.4-2.3-2.1-4.3-4.4-6C22.2,2.5,26.2-0.2,31,0
				c1.6,0.1,3.2,0.4,4.7,1c0.2,0.1,1.8,0.6,1.8,0.9V0.5c2.5,0.3,4,1.3,4.8,2.1c0.4,0.4,0.6,0.8,0.7,0.9c-0.2-0.4-0.1-0.9,0.1-1.3
				c0.5,0.4,1,0.8,1.6,1.1c0.6,0.4,1.3,0.8,1.9,1.4c1.3,1.2,2.6,2.8,3,4.7C49.8,10.7,50.2,12.7,49.8,14z"/>
		</defs>
		<clipPath id="SVGID_1_">
			<use xlink:href="#SVGID_3_"  style="overflow:visible;"/>
		</clipPath>
		<g style="clip-path:url(#SVGID_1_);">
			
				<image style="overflow:visible;" width="66" height="34" xlink:href="9BA643E8.png"  transform="matrix(1 0 0 1 3.9811 -5.3768)">
			</image>
		</g>
	</g>
</g>
<g class="st2">
	<path class="st3" d="M49.8,14c-3.9,13.5-17.6,7.4-17.6,7.4l1.7-1c-0.3,0-0.6,0-0.9-0.1c2.7,0.4,5.6,0,8.1-1.2c2.1-1,4-2.7,5.1-4.8
		c1.2-2.2,1-4.9,0.2-7.3C46,6,45.7,4,44.7,3.3c0.6,0.4,1.3,0.8,1.9,1.4c1.3,1.2,2.6,2.8,3,4.7C49.8,10.7,50.2,12.7,49.8,14z"/>
</g>
<g>
	<path class="st4" d="M49.9,13.6c0,0,2.7,0.1,4.9-1.4l-0.4,1.9c0,0-2.6,0.8-4.8,0.5L49.9,13.6z"/>
</g>
<g>
	<path class="st5" d="M19.1,4.6c0,0,9-0.1,18,4.9c0,0,7.6,4.3,12.7,4.1l-0.2,1c0,0-6.1,0.3-12.5-4.2C37.1,10.4,28.7,5.8,19.1,4.6z"
		/>
</g>
<g>
	<path class="st5" d="M43.5,3.7c0,0,2.5,4.3,2.6,9.6L45.1,13C45.1,13,45.5,9.6,43.5,3.7z"/>
</g>
<g>
	<path class="st5" d="M40,11c0,0-0.6-5.5-3.6-9.2c0,0,2.4,5,2.8,8.8L40,11z"/>
</g>
<g>
	<path class="st5" d="M27.3,1.2c0,0,3.4,1.7,5,6.1l-1.1-0.4C31.2,6.9,29.9,3.5,27.3,1.2z"/>
</g>
<g>
	<path class="st5" d="M32.3,8.2c0,0-3.1,2.6-8.3,1.6c0,0,4.4,0,7.5-1.9L32.3,8.2z"/>
</g>
<g>
	<path class="st5" d="M39.1,11.6c0,0-2.7,4.7-9.9,4.3c0,0,6.6-0.5,9.1-4.9L39.1,11.6z"/>
</g>
<g>
	<path class="st5" d="M45.2,13.5c0,0-3,6.1-11.6,6.3c0,0,7.9-1.8,10.5-6.5L45.2,13.5z"/>
</g>
<g>
	<path class="st6" d="M60.3,7.3c-0.1,1-0.6,1.7-0.6,1.7c-0.8,3.5-2.5,6.5-3,7.4c-0.1,0.2-0.3,0.3-0.4,0.4c-1.5,0.8-2.3,0.5-2.7,0.1
		c-0.1-0.1-0.1-0.1-0.2-0.2c-0.1-0.1-0.1-0.2-0.1-0.4c0.5-3.4,2.6-8.1,2.6-8.1c0.1-0.4,0.1-0.9,0.1-1.3c0,0,0-0.1,0-0.1
		c0-0.4,0.2-0.7,0.6-0.8c1.6-0.3,2.6,0.1,3.2,0.4C60.2,6.6,60.4,6.9,60.3,7.3z"/>
</g>
<g class="st7">
	<path class="st8" d="M42.3,2.6c-0.5-0.2-1-0.3-1.5-0.4c-0.5-0.1-1.9-0.8-2.4-0.5c-0.9,0.6,0.2,2.7,0.1,3.4
		c-3.1-1.3-6.3-1.9-9.7-1.8c-1.7,0.1-3.6,0.6-5.1,1.4c-1.4,0.7-0.9,2.7-0.5,4.1c0.7,2.3,2.9,4.1,3.2,6.5c-0.6-0.5-1.2-1.1-1.5-1.5
		c-1-1.1-1.9-2.3-2.7-3.5c-1.4-2.3-2.1-4.3-4.4-6C22.2,2.5,26.2-0.2,31,0c1.6,0.1,3.2,0.4,4.7,1c0.2,0.1,1.8,0.6,1.8,0.9V0.5
		C40,0.8,41.5,1.8,42.3,2.6z"/>
</g>
<g>
	<path class="st9" d="M60.3,7.3c-0.1,1-0.6,1.7-0.6,1.7c-0.8,3.5-2.5,6.5-3,7.4c-0.1,0.2-0.3,0.3-0.4,0.4c-1.5,0.8-2.3,0.5-2.7,0.1
		c-0.1-0.1-0.1-0.1-0.2-0.2c0.5,0,1.1,0.1,1.5-0.1c0.5-0.3,0.6-0.9,0.9-1.3c0.4-0.8,0.7-1.8,1-2.7c0.3-0.9,0.8-1.7,1.1-2.6
		c0.1-0.3,0.6-1.1,0.3-1.4c-0.3-0.4-1.2-0.2-1.6-0.6c0.3-0.7,1.8-0.1,2.4-0.1c-0.2-1.1-2.2-1.1-3.1-0.9c0,0,0-0.1,0-0.1
		c0-0.4,0.2-0.7,0.6-0.8c1.6-0.3,2.6,0.1,3.2,0.4C60.2,6.6,60.4,6.9,60.3,7.3z"/>
</g>
<g>
	<path class="st10" d="M29.7,52.1l-3.2,1.4L26.5,53c0,0-0.4-1-0.4-2.7c0.9,0.4,2.1,0.4,2.8,0.1c0.1,0,0.2-0.1,0.3-0.2
		C29.2,50.9,29.4,51.5,29.7,52.1z"/>
</g>
<g>
	<path class="st11" d="M72.8,48.1c0,0-3.8,2.7-3.8,2.7c-0.1-1.6-0.9-2.9-1.6-3.9c0.4-0.1,0.9-0.4,1.2-0.6c0.5-0.4,0.8-1,0.9-1.7
		C69.9,45.1,72.8,48.1,72.8,48.1z"/>
</g>
<image style="overflow:visible;" width="59" height="53" xlink:href="9BA643E9.png"  transform="matrix(1 0 0 1 42.9811 35.6232)">
</image>
<path class="st12" d="M66,48.9c0,0,3.5,0.5,7.4-2c0,0,6.5-4.5,13.1,1.6c0,0,6.1,6.5,3.4,16.5c0,0-3.8,13-15.3,15.2
	c0,0-13.4,2.6-20.9-9.7c0,0-8.3-12.4,2.5-20.9c0,0,2.8-2.4,7-1.1C63.1,48.5,65.2,49,66,48.9z"/>
<g>
	<path class="st13" d="M84.9,73.7c-0.3,0.4-0.7,0.8-1,1.1c-3.4,3.5-7.1,5.5-12.2,5.6c-3.2,0.1-6.2-0.7-9-2
		c6.2,1.7,10.6-0.1,13.4-2.1c2.5-1.8,3.7-3.8,3.7-3.8c5.3-6.5,2.9-15.5,2.9-15.5c-0.7-2.4-1.7-4.1-2.9-5.3
		c-3.9-4.2-9.5-3.2-10.1-3.1c2.5-0.6,4.5-2.6,7.1-3.1c1.9-0.4,4-0.2,5.8,0.5c0.2,0.1,0.3,0.1,0.5,0.2c0.6,0.2,1.2,0.6,1.7,0.9
		c0.1,0.1,0.3,0.2,0.4,0.3c0.4,0.3,0.8,0.7,1.2,1.1c0.1,0.1,0.2,0.2,0.3,0.3c0.1,0.1,0.2,0.2,0.2,0.3c0.1,0.1,0.2,0.3,0.3,0.4
		c0.3,0.4,0.6,0.8,0.8,1.2c0.1,0.1,0.2,0.3,0.2,0.4c0.1,0.2,0.2,0.3,0.3,0.5c0.1,0.3,0.3,0.6,0.4,0.8c0.1,0.3,0.3,0.6,0.4,0.9
		c0.1,0.3,0.2,0.6,0.3,0.9c0.1,0.3,0.2,0.6,0.3,1c0.2,0.6,0.3,1.2,0.4,1.8c0.1,0.3,0.1,0.6,0.1,1c0,0.3,0.1,0.6,0.1,1
		C90.9,64.6,88.5,69.6,84.9,73.7z"/>
</g>
<g class="st14">
	<path class="st15" d="M83.1,46.2c-0.6,6.9-11.1,8.9-11.1,8.9c-11.7,1.5-15.1-3.5-15.9-5.5c0.3-0.2,0.7-0.4,1-0.6
		c1-0.5,2.1-0.8,3.3-0.9c0.8,0,1.5,0.1,2.2,0.3l0,0c0.4,0.1,0.7,0.2,1.1,0.2c0.7,0.2,1.5,0.3,2.2,0.3c1.2,0,2.5-0.1,3.7-0.3
		c0,0,0,0,0,0c2.6-0.6,4.5-2.6,7.1-3.1c1.9-0.4,4-0.2,5.8,0.5C82.8,46,83,46.1,83.1,46.2z"/>
</g>
<g class="st16">
	<path class="st17" d="M83.9,74.8c-3.4,3.5-7.1,5.5-12.2,5.6c-3.2,0.1-6.2-0.7-9-2h0c-2-1-3.9-2.2-5.6-3.7c0,0-2.5-2.4-4.3-6.1v0
		c-2.1-4.1-3.5-9.7,0-15.3c0,0,0.1,9.8,5.8,16.6c3.4,4.1,8.9,7.2,17.6,6.4C78.4,76.2,81,75.7,83.9,74.8z"/>
</g>
<g class="st18">
	<path class="st19" d="M67.2,63.2c-1.9,3.9-4.9,6.5-8.8,6.7c-1.5,0.1-3.2-0.2-4.9-0.9c-0.3-0.1-0.6-0.3-0.9-0.4v0
		c-2.1-4.1-3.5-9.7,0-15.3c0.4-0.7,1-1.4,1.6-2.2c0.2-0.3,0.5-0.5,0.7-0.7c0.2-0.2,0.4-0.3,0.6-0.5c0.2-0.1,0.3-0.3,0.5-0.4
		c0,0,0,0,0,0c0.1-0.1,0.3-0.2,0.4-0.3c0.2-0.1,0.3-0.2,0.5-0.3c1-0.5,2.1-0.8,3.3-0.9c0.7,0,1.5,0.1,2.2,0.3h0
		c3.7,1.1,5.4,3.8,5.9,6.9C68.9,57.9,68.4,60.8,67.2,63.2z"/>
</g>
<path class="st20" d="M56.8,64.5c-0.5,0.1-1.4-0.8-1.6-1.1c-0.1-0.2-0.3-0.5-0.5-0.8c-0.4-0.8-0.8-1.8-1-2.4
	c-0.3-1.1-0.3-2.3-0.2-3.4c0.2-2.8,1.4-6,5.2-6.8c0,0,5.6-0.7,3.2,4.2c-0.5,1-2,2-2.7,3c-1,1.4-1.6,3.1-1.9,4.8
	c-0.1,0.4-0.1,2.2-0.4,2.5C56.8,64.4,56.8,64.4,56.8,64.5z"/>
<path class="st21" d="M56.6,56.5c-0.7,0.2-1.3-0.3-1.3-1c0-1,0.3-2.2,0.9-3c0.8-1,2.6-2.2,4.1-1.4c0.8,0.5,0.3,1.7-0.2,2.2
	c-0.3,0.3-0.7,0.6-1.1,0.9c-0.3,0.3-0.5,0.6-0.7,0.9C57.9,55.7,57.3,56.3,56.6,56.5z"/>
<image style="overflow:visible;" width="61" height="59" xlink:href="9BA643EF.png"  transform="matrix(1 0 0 1 -1.892293e-02 36.6232)">
</image>
<path class="st12" d="M26.2,51.7c0,0,3.3,1.1,7.7-0.6c0,0,7.2-3.2,12.5,4.1c0,0,4.7,7.6,0.2,16.8c0,0-6.3,12-18,11.9
	c0,0-13.7,0-18.7-13.5c0,0-5.8-13.8,6.4-20c0,0,3.2-1.8,7,0.3C23.4,50.8,25.4,51.6,26.2,51.7z"/>
<g>
	<path class="st13" d="M40,79.7c-0.4,0.3-0.8,0.6-1.2,0.9c-4,2.7-8,4-13.1,3.1c-3.1-0.5-6-1.8-8.5-3.7c5.7,2.8,10.4,2,13.6,0.5
		c2.8-1.3,4.3-3,4.3-3c6.4-5.4,5.8-14.6,5.8-14.6c-0.2-2.4-0.9-4.3-1.8-5.8c-3-4.9-8.7-5-9.3-5c2.6-0.1,4.9-1.7,7.6-1.7
		c2,0,3.9,0.6,5.6,1.6c0.2,0.1,0.3,0.2,0.4,0.3c0.5,0.4,1,0.8,1.5,1.3c0.1,0.1,0.2,0.2,0.3,0.4c0.4,0.4,0.7,0.9,1,1.4
		c0.1,0.1,0.1,0.2,0.2,0.3c0.1,0.1,0.1,0.2,0.2,0.3c0.1,0.1,0.1,0.3,0.2,0.4c0.2,0.4,0.4,0.9,0.6,1.4c0,0.2,0.1,0.3,0.2,0.5
		c0.1,0.2,0.1,0.4,0.2,0.5c0.1,0.3,0.2,0.6,0.2,0.9c0.1,0.3,0.1,0.7,0.2,1c0.1,0.3,0.1,0.7,0.1,1c0,0.3,0.1,0.7,0.1,1
		c0,0.6,0,1.3,0,1.9c0,0.3,0,0.7-0.1,1c0,0.3-0.1,0.6-0.1,1C47.7,71.9,44.3,76.4,40,79.7z"/>
</g>
<g class="st14">
	<path class="st15" d="M43.6,52.3C41.7,59,31,58.9,31,58.9c-11.7-0.8-14.1-6.3-14.6-8.5c0.4-0.2,0.7-0.3,1.1-0.4
		c1.1-0.3,2.3-0.4,3.4-0.2c0.7,0.1,1.4,0.4,2.1,0.7l0,0c0.3,0.1,0.7,0.3,1,0.4c0.7,0.3,1.4,0.6,2.1,0.7c1.2,0.2,2.5,0.4,3.7,0.4
		c0,0,0,0,0,0c2.6-0.1,4.9-1.7,7.6-1.7c2,0,3.9,0.6,5.6,1.6C43.3,52.1,43.4,52.2,43.6,52.3z"/>
</g>
<g class="st16">
	<path class="st17" d="M38.7,80.6c-4,2.7-8,4-13.1,3.1c-3.1-0.5-6-1.8-8.5-3.7l0,0c-1.8-1.3-3.4-2.9-4.8-4.7c0,0-1.9-2.9-3.1-6.8
		l0,0c-1.3-4.4-1.5-10.2,3-15c0,0-1.8,9.6,2.5,17.4c2.6,4.7,7.3,8.8,16,9.7C33.1,80.8,35.8,80.9,38.7,80.6z"/>
</g>
<g class="st18">
	<path class="st19" d="M24.7,66c-2.6,3.5-6.1,5.4-9.9,4.9c-1.5-0.2-3.1-0.8-4.6-1.8c-0.3-0.2-0.6-0.4-0.8-0.6l0,0
		c-1.3-4.4-1.5-10.2,3-15c0.6-0.6,1.2-1.2,2-1.8c0.3-0.2,0.6-0.4,0.9-0.6c0.2-0.1,0.4-0.3,0.7-0.4c0.2-0.1,0.4-0.2,0.6-0.3
		c0,0,0,0,0,0c0.2-0.1,0.3-0.1,0.5-0.2c0.2-0.1,0.4-0.1,0.6-0.2c1.1-0.3,2.3-0.4,3.4-0.2c0.7,0.1,1.4,0.4,2.1,0.7l0,0
		c3.4,1.8,4.6,4.8,4.4,7.9C27.3,61.1,26.2,63.8,24.7,66z"/>
</g>
<path class="st20" d="M14.1,65.4c-0.5,0-1.2-1-1.4-1.4c-0.1-0.2-0.2-0.5-0.3-0.9c-0.3-0.9-0.5-2-0.5-2.6c-0.1-1.2,0.2-2.3,0.5-3.4
	c0.7-2.7,2.6-5.7,6.5-5.7c0,0,5.7,0.4,2.3,4.8c-0.7,0.9-2.4,1.6-3.3,2.4c-1.3,1.2-2.2,2.8-2.8,4.4c-0.2,0.4-0.5,2.2-0.9,2.4
	C14.2,65.4,14.2,65.4,14.1,65.4z"/>
<path class="st21" d="M15.1,57.7c-0.8,0.1-1.3-0.6-1.1-1.4c0.2-1,0.8-2.3,1.6-2.9c1-0.9,3.2-1.8,4.5-0.6c0.8,0.7,0,1.8-0.7,2.2
	c-0.4,0.3-0.9,0.4-1.3,0.7c-0.3,0.3-0.6,0.5-0.9,0.8C16.6,57.1,15.9,57.6,15.1,57.7z"/>
</svg>
