<?xml version="1.0" encoding="utf-8"?>
<!-- Generator: Adobe Illustrator 25.2.3, SVG Export Plug-In . SVG Version: 6.00 Build 0)  -->
<svg version="1.1" id="Capa_1" xmlns="http://www.w3.org/2000/svg" xmlns:xlink="http://www.w3.org/1999/xlink" x="0px" y="0px"
	 width="91.7px" height="65.3px" viewBox="0 0 91.7 65.3" style="enable-background:new 0 0 91.7 65.3;" xml:space="preserve">
<style type="text/css">
	.st0{fill:#E8DCC8;}
	.st1{fill:#DDCDB6;}
	.st2{fill:#D3C0A7;}
	.st3{fill:#7F634C;}
	.st4{fill:#F9EDDC;}
	.st5{fill:#9B4B16;}
	.st6{fill:#D28440;}
	.st7{fill:#CC7737;}
	.st8{fill:#C16527;}
	.st9{fill:#EDA570;}
	.st10{fill:#FFC299;}
	.st11{fill:#7F3811;}
	.st12{fill:#44250F;}
	.st13{fill:#B3825F;}
</style>
<g id="XMLID_52_">
	<g id="XMLID_2707_">
		<g id="XMLID_2705_">
			<g id="XMLID_2693_">
				<path id="XMLID_2697_" class="st0" d="M47.5,27c-2.2,8.7-3.8,24.7-4.5,31.7c-0.2,2.2-1.8,4.1-4,4.6C31.2,65,24,61.9,20.2,59.7
					c-1.7-0.9-2.7-2.7-2.6-4.7c0-1.2,0.1-2.8,0.1-4.5c0.1-2.9,0.2-6.3,0.3-9.9v0c0.2-6.4,0.4-13.3,0.5-18c0.1-3.1,2.9-5.5,6-5
					l17.1,2.6l1.4,0.2l0.2,0C46.3,21,48.3,24,47.5,27z"/>
				<path id="XMLID_2709_" class="st1" d="M47.5,27c-2.2,8.7-3.8,24.7-4.5,31.7c-0.2,2.2-1.8,4.1-4,4.6C31.2,65,24,61.9,20.2,59.7
					c-1.7-0.9-2.7-2.7-2.6-4.7c0-1.2,0.1-2.8,0.1-4.5c0.1-2.9,0.2-6.3,0.3-9.9c1.5,5.4,6.5,9.6,9,6.7c2.5-2.9,5,0.4,6.8-2.7
					c1.8-3.1,2.8-19.1,2.8-19.1s-0.1-4,5-5.2l1.4,0.2l0.2,0C46.3,21,48.3,24,47.5,27z"/>
				<path id="XMLID_2710_" class="st2" d="M47.5,27c-2.2,8.7-3.8,24.7-4.5,31.7c-0.2,2.2-1.8,4.1-4,4.6C31.2,65,24,61.9,20.2,59.7
					c-1.7-0.9-2.7-2.7-2.6-4.7c0-1.2,0.1-2.8,0.1-4.5c1,0.9,6.6,5.6,11.1,2.6c4.9-3.3,7.3,5,8.8-3.2c1.6-8.2,4.1-24.4,4.1-24.4
					c0.4-1.8,0.9-3.5,1.4-5l0.2,0C46.3,21,48.3,24,47.5,27z"/>
				<path id="XMLID_2699_" class="st3" d="M34.4,64.6c-6.2,0-11.6-2.5-14.7-4.2c-1.9-1.1-3.1-3.2-3-5.4l0-1.5c0-0.9,0.1-1.9,0.1-3
					l0.3-9.9c0.2-6.4,0.4-13.3,0.5-18c0-1.7,0.8-3.3,2.2-4.4c1.3-1.1,3.1-1.6,4.8-1.3l18.7,2.9c1.7,0.3,3.2,1.2,4.1,2.6
					c0.9,1.4,1.2,3.2,0.8,4.8l0,0c-2.1,8.3-3.7,23.4-4.5,31.6c-0.2,2.6-2.1,4.8-4.6,5.3C37.6,64.5,36,64.6,34.4,64.6z M23.8,18.4
					c-1,0-2,0.4-2.8,1c-1,0.8-1.5,2-1.6,3.2c-0.1,4.7-0.3,11.6-0.5,18l-0.3,9.9c0,1.1-0.1,2.1-0.1,3l0,1.5c-0.1,1.6,0.8,3.1,2.2,3.9
					c3.6,2,10.7,5.2,18.3,3.5c1.8-0.4,3.1-1.9,3.3-3.8c0.8-8.3,2.3-23.4,4.5-31.9l0,0c0.3-1.2,0.1-2.5-0.6-3.5c-0.7-1-1.7-1.7-3-1.9
					l-1.6-0.2l-17.1-2.6C24.2,18.5,24,18.4,23.8,18.4z"/>
				<path id="XMLID_2706_" class="st3" d="M41.5,35.9c-0.5,0.7-2.1,7.7-3.3,11.2c0,0,0.3-7.4,1.1-11.8L41.5,35.9z"/>
			</g>
			<path id="XMLID_2685_" class="st4" d="M21.5,28.2c0,0-0.2,11.9,0,12.8c0.2,0.9,5,3.4,8.4-0.3c3.4-3.7,3.6-11,2.7-11.7
				C31.8,28.3,24.9,25.9,21.5,28.2z"/>
		</g>
		<g id="XMLID_2624_">
			<path id="XMLID_2689_" class="st5" d="M39.4,36.1C39.4,36.1,39.4,36.1,39.4,36.1C39.4,36.1,39.4,36.1,39.4,36.1
				C39.4,36.1,39.4,36.1,39.4,36.1z"/>
			<g id="XMLID_2684_">
				<path id="XMLID_2676_" class="st6" d="M45.2,38.1c-21-8.3-22.5-1.4-33.3-3.6C1.7,32.4-1.6,24.4,2.7,17.1c0,0,0,0,0,0
					c0.3-0.5,0.6-0.9,0.9-1.4C14.6,0.9,28.2,0,37.1,1.2c7,1,16.9,4.3,23.6,13.3v0c0.8,1,1.5,2.2,2.2,3.4v0c0.9,1.5,1.6,3.2,2.3,5
					C70.1,36.2,56.7,42.6,45.2,38.1z"/>
			</g>
			<path id="XMLID_2686_" class="st7" d="M45.2,38.1c-21-8.3-22.5-1.4-33.3-3.6C1.7,32.4-1.6,24.4,2.7,17.1c0,0,0,0,0,0
				s0.9,9.8,8.8,9.1c7.8-0.7,16.4-3.5,24.4,0c7.9,3.5,29,0.1,24.9-11.7c0.8,1,1.5,2.2,2.2,3.4v0c0.9,1.5,1.6,3.2,2.3,5
				C70.1,36.2,56.7,42.6,45.2,38.1z"/>
			<path id="XMLID_2698_" class="st8" d="M64.3,34.4c-0.1,0.1-0.1,0.1-0.2,0.2c-0.2,0.3-0.5,0.6-0.8,0.9c0,0,0,0-0.1,0.1
				c-4,4.1-11.4,5.2-18.1,2.5c-2.1-0.8-4-1.5-5.7-2c0,0,0,0,0,0c0,0,0,0,0,0c-3.5-1.1-6.4-1.7-8.8-2c-8.2-0.9-11.2,2-18.8,0.4
				c-5.1-1-8.5-3.6-10-6.8c0,0,0,0,0,0c-1.5-3.2-1.3-7,0.9-10.7c0,0-2,11.6,7.7,11.8c9.8,0.2,16.9-2.2,24,1.2
				c7.1,3.4,31.6,3.8,28.4-12.2c0.9,1.5,1.6,3.2,2.3,5C67,27.7,66.4,31.6,64.3,34.4z"/>
			<path id="XMLID_2688_" class="st5" d="M30.6,33.2C30.6,33.2,30.6,33.2,30.6,33.2c-8.2-0.8-11.3,2-18.8,0.5c-5.1-1-8.5-3.6-10-6.8
				c0.3,0.4,5.4,6.9,13.6,6.3C23.9,32.4,30.6,33.2,30.6,33.2z"/>
			<path id="XMLID_2690_" class="st5" d="M63.3,34.7c-4,4.1-11.4,5.2-18.1,2.5c-2.1-0.8-4-1.5-5.7-2c0.3,0.1,4.8,1.1,8.9,2.1
				C52.3,38.2,60.1,37.6,63.3,34.7z"/>
			<path id="XMLID_2674_" class="st9" d="M9.3,12.6c0,0,3.4-4.6,6.9-6.3c3.5-1.6,4.4-1.3,8.9,1.5c4.5,2.8,6.4,1,9.9,1.5
				C38.4,9.9,48,10.3,50.2,9c2.2-1.3,6.7,3.3,8.4,6.3s-1.3,5.8-10.7,4.4c-9.5-1.4-11.9-3.9-20.4-2.6S5.4,16.8,9.3,12.6z"/>
			<path id="XMLID_2680_" class="st10" d="M13.9,10.5c0,0,3.2-3.1,4.8-3.4c1.6-0.2,4,1.5,5.5,2.5c1.5,1,3.9,0.6,5.5,0.8
				c1.6,0.2-0.1,1-1.8,1.1c-1.7,0.1-0.8,1.8-3.1,1.1c-2.4-0.8-2.9-3.2-5-2.2C17.6,11.4,12.3,12.6,13.9,10.5z"/>
			<path id="XMLID_2681_" class="st10" d="M35.5,11.1c0,0,7.8,0.9,10.7,0.7c2.9-0.2,4.4-1.2,5.2-1.2c0.8,0,3.6,2,3.6,2.9
				c0,0.9-2.6-0.6-4.3,0c-1.6,0.6-3.6,1.1-6.3,0.5c-2.7-0.6-6.7-1.2-8.1-1.2C34.8,12.7,30.9,11.1,35.5,11.1z"/>
			<g id="XMLID_2683_">
				<path id="XMLID_2687_" class="st11" d="M52.6,40.3c-2.6,0-5.2-0.5-7.8-1.5l0,0c-13.1-5.1-18.5-4.3-23.3-3.6
					c-3,0.4-5.8,0.9-9.9,0c-5.3-1.1-9.1-3.8-10.8-7.6c-1.5-3.4-1.1-7.4,1.1-11.1l0.1-0.1c0.3-0.5,0.6-1,0.9-1.4
					C11.6,3.6,23.5-1.5,37.2,0.4C43,1.2,54,4.1,61.4,14l0.2,0.2c0.7,1,1.5,2.1,2.1,3.2l0.1,0.2c0.9,1.5,1.6,3.2,2.2,4.9
					c2,5.5,1.2,10.3-2.2,13.7C61,38.9,57,40.3,52.6,40.3z M45.5,37.2c6.2,2.4,13.3,1.6,17.1-2.2c3-2.9,3.6-7.1,1.8-12
					c-0.6-1.7-1.4-3.3-2.2-4.9l-0.1-0.2c-0.6-1.1-1.3-2.1-2-3.1l-0.2-0.2C52.8,5.5,42.5,2.8,37,2C23.9,0.2,12.6,5.1,4.3,16.1
					C4,16.5,3.7,17,3.4,17.5l-0.1,0.1c-1.9,3.2-2.2,6.6-0.9,9.5c1.5,3.3,4.9,5.6,9.6,6.6c3.8,0.8,6.5,0.4,9.3,0
					C26.3,32.8,32,31.9,45.5,37.2L45.5,37.2z"/>
			</g>
		</g>
	</g>
	<g id="XMLID_2623_">
		<g id="XMLID_2637_">
			<path id="XMLID_2682_" class="st0" d="M84.9,56.4c-1.5,1.1-3,1.7-4.2,1.8c-1.1,0.1-2.1-0.4-2.9-1.2c-0.3-0.3-0.6-0.7-0.9-1.1
				c-0.8-1.3-1.3-3-1.3-4.6c0,0-0.1,0.1-0.3,0.3c0,0,0,0,0,0c-1.7,1.6-9.7,9.2-12.3,12.2C60,67,46.8,58.2,48.7,54.9
				c1.8-3.2,9.3-13.6,9.6-14c0,0,0,0,0,0s-1.8,0.4-3.8,0.3c-0.8,0-1.6-0.2-2.4-0.4l0,0c-1.4-0.5-2.5-1.6-2.4-3.7
				c0-0.4,0.1-0.9,0.2-1.3c0.8-5.4,4.3-10.7,10.2-12.1c6.4-1.5,18.8-0.4,28.1,13.3C93.9,45.3,89.6,53,84.9,56.4z"/>
		</g>
		<path id="XMLID_2678_" class="st1" d="M84.9,56.4c-1.5,1.1-3,1.7-4.2,1.8c-1.1,0.1-2.1-0.4-2.9-1.2c-0.3-0.3-0.6-0.7-0.9-1.1
			c-0.8-1.3-1.3-3-1.3-4.6c0,0-0.1,0.1-0.3,0.3c0,0,0,0,0,0c-1.7,1.6-9.7,9.2-12.3,12.2C60,67,46.8,58.2,48.7,54.9
			c1.8-3.2,9.3-13.6,9.6-14c0,0,0,0,0,0s-1.8,0.4-3.8,0.3c-0.8,0-1.6-0.2-2.4-0.4l0,0c-1.4-0.5-2.5-1.6-2.4-3.7
			c0-0.4,0.1-0.9,0.2-1.3c2.3-3.6,6-7.3,11.5-6.1c9.7,2.1,4,10.7,0.7,14.4c-3.3,3.7,1.6,1.9,0.4,4.8c-1.2,2.9,0.5,7.8,4.8,3.7
			c4.4-4,10-10.6,15-7.9C85.9,46.6,87.6,51.7,84.9,56.4z"/>
		<path id="XMLID_2665_" class="st0" d="M75.2,51.5c0.2-0.2,0.3-0.3,0.3-0.3S75.4,51.3,75.2,51.5z"/>
		<path id="XMLID_2679_" class="st2" d="M76.8,55.9c-0.8-1.3-1.3-3-1.3-4.6c0,0-0.1,0.1-0.3,0.3c0,0,0,0,0,0
			c-1.7,1.6-9.7,9.2-12.3,12.2C60,67,46.8,58.2,48.7,54.9c1.8-3.2,9.3-13.6,9.6-14c0,0,0,0,0,0s-1.8,0.4-3.8,0.3
			c3-2.9,5.5-5.7,6.3-8.3c0,0,5.2,1,2.7,5.3c-2.5,4.3-9.4,13-9.3,15c0.1,2,4.7-3.9,4.1-1.7c-0.6,2.2-4.5,8.4-1.9,7.4
			c2.5-1,5.3-4.2,4.5-1.5c-0.8,2.7,0.3,3.8,4.8-0.8c4.5-4.7,11.8-12.5,16.4-9C82.1,47.7,79.9,51.4,76.8,55.9z"/>
		<path id="XMLID_2670_" class="st12" d="M77.6,56c-0.8-0.9-1.5-2.1-1.9-3.4c-0.2-0.8-0.3-1.5-0.3-2.3c0,0,1.9-2.3,4.3-2.7
			c1-0.2,2.1-0.1,3.2,0.7C85.9,50.5,81,56.1,77.6,56z"/>
		<path id="XMLID_2649_" class="st13" d="M77.6,56c-0.8-0.9-1.5-2.1-1.9-3.4c0,0,0,0,0,0s2.7,0.5,5.4-1.5s-1.5-3.5-1.5-3.5
			c1-0.2,2.1-0.1,3.2,0.7C85.9,50.5,81,56.1,77.6,56z"/>
		<path id="XMLID_2675_" class="st12" d="M58.9,41.4c0,0-1.4,0.3-3.1,0.3c-1,0-2.1-0.1-3.1-0.5c1.7-10.4,9-9,10-7.1
			c0.2,0.4,0.2,0.9,0,1.5C62,37.9,58.9,41.4,58.9,41.4z"/>
		<path id="XMLID_2668_" class="st13" d="M60.1,34.4c-2.5,0.4-3.8,5.4-4.2,7.3c-1,0-2.1-0.1-3.1-0.5c1.7-10.4,9-9,10-7.1
			c0.2,0.4,0.2,0.9,0,1.5C62.5,34.9,61.9,34.1,60.1,34.4z"/>
		<g id="XMLID_2636_">
			<path id="XMLID_2640_" class="st3" d="M51.8,61.2c-1.9-1.5-5.2-4.5-3.9-6.8c1.4-2.5,6.2-9.2,8.5-12.5c-1.2,0.1-2.7,0.1-4.1-0.3
				l0,0l-0.6-0.2c-2.1-0.8-3.1-2.3-2.9-4.6c0.5-5.9,4-12.5,11-14.1c1.9-0.5,7.1-1.3,13.4,1c6.1,2.2,11.3,6.4,15.6,12.7
				c3.2,4.7,3.7,9.8,1.5,14.5c-2.3,4.8-6.7,7.8-9.7,8c-1.3,0.1-2.5-0.4-3.6-1.5c-1.1-1.1-1.9-2.8-2.2-4.6
				c-2.9,2.8-9.2,8.8-11.3,11.3c-2.2,2.6-7.9-0.3-10.9-2.4C52.5,61.7,52.2,61.5,51.8,61.2z M60.4,39.6l-1.4,1.8
				c-1.3,1.8-7.8,10.9-9.5,13.8c-0.4,0.8,1,3,4.2,5.2c3.7,2.6,7.6,3.8,8.6,2.7c2.5-2.8,10-10,12.3-12.2l1.7-1.7l0,1.9
				c0,2,0.8,4,2,5.2c0.7,0.7,1.5,1.1,2.2,1l0,0c2.6-0.2,6.4-3,8.3-7.1c1.4-2.9,2.3-7.5-1.4-12.9C82.2,29.7,72,21.7,60.3,24.5
				c-6.1,1.4-9.3,7.4-9.7,12.6c-0.1,1.4,0.4,2.3,1.6,2.8l0.2,0.1c2.3,0.8,5.7,0.1,5.7,0.1L60.4,39.6z"/>
		</g>
		<path id="XMLID_2638_" class="st4" d="M77.5,30.5c5.7,3.9,7.8,8.9,8.9,13c1.2,4.2-4.5-5.4-10.8-0.8c-6.3,4.7-8.9,6.6-8.8,2.8
			c0.1-3.8,3.5-7.8,2-11.5c-1.5-3.7-5.8-5.9-7.6-5.9C59.4,28.1,66.5,22.9,77.5,30.5z"/>
		<path id="XMLID_2663_" class="st3" d="M79,41.4c0,0-1.8-0.4-8.3,4.9c0,0,3-1.1,5.1-2.5c2.1-1.4,5.4-2.1,6.6-1.8
			C82.3,42.1,80.8,41.3,79,41.4z"/>
		<path id="XMLID_2669_" class="st3" d="M64,37.2c0,0-7.1,9.8-9.5,15.1C54.4,52.4,61.6,44.3,64,37.2z"/>
		<path id="XMLID_2672_" class="st3" d="M76.8,47.4c0,0-9.1,8.1-13.6,11.7C63.2,59.1,70.6,49.6,76.8,47.4z"/>
	</g>
</g>
</svg>
