<?xml version="1.0" encoding="utf-8"?>
<!-- Generator: Adobe Illustrator 25.2.3, SVG Export Plug-In . SVG Version: 6.00 Build 0)  -->
<svg version="1.1" id="Capa_1" xmlns="http://www.w3.org/2000/svg" xmlns:xlink="http://www.w3.org/1999/xlink" x="0px" y="0px"
	 width="67.3px" height="80.4px" viewBox="0 0 67.3 80.4" style="enable-background:new 0 0 67.3 80.4;" xml:space="preserve">
<style type="text/css">
	.st0{fill:#B40000;}
	.st1{fill:#F6E03E;}
	.st2{fill:#EEF6ED;}
	.st3{fill:#DC3F3F;}
	.st4{fill:#C82F41;}
	.st5{fill:#CB2323;}
	.st6{fill:#E17574;}
	.st7{fill:#EFC338;}
	.st8{fill:#F3D63C;}
	.st9{fill:#E9A428;}
</style>
<g>
	<g>
		<rect x="0" y="0" class="st0" width="67.3" height="5.5"/>
		<rect x="0" y="74.9" class="st0" width="67.3" height="5.5"/>
		<path class="st1" d="M5.7,59.7c0,1.6-0.3,3.1-1,4.6L0,74.9l27.5,0L5.7,53.1L5.7,59.7z"/>
		<path class="st2" d="M14.8,67.9c-0.3,0-0.5-0.1-0.7-0.3l-5.3-5.3c-0.4-0.4-0.4-1.1,0-1.5c0.4-0.4,1.1-0.4,1.5,0l5.3,5.3
			c0.4,0.4,0.4,1.1,0,1.5C15.3,67.8,15,67.9,14.8,67.9z"/>
		<path class="st2" d="M19.7,72.9c-0.3,0-0.5-0.1-0.7-0.3l-2.2-2.2c-0.4-0.4-0.4-1.1,0-1.5c0.4-0.4,1.1-0.4,1.5,0l2.2,2.2
			c0.4,0.4,0.4,1.1,0,1.5C20.2,72.7,20,72.9,19.7,72.9z"/>
	</g>
	<g>
		<path class="st3" d="M61.6,60.3c0,0.2,0,0.4,0,0.6C61.6,60.7,61.6,60.5,61.6,60.3z"/>
		<path class="st3" d="M17.8,20.7v7.4L50,17.5c0.1-0.4,0.3-0.9,0.5-1.3l4.7-10.7h-43l4.7,10.7C17.5,17.6,17.8,19.2,17.8,20.7z"/>
		<path class="st3" d="M61.7,61.2c0.1,0.9,0.3,1.8,0.7,2.6C62,62.9,61.8,62,61.7,61.2z"/>
		<path class="st3" d="M64.1,12.8l3.2-7.3L64.1,12.8z"/>
		<path class="st3" d="M50.4,64.3c-0.6-1.4-1-3-1-4.6v-6.6V36.6L17.8,47.2v12.5c0,1.6-0.3,3.1-1,4.6l0,0l10.6,10.6l39.8,0l-12.1,0
			L50.4,64.3z"/>
		<path class="st4" d="M62.6,64.3c-0.1-0.2-0.1-0.3-0.2-0.5C62.4,63.9,62.5,64.1,62.6,64.3l4.7,10.7L62.6,64.3z"/>
		<path class="st4" d="M61.7,60.9c0,0.1,0,0.2,0,0.3C61.7,61.1,61.7,61,61.7,60.9z"/>
		<path class="st4" d="M61.6,60.3c0-0.2,0-0.4,0-0.6C61.6,59.9,61.6,60.1,61.6,60.3z"/>
		<path class="st5" d="M62.4,63.7c-0.3-0.8-0.5-1.7-0.7-2.6c0-0.1,0-0.2,0-0.3c0-0.2,0-0.4,0-0.6c0-0.2,0-0.4,0-0.6v-6.6V32.6
			l-12.1,4v16.5v6.6c0,1.6,0.3,3.1,1,4.6l4.7,10.7l12.1,0l-4.7-10.7C62.5,64.1,62.4,63.9,62.4,63.7z"/>
		<path class="st5" d="M50,17.5l14.1-4.7l3.2-7.3l-12.1,0l-4.7,10.7C50.2,16.6,50.1,17,50,17.5z"/>
		<path class="st6" d="M17.8,20.7c0-1.6-0.3-3.1-1-4.6L12.1,5.5L0,5.5l4.7,10.7c0.6,1.4,1,3,1,4.6v11.5l12.1-4V20.7z"/>
		<path class="st6" d="M17.8,59.7V47.2l-12.1,4l0,1.9l11.2,11.2l0,0C17.5,62.8,17.8,61.3,17.8,59.7z"/>
		<path class="st7" d="M62.6,16.2c-0.6,1.4-1,3-1,4.6C61.6,19.2,61.9,17.6,62.6,16.2l1.5-3.4L62.6,16.2z"/>
		<path class="st8" d="M50,17.5L17.8,28.2v19l31.7-10.5V20.7C49.5,19.6,49.6,18.5,50,17.5z"/>
		<path class="st7" d="M62.6,16.2l1.5-3.4L50,17.5c-0.3,1.1-0.5,2.2-0.5,3.3v15.9l12.1-4V20.7C61.6,19.2,61.9,17.6,62.6,16.2z"/>
		<polygon class="st1" points="17.8,28.2 5.7,32.2 5.7,51.2 17.8,47.2 		"/>
	</g>
	<g>
		<g>
			<path class="st5" d="M33.7,53.9c-1.3,1.9-2.9,4-4.8,6.2c-2.2,2.5-4.4,4.5-6.3,6.1c2.1,1.2,5.2,2.6,9.2,3.3c2.7,0.5,5.1,0.4,7,0.3
				c0-2-0.1-5.1-1.3-8.6C36.4,57.8,34.8,55.4,33.7,53.9z"/>
			<path class="st5" d="M48.3,55.5c2.1-2.6,4.2-4.7,6.1-6.4C52.2,48,49,46.7,45,46.2c-2.7-0.3-5.1-0.2-7,0c0,2,0.3,5.1,1.7,8.6
				c1.3,3.3,2.9,5.6,4.1,7.1C45,60,46.5,57.8,48.3,55.5z"/>
			<path class="st5" d="M58.3,57.8c-1.9,1.3-4.2,2.6-6.8,3.8c-3,1.4-5.8,2.4-8.2,3.1c1.5,1.9,3.8,4.5,7.2,6.7c2.3,1.5,4.5,2.4,6.3,3
				c0.8-1.8,1.9-4.7,2.2-8.4C59.3,62.5,58.8,59.6,58.3,57.8z"/>
		</g>
		<g>
			<g>
				<path class="st7" d="M31.7,51.1c-1.3,1.9-2.9,4-4.8,6.2c-2.2,2.5-4.4,4.5-6.3,6.1c2.1,1.2,5.2,2.6,9.2,3.3
					c2.7,0.5,5.1,0.4,7,0.3c0-2-0.1-5.1-1.3-8.6C34.4,55,32.9,52.6,31.7,51.1z"/>
				<path class="st9" d="M28.7,60.9c0,0.6-0.5,1.1-1.1,1.1c-0.6,0-1.1-0.5-1.1-1.1c0-0.6,0.5-1.1,1.1-1.1
					C28.2,59.7,28.7,60.3,28.7,60.9z"/>
				<path class="st9" d="M34.2,64.1c0,0.7-0.5,1.2-1.2,1.2c-0.7,0-1.2-0.5-1.2-1.2c0-0.7,0.5-1.2,1.2-1.2
					C33.6,62.9,34.2,63.4,34.2,64.1z"/>
				<circle class="st9" cx="31.6" cy="56.9" r="1.2"/>
			</g>
			<g>
				<path class="st7" d="M40.9,59.1c1.2-2,2.7-4.2,4.5-6.4c2.1-2.6,4.2-4.7,6.1-6.4c-2.1-1.1-5.3-2.4-9.4-2.9c-2.7-0.3-5.1-0.2-7,0
					c0,2,0.3,5.1,1.7,8.6C38,55.3,39.7,57.7,40.9,59.1z"/>
				<circle class="st9" cx="45" cy="47.3" r="1.1"/>
				<path class="st9" d="M42.8,52c0,0.7-0.5,1.2-1.2,1.2c-0.7,0-1.2-0.5-1.2-1.2s0.5-1.2,1.2-1.2C42.2,50.8,42.8,51.3,42.8,52z"/>
				<circle class="st9" cx="39.2" cy="46.3" r="1.2"/>
			</g>
			<g>
				<path class="st7" d="M55.4,55c-1.9,1.3-4.2,2.6-6.8,3.8c-3,1.4-5.8,2.4-8.2,3.1c1.5,1.9,3.8,4.5,7.2,6.7c2.3,1.5,4.5,2.4,6.3,3
					c0.8-1.8,1.9-4.7,2.2-8.4C56.4,59.7,55.9,56.8,55.4,55z"/>
				<path class="st9" d="M52.7,66.8c0,0.7-0.5,1.2-1.2,1.2s-1.2-0.5-1.2-1.2c0-0.7,0.5-1.2,1.2-1.2S52.7,66.2,52.7,66.8z"/>
				<path class="st9" d="M54.3,60.9c0,0.7-0.5,1.2-1.2,1.2c-0.7,0-1.2-0.5-1.2-1.2c0-0.7,0.5-1.2,1.2-1.2
					C53.7,59.7,54.3,60.2,54.3,60.9z"/>
				<path class="st9" d="M48.3,63.4c0,0.7-0.5,1.2-1.2,1.2c-0.7,0-1.2-0.5-1.2-1.2c0-0.7,0.5-1.2,1.2-1.2
					C47.7,62.3,48.3,62.8,48.3,63.4z"/>
			</g>
		</g>
	</g>
	<path class="st2" d="M53.5,31.4L15.2,44.3c-2.4,0.8-5-0.5-5.8-2.9c-1.1-3.4,0.7-7,4.1-8.2l38.3-12.9c2.4-0.8,5,0.5,5.8,2.9
		C58.7,26.6,56.9,30.3,53.5,31.4z"/>
	<g>
		<path class="st7" d="M25.9,36.6L15.7,40c-0.6,0.2-1.3-0.1-1.5-0.8c-0.3-0.9,0.2-1.9,1.1-2.2l10.2-3.4c0.6-0.2,1.3,0.1,1.5,0.8
			C27.2,35.3,26.8,36.3,25.9,36.6z"/>
		<path class="st7" d="M36.6,32.9l-6,2c-0.6,0.2-1.3-0.1-1.5-0.8c-0.3-0.9,0.2-1.9,1.1-2.2l6-2c0.6-0.2,1.3,0.1,1.5,0.8
			C38,31.7,37.5,32.6,36.6,32.9z"/>
		<path class="st7" d="M52.5,27.6l-11.4,3.8c-0.6,0.2-1.3-0.1-1.5-0.8c-0.3-0.9,0.2-1.9,1.1-2.2l11.4-3.8c0.6-0.2,1.3,0.1,1.5,0.8
			C53.9,26.3,53.4,27.3,52.5,27.6z"/>
	</g>
</g>
</svg>
