<?xml version="1.0" encoding="utf-8"?>
<!-- Generator: Adobe Illustrator 25.2.3, SVG Export Plug-In . SVG Version: 6.00 Build 0)  -->
<svg version="1.1" id="Capa_1" xmlns="http://www.w3.org/2000/svg" xmlns:xlink="http://www.w3.org/1999/xlink" x="0px" y="0px"
	 width="67.3px" height="80.4px" viewBox="0 0 67.3 80.4" style="enable-background:new 0 0 67.3 80.4;" xml:space="preserve">
<style type="text/css">
	.st0{fill:#DC3F3F;}
	.st1{fill:#80B4EE;}
	.st2{fill:#BEE0FA;}
	.st3{fill:#5D98E6;}
	.st4{fill:#4678D5;}
	.st5{fill:#F7E436;}
	.st6{fill:#FFFFFF;}
	.st7{fill:#C82F41;}
	.st8{fill:#B40000;}
	.st9{fill:#F6E03E;}
	.st10{fill:#EFC338;}
	.st11{fill:#F9ED86;}
</style>
<g>
	<g>
		<path class="st0" d="M61.6,20.7c0-1.6,0.3-3.1,1-4.6l4.7-10.7l-27.4,0l21.7,21.7L61.6,20.7z"/>
		<path class="st1" d="M67.3,74.9L0,74.9l4.7-10.7c0.6-1.4,1-3,1-4.6V20.7c0-1.6-0.3-3.1-1-4.6L0,5.5l39.9,0l10.6,10.6l11.1,11.1
			l0,32.4c0,1.6,0.3,3.1,1,4.6L67.3,74.9z"/>
		<path class="st2" d="M17.8,20.7v38.9c0,1.6-0.3,3.1-1,4.6l-4.7,10.7L0,74.9l4.7-10.7c0.6-1.4,1-3,1-4.6V20.7c0-1.6-0.3-3.1-1-4.6
			L0,5.5l12.1,0l4.7,10.7C17.5,17.6,17.8,19.2,17.8,20.7z"/>
		<path class="st3" d="M67.3,74.9l-12.1,0l-4.7-10.7c-0.6-1.4-1-3-1-4.6V20.7c0-1.6,0.3-3.1,1-4.6l0-0.1l11.1,11.1l0,32.4
			c0,1.6,0.3,3.1,1,4.6L67.3,74.9z"/>
	</g>
	<rect x="0" y="0" class="st4" width="67.3" height="5.5"/>
	<rect x="0" y="74.9" class="st4" width="67.3" height="5.5"/>
	<g>
		
			<ellipse transform="matrix(0.9239 -0.3827 0.3827 0.9239 -9.7264 15.3137)" class="st5" cx="33.6" cy="32.1" rx="13.7" ry="13.7"/>
		<circle class="st6" cx="33.6" cy="32.1" r="10"/>
	</g>
	<g>
		<path class="st7" d="M52.3,39.6H24.8c-1.1,0-1.9,0.7-1.9,1.7v4c-0.6,0-1.1,0.5-1.1,1c0,0.6,0.5,1,1.2,1l29.4,0V39.6z"/>
		<g>
			<path class="st0" d="M27,37.3l0,7c0-0.6-0.5-1-1.2-1l-8.1,0l-12.1,0v-7.7h19.4C26.2,35.6,27,36.4,27,37.3z"/>
			<path class="st8" d="M25.8,43.3l-4.1,0v3c0-0.6,0.5-1,1.2-1h2.9c0.6,0,1.2-0.5,1.2-1C27,43.7,26.5,43.3,25.8,43.3z"/>
		</g>
	</g>
	<g>
		<g>
			<path class="st4" d="M54.4,40c-0.1,0-0.1,0-0.2-0.1c-2.7-1.6-5.3,2-8.4,6.8c-2.9,0.8-6.5,3.5-10.6,6c-6.5,4-11.6,6.1-9.8,10.1
				c0.1,0.2,0.2,0.5,0.4,0.7c2.8,4.5,12.6,9.6,19.4,5.4c1.7-1.1,3.1-2.6,4.1-4.4c2.5-1,4.9-2.6,6.5-5.1C60.3,52.7,57.9,42.3,54.4,40
				z"/>
			<g>
				<g>
					<path class="st9" d="M53.3,37.6c-0.1,0-0.1,0-0.2-0.1c2.7,3.7,4,12.2,0.2,18.1c-4.3,6.5-13.3,7.2-17.1,5.1
						c0.2,0.5,0.6,0.9,1.1,1.2c3.5,2.3,13.1,1.8,17.5-4.9C59.2,50.3,56.9,39.9,53.3,37.6z"/>
					<path class="st10" d="M53.3,55.6c3.8-5.8,2.5-14.4-0.2-18.1c-3.5-2-6.8,4.5-11.1,11.1c-3.7,5.7-7,9.6-5.8,12.1
						C40,62.8,49.1,62.1,53.3,55.6z"/>
				</g>
				<g>
					<path class="st11" d="M49.5,45.9c-0.3-0.5-0.6-0.8-1-1.1c2,5.1,0.5,15.7-5.8,19.7c-6.1,3.8-14.6,0.1-18.3-4
						c0.1,0.2,0.2,0.5,0.4,0.7c2.8,4.5,12.6,9.6,19.4,5.4C51,62.3,52.3,50.3,49.5,45.9z"/>
					<path class="st9" d="M42.7,64.4c6.4-3.9,7.9-14.6,5.8-19.7c-3-2.4-8.2,1.8-14.3,5.6c-6.5,4-11.6,6.1-9.8,10.1
						C28.1,64.5,36.6,68.2,42.7,64.4z"/>
				</g>
			</g>
		</g>
		<circle class="st10" cx="43.7" cy="54.5" r="1.2"/>
		<circle class="st10" cx="32.1" cy="56.1" r="1.6"/>
		<path class="st10" d="M43,49.2c0,0.6-0.5,1.1-1.1,1.1c-0.6,0-1.1-0.5-1.1-1.1c0-0.6,0.5-1.1,1.1-1.1C42.5,48,43,48.5,43,49.2z"/>
		<path class="st10" d="M34.9,62.1c0,0.6-0.5,1.1-1.1,1.1c-0.6,0-1.1-0.5-1.1-1.1c0-0.6,0.5-1.1,1.1-1.1
			C34.4,61,34.9,61.5,34.9,62.1z"/>
		<path class="st10" d="M41.8,59.9c0,1.1-0.9,2-2,2c-1.1,0-2-0.9-2-2c0-1.1,0.9-2,2-2C41,57.9,41.8,58.8,41.8,59.9z"/>
	</g>
</g>
</svg>
