<?xml version="1.0" encoding="utf-8"?>
<!-- Generator: Adobe Illustrator 25.2.3, SVG Export Plug-In . SVG Version: 6.00 Build 0)  -->
<svg version="1.1" id="Capa_1" xmlns="http://www.w3.org/2000/svg" xmlns:xlink="http://www.w3.org/1999/xlink" x="0px" y="0px"
	 width="70.6px" height="80.2px" viewBox="0 0 70.6 80.2" style="enable-background:new 0 0 70.6 80.2;" xml:space="preserve">
<style type="text/css">
	.st0{fill:url(#SVGID_1_);}
	.st1{fill:#436B33;}
	.st2{opacity:0.69;fill:#7DC468;}
	.st3{fill:#4E3728;}
	.st4{fill:url(#SVGID_2_);}
	.st5{opacity:0.81;fill:#3D1A4C;}
	.st6{opacity:0.81;fill:#31143A;}
	.st7{opacity:0.88;fill:#360B43;}
	.st8{opacity:0.26;fill:#934D9C;}
	.st9{opacity:0.33;fill:#AE7AC4;}
	.st10{fill:url(#SVGID_3_);}
	.st11{opacity:0.46;fill:url(#SVGID_4_);}
	.st12{opacity:0.96;fill:#3B0E4C;}
	.st13{opacity:0.69;fill:#FFFFFF;}
	.st14{opacity:0.59;fill:#FFFFFF;}
</style>
<g>
	<g>
		<g>
			
				<linearGradient id="SVGID_1_" gradientUnits="userSpaceOnUse" x1="40.58" y1="37.8982" x2="66.4563" y2="52.5013" gradientTransform="matrix(0.9859 -0.1672 0.1672 0.9859 -44.6076 -28.1278)">
				<stop  offset="5.376340e-03" style="stop-color:#6BA758"/>
				<stop  offset="0.8589" style="stop-color:#578051"/>
			</linearGradient>
			<path class="st0" d="M27.4,15.6c-0.1,0.1-0.2,0.1-0.3,0.2c-4.3,2.4-9.1,1.6-13.4-0.4C6.2,12,0,4.9,0,4.8
				c2.7,0.5,14.1-2.4,14.1-2.4c0.1,0,0.1,0,0.2,0c6.3-1.5,8.5-0.9,8.5-0.9c1.7,0.5,3.3,0.8,4.8,1.9c1.4,1,2.5,2.5,3,4.2
				C31.4,10.5,30,13.9,27.4,15.6z"/>
			<path class="st1" d="M1.6,5.4c1.1,0.7,2.3,1.2,3.6,1.7C6.4,7.7,7.7,8.1,9,8.4c0.7,0.2,1.4,0.3,2.2,0.4c2.3,0.3,4.6,0.1,6.9,0.1
				c3.2,0,6.3,0.1,9.5,0.5c1.7,0.2,3.2,0.6,4.8,1.1c0,0,2.8,0.9,4.4,4.3l0-1.7c0-0.8-2-2.2-2.6-2.5c-2-1.3-4.5-1.6-6.9-1.9
				c-1.4-0.2-2.8-0.3-4.2-0.4c-2-0.1-3.9-0.1-5.9,0c-2.2,0.1-4.2,0.4-6.4,0c-1-0.2-2-0.3-3-0.6C5.8,7.2,3.5,6.6,1.6,5.4z"/>
			<path class="st1" d="M21.8,2.6c0,0,5.2,1.5,6.8,6.2l-0.8-0.1C27.7,8.7,27.6,5.4,21.8,2.6z"/>
			<path class="st1" d="M15.3,3.1c0,0,4.8,1,6.7,5.1l-0.8,0C21.2,8.2,20,5.2,15.3,3.1z"/>
			<path class="st1" d="M8.5,4.5c0,0,4.6,1.1,6,4L14,8.5C14,8.5,13.4,6.7,8.5,4.5z"/>
			<path class="st1" d="M26,9.2c0,0-0.1,5.3-7,5.5c0,0,6-0.8,6.6-5.7L26,9L26,9.2z"/>
			<path class="st1" d="M19.7,8.9c0,0-2.5,4.3-8,3.5c0,0,4.7,0.2,7.5-3.5L19.7,8.9z"/>
			<path class="st1" d="M11.4,8.9c0,0-3.8,1.8-5.5,0.6c0,0,2.1,0.8,4.8-0.8L11.4,8.9z"/>
			<path class="st2" d="M9.5,4.6C8.4,5,6.9,5.3,5.9,5.8c0,0.9,0.6,1.6,1.1,2.3C7.7,9,8.1,9.8,8.8,10.6c0.8,0.9,1.5,1.9,2.4,2.7
				c0.7,0.6,1.4,1.2,2,1.8c0.1,0.1,0.3,0.3,0.5,0.4C6.2,12,0,4.9,0,4.8c2.7,0.5,14.1-2.4,14.1-2.4c0.1,0,0.1,0,0.2,0
				c-0.3,0.1-0.6,0.2-1,0.4C12.1,3.4,10.9,4.1,9.5,4.6z"/>
		</g>
		<path class="st3" d="M35.8,0.6c0,0,3.3,12.3-1.2,20.7l3.2-0.5c0,0,3.2-9.9,0.3-20.6C38.1,0.2,37.1-0.4,35.8,0.6z"/>
	</g>
	
		<linearGradient id="SVGID_2_" gradientUnits="userSpaceOnUse" x1="71.1837" y1="81.5031" x2="97.6793" y2="96.6205" gradientTransform="matrix(0.9859 -0.1672 0.1672 0.9859 -44.6076 -28.1278)">
		<stop  offset="0" style="stop-color:#6D496A"/>
		<stop  offset="0.2165" style="stop-color:#5B3361"/>
		<stop  offset="0.5869" style="stop-color:#512B5F"/>
		<stop  offset="0.9987" style="stop-color:#4B275E"/>
	</linearGradient>
	<path class="st4" d="M70,39.1c0,0,3.9,23.7-8.2,34.4c0,0-4,3.2-7.1,3.6c-1.1,0.1-2-0.1-2.8-0.8l0.1-5.3l0-1.3l-0.5-26.5l-9.9-17.3
		l-5.8-5.4c0,0,0.3-0.5,0.9-1.2c2-2.4,7.2-7.1,15.6-5.5c0,0,1.1,0.2,2.8,1.1l0,0C59.4,16.9,67.1,22.9,70,39.1z"/>
	<path class="st5" d="M70,39.1c0,0,0.8,4.8,0.6,11c-0.3,7.7-2.1,17.5-8.7,23.4c0,0-4,3.2-7.1,3.6c-1.1,0.1-2-0.1-2.8-0.8l0.1-5.3
		c0.1-0.2,0.1-0.4,0.2-0.6c0.9-2.4,1.8-4.9,1.8-4.9c12.4-0.7,11.5-24.7,11.5-24.7c-1.3-17.6-9.9-25.5-10.3-25.9
		C59.4,16.9,67.1,23,70,39.1z"/>
	<path class="st6" d="M70.5,50.1c-0.3,7.7-2.1,17.5-8.7,23.4c0,0-4,3.2-7.1,3.6c-1.1,0.1-2-0.1-2.8-0.8l0.1-5.3
		c0.1-0.2,0.1-0.4,0.2-0.6l1.9,0c0,0,8.5,0.5,13.7-9.7C67.8,60.7,69.8,55.7,70.5,50.1L70.5,50.1z"/>
	<path class="st7" d="M54.6,77c-1.1,0.1-2-0.1-2.8-0.8l0.2-6.7l-0.5-26.5l-9.9-17.3l-5.8-5.4c0,0,0.3-0.5,0.9-1.2
		c0,0,12.4,0.5,18.5,22C55.3,41.2,62,65.5,54.6,77z"/>
	<path class="st8" d="M60.2,23c4,6.1,4.1,13.2,0.6,15c-3.5,1.9-5.2-3.5-9.4-9.4c-4.2-5.9-6.8-10.1-3.4-11.9
		C51.5,14.8,56.3,17.2,60.2,23z"/>
	<path class="st9" d="M54.1,18.3c2.3,2.4,2.8,5.6,1.2,7.2c-1.6,1.5-4.8,0.8-7.1-1.6c-2.3-2.4-2.8-5.6-1.2-7.2
		C48.7,15.2,51.8,15.9,54.1,18.3z"/>
	
		<linearGradient id="SVGID_3_" gradientUnits="userSpaceOnUse" x1="35.5406" y1="75.6856" x2="84.6761" y2="99.448" gradientTransform="matrix(0.9859 -0.1672 0.1672 0.9859 -44.6076 -28.1278)">
		<stop  offset="0" style="stop-color:#6D496A"/>
		<stop  offset="0.4651" style="stop-color:#5B3361"/>
		<stop  offset="0.5278" style="stop-color:#562F60"/>
		<stop  offset="0.7027" style="stop-color:#4D295E"/>
		<stop  offset="0.9987" style="stop-color:#4B275E"/>
	</linearGradient>
	<path class="st10" d="M54.8,59.4c0.1,3.5,0.1,6.9-0.6,10.3c0,0,0,0.1,0,0.1c0,0.2-0.1,0.3-0.1,0.5c-0.6,2.7-1.5,5.5-3.6,7.5
		c-0.8,0.8-1.7,1.3-2.7,1.7c-1.9,0.7-4,0.7-6.1,0.7c-3,0-6.1-0.4-8.9-1.4c-4.7-1.6-9-4.3-12.7-7.7c-1.2-1.1-2.3-2.3-3.3-3.5
		c-2-2.4-3.6-5-4.8-7.9C10,54.5,9.2,48.7,9.1,43c0-2.4-0.2-5.5,0.5-7.8c1.8-5.9,5.4-11.3,11.1-13.9c1-0.5,2-0.8,3.1-1.1c0,0,0,0,0,0
		c1-0.3,1.9-0.4,2.9-0.5c2.7-0.3,5.5-0.1,8.1,0.5c0,0,0,0,0.1,0c4,1.1,7.8,3.3,10.2,6.9C55.4,41.8,54.8,59.4,54.8,59.4z"/>
	<path class="st5" d="M54.8,59.4c0.1,3.5,0.1,6.9-0.6,10.3c0,0,0,0.1,0,0.1c0,0.2-0.1,0.3-0.1,0.5c-0.6,2.7-1.5,5.5-3.6,7.5
		c-0.8,0.8-1.7,1.3-2.7,1.7c-1.9,0.7-4,0.7-6.1,0.7c-3,0-6.1-0.4-8.9-1.4c-0.2-0.1-0.5-0.2-0.7-0.3c0,0,0,0,0,0
		c-4.4-1.6-8.5-4.2-11.9-7.4c15.8,10.2,24.2-7.4,24.2-7.4c7.3-19.3-3.4-34.2-3.4-34.2c-6.5-10.9-16.4-9.6-17.2-9.4
		c1-0.3,1.9-0.4,2.9-0.5c2.7-0.3,5.5-0.1,8.1,0.5c0,0,0,0,0.1,0c4,1.1,7.8,3.3,10.2,6.9c5,7.3,7.4,15.3,8.6,21.5l0,0
		C55,54.9,54.8,59.4,54.8,59.4z"/>
	
		<linearGradient id="SVGID_4_" gradientUnits="userSpaceOnUse" x1="70.4359" y1="87.0459" x2="84.2203" y2="87.0459" gradientTransform="matrix(0.9859 -0.1672 0.1672 0.9859 -44.6076 -28.1278)">
		<stop  offset="0" style="stop-color:#6D496A"/>
		<stop  offset="0.485" style="stop-color:#5B3361"/>
		<stop  offset="0.9987" style="stop-color:#4B275E"/>
	</linearGradient>
	<path class="st11" d="M54.8,59.4c0.1,3.5,0.1,6.9-0.6,10.3c0,0,0,0.1,0,0.1C54.8,66,53,51.4,53,51.4C48.8,25.5,36.3,20.6,35,20.2
		c4,1.1,7.8,3.3,10.2,6.9C55.4,41.8,54.8,59.4,54.8,59.4z"/>
	<path class="st12" d="M54.8,59.4c0.1,3.5,0.1,6.9-0.6,10.3c0,0,0,0.1,0,0.1c0,0.2-0.1,0.3-0.1,0.5c-0.6,2.7-1.5,5.5-3.6,7.5
		c-0.8,0.8-1.7,1.3-2.7,1.7c-1.9,0.7-4,0.7-6.1,0.7c-3,0-6.1-0.4-8.9-1.4c-0.2-0.1-0.5-0.2-0.7-0.3c11.3,0.7,16.7-7.8,16.7-7.8
		c5-6.9,4.9-21.3,4.9-22.2C55,54.9,54.8,59.4,54.8,59.4z"/>
	<path class="st8" d="M10.8,40.3c-0.8,6.6,1.2,13.6,7,16.6c5,2.6,10.8,0.5,14.7-3.1c6.7-6.2,6.7-21.8-1.1-27.1
		c-2.1-1.4-4.3-2.4-6.8-2.3c-4,0.1-7.6,2.7-10,5.8C12.6,32.8,11.3,36.5,10.8,40.3z"/>
	<path class="st9" d="M19.3,52.7c0.9,0.3,1.9,0.4,3.1,0.2c4-0.8,6.5-5.3,7.6-8.8c0.9-3,1.3-6.3,1-9.3c-0.2-2.3-0.9-4.7-2.5-6.4
		c-1.9-2-5.2-2.9-7.8-1.7c-0.8,0.4-1.6,0.9-2.3,1.5c-1.6,1.3-3,3-4,4.8c-1.3,2.3-1.6,6.1-1.3,8.7c0.2,2.1,0.8,4.1,1.7,6
		C15.9,49.8,17.2,51.9,19.3,52.7z"/>
	<path class="st13" d="M21.1,36.1c-0.6,2.9-2.5,5-4.2,4.7c-1.7-0.3-2.7-3-2.1-5.9c0.6-2.9,2.5-5,4.2-4.7
		C20.8,30.5,21.7,33.2,21.1,36.1z"/>
	<path class="st13" d="M18.7,45.7c-0.1,1.1-0.7,1.9-1.4,1.8c-0.7-0.1-1.2-1-1.1-2c0.1-1.1,0.7-1.9,1.4-1.8
		C18.4,43.7,18.8,44.6,18.7,45.7z"/>
	<path class="st14" d="M52.8,18.4c1,1.2,1.1,2.7,0.2,3.4c-0.9,0.7-2.3,0.3-3.3-0.9c-1-1.2-1.1-2.7-0.2-3.4
		C50.3,16.9,51.8,17.2,52.8,18.4z"/>
</g>
</svg>
