<?xml version="1.0" encoding="utf-8"?>
<!-- Generator: Adobe Illustrator 25.2.3, SVG Export Plug-In . SVG Version: 6.00 Build 0)  -->
<svg version="1.1" id="Capa_1" xmlns="http://www.w3.org/2000/svg" xmlns:xlink="http://www.w3.org/1999/xlink" x="0px" y="0px"
	 width="125.1px" height="120.3px" viewBox="0 0 125.1 120.3" style="enable-background:new 0 0 125.1 120.3;" xml:space="preserve"
	>
<style type="text/css">
	.st0{fill:#B7D44D;}
	.st1{fill:#87B643;}
	.st2{fill:#5A893C;}
	.st3{fill:#DFF970;}
	.st4{fill:#F5FFBD;}
	.st5{fill:#FFFFFF;}
	.st6{opacity:0.3;fill:#FFFFFF;}
	.st7{fill:#E1E59E;}
	.st8{fill:#D3D38D;}
	.st9{fill:#295114;}
</style>
<g id="XMLID_2955_">
	<g id="XMLID_2941_">
		<path id="XMLID_2977_" class="st0" d="M93.1,58c0,5.2-0.2,10.5-0.6,15.6c-0.8,10.9-2.4,21.2-4.3,29c-2,7.9-4.4,13.3-6.9,14.1
			c-11.7,4-16.8,2.9-22.2,2c-1-0.2-3.6-1.7-7.1-4.5C36.2,101.6,2.7,63.6,25,15.2c0.3-0.6,5.5-4.2,14.7-7.1c0,0,0,0,0,0c0,0,0,0,0,0
			c1.3-0.4,2.7-0.8,4.2-1.1c0,0,0,0,0.1,0c0,0,0,0,0,0c4.5-1.1,9.6-1.9,15.4-2.2c0.6,0,1.3,0,1.9-0.1c0.1,0,0.2,0,0.2,0
			c0.8,0,1.7,0,2.5,0h0c0.7,0,1.5,0,2.2,0h0c1.5,0,3.1,0.1,4.6,0.3c0.2,0,0.4,0,0.7,0.1c0.8,0.1,1.6,0.2,2.4,0.2
			c4.4,0.5,7.9,3.3,10.6,7.5c0.1,0.2,0.2,0.3,0.3,0.5C90.9,23.1,93.2,40.3,93.1,58z"/>
		<path id="XMLID_2938_" class="st1" d="M83.6,101.9c-0.2,0.4-0.4,0.8-0.8,1.1c0.4-2.6,0.7-6.9-0.3-10.7c-1.6-5.8-4.2-12.2-2.2-24.1
			c0,0-5.8-1.1-6.6-6.1c-0.8-5-0.5-9.8-1.8-12.5c-1.3-2.7-5.1-3.2-5.1-3.2s4.5,3.1,4.3,7.5c-0.2,3.8-0.3,11.1,3.4,15
			c1.2,1.2,1.8,2.8,1.8,4.5c-0.1,3.4,0.1,8.8,1.7,12.3c2,4.5,4.5,16.3,2.6,18.2c-4.3,3.7-15.8,6.5-11.5,0.8c4.9-6.5,8.4-11,6.3-13.9
			c-2.2-2.9-7.1-4.3-7.1-4.3s-10.6,12.1-15.4,25.6c-0.3,0.8-0.5,1.5-0.8,2.3c3.5,2.8,6.1,4.3,7.1,4.5c5.4,0.9,10.6,1.9,22.2-2
			c1.8-0.6,3.6-3.7,5.3-8.5c0.6-1.7,1.1-3.5,1.6-5.6C86.1,101,84.2,100.6,83.6,101.9z"/>
		<path id="XMLID_2944_" class="st2" d="M86.6,108.1c-1.6,4.8-3.4,7.9-5.3,8.5c-11.7,4-16.8,2.9-22.2,2c-1-0.2-3.6-1.7-7.1-4.5
			c0.2-0.8,0.5-1.5,0.8-2.3c1.6-0.4,3.7-0.5,6.5-0.3c0,0,12.5,3.6,23.2-2.3C83.9,108.6,85.3,108.2,86.6,108.1z"/>
		<path id="XMLID_2971_" class="st1" d="M83.3,54.6c-0.4,1.3-2.8,12.1-3.1,13.6c0,0-0.9-1.3-3.4-2.2c2.1-6.3,1.6-16,1.1-20.8
			c-0.5-4.8-4.4-6.2-3.9-12.4s0.2-9-1.3-10.2c-1.4-1.2-9-2.5-9-2.5l-1.2-1.4c0,0,4.4-1.7,17.4-1.2C77.6,43.7,83.4,37,83.3,54.6z"/>
		<path id="XMLID_2827_" class="st2" d="M62.8,19.2c0,0,1.3,0.8,5.6,0.4c4.3-0.4,5.8,1.4,7.4,1.7c1.6,0.2,2.2,2,1.4,8.5
			c-0.8,6.5,0.8,8.3,2.1,12.2c1.3,3.9,2.4,12.3-1.9,24.8l2.9,1.5c0,0,3.9-13.2,3.4-17.3c-0.5-4-4.2-14.3-4.1-17.6
			c0.1-3.3,1.3-13.3,0.5-15.5c0,0-9.3-0.3-9.6-0.3C70,17.4,62.8,19.2,62.8,19.2z"/>
		<path id="XMLID_2979_" class="st3" d="M76.4,65L76.4,65c-0.2-0.1-2.9-1.7-3.4-9.1c-0.5-7.6-2.5-7.2-5-9.6
			c-2.5-2.4-4.2-4.1-2.4-11.5c1.7-7.1,0.9-12-1-14.3c-0.1-0.1-0.2-0.2-0.3-0.3c0,0,5.8,0.1,5.8,3.9c0.1,3.8-1.3,11.7,0,14.8
			c1.3,3.1,5.7,3.8,5.7,9C75.7,53.1,76.4,65,76.4,65z"/>
		<path id="XMLID_2972_" class="st4" d="M76.4,65c-0.2-0.1-2.9-1.7-3.4-9.1c-0.5-7.6-2.5-7.2-5-9.6c-2.5-2.4-4.2-4.1-2.4-11.5
			c1.7-7.1,0.9-12-1-14.3c0-0.2,0.1-0.3,0.1-0.3s5,1.4,4.2,9c-0.8,7.6-2.6,10-1.6,12.8c1,2.8,5.9,3.6,6.8,7.4
			C74.9,53,74.3,62.7,76.4,65z"/>
		<path id="XMLID_2983_" class="st3" d="M64.6,38.3v3.8c0,0-3.2,0.8-3.2,2.9c-0.2,7.6-3.7,13-6.9,13.8c-0.5,0.1-1,0.1-1.5,0
			c-0.9-0.2,3.4-3.7,4.3-7.4c1-3.8-0.1-6.5,0.7-8c0.7-1.5,3.4-4.8,6.3-5.1C64.4,38.3,64.5,38.3,64.6,38.3z"/>
		<path id="XMLID_2939_" class="st1" d="M41.1,7.9c0,0-2.1,3.5,2.3,3.8c4.5,0.3,2.8,3.6,4.7,5c1.8,1.4,6.4,0.9,7.3,2.7
			c0.9,1.8,1.5,7.3,5.1,6.9c3.5-0.4,4.6-3.2,3.8-4.5c0,0,2.4,3,2.4,6.8c0,3.8-5.5,4.5-6.8,3.7c-1.3-0.8-5.7-4.3-5.9-8.8
			c-0.3-4.5-4.4-3.2-6.2-3.8c-1.9-0.6-3.1-4-3.4-5c-0.2-1-2.1-1.6-9.5-1s-4.8-1.6-4.2-2C31.3,11.3,41.1,7.9,41.1,7.9z"/>
		<path id="XMLID_2984_" class="st3" d="M79.9,17.5c0,0-6.6-0.1-8.9-0.1c-2.3,0-6.2,1.7-8.5,1.3c-2.2-0.4-6.9-2.4-7.9-4.5
			c-0.9-2.1-1.4-6.1-8.2-6.1c-1.2,0-2,0-2.3-0.1c-0.6-0.1-0.1-0.3,0.7-0.5c0.4-0.1,0.8-0.2,1.3-0.3c1.1-0.2,2.3-0.4,2.3-0.4
			s6.1-1.1,7.8,1.1c1.7,2.2,1.7,6.6,7,6.3c5.3-0.3,7.6-1.4,10.8-0.6c3.3,0.8,5-0.9,5-0.9l0.5,2.5L79.9,17.5z"/>
		<path id="XMLID_2821_" class="st2" d="M54.7,26.4c0,0,2.8,2.7,5.3,2.9c2.5,0.2,6.8-1.8,5.7-4.7c0,0,2.6,5.3-0.9,13
			c0,0-6.3,2.3-6.8,5.7c-0.6,3.4,0.4,7.1-1.7,10.4c-2.1,3.3-4.4,4.7-4.4,4.7s1-2.6-0.6-3.7c-1.6-1.2-3.7-6.4,2-12.2s9-8.8,6.6-10.7
			C57.5,30,55.5,30,54.7,26.4z"/>
		<path id="XMLID_2982_" class="st5" d="M79.9,17.5c0,0-6.6-0.1-8.9-0.1c-2.3,0-6.2,1.7-8.5,1.3c-2.2-0.4-6.9-2.4-7.9-4.5
			c-0.9-2.1-1.4-6.1-8.2-6.1c-1.2,0-2,0-2.3-0.1c0.2-0.2,0.4-0.4,0.7-0.5c0.3-0.2,0.8-0.2,1.3-0.3c0.1,0,0.2,0,0.4,0
			c0,0,5.5-0.7,7.1,1.5s4,9.3,9.5,8.2c5.5-1.1,6-1.6,7.9-1.4c1.7,0.2,5.9,0.6,8.5-0.3L79.9,17.5z"/>
		<path id="XMLID_2953_" class="st5" d="M64.3,38.3c0,0.5,0,1-0.1,1.6c0,0-4.3,1.5-4.5,4.1c-0.2,2.6,1.4,8.8-5.2,14.8
			c0,0-0.1,0.1-0.1,0.1c-0.5,0.1-1,0.1-1.5,0c-0.9-0.2,3.4-3.7,4.3-7.4c1-3.8-0.1-6.5,0.7-8C58.7,41.9,61.4,38.6,64.3,38.3z"/>
		<path id="XMLID_2936_" class="st6" d="M59.9,7c-0.5,0.1-0.8,0.6-0.5,1c0.2,0.4,0.5,1,0.6,1.6c0.3,1.6,3.8,2.7,7.5,1.4
			c3.8-1.4,6.4,0.3,7.3,0c0.9-0.3-0.1-3.6-0.9-3.7C73.3,7.2,68.5,5.9,59.9,7z"/>
		<path id="XMLID_2822_" class="st6" d="M61.7,7.3c-0.4,0-0.6,0.2-0.4,0.4c0.2,0.2,0.4,0.4,0.5,0.6c0.3,0.6,2.9,1.1,5.8,0.5
			c2.9-0.5,4.9,0.1,5.6,0c0.7-0.1-0.1-1.4-0.7-1.4C72,7.4,68.3,6.9,61.7,7.3z"/>
	</g>
	<g id="XMLID_2940_">
		<path id="XMLID_2987_" class="st0" d="M69.5,96.3c-1.7,1.6-3.4,2.9-4.9,4.2l0,0c-3.3,2.8-5.8,5.2-5.7,9.9v0c0,1.9,0.4,4.1,1.3,6.8
			c0.2,0.5,0.3,1,0.5,1.6c0,0,0,0-0.1,0c-1.7,0.1-17,1-31.7-5c-3.4-1.4-6.8-3.2-10-5.5c-5.9-4.2-11-10-14.2-18.1
			c-1.7-4.4-2.9-9.4-3.4-15.1c-0.3-3.6-0.4-7.1-0.4-10.4c0-3.5,0.2-6.8,0.5-10C3,35.7,9.5,23.2,15.5,15.9c4.4-5.4,8.6-8,10.4-8.5
			c5-1.3-0.9,4.5,5.7,5.9c6.6,1.4,12.4-3.2,13.4,3.4c1,6.6,8.4-0.3,9.2,8.4c0.8,8.7,11.5,4.1,2.6,13.5c-8.9,9.4-8.8,13.7-5.5,16.2
			c3.3,2.4-3.1,4.6,2.3,4.5c5.4-0.1,9.3-13.2,10-6.7c0.8,6.5,7.6,5.5,3.4,10c-4.2,4.5,3.4,5.7,0.3,9.5c-3.1,3.8,4.7,9.9,0.7,13
			C64,88.3,76.9,89.4,69.5,96.3z"/>
		<path id="XMLID_2989_" class="st3" d="M69.5,96.3c-1.1,1.1-2.3,2-3.4,2.9c-0.5,0.4-1.1,0.9-1.6,1.3c4.9-4.9,1.2-9.5-0.8-11.8
			c-2-2.3,1.7-5.4,2.1-6.5c0.4-1.1-1.3-4.3-2.9-8.4c-1.5-4,0.8-5.7-0.5-8.2c-1.3-2.6-9.1-0.3-15,3.5c-5.9,3.8-4.6-0.5-3.4-3.5
			c1.2-3,3.2-2.8-0.3-11.1c-3.5-8.3,8.6-17.1,5.7-19.9c-2.9-2.8-0.3-8.5-5.2-7.9c-4.9,0.6-6.2-5.7-7.2-8.5c-1-2.8-12.9,1.7-14.4-1.9
			c-1.5-3.6-7,0-7,0c-0.1-0.1-0.2-0.2-0.3-0.3c4.4-5.4,8.6-8,10.4-8.5c0.4-0.1,0.7-0.2,1-0.2c3.1-0.2-1.4,4.8,4.7,6.1
			c6.6,1.4,12.4-3.2,13.4,3.4c1,6.6,8.4-0.3,9.2,8.4c0.8,8.7,11.5,4.1,2.6,13.5c-8.9,9.4-8.8,13.7-5.5,16.2c3.3,2.4-3.1,4.6,2.3,4.5
			c5.4-0.1,9.3-13.2,10-6.7c0.8,6.5,7.6,5.5,3.4,10c-2.8,3-0.4,4.5,0.7,6.3c0.5,0.9,0.7,1.9-0.4,3.2c-0.7,0.9-0.8,1.8-0.7,2.9
			c0.5,3.5,4.5,7.7,1.4,10.1C64,88.3,76.9,89.4,69.5,96.3z"/>
		<path id="XMLID_2952_" class="st1" d="M62.5,84.1c-3.3,1.2-18.8,16.5-39.9,12.3C15.3,95,9.3,92.9,4.6,90.3
			c-1.7-4.4-2.9-9.4-3.4-15.1c-0.3-3.6-0.4-7.1-0.4-10.4c0-3.5,0.2-6.8,0.5-10c0.6-0.6,0.9-1,0.9-1s7.6,22.9,16.9,24.1
			c9.4,1.2,14.2-19.4,19.5-20.2c5.3-0.7,6.3,0.6,4.6,5.8c0,0-4.2,3.7-5.7,8.3c-1.5,4.7-0.2,9.3,5,4.7C47.8,71.9,59,65.4,60.4,70
			C61.9,74.7,64,81,62.5,84.1z"/>
		<path id="XMLID_2964_" class="st2" d="M58.7,109.1c0,0,0.1,0.5,0.2,1.3v0c0.2,1.5,0.7,4.2,1.3,6.8c0.1,0.5,0.2,1.1,0.4,1.6
			c-1.7,0.1-17,1-31.7-5c-3.4-1.4-6.8-3.2-10-5.5c-9-6.5-16.3-16.8-17.6-33.2c-0.3-3.6-0.4-7.1-0.4-10.4c1.8,3.7,6.7,12.5,10.7,17.7
			c6.1,8.1,15.9,10.2,24.8,7.5c8.9-2.7,25.3-10.1,26.2-7.1c0.9,3-4.8,2.9-2.1,5.7c2.7,2.8,6.4,6.1,0,10.4
			C54.1,103.4,55.3,108.2,58.7,109.1z"/>
		<path id="XMLID_2991_" class="st4" d="M59.9,95.2c-2.4,0.2-4.5,0.1-6.4,0c-2.4-0.1-4.7-0.2-7.2,0.2c-0.8,0.2-1.7,0.2-2.4,0.2
			c-5,0-9-3-10.4-4.1c-1.5,0.2-3,0.4-4.4,0.4c-3.7,0-6.9-0.7-9.2-1.5c1.9,5.2,4.6,10.4,8.1,15.3c1.1,0.6,3.1,1.4,5.1,1.4
			c2,0.1,3.7-0.6,5.1-1.9c4.9-4.2,10.6-3,13.7-1.8c0.6,0.2,0.4,1.1-0.2,1.1c-3.6-0.1-9.7,0.1-12,2.3c-1.9,1.8-4.2,2.5-6.4,2.5
			c-0.9,0-1.9-0.1-2.8-0.3c1.8,2.1,6,6.4,7.2,7.7c-1.7,0-3.4-0.5-5.1-1.2c-1.8-0.7-3.7-1.6-5.5-2.3C25,110,18.9,101.1,15.2,89
			c0,0,0,0,0,0c-1.6-0.7-4.3-2.5-6.9-7.3c-0.1,0-0.3,0-0.4,0c-1.4,0-3.9-0.5-7-3.1l1.4-1.7c2.1,1.8,3.8,2.3,4.9,2.5
			c-0.5-1.2-1.1-2.6-1.6-4.2c-0.1-0.4,0.4-0.6,0.6-0.3c2.2,3.3,6.6,9.8,8.1,11c-0.9-3.7-1.6-7.6-1.9-11.8c-0.3-3.5-0.4-7.1-0.2-10.9
			c0-0.1,0-0.1,0-0.1c-1.5-2.4-6.6-11.4-6.5-23.9c0-0.4,0.6-0.5,0.7-0.1c1.3,5,4.6,16.8,6.2,20.1c1.9-15.6,9.2-31.9,23.5-41.1
			c1-0.7,1.8,0.7,0.9,1.6c-6,5.9-15.3,16.4-19.2,32.8c-0.8,3.3-1.4,6.9-1.7,10.7c2-2.5,5.1-5.9,9.5-9.1c0.3-0.5,0.8-1.2,1.5-2.1
			c2.4-3.2,6.5-8.5,8.1-15.2c0.9-3.5,3.7-5.7,6.1-7.6c1.1-0.8,2.1-1.6,2.9-2.4c0.3-0.3,0.8,0,0.7,0.4c-0.4,1.4-1.1,2.9-2.2,3.8
			c-2.3,1.8-4.7,3.6-5.3,6.4c-1.4,5.5-4.2,10.1-6.6,13.4c3.1-1.7,6.7-3.3,10.8-4.5c0.4-0.1,0.7,0.5,0.3,0.7
			c-4,2.2-11.5,6.5-14.7,8.8c0,0,0,0,0,0s0,0,0,0c-6.4,4.6-10,9.5-11.3,11.5c-0.1,6.6,0.8,13.6,3.1,20.6c1.2,0.5,2.8,1,4.8,1.4
			c0.7-0.2,9.1-3.5,10.5-11.9c0.9-5.7,3.9-10,6.3-13.4c0.6-0.9,1.2-1.8,1.7-2.5c0.3-0.5,1.1-0.2,1.1,0.4c-0.1,1.2-0.3,2.6-0.9,3.5
			c-2.3,3.3-5.1,7.3-5.9,12.5c-1.1,6.4-5.5,10.1-8.7,12c5.2,0.2,11.8-1.1,18-6.8c2-1.9,4-3.3,5.9-4.7c1.8-1.4,5.5-3.4,7.9-4.7
			c0.4-0.2,0.8,0.3,0.5,0.7c-2.4,2.4-4.8,4.2-7.1,5.9c-1.9,1.4-3.8,2.8-5.8,4.6c-3.7,3.4-7.5,5.3-11.1,6.3c2,1.4,5.6,3.1,9.5,2.4
			c2.7-0.5,5.1-0.4,7.7-0.3c1.5,0.1,4.3,0.7,6.4,1.2C60.6,94.3,60.5,95.1,59.9,95.2z"/>
		<path id="XMLID_2942_" class="st7" d="M38,116.7c-1.7,0-3.4-0.5-5.1-1.2c-1.8-0.7-3.7-1.6-5.5-2.3C25,110,18.9,101.1,15.2,89
			c0,0,0,0,0,0c-1.6-0.7-4.3-2.5-6.9-7.3c-0.1,0-0.3,0-0.4,0c-1.4,0-3.9-0.5-7-3.1l1.4-1.7c2.1,1.8,3.8,2.3,4.9,2.5
			c-0.5-1.2-1.1-2.6-1.6-4.2c-0.1-0.4,0.4-0.6,0.6-0.3c2.2,3.3,6.6,9.8,8.1,11c-0.9-3.7-1.6-7.6-1.9-11.8c-0.3-3.5-0.4-7.1-0.2-10.9
			C12.2,65.5,11.8,94.8,38,116.7z"/>
		<path id="XMLID_3000_" class="st0" d="M123.8,74.6c0,0.3-0.1,0.7-0.1,1c-0.1,1-0.3,2.1-0.5,3.1c0,0.2-0.1,0.4-0.1,0.6
			c-0.4,1.9-0.8,3.8-1.4,5.7c0,0,0,0,0,0c-2,6.7-5.4,12.9-11,17.9c-3.1,2.8-6.8,5.2-11.3,7.1c-15.3,6.6-14.2,9.6-18,8.5
			c-2.8-0.8,0.3-5.4,1.7-12c0.5-2.5,0.8-5.3,0.5-8.3c-1.1-8.9-4.1-13-4-21.7c0-1.9,0.2-4.1,0.6-6.6c2.3-13.8,5.2-16.7,2-26.4
			c-3.2-9.7-3-8.2-2.1-16.7c0.9-8.3-1.1-19.6-5.6-21.3c-0.1,0-0.3-0.1-0.4-0.1c0,0,6.9-6.1,12.2-4.1c3.6,1.4,4.4,3.7,5.9,6.1
			c0,0,0.3,0.3,0.9,0.8c1.9,1.6,6.7,5.3,14,7.7c0.7,0.2,1.5,0.8,2.4,1.6c4,3.7,9.4,13.1,12.2,23.5c0.6,2.2,1.1,4.4,1.4,6.6
			c0.1,0.4,0.1,0.8,0.2,1.2c0.5,4.6,1,9.6,1.1,14.7C124.3,67.1,124.2,70.9,123.8,74.6z"/>
		<path id="XMLID_2993_" class="st1" d="M123.7,75.6c-0.1,1-0.3,2.1-0.5,3.1c0,0.2-0.1,0.4-0.1,0.6c-0.4,1.9-0.8,3.8-1.4,5.7
			c0,0,0,0,0,0c-2,6.7-5.4,12.9-11,17.9c-3.1,2.8-6.8,5.2-11.3,7.1c-15.3,6.6-14.2,9.6-18,8.5c-2.8-0.8,0.3-5.4,1.7-12
			c0.5-2.5,0.8-5.3,0.5-8.3c-1.1-8.9-4.1-13-4-21.7c0-1.9,0.2-4.1,0.6-6.6c2.3-13.8,5.2-16.7,2-26.4c-3.2-9.7-3-8.2-2.1-16.7
			c0.9-8.3-1.1-19.6-5.6-21.3c-0.1,0-0.3-0.1-0.4-0.1c0,0,6.9-6.1,12.2-4.1c3.6,1.4,4.4,3.7,5.9,6.1c0,0,0.3,0.3,0.9,0.8
			c0,0-5.5-1.1-3.3,7.8c2.2,8.9,9.2,12.9,10.4,14.2c1.2,1.3,3.5,5.8,1.1,11.5c-2.4,5.7,3.3,7.3,1.1,10.2c-2.3,2.9-4.5,5.4-2.8,9.4
			c1.7,4,6.4,8.5,2.6,14.3c-3.8,5.8,1.7,7.3,2.9,7.4C106,83,116.7,81.6,123.7,75.6z"/>
		<path id="XMLID_2994_" class="st2" d="M123.1,79.2c-0.4,1.9-0.8,3.8-1.4,5.7c0,0,0,0,0,0c-2,6.7-5.4,12.9-11,17.9
			c-3.1,2.8-6.8,5.2-11.3,7.1c-15.3,6.6-14.2,9.6-18,8.5c-2.8-0.8,0.3-5.4,1.7-12c0.5-2.5,0.8-5.3,0.5-8.3c-1.1-8.9-4.1-13-4-21.7
			C85.3,52.2,93,30.1,97.1,32.7c0,0,0.8,5.3-0.6,10.3c-1.4,5,2.8,5.3,0.8,8.3c-1.9,3-5.8,5.8-4.2,8.5c1.6,2.7,5.8,7,2.5,11.3
			c-3.2,4.3-5.2,8.2-2.9,11.8c2.3,3.7-4.1,17,0,16.4C96.8,98.8,110.7,98.4,123.1,79.2z"/>
		<path id="XMLID_3001_" class="st4" d="M123.8,74.6c-0.2,1.4-0.3,2.7-0.6,4.1c-0.2,0.2-0.4,0.3-0.6,0.4c-0.2,2-0.5,4-0.9,5.8
			c0,0,0,0,0,0c-2,6.7-5.4,12.9-11,17.9c0.5-0.9,1-1.7,1.4-2.3c-0.8,0.3-1.6,0.6-2.4,0.7c-2,0.3-4.1,0-6-1.5
			c-2.3-1.8-7.8-1.1-10.9-0.5c-0.5,0.1-0.8-0.7-0.3-1c2.6-1.6,7.4-3.6,12.3-0.3c1.5,1,3,1.4,4.8,1.1c1.8-0.4,3.4-1.4,4.3-2.1
			c2.4-5.2,3.9-10.5,4.8-15.8c-1.9,1-4.6,2.2-7.8,2.7c-1.2,0.2-2.5,0.3-3.9,0.3c-1,1.3-4,4.7-8.5,5.4c-0.7,0.1-1.4,0.2-2.2,0.1
			c-2.2-0.1-4.2,0.3-6.3,0.8c-1.7,0.4-3.5,0.8-5.6,0.9c-0.5,0-0.7-0.8-0.2-1c1.7-0.8,4.1-1.8,5.4-2c2.2-0.5,4.4-1,6.8-0.8
			c3.6,0.2,6.5-2,8-3.6c-3.4-0.5-7-1.8-10.7-4.4c-2-1.4-3.9-2.5-5.8-3.6c-2.3-1.3-4.6-2.6-7.1-4.6c-0.4-0.3-0.1-0.9,0.3-0.7
			c2.3,0.9,5.8,2.4,7.7,3.4c1.9,1.1,3.9,2.2,6,3.7c6.4,4.6,12.3,4.9,16.9,3.9c-3.1-1.4-7.6-4.3-9.5-10.3c-1.6-4.9-4.7-8.3-7.2-11.1
			c-0.7-0.8-1.1-2-1.4-3.2c-0.1-0.6,0.5-0.9,0.9-0.5c0.6,0.7,1.2,1.4,1.9,2.2c2.6,2.9,5.9,6.6,7.6,11.9c2.5,7.8,10.4,9.8,11.1,9.9
			c1.7-0.7,3.1-1.5,4-2.1c0.9-7,0.6-13.9-0.5-20.2c-1.4-1.7-5.4-5.9-11.7-9.4c0,0,0,0,0,0c-3.2-1.8-10.4-4.7-14.3-6.3
			c-0.4-0.2-0.2-0.8,0.2-0.7c3.8,0.6,7.2,1.5,10.2,2.8c-2.6-2.8-5.8-6.8-7.9-11.9c-1-2.6-3.4-4-5.7-5.3c-1.1-0.7-2-2.1-2.5-3.3
			c-0.2-0.4,0.2-0.8,0.6-0.5c0.8,0.7,1.8,1.3,2.9,1.9c2.5,1.5,5.3,3.2,6.6,6.4c2.5,6.1,6.9,10.7,9.5,13.4c0.7,0.7,1.3,1.3,1.7,1.8
			c4.4,2.5,7.7,5.2,9.8,7.3c-0.8-3.6-1.9-6.9-3.1-10c-6-15.2-15.8-23.8-22-28.6c-0.9-0.7-0.4-2.1,0.6-1.6c14,6.8,23,21.4,27.1,36
			c0.5-1.7,1-5.4,1.4-9.4c0.6,2.2,1.1,4.4,1.4,6.6c-0.6,3.1-1.4,5.4-1.8,6.4c0.8,3.6,1.3,7.1,1.6,10.6c0.4,4,0.4,7.9,0.1,11.5
			C123.2,75.8,123.5,75.3,123.8,74.6z"/>
		<path id="XMLID_3018_" class="st7" d="M123.8,74.6c-0.2,1.4-0.3,2.7-0.6,4.1c-0.2,0.2-0.4,0.3-0.6,0.4c-0.2,2-0.5,4-0.9,5.8
			c0,0,0,0,0,0c-1.6,5.4-4.2,10.5-8.1,14.9c-0.9,1-1.9,2-3,3c0.5-0.9,1-1.7,1.4-2.3c-0.8,0.3-1.6,0.6-2.4,0.7c-2,0.3-4.1,0-6-1.5
			c-2.3-1.8-7.8-1.1-10.9-0.5c-0.5,0.1-0.8-0.7-0.3-1c2.6-1.6,7.4-3.6,12.3-0.3c1.5,1,3,1.4,4.8,1.1c1.8-0.4,3.4-1.4,4.3-2.1
			c2.4-5.2,3.9-10.5,4.8-15.8c4.3-10.8,2.6-27.2,2.6-27.2c0.8,3.6,1.3,7.1,1.6,10.6c0.4,4,0.4,7.9,0.1,11.5
			C123.2,75.8,123.5,75.3,123.8,74.6z"/>
		<path id="XMLID_2996_" class="st6" d="M124.3,63.4c-3.7,2.9-7.5,4.4-9.3,4.8c-5.1,1.1-10.3-6.3-7-12.6c3.3-6.3-2.4-4.8-0.4-12.6
			c1.9-7.8-2.7-12.5-7.9-18.3c-5.2-5.8,1.7-7.3,1.7-7.3s3.4-0.8,8.1,0c4,3.7,9.4,13.1,12.2,23.5c0.6,2.2,1.1,4.4,1.4,6.6
			c0.1,0.4,0.1,0.8,0.2,1.2C123.7,53.3,124.2,58.3,124.3,63.4z"/>
		<path id="XMLID_2985_" class="st5" d="M67.8,69c-0.8-0.3-1.5-0.8-1.9-1.2c-2.3-2.8-2.1-5.7-1.3-6.8c0.8-1.1-1.8-3.3-2.5-4
			c-0.7-0.6-2.9,2.5-6.7,5.2c-3.8,2.6-8,0.8-6.9-1.9c1.1-2.8,0-3.9-1.4-6.3c-1.5-2.3-0.7-5.8,0.6-7.5c1.2-1.8,9.5-12.5,8.4-13
			c-1.1-0.4-5.2-3.5-5-7.1c0.2-3.7-1.3-4.2-6.1-4.2c-4.8,0-3-4.9-3.8-5.8c-0.8-0.9-6.9-0.3-12.6-0.7c-5.7-0.3-1.6-8.1-1.6-8.1
			c0,0,0-0.1,0.1-0.1c3.1-0.2-1.4,4.8,4.7,6.1c6.6,1.4,12.4-3.2,13.4,3.4c1,6.6,8.4-0.3,9.2,8.4c0.8,8.7,11.5,4.1,2.6,13.5
			c-8.9,9.4-8.8,13.7-5.5,16.2c3.3,2.4-3.1,4.6,2.3,4.5c5.4-0.1,9.3-13.2,10-6.7c0.8,6.5,7.6,5.5,3.4,10
			C64.4,65.6,66.8,67.2,67.8,69z"/>
		<path id="XMLID_2992_" class="st8" d="M123.8,74.6c-0.2,1.4-0.3,2.7-0.6,4.1c-0.2,0.2-0.4,0.3-0.6,0.4c-0.2,2-0.5,4-0.9,5.8
			c0,0,0,0,0,0c-1.6,5.4-4.2,10.5-8.1,14.9c7.4-12.6,9.1-35.3,9.1-35.3c0.4,4,0.4,7.9,0.1,11.5C123.2,75.8,123.5,75.3,123.8,74.6z"
			/>
		<path id="XMLID_2986_" class="st8" d="M32.8,115.4c-1.8-0.7-3.7-1.6-5.5-2.3C25,110,18.9,101.1,15.2,89
			c0.2,0.5,7.2,16.7,13.7,22.7C30.4,113.2,31.7,114.4,32.8,115.4z"/>
		<path id="XMLID_2967_" class="st5" d="M69.5,96.3c-1.1,1.1-2.3,2-3.4,2.9c-0.1-0.2,0-0.5,0.4-1c3.2-4,3-6,0.9-7.7
			c-2.1-1.8-2.5-3-2.1-5c0.4-2,3-2.3,1.8-5.1c-1.3-2.8-1.2-5.2-1.2-5.2s0.3-0.1,0.8-0.2c0.5,3.5,4.5,7.7,1.4,10.1
			C64,88.3,76.9,89.4,69.5,96.3z"/>
		<path id="XMLID_2965_" class="st9" d="M124,48.6c-1.8-15.9-11.6-31.9-16.7-33.6c-8.7-2.8-13.9-7.7-14.5-8.2
			c-0.3-0.4-0.5-0.8-0.8-1.3c-1.1-1.9-2.3-3.9-5.5-5c-5.2-1.9-11.4,2.9-12.8,4c-0.1,0-0.2,0-0.3,0c-0.6-0.1-1.2-0.1-1.8-0.2
			c-0.1,0-0.3,0-0.4,0c-0.6-0.1-1.2-0.1-1.8-0.1c-0.1,0-0.2,0-0.3,0c-0.7,0-1.3-0.1-2-0.1c0,0,0,0,0,0c-17.6-0.8-30.9,3.9-37.7,7.4
			C29,10.7,29,9.9,29,9.1c0-0.9,0.1-1.7-0.6-2.3c-0.7-0.6-1.8-0.4-2.7-0.2c-1.3,0.4-3.8,1.7-6.8,4.5c-2.4,2.2-5.9,6.1-9.3,12.1
			c-9.6,17-10.3,37.7-9.2,52c1,13.3,6.1,23.9,15,31.5c13.8,11.7,33.3,13,41.5,13c1.5,0,2.5,0,3.2-0.1c2.1,0.3,4.2,0.6,6.7,0.6
			c3.3,0,7.3-0.5,12.9-2.3c0,0,0,0.1,0,0.1c0.3,0.6,0.8,0.9,1.5,1.1c0.6,0.2,1.1,0.3,1.6,0.3c1.3,0,2.2-0.6,3.8-1.7
			c2.1-1.4,5.6-3.8,13.3-7.1c12.2-5.2,20.1-14.5,23.4-27.7C126.1,71.5,125.1,58.6,124,48.6z M80.7,41.9l0.6,1.9
			c2.2,6.6,1.5,9.8,0,16.1c-0.5,2-1,4.4-1.6,7.3c-1.7-1-2.9-2-3.6-2.6c-2.2-2.3-2.3-5.2-2.4-8.3c-0.1-3.8-0.2-7.8-4.7-10.3
			c-4.8-2.7-4.1-5.5-2.8-9.9c0.5-1.7,1-3.7,1.2-5.9c0.6-6.1-2.2-9.4-3.7-10.7c1-0.1,2.1-0.3,3.2-0.7c2.4-0.8,4.5-0.5,6.5-0.2
			c1.9,0.3,3.8,0.6,5.8-0.1c0.3,2.6,0.3,5.4,0,8.3c-0.1,0.7-0.1,1.3-0.2,1.8C78.3,34.7,78.3,34.8,80.7,41.9z M57.2,45.4
			c0.6,2.1-0.1,5.5-1.6,8.4c-0.7,1.3-1.5,2.4-2.4,3.2c0.2-0.8,0-1.9-1.3-2.8c-1.1-0.8-1.6-1.7-1.7-2.8c-0.2-2.7,2.2-6.8,7.3-12.1
			c2.9-3,3.9-4.8,3.7-6.2c-0.2-1.3-1.2-1.9-2.3-2.6c-1.6-1-3.4-2.1-3.8-5.4c-0.5-5.4-3.5-5.6-5.8-5.8c-1.9-0.2-3.1-0.2-3.5-2.6
			c-0.8-5-4.3-4.5-7.6-4.1c-2,0.2-4.2,0.5-6.5,0c-0.3-0.1-0.5-0.1-0.8-0.2c2.3-1.1,5.3-2.3,8.9-3.5c4.4-0.5,12.1-0.3,13.4,3.6
			c0.9,2.8,2.5,4.8,4.8,6c1,0.5,2.1,0.8,3.2,0.9c0.2,0.2,5.2,3.6,4.5,10.5c-0.2,2-0.7,3.8-1.2,5.6c-0.2,0.6-0.3,1.2-0.5,1.8
			C62.4,38,55.9,41,57.2,45.4z M73.7,16.8c-2.1-0.3-4.5-0.7-7.3,0.3c-2.8,1-5.5,0.9-7.6-0.1c-1.9-0.9-3.2-2.7-4-5
			c-1-3.2-4.8-4.4-8.3-4.8C52.5,6,60,5.1,68.8,5.7c1.7,0.1,3.4,0.3,5.1,0.5c0.1,0,0.2,0.1,0.3,0.1c2.1,0.8,4.1,4.9,4.9,10.4
			C77.3,17.4,75.6,17.1,73.7,16.8z M16.4,105.5C7.9,98.2,3,88,2,75.1C-1.7,26.8,21.7,9.5,26.1,8.3c0.5-0.1,0.8-0.2,1-0.2
			c0.1,0,0.2,0,0.2,0c0.1,0.2,0,0.6,0,0.9c0,1.5-0.1,4.2,4.1,5.1c2.6,0.5,4.9,0.2,7,0c3.7-0.5,5.3-0.5,5.8,2.7c0.6,3.7,3,3.9,5,4
			c2.1,0.2,3.8,0.3,4.2,4.3c0.4,4.1,2.9,5.6,4.6,6.6c0.9,0.6,1.5,0.9,1.5,1.4c0.1,0.8-1,2.4-3.3,4.9c-5.5,5.8-8,10.2-7.7,13.4
			c0.1,1.6,0.9,2.9,2.4,4c0.9,0.7,0.7,1.1,0.2,2c-0.3,0.5-0.7,1.2-0.3,1.8c0.4,0.7,1.4,0.8,3,0.8c3.1,0,5.6-3.6,7.4-6.2
			c0.5-0.7,1.2-1.7,1.6-2.1c0.1,0.2,0.1,0.5,0.2,0.9c0.4,3.3,2.2,4.9,3.5,6c0.7,0.6,1.2,1,1.2,1.5c0,0.3-0.2,0.8-1.1,1.9
			c-2.7,2.9-1.2,4.9-0.1,6.3c1,1.3,1.4,2,0.4,3.2c-1.8,2.2-0.6,4.9,0.5,7.4c1.2,2.7,1.8,4.3,0.3,5.5c-0.8,0.6-1.1,1.2-1.1,1.9
			c0,1.1,1,2,2.1,2.8c1.1,0.9,2.4,1.9,2.4,3.1c0,1-0.7,2.1-2.1,3.4c-1.3,1.2-2.6,2.3-3.8,3.3c-5.4,4.4-9.4,7.7-5.7,19.1
			C54.3,118.3,31.7,118.4,16.4,105.5z M79.4,116.4c-8.9,2.8-13.6,2.5-18.1,1.8c-3.8-10.9-0.5-13.6,4.9-18c1.2-1,2.5-2.1,3.9-3.3
			c1.8-1.7,2.6-3.2,2.6-4.7c-0.1-2-1.7-3.3-3-4.3c-0.6-0.5-1.5-1.2-1.5-1.5c0-0.1,0.1-0.3,0.5-0.6c2.6-2,1.3-4.9,0.2-7.5
			c-1-2.2-1.9-4.2-0.7-5.6c1.9-2.3,0.6-4-0.4-5.2c-1-1.4-1.7-2.3,0-4.2c1.1-1.2,1.6-2.2,1.6-3.1c-0.1-1.1-0.9-1.9-1.8-2.6
			c-1.2-1.1-2.7-2.3-3-5c-0.1-1.1-0.4-2.3-1.3-2.5c-1.1-0.3-2,0.9-3.4,3c-1.5,2.2-3.6,5.2-5.8,5.4c1.1-1,2.2-2.3,3.1-3.9
			c1.8-3.3,2.5-7.2,1.8-9.7c-0.7-2.4,2.9-4.6,5-5.6c-0.4,3,0.3,5.6,4.5,8c3.6,2.1,3.7,5.3,3.8,8.9c0.1,3.3,0.2,6.7,2.9,9.5
			c0.8,0.8,2.4,2,4.5,3.2c0,0.3-0.1,0.5-0.1,0.8c-1.5,9.2-0.1,14,1.3,19.2c0.8,2.8,1.6,5.6,2,9.4c0.3,2.5,0.2,5.2-0.4,8
			c-0.5,2.2-1.1,4.1-1.7,5.8C80,113.9,79.5,115.3,79.4,116.4z M99.1,109.2c-7.9,3.4-11.4,5.8-13.6,7.3c-2,1.4-2.4,1.7-3.9,1.2
			c-0.3-0.1-0.4-0.2-0.4-0.3c-0.4-0.7,0.3-2.6,1-4.7c0.6-1.8,1.2-3.7,1.7-6c0.6-3,0.8-5.8,0.5-8.5c-0.5-3.9-1.3-6.8-2.1-9.6
			c-1.5-5.2-2.7-9.7-1.3-18.5c0.7-4,1.4-7,2-9.7c1.5-6.4,2.3-10,0-17l-0.6-1.9c-2.3-6.8-2.3-6.8-1.6-12.7c0.1-0.6,0.1-1.2,0.2-1.8
			c0.8-7.1-0.6-18.2-5-21.5c-0.1-0.1-0.1-0.2-0.1-0.3c2.1-1.5,6.6-4.4,10.2-3c2.6,1,3.6,2.5,4.7,4.3c0.3,0.5,0.6,0.9,0.9,1.4
			l0.1,0.1c0.2,0.2,5.6,5.6,15.2,8.7c4.1,1.4,13.7,16.8,15.5,32.2C125.1,72.6,124.5,98.3,99.1,109.2z"/>
		<path id="XMLID_2763_" class="st6" d="M9.2,40c0,0,3.5-13.1,7.7-18.2c4.2-5.1,5.4,1.2,11.7,0c6.3-1.2,5.1,4,7.7,6.7
			c2.7,2.7,8.7,2.6,6.4,8.2s-4.6,4.8-4.8,9.6c-0.2,4.7-4.8,11.6-12.5,16.9C17.7,68.6,1.9,70,9.2,40z"/>
		<path id="XMLID_2762_" class="st6" d="M12.4,37.1c0,0,2.5-9.4,5.5-13.1c3-3.7,11.6,2.5,12.7,5.5c0.9,2.6,7.6,1.2,5.9,5.3
			c-1.7,4.1-3.3,3.5-3.4,6.9c-0.2,3.4-3.4,8.4-9,12.2C18.5,57.7,7.2,58.7,12.4,37.1z"/>
		<path id="XMLID_2937_" class="st6" d="M102.5,25.7c-1-1-1.5-2.5-1-3.8c0.4-1.1,1.4-2.1,3.6-1.7c4.8,0.7,10.3,8.9,13.7,19.7
			c3.4,10.8-5.9,10.9-7.3,8.7c-1.3-2.2,0.8-5.4-0.1-9.4C110.6,35.6,107,29.9,102.5,25.7z"/>
	</g>
	<g id="XMLID_2803_">
		<path id="XMLID_2999_" class="st0" d="M90.3,62.1c4.5,7.1,2.6,6.3-1.7,12.1c-4.3,5.8,0.2,7.6-0.2,10.6c-0.3,2.8,1.4,8.2-3.9,19
			c-0.4,0.9-0.9,1.8-1.5,2.8c0.5-2.5,0.8-5.3,0.5-8.3c-0.6-5.3-2-8.9-2.9-12.8c-1-4.1-1.6-8.5-0.4-15.6c2.3-13.8,5.2-16.7,2-26.4
			c-3.2-9.7-3-8.2-2.1-16.7c0.4-4,0.2-8.7-0.7-12.6c0,0,0,0,0,0C78.5,10.2,77,6.9,75,5.7c-0.2-0.1-0.3-0.2-0.5-0.3
			c0.1-0.1,0.3-0.2,0.4-0.3c0.2-0.1,0.4-0.2,0.6-0.3c0.1-0.1,0.2-0.1,0.3-0.2c0,0,10.7,2.9,10.2,10.2c-0.5,7.3,5.6,15.7,8.9,16.9
			c3.3,1.2,0.8,5.5-2.2,11.4c-3,6,2.8,4.3-0.8,8.9C88.3,56.8,85.8,55,90.3,62.1z"/>
		<path id="XMLID_2990_" class="st3" d="M90.3,62.1c4.5,7.1,2.6,6.3-1.7,12.1c-4.3,5.8,0.2,7.6-0.2,10.6c-0.3,3,1.7,9.1-5.4,21.8
			c0.5-2.5,0.8-5.3,0.5-8.3c-0.6-5.3-2-8.9-2.9-12.8c0-0.5,0-0.9-0.1-1.4c-1-7.9,4-11.2,6.1-14.3c2.1-3.2-3-7.4-2.9-13.7
			c0.1-6.2,3-5.8,3.8-7.4c0.7-1.6-2.5-4.2,0.8-9.2c3.3-5-0.8-9.5-3.2-11.9c-2.4-2.5-4.5-11.8-4.5-11.8s-0.5-0.6-1.1-1.5c0,0,0,0,0,0
			C78.5,10.2,77,6.9,75,5.7c-0.1-0.2-0.1-0.4-0.1-0.5c0.3-0.2,0.6-0.4,0.9-0.5c0,0,10.7,2.9,10.2,10.2c-0.5,7.3,5.6,15.7,8.9,16.9
			c3.3,1.2,0.8,5.5-2.2,11.4c-3,6,2.8,4.3-0.8,8.9C88.3,56.8,85.8,55,90.3,62.1z"/>
		<path id="XMLID_2995_" class="st5" d="M90.3,62.1c4.5,7.1,2.6,6.3-1.7,12.1c-4.3,5.8,0.2,7.6-0.2,10.6c-0.3,2.8,1.4,8.2-3.9,19
			c-0.1-0.2-0.2-0.2-0.2-0.2s1.8-12.2,1.7-16.4c-0.2-4.2-4.6-7.7,0.6-13.6c5.2-5.9,2.7-7.3,2.1-8.8c-0.5-1.5-4.9-6.9-2.7-10.3
			c2.2-3.4,5.7-3.4,4.1-5.2c-1.6-1.8-1.1-5.5,1.5-10c2.5-4.5,1.1-6.3-3.4-10.7c-4.5-4.3-4.8-11-4.9-14.4c0-3.4-5.3-6.3-5.3-6.3
			s-0.7-0.2-2.6-3.1c0.1-0.1,0.2-0.1,0.3-0.2c0,0,10.7,2.9,10.2,10.2c-0.5,7.3,5.6,15.7,8.9,16.9c3.3,1.2,0.8,5.5-2.2,11.4
			c-3,6,2.8,4.3-0.8,8.9C88.3,56.8,85.8,55,90.3,62.1z"/>
		<path id="XMLID_2815_" class="st9" d="M81.1,111.6l1.1-5.3c0.6-2.8,0.8-5.5,0.4-8c-0.4-3.7-1.3-6.6-2-9.4
			c-1.5-5.2-2.8-10.1-1.3-19.2c0.7-4.1,1.4-7.3,2-9.8c1.5-6.3,2.2-9.5,0-16.1l-0.6-1.9c-2.4-7.1-2.4-7.2-1.7-13.4
			c0.1-0.6,0.1-1.2,0.2-1.8c1.1-10-1.8-19.2-5.1-20.5l-1.4-0.5l1.2-0.9c0.5-0.4,1-0.7,1.5-0.9l0.3-0.1L76,3.9c0.1,0,2.8,0.8,5.5,2.5
			c3.7,2.3,5.5,5.3,5.3,8.6c-0.5,6.9,5.3,15,8.4,16c0.9,0.3,1.6,0.9,1.9,1.7c0.8,2.1-0.7,5.2-2.9,9.6l-0.7,1.3
			c-1.3,2.6-0.8,3.3-0.2,4.1c0.8,1.2,1.3,2.4-0.7,4.9c-1,1.3-2,2.1-2.6,2.7c-1.7,1.5-1.9,1.7,1,6.3h0c3.8,6,3.3,6.9,0.5,10.3
			c-0.6,0.7-1.3,1.6-2.2,2.7c-2.6,3.5-1.7,5.2-0.9,6.9c0.5,1,1,2,0.8,3.2c-0.1,0.5,0,1.2,0,2c0.1,3.6,0.4,9.7-5.5,20.1L81.1,111.6z
			 M76.4,5.7c4,3.7,5.3,14.2,4.5,21.1c-0.1,0.7-0.1,1.3-0.2,1.8c-0.7,5.9-0.7,5.9,1.6,12.7l0.6,1.9c2.4,7.1,1.5,10.6,0,17
			C82.3,63,81.6,66,81,70c-1.4,8.8-0.2,13.3,1.3,18.5c0.8,2.8,1.6,5.8,2.1,9.6c0.1,1.2,0.2,2.5,0.1,3.8c3.4-7.5,3.3-12.1,3.2-15
			c0-0.9-0.1-1.6,0-2.2c0.1-0.8-0.3-1.5-0.7-2.3c-1-2-2.2-4.4,1-8.7c0.9-1.1,1.6-2,2.2-2.8c2.5-2.9,2.7-3.1-0.6-8.3h0
			c-3.4-5.3-3.1-6.3-0.7-8.4c0.7-0.6,1.5-1.3,2.4-2.5c1.4-1.8,1.2-2.2,0.6-3c-0.9-1.3-1.5-2.7,0.1-5.8l0.7-1.3
			c1.8-3.7,3.4-6.8,2.9-8.2c-0.1-0.2-0.3-0.5-0.9-0.7c-3.5-1.2-10-10-9.5-17.7C85.5,9.4,78.7,6.6,76.4,5.7z"/>
	</g>
</g>
</svg>
