<?xml version="1.0" encoding="utf-8"?>
<!-- Generator: Adobe Illustrator 25.2.3, SVG Export Plug-In . SVG Version: 6.00 Build 0)  -->
<svg version="1.1" id="Capa_1" xmlns="http://www.w3.org/2000/svg" xmlns:xlink="http://www.w3.org/1999/xlink" x="0px" y="0px"
	 width="108.3px" height="120.3px" viewBox="0 0 108.3 120.3" style="enable-background:new 0 0 108.3 120.3;" xml:space="preserve"
	>
<style type="text/css">
	.st0{fill:#8EB73C;}
	.st1{fill:#82A523;}
	.st2{fill:#758C13;}
	.st3{fill:#C7DB52;}
	.st4{fill:#295114;}
	.st5{fill:#CAE86B;}
	.st6{fill:#C7E05F;}
	.st7{fill:#C5D852;}
	.st8{fill:#DDF283;}
</style>
<g id="XMLID_2664_">
	<g id="XMLID_2997_">
		<g id="XMLID_3492_">
			<path id="XMLID_3500_" class="st0" d="M90.6,108.5c0.9,1.3,1.7,2.5,2.3,3.3c0,0,0,0,0,0c0.8,1.2-0.1,3-2,4.3l-4,2.6
				c-2,1.3-4.5,1.4-5.4,0.2c-1.9-2.5-5.8-8-14.3-21.1C59.8,86.6,48.6,73.6,37,61.1c-11.2-12-22.7-23.2-31.3-31.4
				C5,29,4.9,28.1,5.3,27.5c0.1-0.2,0.2-0.3,0.4-0.4c0.5-0.4,1.2-0.4,1.9,0c14.9,9.6,28.6,21,40.3,32.3
				C69.6,80.2,84.7,100.2,90.6,108.5z"/>
			<path id="XMLID_3499_" class="st1" d="M90.6,108.5c1.1,1.6,1.7,2.5,2.3,3.3c0,0,0,0,0,0c0.8,1.2-0.1,3-2,4.3l-4,2.6
				c-2,1.3-4.5,1.4-5.4,0.2c-1.9-2.5-5.8-8-14.3-21.1c-7.6-11.5-19.2-25-31.1-37.7c0,0-0.1-0.1-0.1-0.1c-0.7-0.7-1.3-1.4-2-2.1
				c-0.1-0.1-0.2-0.2-0.2-0.2c-0.6-0.7-1.2-1.3-1.8-1.9c-0.1-0.1-0.2-0.3-0.4-0.4c-0.6-0.6-1.1-1.2-1.7-1.8
				c-0.2-0.2-0.3-0.3-0.5-0.5c-0.5-0.6-1.1-1.1-1.6-1.6c-0.2-0.2-0.4-0.4-0.6-0.6c-0.5-0.5-1-1-1.5-1.5c-0.2-0.2-0.5-0.5-0.7-0.7
				c-0.4-0.4-0.9-0.9-1.3-1.3c-0.2-0.2-0.5-0.5-0.7-0.7c0,0-0.1-0.1-0.1-0.1c-0.4-0.4-0.7-0.7-1.1-1.1c-0.3-0.3-0.7-0.7-1-1
				c-0.3-0.3-0.6-0.6-0.9-0.9c-0.4-0.4-0.8-0.8-1.2-1.2c-0.2-0.2-0.4-0.4-0.6-0.6c-0.5-0.5-1-1-1.4-1.4c-0.1-0.1-0.2-0.2-0.3-0.3
				c-3.8-3.8-7.4-7.2-10.6-10.3c-0.3-0.3-0.5-0.6-0.6-0.9c-0.2-0.5-0.1-1,0.2-1.4c0.1-0.2,0.2-0.3,0.4-0.4c0.5-0.4,1.2-0.4,1.9,0
				C14,31.2,20.1,35.6,26,40.3c7.9,6.2,15.3,12.7,22,19.2c-0.9,0.2-1.7-0.1-2.4-0.8c-8.8-8.8-12.3-9.5-13.2-8.1
				c-0.9,1.4,5,7.4,5,7.4l0,0C47.5,68.4,57.4,79.2,65,88.8C82.1,109.8,84.8,116.2,90.6,108.5z"/>
			<path id="XMLID_3498_" class="st2" d="M74.7,104.8C63.9,87.6,35.4,57.2,27.1,48.3c-1.6-1.7,0.9-5.7,4.3-3.7
				c-6-4.8-17.5-13.5-23.8-17.6c-0.7-0.5-1.4-0.4-1.9,0l0,0l0,0c0,0,0,0,0,0c-0.1,0.1-0.1,0.1-0.2,0.2c0,0,0,0,0,0.1
				c0,0.1-0.1,0.1-0.1,0.2c0,0,0,0,0,0.1c0,0,0,0,0,0c0,0.1-0.1,0.2-0.1,0.3c0,0,0,0,0,0.1c0,0.1,0,0.2,0,0.3c0,0,0,0.1,0,0.1
				c0,0.1,0,0.2,0,0.2c0,0,0,0.1,0,0.1c0,0.1,0,0.1,0,0.2c0,0,0,0,0,0.1c0,0.1,0.1,0.1,0.1,0.2c0,0.1,0.1,0.1,0.1,0.2
				c0.1,0.1,0.1,0.1,0.2,0.2c0,0.1,0.1,0.1,0.1,0.2c3.2,3,6.8,6.5,10.6,10.3c0.1,0.1,0.2,0.2,0.3,0.3c0.5,0.5,1,0.9,1.4,1.4
				c0.2,0.2,0.4,0.4,0.6,0.6c0,0,0,0,0,0c0.4,0.4,0.8,0.8,1.2,1.2c0.3,0.3,0.6,0.6,0.9,0.9c0.1,0.1,0.2,0.2,0.3,0.3
				c0.2,0.2,0.5,0.5,0.7,0.7c0.1,0.1,0.2,0.2,0.4,0.4c0.3,0.3,0.6,0.6,0.8,0.8c0,0,0,0,0,0l0,0c15.8,15.9,33.9,35.5,44.2,51.2
				c8.6,13,12.4,18.6,14.3,21.1c0.9,1.2,3.4,1.1,5.4-0.2l4-2.6c1.9-1.2,2.8-3.1,2-4.3C88,115.4,84.4,120.4,74.7,104.8z"/>
			<path id="XMLID_3497_" class="st3" d="M37.7,56.9c0.3,0.3,11,10,23.7,24.1c12.2,13.6,20.1,27.8,22.6,25.6
				c2.5-2.1-17.5-26.7-25-32.9c-7.6-6.3-21.6-21-23.4-22.2C32.6,49.5,32.2,51.9,37.7,56.9z"/>
			<g id="XMLID_3493_">
				<path id="XMLID_3494_" class="st4" d="M91.4,116.5c0,0-0.1,0.1-0.1,0.1l-4,2.6c-2.3,1.5-5.1,1.5-6.2,0.1
					c-2.8-3.7-7.6-10.9-14.3-21.1c-6.5-10-16.8-22.5-30.1-36.7C27.4,51.6,16.9,40.9,5.4,30c-1-0.9-0.8-2-0.4-2.7
					c0.2-0.2,0.3-0.4,0.6-0.6c0.7-0.5,1.6-0.5,2.4,0C21.1,35.2,34.7,46,48.4,59.1c22,21,37.1,41.1,42.7,49.1l0,0
					c1,1.3,1.7,2.5,2.3,3.3l0,0.1C94.3,113,93.5,115.1,91.4,116.5z M5.9,27.4c-0.1,0.1-0.2,0.2-0.2,0.3c-0.2,0.4-0.3,1.1,0.4,1.8
					c11.4,10.9,22.1,21.5,31.3,31.4C50.7,75,61.1,87.6,67.7,97.6c6.7,10.2,11.6,17.3,14.3,21c0.7,1,2.9,0.8,4.6-0.3l4-2.6
					c1.6-1,2.4-2.6,1.8-3.6l0-0.1c-0.6-0.9-1.4-2-2.3-3.3l0,0c-5.6-8-20.6-28-42.5-49C34.1,46.7,20.5,35.9,7.4,27.4
					C6.9,27.1,6.3,27.1,5.9,27.4C5.9,27.4,5.9,27.4,5.9,27.4z"/>
			</g>
		</g>
		<g id="XMLID_3483_">
			<path id="XMLID_3491_" class="st5" d="M52,69.8c0.2,0.3,0.4,0.6,0.7,0.9c0.9,0.8,2.1,1.1,3.3,0.6c1.5-0.6,2.1-2.6,1.1-4.3
				c-0.2-0.4-0.8-1.2-1.7-2.1c-0.4-0.4-0.9-0.9-1.3-1.3c-2.3-2.1-5.2-3.6-5.6-3.1c-0.4,0.6,2.5,6.1,3.3,8.5
				C51.8,69.4,51.9,69.6,52,69.8z"/>
			<path id="XMLID_3490_" class="st6" d="M52,69.8c0.2,0.3,0.4,0.6,0.7,0.9c0.9,0.8,2.1,1.1,3.3,0.6c1.5-0.6,2.1-2.6,1.1-4.3
				c-0.2-0.4-0.8-1.2-1.7-2.1c-0.4-0.4-0.9-0.9-1.3-1.3c0.4,1.6,0.2,4.1-2.4,5.4C51.8,69.4,51.9,69.6,52,69.8z"/>
			<path id="XMLID_3489_" class="st7" d="M52.7,70.7c0.9,0.8,2.1,1.1,3.3,0.6c1.5-0.6,2.1-2.6,1.1-4.3c-0.2-0.4-0.8-1.2-1.7-2.1
				C56.2,67.2,56.1,70,52.7,70.7z"/>
			<path id="XMLID_3488_" class="st8" d="M52.6,63.6c0-0.2-2.8-2.1-3.1-1.9c-0.1,0.2,2,4.1,2.2,4.8C52.1,67.2,53.3,64.6,52.6,63.6z"
				/>
			<g id="XMLID_3484_">
				<path id="XMLID_3485_" class="st4" d="M52.4,71c-0.3-0.3-0.6-0.6-0.8-1c-0.1-0.2-0.2-0.5-0.4-0.8c0.3-0.2-4-7.9-3.2-9.1
					c0.2-0.1,1-1.3,6.4,3.1c0.4,0.4,0.9,0.8,1.4,1.3c0.5,0.5,1.4,1.6,1.8,2.2c1.1,2.1,0.4,4.4-1.3,5.1C54.9,72.3,53.5,72,52.4,71z
					 M52.2,68.8c0.2,0.4,0.3,0.6,0.3,0.7c0.2,0.3,0.3,0.5,0.6,0.7c0.8,0.7,1.8,0.9,2.7,0.5c1.2-0.5,1.7-2.1,0.9-3.5
					c-0.2-0.4-0.8-1.1-1.6-2c-0.4-0.5-0.9-0.9-1.3-1.3c-2.5-2.2-4.3-2.9-4.9-3.1C49.3,62.1,51.4,66.5,52.2,68.8z"/>
			</g>
		</g>
		<g id="XMLID_3474_">
			<path id="XMLID_3482_" class="st5" d="M68,86.5c0.3,0.2,0.5,0.5,0.7,0.8c0.6,1,0.8,2.3,0.1,3.3c-0.8,1.4-2.9,1.6-4.4,0.4
				c-0.4-0.3-1.1-1-1.8-2c-0.4-0.5-0.7-1-1.1-1.5c-1.7-2.6-2.7-5.7-2.2-6.1c0.7-0.3,5.7,3.5,7.9,4.6C67.6,86.3,67.9,86.4,68,86.5z"
				/>
			<path id="XMLID_3481_" class="st6" d="M68,86.5c0.3,0.2,0.5,0.5,0.7,0.8c0.6,1,0.8,2.3,0.1,3.3c-0.8,1.4-2.9,1.6-4.4,0.4
				c-0.4-0.3-1.1-1-1.8-2c-0.4-0.5-0.7-1-1.1-1.5c1.5,0.6,4,0.8,5.7-1.5C67.6,86.3,67.9,86.4,68,86.5z"/>
			<path id="XMLID_3480_" class="st7" d="M68.8,87.3c0.6,1,0.8,2.3,0.1,3.3c-0.8,1.4-2.9,1.6-4.4,0.4c-0.4-0.3-1.1-1-1.8-2
				C64.7,90.3,67.6,90.6,68.8,87.3z"/>
			<path id="XMLID_3479_" class="st8" d="M61.8,86.2c-0.1-0.1-1.7-3.1-1.4-3.3c0.2-0.1,3.8,2.6,4.4,2.9C65.4,86.2,62.7,87,61.8,86.2
				z"/>
			<g id="XMLID_3475_">
				<path id="XMLID_3476_" class="st4" d="M69.3,91c-0.9,1.6-3.4,1.9-5.2,0.5c-0.6-0.5-1.5-1.5-1.9-2.1c-0.4-0.5-0.8-1.1-1.1-1.6
					c-3.5-6-2.2-6.6-2-6.8c1.3-0.5,8.3,4.9,8.5,4.6c0.3,0.2,0.6,0.4,0.7,0.5c0.3,0.3,0.6,0.6,0.9,0.9C69.9,88.3,70,89.8,69.3,91z
					 M59.7,82.1c0,0.6,0.5,2.5,2.2,5.3c0.3,0.5,0.6,1,1,1.5c0.7,0.9,1.4,1.6,1.7,1.9c1.3,1,2.9,0.8,3.6-0.3c0.5-0.8,0.5-1.9-0.1-2.8
					c-0.2-0.3-0.4-0.5-0.6-0.7c-0.1-0.1-0.3-0.2-0.6-0.4C64.8,85.4,60.8,82.6,59.7,82.1z"/>
			</g>
		</g>
		<g id="XMLID_3501_">
			<path id="XMLID_3509_" class="st5" d="M77.8,104c0.3,0.2,0.6,0.5,0.8,0.7c0.7,0.9,1,2.2,0.4,3.3c-0.7,1.4-2.7,1.9-4.4,0.8
				c-0.4-0.3-1.2-0.9-2-1.8c-0.4-0.4-0.8-0.9-1.2-1.4c-1.9-2.4-3.2-5.5-2.7-5.8c0.6-0.4,6,2.9,8.3,3.8
				C77.4,103.8,77.7,103.9,77.8,104z"/>
			<path id="XMLID_3508_" class="st6" d="M77.8,104c0.3,0.2,0.6,0.5,0.8,0.7c0.7,0.9,1,2.2,0.4,3.3c-0.7,1.4-2.7,1.9-4.4,0.8
				c-0.4-0.3-1.2-0.9-2-1.8c-0.4-0.4-0.8-0.9-1.2-1.4c1.5,0.5,4.1,0.4,5.6-2C77.4,103.8,77.7,103.9,77.8,104z"/>
			<path id="XMLID_3507_" class="st7" d="M78.6,104.8c0.7,0.9,1,2.2,0.4,3.3c-0.7,1.4-2.7,1.9-4.4,0.8c-0.4-0.3-1.2-0.9-2-1.8
				C74.9,108.1,77.7,108.2,78.6,104.8z"/>
			<path id="XMLID_3506_" class="st8" d="M71.6,104.3c-0.1,0-1.9-3-1.6-3.2c0.2-0.1,4,2.2,4.7,2.5C75.2,103.9,72.6,105,71.6,104.3z"
				/>
			<g id="XMLID_3502_">
				<path id="XMLID_3503_" class="st4" d="M79.5,108.4c-0.8,1.7-3.2,2.2-5.2,1c-0.6-0.4-1.6-1.4-2.1-1.9c-0.5-0.5-0.9-1-1.2-1.5
					c-4-5.7-2.8-6.4-2.6-6.6c1.3-0.7,8.7,4.2,8.9,3.8c0.3,0.2,0.6,0.3,0.8,0.4c0.4,0.2,0.7,0.5,0.9,0.9
					C79.9,105.7,80.1,107.1,79.5,108.4z M69.2,100.4c0.1,0.6,0.7,2.5,2.7,5.1c0.3,0.4,0.7,0.9,1.2,1.4c0.8,0.8,1.5,1.5,1.9,1.7
					c1.3,0.9,3,0.5,3.6-0.6c0.5-0.9,0.3-1.9-0.3-2.7c-0.2-0.2-0.4-0.4-0.7-0.6c-0.1-0.1-0.3-0.2-0.7-0.4
					C74.5,103.2,70.3,100.8,69.2,100.4z"/>
			</g>
		</g>
		<g id="XMLID_3465_">
			<path id="XMLID_3473_" class="st5" d="M44.4,64.3c0.3,0.2,0.6,0.4,0.9,0.7c0.8,0.9,1.1,2.1,0.7,3.3c-0.6,1.5-2.6,2.1-4.3,1.1
				c-0.4-0.2-1.2-0.8-2.1-1.6c-0.4-0.4-0.9-0.8-1.3-1.3c-2.1-2.3-3.6-5.2-3.1-5.6c0.6-0.4,6.2,2.5,8.6,3.2
				C43.9,64.1,44.2,64.2,44.4,64.3z"/>
			<path id="XMLID_3472_" class="st6" d="M44.4,64.3c0.3,0.2,0.6,0.4,0.9,0.7c0.8,0.9,1.1,2.1,0.7,3.3c-0.6,1.5-2.6,2.1-4.3,1.1
				c-0.4-0.2-1.2-0.8-2.1-1.6c-0.4-0.4-0.9-0.8-1.3-1.3c1.6,0.3,4.1,0.1,5.4-2.4C43.9,64.1,44.2,64.2,44.4,64.3z"/>
			<path id="XMLID_3471_" class="st7" d="M45.2,65c0.8,0.9,1.1,2.1,0.7,3.3c-0.6,1.5-2.6,2.1-4.3,1.1c-0.4-0.2-1.2-0.8-2.1-1.6
				C41.8,68.5,44.6,68.4,45.2,65z"/>
			<path id="XMLID_3470_" class="st8" d="M38.2,65c-0.2,0-2.2-2.8-1.9-3.1c0.2-0.1,4.1,1.9,4.8,2.2C41.8,64.4,39.2,65.6,38.2,65z"/>
			<g id="XMLID_3466_">
				<path id="XMLID_3467_" class="st4" d="M46.4,68.5c-0.7,1.7-3,2.5-5.1,1.3c-0.7-0.3-1.7-1.2-2.2-1.7c-0.5-0.5-0.9-0.9-1.3-1.4
					c-4.4-5.4-3.2-6.2-3.1-6.3c1.2-0.8,9,3.5,9.2,3.2c0.3,0.1,0.6,0.3,0.8,0.4c0.4,0.2,0.7,0.5,1,0.8C46.5,65.7,46.9,67.2,46.4,68.5
					z M35.5,61.3c0.1,0.6,0.9,2.4,3.1,4.8c0.4,0.4,0.8,0.9,1.3,1.3c0.8,0.8,1.6,1.3,2,1.5c1.4,0.8,3,0.3,3.5-0.9
					c0.4-0.9,0.2-2-0.5-2.7c-0.2-0.2-0.5-0.4-0.7-0.6c-0.1-0.1-0.3-0.2-0.7-0.3C41,63.7,36.6,61.6,35.5,61.3z"/>
			</g>
		</g>
		<g id="XMLID_2998_">
			<g id="XMLID_3456_">
				<path id="XMLID_3464_" class="st5" d="M8.3,26.9c0.3,0.2,0.5,0.5,0.6,0.7c0.5,0.9,0.4,2-0.3,2.9c-0.9,1.1-2.5,1.2-3.6,0.3
					c-0.3-0.2-0.8-0.8-1.3-1.5c-0.3-0.3-0.5-0.7-0.8-1.1c-1.3-1.9-2.7-4.1-2.3-4.5c0.5-0.6,5.3,1.6,7.1,2.7
					C7.9,26.7,8.1,26.8,8.3,26.9z"/>
				<path id="XMLID_3463_" class="st6" d="M8.3,26.9c0.3,0.2,0.5,0.5,0.6,0.7c0.5,0.9,0.4,2-0.3,2.9c-0.9,1.1-2.5,1.2-3.6,0.3
					c-0.3-0.2-0.8-0.8-1.3-1.5c-0.3-0.3-0.5-0.7-0.8-1.1c1.2,0.2,3.3,0.3,4.8-1.8C7.9,26.7,8.1,26.8,8.3,26.9z"/>
				<path id="XMLID_3462_" class="st7" d="M8.9,27.7c0.5,0.9,0.4,2-0.3,2.9c-0.9,1.1-2.5,1.2-3.6,0.3c-0.3-0.2-0.8-0.8-1.3-1.5
					C5.3,30.1,7.5,30.5,8.9,27.7z"/>
				<path id="XMLID_3461_" class="st8" d="M3,27.1c-0.1,0-1.6-2.3-1.4-2.5c0.2-0.2,3.4,1.4,3.9,1.7C6,26.7,3.7,27.6,3,27.1z"/>
				<g id="XMLID_3457_">
					<path id="XMLID_3458_" class="st4" d="M8.9,30.9c-1.1,1.3-3,1.4-4.2,0.4c-0.4-0.3-1-1.1-1.4-1.5C3,29.3,2.7,29,2.5,28.6
						c-3-4.2-2.5-4.8-2.3-5c1-1.2,7.6,2.6,7.7,2.6c0.3,0.2,0.5,0.3,0.6,0.4c0.3,0.2,0.5,0.5,0.7,0.9C9.8,28.6,9.7,29.9,8.9,30.9z
						 M0.9,24.2c0.1,0.5,0.8,1.9,2.3,3.9c0.2,0.3,0.5,0.7,0.8,1.1c0.5,0.7,1,1.2,1.2,1.4c0.9,0.7,2.2,0.6,3-0.3
						c0.6-0.7,0.6-1.6,0.2-2.4c-0.1-0.2-0.3-0.4-0.5-0.6c-0.1-0.1-0.2-0.2-0.5-0.4C5.6,25.9,1.9,24.3,0.9,24.2z"/>
				</g>
			</g>
			<g id="XMLID_3447_">
				<path id="XMLID_3455_" class="st5" d="M9.4,31.4c0.3,0.2,0.6,0.4,0.8,0.7c0.7,0.9,0.9,2.1,0.4,3.1C10,36.6,8.1,37,6.5,36
					c-0.4-0.3-1.1-0.9-1.9-1.7c-0.4-0.4-0.8-0.9-1.2-1.3c-1.8-2.3-3.1-5.2-2.7-5.5c0.6-0.4,5.7,2.7,7.9,3.6
					C9,31.2,9.3,31.3,9.4,31.4z"/>
				<path id="XMLID_3454_" class="st6" d="M9.4,31.4c0.3,0.2,0.6,0.4,0.8,0.7c0.7,0.9,0.9,2.1,0.4,3.1C10,36.6,8.1,37,6.5,36
					c-0.4-0.3-1.1-0.9-1.9-1.7c-0.4-0.4-0.8-0.9-1.2-1.3c1.5,0.4,3.9,0.4,5.3-2C9,31.2,9.3,31.3,9.4,31.4z"/>
				<path id="XMLID_3453_" class="st7" d="M10.2,32.1c0.7,0.9,0.9,2.1,0.4,3.1C10,36.6,8.1,37,6.5,36c-0.4-0.3-1.1-0.9-1.9-1.7
					C6.7,35.3,9.4,35.3,10.2,32.1z"/>
				<path id="XMLID_3452_" class="st8" d="M3.5,31.7c-0.1,0-1.9-2.8-1.6-3C2,28.5,5.7,30.7,6.3,31C6.9,31.3,4.4,32.4,3.5,31.7z"/>
				<g id="XMLID_3448_">
					<path id="XMLID_3449_" class="st4" d="M11.1,35.5c-0.7,1.6-3,2.2-4.9,1c-0.6-0.4-1.6-1.3-2-1.8c-0.4-0.5-0.8-0.9-1.2-1.4
						c-3.9-5.4-2.7-6.1-2.6-6.2c1.2-0.6,8.3,3.9,8.5,3.6c0.3,0.2,0.6,0.3,0.7,0.4c0.3,0.2,0.7,0.5,0.9,0.8
						C11.4,32.9,11.6,34.3,11.1,35.5z M1.1,28c0.1,0.6,0.7,2.3,2.6,4.8c0.3,0.4,0.7,0.9,1.1,1.3c0.7,0.8,1.4,1.4,1.8,1.6
						c1.3,0.8,2.9,0.5,3.4-0.6c0.4-0.8,0.3-1.8-0.3-2.6c-0.2-0.2-0.4-0.4-0.7-0.6c-0.1-0.1-0.3-0.2-0.6-0.3
						C6.2,30.6,2.2,28.4,1.1,28z"/>
				</g>
			</g>
			<g id="XMLID_3438_">
				<path id="XMLID_3446_" class="st5" d="M13.7,36.6c0.4,0.1,0.7,0.3,1,0.6c0.9,0.8,1.5,2,1.1,3.3c-0.4,1.6-2.4,2.5-4.3,1.7
					c-0.5-0.2-1.4-0.7-2.4-1.4c-0.5-0.4-1-0.8-1.5-1.2c-2.4-2-4.4-4.9-4-5.3c0.6-0.5,6.7,1.7,9.2,2.1C13.3,36.5,13.5,36.5,13.7,36.6
					z"/>
				<path id="XMLID_3445_" class="st6" d="M13.7,36.6c0.4,0.1,0.7,0.3,1,0.6c0.9,0.8,1.5,2,1.1,3.3c-0.4,1.6-2.4,2.5-4.3,1.7
					c-0.5-0.2-1.4-0.7-2.4-1.4c-0.5-0.4-1-0.8-1.5-1.2c1.7,0.1,4.2-0.4,5.2-3.2C13.3,36.5,13.5,36.5,13.7,36.6z"/>
				<path id="XMLID_3444_" class="st7" d="M14.7,37.2c0.9,0.8,1.5,2,1.1,3.3c-0.4,1.6-2.4,2.5-4.3,1.7c-0.5-0.2-1.4-0.7-2.4-1.4
					C11.6,41.4,14.5,40.8,14.7,37.2z"/>
				<path id="XMLID_3443_" class="st8" d="M7.4,38.2c-0.2,0-2.6-2.6-2.4-2.9c0.2-0.2,4.5,1.4,5.3,1.6C11.1,37.1,8.6,38.7,7.4,38.2z"
					/>
				<g id="XMLID_3439_">
					<path id="XMLID_3440_" class="st4" d="M16.4,40.7c-0.4,1.9-2.7,3-5,2.1c-0.7-0.3-1.9-1-2.5-1.5c-0.6-0.4-1.1-0.8-1.6-1.2
						C2,35.2,3.1,34.1,3.2,34c1.1-0.9,9.7,2.4,9.8,2c0.4,0.1,0.7,0.2,0.9,0.3c0.4,0.2,0.8,0.4,1.1,0.7
						C16.1,37.8,16.7,39.3,16.4,40.7z M4.2,34.8c0.2,0.6,1.3,2.4,3.8,4.6c0.4,0.4,0.9,0.8,1.5,1.2c1,0.7,1.8,1.2,2.2,1.3
						c1.5,0.6,3.2-0.1,3.5-1.4c0.3-1-0.1-2-0.9-2.7c-0.2-0.2-0.5-0.4-0.8-0.5c-0.1,0-0.3-0.1-0.8-0.2C10.2,36.5,5.4,34.9,4.2,34.8z"
						/>
				</g>
			</g>
			<g id="XMLID_3429_">
				<path id="XMLID_3437_" class="st5" d="M9.2,31.3c0.2,0.3,0.5,0.5,0.8,0.7c1,0.6,2.2,0.6,3.2-0.1c1.2-0.9,1.4-2.8,0.1-4.2
					c-0.3-0.4-1-1-2-1.6c-0.5-0.3-1-0.6-1.5-0.9c-2.5-1.5-5.6-2.3-5.9-1.7c-0.3,0.7,3.6,5.2,4.8,7.3C8.9,31,9.1,31.2,9.2,31.3z"/>
				<path id="XMLID_3436_" class="st6" d="M9.2,31.3c0.2,0.3,0.5,0.5,0.8,0.7c1,0.6,2.2,0.6,3.2-0.1c1.2-0.9,1.4-2.8,0.1-4.2
					c-0.3-0.4-1-1-2-1.6c-0.5-0.3-1-0.6-1.5-0.9c0.6,1.4,1,3.8-1.1,5.5C8.9,31,9.1,31.2,9.2,31.3z"/>
				<path id="XMLID_3435_" class="st7" d="M10,32c1,0.6,2.2,0.6,3.2-0.1c1.2-0.9,1.4-2.8,0.1-4.2c-0.3-0.4-1-1-2-1.6
					C12.6,28,13.1,30.7,10,32z"/>
				<path id="XMLID_3434_" class="st8" d="M8.6,25.4c-0.1-0.1-3.1-1.4-3.3-1.1c-0.1,0.2,2.7,3.4,3,4C8.8,28.9,9.4,26.2,8.6,25.4z"/>
				<g id="XMLID_3430_">
					<path id="XMLID_3431_" class="st4" d="M9.9,32.3c-0.4-0.2-0.7-0.5-0.9-0.8c-0.1-0.2-0.3-0.4-0.5-0.7c0.3-0.3-5.3-6.6-4.9-7.9
						c0.1-0.1,0.7-1.4,6.6,1.6c0.5,0.3,1,0.6,1.6,1c0.6,0.4,1.6,1.2,2.1,1.7c1.5,1.7,1.3,4-0.2,5C12.5,33.1,11,33,9.9,32.3z
						 M9.2,30.4c0.2,0.3,0.4,0.5,0.4,0.6c0.2,0.2,0.4,0.4,0.7,0.6c0.8,0.5,1.9,0.5,2.6-0.1c1-0.7,1.1-2.3,0.1-3.5
						c-0.3-0.3-1-0.9-1.9-1.5c-0.5-0.3-1-0.6-1.5-0.9C7,24,5.2,23.7,4.6,23.7C5.1,24.7,8,28.3,9.2,30.4z"/>
				</g>
			</g>
			<g id="XMLID_3420_">
				<path id="XMLID_3428_" class="st5" d="M14.8,34.4c0.2,0.3,0.5,0.6,0.7,0.9c0.9,0.8,2.3,1.1,3.4,0.5c1.5-0.7,2-2.7,1-4.5
					c-0.3-0.5-0.9-1.2-1.8-2.1c-0.4-0.4-0.9-0.9-1.4-1.3c-2.4-2.1-5.6-3.5-6-3c-0.4,0.7,2.8,6.3,3.7,8.7
					C14.6,33.9,14.7,34.2,14.8,34.4z"/>
				<path id="XMLID_3427_" class="st6" d="M14.8,34.4c0.2,0.3,0.5,0.6,0.7,0.9c0.9,0.8,2.3,1.1,3.4,0.5c1.5-0.7,2-2.7,1-4.5
					c-0.3-0.5-0.9-1.2-1.8-2.1c-0.4-0.4-0.9-0.9-1.4-1.3c0.4,1.6,0.3,4.2-2.3,5.7C14.6,33.9,14.7,34.2,14.8,34.4z"/>
				<path id="XMLID_3426_" class="st7" d="M15.5,35.2c0.9,0.8,2.3,1.1,3.4,0.5c1.5-0.7,2-2.7,1-4.5c-0.3-0.5-0.9-1.2-1.8-2.1
					C19.1,31.5,19.1,34.4,15.5,35.2z"/>
				<path id="XMLID_3425_" class="st8" d="M15.3,27.9c0-0.2-3-2.1-3.3-1.8c-0.1,0.2,2.2,4.2,2.4,4.9C14.8,31.7,16,28.9,15.3,27.9z"
					/>
				<g id="XMLID_3421_">
					<path id="XMLID_3422_" class="st4" d="M15.3,35.6c-0.3-0.3-0.6-0.6-0.9-1c-0.1-0.2-0.3-0.5-0.4-0.8c0.4-0.2-4.4-8.1-3.7-9.3
						c0.2-0.1,1-1.4,6.7,3c0.5,0.4,1,0.8,1.5,1.3c0.6,0.5,1.5,1.6,1.9,2.3c1.3,2.1,0.6,4.5-1.2,5.3C18,36.8,16.4,36.5,15.3,35.6z
						 M15,33.3c0.2,0.4,0.3,0.6,0.3,0.7c0.2,0.3,0.4,0.5,0.6,0.7c0.8,0.7,1.9,0.9,2.8,0.4c1.2-0.6,1.6-2.3,0.8-3.7
						c-0.2-0.4-0.8-1.2-1.7-2c-0.5-0.5-0.9-0.9-1.4-1.3c-2.6-2.1-4.5-2.9-5.2-3C11.7,26.5,14,30.9,15,33.3z"/>
				</g>
			</g>
			<g id="XMLID_3411_">
				<path id="XMLID_3419_" class="st5" d="M17,33.2c0.3,0.3,0.6,0.6,0.8,1c0.6,1.2,0.5,2.7-0.4,3.7c-1.2,1.4-3.3,1.6-4.7,0.4
					c-0.4-0.3-1-1-1.7-1.9c-0.3-0.4-0.7-0.9-1.1-1.4c-1.7-2.4-3.5-5.3-3-5.8c0.7-0.8,6.9,2,9.3,3.5C16.5,32.9,16.8,33,17,33.2z"/>
				<path id="XMLID_3418_" class="st6" d="M17,33.2c0.3,0.3,0.6,0.6,0.8,1c0.6,1.2,0.5,2.7-0.4,3.7c-1.2,1.4-3.3,1.6-4.7,0.4
					c-0.4-0.3-1-1-1.7-1.9c-0.3-0.4-0.7-0.9-1.1-1.4c1.5,0.3,4.2,0.3,6.3-2.3C16.5,32.9,16.8,33,17,33.2z"/>
				<path id="XMLID_3417_" class="st7" d="M17.7,34.1c0.6,1.2,0.5,2.7-0.4,3.7c-1.2,1.4-3.3,1.6-4.7,0.4c-0.4-0.3-1-1-1.7-1.9
					C13.1,37.3,16,37.8,17.7,34.1z"/>
				<path id="XMLID_3416_" class="st8" d="M10.1,33.4C10,33.4,8,30.5,8.2,30.2c0.2-0.3,4.5,1.9,5.1,2.3C14,32.9,11.1,34.1,10.1,33.4
					z"/>
				<g id="XMLID_3412_">
					<path id="XMLID_3413_" class="st4" d="M17.8,38.3c-1.4,1.7-3.9,1.9-5.5,0.5c-0.5-0.4-1.3-1.4-1.8-2c-0.4-0.5-0.8-1-1.1-1.5
						c-3.9-5.4-3.2-6.2-3-6.5c1.3-1.6,10,3.4,10,3.4c0.4,0.2,0.6,0.4,0.8,0.6c0.4,0.3,0.7,0.7,0.9,1.1C19,35.4,18.8,37.1,17.8,38.3z
						 M7.4,29.7c0.2,0.7,1.1,2.4,3,5c0.3,0.5,0.7,0.9,1.1,1.4c0.7,0.9,1.3,1.6,1.6,1.8c1.2,1,2.9,0.8,3.9-0.4
						c0.7-0.9,0.8-2.1,0.3-3.1c-0.2-0.3-0.4-0.6-0.6-0.8c-0.1-0.1-0.3-0.2-0.7-0.5C13.4,31.8,8.6,29.7,7.4,29.7z"/>
				</g>
			</g>
			<g id="XMLID_3400_">
				<path id="XMLID_3409_" class="st5" d="M18.6,39.1c0.2,0.3,0.5,0.5,0.8,0.7c0.9,0.6,2.2,0.8,3.2,0.2c1.3-0.8,1.6-2.7,0.5-4.2
					c-0.3-0.4-1-1.1-1.8-1.8c-0.4-0.3-0.9-0.7-1.4-1c-2.4-1.7-5.4-2.7-5.7-2.2c-0.3,0.6,3.2,5.5,4.2,7.6
					C18.4,38.8,18.5,39,18.6,39.1z"/>
				<path id="XMLID_3408_" class="st6" d="M18.6,39.1c0.2,0.3,0.5,0.5,0.8,0.7c0.9,0.6,2.2,0.8,3.2,0.2c1.3-0.8,1.6-2.7,0.5-4.2
					c-0.3-0.4-1-1.1-1.8-1.8c-0.4-0.3-0.9-0.7-1.4-1c0.5,1.4,0.7,3.9-1.5,5.4C18.4,38.8,18.5,39,18.6,39.1z"/>
				<path id="XMLID_3407_" class="st7" d="M19.4,39.8c0.9,0.6,2.2,0.8,3.2,0.2c1.3-0.8,1.6-2.7,0.5-4.2c-0.3-0.4-1-1.1-1.8-1.8
					C22.3,36.1,22.6,38.8,19.4,39.8z"/>
				<path id="XMLID_3406_" class="st8" d="M18.5,33.2c-0.1-0.1-3-1.7-3.2-1.4c-0.1,0.2,2.4,3.6,2.7,4.3
					C18.4,36.7,19.2,34.1,18.5,33.2z"/>
				<g id="XMLID_3401_">
					<path id="XMLID_3403_" class="st4" d="M19.2,40.2c-0.3-0.2-0.6-0.5-0.9-0.8c-0.1-0.2-0.3-0.4-0.5-0.7c0.3-0.2-4.8-7-4.2-8.2
						c0.1-0.1,0.8-1.3,6.4,2.1c0.5,0.3,1,0.7,1.5,1.1c0.6,0.4,1.5,1.3,2,1.9c1.4,1.8,1,4.1-0.6,5C21.8,41.1,20.3,41,19.2,40.2z
						 M18.7,38.2c0.2,0.3,0.3,0.5,0.4,0.6c0.2,0.2,0.4,0.4,0.6,0.6c0.8,0.5,1.8,0.6,2.6,0.1c1.1-0.7,1.3-2.2,0.4-3.5
						c-0.2-0.3-0.9-1-1.7-1.7c-0.5-0.4-0.9-0.7-1.4-1c-2.6-1.7-4.4-2.2-5-2.2C15.1,32.2,17.6,36,18.7,38.2z"/>
				</g>
			</g>
			<g id="XMLID_3072_">
				<path id="XMLID_3399_" class="st5" d="M18.2,38.9c0.3,0.2,0.6,0.4,0.8,0.6c0.8,0.8,1.1,2,0.6,3.1c-0.6,1.4-2.4,2-4.1,1.1
					c-0.4-0.2-1.2-0.8-2-1.6c-0.4-0.4-0.8-0.8-1.2-1.3c-2-2.2-3.4-5-3-5.4c0.6-0.4,5.9,2.4,8.2,3C17.8,38.7,18.1,38.8,18.2,38.9z"/>
				<path id="XMLID_3398_" class="st6" d="M18.2,38.9c0.3,0.2,0.6,0.4,0.8,0.6c0.8,0.8,1.1,2,0.6,3.1c-0.6,1.4-2.4,2-4.1,1.1
					c-0.4-0.2-1.2-0.8-2-1.6c-0.4-0.4-0.8-0.8-1.2-1.3c1.5,0.3,3.9,0.1,5.2-2.3C17.8,38.7,18.1,38.8,18.2,38.9z"/>
				<path id="XMLID_3397_" class="st7" d="M19.1,39.5c0.8,0.8,1.1,2,0.6,3.1c-0.6,1.4-2.4,2-4.1,1.1c-0.4-0.2-1.2-0.8-2-1.6
					C15.7,43,18.5,42.8,19.1,39.5z"/>
				<path id="XMLID_3396_" class="st8" d="M12.3,39.6c-0.1,0-2.1-2.7-1.8-2.9c0.2-0.1,4,1.8,4.6,2C15.8,39,13.3,40.2,12.3,39.6z"/>
				<g id="XMLID_3073_">
					<path id="XMLID_3074_" class="st4" d="M20.2,42.9c-0.6,1.7-2.9,2.4-4.8,1.3c-0.6-0.3-1.6-1.2-2.1-1.7c-0.5-0.4-0.9-0.9-1.3-1.3
						c-4.2-5.1-3.1-5.9-3-6c1.1-0.7,8.5,3.3,8.7,3c0.3,0.1,0.6,0.2,0.8,0.3c0.4,0.2,0.7,0.4,1,0.7C20.3,40.3,20.6,41.7,20.2,42.9z
						 M9.7,36.1c0.1,0.6,0.9,2.3,2.9,4.6c0.4,0.4,0.8,0.8,1.2,1.2c0.8,0.7,1.5,1.3,1.9,1.5c1.3,0.7,2.9,0.3,3.4-0.9
						c0.4-0.9,0.1-1.9-0.5-2.6c-0.2-0.2-0.4-0.4-0.7-0.5c-0.1-0.1-0.3-0.1-0.7-0.3C15,38.3,10.8,36.4,9.7,36.1z"/>
				</g>
			</g>
			<g id="XMLID_3063_">
				<path id="XMLID_3071_" class="st5" d="M25.6,41.9c0.1,0.3,0.2,0.7,0.4,0.9c0.6,0.9,1.7,1.5,2.8,1.3c1.5-0.2,2.4-1.9,1.9-3.7
					c-0.1-0.5-0.5-1.3-1-2.3c-0.3-0.5-0.6-1-0.9-1.5c-1.6-2.4-4-4.4-4.5-4.1c-0.5,0.5,1,6.1,1.1,8.5C25.5,41.5,25.5,41.7,25.6,41.9z
					"/>
				<path id="XMLID_3070_" class="st6" d="M25.6,41.9c0.1,0.3,0.2,0.7,0.4,0.9c0.6,0.9,1.7,1.5,2.8,1.3c1.5-0.2,2.4-1.9,1.9-3.7
					c-0.1-0.5-0.5-1.3-1-2.3c-0.3-0.5-0.6-1-0.9-1.5c0,1.5-0.8,3.8-3.4,4.4C25.5,41.5,25.5,41.7,25.6,41.9z"/>
				<path id="XMLID_3069_" class="st7" d="M26,42.8c0.6,0.9,1.7,1.5,2.8,1.3c1.5-0.2,2.4-1.9,1.9-3.7c-0.1-0.5-0.5-1.3-1-2.3
					C30,40.4,29.3,43,26,42.8z"/>
				<path id="XMLID_3068_" class="st8" d="M27.5,36.4c0-0.1-2.1-2.6-2.4-2.4c-0.2,0.2,0.9,4.2,0.9,4.9
					C26.2,39.6,27.9,37.5,27.5,36.4z"/>
				<g id="XMLID_3064_">
					<path id="XMLID_3065_" class="st4" d="M25.7,43.1c-0.2-0.3-0.4-0.7-0.5-1.1c-0.1-0.2-0.1-0.5-0.2-0.8c0.4-0.1-1.9-8.1-0.9-9
						c0.2-0.1,1.2-1,5.1,4.2c0.3,0.5,0.6,1,1,1.5c0.4,0.6,0.9,1.8,1.1,2.4c0.6,2.1-0.6,4.1-2.3,4.3C27.7,44.8,26.4,44.2,25.7,43.1z
						 M26,41c0.1,0.4,0.1,0.6,0.1,0.7c0.1,0.3,0.2,0.5,0.4,0.8c0.5,0.8,1.4,1.2,2.4,1.1c1.2-0.2,2-1.6,1.6-3c-0.1-0.4-0.5-1.2-1-2.1
						c-0.3-0.5-0.6-1-0.9-1.4c-1.8-2.5-3.2-3.6-3.8-3.8C24.8,34.3,25.7,38.7,26,41z"/>
				</g>
			</g>
			<g id="XMLID_3053_">
				<path id="XMLID_3062_" class="st5" d="M21.4,43.9c0.4,0,0.7,0.1,1,0.3c1,0.5,1.7,1.5,1.7,2.6c0,1.5-1.5,2.7-3.4,2.4
					c-0.5-0.1-1.4-0.3-2.4-0.7c-0.5-0.2-1-0.4-1.6-0.7c-2.6-1.3-4.9-3.3-4.6-3.8c0.4-0.6,6.2,0.1,8.5-0.1
					C20.9,43.9,21.2,43.9,21.4,43.9z"/>
				<path id="XMLID_3061_" class="st6" d="M21.4,43.9c0.4,0,0.7,0.1,1,0.3c1,0.5,1.7,1.5,1.7,2.6c0,1.5-1.5,2.7-3.4,2.4
					c-0.5-0.1-1.4-0.3-2.4-0.7c-0.5-0.2-1-0.4-1.6-0.7c1.5-0.2,3.6-1.3,3.9-4C20.9,43.9,21.2,43.9,21.4,43.9z"/>
				<path id="XMLID_3060_" class="st7" d="M22.3,44.2c1,0.5,1.7,1.5,1.7,2.6c0,1.5-1.5,2.7-3.4,2.4c-0.5-0.1-1.4-0.3-2.4-0.7
					C20.5,48.5,23,47.5,22.3,44.2z"/>
				<path id="XMLID_3059_" class="st8" d="M16.2,46.7c-0.1,0-2.8-1.7-2.7-2c0.1-0.2,4.3,0.3,4.9,0.2C19.1,44.9,17.3,46.9,16.2,46.7z
					"/>
				<g id="XMLID_3055_">
					<path id="XMLID_3056_" class="st4" d="M24.6,47c0,1.7-1.8,3.2-4,2.9c-0.7-0.1-1.9-0.5-2.6-0.8c-0.6-0.2-1.1-0.5-1.6-0.7
						c-5.7-3.2-4.9-4.3-4.9-4.5c0.8-1.1,9,0,9-0.3c0.3,0,0.6,0,0.8,0c0.4,0.1,0.8,0.2,1.1,0.3C23.7,44.5,24.6,45.6,24.6,47z
						 M12.6,44.4c0.3,0.5,1.6,1.8,4.3,3.2c0.5,0.2,1,0.5,1.5,0.7c1,0.4,1.8,0.6,2.2,0.7c1.5,0.2,2.7-0.8,2.8-2
						c0-0.9-0.5-1.8-1.4-2.2c-0.3-0.1-0.5-0.2-0.8-0.2c-0.1,0-0.3,0-0.7,0C18.2,44.6,13.7,44.2,12.6,44.4z"/>
				</g>
			</g>
			<g id="XMLID_3043_">
				<path id="XMLID_3052_" class="st5" d="M26.3,43.8c0.3,0.2,0.6,0.4,0.8,0.6c0.8,0.8,1.1,2,0.7,3c-0.5,1.4-2.4,2-4,1.1
					c-0.4-0.2-1.2-0.8-2-1.5c-0.4-0.4-0.8-0.8-1.2-1.2c-2-2.1-3.5-4.8-3.1-5.2c0.6-0.4,5.8,2.2,8.1,2.8
					C25.9,43.6,26.2,43.7,26.3,43.8z"/>
				<path id="XMLID_3051_" class="st6" d="M26.3,43.8c0.3,0.2,0.6,0.4,0.8,0.6c0.8,0.8,1.1,2,0.7,3c-0.5,1.4-2.4,2-4,1.1
					c-0.4-0.2-1.2-0.8-2-1.5c-0.4-0.4-0.8-0.8-1.2-1.2c1.5,0.3,3.8,0,5-2.4C25.9,43.6,26.2,43.7,26.3,43.8z"/>
				<path id="XMLID_3050_" class="st7" d="M27.1,44.4c0.8,0.8,1.1,2,0.7,3c-0.5,1.4-2.4,2-4,1.1c-0.4-0.2-1.2-0.8-2-1.5
					C24,47.9,26.6,47.7,27.1,44.4z"/>
				<path id="XMLID_3049_" class="st8" d="M20.5,44.6c-0.1,0-2.1-2.6-1.8-2.8c0.2-0.1,3.9,1.7,4.6,1.9C23.9,44,21.5,45.2,20.5,44.6z
					"/>
				<g id="XMLID_3044_">
					<path id="XMLID_3045_" class="st4" d="M28.3,47.7c-0.6,1.6-2.8,2.4-4.7,1.4C23,48.8,22,48,21.4,47.5c-0.5-0.4-0.9-0.8-1.3-1.3
						c-4.2-4.9-3.2-5.7-3.1-5.9c1.1-0.7,8.4,3.1,8.6,2.8c0.3,0.1,0.6,0.2,0.8,0.3c0.4,0.2,0.7,0.4,1,0.7
						C28.4,45.1,28.7,46.5,28.3,47.7z M17.9,41.2c0.1,0.6,0.9,2.2,3,4.5c0.4,0.4,0.8,0.8,1.2,1.2c0.8,0.7,1.5,1.2,1.9,1.4
						c1.3,0.7,2.8,0.2,3.3-0.9c0.4-0.9,0.1-1.8-0.6-2.5c-0.2-0.2-0.4-0.4-0.7-0.5c-0.1-0.1-0.3-0.1-0.7-0.3
						C23.2,43.3,19,41.5,17.9,41.2z"/>
				</g>
			</g>
		</g>
	</g>
	<g id="XMLID_2667_">
		<g id="XMLID_3600_">
			<path id="XMLID_3962_" class="st0" d="M94,114.7c1.3,1.3,2.5,2.3,3.4,3.1c0,0,0,0,0,0c1.2,1,3.4,0.3,5.1-1.6l3.5-4.1
				c1.8-2.1,2.3-4.8,1.1-6c-2.5-2.5-8.1-7.7-21.4-19.3c-11.4-10-24.4-24.6-36.5-39.6C37.6,32.8,26.7,18.2,18.9,7.3
				c-0.7-1-1.7-1.1-2.4-0.8c-0.2,0.1-0.4,0.2-0.5,0.4c-0.5,0.5-0.7,1.3-0.3,2.2c8.4,18.2,19.1,35.3,30,50.2
				C65.5,86.7,85.6,106.8,94,114.7z"/>
			<path id="XMLID_3733_" class="st1" d="M94,114.7c1.6,1.5,2.5,2.3,3.4,3.1c0,0,0,0,0,0c1.2,1,3.4,0.3,5.1-1.6l3.5-4.1
				c1.8-2.1,2.3-4.8,1.1-6c-2.5-2.5-8.1-7.7-21.4-19.3C74,76.6,60.7,61.4,48.3,46.1c0,0-0.1-0.1-0.1-0.1c-0.7-0.8-1.4-1.7-2-2.5
				c-0.1-0.1-0.2-0.2-0.2-0.3c-0.6-0.8-1.3-1.6-1.9-2.4c-0.1-0.2-0.2-0.3-0.4-0.5c-0.6-0.7-1.2-1.5-1.7-2.2
				c-0.2-0.2-0.3-0.4-0.5-0.6c-0.5-0.7-1.1-1.4-1.6-2c-0.2-0.3-0.4-0.5-0.6-0.8c-0.5-0.6-1-1.2-1.4-1.9c-0.2-0.3-0.5-0.6-0.7-0.9
				c-0.4-0.6-0.8-1.1-1.3-1.7c-0.2-0.3-0.5-0.6-0.7-0.9c0-0.1-0.1-0.1-0.1-0.2c-0.4-0.5-0.7-0.9-1.1-1.4c-0.3-0.4-0.7-0.9-1-1.3
				c-0.3-0.4-0.6-0.7-0.8-1.1c-0.4-0.5-0.8-1-1.2-1.5c-0.2-0.3-0.4-0.5-0.6-0.8c-0.5-0.6-0.9-1.2-1.4-1.8c-0.1-0.1-0.2-0.2-0.2-0.3
				c-3.6-4.9-7-9.4-9.9-13.5c-0.3-0.4-0.6-0.6-0.9-0.8c-0.5-0.3-1.1-0.2-1.6,0c-0.2,0.1-0.4,0.2-0.5,0.4c-0.5,0.5-0.7,1.3-0.3,2.2
				c3.6,7.8,7.6,15.3,11.9,22.6c5.7,9.8,11.9,19.1,18.1,27.6c0.3-1,0.2-1.9-0.5-2.8c-8.5-11.2-8.7-15.3-7-16.1
				c1.7-0.8,7.5,6.8,7.5,6.8l0,0c10,12.9,20.7,25.7,30.1,35.8C96.8,105.4,103.5,109.4,94,114.7z"/>
			<path id="XMLID_3725_" class="st2" d="M92.3,96.2C74.7,81.5,45,44.9,36.4,34.2c-1.7-2-6.5,0.1-4.8,4.3
				c-4.4-7.5-12.4-21.7-16-29.4c-0.4-0.9-0.2-1.7,0.3-2.2l0,0l0,0c0,0,0,0,0,0c0.1-0.1,0.2-0.1,0.2-0.2c0,0,0,0,0.1,0
				c0.1,0,0.1-0.1,0.2-0.1c0,0,0.1,0,0.1,0c0,0,0,0,0,0c0.1,0,0.2-0.1,0.3-0.1c0,0,0.1,0,0.1,0c0.1,0,0.2,0,0.3,0c0,0,0.1,0,0.1,0
				c0.1,0,0.2,0,0.3,0.1c0,0,0.1,0,0.1,0c0.1,0,0.1,0,0.2,0.1c0,0,0,0,0.1,0c0.1,0,0.2,0.1,0.2,0.2c0.1,0,0.1,0.1,0.2,0.1
				C18.6,7,18.7,7,18.7,7.1c0.1,0.1,0.1,0.1,0.2,0.2c2.9,4,6.2,8.6,9.9,13.5c0.1,0.1,0.2,0.2,0.2,0.3c0.4,0.6,0.9,1.2,1.4,1.8
				c0.2,0.3,0.4,0.5,0.6,0.8c0,0,0,0,0,0c0.4,0.5,0.8,1,1.1,1.5c0.3,0.4,0.6,0.7,0.8,1.1c0.1,0.1,0.2,0.3,0.3,0.4
				c0.2,0.3,0.5,0.6,0.7,1c0.1,0.1,0.2,0.3,0.3,0.4c0.3,0.4,0.5,0.7,0.8,1.1c0,0,0,0,0,0l0,0c15.3,20.1,34.6,43.6,50.5,57.5
				c13.3,11.6,18.9,16.8,21.4,19.3c1.2,1.2,0.7,4-1.1,6l-3.5,4.1c-1.7,1.9-3.9,2.6-5.1,1.6C102.1,112.8,108.3,109.6,92.3,96.2z"/>
			<path id="XMLID_3834_" class="st3" d="M44.3,47.4c0.3,0.4,9.5,13.9,23.3,30.3c13.3,15.8,28,26.8,25.2,29.3
				c-2.8,2.5-27.2-23.8-33-33.1C54,64.3,39.8,46.4,38.7,44.3C36.8,40.5,39.6,40.4,44.3,47.4z"/>
			<g id="XMLID_3795_">
				<path id="XMLID_3796_" class="st4" d="M97,118.4L97,118.4c-1-0.9-2.1-1.9-3.4-3.2l0,0c-8.1-7.6-28.3-27.6-48.4-55.5
					c-12.5-17.3-22.5-34.3-30-50.3c-0.4-1-0.3-2,0.4-2.7c0.2-0.2,0.4-0.4,0.7-0.5c0.8-0.4,2.1-0.3,2.9,0.9
					C29.7,21.5,40,35,49.6,46.9C63.5,64,75.9,77.5,86,86.4c10.4,9.1,17.7,15.6,21.4,19.3c1.5,1.5,1,4.6-1,6.9l-3.5,4.1
					c0,0-0.1,0.1-0.1,0.1C100.9,118.9,98.4,119.6,97,118.4z M16.2,7.2c-0.4,0.4-0.4,1-0.1,1.6c7.4,16,17.4,32.9,30,50.1
					c20.1,27.8,40.3,47.7,48.3,55.3l0,0c1.3,1.2,2.4,2.2,3.3,3.1l0.1,0.1c0.9,0.8,2.9,0.1,4.3-1.5l3.5-4.1c1.6-1.8,2.1-4.2,1.1-5.1
					c-3.7-3.7-11-10.2-21.4-19.3c-10.2-8.9-22.6-22.5-36.5-39.7c-9.6-11.9-19.9-25.5-30.3-40c-0.6-0.9-1.4-0.9-1.9-0.7
					C16.4,7,16.3,7.1,16.2,7.2C16.2,7.2,16.2,7.2,16.2,7.2z"/>
			</g>
		</g>
		<g id="XMLID_3724_">
			<path id="XMLID_3785_" class="st5" d="M56.6,65.4c0.3,0.3,0.6,0.6,0.9,0.9c0.7,1.1,0.9,2.6,0.2,3.8c-0.9,1.6-3.2,1.9-5,0.6
				c-0.5-0.3-1.3-1.1-2.1-2.2c-0.4-0.5-0.8-1.1-1.2-1.7c-2-2.9-3.2-6.4-2.6-6.8c0.8-0.4,6.5,3.8,9.1,5
				C56.2,65.1,56.4,65.3,56.6,65.4z"/>
			<path id="XMLID_3784_" class="st6" d="M56.6,65.4c0.3,0.3,0.6,0.6,0.9,0.9c0.7,1.1,0.9,2.6,0.2,3.8c-0.9,1.6-3.2,1.9-5,0.6
				c-0.5-0.3-1.3-1.1-2.1-2.2c-0.4-0.5-0.8-1.1-1.2-1.7c1.7,0.6,4.6,0.8,6.5-1.8C56.2,65.1,56.4,65.3,56.6,65.4z"/>
			<path id="XMLID_3783_" class="st7" d="M57.5,66.3c0.7,1.1,0.9,2.6,0.2,3.8c-0.9,1.6-3.2,1.9-5,0.6c-0.5-0.3-1.3-1.1-2.1-2.2
				C53,69.7,56.2,70,57.5,66.3z"/>
			<path id="XMLID_3782_" class="st8" d="M49.5,65.2c-0.2-0.1-2-3.5-1.6-3.7c0.3-0.1,4.3,2.8,5.1,3.2C53.7,65.1,50.6,66.1,49.5,65.2
				z"/>
			<g id="XMLID_3778_">
				<path id="XMLID_3779_" class="st4" d="M58.2,70.5c-1,1.8-3.8,2.3-5.9,0.7c-0.7-0.5-1.7-1.7-2.2-2.3c-0.5-0.6-0.9-1.2-1.3-1.7
					c-4.1-6.7-2.6-7.5-2.5-7.6c1.5-0.6,9.5,5.4,9.7,5c0.4,0.2,0.6,0.4,0.8,0.5c0.4,0.3,0.7,0.6,1,1C58.8,67.4,59,69.1,58.2,70.5z
					 M47.1,60.6c0.1,0.7,0.6,2.8,2.7,5.9c0.4,0.5,0.8,1.1,1.2,1.7c0.8,1,1.6,1.8,2,2.1c1.4,1.1,3.3,0.8,4.1-0.4
					c0.6-0.9,0.5-2.2-0.2-3.1c-0.2-0.3-0.4-0.5-0.7-0.8c-0.1-0.1-0.3-0.2-0.7-0.5C52.9,64.2,48.4,61.2,47.1,60.6z"/>
			</g>
		</g>
		<g id="XMLID_3786_">
			<path id="XMLID_3794_" class="st5" d="M75.6,83.2c0.2,0.4,0.5,0.7,0.8,1c1,0.9,2.4,1.2,3.7,0.6c1.7-0.7,2.3-3,1.1-4.9
				c-0.3-0.5-1-1.4-1.9-2.3c-0.5-0.5-1-1-1.5-1.4c-2.6-2.3-6-3.9-6.5-3.4c-0.5,0.7,3,6.9,3.9,9.6C75.3,82.7,75.5,83,75.6,83.2z"/>
			<path id="XMLID_3793_" class="st6" d="M75.6,83.2c0.2,0.4,0.5,0.7,0.8,1c1,0.9,2.4,1.2,3.7,0.6c1.7-0.7,2.3-3,1.1-4.9
				c-0.3-0.5-1-1.4-1.9-2.3c-0.5-0.5-1-1-1.5-1.4c0.4,1.8,0.3,4.6-2.6,6.2C75.3,82.7,75.5,83,75.6,83.2z"/>
			<path id="XMLID_3792_" class="st7" d="M76.4,84.2c1,0.9,2.4,1.2,3.7,0.6c1.7-0.7,2.3-3,1.1-4.9c-0.3-0.5-1-1.4-1.9-2.3
				C80.3,80.1,80.2,83.3,76.4,84.2z"/>
			<path id="XMLID_3791_" class="st8" d="M76.2,76.2c0-0.2-3.3-2.4-3.5-2c-0.2,0.2,2.3,4.6,2.6,5.4C75.6,80.3,76.9,77.3,76.2,76.2z"
				/>
			<g id="XMLID_3787_">
				<path id="XMLID_3788_" class="st4" d="M76.1,84.6c-0.4-0.3-0.7-0.7-0.9-1.1c-0.1-0.2-0.3-0.5-0.4-0.9c0.4-0.2-4.7-8.9-3.9-10.3
					c0.2-0.1,1.1-1.5,7.3,3.3c0.5,0.4,1.1,0.9,1.6,1.5c0.6,0.6,1.6,1.8,2,2.5c1.3,2.3,0.6,5-1.4,5.8C79,86,77.3,85.6,76.1,84.6z
					 M75.8,82.1c0.2,0.4,0.3,0.7,0.4,0.8c0.2,0.3,0.4,0.6,0.7,0.8c0.9,0.8,2.1,1,3.1,0.5c1.3-0.6,1.8-2.5,0.9-4
					c-0.2-0.4-0.9-1.3-1.8-2.2c-0.5-0.5-1-1-1.5-1.4c-2.8-2.4-4.9-3.2-5.6-3.3C72.3,74.5,74.8,79.4,75.8,82.1z"/>
			</g>
		</g>
		<g id="XMLID_3800_">
			<path id="XMLID_3808_" class="st5" d="M45.9,49.7c0.2,0.4,0.4,0.8,0.6,1.1c0.8,1,2.2,1.6,3.6,1.3c1.7-0.4,2.7-2.6,1.9-4.6
				c-0.2-0.5-0.7-1.5-1.5-2.6c-0.4-0.5-0.8-1.1-1.3-1.7c-2.2-2.7-5.3-4.8-5.8-4.4c-0.6,0.6,1.8,7.3,2.2,10.1
				C45.7,49.2,45.8,49.5,45.9,49.7z"/>
			<path id="XMLID_3807_" class="st6" d="M45.9,49.7c0.2,0.4,0.4,0.8,0.6,1.1c0.8,1,2.2,1.6,3.6,1.3c1.7-0.4,2.7-2.6,1.9-4.6
				c-0.2-0.5-0.7-1.5-1.5-2.6c-0.4-0.5-0.8-1.1-1.3-1.7c0.1,1.8-0.5,4.6-3.6,5.7C45.7,49.2,45.8,49.5,45.9,49.7z"/>
			<path id="XMLID_3806_" class="st7" d="M46.5,50.8c0.8,1,2.2,1.6,3.6,1.3c1.7-0.4,2.7-2.6,1.9-4.6c-0.2-0.5-0.7-1.5-1.5-2.6
				C51.1,47.4,50.5,50.6,46.5,50.8z"/>
			<path id="XMLID_3805_" class="st8" d="M47.6,42.9c0-0.2-2.8-2.9-3.1-2.6c-0.2,0.2,1.5,4.9,1.7,5.7C46.4,46.8,48.2,44.1,47.6,42.9
				z"/>
			<g id="XMLID_3801_">
				<path id="XMLID_3802_" class="st4" d="M46.2,51.1c-0.3-0.4-0.5-0.8-0.7-1.2c-0.1-0.2-0.2-0.6-0.3-1c0.4-0.2-3.1-9.5-2.1-10.7
					c0.2-0.1,1.3-1.3,6.6,4.5c0.4,0.5,0.9,1.1,1.3,1.7c0.5,0.7,1.3,2,1.6,2.8c0.9,2.5-0.2,5-2.3,5.5C48.8,53,47.2,52.4,46.2,51.1z
					 M46.3,48.6c0.1,0.5,0.2,0.7,0.2,0.8c0.1,0.3,0.3,0.6,0.5,0.9c0.7,0.9,1.9,1.3,2.9,1c1.4-0.4,2.2-2.1,1.6-3.8
					c-0.2-0.5-0.7-1.4-1.4-2.5c-0.4-0.6-0.8-1.1-1.3-1.6c-2.4-2.8-4.3-4-5-4.2C44.1,40.6,45.7,45.8,46.3,48.6z"/>
			</g>
		</g>
		<g id="XMLID_3809_">
			<g id="XMLID_4042_">
				<path id="XMLID_4050_" class="st5" d="M15.4,9.7c0.2,0.3,0.4,0.6,0.7,0.8c0.9,0.7,2.2,0.8,3.3,0.1c1.4-0.8,1.8-2.6,0.9-4
					c-0.2-0.4-0.8-1-1.4-1.7c-0.3-0.4-0.7-0.7-1.1-1.1c-1.9-1.8-4.1-3.6-4.6-3.3C12.3,1.1,14,6.7,15,9C15.1,9.3,15.2,9.6,15.4,9.7z"
					/>
				<path id="XMLID_4049_" class="st6" d="M15.4,9.7c0.2,0.3,0.4,0.6,0.7,0.8c0.9,0.7,2.2,0.8,3.3,0.1c1.4-0.8,1.8-2.6,0.9-4
					c-0.2-0.4-0.8-1-1.4-1.7c-0.3-0.4-0.7-0.7-1.1-1.1C17.8,5.3,17.5,7.6,15,9C15.1,9.3,15.2,9.6,15.4,9.7z"/>
				<path id="XMLID_4048_" class="st7" d="M16.1,10.5c0.9,0.7,2.2,0.8,3.3,0.1c1.4-0.8,1.8-2.6,0.9-4c-0.2-0.4-0.8-1-1.4-1.7
					C19.4,6.9,19.4,9.5,16.1,10.5z"/>
				<path id="XMLID_4047_" class="st8" d="M16.4,3.8c0-0.1-2.3-2.1-2.6-2s1.1,4.1,1.3,4.7S16.8,4.8,16.4,3.8z"/>
				<g id="XMLID_4043_">
					<path id="XMLID_4044_" class="st4" d="M15.9,10.9c-0.3-0.3-0.6-0.6-0.9-0.9c-0.1-0.2-0.2-0.4-0.4-0.8c0-0.1-3.2-8.1-1.7-9.1
						c0.3-0.2,1-0.7,5.3,3.4c0.4,0.3,0.7,0.7,1.1,1.1c0.4,0.4,1.2,1.3,1.5,1.8c1,1.6,0.5,3.7-1.1,4.7C18.5,11.8,17,11.7,15.9,10.9z
						 M15.5,8.8c0.2,0.4,0.3,0.6,0.3,0.7c0.2,0.3,0.4,0.5,0.6,0.7c0.8,0.6,1.9,0.6,2.7,0.1c1.1-0.7,1.5-2.2,0.8-3.3
						c-0.2-0.3-0.7-0.9-1.4-1.6c-0.4-0.4-0.7-0.8-1.1-1.1c-2-1.9-3.4-2.9-4-3.2C13.3,2.2,14.6,6.5,15.5,8.8z"/>
				</g>
			</g>
			<g id="XMLID_4051_">
				<path id="XMLID_4059_" class="st5" d="M20.2,11.7c0.2,0.4,0.4,0.7,0.7,1c0.9,0.9,2.2,1.4,3.5,1c1.6-0.5,2.4-2.6,1.6-4.5
					c-0.2-0.5-0.8-1.4-1.6-2.4c-0.4-0.5-0.8-1-1.3-1.5c-2.3-2.4-5.3-4.3-5.8-3.8c-0.5,0.6,2.2,6.8,2.7,9.5
					C20,11.2,20.1,11.5,20.2,11.7z"/>
				<path id="XMLID_4058_" class="st6" d="M20.2,11.7c0.2,0.4,0.4,0.7,0.7,1c0.9,0.9,2.2,1.4,3.5,1c1.6-0.5,2.4-2.6,1.6-4.5
					c-0.2-0.5-0.8-1.4-1.6-2.4c-0.4-0.5-0.8-1-1.3-1.5c0.2,1.7-0.2,4.4-3,5.6C20,11.2,20.1,11.5,20.2,11.7z"/>
				<path id="XMLID_4057_" class="st7" d="M20.8,12.7c0.9,0.9,2.2,1.4,3.5,1c1.6-0.5,2.4-2.6,1.6-4.5c-0.2-0.5-0.8-1.4-1.6-2.4
					C25,9.2,24.6,12.3,20.8,12.7z"/>
				<path id="XMLID_4056_" class="st8" d="M21.4,5.1c0-0.2-2.9-2.6-3.2-2.3C18.1,3,20,7.4,20.2,8.2C20.5,8.9,22,6.2,21.4,5.1z"/>
				<g id="XMLID_4052_">
					<path id="XMLID_4053_" class="st4" d="M20.5,13c-0.3-0.3-0.6-0.7-0.8-1.1c-0.1-0.2-0.2-0.5-0.3-0.9c0.4-0.2-3.6-8.9-2.7-10.1
						c0.2-0.1,1.2-1.3,6.6,3.9c0.4,0.5,0.9,1,1.4,1.5c0.5,0.6,1.4,1.8,1.7,2.6c1,2.3,0.1,4.8-1.9,5.3C23.1,14.7,21.6,14.1,20.5,13z
						 M20.5,10.7c0.1,0.4,0.2,0.7,0.3,0.8c0.1,0.3,0.3,0.6,0.6,0.8c0.8,0.8,1.9,1.1,2.9,0.8c1.3-0.5,2-2.2,1.3-3.7
						c-0.2-0.4-0.7-1.3-1.5-2.3c-0.4-0.5-0.9-1-1.3-1.5c-2.4-2.5-4.3-3.5-5-3.7C17.9,3.2,19.8,8,20.5,10.7z"/>
				</g>
			</g>
			<g id="XMLID_4015_">
				<path id="XMLID_4023_" class="st5" d="M25.3,17.4c0.1,0.4,0.3,0.8,0.5,1.2c0.7,1.2,2.1,1.9,3.5,1.8c1.9-0.2,3.1-2.3,2.6-4.5
					c-0.1-0.6-0.6-1.7-1.2-2.9c-0.3-0.6-0.7-1.2-1.1-1.9c-1.9-3.1-4.8-5.7-5.4-5.3c-0.7,0.6,0.9,7.7,0.9,10.7
					C25.2,16.8,25.3,17.1,25.3,17.4z"/>
				<path id="XMLID_4022_" class="st6" d="M25.3,17.4c0.1,0.4,0.3,0.8,0.5,1.2c0.7,1.2,2.1,1.9,3.5,1.8c1.9-0.2,3.1-2.3,2.6-4.5
					c-0.1-0.6-0.6-1.7-1.2-2.9c-0.3-0.6-0.7-1.2-1.1-1.9c-0.1,1.9-1.1,4.7-4.4,5.4C25.2,16.8,25.3,17.1,25.3,17.4z"/>
				<path id="XMLID_4021_" class="st7" d="M25.8,18.5c0.7,1.2,2.1,1.9,3.5,1.8c1.9-0.2,3.1-2.3,2.6-4.5c-0.1-0.6-0.6-1.7-1.2-2.9
					C31,15.7,29.9,18.9,25.8,18.5z"/>
				<path id="XMLID_4020_" class="st8" d="M28.1,10.5c0-0.2-2.5-3.3-2.9-3.1c-0.2,0.2,0.9,5.3,0.9,6.1
					C26.3,14.4,28.5,11.9,28.1,10.5z"/>
				<g id="XMLID_4016_">
					<path id="XMLID_4017_" class="st4" d="M25.5,18.8c-0.3-0.4-0.5-0.9-0.6-1.4c-0.1-0.2-0.1-0.6-0.2-1c0.5-0.1-1.9-10.2-0.7-11.3
						c0.2-0.1,1.5-1.1,6.2,5.5c0.4,0.6,0.8,1.2,1.1,1.9c0.4,0.8,1.1,2.2,1.3,3.1c0.6,2.7-0.9,5.1-3.1,5.3
						C27.9,21.1,26.3,20.2,25.5,18.8z M25.9,16.3c0.1,0.5,0.1,0.7,0.1,0.9c0.1,0.4,0.2,0.7,0.4,1c0.6,1,1.7,1.6,2.9,1.4
						c1.5-0.2,2.6-1.9,2.1-3.7c-0.1-0.5-0.5-1.5-1.1-2.7c-0.3-0.7-0.7-1.3-1.1-1.8c-2.1-3.2-3.9-4.7-4.5-5
						C24.8,7.8,25.7,13.4,25.9,16.3z"/>
				</g>
			</g>
			<g id="XMLID_4033_">
				<path id="XMLID_4041_" class="st5" d="M20.1,11.5c0.3,0.3,0.5,0.7,0.6,1c0.5,1.2,0.3,2.6-0.6,3.5c-1.2,1.3-3.4,1.1-4.8-0.5
					c-0.4-0.4-0.9-1.3-1.5-2.5c-0.3-0.6-0.6-1.2-0.8-1.8c-1.2-3.1-1.7-6.6-1-6.9c0.8-0.2,5.3,4.8,7.4,6.5
					C19.8,11.1,20,11.3,20.1,11.5z"/>
				<path id="XMLID_4040_" class="st6" d="M20.1,11.5c0.3,0.3,0.5,0.7,0.6,1c0.5,1.2,0.3,2.6-0.6,3.5c-1.2,1.3-3.4,1.1-4.8-0.5
					c-0.4-0.4-0.9-1.3-1.5-2.5c-0.3-0.6-0.6-1.2-0.8-1.8c1.4,0.9,4.1,1.7,6.4-0.4C19.8,11.1,20,11.3,20.1,11.5z"/>
				<path id="XMLID_4039_" class="st7" d="M20.7,12.5c0.5,1.2,0.3,2.6-0.6,3.5c-1.2,1.3-3.4,1.1-4.8-0.5c-0.4-0.4-0.9-1.3-1.5-2.5
					C15.8,14.8,18.8,15.7,20.7,12.5z"/>
				<path id="XMLID_4038_" class="st8" d="M13.6,9.8c-0.1-0.1-1.1-3.7-0.7-3.8c0.3-0.1,3.4,3.5,4.1,4C17.4,10.6,14.4,10.9,13.6,9.8z
					"/>
				<g id="XMLID_4034_">
					<path id="XMLID_4035_" class="st4" d="M20.5,16.5c-1.3,1.5-4,1.4-5.6-0.6c-0.5-0.6-1.3-1.9-1.6-2.6c-0.3-0.7-0.6-1.3-0.8-1.9
						C10,4.4,11.6,4,11.7,3.9c1.5-0.3,7.7,6.9,8,6.7c0.3,0.3,0.5,0.5,0.7,0.7c0.3,0.4,0.5,0.7,0.7,1.2
						C21.7,13.8,21.5,15.4,20.5,16.5z M12.3,5.1c-0.1,0.7,0,2.8,1.3,6.1c0.2,0.6,0.5,1.2,0.8,1.8c0.5,1.1,1.1,2,1.4,2.3
						c1.1,1.3,2.9,1.5,3.9,0.4c0.7-0.8,0.9-1.9,0.5-2.9c-0.1-0.3-0.3-0.6-0.5-0.8c-0.1-0.1-0.3-0.3-0.6-0.6
						C16.9,9.6,13.3,5.9,12.3,5.1z"/>
				</g>
			</g>
			<g id="XMLID_3997_">
				<path id="XMLID_4005_" class="st5" d="M22.6,18.2c0.3,0.3,0.6,0.6,0.9,1c0.7,1.2,0.9,2.7,0.1,3.9c-1,1.6-3.4,1.9-5.2,0.4
					c-0.5-0.4-1.3-1.2-2.1-2.3c-0.4-0.6-0.8-1.2-1.2-1.8c-1.9-3-3.1-6.8-2.4-7.1c0.8-0.4,6.6,4.2,9.2,5.5
					C22.2,17.9,22.5,18.1,22.6,18.2z"/>
				<path id="XMLID_4004_" class="st6" d="M22.6,18.2c0.3,0.3,0.6,0.6,0.9,1c0.7,1.2,0.9,2.7,0.1,3.9c-1,1.6-3.4,1.9-5.2,0.4
					c-0.5-0.4-1.3-1.2-2.1-2.3c-0.4-0.6-0.8-1.2-1.2-1.8c1.7,0.7,4.7,1,6.8-1.7C22.2,17.9,22.5,18.1,22.6,18.2z"/>
				<path id="XMLID_4003_" class="st7" d="M23.5,19.2c0.7,1.2,0.9,2.7,0.1,3.9c-1,1.6-3.4,1.9-5.2,0.4c-0.5-0.4-1.3-1.2-2.1-2.3
					C18.7,22.6,22,23,23.5,19.2z"/>
				<path id="XMLID_4002_" class="st8" d="M15.3,17.7c-0.2-0.1-1.9-3.7-1.5-3.9c0.3-0.1,4.4,3.1,5.1,3.5
					C19.6,17.8,16.4,18.7,15.3,17.7z"/>
				<g id="XMLID_3998_">
					<path id="XMLID_3999_" class="st4" d="M24.1,23.5c-1.1,1.9-4,2.2-6.1,0.5c-0.7-0.5-1.7-1.8-2.2-2.5c-0.5-0.6-0.9-1.3-1.2-1.9
						c-4-7.1-2.4-7.8-2.3-8c1.5-0.6,9.6,5.9,9.9,5.6c0.4,0.2,0.7,0.4,0.9,0.6c0.4,0.3,0.7,0.7,1,1.1C24.8,20.4,25,22.1,24.1,23.5z
						 M13,12.9c0,0.7,0.5,3,2.5,6.2c0.3,0.6,0.7,1.2,1.2,1.8c0.8,1.1,1.6,1.9,2,2.2c1.5,1.2,3.4,1,4.3-0.3c0.6-1,0.6-2.2,0-3.2
						c-0.2-0.3-0.4-0.6-0.7-0.8c-0.1-0.1-0.3-0.2-0.7-0.5C18.9,16.8,14.3,13.5,13,12.9z"/>
				</g>
			</g>
			<g id="XMLID_3743_">
				<path id="XMLID_3751_" class="st5" d="M21,20.4c0.3,0.4,0.6,0.8,0.9,1c1.2,0.9,2.9,1,4.2,0.2c1.8-1.1,2.3-3.4,1.2-5.2
					c-0.3-0.5-1-1.3-1.9-2.2c-0.4-0.5-0.9-0.9-1.4-1.4c-2.4-2.3-5.4-4.7-6-4.3c-1,0.6,1.2,8,2.5,11C20.7,19.9,20.9,20.2,21,20.4z"/>
				<path id="XMLID_3750_" class="st6" d="M21,20.4c0.3,0.4,0.6,0.8,0.9,1c1.2,0.9,2.9,1,4.2,0.2c1.8-1.1,2.3-3.4,1.2-5.2
					c-0.3-0.5-1-1.3-1.9-2.2c-0.4-0.5-0.9-0.9-1.4-1.4c0.1,1.8-0.3,4.8-3.5,6.7C20.7,19.9,20.9,20.2,21,20.4z"/>
				<path id="XMLID_3749_" class="st7" d="M22,21.5c1.2,0.9,2.9,1,4.2,0.2c1.8-1.1,2.3-3.4,1.2-5.2c-0.3-0.5-1-1.3-1.9-2.2
					C26.2,16.7,26.3,20.1,22,21.5z"/>
				<path id="XMLID_3748_" class="st8" d="M22.4,12.7c-0.1-0.1-3-2.8-3.3-2.6c-0.4,0.2,1.4,5.3,1.7,6.1C21.1,17.1,22.9,14,22.4,12.7
					z"/>
				<g id="XMLID_3744_">
					<path id="XMLID_3745_" class="st4" d="M21.7,21.9c-0.4-0.3-0.8-0.7-1.1-1.2c-0.1-0.2-0.3-0.6-0.5-1c0-0.1-4.2-10.6-2.3-11.8
						c0.4-0.2,1.4-0.8,6.8,4.4c0.5,0.4,1,0.9,1.5,1.4c0.6,0.6,1.6,1.6,2,2.3c1.3,2.1,0.7,4.8-1.4,6.1C25.1,23.1,23.1,23,21.7,21.9z
						 M21.3,19.2c0.2,0.5,0.3,0.7,0.4,0.9c0.2,0.3,0.5,0.6,0.8,0.9c1,0.8,2.4,0.8,3.5,0.1c1.5-0.9,1.9-2.8,1-4.3
						c-0.2-0.4-0.9-1.2-1.8-2.1c-0.5-0.5-1-1-1.4-1.4c-2.6-2.5-4.5-3.8-5.2-4.1C18.4,10.6,20,16.2,21.3,19.2z"/>
				</g>
			</g>
			<g id="XMLID_3726_">
				<path id="XMLID_3735_" class="st5" d="M27.4,23.2c0.3,0.3,0.5,0.6,0.7,1c0.6,1.1,0.5,2.5-0.3,3.6c-1.1,1.4-3.3,1.4-4.8-0.1
					c-0.4-0.4-1-1.2-1.7-2.3c-0.3-0.5-0.6-1.1-0.9-1.8c-1.5-3-2.2-6.5-1.6-6.8c0.8-0.3,5.6,4.4,7.9,5.9C27,22.9,27.2,23.1,27.4,23.2
					z"/>
				<path id="XMLID_3734_" class="st6" d="M27.4,23.2c0.3,0.3,0.5,0.6,0.7,1c0.6,1.1,0.5,2.5-0.3,3.6c-1.1,1.4-3.3,1.4-4.8-0.1
					c-0.4-0.4-1-1.2-1.7-2.3c-0.3-0.5-0.6-1.1-0.9-1.8c1.5,0.8,4.2,1.4,6.3-0.9C27,22.9,27.2,23.1,27.4,23.2z"/>
				<path id="XMLID_3732_" class="st7" d="M28.1,24.2c0.6,1.1,0.5,2.5-0.3,3.6c-1.1,1.4-3.3,1.4-4.8-0.1c-0.4-0.4-1-1.2-1.7-2.3
					C23.4,26.9,26.4,27.6,28.1,24.2z"/>
				<path id="XMLID_3731_" class="st8" d="M20.7,22.1c-0.1-0.1-1.4-3.6-1-3.8c0.3-0.1,3.7,3.3,4.4,3.7
					C24.7,22.6,21.6,23.1,20.7,22.1z"/>
				<g id="XMLID_3727_">
					<path id="XMLID_3728_" class="st4" d="M28.2,28.2c-1.2,1.6-3.9,1.7-5.7-0.1c-0.6-0.6-1.4-1.8-1.8-2.5c-0.4-0.6-0.7-1.2-1-1.8
						c-3-6.9-1.5-7.4-1.3-7.5c1.5-0.4,8.2,6.3,8.5,6c0.3,0.2,0.6,0.5,0.7,0.6c0.3,0.3,0.6,0.7,0.8,1.1C29.2,25.4,29.1,27,28.2,28.2z
						 M19.1,17.5c0,0.7,0.2,2.8,1.7,5.9c0.3,0.5,0.6,1.1,0.9,1.7c0.6,1.1,1.3,1.9,1.6,2.2c1.2,1.2,3,1.2,3.9,0.1
						c0.7-0.8,0.7-2,0.3-3c-0.1-0.3-0.3-0.6-0.6-0.8c-0.1-0.1-0.3-0.3-0.6-0.5C24.1,21.6,20.2,18.2,19.1,17.5z"/>
				</g>
			</g>
			<g id="XMLID_3736_">
				<path id="XMLID_3810_" class="st5" d="M27.2,22.8c0.1,0.4,0.3,0.7,0.6,1c0.8,1,2.1,1.5,3.4,1.2c1.7-0.4,2.6-2.4,1.8-4.4
					c-0.2-0.5-0.7-1.5-1.4-2.5c-0.4-0.5-0.8-1.1-1.2-1.6c-2.1-2.6-5-4.6-5.5-4.2c-0.5,0.6,1.7,7,2.1,9.6
					C27,22.3,27.1,22.6,27.2,22.8z"/>
				<path id="XMLID_3799_" class="st6" d="M27.2,22.8c0.1,0.4,0.3,0.7,0.6,1c0.8,1,2.1,1.5,3.4,1.2c1.7-0.4,2.6-2.4,1.8-4.4
					c-0.2-0.5-0.7-1.5-1.4-2.5c-0.4-0.5-0.8-1.1-1.2-1.6c0.1,1.7-0.5,4.4-3.4,5.4C27,22.3,27.1,22.6,27.2,22.8z"/>
				<path id="XMLID_3742_" class="st7" d="M27.8,23.8c0.8,1,2.1,1.5,3.4,1.2c1.7-0.4,2.6-2.4,1.8-4.4c-0.2-0.5-0.7-1.5-1.4-2.5
					C32.1,20.6,31.6,23.6,27.8,23.8z"/>
				<path id="XMLID_3741_" class="st8" d="M28.9,16.2c0-0.2-2.7-2.7-3-2.5c-0.2,0.2,1.4,4.7,1.6,5.5C27.7,20,29.4,17.4,28.9,16.2z"
					/>
				<g id="XMLID_3737_">
					<path id="XMLID_3738_" class="st4" d="M27.5,24.1c-0.3-0.4-0.5-0.8-0.7-1.2c-0.1-0.2-0.2-0.5-0.3-0.9c0.4-0.2-3-9.1-2-10.3
						c0.2-0.1,1.3-1.2,6.3,4.3c0.4,0.5,0.8,1,1.3,1.6c0.5,0.7,1.3,1.9,1.5,2.7c0.9,2.4-0.2,4.8-2.2,5.2C30,25.9,28.4,25.3,27.5,24.1
						z M27.6,21.7c0.1,0.4,0.2,0.7,0.2,0.8c0.1,0.3,0.3,0.6,0.5,0.9c0.7,0.8,1.8,1.3,2.8,1c1.4-0.4,2.1-2,1.5-3.6
						c-0.2-0.4-0.7-1.3-1.4-2.3c-0.4-0.6-0.8-1.1-1.2-1.5c-2.3-2.7-4.1-3.8-4.7-4C25.5,14.1,27.1,19.1,27.6,21.7z"/>
				</g>
			</g>
			<g id="XMLID_3752_">
				<path id="XMLID_3760_" class="st5" d="M29.4,31.4c0.4,0.2,0.7,0.4,1,0.6c0.9,0.8,1.4,2.1,1,3.4c-0.5,1.6-2.5,2.4-4.4,1.6
					c-0.5-0.2-1.4-0.8-2.4-1.5c-0.5-0.4-1-0.8-1.5-1.3c-2.4-2.2-4.3-5.1-3.9-5.6c0.6-0.5,6.7,2,9.3,2.5C29,31.3,29.2,31.4,29.4,31.4
					z"/>
				<path id="XMLID_3759_" class="st6" d="M29.4,31.4c0.4,0.2,0.7,0.4,1,0.6c0.9,0.8,1.4,2.1,1,3.4c-0.5,1.6-2.5,2.4-4.4,1.6
					c-0.5-0.2-1.4-0.8-2.4-1.5c-0.5-0.4-1-0.8-1.5-1.3c1.7,0.2,4.3-0.3,5.5-3.1C29,31.3,29.2,31.4,29.4,31.4z"/>
				<path id="XMLID_3758_" class="st7" d="M30.4,32.1c0.9,0.8,1.4,2.1,1,3.4c-0.5,1.6-2.5,2.4-4.4,1.6c-0.5-0.2-1.4-0.8-2.4-1.5
					C27.1,36.2,30.1,35.8,30.4,32.1z"/>
				<path id="XMLID_3757_" class="st8" d="M22.9,32.8c-0.2,0-2.6-2.8-2.3-3.1c0.2-0.2,4.6,1.6,5.3,1.8
					C26.7,31.8,24.1,33.4,22.9,32.8z"/>
				<g id="XMLID_3753_">
					<path id="XMLID_3754_" class="st4" d="M32,35.7c-0.5,1.9-2.9,2.9-5.2,1.9c-0.7-0.3-1.9-1.1-2.5-1.6c-0.6-0.4-1.1-0.9-1.5-1.3
						c-5.2-5.2-4-6.2-3.9-6.4c1.2-0.9,9.8,2.8,10,2.4c0.4,0.1,0.7,0.2,0.9,0.3c0.4,0.2,0.8,0.4,1.1,0.7C31.8,32.8,32.4,34.3,32,35.7
						z M19.8,29.2c0.2,0.6,1.2,2.5,3.7,4.8c0.4,0.4,0.9,0.8,1.5,1.2c1,0.7,1.8,1.3,2.2,1.4c1.6,0.7,3.2,0,3.6-1.3
						c0.3-1,0-2.1-0.8-2.8c-0.2-0.2-0.5-0.4-0.8-0.5c-0.1,0-0.3-0.1-0.8-0.3C25.8,31.1,21,29.4,19.8,29.2z"/>
				</g>
			</g>
			<g id="XMLID_3769_">
				<path id="XMLID_3777_" class="st5" d="M32.4,27c0,0.4,0.1,0.8,0.2,1.1c0.4,1.2,1.4,2.1,2.7,2.3c1.7,0.2,3.2-1.3,3.3-3.4
					c0-0.5-0.1-1.6-0.4-2.8c-0.1-0.6-0.3-1.2-0.6-1.9c-1-3.1-3-6-3.6-5.8c-0.7,0.3-0.9,7-1.5,9.6C32.4,26.5,32.4,26.8,32.4,27z"/>
				<path id="XMLID_3776_" class="st6" d="M32.4,27c0,0.4,0.1,0.8,0.2,1.1c0.4,1.2,1.4,2.1,2.7,2.3c1.7,0.2,3.2-1.3,3.3-3.4
					c0-0.5-0.1-1.6-0.4-2.8c-0.1-0.6-0.3-1.2-0.6-1.9c-0.5,1.6-2,3.9-5,3.8C32.4,26.5,32.4,26.8,32.4,27z"/>
				<path id="XMLID_3775_" class="st7" d="M32.5,28.2c0.4,1.2,1.4,2.1,2.7,2.3c1.7,0.2,3.2-1.3,3.3-3.4c0-0.5-0.1-1.6-0.4-2.8
					C37.7,26.8,36.1,29.4,32.5,28.2z"/>
				<path id="XMLID_3774_" class="st8" d="M36.2,21.7c0-0.2-1.5-3.5-1.9-3.3c-0.2,0.1-0.3,4.8-0.5,5.6C33.8,24.7,36.3,23,36.2,21.7z
					"/>
				<g id="XMLID_3770_">
					<path id="XMLID_3771_" class="st4" d="M32.1,28.4c-0.1-0.4-0.2-0.9-0.2-1.3c0-0.2,0-0.5,0.1-0.9c0.4,0,0.5-9.4,1.8-10.1
						c0.2,0,1.6-0.7,4.3,6.2c0.2,0.6,0.4,1.2,0.6,1.9c0.2,0.8,0.5,2.2,0.5,3c0,2.5-1.9,4.3-3.9,4C33.8,30.9,32.6,29.8,32.1,28.4z
						 M33.1,26.2C33,26.7,33,26.9,33,27c0,0.3,0,0.7,0.1,1c0.3,1,1.2,1.8,2.2,1.9c1.4,0.1,2.6-1.1,2.7-2.8c0-0.5-0.1-1.5-0.4-2.6
						c-0.2-0.7-0.3-1.3-0.5-1.8c-1.1-3.3-2.4-4.9-2.9-5.3C33.9,18.5,33.5,23.6,33.1,26.2z"/>
				</g>
			</g>
			<g id="XMLID_3723_">
				<path id="XMLID_3768_" class="st5" d="M31.5,32.6c0.1,0.4,0.3,0.7,0.6,1c0.8,1,2,1.5,3.3,1.2c1.6-0.4,2.6-2.3,1.9-4.3
					c-0.2-0.5-0.7-1.4-1.4-2.5c-0.3-0.5-0.7-1-1.2-1.6c-2-2.6-4.8-4.6-5.3-4.2c-0.5,0.6,1.6,6.9,1.9,9.5
					C31.3,32.1,31.4,32.4,31.5,32.6z"/>
				<path id="XMLID_3767_" class="st6" d="M31.5,32.6c0.1,0.4,0.3,0.7,0.6,1c0.8,1,2,1.5,3.3,1.2c1.6-0.4,2.6-2.3,1.9-4.3
					c-0.2-0.5-0.7-1.4-1.4-2.5c-0.3-0.5-0.7-1-1.2-1.6c0.1,1.7-0.6,4.3-3.4,5.2C31.3,32.1,31.4,32.4,31.5,32.6z"/>
				<path id="XMLID_3766_" class="st7" d="M32,33.6c0.8,1,2,1.5,3.3,1.2c1.6-0.4,2.6-2.3,1.9-4.3c-0.2-0.5-0.7-1.4-1.4-2.5
					C36.4,30.6,35.7,33.5,32,33.6z"/>
				<path id="XMLID_3765_" class="st8" d="M33.2,26.2c0-0.2-2.6-2.7-2.9-2.5c-0.2,0.2,1.3,4.7,1.4,5.4C32,29.9,33.7,27.4,33.2,26.2z
					"/>
				<g id="XMLID_3761_">
					<path id="XMLID_3762_" class="st4" d="M31.7,33.9c-0.3-0.4-0.5-0.8-0.6-1.2c-0.1-0.2-0.2-0.5-0.2-0.9c0.4-0.1-2.7-9-1.8-10.1
						c0.2-0.1,1.3-1.2,6.1,4.3c0.4,0.5,0.8,1,1.2,1.6c0.4,0.7,1.2,1.9,1.4,2.6c0.8,2.4-0.3,4.7-2.3,5.1
						C34.1,35.7,32.6,35.1,31.7,33.9z M31.9,31.6c0.1,0.4,0.2,0.7,0.2,0.8c0.1,0.3,0.3,0.6,0.5,0.9c0.7,0.8,1.7,1.3,2.7,1
						c1.3-0.3,2.1-1.9,1.5-3.5c-0.2-0.4-0.6-1.3-1.3-2.3c-0.4-0.6-0.8-1.1-1.1-1.5c-2.2-2.7-3.9-3.8-4.5-4
						C30,24.1,31.4,29,31.9,31.6z"/>
				</g>
			</g>
		</g>
	</g>
</g>
</svg>
