<?xml version="1.0" encoding="utf-8"?>
<!-- Generator: Adobe Illustrator 25.2.3, SVG Export Plug-In . SVG Version: 6.00 Build 0)  -->
<svg version="1.1" id="Capa_1" xmlns="http://www.w3.org/2000/svg" xmlns:xlink="http://www.w3.org/1999/xlink" x="0px" y="0px"
	 width="60.9px" height="75.6px" viewBox="0 0 60.9 75.6" style="enable-background:new 0 0 60.9 75.6;" xml:space="preserve">
<style type="text/css">
	.st0{fill:#5B7E37;}
	.st1{fill:#7C8F25;}
	.st2{fill:#89A22E;}
	.st3{fill:#95B448;}
	.st4{opacity:0.61;}
	.st5{fill:#A81920;}
	.st6{opacity:0.51;}
	.st7{fill:#E06D66;}
	.st8{opacity:0.44;}
	.st9{fill:#EDD7C4;}
	.st10{opacity:0.79;}
	.st11{fill:#FBF2EA;}
	.st12{fill:#971C0D;}
	.st13{fill:#E3A14E;}
	.st14{fill:#EEBD81;}
</style>
<g>
	<g>
		<g>
			<path class="st0" d="M31.7,0c0,0-8.6,6.2-3.5,16.2l2.3-4.1c0,0-2.6-4.8,2.5-10.7C33.1,1.5,33.2,0,31.7,0z"/>
		</g>
		<g>
			<path class="st1" d="M21.1,10.8c-0.3-0.2-0.6-0.4-0.9-0.7C19.7,9.7,19.5,9,19,8.5c-0.8-0.7-2.1-1.1-3.1-1.5
				c-0.3-0.1-0.5,0.1-0.6,0.3c-0.4,2.9,2.6,8.5,4.6,9.8c1.5,1,3.9,1.7,5.3,1.6c0.1,0,0.3-0.1,0.3-0.2c0.4-0.7-0.3-2.2-0.5-2.7
				c-0.4-1.2-0.9-2.3-1.7-3.3c-0.4-0.4-0.9-1-1.4-1.3C21.7,11.2,21.4,11,21.1,10.8z"/>
		</g>
		<g>
			<path class="st1" d="M39.7,17c0.3-0.8,3.5-2.1,4.3-2.7c1.1-0.7,2.6-2.6,4-2.8c0.1,0,0.2,0.1,0.2,0.2c-0.4,4.2-2.3,8.6-6.9,9.7
				c-0.8,0.2-4.4,1-5.1,0C35.3,20.1,39.8,16.9,39.7,17z"/>
		</g>
		<g>
			<path class="st2" d="M31.5,17.6c1.3-2.1,4.4-2.5,6.5-3.6c1.9-1,4.2-2.9,5.6-4.9c0.1-0.1,0.3,0,0.2,0.1
				c-1.6,4.5-1.7,10.1-6.7,11.9c-1.6,0.6-4.7,1-6.1-0.1C29.2,19.6,30.1,18.2,31.5,17.6z"/>
		</g>
		<g>
			<path class="st3" d="M26,18.4c-2.3-1-4.5-3.5-5.5-5.9c-0.7-1.6-0.9-3.4-1-5.2c-0.1-1-0.2-3,0.1-4.1C19.7,3,20,3,20.1,3.2
				c0.9,1.4,1.4,2.3,3,3.5c1.2,0.8,2.2,1.9,3,3c1.1,1.4,2,2.6,2.6,4.3c0.4,1.1,2,5,1.2,6.1C29,21.6,25.5,19.2,26,18.4z"/>
		</g>
		<g>
			<path class="st3" d="M28.4,17.8c-0.3-2.7-0.9-5,1.1-7.3c1.7-1.9,5.2-3.6,6.2-6.2c0.1-0.2,0.3-0.1,0.3,0c0.3,4.2,1.1,8.4-1.8,11.8
				c-0.7,0.9-2.4,3.7-3.6,4C29.2,20.7,28.6,18.2,28.4,17.8z"/>
		</g>
	</g>
	<g>
		<g>
			<defs>
				<path id="SVGID_3_" d="M58.8,46.9c-1.8,4.5-4.1,8.7-7,12.6c-1.5,2-3.1,3.8-4.9,5.5c-5.3,5.1-16.8,13.1-24.6,9.9
					c-0.5-0.2-1-0.5-1.5-0.8c-1.5-0.9-2.8-2.1-4-3.4c-2.1-2.1-3.9-4.4-5.6-6.8c-2.2-3.2-4.2-6.5-6-9.9c0,0-0.6-1.1-1.5-3.1l0,0
					c-2.8-6.4-7.8-21.6,2.3-30.7c1.5-1.4,3.8-2.1,5.7-2.7c2.5-0.7,5.2-0.9,7.8-0.9c3.2,0.1,5.6,0.7,8.4,1.8c1.1,0.4,2.1,0.8,3.2,1.1
					c0.3,0.1,0.6,0.1,0.9,0.2c7.2,1.4,14.8-0.6,21.3,3.4c3.1,1.9,5.4,4.9,6.6,8.3C61.8,36.8,60.7,42,58.8,46.9z"/>
			</defs>
			<clipPath id="SVGID_1_">
				<use xlink:href="#SVGID_3_"  style="overflow:visible;"/>
			</clipPath>
			<g style="clip-path:url(#SVGID_1_);">
				
					<image style="overflow:visible;" width="85" height="84" xlink:href="DA92597F.png"  transform="matrix(1 0 0 1 -14.9387 1.5817)">
				</image>
			</g>
		</g>
	</g>
	<g class="st4">
		<path class="st5" d="M58.8,46.9c-2.7,6.7-6.6,13-11.9,18.1c-5.3,5.1-16.8,13.1-24.6,9.9c7.2-2,13.6-6.1,17.9-12.4
			c2.8-4.2,4.8-10.1,5.8-15c1.1-5.2,1.2-11.4-0.8-16.4c-2.3-5.7-7.2-9.7-13.1-11.1c7.2,1.4,14.8-0.6,21.3,3.4
			c3.1,1.9,5.4,4.9,6.6,8.3C61.8,36.8,60.7,42,58.8,46.9z"/>
	</g>
	<g class="st6">
		<path class="st7" d="M25.5,38.2c0,0-3.7,16.7-21.8,12.8l0,0c-2.8-6.4-7.8-21.6,2.3-30.7c1.5-1.4,3.8-2.1,5.7-2.7
			c2.5-0.7,5.2-0.9,7.8-0.9C19.6,16.8,30,21.7,25.5,38.2z"/>
	</g>
	<g class="st8">
		<path class="st9" d="M6.1,21.9c1.8-1.5,3.9-2.5,6.6-2.6c2.4-0.1,4.8,0.7,5.6,3.2c2,6.6-8,18.9-14.8,13.9
			c-3.7-2.7-2.3-7.6-0.3-10.9C4.1,24.1,5,22.9,6.1,21.9z"/>
	</g>
	<g class="st10">
		<path class="st11" d="M11.5,20.7c-2.1-0.8-6.4,2.1-6.2,4.7c0.2,2.1,2.5,3.1,4.4-0.1c0.6-0.9,1.7-1.4,2.3-2.3
			C12.5,22.2,12.5,21,11.5,20.7z"/>
	</g>
	<g class="st4">
		<path class="st5" d="M51.8,59.4c-1.5,2-3.1,3.8-4.9,5.5c-5.3,5.1-16.8,13.1-24.6,9.9c-0.5-0.2-1-0.5-1.5-0.8
			c-1.5-0.9-2.8-2.1-4-3.4c-2.1-2.1-3.9-4.4-5.6-6.8l0.2-0.1c0,0,21.4,13.1,37.5-2L51.8,59.4z"/>
	</g>
	<g>
		<g class="st4">
			<path class="st5" d="M31.8,26.4c-0.9,0.2-1.5,1.1-2,1.9c-0.6,0.9-0.9,2.1-0.7,3.2c0.2,1.1,1.7,2.2,2.8,1.9
				c1.7-0.4,2.4-2.2,2.2-3.7c-0.1-0.6-0.2-1.3-0.5-1.9C33.2,27.1,32.7,26.2,31.8,26.4z"/>
		</g>
		<g>
			<path class="st12" d="M29.7,30.7c0.1-0.6,0.5-1.2,0.8-1.7c0.2-0.3,0.2-0.3,0.4-0.6c0.2-0.3,0.7-0.7,1.1-0.5
				c0.5,0.2,0.7,0.9,0.8,1.4c0.1,0.7,0.4,1.3,0.3,2c-0.2,1-1.1,1.7-2.1,1.5C30.2,32.6,29.5,31.7,29.7,30.7z"/>
		</g>
		<g>
			<path class="st13" d="M30,31c0.1-0.5,0.7-1.3,1.3-2c0.3-0.4,0.9-0.3,1.1,0.2c0.3,0.8,0.6,1.8,0.6,2.3c-0.1,0.8-0.9,1.3-1.7,1.2
				C30.4,32.5,29.9,31.8,30,31z"/>
		</g>
		<g>
			<path class="st14" d="M31.4,31.2c-0.2,0.4-0.5,0.6-0.8,0.5c-0.3-0.1-0.4-0.5-0.3-0.9c0.2-0.4,0.5-0.6,0.8-0.5
				C31.5,30.4,31.6,30.8,31.4,31.2z"/>
		</g>
	</g>
	<g>
		<g class="st4">
			<path class="st5" d="M41.1,36.3c-0.9,0.2-1.5,1.1-2,1.9c-0.6,0.9-0.9,2.1-0.7,3.2c0.2,1.1,1.7,2.2,2.8,1.9
				c1.7-0.4,2.4-2.2,2.2-3.7c-0.1-0.6-0.2-1.3-0.5-1.9C42.6,37,42.1,36.1,41.1,36.3z"/>
		</g>
		<g>
			<path class="st12" d="M39.1,40.6c0.1-0.6,0.5-1.2,0.8-1.7c0.2-0.3,0.2-0.3,0.4-0.6c0.2-0.3,0.7-0.7,1.1-0.5
				c0.5,0.2,0.7,0.9,0.8,1.4c0.1,0.7,0.4,1.3,0.3,2c-0.2,1-1.1,1.7-2.1,1.5C39.6,42.5,38.9,41.5,39.1,40.6z"/>
		</g>
		<g>
			<path class="st13" d="M39.4,40.8c0.1-0.5,0.7-1.3,1.3-2c0.3-0.4,0.9-0.3,1.1,0.2c0.3,0.8,0.6,1.8,0.6,2.3
				c-0.1,0.8-0.9,1.3-1.7,1.2C39.8,42.4,39.3,41.6,39.4,40.8z"/>
		</g>
		<g>
			<path class="st14" d="M40.8,41c-0.2,0.4-0.5,0.6-0.8,0.5c-0.3-0.1-0.4-0.5-0.3-0.9c0.2-0.4,0.5-0.6,0.8-0.5
				C40.9,40.2,41,40.6,40.8,41z"/>
		</g>
	</g>
	<g>
		<g class="st4">
			<path class="st5" d="M21.9,38c-0.9,0.2-1.5,1.1-2,1.9c-0.6,0.9-0.9,2.1-0.7,3.2c0.2,1.1,1.7,2.2,2.8,1.9c1.7-0.4,2.4-2.2,2.2-3.7
				c-0.1-0.6-0.2-1.3-0.5-1.9C23.4,38.7,22.9,37.8,21.9,38z"/>
		</g>
		<g>
			<path class="st12" d="M19.9,42.3c0.1-0.6,0.5-1.2,0.8-1.7c0.2-0.3,0.2-0.3,0.4-0.6c0.2-0.3,0.7-0.7,1.1-0.5
				c0.5,0.2,0.7,0.9,0.8,1.4c0.1,0.7,0.4,1.3,0.3,2c-0.2,1-1.1,1.7-2.1,1.5C20.4,44.2,19.7,43.2,19.9,42.3z"/>
		</g>
		<g>
			<path class="st13" d="M20.2,42.5c0.1-0.5,0.7-1.3,1.3-2c0.3-0.4,0.9-0.3,1.1,0.2c0.3,0.8,0.6,1.8,0.6,2.3
				c-0.1,0.8-0.9,1.3-1.7,1.2C20.6,44.1,20,43.3,20.2,42.5z"/>
		</g>
		<g>
			<path class="st14" d="M21.6,42.7c-0.2,0.4-0.5,0.6-0.8,0.5c-0.3-0.1-0.4-0.5-0.3-0.9c0.2-0.4,0.5-0.6,0.8-0.5
				C21.6,41.9,21.8,42.3,21.6,42.7z"/>
		</g>
	</g>
	<g>
		<g class="st4">
			<path class="st5" d="M6.7,35.6c-0.9,0.2-1.5,1.1-2,1.9c-0.6,0.9-0.9,2.1-0.7,3.2c0.2,1.1,1.7,2.2,2.8,1.9
				c1.7-0.4,2.4-2.2,2.2-3.7C9,38.2,8.9,37.5,8.6,37C8.2,36.3,7.7,35.4,6.7,35.6z"/>
		</g>
		<g>
			<path class="st12" d="M4.7,39.9c0.1-0.6,0.5-1.2,0.8-1.7c0.2-0.3,0.2-0.3,0.4-0.6c0.2-0.3,0.7-0.7,1.1-0.5
				c0.5,0.2,0.7,0.9,0.8,1.4c0.1,0.7,0.4,1.3,0.3,2c-0.2,1-1.1,1.7-2.1,1.5C5.2,41.8,4.5,40.9,4.7,39.9z"/>
		</g>
		<g>
			<path class="st13" d="M5,40.1c0.1-0.5,0.7-1.3,1.3-2c0.3-0.4,0.9-0.3,1.1,0.2c0.3,0.8,0.6,1.8,0.6,2.3C7.7,41.4,7,42,6.2,41.8
				C5.4,41.7,4.8,40.9,5,40.1z"/>
		</g>
		<g>
			<path class="st14" d="M6.4,40.3c-0.2,0.4-0.5,0.6-0.8,0.5c-0.3-0.1-0.4-0.5-0.3-0.9c0.2-0.4,0.5-0.6,0.8-0.5
				C6.4,39.5,6.6,39.9,6.4,40.3z"/>
		</g>
	</g>
	<g>
		<g class="st4">
			<path class="st5" d="M16.9,22c-1,0-1.7,0.7-2.4,1.3c-0.8,0.8-1.4,1.8-1.4,2.9c0,1.2,1.1,2.5,2.3,2.5c1.7,0,2.9-1.5,3.1-3.1
				c0.1-0.6,0.1-1.3,0-1.9C18.1,23,17.8,22,16.9,22z"/>
		</g>
		<g>
			<path class="st12" d="M13.8,25.6c0.2-0.6,0.8-1,1.2-1.4c0.3-0.2,0.3-0.3,0.6-0.5c0.3-0.2,0.9-0.5,1.2-0.2c0.5,0.4,0.5,1,0.5,1.6
				c0,0.7,0.1,1.3-0.2,2c-0.4,0.9-1.5,1.3-2.4,1C13.9,27.6,13.4,26.5,13.8,25.6z"/>
		</g>
		<g>
			<path class="st13" d="M14.1,25.9c0.2-0.4,1.1-1.1,1.7-1.6c0.4-0.3,0.9,0,1,0.4c0.1,0.8,0.2,1.9,0,2.4c-0.3,0.7-1.2,1.1-1.9,0.8
				C14.1,27.5,13.7,26.7,14.1,25.9z"/>
		</g>
		<g>
			<path class="st14" d="M15.4,26.5c-0.2,0.3-0.6,0.4-0.9,0.3c-0.3-0.2-0.3-0.6,0-0.9c0.2-0.3,0.6-0.4,0.9-0.3
				C15.6,25.7,15.6,26.1,15.4,26.5z"/>
		</g>
	</g>
	<g>
		<g class="st4">
			<path class="st5" d="M30.5,49.8c-0.9,0.2-1.5,1.1-2,1.9c-0.6,0.9-0.9,2.1-0.7,3.2c0.2,1.1,1.7,2.2,2.8,1.9
				c1.7-0.4,2.4-2.2,2.2-3.7c-0.1-0.6-0.2-1.3-0.5-1.9C32,50.5,31.5,49.6,30.5,49.8z"/>
		</g>
		<g>
			<path class="st12" d="M28.5,54c0.1-0.6,0.5-1.2,0.8-1.7c0.2-0.3,0.2-0.3,0.4-0.6c0.2-0.3,0.7-0.7,1.1-0.5
				c0.5,0.2,0.7,0.9,0.8,1.4c0.1,0.7,0.4,1.3,0.3,2c-0.2,1-1.1,1.7-2.1,1.5C29,56,28.3,55,28.5,54z"/>
		</g>
		<g>
			<path class="st13" d="M28.8,54.3c0.1-0.5,0.7-1.3,1.3-2c0.3-0.4,0.9-0.3,1.1,0.2c0.3,0.8,0.6,1.8,0.6,2.3
				c-0.1,0.8-0.9,1.3-1.7,1.2C29.2,55.9,28.6,55.1,28.8,54.3z"/>
		</g>
		<g>
			<path class="st14" d="M30.2,54.5c-0.2,0.4-0.5,0.6-0.8,0.5s-0.4-0.5-0.3-0.9c0.2-0.4,0.5-0.6,0.8-0.5S30.4,54.1,30.2,54.5z"/>
		</g>
	</g>
	<g>
		<g class="st4">
			<path class="st5" d="M28.5,63.1c-1,0.2-1.6,1-2,1.8c-0.6,0.9-1,2.1-0.8,3.2c0.2,1.2,1.6,2.2,2.8,2c1.7-0.3,2.5-2.1,2.3-3.7
				c-0.1-0.6-0.2-1.3-0.4-1.9C30,63.8,29.5,62.9,28.5,63.1z"/>
		</g>
		<g>
			<path class="st12" d="M26.3,67.3c0.1-0.6,0.6-1.2,0.9-1.7c0.2-0.3,0.2-0.3,0.5-0.6c0.2-0.3,0.8-0.7,1.2-0.5
				c0.5,0.2,0.7,0.9,0.8,1.4c0.1,0.7,0.4,1.3,0.2,2c-0.2,1-1.1,1.6-2.1,1.4C26.8,69.2,26.2,68.2,26.3,67.3z"/>
		</g>
		<g>
			<path class="st13" d="M26.6,67.5c0.1-0.5,0.8-1.3,1.3-1.9c0.3-0.4,0.9-0.2,1.1,0.2c0.3,0.8,0.6,1.8,0.5,2.3
				c-0.2,0.8-0.9,1.3-1.7,1.1C27,69.1,26.5,68.3,26.6,67.5z"/>
		</g>
		<g>
			<path class="st14" d="M28.1,67.8c-0.2,0.4-0.5,0.6-0.8,0.4c-0.3-0.1-0.4-0.5-0.2-0.9c0.2-0.4,0.5-0.6,0.8-0.4
				C28.1,67,28.2,67.4,28.1,67.8z"/>
		</g>
	</g>
	<g>
		<g class="st4">
			<path class="st5" d="M14.8,52.8c-0.9,0.4-1.3,1.4-1.6,2.2c-0.4,1-0.5,2.2-0.1,3.3c0.4,1.1,2,1.8,3.1,1.4c1.6-0.7,2-2.6,1.5-4.1
				c-0.2-0.6-0.4-1.2-0.8-1.7C16.4,53.2,15.7,52.4,14.8,52.8z"/>
		</g>
		<g>
			<path class="st12" d="M13.6,57.4c0-0.6,0.3-1.3,0.5-1.8c0.1-0.3,0.2-0.4,0.3-0.7c0.2-0.3,0.6-0.8,1-0.7c0.6,0.1,0.9,0.7,1.1,1.2
				c0.2,0.6,0.6,1.2,0.7,1.9c0,1-0.8,1.8-1.8,1.9C14.4,59.1,13.6,58.4,13.6,57.4z"/>
		</g>
		<g>
			<path class="st13" d="M13.9,57.6c0-0.5,0.5-1.5,0.9-2.2c0.2-0.4,0.8-0.4,1.1,0c0.4,0.7,1,1.7,1,2.2c0,0.8-0.6,1.5-1.5,1.5
				C14.6,59,13.9,58.4,13.9,57.6z"/>
		</g>
		<g>
			<path class="st14" d="M15.4,57.5c-0.1,0.4-0.4,0.7-0.7,0.6c-0.3-0.1-0.5-0.4-0.4-0.8c0.1-0.4,0.4-0.7,0.7-0.6
				C15.3,56.7,15.5,57.1,15.4,57.5z"/>
		</g>
	</g>
	<g>
		<g class="st6">
			<path class="st7" d="M46,52.6c-0.9,0.2-1.5,1.1-2,1.9c-0.6,0.9-0.9,2.1-0.7,3.2c0.2,1.1,1.7,2.2,2.8,1.9c1.7-0.4,2.4-2.2,2.2-3.7
				c-0.1-0.6-0.2-1.3-0.5-1.9C47.5,53.3,46.9,52.4,46,52.6z"/>
		</g>
		<g>
			<path class="st12" d="M43.9,56.9c0.1-0.6,0.5-1.2,0.8-1.7c0.2-0.3,0.2-0.3,0.4-0.6c0.2-0.3,0.7-0.7,1.1-0.5
				c0.5,0.2,0.7,0.9,0.8,1.4c0.1,0.7,0.4,1.3,0.3,2c-0.2,1-1.1,1.7-2.1,1.5C44.4,58.8,43.8,57.9,43.9,56.9z"/>
		</g>
		<g>
			<path class="st13" d="M44.2,57.2c0.1-0.5,0.7-1.3,1.3-2c0.3-0.4,0.9-0.3,1.1,0.2c0.3,0.8,0.6,1.8,0.6,2.3
				c-0.1,0.8-0.9,1.3-1.7,1.2C44.6,58.7,44.1,58,44.2,57.2z"/>
		</g>
		<g>
			<path class="st14" d="M45.7,57.3c-0.2,0.4-0.5,0.6-0.8,0.5c-0.3-0.1-0.4-0.5-0.3-0.9s0.5-0.6,0.8-0.5
				C45.7,56.6,45.8,57,45.7,57.3z"/>
		</g>
	</g>
	<g>
		<g class="st6">
			<path class="st7" d="M53.6,39.1c-0.9,0.2-1.5,1.1-2,1.9c-0.6,0.9-0.9,2.1-0.7,3.2c0.2,1.1,1.7,2.2,2.8,1.9
				c1.7-0.4,2.4-2.2,2.2-3.7c-0.1-0.6-0.2-1.3-0.5-1.9C55,39.8,54.5,38.9,53.6,39.1z"/>
		</g>
		<g>
			<path class="st12" d="M51.5,43.3c0.1-0.6,0.5-1.2,0.8-1.7c0.2-0.3,0.2-0.3,0.4-0.6c0.2-0.3,0.7-0.7,1.1-0.5
				c0.5,0.2,0.7,0.9,0.8,1.4c0.1,0.7,0.4,1.3,0.3,2c-0.2,1-1.1,1.7-2.1,1.5C52,45.3,51.4,44.3,51.5,43.3z"/>
		</g>
		<g>
			<path class="st13" d="M51.8,43.6c0.1-0.5,0.7-1.3,1.3-2c0.3-0.4,0.9-0.3,1.1,0.2c0.3,0.8,0.6,1.8,0.6,2.3
				c-0.1,0.8-0.9,1.3-1.7,1.2C52.2,45.2,51.7,44.4,51.8,43.6z"/>
		</g>
		<g>
			<path class="st14" d="M53.3,43.8c-0.2,0.4-0.5,0.6-0.8,0.5c-0.3-0.1-0.4-0.5-0.3-0.9c0.2-0.4,0.5-0.6,0.8-0.5
				C53.3,43,53.4,43.4,53.3,43.8z"/>
		</g>
	</g>
	<g>
		<g class="st6">
			<path class="st7" d="M49,26.3c-0.8,0.5-1,1.6-1.2,2.4c-0.2,1.1-0.1,2.3,0.5,3.2c0.6,1,2.3,1.4,3.3,0.8c1.4-0.9,1.5-2.9,0.8-4.3
				c-0.3-0.6-0.6-1.2-1.1-1.6C50.7,26.4,49.9,25.7,49,26.3z"/>
		</g>
		<g>
			<path class="st12" d="M48.6,31c-0.1-0.6,0.1-1.3,0.2-1.9c0.1-0.4,0.1-0.4,0.2-0.7c0.1-0.4,0.5-0.9,0.9-0.9c0.6,0,1,0.6,1.3,1
				c0.4,0.6,0.8,1.1,1,1.8c0.2,1-0.4,1.9-1.4,2.1C49.7,32.6,48.8,32,48.6,31z"/>
		</g>
		<g>
			<path class="st13" d="M49,31.1c-0.1-0.5,0.2-1.5,0.5-2.3c0.2-0.4,0.7-0.6,1.1-0.2c0.5,0.6,1.2,1.5,1.3,2c0.2,0.8-0.4,1.6-1.2,1.7
				C49.9,32.5,49.1,31.9,49,31.1z"/>
		</g>
		<g>
			<path class="st14" d="M50.4,30.8c0,0.4-0.3,0.7-0.6,0.7s-0.6-0.3-0.6-0.8c0-0.4,0.3-0.7,0.6-0.7C50.1,30.1,50.4,30.4,50.4,30.8z"
				/>
		</g>
	</g>
</g>
</svg>
