<?xml version="1.0" encoding="utf-8"?>
<!-- Generator: Adobe Illustrator 25.2.3, SVG Export Plug-In . SVG Version: 6.00 Build 0)  -->
<svg version="1.1" id="Capa_1" xmlns="http://www.w3.org/2000/svg" xmlns:xlink="http://www.w3.org/1999/xlink" x="0px" y="0px"
	 width="77.8px" height="70.2px" viewBox="0 0 77.8 70.2" style="enable-background:new 0 0 77.8 70.2;" xml:space="preserve">
<style type="text/css">
	.st0{fill:#5C3B25;}
	.st1{fill:url(#SVGID_1_);}
	.st2{opacity:0.86;fill:#7D4C1C;}
	.st3{opacity:0.86;fill:#754114;}
	.st4{opacity:0.66;fill:#AD8625;}
	.st5{opacity:0.7;fill:#BB9B2A;}
	.st6{opacity:0.6;fill:#F5F2A2;}
	.st7{opacity:0.79;fill:#5B340D;}
	.st8{fill:url(#SVGID_2_);}
	.st9{opacity:0.66;fill:#D2AD57;}
	.st10{opacity:0.86;fill:#A48D34;}
	.st11{fill:#6E8C22;}
	.st12{fill:#A7C935;}
	.st13{opacity:0.75;fill:#85A52A;}
	.st14{opacity:0.69;fill:#C1E045;}
	.st15{opacity:0.69;fill:#EAFB6C;}
	.st16{opacity:0.69;fill:#D5ED4F;}
	.st17{opacity:0.67;fill:#7F9E27;}
	.st18{opacity:0.86;fill:#82912F;}
	.st19{fill:#E7E37D;}
	.st20{fill:#DAD05D;}
	.st21{opacity:0.79;fill:#FDFCD4;}
	.st22{fill:#655446;}
</style>
<g>
	<path class="st0" d="M3.7,15.4c-1.4-0.7-2.3-0.6-3,0.9c-0.3,0.7-0.9,2.7-0.5,3.4c1.4,2.7,4.1-2.4,3.4-4.1
		C3.3,15.4,3.3,15.6,3.7,15.4z"/>
	<linearGradient id="SVGID_1_" gradientUnits="userSpaceOnUse" x1="20.0105" y1="-3.9696" x2="51.0049" y2="57.9568">
		<stop  offset="2.328570e-02" style="stop-color:#A56F20"/>
		<stop  offset="0.4398" style="stop-color:#93601E"/>
		<stop  offset="0.7304" style="stop-color:#80451A"/>
	</linearGradient>
	<path class="st1" d="M70.2,26.7c0,15-14.9,25.9-34,25.9c-17.1,0-31.8-8.7-34.7-21.3c-0.3-1.5-0.5-3.1-0.5-4.7c0-1,0.1-1.9,0.1-2.9
		C2.4,10.2,13.2,0,31,0C39,0,47.2,2,54,5.5l0,0c6.3,3.2,11.3,7.6,14,12.8C69.4,21,70.2,23.8,70.2,26.7z"/>
	<path class="st2" d="M70.2,26.7c0,15-14.9,25.9-34,25.9c-17.1,0-31.8-8.7-34.7-21.3c-0.3-1.5-0.5-3.1-0.5-4.6c0-0.9-0.1-2.1,0.3-3
		c0.1-0.3,0.6,2,0.6,2c0.2,0.7,0.7,1.7,1.1,2.4c0.7,1.4,1.7,2.7,2.9,3.7c3,2.6,6.8,4.2,10.7,4.8c5.7,0.9,11.7,0.5,17.3-0.9
		c3.1-0.8,5.9-2.1,8.9-3.1c2.4-0.8,4.1-1.9,6.2-3.2c1.8-1.1,3.6-2.3,5-3.9c1.8-2,3.4-4.3,4.2-6.9c1.5-4.9-0.8-9.5-4.1-13
		c6.3,3.2,11.3,7.6,14,12.8C69.4,21,70.2,23.8,70.2,26.7z"/>
	<path class="st3" d="M70.2,26.7c0,1.5-0.1,2.9-0.4,4.3c-2.5,12.8-16.3,21.7-33.6,21.7c-9.8,0-18.7-2.9-25.2-7.7c0,0,0,0,0,0
		c-4.8-3.6-8.2-8.2-9.5-13.6l0,0c8.3,10,19.4,10.4,22,10.3c0.4,0,0.6,0,0.6,0c24.2-1.7,35.3-7.4,40.2-12.8c5-5.4,3.8-10.4,3.8-10.5
		C69.4,21,70.2,23.8,70.2,26.7z"/>
	<path class="st4" d="M7.5,12.1c-1.2,1.5-2.1,3.2-2.2,5.1C5,25.6,21,23.9,25.8,22.5C32,20.8,39.2,16.7,40,9.3c0.7-7-8-7.6-12.9-7.1
		c-2.6,0.3-5.2,0.8-7.6,1.6c-3.3,1.1-6.4,2.8-9,5.1C9.5,9.9,8.4,10.9,7.5,12.1z"/>
	<path class="st5" d="M24.9,7.9c0.7,1.9-1.4,4.5-4.9,5.9c-3.4,1.3-6.8,0.9-7.6-1c-0.7-1.9,1.4-4.5,4.9-5.9C20.8,5.6,24.1,6,24.9,7.9
		z"/>
	<path class="st6" d="M28.8,6c0.2,1.2-1.4,2.5-3.7,2.9c-2.3,0.4-4.3-0.2-4.5-1.4c-0.2-1.2,1.4-2.5,3.7-2.9C26.6,4.2,28.6,4.9,28.8,6
		z"/>
	<path class="st7" d="M69.8,31c-2.5,12.8-16.3,21.7-33.6,21.7c-9.8,0-18.7-2.9-25.2-7.7c0.3,0.2,6.1,3,11.7,2.4c0,0-0.1-2.5,0.8-5.7
		c1.2-4.3,4.4-10,12.3-12.6c0,0,11.4-5.8,28.5-0.2C66,29.4,67.9,30.1,69.8,31z"/>
	<linearGradient id="SVGID_2_" gradientUnits="userSpaceOnUse" x1="26.1551" y1="44.778" x2="72.8336" y2="58.9982">
		<stop  offset="0" style="stop-color:#A56F20"/>
		<stop  offset="0.3291" style="stop-color:#93601E"/>
		<stop  offset="0.8509" style="stop-color:#80451A"/>
	</linearGradient>
	<path class="st8" d="M77.6,46.2c-0.5,6.3-2.8,12.4-6.9,17.1c-1.4,1.6-3,2.8-4.7,3.8c-3.6,2-7.8,2.9-11.9,3.1
		c-1.8,0.1-3.7,0-5.5-0.2c-0.7-0.1-2.2-0.2-3.3-0.5c-0.5-0.1-1-0.3-1.2-0.5c-1.3-0.4-2.5-0.9-3.6-1.4c0,0,0,0,0,0
		c-0.1-0.1-0.2-0.1-0.3-0.1c0,0,0,0,0,0c-3.7-1.8-5.7-3.7-5.7-3.7c-10.4-8.5-8.7-22.2-8.7-22.2h52.1c0,0.3,0,0.6,0,0.9
		C77.7,43.7,77.7,44.9,77.6,46.2z"/>
	<path class="st3" d="M77.7,44.2c0,0.7,0,1.3-0.1,1.9c-0.5,6.3-2.8,12.4-6.9,17.1c-1.4,1.6-3,2.8-4.7,3.8c-3.6,2-7.8,2.9-11.9,3.1
		c-1.8,0.1-3.7,0-5.5-0.2c-0.7-0.1-2.2-0.2-3.3-0.5c-0.5-0.1-1-0.3-1.2-0.5c-1.3-0.4-2.5-0.9-3.6-1.4c1.4,0.4,2.6,0.7,3.9,0.8
		c8.8,0.8,13.6-6.2,13.6-6.2c2-2.7,2.4-5.5,2.3-7.7c0-0.4-0.1-0.8-0.1-1.2c-0.3-2-1-3.4-1-3.4l6.7-5.2l11.8-2.2l0.1,0
		C77.7,43,77.7,43.6,77.7,44.2z"/>
	<path class="st7" d="M66.1,67.2c-1.7,1-3.5,1.7-5.3,2.1c-2.2,0.5-4.5,0.8-6.7,0.9c-3.5,0.2-6.7-0.4-10.1-1.2c4.2,1,8.6,1,12.8-0.1
		c3.7-0.9,6.2-2.5,8.1-5.9c1.9-3.5,2.9-7.8,2.8-11.7l5.3-9.8h4.6c0.3,0-0.2,5.9-0.2,6.5c-0.8,5.9-3.3,11.6-7.3,15.9
		C68.9,65.2,67.6,66.3,66.1,67.2z"/>
	<path class="st4" d="M46.3,69.7l-1.1-0.2c-0.5-0.1-1-0.3-1.2-0.5c-1.3-0.4-2.5-0.9-3.6-1.4c0,0,0,0,0,0c-3.9-1.8-6.1-3.9-6.1-3.9
		c-7.6-6.2-8.7-15.2-8.8-19.6c0,0,0,0,0,0v0c0-1.6,0.1-2.6,0.1-2.6H29l4.6,4.3l2.6,5.2c0,0,0,0.2-0.1,0.5c0,0.3-0.1,0.7-0.1,1.2
		c-0.1,3.2,0.6,10,8.2,15.7C44.6,68.7,45.8,69.4,46.3,69.7z"/>
	<path class="st9" d="M40,67.5c-3.7-1.8-5.7-3.7-5.7-3.7c-10.4-8.5-8.7-22.2-8.7-22.2h3.8l13.5,11.7c0,0-5.2,1.3-12-0.6
		C30.8,52.6,30.8,61.9,40,67.5z"/>
	<path class="st10" d="M77.7,44.2l-0.1,0.2c-2.7,6.4-10.7,9-17.5,10.1c-5.8,0.9-10.8,0.7-10.8,0.7c-5.7-0.5-10-1.3-13.3-2.4
		c-9.7-3.1-10.5-7.7-10.6-8.6c0,0,0,0,0,0v0c0-1.6,0.1-2.6,0.1-2.6c0,4.1,4.2,7.8,10.6,10C40.5,53,45.8,54,51.6,54
		c3,0,5.8-0.2,8.4-0.7c9.7-1.6,16.8-5.8,17.5-10.8l0.1,0C77.7,43,77.7,43.6,77.7,44.2z"/>
	<path class="st11" d="M77.7,41.5C77.7,48.4,66,54,51.6,54c-14.4,0-26.1-5.6-26.1-12.4c0-0.1,0-0.3,0-0.5c0.5-6.6,12-12,26-12
		c12.2,0,22.4,4,25.3,9.4c0.4,0.8,0.7,1.7,0.8,2.6C77.7,41.2,77.7,41.4,77.7,41.5z"/>
	<path class="st12" d="M76.3,41.1c0,5.8-9.5,10.6-21.8,11.3c-1,0.1-2,0.1-3,0.1c-2.1,0-4.1-0.1-6-0.3c-10.8-1.2-18.8-5.7-18.8-11
		c0-0.1,0-0.3,0-0.4c0.3-4.2,5.8-7.9,13.6-9.7c0,0,0,0,0,0c3.3-0.8,7.1-1.2,11.1-1.2c4.5,0,8.8,0.5,12.4,1.5c0,0,0,0,0.1,0
		c5.7,1.5,9.9,4,11.6,7c0.4,0.8,0.7,1.5,0.7,2.3C76.3,40.8,76.3,41,76.3,41.1z"/>
	<path class="st13" d="M76.3,41.1c0,5.8-9.5,10.6-21.8,11.3c11.1-2.6,14.6-10.8,14.6-10.8c3.1-7.2-4.3-10-5.1-10.2
		c5.7,1.5,9.9,4,11.6,7c0.4,0.8,0.7,1.5,0.7,2.3C76.3,40.8,76.3,41,76.3,41.1z"/>
	<path class="st14" d="M45.5,52.1c-10.8-1.2-18.8-5.7-18.8-11c0-0.1,0-0.3,0-0.4c0.2-3.1,3.2-5.9,7.9-7.9c0.1,0,0.1,0,0.1,0
		c1.7-0.7,3.5-1.3,5.6-1.8c-0.9,0.3-8.3,3-7.8,10.1c0,0-0.2,4.8,7.2,8.7C41.2,50.6,43.1,51.4,45.5,52.1z"/>
	<path class="st15" d="M35,34.1c0.3,0.4-0.9,1.3-1.1,1.6c-0.5,0.7-0.8,1.5-1,2.3c-0.4,1.6-0.3,3.3,0.2,4.8c0.2,0.8,0.5,1.5,0.9,2.3
		c0.3,0.5,0.6,1.3-0.3,1.5c-1.4,0.2-2.3-1.6-2.7-2.6c-0.5-1.2-0.6-2.5-0.5-3.9c0.1-1.4,0.7-2.7,1.5-3.8c0.5-0.7,1.2-1.5,2-2
		C34.2,34.2,34.8,33.8,35,34.1z"/>
	<path class="st16" d="M45.5,52.1c-10.8-1.2-18.8-5.7-18.8-11c0-0.1,0-0.3,0-0.4c0.2-3.1,3.2-5.9,7.9-7.9c-0.8,0.5-7.4,4.4-6.7,8.7
		c0,0-0.3,5.1,11.7,8.3C41.2,50.6,43.1,51.4,45.5,52.1z"/>
	<path class="st17" d="M65.7,39.7c-0.1,2-1.2,3.8-2.8,5.1c-3.5,2.8-8.4,3-12.8,3c-2.8,0-6-0.4-8.4-1.7c-2.5-1.4-4.8-3.6-4.8-6.5
		c0-4.3,5.5-7,9.4-7.7c2.2-0.4,4.5-0.8,6.8-0.8c2.2,0,4.2,0.1,6.2,0.7c1.5,0.4,2.8,1.1,3.9,2.1c1.6,1.5,2.4,3.1,2.5,5.1
		C65.7,39.3,65.7,39.5,65.7,39.7z"/>
	<path class="st15" d="M50.2,35.2c0.3-0.7,0.4-1.5,0.6-2.3c0.2-0.7,0.3-1.6,0.8-2.2c1-1.1,0.9,1.6,0.9,2.1c0,0.5-0.1,1.5,0.3,1.9
		c0.5,0.5,1.1-0.9,1.3-1.3c0.4-0.6,0.8-1.1,1.2-1.6c0.3-0.3,1-1.2,1-0.2c0,0.7-0.4,1.4-0.6,2.1c-0.1,0.5-0.4,1-0.4,1.6
		c0.9-0.1,1.6-1.2,2.3-1.6c0.4-0.2,1.9-1.8,2.5-1.3c0.6,0.5-1.4,2.2-1.7,2.5c-0.3,0.3-1,0.9-1,1.4c0.1,0.8,1.1,0.2,1.4,0.1
		c1.1-0.5,2.4-0.7,3.6-0.9c1.2-0.2,2.4-0.5,3.6-0.4c0.3,0,0.6,0,0.8,0.3c0.2,0.5-0.4,0.7-0.7,0.8c-1.3,0.6-2.8,1-4.2,1.4
		c-0.8,0.2-2.1,0.1-2.8,0.6c0.1,0.4,1.4,0.3,1.7,0.3c1.1,0.1,2.1,0.2,3.2,0.2c0.9,0,2.1-0.1,2.8,0.6c-0.3,0.6-1.9,0.6-2.4,0.7
		c-1,0.1-2,0.3-3,0.3c-0.9,0-2.1-0.1-2.9,0.3c0.1,0.3,0.8,0.5,1.1,0.6c0.6,0.3,1.2,0.5,1.9,0.8c0.5,0.2,1.5,0.6,1.7,1.2
		c-0.5,0.5-2.3-0.3-2.9-0.5c-0.6-0.2-1.1-0.3-1.7-0.5c-0.4-0.1-0.7-0.3-1.1-0.4c1.2,1,2.5,1.8,3.6,2.8c0.3,0.3,1.7,1.4,0.6,1.4
		c-0.6,0-1.2-0.5-1.6-0.8c-0.6-0.3-1.2-0.6-1.8-1c-0.7-0.4-1.4-0.9-2-1.4c0.2,0.5,4.2,4.5,3.2,5.1c-0.3,0.2-1-0.3-1.3-0.5
		c-0.6-0.4-1-1-1.4-1.6c-0.6-0.9-1.2-2.1-2.1-2.7c-0.4,0.4-0.1,1.4,0,1.9c0.2,0.7,0.7,1.4,0.9,2.2c0.2,0.6,0.2,2.6-0.8,1.5
		c-1.3-1.3-0.5-3.5-1.6-4.9c-0.4-0.6-0.5-0.1-0.6,0.5c-0.1,1-0.2,2-0.5,3c-0.1,0.4-0.3,1.1-0.7,1.3c-0.6,0.2-0.5-0.7-0.5-1
		c0-0.6,0.3-3.5-0.6-3.8c-0.1,0-0.9,0.2-1,0.2C49,44.5,49,45.5,48.8,46c-0.3,0.8-0.5,1.7-0.8,2.5c-0.1,0.4-0.4,1.1-0.6,0.4
		c-0.1-0.5,0.1-1.3,0.2-1.8c0.1-0.6,0.2-1.2,0.2-1.8c0-0.4,0.2-1.4-0.4-1.2c-0.4,0.1-0.8,1.1-1.1,1.4c-0.4,0.5-0.8,0.9-1.2,1.4
		c-0.5,0.6-1.1,1.4-2,1.5c-0.3-0.5,0.3-1.5,0.5-1.9c0.4-0.8,0.9-1.5,1.3-2.3c0.2-0.3,0.6-0.9,0.2-1.1c-0.6-0.3-1.4,0.8-1.7,1.1
		c-0.6,0.7-1.4,1.3-2.2,1.9c-0.4,0.3-1,0.6-0.9-0.1c0.1-0.4,0.5-0.8,0.7-1.1c0.3-0.6,0.7-1.1,1-1.7c0.2-0.4,0.9-1.3,0.6-1.7
		c-0.6,0.1-1.1,0.7-1.6,1.1c-0.6,0.4-1.5,0.7-2.1,0.9c-0.4,0.1-1.8,0.7-2.2,0.3c-0.4-0.5,0.6-1,0.8-1.2c0.6-0.5,1.2-0.9,1.9-1.2
		c1-0.6,2.2-1.1,2.9-2.1c-0.5-0.3-1.6,0.2-2.1,0.4c-0.9,0.3-1.8,0.4-2.8,0.5c-0.9,0.1-1.7,0.2-2.6,0.2c-0.6,0-1.4,0.2-1.9-0.2
		c0.2-0.7,1.6-1.2,2.2-1.4c1-0.3,2.1-0.5,3.1-0.5c1.2-0.1,2.5-0.1,3.7-0.3c0.4-0.1,1.4-0.2,1.5-0.6c-0.9-0.2-2.1,0-3.1-0.1
		c-1.2-0.1-2.4-0.1-3.5-0.5c-0.7-0.2-1.7-0.7-0.4-1c1-0.2,2.2,0,3.3,0c1.5,0.1,3,0.4,4.5,0.5c0.4,0,1.3,0.2,1.2-0.3
		c0-0.3-0.8-0.6-1-0.8c-0.5-0.4-1-0.9-1.4-1.4c-0.3-0.4-1.4-1.3-0.8-1.8c0.8-0.6,2.3,0.7,2.9,1.2c0.7,0.6,1.5,1.2,2.2,1.7
		c0.4,0.3,0.5,0.3,0.6-0.1c0.1-0.4-0.2-1.1-0.2-1.4c-0.1-0.4-0.1-0.8,0-1.1c0.2-0.7,0.9-1.4,1.3-0.5c0.3,0.7,0.5,1.7,0.6,2.4
		C49.8,34.2,49.8,35.5,50.2,35.2z"/>
	<path class="st18" d="M45.9,36.3c-0.2,0.1-0.3,0.2-0.5,0.2c-1.1,0.6-2.1,1.4-2.6,2.5c-0.8,1.8,0.5,3.6,2.2,4.2c2.8,1,6.4,1,9.3,0.3
		c2.1-0.5,6.1-2.9,4.5-5.6c-0.9-1.6-2.7-2.4-4.4-2.8c-1.7-0.3-3.8-0.4-5.5,0.1C47.9,35.5,46.8,35.9,45.9,36.3z"/>
	<path class="st19" d="M57.6,39.3c0,1.7-2.7,3.1-6,3.1c-1,0-1.9-0.1-2.8-0.3c-2.1-0.5-3.7-1.5-3.7-2.7c0-0.6,0.4-1.3,0.9-1.6
		c0.6-0.3,1.2-0.4,1.8-0.4c0.2,0,0.3,0,0.5-0.1c0.6-0.2,1-0.8,1.7-0.9c0.5-0.1,1-0.3,1.5-0.3c1,0,1.9,0.1,2.9,0.4
		C55.6,36.9,57.6,37.7,57.6,39.3z"/>
	<path class="st20" d="M57.6,39.3c0,1.7-2.7,3.1-6,3.1c-1,0-1.9-0.1-2.8-0.3c0-0.1,0.1-0.1,0.2-0.2c0.3-0.3,1.1-0.2,1.5-0.2
		c0.5,0,1-0.1,1.5-0.3c0.8-0.4,2.1-1,2.1-2.2c0-1-0.5-1.2-1.3-1.5c-1-0.3-1.8-0.4-2.8-0.4c-0.5,0-1.1,0.4-1.5,0c0,0,0,0,0-0.1
		c0.6-0.2,1-0.8,1.7-0.9c0.5-0.1,1-0.3,1.5-0.3c1,0,1.9,0.1,2.9,0.4C55.6,36.9,57.6,37.7,57.6,39.3z"/>
	<path class="st21" d="M31.6,39.4c-0.7,1.1-0.4,4,1.1,3.8c0.6-0.1,0.8-0.9,0.6-1.4c-0.2-0.4-0.2-0.9-0.3-1.4c-0.1-0.4,0-0.9-0.2-1.2
		c-0.2-0.4-0.7-0.4-1-0.2C31.8,39.2,31.7,39.3,31.6,39.4z"/>
	<path class="st21" d="M47.1,38.4c-0.5,0.1-0.9,0.4-1.2,0.7c-0.4,0.6-0.2,1.1,0.5,1.2c0.4,0,0.8,0,1.2-0.1c0.6-0.1,1.2-0.1,1.7-0.4
		c0.6-0.4,0.7-0.9,0-1.2C48.8,38.2,47.9,38.2,47.1,38.4z"/>
	<path class="st22" d="M41.8,39.6c-0.3,0.1-0.7,0-0.7-0.2c-0.1-0.2,0.1-0.5,0.5-0.6c0.3-0.1,0.9,0.2,0.9,0.2S42.1,39.5,41.8,39.6z"
		/>
	<path class="st22" d="M42.5,42.8c-0.2,0.3-0.6,0.4-0.8,0.2c-0.2-0.2-0.2-0.5,0-0.8c0.2-0.3,0.9-0.4,0.9-0.4S42.7,42.5,42.5,42.8z"
		/>
	<path class="st22" d="M47.9,45.1c-0.1,0.4-0.3,0.6-0.6,0.5c-0.2-0.1-0.4-0.4-0.3-0.7c0.1-0.4,0.6-0.8,0.6-0.8S47.9,44.8,47.9,45.1z
		"/>
	<path class="st22" d="M41,40.9c-0.4,0.1-0.7,0-0.8-0.3c-0.1-0.2,0.2-0.5,0.5-0.6c0.4-0.1,1,0.2,1,0.2S41.3,40.8,41,40.9z"/>
	<path class="st22" d="M39.1,40.7c-0.4,0.1-0.7,0-0.8-0.3c-0.1-0.2,0.2-0.5,0.5-0.6c0.4-0.1,1,0.2,1,0.2S39.5,40.6,39.1,40.7z"/>
	<path class="st22" d="M39.2,38c-0.3,0-0.6-0.2-0.6-0.5c0-0.2,0.3-0.4,0.6-0.4c0.3,0,0.8,0.5,0.8,0.5S39.6,38,39.2,38z"/>
	<path class="st22" d="M62.7,38c0.3,0,0.6,0.2,0.6,0.4s-0.3,0.4-0.6,0.4c-0.3,0-0.8-0.4-0.8-0.4S62.4,38,62.7,38z"/>
	<path class="st22" d="M42.2,44.3c-0.2,0.3-0.5,0.4-0.7,0.3c-0.2-0.1-0.2-0.4-0.1-0.7c0.2-0.3,0.8-0.5,0.8-0.5S42.4,44,42.2,44.3z"
		/>
	<path class="st22" d="M40.4,44.1c-0.3,0.2-0.6,0.2-0.7,0c-0.1-0.2,0-0.5,0.3-0.7c0.3-0.2,0.9-0.1,0.9-0.1S40.6,43.9,40.4,44.1z"/>
	<path class="st22" d="M47.6,47.6c-0.1,0.3-0.3,0.6-0.5,0.5c-0.2,0-0.4-0.3-0.3-0.7c0.1-0.3,0.5-0.7,0.5-0.7S47.7,47.3,47.6,47.6z"
		/>
	<path class="st22" d="M50.2,47.6c-0.1,0.3-0.3,0.6-0.5,0.5c-0.2,0-0.4-0.3-0.3-0.7c0.1-0.3,0.5-0.7,0.5-0.7S50.2,47.3,50.2,47.6z"
		/>
	<path class="st22" d="M53.3,44.8c-0.1,0.3-0.3,0.6-0.5,0.5c-0.2,0-0.4-0.3-0.3-0.7C52.5,44.4,53,44,53,44S53.4,44.5,53.3,44.8z"/>
	<path class="st22" d="M54.1,46.2c0.1,0.3-0.1,0.6-0.3,0.7c-0.2,0-0.5-0.2-0.5-0.5c-0.1-0.3,0.3-0.9,0.3-0.9S54.1,45.9,54.1,46.2z"
		/>
	<path class="st22" d="M43,46.7c-0.3,0.2-0.6,0.2-0.7,0c-0.1-0.2,0-0.5,0.3-0.7c0.3-0.2,0.9-0.1,0.9-0.1S43.3,46.5,43,46.7z"/>
	<path class="st22" d="M46.3,46.7c-0.2,0.3-0.5,0.4-0.7,0.3c-0.2-0.1-0.2-0.4-0.1-0.7c0.2-0.3,0.8-0.5,0.8-0.5S46.5,46.4,46.3,46.7z
		"/>
	<path class="st22" d="M60.6,43.1c0.3,0.2,0.4,0.5,0.3,0.7c-0.1,0.2-0.5,0.2-0.7,0c-0.3-0.2-0.4-0.8-0.4-0.8S60.3,42.9,60.6,43.1z"
		/>
	<path class="st22" d="M58.8,44.8c0.2,0.3,0.1,0.6-0.1,0.7s-0.5,0-0.7-0.3c-0.2-0.3-0.1-0.9-0.1-0.9S58.6,44.5,58.8,44.8z"/>
	<path class="st22" d="M55.8,44.1c0.2,0.3,0.2,0.6,0.1,0.7c-0.2,0.2-0.5,0.1-0.7-0.2c-0.2-0.3-0.2-0.9-0.2-0.9S55.6,43.8,55.8,44.1z
		"/>
	<path class="st22" d="M41.2,37.3c-0.3,0-0.6-0.2-0.6-0.5c0-0.2,0.3-0.4,0.7-0.4c0.3,0,0.8,0.5,0.8,0.5S41.5,37.3,41.2,37.3z"/>
	<path class="st22" d="M43.2,34.5c-0.3-0.1-0.4-0.4-0.3-0.6c0.1-0.2,0.4-0.2,0.7-0.1c0.3,0.1,0.5,0.7,0.5,0.7S43.4,34.7,43.2,34.5z"
		/>
	<path class="st22" d="M46.2,32.5c-0.1-0.3,0-0.6,0.2-0.7c0.2-0.1,0.5,0.1,0.6,0.4c0.1,0.3-0.1,0.9-0.1,0.9S46.3,32.8,46.2,32.5z"/>
	<path class="st22" d="M47.4,33.3c0-0.3,0.1-0.6,0.3-0.6c0.2,0,0.4,0.2,0.4,0.5c0,0.3-0.3,0.8-0.3,0.8S47.4,33.6,47.4,33.3z"/>
	<path class="st22" d="M50.2,32.5c0-0.3,0.1-0.6,0.3-0.6c0.2,0,0.4,0.2,0.4,0.5c0,0.3-0.3,0.8-0.3,0.8S50.2,32.8,50.2,32.5z"/>
	<path class="st22" d="M55.9,32.9c0.1-0.3,0.3-0.5,0.5-0.5c0.2,0,0.3,0.3,0.3,0.6c-0.1,0.3-0.5,0.7-0.5,0.7S55.8,33.2,55.9,32.9z"/>
	<path class="st22" d="M59.6,34.1c0.2-0.2,0.6-0.2,0.7-0.1c0.1,0.2,0.1,0.5-0.2,0.7c-0.2,0.2-0.8,0.2-0.8,0.2S59.3,34.3,59.6,34.1z"
		/>
	<path class="st22" d="M61.2,34.9c0.3-0.2,0.6-0.1,0.7,0.1c0.1,0.2,0,0.5-0.3,0.6c-0.3,0.2-0.9,0-0.9,0S60.9,35.1,61.2,34.9z"/>
	<path class="st22" d="M57.7,32.5c0.2-0.3,0.5-0.4,0.6-0.3c0.2,0.1,0.2,0.4,0,0.7c-0.2,0.3-0.7,0.4-0.7,0.4S57.5,32.8,57.7,32.5z"/>
	<path class="st22" d="M53.9,31.7c0.1-0.3,0.3-0.5,0.5-0.4c0.2,0.1,0.3,0.4,0.2,0.7c-0.1,0.3-0.6,0.6-0.6,0.6S53.9,32,53.9,31.7z"/>
	<path class="st22" d="M42.3,35.8c-0.3,0-0.5-0.3-0.5-0.5c0-0.2,0.3-0.4,0.6-0.3c0.3,0.1,0.7,0.5,0.7,0.5S42.6,35.9,42.3,35.8z"/>
	<path class="st22" d="M41.4,34.4c-0.3,0-0.5-0.3-0.5-0.5c0-0.2,0.3-0.4,0.6-0.3c0.3,0,0.7,0.5,0.7,0.5S41.7,34.5,41.4,34.4z"/>
	<path class="st22" d="M42.6,38c-0.3,0.1-0.7-0.1-0.7-0.3c-0.1-0.2,0.2-0.5,0.5-0.6c0.3-0.1,0.9,0.3,0.9,0.3S42.9,38,42.6,38z"/>
	<path class="st22" d="M60,40.6c0.3,0.1,0.6,0.3,0.5,0.6c0,0.2-0.4,0.4-0.7,0.3c-0.3-0.1-0.7-0.6-0.7-0.6S59.6,40.5,60,40.6z"/>
	<path class="st22" d="M61.6,40c0.3-0.1,0.6,0.1,0.7,0.3c0,0.2-0.2,0.5-0.5,0.5c-0.3,0.1-0.9-0.3-0.9-0.3S61.3,40.1,61.6,40z"/>
	<path class="st22" d="M60.8,37.8c0.3,0,0.6,0.1,0.7,0.4c0,0.2-0.2,0.5-0.6,0.5c-0.3,0-0.9-0.3-0.9-0.3S60.4,37.8,60.8,37.8z"/>
	<path class="st22" d="M44,35.8c-0.4-0.2-0.5-0.5-0.4-0.8c0.1-0.2,0.5-0.3,0.9-0.1c0.4,0.2,0.6,0.9,0.6,0.9S44.4,36,44,35.8z"/>
	<path class="st22" d="M44.7,44.6c-0.2,0.3-0.6,0.5-0.8,0.3c-0.2-0.2-0.2-0.5,0-0.9c0.2-0.3,0.9-0.5,0.9-0.5S45,44.2,44.7,44.6z"/>
	<path class="st22" d="M50.9,45c0.1,0.4-0.1,0.7-0.4,0.8c-0.3,0-0.5-0.2-0.6-0.6c-0.1-0.4,0.3-1,0.3-1S50.9,44.7,50.9,45z"/>
	<path class="st22" d="M46.8,34.7c-0.2-0.3-0.3-0.7,0-0.9c0.2-0.2,0.6-0.1,0.8,0.3c0.2,0.3,0.2,1.1,0.2,1.1S47.1,35,46.8,34.7z"/>
	<path class="st22" d="M49.8,33.9c0.1-0.4,0.4-0.6,0.6-0.5c0.2,0.1,0.4,0.4,0.3,0.8c-0.1,0.4-0.7,0.7-0.7,0.7S49.7,34.3,49.8,33.9z"
		/>
	<path class="st22" d="M52.4,33.8c0-0.4,0.2-0.7,0.4-0.7c0.3,0,0.5,0.3,0.5,0.6c0,0.4-0.4,0.9-0.4,0.9S52.4,34.2,52.4,33.8z"/>
	<path class="st22" d="M55.8,34.2c0.2-0.3,0.5-0.4,0.8-0.3c0.2,0.1,0.2,0.5,0,0.8c-0.2,0.3-0.9,0.5-0.9,0.5S55.6,34.5,55.8,34.2z"/>
	<path class="st22" d="M58.3,35.4c0.3-0.2,0.7-0.2,0.8,0c0.1,0.2,0,0.6-0.3,0.8c-0.3,0.2-1,0.1-1,0.1S58,35.7,58.3,35.4z"/>
	<path class="st4" d="M42.8,11.2c0.7,0.6,2.2,1.2,3.2,1c0-0.7-1.5-1.1-2-1.3C43.7,10.8,42.5,10.4,42.8,11.2z"/>
	<path class="st4" d="M43.4,5.7c0.7,0.6,2.2,1.2,3.2,1c0-0.7-1.5-1.1-2-1.3C44.4,5.4,43.1,5,43.4,5.7z"/>
	<path class="st4" d="M48.7,5.7c0.6,0.5,1.8,1,2.5,0.8c0-0.5-1.2-0.9-1.6-1.1C49.4,5.4,48.4,5.1,48.7,5.7z"/>
	<path class="st4" d="M49.7,12.9c0.7,0.6,2.2,1.2,3.2,1c0-0.7-1.5-1.1-2-1.3C50.6,12.6,49.4,12.2,49.7,12.9z"/>
	<path class="st4" d="M44.4,17.9c0.3,0.7,1.2,1.5,1.9,1.7c0.2-0.5-0.7-1.3-1-1.6C45.2,17.8,44.4,17.2,44.4,17.9z"/>
	<path class="st4" d="M30.7,26.7c0.3,0.7,1.2,1.5,1.9,1.7c0.2-0.5-0.7-1.3-1-1.6C31.5,26.7,30.8,26,30.7,26.7z"/>
	<path class="st4" d="M39.8,18c0.5,0.7,1.9,1.6,2.9,1.7c0.2-0.6-1.2-1.4-1.6-1.7C40.8,17.9,39.6,17.2,39.8,18z"/>
	<path class="st4" d="M34.9,20.7c0.4,0.8,1.5,2,2.4,2.3c0.3-0.6-0.8-1.6-1.2-2C35.9,20.8,35,19.9,34.9,20.7z"/>
	<path class="st4" d="M39.2,56.6c0,0.9,0.5,2.5,1.1,3.1c0.5-0.4,0-1.8-0.2-2.3C40.1,57.1,39.6,55.9,39.2,56.6z"/>
	<path class="st4" d="M54.4,57.7c-0.6,0.7-1.2,2.2-1,3.2c0.7,0,1.1-1.5,1.3-2C54.7,58.6,55.1,57.4,54.4,57.7z"/>
	<path class="st4" d="M44,57.8c0,0.7,0.3,1.8,0.8,2.2c0.4-0.3,0-1.3-0.1-1.7C44.6,58.2,44.2,57.3,44,57.8z"/>
	<path class="st4" d="M47,57.7c-0.2,0.6-0.1,1.8,0.2,2.4c0.4-0.2,0.3-1.3,0.3-1.7C47.5,58.2,47.4,57.3,47,57.7z"/>
	<path class="st4" d="M51.4,61.5C51,62,50.8,63.2,51,63.8c0.5-0.1,0.6-1.1,0.7-1.5C51.7,62.1,51.9,61.2,51.4,61.5z"/>
	<path class="st4" d="M44.6,62.3c0,0.6,0.3,1.8,0.8,2.2c0.4-0.3,0-1.3-0.1-1.7C45.2,62.7,44.9,61.8,44.6,62.3z"/>
	<path class="st4" d="M18.4,26.5c-0.1,0.9,0.3,2.5,0.9,3.2c0.6-0.4,0.1-1.8,0-2.4C19.3,27.1,18.9,25.8,18.4,26.5z"/>
	<path class="st4" d="M31.5,20.4c0.3,0.6,1.2,1.5,1.9,1.7c0.2-0.4-0.7-1.2-1-1.5C32.2,20.5,31.5,19.8,31.5,20.4z"/>
	<path class="st4" d="M16.1,24.7c-0.3,0.6-0.6,1.8-0.4,2.5c0.5-0.1,0.6-1.2,0.7-1.6C16.4,25.4,16.6,24.4,16.1,24.7z"/>
	<path class="st4" d="M39.8,13.2c0.3,0.7,1.3,1.6,2,1.7c0.2-0.5-0.8-1.3-1.1-1.6C40.6,13.2,39.8,12.5,39.8,13.2z"/>
	<path class="st4" d="M39.6,3c0.6,0.4,1.9,0.8,2.6,0.5c-0.1-0.6-1.3-0.8-1.7-0.9C40.3,2.6,39.3,2.4,39.6,3z"/>
	<path class="st4" d="M21.6,25.2c0,0.7,0.4,2,0.9,2.5c0.4-0.4,0-1.5-0.2-1.9C22.3,25.5,21.9,24.6,21.6,25.2z"/>
</g>
</svg>
