<?xml version="1.0" encoding="utf-8"?>
<!-- Generator: Adobe Illustrator 25.2.3, SVG Export Plug-In . SVG Version: 6.00 Build 0)  -->
<svg version="1.1" id="Capa_1" xmlns="http://www.w3.org/2000/svg" xmlns:xlink="http://www.w3.org/1999/xlink" x="0px" y="0px"
	 width="72.6px" height="96px" viewBox="0 0 72.6 96" style="enable-background:new 0 0 72.6 96;" xml:space="preserve">
<style type="text/css">
	.st0{fill:#7E8286;}
	.st1{opacity:0.5;fill:#8C959D;}
	.st2{fill:#5B606C;}
	.st3{fill:#FFE700;}
	.st4{fill:#FC8A07;}
	.st5{fill:#FC3007;}
	.st6{clip-path:url(#SVGID_1_);fill:#DB8305;}
	.st7{clip-path:url(#SVGID_1_);}
	.st8{fill:#FF9D00;}
	.st9{fill:#FFB600;}
	.st10{fill:#FFC900;}
	.st11{fill:#FFFFFF;}
	.st12{opacity:0.5;fill:#FFC900;}
	.st13{fill:#B7B7B7;}
	.st14{fill:#037213;}
	.st15{fill:#6D9B16;}
	.st16{fill:#E58703;}
	.st17{fill:#91C53D;}
	.st18{fill:#034D13;}
	.st19{opacity:0.5;fill:#FFFFFF;}
	.st20{fill:#B2B6BA;}
	.st21{fill:#73767A;}
	.st22{fill:#D2D5D4;}
	.st23{fill:#94989C;}
	.st24{fill:#B0B3B3;}
</style>
<g>
	<g>
		<g>
			<path class="st0" d="M72.6,88.9l0-1.8h-1c-3.8-3.2-18.2-5.6-35.3-5.6C19.1,81.4,4.7,83.8,1,87H0v1.8h0c0.2,4,16.4,7.2,36.3,7.2
				C56.1,96,72.1,92.8,72.6,88.9L72.6,88.9z"/>
			<path class="st1" d="M72.6,87h-1c-3.8-3.2-18.2-5.6-35.3-5.6c-0.4,0-0.7,0-1.1,0V96c0.4,0,0.7,0,1.1,0c19.8,0,35.8-3.2,36.3-7.1
				l0,0L72.6,87z"/>
			<path class="st2" d="M72.6,87c0,4-16.2,7.3-36.3,7.3C16.3,94.3,0,91.1,0,87s16.2-7.3,36.3-7.3C56.3,79.7,72.6,83,72.6,87L72.6,87
				z"/>
		</g>
		<g>
			<path class="st3" d="M72,87.1C72.1,87.1,72.1,87.1,72,87.1c0-0.1,0-0.2,0-0.2V8.5H0.5V87c0,0,0,0.1,0,0.1c0,0,0,0.1,0,0.1v0.1h0
				c0.6,3.1,16.4,6.4,35.8,6.4C55.7,93.6,71.5,90.4,72,87.1L72,87.1L72,87.1z"/>
			<g>
				<path class="st4" d="M0.5,26.3C0.5,26.4,0.5,26.4,0.5,26.3L0.5,26.3C0.5,26.3,0.5,26.3,0.5,26.3z"/>
				<path class="st4" d="M72.1,26.3C72.1,26.3,72.1,26.3,72.1,26.3L72.1,26.3C72.1,26.4,72.1,26.4,72.1,26.3z"/>
			</g>
		</g>
		<g>
			<path class="st5" d="M72,71.9v-1.6C37.6,55.2,7.6,65.7,0.5,68.6v1.6C7.6,67.3,37.6,56.8,72,71.9z"/>
			<path class="st5" d="M0.5,70.2V87c0,0,0,0.1,0,0.1c0,0,0,0.1,0,0.1v0.1h0c0.6,3.1,16.4,6.4,35.8,6.4c19.4,0,35.2-3.3,35.8-6.4h0
				v-0.1c0,0,0-0.1,0-0.1c0,0,0-0.1,0-0.1v-15C37.6,56.8,7.6,67.3,0.5,70.2z"/>
			<path class="st4" d="M0.5,26.3C0.5,26.4,0.5,26.4,0.5,26.3L0.5,26.3C0.5,26.3,0.5,26.3,0.5,26.3z"/>
			<path class="st4" d="M72.1,26.3C72.1,26.3,72.1,26.3,72.1,26.3L72.1,26.3C72.1,26.4,72.1,26.4,72.1,26.3z"/>
		</g>
		<g>
			<defs>
				<path id="SVGID_3_" d="M0.5,70.2V87c0,0,0,0.1,0,0.1c0,0,0,0.1,0,0.1v0.1h0c0.6,3.1,16.4,6.4,35.8,6.4c19.4,0,35.2-3.3,35.8-6.4
					h0v-0.1c0,0,0-0.1,0-0.1c0,0,0-0.1,0-0.1v-15C37.6,56.8,7.6,67.3,0.5,70.2z"/>
			</defs>
			<clipPath id="SVGID_1_">
				<use xlink:href="#SVGID_3_"  style="overflow:visible;"/>
			</clipPath>
			<path class="st6" d="M66.6,86.5C66.6,94,53,100,36.2,100c-16.8,0-30.4-6-30.4-13.5s13.6-13.5,30.4-13.5
				C53,73.1,66.6,79.1,66.6,86.5z"/>
			<g class="st7">
				<path class="st8" d="M13.8,77.5c0,0-6-5.6-3.7-7.4c2.2-1.8,7.1-3.5,8.1-1.1C19.1,71.4,18.4,80.8,13.8,77.5z"/>
				<path class="st8" d="M7.2,77.2c0,0-2.5,0.1-3.4,2C3,81.2,2.1,82.8,4,84c1.9,1.2,8.1,0.2,8.6-2.5C13.1,78.8,11.7,76.8,7.2,77.2z"
					/>
				<g>
					<path class="st9" d="M10.7,81.4c0,0-4.1-0.6-6.2,1.6c-2,2.2-1.3,3.9,0,5c1.3,1.2,4.6,2.9,6.2,2.5C12.3,90.1,14,82.4,10.7,81.4z
						"/>
					<path class="st10" d="M5.7,87.7c0,0,0.1,0,0.2,0.1C6,87.9,6.1,88,6.3,88.1c0.1,0,0.2,0.1,0.3,0.2c0.1,0.1,0.2,0.1,0.3,0.2
						c0.1,0.1,0.2,0.1,0.4,0.2c0.1,0,0.3,0.1,0.4,0.1c0.1,0,0.3,0.1,0.4,0.1c0.1,0,0.3,0.1,0.4,0.1c0.1,0,0.3,0,0.4,0
						c0.1,0,0.2,0,0.3,0c0.1,0,0.2,0,0.3,0c0.1,0,0.2,0,0.2,0c0.1,0,0.2,0,0.2,0s-0.1,0-0.2,0.1c-0.1,0-0.1,0.1-0.2,0.1
						c-0.1,0-0.2,0.1-0.3,0.1c-0.1,0-0.2,0-0.4,0.1c-0.1,0-0.3,0-0.4,0c-0.1,0-0.3,0-0.4,0C8,89.1,7.8,89,7.7,89
						c-0.3-0.1-0.6-0.2-0.8-0.3c-0.2-0.1-0.5-0.3-0.6-0.4c-0.2-0.1-0.3-0.3-0.4-0.4C5.8,87.8,5.7,87.7,5.7,87.7z"/>
				</g>
				<path class="st8" d="M56.3,72.2c0,0,1.2-2.2,5.1-0.6c3.9,1.6,4.1,2.9,3.2,4.1C63.7,76.8,53.9,77.1,56.3,72.2z"/>
				<path class="st9" d="M51.7,72.6c0,0,3.4-1.4,4.6-1.2c1.2,0.2,4,2.4,3.9,3.8c0,1.4-4.5,2.7-6.7,2.4
					C51.3,77.4,48.5,74.3,51.7,72.6z"/>
				<g>
					<path class="st9" d="M60.9,77.6c0,0,1.7-3.8,3.1-4.1c1.4-0.3,3.7,1,4.7,1.7c0.9,0.7,0.4,2.6-0.6,4.3c-1.1,1.7-2.9,3.8-5.1,3.2
						C60.7,82.2,59.7,80.4,60.9,77.6z"/>
					<path class="st10" d="M67.7,76.4c0,0,0,0.1,0,0.2c0,0.1-0.1,0.3-0.1,0.5c-0.1,0.2-0.2,0.4-0.3,0.6c-0.1,0.1-0.1,0.2-0.2,0.3
						c-0.1,0.1-0.2,0.2-0.2,0.3c-0.1,0.1-0.2,0.2-0.3,0.3c-0.1,0.1-0.2,0.2-0.3,0.3c-0.1,0.1-0.2,0.2-0.3,0.3
						c-0.1,0.1-0.2,0.1-0.3,0.2c-0.2,0.1-0.3,0.2-0.4,0.3c-0.1,0.1-0.2,0.1-0.2,0.1s0-0.1,0.1-0.1c0.1-0.1,0.2-0.2,0.3-0.4
						c0.1-0.1,0.1-0.1,0.2-0.2c0.1-0.1,0.2-0.2,0.2-0.3c0.1-0.1,0.2-0.2,0.3-0.3c0.1-0.1,0.2-0.2,0.2-0.3c0.1-0.1,0.2-0.2,0.2-0.3
						c0.1-0.1,0.1-0.2,0.2-0.3c0.1-0.1,0.1-0.2,0.2-0.3c0.1-0.1,0.1-0.2,0.2-0.3c0.1-0.2,0.2-0.3,0.2-0.4
						C67.7,76.5,67.7,76.4,67.7,76.4z"/>
				</g>
				<path class="st8" d="M61.8,87c-0.4,0.1-3.2,0.8-3.6,4.3c-0.4,3.5,6.4,1.9,9,0.1C69.8,89.6,67.1,85.8,61.8,87z"/>
				<path class="st10" d="M66.2,80.3c0,0,3,0.2,5.1,3.3c2.1,3.1-1.3,6.1-5.1,5.5C62.3,88.6,60.5,80.6,66.2,80.3z"/>
				<g>
					<path class="st9" d="M23.7,87c0,0-2.6,1.4-1.4,4.4c1.2,3,6.3,3.1,8,1.3c1.8-1.8,3.4-5,1.6-6.3C30.3,85.2,26.1,85.7,23.7,87z"/>
					<path class="st9" d="M24.2,91.1c0,0,0.1,0,0.2,0.1c0.1,0.1,0.3,0.1,0.4,0.2c0.2,0.1,0.4,0.2,0.6,0.2c0.2,0.1,0.5,0.1,0.8,0.1
						c0.1,0,0.3,0,0.4,0c0.1,0,0.2,0,0.4-0.1c0.1,0,0.2-0.1,0.3-0.1c0.1,0,0.2-0.1,0.3-0.1c0.1,0,0.2-0.1,0.3-0.1
						c0.1,0,0.1-0.1,0.2-0.1c0.1,0,0.2-0.1,0.2-0.1s-0.1,0-0.1,0.1c0,0-0.1,0.1-0.2,0.1c-0.1,0.1-0.1,0.1-0.2,0.1
						c-0.1,0-0.2,0.1-0.3,0.1c-0.1,0-0.2,0.1-0.4,0.1c-0.1,0-0.3,0.1-0.4,0.1c-0.1,0-0.3,0-0.4,0c-0.1,0-0.3,0-0.4,0
						c-0.1,0-0.3-0.1-0.4-0.1c-0.1,0-0.2-0.1-0.4-0.1c-0.1-0.1-0.2-0.1-0.3-0.2c-0.2-0.1-0.3-0.2-0.4-0.3
						C24.3,91.1,24.2,91.1,24.2,91.1z"/>
				</g>
				<g>
					<path class="st9" d="M13,76.8c0,0-0.2-2.1-3.4-4.8c-3.1-2.3-6,0.4-6.7,2.1C2.4,75.7,3,77,4.5,77.4c1.5,0.4,5,0.9,6.4,0.8
						C12.5,78,13.1,77.9,13,76.8z"/>
					<path class="st10" d="M5.5,76.4c0,0,0.1,0,0.2,0.1c0.1,0,0.1,0,0.2,0.1c0.1,0,0.2,0,0.3,0.1c0.1,0,0.2,0,0.4,0.1
						c0.1,0,0.3,0.1,0.4,0.1c0.1,0,0.3,0,0.5,0.1c0.2,0,0.3,0,0.5,0c0.2,0,0.3,0,0.5,0c0.2,0,0.3,0,0.5,0c0.1,0,0.3,0,0.4,0
						c0.1,0,0.3,0,0.4,0c0.2,0,0.4,0,0.6-0.1c0.1,0,0.2,0,0.2,0s-0.1,0-0.2,0.1c-0.1,0-0.3,0.1-0.6,0.2C9.7,77,9.6,77,9.4,77
						c-0.1,0-0.3,0-0.4,0c-0.2,0-0.3,0-0.5,0c-0.2,0-0.3,0-0.5,0c-0.2,0-0.3,0-0.5,0C7.4,77,7.2,77,7.1,77c-0.2,0-0.3-0.1-0.4-0.1
						c-0.1,0-0.3-0.1-0.4-0.1c-0.1,0-0.2-0.1-0.3-0.1c-0.1,0-0.2-0.1-0.2-0.1C5.6,76.4,5.5,76.4,5.5,76.4z"/>
				</g>
				<g>
					<path class="st9" d="M47.6,87.6c0,0-0.9,1.8-1.3,4.1c-0.3,2.2,4.4,2.4,5.7,0.7c1.3-1.6,3.1-3.6,3.8-4.4
						c0.7-0.8,0.6-1.9-1.5-2.4C52.1,85.2,49.1,84.7,47.6,87.6z"/>
					<g>
						<path class="st9" d="M48,91.5c0,0,0.2,0,0.4,0.1c0.3,0,0.6,0.1,1,0.1c0.1,0,0.2,0,0.3,0c0.1,0,0.2,0,0.2,0c0.1,0,0.2,0,0.2,0
							c0.1,0,0.1,0,0.2,0c0.1,0,0.1,0,0.2,0c0.1,0,0.1,0,0.1-0.1c0.1,0,0.1,0,0.1,0s0,0-0.1,0.1c-0.1,0.1-0.1,0.1-0.3,0.2
							c-0.1,0-0.1,0.1-0.2,0.1c-0.1,0-0.2,0.1-0.2,0.1c-0.2,0-0.4,0.1-0.6,0.1c-0.2,0-0.4,0-0.5-0.1c-0.2,0-0.3-0.1-0.4-0.2
							C48.2,91.7,48,91.5,48,91.5z"/>
						<path class="st9" d="M52.6,90.4c0,0,0-0.2,0.1-0.5c0-0.1,0.1-0.3,0.2-0.4c0.1-0.2,0.2-0.3,0.3-0.5c0.1-0.1,0.1-0.1,0.2-0.2
							c0.1-0.1,0.1-0.1,0.2-0.2c0.1-0.1,0.3-0.2,0.4-0.3c0.2-0.2,0.4-0.2,0.4-0.2s-0.1,0.2-0.3,0.3c0,0-0.1,0.1-0.1,0.2
							c-0.1,0.1-0.1,0.1-0.2,0.2c-0.1,0.1-0.1,0.1-0.2,0.2c-0.1,0.1-0.1,0.1-0.2,0.2c-0.1,0.2-0.2,0.3-0.3,0.4
							c-0.1,0.1-0.2,0.3-0.3,0.4C52.7,90.3,52.6,90.4,52.6,90.4z"/>
					</g>
				</g>
				<g>
					<path class="st8" d="M44.8,82.8c0,0-2.7-0.1-4.7,3.2c-2,3.4-2,5.3,0.4,5.7c2.5,0.5,6-2,7.2-3.4C49,86.9,49.2,83.2,44.8,82.8z"
						/>
					<path class="st10" d="M39.6,89.5c0,0,0.2,0.1,0.6,0.3c0.1,0,0.2,0.1,0.3,0.1c0.1,0,0.2,0.1,0.3,0.1c0.1,0,0.1,0,0.2,0
						c0.1,0,0.1,0,0.2,0c0.1,0,0.2,0,0.3,0c0.1,0,0.2,0,0.3,0c0.1,0,0.2,0,0.3-0.1c0.1,0,0.2-0.1,0.3-0.1c0.1,0,0.2-0.1,0.3-0.1
						c0.2-0.1,0.3-0.2,0.4-0.2c0.1,0,0.2-0.1,0.2-0.1s0,0-0.1,0.1c-0.1,0.1-0.2,0.2-0.4,0.3c-0.1,0.1-0.2,0.1-0.3,0.2
						c-0.1,0-0.2,0.1-0.3,0.1c-0.1,0-0.2,0.1-0.4,0.1c-0.1,0-0.3,0-0.4,0.1c-0.1,0-0.3,0-0.4,0c-0.1,0-0.3,0-0.4-0.1
						c-0.1,0-0.2-0.1-0.3-0.1c-0.1,0-0.2-0.1-0.3-0.1C39.8,89.7,39.6,89.5,39.6,89.5z"/>
				</g>
				<path class="st10" d="M52.9,75.7c0,0-1.4,1.9-1.7,3.9c-0.3,2,1.4,4.8,5.7,3.2c4.3-1.6,6.8-4.8,5.2-6.3
					C60.6,75,55.4,71.7,52.9,75.7z"/>
				<path class="st10" d="M26.2,77.7c0,0-3.8,1.6-4.7-1c-0.9-2.6-2-7.6,1.6-8c2.9-0.2,4.3,0.2,4.4,3.6C27.6,75.6,27.6,77,26.2,77.7z
					"/>
				<g>
					<path class="st10" d="M45.8,84.6c-2-0.3-2.6-1.1-2.6-1.8c-0.2,0.6-0.2,1.3-0.3,2c-0.2,1.4,3.1,2.2,6.7,2.8
						c3.6,0.6,4.4,0.3,4.9-2.2c0,0,0-0.1,0-0.1C53.1,86.1,49.2,85.1,45.8,84.6z"/>
					<path class="st3" d="M54.4,79.4c-0.9-0.2-2.6-0.1-2.6-0.1s-2.5,0.2-6.7,1.8c-1.1,0.5-1.6,1.1-1.8,1.7c0.1,0.7,0.6,1.5,2.6,1.8
						c3.4,0.5,7.2,1.5,8.8,0.7C55.2,83.1,55.3,79.6,54.4,79.4z"/>
				</g>
				<g>
					<path class="st3" d="M25.3,72c0,0,0.9,2,1.7,3.8c0.9,1.7,2.1,2,3.7,1.8c1.6-0.2,2.5-1.2,3-4c0.5-2.8,1.3-6-0.7-6.2
						c-2-0.2-4.6,0.2-6.8,1.7C24.9,70.1,25,71.2,25.3,72z"/>
					<g>
						<path class="st10" d="M26,70.1c0,0,0,0.1,0.1,0.2c0.1,0.1,0.1,0.3,0.2,0.5c0.1,0.2,0.2,0.5,0.3,0.7c0.1,0.3,0.2,0.5,0.3,0.8
							c0,0.1,0.1,0.3,0.1,0.4c0.1,0.1,0.1,0.3,0.1,0.4c0.1,0.3,0.2,0.5,0.3,0.7c0.1,0.2,0.1,0.4,0.2,0.5c0,0.1,0.1,0.2,0.1,0.2
							s0-0.1-0.1-0.2c-0.1-0.1-0.2-0.3-0.3-0.5c-0.1-0.2-0.2-0.4-0.3-0.7c-0.1-0.3-0.2-0.5-0.3-0.8c-0.1-0.3-0.2-0.6-0.3-0.8
							c-0.1-0.3-0.1-0.5-0.2-0.7C26.1,70.4,26,70.1,26,70.1z"/>
						<path class="st10" d="M28.7,76.2c0,0,0.2,0,0.4,0c0.1,0,0.2,0,0.4,0c0.1,0,0.3,0,0.4,0c0.1,0,0.3,0,0.4,0c0.1,0,0.3,0,0.4,0
							c0.2,0,0.4,0,0.4,0s-0.1,0.1-0.3,0.2c-0.1,0.1-0.2,0.1-0.4,0.1c-0.1,0-0.1,0-0.2,0c-0.1,0-0.2,0-0.2,0c-0.2,0-0.3,0-0.5,0
							c-0.1,0-0.3-0.1-0.4-0.1C28.9,76.3,28.7,76.2,28.7,76.2z"/>
						<path class="st10" d="M28.3,76.3c0,0,0,0.1,0.1,0.1c0,0.1,0.1,0.2,0.1,0.3c0,0.1,0,0.2,0,0.2c0,0.1,0,0.1,0,0.1s0,0,0,0
							c0,0-0.1,0-0.1-0.1c0-0.1-0.1-0.2-0.1-0.3c0-0.1,0-0.2,0.1-0.3C28.2,76.3,28.3,76.3,28.3,76.3z"/>
					</g>
					<path class="st11" d="M29,70c0,0.5-0.3,1-0.7,1c-0.4,0-0.7-0.4-0.7-1c0-0.5,0.3-1,0.7-1C28.7,69,29,69.5,29,70z"/>
					<path class="st11" d="M29,72.3c0,0.3-0.2,0.5-0.4,0.5c-0.2,0-0.4-0.2-0.4-0.5c0-0.3,0.2-0.5,0.4-0.5C28.8,71.8,29,72,29,72.3z"
						/>
				</g>
				<g>
					<path class="st10" d="M37,67.2c0,0-1.7,1.9-2.9,3.9c-1.2,2-1.2,3.4,0.2,4c1.4,0.6,2.2,0.3,4.9-1c2.7-1.3,4.8-2.1,5.4-3.1
						c0.6-1.1,0.8-1.5-1.3-2.6C41.3,67,39.2,65.3,37,67.2z"/>
					<g>
						<path class="st10" d="M34.7,73.3c0,0,0.1,0.1,0.3,0.2c0.1,0,0.2,0.1,0.3,0.1c0.1,0,0.2,0.1,0.3,0.1c0.1,0,0.2,0,0.3,0
							c0.1,0,0.2,0,0.3,0c0.1,0,0.2,0,0.2,0c0.1,0,0.1,0,0.1,0s0,0-0.1,0.1c0,0-0.1,0.1-0.2,0.1c-0.1,0-0.2,0.1-0.3,0.1
							c-0.1,0-0.1,0-0.2,0c-0.1,0-0.1,0-0.2,0c-0.1,0-0.3-0.1-0.4-0.1c-0.1-0.1-0.2-0.1-0.3-0.2C34.7,73.5,34.7,73.3,34.7,73.3z"/>
						<path class="st10" d="M39.1,72.4c0,0,0.3-0.2,0.7-0.5c0.2-0.1,0.5-0.3,0.8-0.4c0.3-0.1,0.6-0.3,0.9-0.4
							c0.3-0.1,0.6-0.3,0.9-0.4c0.3-0.1,0.6-0.2,0.8-0.3c0.2-0.1,0.5-0.1,0.6-0.1c0.1,0,0.2,0,0.2,0s-0.1,0-0.2,0.1
							c-0.1,0.1-0.3,0.1-0.6,0.2c-0.5,0.2-1.1,0.5-1.7,0.8c-0.3,0.1-0.6,0.3-0.9,0.4c-0.3,0.1-0.6,0.2-0.8,0.3
							c-0.2,0.1-0.4,0.2-0.6,0.2C39.2,72.4,39.1,72.4,39.1,72.4z"/>
					</g>
					<path class="st12" d="M38.9,68.2c-0.2,0.2-0.5,0.3-0.6,0.1c-0.2-0.1-0.1-0.4,0.1-0.7c0.2-0.2,0.5-0.3,0.6-0.1
						C39.1,67.6,39.1,67.9,38.9,68.2z"/>
				</g>
				<g>
					<path class="st3" d="M41.6,73.4c0,0-0.1,1.6,0.9,2.8c0.9,1.2,1.6,1.6,4.6,1.4c3-0.2,5.8-0.4,6.1-2c0.3-1.6-0.3-4.3-0.9-5.7
						c-0.6-1.4-1.6-0.9-3.2-0.7c-1.6,0.2-4.8,1.8-5.9,2.4C42,72.3,41.6,72.8,41.6,73.4z"/>
					<g>
						<path class="st10" d="M42.6,74c0,0,0.1,0.2,0.3,0.4c0.1,0.1,0.2,0.3,0.3,0.4c0.1,0.1,0.1,0.1,0.2,0.2c0.1,0.1,0.1,0.1,0.2,0.2
							c0.1,0.1,0.1,0.1,0.2,0.2c0.1,0.1,0.1,0.1,0.2,0.2c0.1,0.1,0.2,0.1,0.2,0.1c0.1,0,0.1,0.1,0.2,0.1c0.1,0,0.1,0.1,0.2,0.1
							c0.1,0,0.1,0,0.2,0c0.1,0,0.1,0,0.1,0s0,0-0.1,0c0,0-0.1,0-0.2,0c-0.1,0-0.1,0-0.2,0c-0.1,0-0.2,0-0.3-0.1c0,0-0.1,0-0.1,0
							c0,0-0.1,0-0.1-0.1c-0.1,0-0.2-0.1-0.3-0.2c-0.1-0.1-0.2-0.1-0.2-0.2c-0.2-0.2-0.3-0.3-0.4-0.5c-0.1-0.2-0.2-0.3-0.2-0.5
							C42.6,74.2,42.6,74,42.6,74z"/>
						<path class="st10" d="M46.7,76c0,0,0.1,0,0.2,0c0.2,0,0.4-0.1,0.6-0.1c0.3,0,0.6-0.1,0.9-0.1c0.3,0,0.7-0.1,1-0.1
							c0.3,0,0.7-0.1,1-0.1c0.3,0,0.6-0.1,0.9-0.1c0.3,0,0.5-0.1,0.6-0.1c0.2,0,0.2,0,0.2,0s-0.1,0-0.2,0.1c-0.1,0-0.2,0.1-0.3,0.1
							c-0.1,0-0.2,0.1-0.3,0.1c-0.3,0.1-0.6,0.1-0.9,0.2c-0.3,0-0.7,0.1-1,0.1c-0.2,0-0.4,0-0.5,0c-0.2,0-0.3,0-0.5,0
							c-0.3,0-0.6,0-0.9,0c-0.3,0-0.5,0-0.6,0C46.8,76,46.7,76,46.7,76z"/>
					</g>
					<g>
						<path class="st11" d="M47.5,72.1c-0.5,0.2-1,0.1-1.2-0.3c-0.1-0.4,0.1-0.8,0.7-1c0.5-0.2,1-0.1,1.2,0.3
							C48.2,71.5,48,71.9,47.5,72.1z"/>
						<path class="st11" d="M45.1,73.1c-0.3,0.2-0.5,0.1-0.7,0c-0.1-0.2,0-0.5,0.2-0.6c0.3-0.2,0.5-0.1,0.7,0
							C45.4,72.6,45.3,72.9,45.1,73.1z"/>
					</g>
				</g>
				<g>
					<path class="st3" d="M59.7,82.1c0,0-3.2,1.1-3.3,4.4c0.1,2.2,1.6,2.9,4.3,2.1c2.7-0.9,6.5-2.9,6-4.3c-0.5-1.4-3.1-3.6-4.4-3.3
						C61.1,81.3,59.7,82.1,59.7,82.1z"/>
					<path class="st10" d="M57.2,86.6c0,0,0,0,0.1,0.1c0.1,0,0.2,0.1,0.4,0.2c0.1,0,0.2,0.1,0.2,0.1c0.1,0,0.2,0,0.3,0.1
						c0.1,0,0.2,0,0.3,0c0.1,0,0.2,0,0.3,0c0.1,0,0.2,0,0.3,0c0.1,0,0.2,0,0.3,0c0.1,0,0.2,0,0.3,0c0.1,0,0.2,0,0.3,0
						c0.2,0,0.3-0.1,0.4-0.1c0.1,0,0.2,0,0.2,0s0,0-0.1,0.1c-0.1,0-0.2,0.1-0.4,0.2c-0.2,0.1-0.3,0.1-0.5,0.2c-0.1,0-0.2,0-0.3,0.1
						c-0.1,0-0.2,0-0.3,0c-0.2,0-0.5,0-0.7-0.1c-0.2-0.1-0.4-0.1-0.5-0.2c-0.1-0.1-0.3-0.2-0.3-0.3C57.2,86.6,57.2,86.6,57.2,86.6z"
						/>
				</g>
				<g>
					<path class="st10" d="M29.5,86.3c0,0-0.2,1.4,1.4,3.5c1.6,2,2.3,2.5,4.3,2.2c1.6-0.2,1.7-1.6,2.1-4.2c0.4-2.6,0.3-4.5-1.4-4.6
						C34.3,83,29.7,83.2,29.5,86.3z"/>
					<path class="st10" d="M31.7,90c0,0,0,0,0.1,0.1c0.1,0.1,0.2,0.1,0.3,0.2c0.1,0,0.1,0.1,0.2,0.1c0.1,0,0.2,0.1,0.2,0.1
						c0.1,0,0.2,0,0.3,0.1c0.1,0,0.2,0,0.3,0c0.1,0,0.2,0,0.3,0c0.1,0,0.2,0,0.3,0c0.1,0,0.2,0,0.3,0c0.1,0,0.2,0,0.2,0
						c0.2,0,0.3,0,0.4-0.1c0.1,0,0.1,0,0.1,0s0,0-0.1,0.1c-0.1,0-0.2,0.1-0.4,0.2c-0.2,0.1-0.3,0.1-0.5,0.1c-0.2,0-0.4,0-0.6,0
						c-0.1,0-0.2,0-0.3-0.1c-0.1,0-0.2-0.1-0.3-0.1c-0.1,0-0.2-0.1-0.3-0.1c-0.1,0-0.2-0.1-0.2-0.2c-0.1-0.1-0.2-0.2-0.3-0.3
						C31.7,90.1,31.7,90,31.7,90z"/>
				</g>
				<g>
					<path class="st3" d="M33.2,79.7c0,0,1.2,1.8,2.8,3.9c1.6,2.1,2.5,2.1,4.2,1.8c1.7-0.4,2.7-1.6,2.7-3.5c0-1.9-0.1-6.6-3.2-6.7
						c-3-0.1-6.3,0.8-6.8,2.1C32.5,78.2,32.9,79.3,33.2,79.7z"/>
					<g>
						<path class="st10" d="M33.8,78.5c0,0,0.1,0.1,0.2,0.4c0.1,0.2,0.4,0.5,0.6,0.9c0.1,0.2,0.3,0.4,0.4,0.6
							c0.2,0.2,0.3,0.4,0.5,0.7c0.2,0.2,0.4,0.4,0.6,0.7c0.2,0.2,0.4,0.4,0.7,0.6c0.3,0.2,0.5,0.2,0.8,0.3c0.3,0,0.6,0.1,0.9,0.1
							c0.3,0,0.6,0,0.8,0c0.3,0,0.5-0.1,0.7-0.1c0.5-0.1,0.8-0.2,1.1-0.3c0.3-0.1,0.4-0.1,0.4-0.1s-0.1,0.1-0.4,0.2
							c-0.1,0.1-0.3,0.1-0.5,0.2c-0.2,0.1-0.4,0.1-0.6,0.2c-0.2,0.1-0.5,0.1-0.7,0.2c-0.3,0-0.6,0.1-0.9,0.1c-0.3,0-0.6,0-0.9-0.1
							c-0.3-0.1-0.7-0.2-0.9-0.3c-0.3-0.2-0.5-0.4-0.7-0.6c-0.2-0.2-0.4-0.5-0.6-0.7c-0.4-0.5-0.6-0.9-0.9-1.3
							c-0.2-0.4-0.4-0.8-0.5-1C33.9,78.6,33.8,78.5,33.8,78.5z"/>
						<path class="st10" d="M37.9,83.6c0,0,0,0.1,0.1,0.2c0,0,0,0.1,0,0.2c0,0.1,0,0.1,0,0.2c0,0.1,0,0.1,0,0.2c0,0.1,0,0.1,0,0.2
							c0,0.1,0,0.2,0,0.2s-0.1,0-0.1-0.1c0,0-0.1-0.1-0.1-0.2c0-0.1,0-0.1-0.1-0.2c0-0.1,0-0.3,0-0.4C37.8,83.6,37.9,83.6,37.9,83.6
							z"/>
					</g>
					<g>
						<path class="st11" d="M36.7,77.5c-0.3,0.5-0.7,0.7-1.1,0.5c-0.3-0.2-0.4-0.7-0.1-1.2c0.3-0.5,0.7-0.7,1.1-0.5
							C36.9,76.5,36.9,77,36.7,77.5z"/>
						<path class="st11" d="M36.3,79.3c-0.1,0.2-0.3,0.3-0.4,0.2c-0.1-0.1-0.2-0.3-0.1-0.5c0.1-0.2,0.3-0.3,0.4-0.2
							C36.4,78.9,36.5,79.1,36.3,79.3z"/>
					</g>
				</g>
				<g>
					<path class="st9" d="M15.2,75.2c0,0-1.4,0-3.7,1.2c-2.3,1.3-3.2,3-2.5,4.2c0.7,1.2,2.7,2.8,6.9,2.9c4.1,0.1,4.6-1.2,4.6-3.3
						C20.2,78.6,17,75.2,15.2,75.2z"/>
					<path class="st10" d="M10.4,81.2c0,0,0.1,0,0.4,0.1c0.2,0.1,0.6,0.1,1,0.2c0.4,0.1,0.9,0.2,1.4,0.3c0.5,0.1,1,0.2,1.6,0.3
						c0.3,0.1,0.5,0.1,0.8,0.1c0.3,0,0.5,0.1,0.8,0.1c0.1,0,0.2,0,0.4,0c0.1,0,0.2,0,0.3,0c0.1,0,0.1,0,0.2,0c0.1,0,0.1,0,0.2-0.1
						c0.1,0,0.2-0.1,0.3-0.1c0.2-0.1,0.4-0.1,0.5-0.2c0.2-0.1,0.3-0.1,0.4-0.2c0.1-0.1,0.2-0.1,0.3-0.1c0.1,0,0.1,0,0.1,0
						s0,0-0.1,0.1c-0.1,0-0.1,0.1-0.2,0.2c-0.1,0.1-0.2,0.1-0.4,0.2c-0.1,0.1-0.3,0.2-0.5,0.2c-0.1,0-0.2,0.1-0.3,0.1
						c-0.1,0-0.1,0-0.2,0.1c-0.1,0-0.1,0-0.2,0c-0.1,0-0.2,0-0.4,0.1c-0.1,0-0.3,0-0.4,0c-0.3,0-0.5,0-0.8-0.1
						c-0.3,0-0.5-0.1-0.8-0.1c-0.5-0.1-1.1-0.2-1.6-0.3c-0.5-0.1-1-0.3-1.3-0.4c-0.4-0.1-0.7-0.2-0.9-0.3
						C10.5,81.3,10.4,81.2,10.4,81.2z"/>
				</g>
				<g>
					<path class="st3" d="M13.7,73.4c0,0,1.1,3.2,3.8,5.8c1,1,1.8,0.8,3.3,0.5c1.5-0.3,1.8-1.1,1.7-3.6c0-2.5-0.6-5.5-2.4-5.8
						c-1.8-0.4-3.8,0-5.6,1.1C13.2,72.2,13.7,73.4,13.7,73.4z"/>
					<path class="st10" d="M16.6,76.9c0,0,0.1,0.1,0.2,0.2c0.1,0.1,0.2,0.3,0.4,0.5c0.2,0.2,0.4,0.4,0.6,0.6
						c0.1,0.1,0.2,0.2,0.4,0.3c0.1,0.1,0.3,0.2,0.4,0.2c0.1,0,0.3,0,0.5,0c0.2,0,0.3,0,0.5,0c0.3,0,0.6,0,0.9-0.1
						c0.3,0,0.5,0,0.6-0.1c0.2,0,0.2,0,0.2,0s-0.3,0.1-0.8,0.2c-0.3,0.1-0.6,0.1-0.9,0.2c-0.2,0-0.3,0-0.5,0c-0.1,0-0.2,0-0.3,0
						c-0.1,0-0.2,0-0.3,0c-0.2-0.1-0.4-0.2-0.5-0.3c-0.1-0.1-0.3-0.2-0.4-0.3c-0.2-0.2-0.4-0.5-0.6-0.7c-0.2-0.2-0.3-0.4-0.3-0.5
						C16.6,77,16.6,76.9,16.6,76.9z"/>
				</g>
				<g>
					<path class="st10" d="M13.3,82.9c0,0-1.6,1.6-2.5,3.1c-0.9,1.6-0.6,2.9,2.9,3.8c3.4,0.9,9.4,0.6,10.1,0c0.7-0.7,1-2.1-0.4-3.3
						C21.8,85.4,15.7,80.8,13.3,82.9z"/>
					<path class="st10" d="M11.7,87.6c0,0,0.1,0,0.4,0.1c0.2,0.1,0.6,0.1,1,0.2c0.2,0,0.4,0.1,0.6,0.1c0.2,0,0.5,0.1,0.7,0.1
						c0.3,0,0.5,0.1,0.8,0.1c0.3,0,0.5,0.1,0.8,0.1c0.3,0,0.5,0.1,0.8,0.1c0.3,0,0.5,0,0.8,0.1c0.3,0,0.5,0,0.7,0.1
						c0.2,0,0.5,0,0.7,0c0.4,0,0.7,0,1,0c0.2,0,0.4,0,0.4,0s-0.1,0-0.4,0c-0.2,0-0.6,0-1,0.1c-0.2,0-0.4,0-0.7,0c-0.2,0-0.5,0-0.7,0
						c-0.3,0-0.5,0-0.8,0c-0.3,0-0.5-0.1-0.8-0.1c-0.3,0-0.5-0.1-0.8-0.1c-0.3,0-0.5-0.1-0.8-0.1c-0.3,0-0.5-0.1-0.7-0.2
						c-0.2-0.1-0.4-0.1-0.6-0.2C12.2,87.8,11.7,87.6,11.7,87.6z"/>
				</g>
				<g>
					<path class="st3" d="M24.1,79c0,0-3.5,4.1-4.2,5.6c-0.8,1.5,0.2,3.5,2.3,3.6c2,0.1,8-1.7,9.2-3.7c1.2-2,0.9-3.7-1.2-5.6
						C28.1,77,26.9,76.2,24.1,79z"/>
					<g>
						<path class="st10" d="M20.5,84.9c0,0,0.1,0.1,0.2,0.2c0.1,0.1,0.3,0.3,0.5,0.4c0.2,0.2,0.5,0.3,0.8,0.5c0.1,0,0.2,0.1,0.2,0.1
							c0.1,0,0.2,0,0.3,0.1c0.2,0,0.3,0,0.5,0c0.2,0,0.4,0,0.6-0.1c0.2,0,0.4,0,0.5-0.1c0.4,0,0.7-0.1,1-0.1c0.3,0,0.5-0.1,0.7-0.1
							c0.2,0,0.3,0,0.3,0s-0.1,0-0.3,0.1c-0.2,0-0.4,0.1-0.7,0.2c-0.3,0.1-0.6,0.1-1,0.2c-0.4,0.1-0.7,0.1-1.1,0.2
							c-0.2,0-0.4,0-0.6,0c-0.2,0-0.4-0.1-0.6-0.2c-0.3-0.2-0.6-0.4-0.8-0.6c-0.2-0.2-0.4-0.4-0.5-0.5C20.5,85,20.5,84.9,20.5,84.9z
							"/>
						<path class="st10" d="M29,84.4c0,0,0.1-0.1,0.4-0.2c0.1-0.1,0.2-0.1,0.4-0.2c0.1-0.1,0.3-0.1,0.4-0.2c0.1,0,0.1-0.1,0.2-0.1
							c0.1,0,0.1-0.1,0.2-0.1c0.1-0.1,0.3-0.1,0.4-0.2c0.2-0.1,0.4-0.2,0.4-0.2s-0.1,0.1-0.3,0.3c-0.1,0.1-0.2,0.2-0.4,0.3
							c-0.1,0.1-0.3,0.2-0.4,0.2c-0.2,0.1-0.3,0.1-0.5,0.2c-0.2,0.1-0.3,0.1-0.4,0.1C29.2,84.4,29,84.4,29,84.4z"/>
						<path class="st10" d="M22.4,86.9c0,0,0,0.1,0.1,0.2c0,0.1,0,0.2,0,0.4c0,0.1-0.1,0.3-0.1,0.3c0,0.1-0.1,0.1-0.1,0.1
							s0-0.1-0.1-0.2s0-0.2,0-0.4c0-0.1,0.1-0.2,0.1-0.3C22.4,87,22.4,86.9,22.4,86.9z"/>
					</g>
				</g>
				<path class="st11" d="M16.9,72c0.2,0.5,0,1-0.3,1.2c-0.4,0.1-0.8-0.2-1-0.7c-0.2-0.5,0-1,0.3-1.2C16.2,71.2,16.7,71.5,16.9,72z"
					/>
				<path class="st11" d="M17.6,74.2c0.1,0.3,0,0.6-0.2,0.6c-0.2,0.1-0.4-0.1-0.5-0.4c-0.1-0.3,0-0.6,0.2-0.6
					C17.3,73.7,17.5,73.9,17.6,74.2z"/>
				<path class="st11" d="M27.1,79.9c-0.6,0.4-1.4,0.4-1.7,0c-0.3-0.4,0-1.1,0.6-1.6c0.6-0.4,1.4-0.4,1.7,0
					C28,78.8,27.7,79.5,27.1,79.9z"/>
				<path class="st11" d="M24.5,81.7c-0.3,0.2-0.7,0.2-0.9,0c-0.2-0.2,0-0.6,0.3-0.9c0.3-0.2,0.7-0.2,0.9,0
					C25,81.1,24.8,81.4,24.5,81.7z"/>
			</g>
		</g>
		<g>
			<path class="st5" d="M63.5,8.5V67c2.8,0.9,5.6,2,8.5,3.3V26.4v-0.2V8.5H63.5z"/>
			<path class="st5" d="M0.5,8.5v17.7v0.2v42.2c1.7-0.7,4.7-1.8,8.8-2.9V8.5H0.5z"/>
		</g>
		<g>
			<path class="st13" d="M61.6,43.5c0.1,0.1,0.1,0.1,0.2,0.2c-0.9-2.3-4.5-5.1-10.8-6.3c0.2,0,0.5,0.1,0.7,0.1l0,0l0,0
				c0.3,0,0.5,0.1,0.8,0.1c0.7-0.4,1.3-0.9,1.8-1.3c0,0,0,0,0,0s0,0,0,0c1.7-1.4,2.8-2.7,3.4-3.9c0,0,0,0,0,0s0,0,0,0
				c0.8-1.4,0.9-2.6,0.5-3.3c-0.4-0.8-1.7-1.6-4.2-2.1c0,0,0,0,0,0s0,0,0,0c-0.7-0.2-1.4-0.3-2.3-0.4c0,0,0,0,0,0s0,0,0,0
				c-1.8-0.3-4-0.4-6.7-0.5c-0.4,0-0.8,0-1.2,0c0,0,0,0,0,0s0,0,0,0c-2.1,0-4.2,0.2-6.4,0.6c0,0,0,0,0,0s0,0,0,0
				c-3.2,0.5-6.3,1.2-9.1,2c0,0,0,0,0,0s0,0,0,0c-1,0.3-1.9,0.6-2.8,0.9c1.1-2.3,0.9-4.5-1.8-5.8c-0.5-0.3-1.2-0.5-1.9-0.7
				c0.6,2.2,1.1,5.2-3.7,8.4c-4.6,3.1-9.1,6.3-6.7,11.6c0,0,0,0,0,0.1c0.1,0.2,0.2,0.5,0.4,0.7c0,0,2.7,0.2,11.5-2.5
				C31.9,38.6,51.8,34.6,61.6,43.5c-0.8-0.8-2-0.7-3.2,0.1c-0.2,0.1-0.4,0.3-0.5,0.4c-0.7,0.7-1.3,1.6-1.8,2.8
				c-1.4,3.7-2.2,4.7-3,4.5c-0.8-0.2-1.2-4.8-1.3-7.6c-0.1-2.8-1.9-2.9-3.4,1.1c-1.5,4-1.8,6.6-1.8,4.6c0-2,0.8-7,0-7.1
				c-0.7-0.1-4,3.3-4.8,6.2c0,0,2.5-2.4,3.1-2.9c0.6-0.6-0.9,2.3,0.3,6.8c1,2.8,1.4,2,1.7-0.6c0.3-2.6,1.9-7.3,2.8-7.6
				c0.9-0.4-0.8,8.2,2.6,9c3.5,0.8,4.3-4.5,5.3-6.6c1-2.1,3.2-3.8,4.3-2.6C61.9,43.9,61.7,43.7,61.6,43.5z M32.3,37.9
				c-3.2,0.6-6.1,1.2-8.7,1.9c0,0,0,0,0,0C26.2,39.1,29.2,38.5,32.3,37.9z M11.8,43.7C11.8,43.7,11.8,43.7,11.8,43.7
				C11.8,43.7,11.8,43.7,11.8,43.7z M11.9,43.7c0.6-0.2,3.4-1.4,7.5-2.7c0,0,0,0,0,0s0,0,0,0c0.6-0.2,1.2-0.4,1.9-0.6c0,0,0,0,0,0
				s0,0,0,0c0.7-0.2,1.5-0.4,2.3-0.6c0,0,0,0,0,0C16.9,41.6,12.6,43.4,11.9,43.7z"/>
			<path class="st13" d="M42.9,45.8c0.6-0.7-0.1-2.8-1.2-3c-1.1-0.2-2.7,1.3-4.2,8.4c0.5-5.9-0.3-7-1.1-6.9
				c-0.8,0.1-3.2,1.8-3.2,1.8v0c0-0.1,0-0.2-0.1-0.1c-0.2-0.4-1-1.7-2.8-1.3c-2.2,0.4-3,2.5-5.1,5.2c-3.6,4.2-8.8,2.5-7.7-0.8
				c1-3.3,2.8-4.2,4.1-4.2c1.3,0,0.7,1.3,1.7,1.5c1,0.3,1.9-1.8,0.1-3c-1.8-1.3-5-0.1-6.8,3.4c-2,4.4-3.2,6-4.5,6.4
				c-1.4,0.3-1.3-1.4-1.3-1.4c-0.1,0.3-0.5,2.3,1.7,2.4c2.2,0.1,3-2.1,3-2.1s0.4,2.8,3.9,2.9c3.5,0.1,5.9-2.5,7.8-5.4
				c-0.1,0.2-1.5,5.7,3.2,5.8c4.4,0.1,4.3-4.6,3-8.5c2.8-2.9,3.6-1.7,3.6,1.8c-0.1,3.5-0.2,5.9-0.2,5.9s1-3.4,2.2-5.9
				c1.2-2.5,2-2.9,2.4-2.8C41.9,46.1,42.3,46.6,42.9,45.8z M33.3,51.7c-0.4,2.2-3.5,3-4.2,0.2c-0.7-2.9,1.1-4.5,1.1-4.5
				c0.1,0.1,0.2,0.2,0.4,0.3c0,0,0,0,0,0c0,0,0,0,0,0c0.3,0.2,0.7,0.3,1.1,0.4c0.3,0,0.6-0.1,0.8-0.2C32.8,48.3,33.6,49.8,33.3,51.7
				z"/>
		</g>
		<g>
			<path class="st11" d="M61.6,42.3c0.1,0.1,0.1,0.1,0.2,0.2c-0.9-2.3-4.5-5.1-10.8-6.3c0.2,0,0.5,0.1,0.7,0.1l0,0l0,0
				c0.3,0,0.5,0.1,0.8,0.1c0.7-0.4,1.3-0.9,1.8-1.3c0,0,0,0,0,0s0,0,0,0c1.7-1.4,2.8-2.7,3.4-3.9c0,0,0,0,0,0s0,0,0,0
				c0.8-1.4,0.9-2.6,0.5-3.3c-0.4-0.8-1.7-1.6-4.2-2.1c0,0,0,0,0,0s0,0,0,0c-0.7-0.2-1.4-0.3-2.3-0.4c0,0,0,0,0,0s0,0,0,0
				c-1.8-0.3-4-0.4-6.7-0.5c-0.4,0-0.8,0-1.2,0c0,0,0,0,0,0s0,0,0,0c-2.1,0-4.2,0.2-6.4,0.6c0,0,0,0,0,0s0,0,0,0
				c-3.2,0.5-6.3,1.2-9.1,2c0,0,0,0,0,0s0,0,0,0c-1,0.3-1.9,0.6-2.8,0.9c1.1-2.3,0.9-4.5-1.8-5.8c-0.5-0.3-1.2-0.5-1.9-0.7
				c0.6,2.2,1.1,5.2-3.7,8.4c-4.6,3.1-9.1,6.3-6.7,11.6c0,0,0,0,0,0.1c0.1,0.2,0.2,0.5,0.4,0.7c0,0,2.7,0.2,11.5-2.5
				C31.9,37.4,51.8,33.3,61.6,42.3c-0.8-0.8-2-0.7-3.2,0.1c-0.2,0.1-0.4,0.3-0.5,0.4c-0.7,0.7-1.3,1.6-1.8,2.8
				c-1.4,3.7-2.2,4.7-3,4.5c-0.8-0.2-1.2-4.8-1.3-7.6c-0.1-2.8-1.9-2.9-3.4,1.1c-1.5,4-1.8,6.6-1.8,4.6c0-2,0.8-7,0-7.1
				c-0.7-0.1-4,3.3-4.8,6.2c0,0,2.5-2.4,3.1-2.9c0.6-0.6-0.9,2.3,0.3,6.8c1,2.8,1.4,2,1.7-0.6c0.3-2.6,1.9-7.3,2.8-7.6
				c0.9-0.4-0.8,8.2,2.6,9c3.5,0.8,4.3-4.5,5.3-6.6c1-2.1,3.2-3.8,4.3-2.6C61.9,42.6,61.7,42.4,61.6,42.3z M32.3,36.7
				c-3.2,0.6-6.1,1.2-8.7,1.9c0,0,0,0,0,0C26.2,37.8,29.2,37.2,32.3,36.7z M11.8,42.5C11.8,42.5,11.8,42.5,11.8,42.5
				C11.8,42.5,11.8,42.5,11.8,42.5z M11.9,42.4c0.6-0.2,3.4-1.4,7.5-2.7c0,0,0,0,0,0s0,0,0,0c0.6-0.2,1.2-0.4,1.9-0.6c0,0,0,0,0,0
				s0,0,0,0c0.7-0.2,1.5-0.4,2.3-0.6c0,0,0,0,0,0C16.9,40.3,12.6,42.1,11.9,42.4z"/>
			<path class="st11" d="M42.9,44.6c0.6-0.7-0.1-2.8-1.2-3c-1.1-0.2-2.7,1.3-4.2,8.4c0.5-5.9-0.3-7-1.1-6.9
				c-0.8,0.1-3.2,1.8-3.2,1.8s0,0,0,0c0-0.1,0-0.2-0.1-0.1c-0.2-0.4-1-1.7-2.8-1.3c-2.2,0.4-3,2.5-5.1,5.2c-3.6,4.2-8.8,2.5-7.7-0.8
				c1-3.3,2.8-4.2,4.1-4.2c1.3,0,0.7,1.3,1.7,1.5c1,0.3,1.9-1.8,0.1-3c-1.8-1.3-5-0.1-6.8,3.4c-2,4.4-3.2,6-4.5,6.4
				c-1.4,0.3-1.3-1.4-1.3-1.4c-0.1,0.3-0.5,2.3,1.7,2.4c2.2,0.1,3-2.1,3-2.1s0.4,2.8,3.9,2.9c3.5,0.1,5.9-2.5,7.8-5.4
				c-0.1,0.2-1.5,5.7,3.2,5.8c4.4,0.1,4.3-4.6,3-8.5c2.8-2.9,3.6-1.7,3.6,1.8c-0.1,3.5-0.2,5.9-0.2,5.9s1-3.4,2.2-5.9
				c1.2-2.5,2-2.9,2.4-2.8C41.9,44.8,42.3,45.3,42.9,44.6z M33.3,50.5c-0.4,2.2-3.5,3-4.2,0.2c-0.7-2.9,1.1-4.5,1.1-4.5
				c0.1,0.1,0.2,0.2,0.4,0.3c0,0,0,0,0,0c0,0,0,0,0,0c0.3,0.2,0.7,0.3,1.1,0.4c0.3,0,0.6-0.1,0.8-0.2C32.8,47,33.6,48.6,33.3,50.5z"
				/>
		</g>
		<g>
			<path class="st14" d="M11.7,41.8c0,0,2.7,0.2,11.5-2.5c8.8-2.7,28.9-6.7,38.6,2.5c-1.5-3.9-10.7-9.1-28-6
				C20.6,37.9,11.7,41.8,11.7,41.8z"/>
			<g>
				<path class="st15" d="M23.6,21.8c2.7,3-1.8,6.9-7.7,11.9c-4.2,3.5-4.8,6-4.6,7.3c0.1,0.3,0.2,0.5,0.4,0.8c0,0,1.3-3.6,7.6-7.9
					C25,30,28.8,24.5,23.6,21.8z"/>
				<path class="st10" d="M11.7,41.8c0,0,21.1-9.3,40.7-6.1c5.1-3.4,6.5-7.1,5.7-8.6c-0.8-1.5-4.5-2.9-13.2-3
					c-8.7-0.1-19.7,2.9-24.7,5.7C15.4,32.6,9,37.6,11.7,41.8z"/>
				<g>
					<path class="st16" d="M54.1,25c0,0,0,0.1,0,0.3c0,0.2,0,0.5,0,0.9c0,0.2,0,0.4,0,0.6c0,0.2,0,0.4,0,0.7c0,0.2,0.1,0.5,0.1,0.7
						c0,0.2,0.1,0.5,0.2,0.7c0,0.1,0.1,0.2,0.1,0.4c0,0.1,0.1,0.2,0.1,0.4c0.1,0.2,0.2,0.5,0.2,0.7c0.1,0.2,0.2,0.4,0.3,0.6
						c0,0.1,0.1,0.2,0.1,0.3c0.1,0.1,0.1,0.2,0.2,0.3c0.1,0.2,0.2,0.3,0.3,0.4c0.1,0.1,0.2,0.2,0.2,0.3c0.1,0.2,0.2,0.3,0.2,0.3
						s-0.1-0.1-0.2-0.3c-0.1-0.1-0.2-0.2-0.3-0.3c-0.1-0.1-0.2-0.3-0.3-0.4c-0.1-0.1-0.1-0.2-0.2-0.2c-0.1-0.1-0.1-0.2-0.2-0.3
						c-0.1-0.2-0.2-0.4-0.3-0.6c-0.1-0.2-0.2-0.4-0.3-0.7c0-0.1-0.1-0.2-0.1-0.4c0-0.1-0.1-0.3-0.1-0.4c-0.1-0.3-0.1-0.5-0.1-0.8
						c0-0.2-0.1-0.5-0.1-0.7c0-0.2,0-0.5,0-0.7c0-0.2,0-0.4,0-0.6c0-0.4,0.1-0.7,0.1-0.9C54,25.1,54.1,25,54.1,25z"/>
					<path class="st16" d="M51.8,24.5c0,0,0,0.2-0.1,0.4c0,0.1,0,0.3,0,0.5c0,0.2,0,0.4,0,0.7c0,0.1,0,0.2,0,0.4c0,0.1,0,0.3,0,0.4
						c0,0.3,0,0.6,0,0.9c0,0.3,0.1,0.6,0.1,0.9c0.1,0.3,0.1,0.6,0.2,0.9l0.1,0.5c0,0.2,0.1,0.3,0.2,0.5c0.1,0.2,0.1,0.3,0.1,0.5
						c0.1,0.1,0.1,0.3,0.2,0.4c0.1,0.3,0.2,0.5,0.4,0.8c0.1,0.1,0.1,0.2,0.2,0.4c0.1,0.1,0.1,0.2,0.2,0.3c0.1,0.2,0.2,0.4,0.4,0.6
						c0.1,0.2,0.2,0.3,0.3,0.4c0.2,0.2,0.3,0.4,0.3,0.4S54.2,34.2,54,34c-0.1-0.1-0.2-0.2-0.4-0.4c-0.1-0.2-0.3-0.3-0.4-0.5
						c-0.1-0.1-0.1-0.2-0.2-0.3c-0.1-0.1-0.1-0.2-0.2-0.4c-0.1-0.2-0.3-0.5-0.4-0.8c-0.1-0.3-0.3-0.6-0.4-0.9
						c-0.1-0.2-0.1-0.3-0.2-0.5l-0.1-0.5c-0.1-0.3-0.1-0.7-0.2-1c-0.1-0.3-0.1-0.6-0.1-1c0-0.3,0-0.6,0-0.9c0-0.1,0-0.3,0-0.4
						c0-0.1,0-0.3,0-0.4c0-0.2,0.1-0.5,0.1-0.7c0-0.2,0.1-0.4,0.1-0.5C51.7,24.7,51.8,24.5,51.8,24.5z"/>
					<path class="st16" d="M48.6,24.3c0,0,0,0.2,0,0.5c0,0.3,0,0.8,0.1,1.3c0,0.3,0,0.6,0.1,0.9c0,0.3,0.1,0.6,0.1,1
						c0,0.3,0.1,0.7,0.2,1.1c0.1,0.4,0.1,0.7,0.2,1.1c0.1,0.4,0.2,0.7,0.3,1.1c0.1,0.3,0.2,0.7,0.3,1c0.1,0.3,0.2,0.6,0.4,0.9
						c0.1,0.3,0.2,0.6,0.4,0.8c0.1,0.2,0.3,0.5,0.4,0.7c0.1,0.2,0.2,0.4,0.3,0.5c0.2,0.3,0.3,0.4,0.3,0.4s-0.1-0.1-0.3-0.4
						c-0.1-0.1-0.2-0.3-0.4-0.5c-0.1-0.2-0.3-0.4-0.4-0.6c-0.2-0.2-0.3-0.5-0.4-0.8c-0.2-0.3-0.3-0.6-0.4-0.9
						c-0.1-0.3-0.3-0.7-0.4-1c-0.1-0.3-0.2-0.7-0.3-1.1c-0.1-0.4-0.2-0.7-0.2-1.1c-0.1-0.4-0.1-0.7-0.1-1.1
						c-0.1-0.7-0.1-1.4-0.1-1.9c0-0.6,0-1,0-1.4C48.6,24.4,48.6,24.3,48.6,24.3z"/>
					<path class="st16" d="M46.1,24.1c0,0,0,0.2,0,0.5c0,0.3,0,0.8,0,1.3c0,0.3,0,0.6,0,0.9c0,0.3,0,0.6,0.1,1c0,0.3,0.1,0.7,0.1,1
						c0,0.3,0.1,0.7,0.2,1.1c0.1,0.3,0.1,0.7,0.2,1c0.1,0.3,0.2,0.7,0.3,1c0.1,0.3,0.2,0.6,0.3,0.9c0.1,0.3,0.2,0.6,0.4,0.8
						c0.1,0.2,0.2,0.5,0.4,0.6c0.1,0.2,0.2,0.3,0.3,0.5c0.2,0.3,0.3,0.4,0.3,0.4s-0.1-0.1-0.3-0.4c-0.1-0.1-0.2-0.3-0.4-0.4
						c-0.1-0.2-0.3-0.4-0.4-0.6c-0.2-0.2-0.3-0.5-0.4-0.8c-0.2-0.3-0.3-0.6-0.4-0.9c0-0.1-0.1-0.2-0.1-0.2c0-0.1-0.1-0.2-0.1-0.2
						c-0.1-0.2-0.1-0.3-0.2-0.5c-0.1-0.3-0.2-0.7-0.2-1.1c-0.1-0.4-0.1-0.7-0.2-1.1c0-0.4-0.1-0.7-0.1-1c0-0.2,0-0.3,0-0.5
						c0-0.2,0-0.3,0-0.5c0-0.3,0-0.6,0-0.9C46,24.8,46.1,24.1,46.1,24.1z"/>
					<path class="st16" d="M43.8,24.1c0,0,0,0.2-0.1,0.5c0,0.2,0,0.3-0.1,0.6c0,0.2,0,0.5-0.1,0.7c0,0.1,0,0.3,0,0.4
						c0,0.1,0,0.3,0,0.4c0,0.3,0,0.6,0,1c0,0.3,0,0.7,0.1,1c0,0.3,0.1,0.7,0.2,1l0.1,0.5c0,0.2,0.1,0.3,0.1,0.5
						c0,0.2,0.1,0.3,0.1,0.5c0.1,0.2,0.1,0.3,0.2,0.5c0.1,0.3,0.2,0.6,0.4,0.9c0.1,0.1,0.1,0.3,0.2,0.4c0.1,0.1,0.1,0.2,0.2,0.4
						c0.1,0.2,0.2,0.4,0.4,0.6c0.1,0.2,0.2,0.3,0.3,0.5c0.2,0.3,0.3,0.4,0.3,0.4s-0.1-0.1-0.3-0.4c-0.1-0.1-0.2-0.3-0.4-0.4
						c-0.1-0.2-0.3-0.4-0.4-0.6c-0.1-0.1-0.2-0.2-0.2-0.4c-0.1-0.1-0.1-0.3-0.2-0.4c-0.1-0.1-0.1-0.3-0.2-0.4
						c-0.1-0.1-0.1-0.3-0.2-0.5c-0.1-0.2-0.1-0.3-0.2-0.5c-0.1-0.2-0.1-0.3-0.2-0.5c0-0.2-0.1-0.3-0.1-0.5l-0.1-0.5
						c-0.1-0.4-0.1-0.7-0.2-1.1c0-0.4,0-0.7-0.1-1c0-0.3,0-0.7,0-1c0-0.2,0-0.3,0-0.5c0-0.1,0-0.3,0.1-0.4c0-0.3,0.1-0.5,0.1-0.7
						c0-0.2,0.1-0.4,0.1-0.6C43.8,24.2,43.8,24.1,43.8,24.1z"/>
					<path class="st16" d="M41.4,24.3c0,0,0,0.2-0.1,0.5c0,0.3-0.1,0.7-0.1,1.3c0,0.5,0,1.1,0,1.8c0,0.7,0.1,1.3,0.2,2
						c0.1,0.3,0.1,0.7,0.2,1c0.1,0.3,0.2,0.7,0.3,1c0.1,0.2,0.1,0.3,0.2,0.4c0.1,0.1,0.1,0.3,0.2,0.4c0.1,0.1,0.1,0.3,0.2,0.4
						c0.1,0.1,0.1,0.2,0.2,0.4c0.1,0.2,0.3,0.4,0.4,0.6c0.1,0.2,0.2,0.3,0.3,0.4c0.2,0.2,0.3,0.4,0.3,0.4s-0.1-0.1-0.4-0.3
						c-0.1-0.1-0.2-0.2-0.4-0.4c-0.1-0.2-0.3-0.4-0.4-0.6c-0.1-0.1-0.1-0.2-0.2-0.4c-0.1-0.1-0.1-0.3-0.2-0.4
						c-0.1-0.1-0.1-0.3-0.2-0.4c-0.1-0.1-0.1-0.3-0.2-0.5c-0.1-0.3-0.2-0.6-0.3-1c-0.1-0.3-0.2-0.7-0.2-1c-0.1-0.4-0.1-0.7-0.1-1.1
						c0-0.3,0-0.7-0.1-1c0-0.7,0-1.3,0.1-1.8c0-0.5,0.1-1,0.2-1.3C41.4,24.4,41.4,24.3,41.4,24.3z"/>
					<path class="st16" d="M39.4,24.4c0,0,0,0.2-0.1,0.5c0,0.3-0.1,0.7-0.1,1.2c0,0.3,0,0.5,0,0.8c0,0.3,0,0.6,0,0.9
						c0,0.3,0,0.6,0.1,1c0,0.3,0.1,0.7,0.1,1c0.1,0.3,0.1,0.7,0.2,1c0,0.2,0.1,0.3,0.1,0.5c0,0.2,0.1,0.3,0.1,0.5
						c0,0.2,0.1,0.3,0.1,0.4c0.1,0.1,0.1,0.3,0.2,0.4c0.1,0.3,0.2,0.5,0.3,0.8c0.1,0.2,0.2,0.4,0.3,0.6c0.1,0.2,0.2,0.3,0.3,0.5
						c0.2,0.3,0.2,0.4,0.2,0.4s-0.1-0.1-0.3-0.4c-0.1-0.1-0.2-0.3-0.3-0.4c-0.1-0.2-0.2-0.4-0.4-0.6c-0.1-0.2-0.3-0.5-0.4-0.7
						c-0.1-0.1-0.1-0.3-0.2-0.4c-0.1-0.1-0.1-0.3-0.2-0.5c-0.1-0.2-0.1-0.3-0.2-0.5c0-0.2-0.1-0.3-0.1-0.5c-0.1-0.3-0.1-0.7-0.2-1
						c-0.1-0.3-0.1-0.7-0.1-1c0-0.3,0-0.7,0-1c0-0.3,0-0.6,0-0.9c0-0.3,0.1-0.6,0.1-0.8c0-0.3,0.1-0.5,0.1-0.7
						c0-0.2,0.1-0.4,0.1-0.5C39.4,24.6,39.4,24.4,39.4,24.4z"/>
					<path class="st16" d="M37.4,24.6c0,0-0.1,0.2-0.2,0.4c0,0.1-0.1,0.3-0.1,0.5c-0.1,0.2-0.1,0.4-0.1,0.7c0,0.3-0.1,0.5-0.1,0.8
						c0,0.1,0,0.3,0,0.4c0,0.2,0,0.3,0,0.5c0,0.3,0.1,0.6,0.1,1c0.1,0.3,0.1,0.7,0.2,1c0.1,0.3,0.1,0.7,0.2,1
						c0.1,0.3,0.2,0.6,0.3,0.9c0.1,0.3,0.2,0.6,0.3,0.9c0.1,0.3,0.2,0.5,0.4,0.8c0.1,0.2,0.2,0.4,0.3,0.6c0.1,0.2,0.2,0.3,0.3,0.5
						c0.1,0.3,0.2,0.4,0.2,0.4s-0.1-0.1-0.3-0.4c-0.1-0.1-0.2-0.3-0.3-0.5c-0.1-0.1-0.1-0.2-0.2-0.3c-0.1-0.1-0.1-0.2-0.2-0.3
						c-0.1-0.2-0.3-0.5-0.4-0.7c-0.1-0.3-0.2-0.6-0.4-0.9c-0.1-0.3-0.2-0.6-0.3-0.9c-0.1-0.3-0.2-0.7-0.3-1c-0.1-0.3-0.1-0.7-0.2-1
						c0-0.2,0-0.3,0-0.5c0-0.1,0-0.2,0-0.2c0-0.1,0-0.2,0-0.2c0-0.2,0-0.3,0-0.5c0-0.2,0-0.3,0-0.5c0-0.3,0.1-0.6,0.1-0.8
						c0.1-0.3,0.1-0.5,0.2-0.7c0.1-0.2,0.1-0.4,0.2-0.5C37.4,24.8,37.4,24.6,37.4,24.6z"/>
					<path class="st16" d="M35.3,25.1c0,0-0.2,0.6-0.3,1.6c0,0.2,0,0.5-0.1,0.8c0,0.3,0,0.6,0,0.9c0,0.2,0,0.3,0,0.5
						c0,0.2,0,0.3,0,0.5c0,0.3,0.1,0.6,0.1,1c0,0.2,0.1,0.3,0.1,0.5c0,0.2,0.1,0.3,0.1,0.5c0.1,0.3,0.2,0.6,0.3,0.9
						c0.1,0.3,0.2,0.6,0.3,0.8c0.1,0.3,0.2,0.5,0.3,0.7c0.1,0.2,0.2,0.4,0.3,0.6c0.1,0.2,0.2,0.3,0.3,0.5c0.1,0.3,0.2,0.4,0.2,0.4
						s-0.1-0.1-0.3-0.4c-0.1-0.1-0.2-0.3-0.3-0.4c-0.1-0.2-0.2-0.4-0.3-0.6c-0.1-0.2-0.3-0.5-0.4-0.7c-0.1-0.3-0.3-0.5-0.4-0.8
						c-0.1-0.3-0.2-0.6-0.3-0.9c0-0.2-0.1-0.3-0.1-0.5c0-0.2-0.1-0.3-0.1-0.5c-0.1-0.3-0.1-0.7-0.1-1c0-0.3,0-0.7,0-1
						c0-0.3,0-0.6,0-0.9c0-0.3,0.1-0.6,0.1-0.8c0-0.2,0.1-0.5,0.1-0.7s0.1-0.4,0.1-0.5C35.2,25.2,35.3,25.1,35.3,25.1z"/>
					<path class="st16" d="M33.4,25.4c0,0,0,0.2-0.1,0.4c-0.1,0.3-0.1,0.7-0.1,1.2c0,0.2,0,0.5,0,0.8c0,0.3,0,0.6,0,0.9
						c0,0.3,0,0.6,0.1,0.9c0,0.2,0,0.3,0,0.5l0.1,0.5c0,0.3,0.1,0.6,0.2,1c0.1,0.3,0.2,0.6,0.2,0.9c0.1,0.3,0.2,0.6,0.3,0.8
						c0.1,0.3,0.2,0.5,0.3,0.7c0.1,0.2,0.2,0.4,0.3,0.6c0.1,0.2,0.2,0.3,0.2,0.5c0.1,0.3,0.2,0.4,0.2,0.4s-0.1-0.1-0.2-0.4
						c-0.1-0.1-0.2-0.3-0.3-0.4c-0.1-0.2-0.2-0.4-0.3-0.6c-0.1-0.2-0.2-0.5-0.3-0.7c-0.1-0.3-0.2-0.5-0.3-0.8
						c-0.1-0.3-0.2-0.6-0.3-0.9c-0.1-0.3-0.2-0.6-0.2-1l-0.1-0.5c0-0.2,0-0.3,0-0.5c0-0.3,0-0.6,0-1c0-0.3,0-0.6,0-0.9
						c0-0.3,0.1-0.6,0.1-0.8c0-0.2,0.1-0.5,0.1-0.7c0-0.2,0.1-0.4,0.1-0.5C33.3,25.6,33.4,25.4,33.4,25.4z"/>
					<path class="st16" d="M31.1,25.9c0,0,0,0.2-0.1,0.4c0,0.1,0,0.3-0.1,0.5c0,0.2-0.1,0.4-0.1,0.7c0,0.1,0,0.2,0,0.4
						c0,0.1,0,0.3,0,0.4c0,0.3,0,0.6,0,0.9c0,0.3,0,0.6,0.1,0.9c0,0.3,0.1,0.6,0.1,1l0.1,0.5c0,0.2,0.1,0.3,0.1,0.5
						c0.1,0.3,0.2,0.6,0.3,0.9c0.1,0.3,0.2,0.6,0.3,0.8c0.1,0.1,0.1,0.3,0.2,0.4c0.1,0.1,0.1,0.2,0.2,0.3c0.1,0.2,0.2,0.4,0.3,0.6
						c0.1,0.2,0.2,0.3,0.3,0.4c0.2,0.2,0.3,0.4,0.3,0.4s-0.1-0.1-0.3-0.3c-0.1-0.1-0.2-0.2-0.3-0.4c-0.1-0.2-0.3-0.3-0.4-0.6
						c-0.1-0.1-0.1-0.2-0.2-0.3c-0.1-0.1-0.1-0.2-0.2-0.4c-0.1-0.3-0.3-0.5-0.4-0.8c-0.1-0.3-0.2-0.6-0.3-0.9c0-0.2-0.1-0.3-0.1-0.5
						l-0.1-0.5c-0.1-0.3-0.1-0.7-0.1-1c0-0.3,0-0.6,0-1c0-0.3,0-0.6,0-0.9c0-0.1,0-0.3,0-0.4c0-0.1,0-0.3,0.1-0.4
						c0-0.2,0.1-0.5,0.1-0.7c0.1-0.2,0.1-0.4,0.1-0.5C31,26.1,31.1,25.9,31.1,25.9z"/>
					<path class="st16" d="M28.3,26.7c0,0,0,0.2,0,0.4c0,0.3,0,0.7,0,1.1c0,0.5,0,1,0.1,1.6c0,0.3,0.1,0.6,0.1,0.9
						c0,0.3,0.1,0.6,0.1,0.9c0,0.3,0.1,0.6,0.2,0.9c0.1,0.3,0.1,0.6,0.2,0.9c0.1,0.3,0.2,0.5,0.2,0.8c0.1,0.2,0.2,0.5,0.3,0.7
						c0.1,0.2,0.2,0.4,0.3,0.6c0.1,0.2,0.2,0.3,0.2,0.4c0.1,0.2,0.2,0.4,0.2,0.4S30.2,36.2,30,36c-0.1-0.1-0.2-0.2-0.3-0.4
						c-0.1-0.2-0.2-0.4-0.3-0.6c-0.1-0.2-0.2-0.4-0.3-0.7c-0.1-0.3-0.2-0.5-0.3-0.8c-0.1-0.3-0.2-0.6-0.2-0.9
						c-0.1-0.3-0.1-0.6-0.2-0.9c0-0.3-0.1-0.6-0.1-0.9c0-0.3-0.1-0.6-0.1-0.9c0-0.6,0-1.1,0-1.6c0-0.5,0.1-0.9,0.1-1.1
						C28.3,26.8,28.3,26.7,28.3,26.7z"/>
					<path class="st16" d="M26.2,27.4c0,0,0,0.2,0,0.4c0,0.3,0,0.6-0.1,1.1c0,0.2,0,0.5,0,0.7c0,0.3,0,0.5,0,0.8
						c0,0.3,0.1,0.6,0.1,0.9c0,0.3,0.1,0.6,0.1,0.9c0.1,0.3,0.1,0.6,0.2,0.9c0,0.1,0.1,0.3,0.1,0.4c0,0.1,0.1,0.3,0.1,0.4
						c0,0.1,0.1,0.3,0.1,0.4c0.1,0.1,0.1,0.2,0.2,0.4c0.1,0.2,0.2,0.5,0.3,0.7c0.1,0.2,0.2,0.4,0.3,0.6c0.1,0.2,0.2,0.3,0.3,0.4
						c0.1,0.2,0.2,0.4,0.2,0.4s-0.1-0.1-0.3-0.3c-0.1-0.1-0.2-0.2-0.3-0.4c-0.1-0.2-0.2-0.3-0.3-0.5c-0.1-0.2-0.2-0.4-0.4-0.7
						c-0.1-0.1-0.1-0.2-0.2-0.4c-0.1-0.1-0.1-0.3-0.2-0.4c-0.1-0.1-0.1-0.3-0.2-0.4c0-0.1-0.1-0.3-0.1-0.4c-0.1-0.3-0.1-0.6-0.2-0.9
						C26,32,26,31.7,26,31.4c0-0.3-0.1-0.6-0.1-0.9c0-0.6,0-1.1,0-1.6c0-0.5,0.1-0.8,0.2-1.1C26.2,27.6,26.2,27.4,26.2,27.4z"/>
					<path class="st16" d="M23.8,28.3c0,0,0,0.1-0.1,0.4c0,0.1,0,0.3-0.1,0.5c0,0.2,0,0.4,0,0.6c0,0.2,0,0.5,0,0.7
						c0,0.3,0,0.5,0,0.8c0,0.3,0,0.6,0.1,0.9c0,0.3,0.1,0.6,0.1,0.9l0.1,0.4c0,0.1,0.1,0.3,0.1,0.4c0.1,0.3,0.2,0.5,0.3,0.8
						c0.1,0.3,0.2,0.5,0.3,0.7c0.1,0.1,0.1,0.2,0.2,0.3c0.1,0.1,0.1,0.2,0.2,0.3c0.1,0.2,0.2,0.4,0.3,0.5c0.1,0.1,0.2,0.3,0.3,0.4
						c0.2,0.2,0.2,0.3,0.2,0.3s-0.1-0.1-0.3-0.3c-0.1-0.1-0.2-0.2-0.3-0.4c-0.1-0.1-0.2-0.3-0.4-0.5c-0.1-0.1-0.1-0.2-0.2-0.3
						c-0.1-0.1-0.1-0.2-0.2-0.3c-0.1-0.2-0.3-0.5-0.4-0.7c-0.1-0.3-0.2-0.5-0.3-0.8c0-0.1-0.1-0.3-0.1-0.4l-0.1-0.4
						c-0.1-0.3-0.1-0.6-0.1-0.9c0-0.3,0-0.6-0.1-0.9c0-0.3,0-0.6,0-0.8c0-0.3,0-0.5,0.1-0.7c0-0.2,0.1-0.4,0.1-0.6
						c0-0.2,0.1-0.3,0.1-0.5C23.7,28.4,23.8,28.3,23.8,28.3z"/>
					<path class="st16" d="M21.7,29.2c0,0,0,0.1-0.1,0.4c0,0.2-0.1,0.6-0.1,1c0,0.2,0,0.4,0,0.7c0,0.2,0,0.5,0,0.8
						c0,0.3,0,0.5,0.1,0.8c0,0.1,0,0.3,0.1,0.4l0.1,0.4c0,0.3,0.1,0.6,0.2,0.8c0.1,0.3,0.2,0.5,0.3,0.8c0,0.1,0.1,0.2,0.2,0.4
						c0.1,0.1,0.1,0.2,0.2,0.3c0.1,0.2,0.2,0.4,0.3,0.6c0.1,0.2,0.2,0.4,0.3,0.5c0.1,0.1,0.2,0.3,0.3,0.4c0.1,0.2,0.2,0.3,0.2,0.3
						s-0.1-0.1-0.3-0.3c-0.1-0.1-0.2-0.2-0.3-0.4c-0.1-0.1-0.2-0.3-0.3-0.5c-0.1-0.2-0.3-0.4-0.4-0.6c-0.1-0.2-0.3-0.4-0.4-0.7
						c0-0.1-0.1-0.3-0.2-0.4l-0.1-0.2l-0.1-0.2c-0.1-0.3-0.2-0.6-0.2-0.8l-0.1-0.4c0-0.1,0-0.3-0.1-0.4c0-0.3,0-0.6-0.1-0.8
						c0-0.3,0-0.5,0-0.8c0-0.2,0-0.5,0.1-0.7c0-0.2,0.1-0.4,0.1-0.6c0-0.2,0.1-0.3,0.1-0.4C21.7,29.4,21.7,29.2,21.7,29.2z"/>
					<path class="st16" d="M19.5,30.4c0,0,0,0.1-0.1,0.4c0,0.1,0,0.3,0,0.4c0,0.2,0,0.3,0,0.5c0,0.2,0,0.4,0,0.6
						c0,0.2,0,0.5,0.1,0.7c0,0.2,0.1,0.5,0.1,0.8c0.1,0.3,0.1,0.5,0.2,0.8c0.1,0.3,0.1,0.5,0.2,0.8c0.1,0.2,0.2,0.5,0.2,0.7
						c0.1,0.2,0.2,0.5,0.3,0.7c0.1,0.2,0.2,0.4,0.3,0.6c0.1,0.2,0.2,0.3,0.2,0.5c0.1,0.1,0.1,0.3,0.2,0.4c0.1,0.2,0.2,0.3,0.2,0.3
						s-0.1-0.1-0.2-0.3c-0.1-0.1-0.1-0.2-0.2-0.4c-0.1-0.1-0.2-0.3-0.3-0.5c-0.1-0.2-0.2-0.4-0.3-0.6c-0.1-0.2-0.2-0.4-0.3-0.7
						c-0.1-0.2-0.2-0.5-0.3-0.7c-0.1-0.2-0.2-0.5-0.2-0.8c-0.1-0.3-0.1-0.5-0.2-0.8c0-0.3-0.1-0.5-0.1-0.8c0-0.1,0-0.2,0-0.4
						c0-0.1,0-0.2,0-0.4c0-0.2,0-0.4,0-0.6c0-0.4,0.1-0.7,0.2-1C19.4,30.5,19.5,30.4,19.5,30.4z"/>
					<path class="st16" d="M17.8,31.5c0,0,0,0.1-0.1,0.3c0,0.2-0.1,0.5-0.1,0.9c0,0.2,0,0.4,0,0.6c0,0.2,0,0.4,0,0.7
						c0,0.1,0,0.2,0,0.3c0,0.1,0,0.2,0.1,0.4c0,0.2,0.1,0.5,0.1,0.7c0,0.2,0.1,0.5,0.2,0.7c0.1,0.2,0.2,0.5,0.2,0.7
						c0.1,0.2,0.2,0.4,0.3,0.6c0.1,0.2,0.2,0.4,0.3,0.5c0.1,0.2,0.2,0.3,0.2,0.4c0.1,0.1,0.1,0.2,0.2,0.3c0.1,0.2,0.2,0.3,0.2,0.3
						s-0.1-0.1-0.2-0.3c-0.1-0.1-0.1-0.2-0.2-0.3c-0.1-0.1-0.2-0.3-0.3-0.4c-0.1-0.2-0.2-0.3-0.3-0.5c-0.1-0.2-0.2-0.4-0.3-0.6
						c-0.1-0.2-0.2-0.4-0.3-0.7c-0.1-0.2-0.1-0.5-0.2-0.7c0-0.2-0.1-0.5-0.1-0.7c0-0.1,0-0.2,0-0.4c0-0.1,0-0.2,0-0.4
						c0-0.2,0-0.5,0-0.7c0-0.2,0-0.4,0.1-0.6c0-0.2,0.1-0.4,0.1-0.5c0-0.2,0.1-0.3,0.1-0.4C17.7,31.7,17.8,31.5,17.8,31.5z"/>
					<path class="st16" d="M15.9,33c0,0,0,0.1,0,0.3c0,0.2,0,0.5,0,0.8c0,0.2,0,0.3,0,0.5c0,0.2,0,0.4,0,0.6c0,0.2,0.1,0.4,0.1,0.6
						c0,0.2,0.1,0.4,0.1,0.6c0.1,0.2,0.1,0.4,0.1,0.6c0.1,0.2,0.1,0.4,0.2,0.6c0.1,0.2,0.1,0.4,0.2,0.5c0.1,0.2,0.1,0.3,0.2,0.5
						c0.1,0.1,0.1,0.3,0.2,0.4c0.1,0.1,0.1,0.2,0.2,0.3c0.1,0.2,0.2,0.3,0.2,0.3s-0.1-0.1-0.2-0.2c-0.1-0.1-0.1-0.2-0.2-0.3
						c-0.1-0.1-0.2-0.2-0.3-0.4c-0.1-0.1-0.2-0.3-0.3-0.5c-0.1-0.2-0.2-0.3-0.2-0.5c-0.1-0.2-0.1-0.4-0.2-0.6
						c-0.1-0.2-0.1-0.4-0.2-0.6c0-0.2-0.1-0.4-0.1-0.6c0-0.2,0-0.4,0-0.6c0-0.4,0-0.8,0-1.1C15.8,33.4,15.9,33,15.9,33z"/>
					<path class="st16" d="M14.7,34.2c0,0,0,0.1,0,0.3c0,0.2,0,0.4,0,0.7c0,0.3,0,0.6,0,1c0,0.2,0,0.4,0,0.6c0,0.2,0,0.4,0.1,0.6
						c0,0.2,0.1,0.4,0.1,0.6c0,0.1,0,0.2,0.1,0.3c0,0.1,0.1,0.2,0.1,0.3c0,0.1,0.1,0.2,0.1,0.2c0,0.1,0.1,0.2,0.1,0.2
						c0.1,0.2,0.1,0.3,0.2,0.4c0.1,0.1,0.1,0.2,0.2,0.3c0.1,0.1,0.1,0.2,0.2,0.2c0.1,0.1,0.2,0.2,0.2,0.2s-0.1-0.1-0.2-0.2
						c-0.1-0.1-0.1-0.1-0.2-0.2c-0.1-0.1-0.2-0.2-0.2-0.3c-0.1-0.1-0.2-0.3-0.3-0.4c0-0.1-0.1-0.2-0.1-0.2c0-0.1-0.1-0.2-0.1-0.3
						c0-0.1-0.1-0.2-0.1-0.3c0-0.1-0.1-0.2-0.1-0.3c-0.1-0.2-0.1-0.4-0.1-0.6c0-0.2-0.1-0.4-0.1-0.6c0-0.2,0-0.4,0-0.6
						c0-0.4,0-0.7,0.1-1C14.5,34.6,14.7,34.2,14.7,34.2z"/>
					<path class="st16" d="M13.3,35.8c0,0,0,0.1,0,0.2c0,0.1,0,0.3-0.1,0.6c0,0.2,0,0.5,0,0.8c0,0.2,0,0.3,0,0.5c0,0.2,0,0.3,0,0.5
						c0,0.2,0,0.3,0.1,0.5c0,0.1,0,0.2,0.1,0.2c0,0.1,0,0.1,0.1,0.2c0,0.1,0,0.1,0.1,0.2c0,0.1,0.1,0.1,0.1,0.2
						c0.1,0.1,0.1,0.3,0.2,0.4c0.1,0.1,0.1,0.2,0.2,0.3c0.1,0.1,0.1,0.2,0.1,0.2c0.1,0.1,0.1,0.2,0.1,0.2s-0.1-0.1-0.2-0.2
						c-0.1-0.1-0.1-0.1-0.2-0.2c-0.1-0.1-0.1-0.2-0.2-0.3c-0.1-0.1-0.1-0.2-0.2-0.4c0-0.1-0.1-0.1-0.1-0.2c0-0.1-0.1-0.1-0.1-0.2
						c0-0.1-0.1-0.2-0.1-0.2c0-0.1,0-0.2-0.1-0.2c0-0.2-0.1-0.3-0.1-0.5c0-0.2,0-0.3,0-0.5c0-0.2,0-0.3,0-0.5c0-0.3,0.1-0.6,0.1-0.9
						C13.2,36.1,13.3,35.8,13.3,35.8z"/>
					<path class="st16" d="M56.6,25.8c0,0,0,0.1,0,0.2c0,0.1,0,0.3,0.1,0.5c0.1,0.4,0.1,1,0.3,1.6c0,0.1,0.1,0.3,0.1,0.4
						c0,0.1,0.1,0.3,0.1,0.4c0,0.1,0.1,0.3,0.1,0.4c0,0.1,0.1,0.2,0.1,0.3c0,0.1,0.1,0.2,0.1,0.3c0,0.1,0.1,0.2,0.1,0.2
						c0.1,0.1,0.1,0.2,0.1,0.2s-0.1-0.1-0.1-0.2c-0.1-0.1-0.2-0.3-0.3-0.4c-0.1-0.1-0.1-0.2-0.2-0.3c-0.1-0.1-0.1-0.2-0.2-0.4
						c-0.1-0.3-0.2-0.6-0.3-0.9c-0.1-0.3-0.1-0.6-0.1-0.9c0-0.3,0-0.5,0-0.8c0-0.2,0-0.4,0-0.5C56.6,25.9,56.6,25.8,56.6,25.8z"/>
				</g>
				<g>
					<path class="st16" d="M15,34.3c0,0,0.5-0.3,1.3-0.7c0.4-0.2,1-0.5,1.6-0.8c0.6-0.3,1.3-0.6,2.1-1c0.4-0.2,0.8-0.4,1.2-0.5
						c0.4-0.2,0.8-0.4,1.3-0.6c0.9-0.4,1.8-0.8,2.8-1.1c0.5-0.2,1-0.4,1.5-0.6c0.5-0.2,1-0.4,1.5-0.5c1-0.3,2.1-0.7,3.2-1
						c0.5-0.2,1.1-0.3,1.6-0.5c0.5-0.1,1.1-0.3,1.6-0.4c0.5-0.1,1.1-0.3,1.6-0.4c0.5-0.1,1.1-0.2,1.6-0.3c0.5-0.1,1-0.2,1.5-0.3
						c0.5-0.1,1-0.2,1.5-0.2c0.5-0.1,0.9-0.2,1.4-0.2c0.4-0.1,0.9-0.1,1.3-0.2c0.8-0.1,1.6-0.2,2.3-0.3c0.7,0,1.3-0.1,1.8-0.1
						c1-0.1,1.5-0.1,1.5-0.1s-0.6,0.1-1.5,0.1c-0.5,0-1.1,0.1-1.8,0.2c-0.7,0.1-1.4,0.2-2.3,0.3c-0.4,0.1-0.8,0.1-1.3,0.2
						c-0.4,0.1-0.9,0.2-1.4,0.3c-0.5,0.1-1,0.2-1.5,0.3c-0.5,0.1-1,0.2-1.5,0.3c-0.5,0.1-1,0.2-1.6,0.3c-0.5,0.1-1.1,0.3-1.6,0.4
						c-0.5,0.1-1.1,0.3-1.6,0.4c-0.5,0.2-1.1,0.3-1.6,0.5c-1.1,0.3-2.1,0.7-3.2,1c-0.5,0.2-1,0.4-1.5,0.5c-0.5,0.2-1,0.4-1.5,0.5
						c-1,0.4-1.9,0.7-2.8,1.1c-0.4,0.2-0.9,0.4-1.3,0.5c-0.4,0.2-0.8,0.4-1.2,0.5c-1.5,0.7-2.8,1.3-3.7,1.7c-0.4,0.2-0.8,0.4-1,0.5
						C15.2,34.3,15,34.3,15,34.3z"/>
					<path class="st16" d="M12.2,37.9c0,0,0.7-0.3,1.9-0.8c1.2-0.5,2.9-1.3,5-2.1c1-0.4,2.2-0.8,3.4-1.3c1.2-0.5,2.5-0.9,3.8-1.4
						c1.3-0.5,2.7-0.9,4.1-1.4c0.7-0.2,1.4-0.4,2.1-0.7c0.7-0.2,1.4-0.4,2.2-0.6c1.4-0.4,2.9-0.8,4.3-1.1c0.7-0.2,1.4-0.3,2.1-0.5
						c0.7-0.1,1.4-0.3,2.1-0.4c0.7-0.1,1.4-0.3,2-0.4c0.7-0.1,1.3-0.2,2-0.3c1.3-0.2,2.5-0.3,3.6-0.3c0.6,0,1.1-0.1,1.6-0.1
						c0.5,0,1,0,1.5,0c0.5,0,0.9,0.1,1.3,0.1c0.4,0,0.8,0.1,1.1,0.1c0.7,0.1,1.2,0.2,1.5,0.2c0.3,0.1,0.5,0.1,0.5,0.1
						s-0.2,0-0.5-0.1c-0.3-0.1-0.8-0.2-1.5-0.2c-0.3,0-0.7-0.1-1.1-0.1c-0.4,0-0.8,0-1.3,0c-0.5,0-0.9,0-1.4,0c-0.5,0-1,0.1-1.6,0.1
						c-1.1,0.1-2.3,0.2-3.6,0.4c-0.6,0.1-1.3,0.2-1.9,0.3c-0.7,0.1-1.3,0.2-2,0.4c-0.7,0.1-1.4,0.3-2.1,0.4
						c-0.7,0.2-1.4,0.3-2.1,0.5c-1.4,0.4-2.9,0.7-4.3,1.1c-0.7,0.2-1.4,0.4-2.2,0.6c-0.7,0.2-1.4,0.4-2.1,0.6
						c-1.4,0.4-2.8,0.9-4.1,1.3c-1.3,0.5-2.6,0.9-3.8,1.3c-1.2,0.4-2.3,0.9-3.4,1.3c-2.1,0.8-3.8,1.5-5,2
						C12.8,37.6,12.2,37.9,12.2,37.9z"/>
					<path class="st16" d="M11.3,40c0,0,2.9-0.8,7.3-2c2.2-0.6,4.8-1.3,7.5-2c2.7-0.7,5.7-1.5,8.6-2.3c2.9-0.8,5.9-1.6,8.6-2.3
						c1.4-0.4,2.7-0.7,4-1c1.3-0.3,2.4-0.7,3.5-1c4.4-1.2,7.3-2,7.3-2s-2.9,0.9-7.3,2.1c-1.1,0.3-2.3,0.7-3.5,1
						c-1.3,0.3-2.6,0.7-4,1.1c-2.7,0.7-5.7,1.5-8.6,2.3c-2.9,0.8-5.9,1.5-8.6,2.3c-2.8,0.7-5.3,1.4-7.5,1.9c-2.2,0.6-4,1-5.3,1.3
						C12.1,39.8,11.3,40,11.3,40z"/>
					<path class="st16" d="M43.4,35c0,0,0.2-0.1,0.7-0.2c0.4-0.1,1-0.3,1.8-0.5c0.4-0.1,0.8-0.2,1.2-0.4c0.4-0.1,0.9-0.3,1.3-0.5
						c0.5-0.2,0.9-0.3,1.4-0.5c0.2-0.1,0.5-0.2,0.7-0.3c0.2-0.1,0.5-0.2,0.7-0.3c0.5-0.2,1-0.4,1.4-0.6c0.5-0.2,0.9-0.4,1.3-0.6
						c0.4-0.2,0.8-0.4,1.2-0.6c0.4-0.2,0.7-0.4,1.1-0.6c0.2-0.1,0.3-0.2,0.5-0.3c0.1-0.1,0.3-0.2,0.4-0.3c0.1-0.1,0.3-0.2,0.4-0.3
						c0.1-0.1,0.2-0.2,0.3-0.2c0.3-0.3,0.5-0.5,0.5-0.5s-0.2,0.2-0.5,0.5c-0.1,0.1-0.2,0.2-0.3,0.3c-0.1,0.1-0.2,0.2-0.3,0.3
						c-0.3,0.2-0.5,0.4-0.8,0.6c-0.3,0.2-0.7,0.5-1.1,0.7c-0.4,0.2-0.8,0.5-1.2,0.7c-0.4,0.2-0.9,0.4-1.4,0.6
						c-0.5,0.2-0.9,0.4-1.4,0.6c-0.2,0.1-0.5,0.2-0.7,0.3c-0.2,0.1-0.5,0.2-0.7,0.3c-0.5,0.2-1,0.3-1.4,0.5
						c-0.5,0.2-0.9,0.3-1.3,0.4c-0.4,0.1-0.8,0.2-1.2,0.3c-0.7,0.2-1.4,0.3-1.8,0.4C43.7,34.9,43.4,35,43.4,35z"/>
				</g>
				<g>
					<path class="st11" d="M50.3,25.5c0,0.4-0.8,0.7-1.8,0.7c-1,0-1.8-0.3-1.8-0.7c0-0.4,0.8-0.7,1.8-0.7
						C49.5,24.8,50.3,25.1,50.3,25.5z"/>
					<path class="st11" d="M46.4,25.6c0,0.1-0.3,0.3-0.6,0.3c-0.4,0.1-0.7,0-0.7-0.2c0-0.1,0.3-0.3,0.6-0.3
						C46,25.4,46.3,25.5,46.4,25.6z"/>
				</g>
				<path class="st17" d="M15.9,33.7c5.9-5.1,10.4-8.9,7.7-11.9c-0.5-0.3-1.2-0.5-1.9-0.7c0.6,2.2,1.1,5.2-3.7,8.4
					c-4.6,3.1-9.1,6.3-6.7,11.6C11.2,39.7,11.8,37.2,15.9,33.7z"/>
			</g>
			<g>
				<path class="st14" d="M41.9,46.6c0,0,2.5-2.4,3.1-2.9c0.6-0.6-0.9,2.3,0.3,6.8c1,2.8,1.4,2,1.7-0.6c0.3-2.6,1.9-7.3,2.8-7.6
					c0.9-0.4-0.8,8.2,2.6,9c3.5,0.8,4.3-4.5,5.3-6.6c1-2.1,3.2-3.8,4.3-2.6c-1.3-2.2-4.5-0.9-5.9,2.8c-1.4,3.7-2.2,4.7-3,4.5
					c-0.8-0.2-1.2-4.8-1.3-7.6c-0.1-2.8-1.9-2.9-3.4,1.1c-1.5,4-1.8,6.6-1.8,4.6c0-2,0.8-7,0-7.1C45.9,40.3,42.7,43.7,41.9,46.6z"/>
				<g>
					<path class="st14" d="M41.7,40.9c-1.1-0.2-2.7,1.3-4.2,8.4c0.5-5.9-0.3-7-1.1-6.9c-0.8,0.1-3.2,1.8-3.2,1.8s-1.1,0.9-1.7,0.3
						c-0.6-0.7,0.6-1.5,0.6-1.5s-2.1,0.6-1.8,2.5c1.1,1.2,2.3,0.4,2.3,0.4c0.5-0.3,1-1,1-1c2.8-2.9,3.6-1.7,3.6,1.8
						c-0.1,3.5-0.2,5.9-0.2,5.9s1-3.4,2.2-5.9c1.2-2.5,2-2.9,2.4-2.8c0.4,0.2,0.7,0.7,1.4,0C43.5,43.1,42.7,41.1,41.7,40.9z"/>
					<path class="st14" d="M32.5,45.9c0,0,1.2,1.7,0.8,3.9c-0.4,2.1-3.5,3-4.2,0.2c-0.7-2.8,1.1-4.5,1.1-4.5
						C30,43.6,32.1,43,32.1,43s-1.1,0.8-0.6,1.5c0.6,0.7,1.7-0.3,1.7-0.3s-0.7-1.9-2.9-1.5c-2.2,0.4-3,2.5-5.1,5.2
						c-3.6,4.2-8.8,2.5-7.7-0.8c1-3.3,2.8-4.2,4.1-4.2c1.3,0,0.7,1.3,1.7,1.5c1,0.3,1.9-1.8,0.1-3c-1.8-1.3-5-0.1-6.8,3.4
						c-2,4.4-3.2,6-4.5,6.4c-1.4,0.3-1.3-1.4-1.3-1.4c-0.1,0.3-0.5,2.3,1.7,2.4c2.2,0.1,3-2.1,3-2.1s0.4,2.8,3.9,2.9
						c3.5,0.1,5.9-2.5,7.8-5.4c-0.1,0.2-1.5,5.7,3.2,5.8c4.4,0.1,4.3-4.6,3-8.5C33.5,44.9,33,45.6,32.5,45.9z"/>
				</g>
				<path class="st18" d="M33.4,45c-0.8,0.6-1.5,1.1-2.5,0.5c-0.6-0.3-0.9-1-0.3-1.6c0.3-0.3,0.6-0.5,0.9-0.7c0.1,0,0.1-0.2,0-0.2
					c-0.7,0.4-1.9,1.2-1.4,2.2c0.3,0.6,1,0.9,1.6,0.9c0.6,0,1.3-0.6,1.7-0.9C33.5,45.2,33.6,44.9,33.4,45z"/>
				<path class="st18" d="M33.1,44.1c-0.3,0.2-0.7,0.4-1,0.3c-0.2-0.1-0.4-0.2-0.4-0.4c-0.1-0.3,0.2-0.5,0.4-0.7
					c0.1-0.1,0.1-0.3,0-0.2c-0.2,0.2-0.4,0.4-0.5,0.6c-0.1,0.2-0.1,0.5,0.1,0.7c0.1,0.2,0.5,0.3,0.7,0.3c0.3,0,0.6-0.2,0.8-0.4
					C33.2,44.3,33.3,44,33.1,44.1z"/>
				<path class="st11" d="M23.4,41.8c-1.8-2.2-5,0.7-6.1,2.2c-0.1,0.1-0.3,0.4-0.1,0.2c1.1-1.5,4.1-4,6-2.2
					C23.3,42.1,23.4,41.8,23.4,41.8z"/>
				<path class="st11" d="M31.1,42.9c-2.4,0.3-4,3.5-3.7,5.7c0,0.2,0,0.1,0,0c0-2.2,1.4-4.8,3.6-5.5C31.1,43.1,31.2,42.9,31.1,42.9z
					"/>
				<path class="st11" d="M41.8,41.1c-0.3-0.2-0.8,0.1-1.1,0.3c-1,1-1.7,2.3-2.1,3.7c-0.1,0.2-0.1,0.3,0,0.2
					c0.2-0.7,0.7-1.6,1.1-2.2c0.2-0.4,0.5-0.8,0.7-1.1c0.2-0.4,0.6-0.6,1-0.7c0.3,0,0.5,0.1,0.6,0.4c0,0.1,0.1,0,0.2,0
					C42.3,41.4,42.1,41.2,41.8,41.1z"/>
				<path class="st11" d="M46.7,40.7c-0.3-0.3-1.1,0.6-1.3,0.8c-0.8,0.8-1.6,1.9-2.1,3c-0.1,0.2-0.1,0.4-0.1,0.2
					c0.5-0.8,1.3-1.9,1.9-2.6c0.2-0.2,1.1-1.4,1.5-1.2C46.6,41,46.7,40.8,46.7,40.7z"/>
				<path class="st11" d="M51.4,40.6c-0.3-0.9-1-0.4-1.4,0c-0.1,0.1-0.1,0.3,0,0.2c1-0.9,1.2,0.2,1.3,1c0.1,0.7,0.2,1.7,0.2,2.4
					c0,0.2,0.1-0.3,0.1-0.5C51.7,42.7,51.7,41.6,51.4,40.6z"/>
				<path class="st11" d="M60.4,41.1c-2.3-0.2-3.3,1.8-4.1,3.6c-0.1,0.2-0.2,0.6-0.1,0.4c0.8-1.7,2-3.8,4.2-3.8
					C60.4,41.4,60.5,41.1,60.4,41.1z"/>
			</g>
		</g>
	</g>
	<path class="st19" d="M9.9,8.5v82.8c2.3,0.5,5.1,0.9,8,1.3V8.5H9.9z"/>
	<path class="st1" d="M72,87V8.5H36.2v85.1c19.4,0,35.2-3.3,35.8-6.4h0v-0.1C72,87.1,72,87.1,72,87C72,87,72,87,72,87z"/>
	<g>
		<g>
			<path class="st11" d="M72.6,9.1l0-1.8h-1c-3.8-3.2-18.2-5.6-35.3-5.6C19.1,1.7,4.7,4.1,1,7.3H0v1.8h0c0.2,4,16.4,7.2,36.3,7.2
				C56.1,16.3,72.1,13.1,72.6,9.1L72.6,9.1z"/>
			<path class="st0" d="M72.6,9.1l0-1.8h-1c-3.8-3.2-18.2-5.6-35.3-5.6C19.1,1.7,4.7,4.1,1,7.3H0v1.8h0c0.2,4,16.4,7.2,36.3,7.2
				C56.1,16.3,72.1,13.1,72.6,9.1L72.6,9.1z"/>
			<path class="st1" d="M72.6,7.3h-1c-3.8-3.2-18.2-5.6-35.3-5.6c-0.4,0-0.7,0-1.1,0v14.6c0.4,0,0.7,0,1.1,0
				c19.8,0,35.8-3.2,36.3-7.1l0,0L72.6,7.3z"/>
			<path class="st20" d="M72.6,7.3c0,4-16.2,7.3-36.3,7.3C16.3,14.6,0,11.3,0,7.3S16.3,0,36.3,0C56.3,0,72.6,3.3,72.6,7.3L72.6,7.3z
				"/>
			<path class="st21" d="M71.1,7.1c0,3.6-15.6,6.6-34.8,6.6c-19.2,0-34.8-2.9-34.8-6.6c0-3.6,15.6-6.6,34.8-6.6
				C55.5,0.5,71.1,3.5,71.1,7.1L71.1,7.1z"/>
			<path class="st22" d="M70.3,7.4c0,3.5-15.2,6.3-34,6.3c-18.8,0-34-2.8-34-6.3c0-3.5,15.2-6.3,34-6.3C55,1.1,70.3,3.9,70.3,7.4
				L70.3,7.4z"/>
			<path class="st23" d="M67.9,7.5c0,2.9-13.9,5.3-31,5.3c-17.1,0-31-2.4-31-5.3c0-2.9,13.9-5.3,31-5.3C54,2.2,67.9,4.6,67.9,7.5
				L67.9,7.5z"/>
			<path class="st22" d="M66.6,7.6c0,2.7-13.3,5-29.7,5c-16.4,0-29.7-2.2-29.7-5c0-2.8,13.3-5,29.7-5C53.3,2.6,66.6,4.9,66.6,7.6
				L66.6,7.6z"/>
			<path class="st23" d="M61.7,7.6c0,2-10.5,3.7-23.4,3.7c-12.9,0-23.4-1.7-23.4-3.7c0-2,10.5-3.7,23.4-3.7
				C51.2,3.9,61.7,5.6,61.7,7.6L61.7,7.6z"/>
			<path class="st22" d="M60.7,7.8c0,1.9-10,3.4-22.4,3.4c-12.4,0-22.4-1.5-22.4-3.4c0-1.9,10-3.4,22.4-3.4
				C50.7,4.4,60.7,5.9,60.7,7.8L60.7,7.8z"/>
		</g>
		<path class="st11" d="M10.2,6.8c0,0.5-0.8,1-1.8,1.1C7.4,7.9,6.5,7.6,6.5,7c0-0.5,0.8-1,1.8-1.1C9.3,5.9,10.1,6.3,10.2,6.8
			L10.2,6.8z"/>
		<g>
			<path class="st21" d="M28.3,5.9c-0.7-1.5-2-2.2-3.6-2.5c-3.2-0.5-6.5,0.1-9.6,0.6c-3,0.5-6.3,0.6-9.2,1.7
				C4.5,6.2,4.2,7.9,5.4,8.6c1.7,1,10.9,2.1,13.3,2.3c1.3,0.1,2.7,0.1,4,0.1c1.1,0,2.3-0.2,3.3-0.5c0.9-0.3,1.7-0.7,2.2-1.6
				C28.6,8.1,28.6,6.6,28.3,5.9L28.3,5.9z M26.5,8c-0.2,0.6-0.6,1-1,1.2c-0.4,0.2-0.9,0.3-1.4,0.3c-0.6,0-1.1,0-1.7-0.1
				c-0.5-0.1-1-0.2-1.4-0.3c-1.3-0.3-6.1-1.3-3.8-3.5c0.8-0.8,2-0.9,3-1.1c1.5-0.2,3.1-0.5,4.6,0c0.7,0.2,1.3,0.7,1.6,1.6
				C26.5,6.6,26.6,7.5,26.5,8L26.5,8z"/>
			<path class="st24" d="M28.3,5c-0.7-1.5-2-2.2-3.6-2.5c-3.2-0.5-6.5,0.1-9.6,0.6c-3,0.5-6.3,0.6-9.2,1.7C4.5,5.3,4.2,7,5.4,7.7
				c1.7,1,10.9,2.1,13.3,2.3c1.3,0.1,2.7,0.1,4,0.1c1.1,0,2.3-0.2,3.3-0.5c0.9-0.3,1.7-0.7,2.2-1.6C28.6,7.2,28.6,5.7,28.3,5L28.3,5
				z M26.5,7.1c-0.2,0.6-0.6,1-1,1.2c-0.4,0.2-0.9,0.3-1.4,0.3c-0.6,0-1.1,0-1.7-0.1c-0.5-0.1-1-0.2-1.4-0.3C19.7,8,14.9,7,17.2,4.8
				c0.8-0.8,2-0.9,3-1.1c1.5-0.2,3.1-0.5,4.6,0c0.7,0.2,1.3,0.7,1.6,1.6C26.5,5.8,26.6,6.6,26.5,7.1L26.5,7.1z"/>
			<g>
				<path class="st21" d="M10.5,6.3c0,0.6-0.8,1-1.9,1.1c-1.1,0-2-0.4-2-0.9c0-0.6,0.8-1,1.9-1.1C9.6,5.3,10.5,5.7,10.5,6.3
					L10.5,6.3z"/>
				<path class="st22" d="M10.5,5.9c0,0.6-0.8,1.1-1.9,1.1c-1.1,0.1-2-0.3-2-0.9c0-0.6,0.8-1.1,1.9-1.1C9.5,5,10.5,5.4,10.5,5.9
					L10.5,5.9z"/>
			</g>
		</g>
	</g>
</g>
</svg>
