<?xml version="1.0" encoding="utf-8"?>
<!-- Generator: Adobe Illustrator 25.2.3, SVG Export Plug-In . SVG Version: 6.00 Build 0)  -->
<svg version="1.1" id="Capa_1" xmlns="http://www.w3.org/2000/svg" xmlns:xlink="http://www.w3.org/1999/xlink" x="0px" y="0px"
	 width="54.3px" height="108.2px" viewBox="0 0 54.3 108.2" style="enable-background:new 0 0 54.3 108.2;" xml:space="preserve">
<style type="text/css">
	.st0{fill:#E0F0FB;}
	.st1{fill:#5D98E6;}
	.st2{fill:#4678D5;}
	.st3{fill:#80B4EE;}
	.st4{fill:#BEE0FA;}
	.st5{fill:#FFFFFF;}
	.st6{fill:#B42645;}
	.st7{fill:#DC3F3F;}
</style>
<g>
	<g>
		<g>
			<polygon class="st0" points="34.1,20.8 0,20.8 10.1,8.2 44.2,8.2 			"/>
			<rect x="34.1" y="20.8" class="st1" width="20.2" height="87.3"/>
			<g>
				<polygon class="st2" points="44.2,8.2 40.2,13.1 54.3,20.8 				"/>
				<polygon class="st3" points="54.3,20.8 40.2,13.1 34.1,20.8 				"/>
			</g>
			<path class="st1" d="M40.1,0H14.2c-2.3,0-4.1,1.8-4.1,4.1v4.1h34.1V4.1C44.2,1.8,42.3,0,40.1,0z"/>
			<polygon class="st4" points="34.1,20.8 34.1,108.2 0,108.2 0,20.8 			"/>
		</g>
		<circle class="st5" cx="17" cy="68.8" r="12"/>
		<g>
			<path class="st6" d="M22.2,8.5c-1.2,0.1-2.5,0.7-3.6,1.8c-1.1,1.1-1.7,2.4-1.8,3.6l-1.2,0.5l2,2c0,0,0,0,0.1,0.1
				c1.4,1.4,4.2,1,6.2-0.9c2-2,2.4-4.7,0.9-6.2l-2.1-2.1L22.2,8.5z"/>
			<path class="st7" d="M22.7,7.3c1.4,1.4,1,4.2-0.9,6.2c-2,2-4.7,2.4-6.2,0.9c-1.4-1.4-1-4.2,0.9-6.2C18.5,6.3,21.2,5.9,22.7,7.3z"
				/>
		</g>
	</g>
	<g>
		<path class="st3" d="M21.6,51h-9.2c-0.9,0-1.7-0.8-1.7-1.7c0-0.9,0.8-1.7,1.7-1.7h9.2c0.9,0,1.7,0.8,1.7,1.7
			C23.3,50.3,22.6,51,21.6,51z"/>
		<path class="st3" d="M26.5,44.1h-19c-0.9,0-1.7-0.8-1.7-1.7s0.8-1.7,1.7-1.7h19c0.9,0,1.7,0.8,1.7,1.7S27.5,44.1,26.5,44.1z"/>
	</g>
	<g>
		<path class="st4" d="M11,103.7H5c-0.6,0-1.1-0.5-1.1-1.1c0-0.6,0.5-1.1,1.1-1.1h6c0.6,0,1.1,0.5,1.1,1.1
			C12.1,103.2,11.6,103.7,11,103.7z"/>
		<path class="st4" d="M29,103.7H16.7c-0.6,0-1.1-0.5-1.1-1.1c0-0.6,0.5-1.1,1.1-1.1H29c0.6,0,1.1,0.5,1.1,1.1
			C30.1,103.2,29.6,103.7,29,103.7z"/>
	</g>
	<path class="st3" d="M48.1,46.3h-7.7c-1.3,0-2.4-1.1-2.4-2.4V32.4c0-1.3,1.1-2.4,2.4-2.4h7.7c1.3,0,2.4,1.1,2.4,2.4V44
		C50.4,45.2,49.4,46.3,48.1,46.3z"/>
	<path class="st3" d="M48.1,103.7h-7.7c-1.3,0-2.4-1.1-2.4-2.4v-2.2c0-1.3,1.1-2.4,2.4-2.4h7.7c1.3,0,2.4,1.1,2.4,2.4v2.2
		C50.4,102.6,49.4,103.7,48.1,103.7z"/>
	<path class="st3" d="M48.1,86.9h-7.7c-1.3,0-2.4-1.1-2.4-2.4V53.4c0-1.3,1.1-2.4,2.4-2.4h7.7c1.3,0,2.4,1.1,2.4,2.4v31.2
		C50.4,85.9,49.4,86.9,48.1,86.9z"/>
	<path class="st7" d="M16.2,20.8v0.1C16.2,29.9,9,37.1,0,37.1l0-16.3L16.2,20.8z"/>
	<circle class="st5" cx="17" cy="88.9" r="4.3"/>
</g>
</svg>
