<?xml version="1.0" encoding="utf-8"?>
<!-- Generator: Adobe Illustrator 25.2.3, SVG Export Plug-In . SVG Version: 6.00 Build 0)  -->
<svg version="1.1" id="Capa_1" xmlns="http://www.w3.org/2000/svg" xmlns:xlink="http://www.w3.org/1999/xlink" x="0px" y="0px"
	 width="62.5px" height="150.8px" viewBox="0 0 62.5 150.8" style="enable-background:new 0 0 62.5 150.8;" xml:space="preserve">
<style type="text/css">
	.st0{fill:#DFE1E5;}
	.st1{fill:url(#SVGID_1_);}
	.st2{fill:#CFD2D4;}
	.st3{fill:#E6E9EB;}
	.st4{fill:#ACB8BD;}
	.st5{fill:#A1A3A7;}
	.st6{fill:url(#SVGID_2_);}
	.st7{fill:#9A979C;}
	.st8{fill:url(#SVGID_3_);}
	.st9{fill:#DDDBD6;}
	.st10{fill:url(#SVGID_4_);}
	.st11{fill:#00AEEE;}
	.st12{fill:url(#SVGID_5_);}
	.st13{fill:url(#SVGID_6_);}
	.st14{fill:url(#SVGID_7_);}
	.st15{fill:#006EA9;}
	.st16{fill:url(#SVGID_8_);}
	.st17{fill:#035A98;}
	.st18{clip-path:url(#SVGID_9_);}
	.st19{fill:#9DA2A6;}
	.st20{fill:#007396;}
	.st21{fill:#5F9E93;}
	.st22{fill:#BCC9CF;}
	.st23{fill:#0082B3;}
	.st24{fill:url(#SVGID_10_);}
	.st25{fill:url(#SVGID_11_);}
	.st26{fill:url(#SVGID_12_);}
	.st27{fill:url(#SVGID_13_);}
	.st28{fill:#BDEDFF;}
	.st29{clip-path:url(#SVGID_14_);fill:url(#SVGID_15_);}
	.st30{clip-path:url(#SVGID_16_);fill:url(#SVGID_17_);}
</style>
<g>
	<g>
		<polygon class="st0" points="41.7,0.1 41.4,6.5 14.9,10.4 14.9,2.5 		"/>
		<linearGradient id="SVGID_1_" gradientUnits="userSpaceOnUse" x1="30.0293" y1="13.198" x2="27.2804" y2="0.5007">
			<stop  offset="0" style="stop-color:#D6D0C3"/>
			<stop  offset="1" style="stop-color:#FFFFFF"/>
		</linearGradient>
		<polygon class="st1" points="41.7,0.1 41.4,6.5 14.9,10.4 14.9,2.5 		"/>
		<g>
			<polygon class="st2" points="41.9,6.3 40.8,6.6 41,0.1 42.2,0 			"/>
		</g>
		<g>
			<polygon class="st3" points="14.4,2.2 42.2,0 42.1,0.7 15.4,3 			"/>
		</g>
		<g>
			<polygon class="st4" points="15.4,10.4 14.4,10.4 14.4,2.2 15.4,3 			"/>
		</g>
		<polygon class="st5" points="20.7,16.9 29.7,26.9 0.3,21 		"/>
		<linearGradient id="SVGID_2_" gradientUnits="userSpaceOnUse" x1="-9.1022" y1="34.1922" x2="23.5919" y2="20.2972">
			<stop  offset="0" style="stop-color:#FFFFFF"/>
			<stop  offset="1" style="stop-color:#000000"/>
		</linearGradient>
		<polygon class="st6" points="20.7,16.9 29.7,26.9 0.3,21 		"/>
		<polygon class="st7" points="14.9,10.4 20.7,16.9 0.3,21 		"/>
		<linearGradient id="SVGID_3_" gradientUnits="userSpaceOnUse" x1="0.3071" y1="15.7158" x2="20.7466" y2="15.7158">
			<stop  offset="0" style="stop-color:#D6D0C3"/>
			<stop  offset="1" style="stop-color:#FFFFFF"/>
		</linearGradient>
		<polygon class="st8" points="14.9,10.4 20.7,16.9 0.3,21 		"/>
		<polygon class="st9" points="62.4,20.2 29.7,26.9 20.7,16.9 14.9,10.4 41.4,6.5 		"/>
		<linearGradient id="SVGID_4_" gradientUnits="userSpaceOnUse" x1="14.8974" y1="16.6733" x2="62.394" y2="16.6733">
			<stop  offset="0" style="stop-color:#FFFFFF"/>
			<stop  offset="1" style="stop-color:#000000"/>
		</linearGradient>
		<polygon class="st10" points="62.4,20.2 29.7,26.9 20.7,16.9 14.9,10.4 41.4,6.5 		"/>
		<polygon class="st11" points="62.4,20.2 62.4,137.1 32.5,150.8 29.7,26.9 		"/>
		<linearGradient id="SVGID_5_" gradientUnits="userSpaceOnUse" x1="11.9531" y1="53.6628" x2="59.4243" y2="96.2475">
			<stop  offset="0" style="stop-color:#7ACEFF"/>
			<stop  offset="1" style="stop-color:#000000"/>
		</linearGradient>
		<polygon class="st12" points="62.4,20.2 62.4,137.1 32.5,150.8 29.7,26.9 		"/>
		<linearGradient id="SVGID_6_" gradientUnits="userSpaceOnUse" x1="1.4369" y1="171.488" x2="67.8756" y2="89.7173">
			<stop  offset="0" style="stop-color:#33576B"/>
			<stop  offset="1" style="stop-color:#000000"/>
		</linearGradient>
		<path class="st13" d="M62.4,76.1C51.5,93,41.3,110.3,32,128l0.5,22.8l3.7-1.7c8.2-17.4,16.9-34.5,26.3-51.2V76.1z"/>
		<linearGradient id="SVGID_7_" gradientUnits="userSpaceOnUse" x1="6.1791" y1="120.7747" x2="67.6135" y2="50.6143">
			<stop  offset="0" style="stop-color:#33576B"/>
			<stop  offset="1" style="stop-color:#000000"/>
		</linearGradient>
		<path class="st14" d="M62.4,67.1V28.3C51,43.5,40.5,59.5,30.8,76l1,43.9C41.5,102,51.7,84.4,62.4,67.1z"/>
		<polygon class="st15" points="29.7,26.9 32.5,150.8 4.8,134.1 0.3,21 		"/>
		<linearGradient id="SVGID_8_" gradientUnits="userSpaceOnUse" x1="-15.1404" y1="125.4343" x2="48.3537" y2="45.8148">
			<stop  offset="0" style="stop-color:#804D00"/>
			<stop  offset="1" style="stop-color:#000000"/>
		</linearGradient>
		<polygon class="st16" points="29.7,26.9 32.5,150.8 4.8,134.1 0.3,21 		"/>
		<polygon class="st17" points="4.1,117.8 4.4,124.6 32.2,140.1 32.1,133.2 		"/>
		<g>
			<defs>
				<polygon id="SVGID_29_" points="29.7,26.9 0.3,21 4.8,134.1 32.5,150.8 62.4,137.1 62.4,20.2 				"/>
			</defs>
			<clipPath id="SVGID_9_">
				<use xlink:href="#SVGID_29_"  style="overflow:visible;"/>
			</clipPath>
			<g class="st18">
				<path class="st19" d="M72.1,54.9c0,0.1-0.9-1.4,0.2-1.5c0.7-0.1,1.7,1.9,1.7,2.3C73.8,56.8,72.3,56,72.1,54.9z"/>
				<path class="st19" d="M76.9,58.4c2.6,2.3-0.5,7.3-2.6,3.6c-1-1.8-0.4-4.5-0.1-4.8C75,56.7,76.4,58,76.9,58.4z"/>
				<path class="st19" d="M15.8,69.9c1.5,1.6-1.2,7.2-3.4,6c0,0-0.1,0-0.2-0.1C10.2,74.1,12.9,66.8,15.8,69.9z"/>
				<path class="st19" d="M25.8,60.5c1.4,3,5.5-0.2,4.5-2.3c-0.8-1.6-5.5-0.2-4.6,2C25.7,60.3,25.8,60.5,25.8,60.5z M21.2,78
					c-1.9,5.2,4.9,9,4.8,3.8c0-2.6,0.8-7.9-1.7-9.2C20.3,70.4,21.9,76.2,21.2,78z M21.9,90.7c-1-2.1,0.3-3.6-1.4-5.8
					c-1.5-2-2.3-3.5-2.9-6c-0.2-1.1-1.3-1.1-1.1-2.6c0.3-2.3,1-3.7,2.4-5.4c2.7-3.6-4.7-2.3-5.7-4.4c-1.1-2.3,1.3-3.7,3.1-2.7
					c1,0.6,5.7,2,6.2,0.2c0.5-1.8-0.6-3.7,0.3-5.9c0.9-2.2,2.3-2.7,4.5-3c1.7-0.2,4.5-0.3,4.1-2.7c-0.5-2.7-1.8-3.5-3.3-5.5
					c-1.1-1.5-2-3.8-0.5-5.4c2-2.1,4.8,1.9,5.3,3.5c0.5,1.5,2,6.8,4.6,5c1.7-1.2,1.9-3.8,3.5-5.2c1.3-1.1,3.6-2.6,5.1-1
					c0.9,1.1,2.1,3.2,3.7,1.7c3-2.9,1.8-9.1,6-10.7c2.8-1,3.4,1.7,2.9,3.7c-0.6,2.2-1.8,3.1-2.7,4.9c-1,2,4.8-0.7,10.7,4.2
					c3.5,2.8,3.3,8.9,4,13.1c0.9,5.5,4.4,5.3,9.2,5.5c1.7,0.1,4.8,0.3,5.9,1.8c1.6,2.2-0.1,5-4.1,3.4c-2.1-0.8-5.3-1.5-7.6-0.8
					c-2.8,0.9,2.3,2.7,2.9,2.9c1.7,0.6,3.6,2.9,0.7,3.5c-1,0.2-4.7-2.1-5.4-0.6c-0.5,1.1,6.3,2.9,7.2,3.5c2.5,1.8-0.5,5.7-4.1,3.3
					c-1.6-1-2.5-2.6-4.6-2.4c-4.6,0.5-3.5,8.7-5.7,11.5c-3.3,4.2-8.9,1.1-10.7,3c-2.2,2.3,1.1,7.6-2.9,9.4c-2.2,1-4.1-4.2-7.3-4.4
					c-3-0.2-2.6,5.1-3.3,8.1c-0.4,1.6-1.1,4.5-3.3,4.5c-3,0-4.1-3.7-2.1-5.5c2.2-2,4-4.6,3.1-7.7c-0.5-1.7-0.4-3.4-2.7-1.6
					c-1.7,1.3-3.2,1.1-4.6-0.4c-2.1-2.2-1.3-4.3-5-4C23.9,94.1,22.9,92.7,21.9,90.7z M62,55.5c0.6,1.2,2.6,6.3,4,5.8
					c-0.1-4.9-0.6-9.3-5.2-12c-1.3-0.7-3.8-1.1-2.9,1.1c0.8,2.3,3,3.1,4,5C62,55.4,62,55.5,62,55.5z"/>
			</g>
		</g>
		<g>
			<path class="st20" d="M35.4,78.4l-0.1-8.7c0-1,0-2,0-3l0.7-0.5c0.5-0.1,1,1,1.6,3.3c0.5,1.8,0.8,3.5,1.1,4.9
				c0.3,1.4,0.4,2.2,0.4,2.3c0.1-0.5,0.3-1.4,0.6-2.7c0.3-1.3,0.5-2.3,0.7-3c0.4-2.1,0.7-4,0.9-5.7l0-0.1c0-0.2,0.1-0.4,0.3-0.5
				c0.2-0.2,0.3-0.3,0.5-0.3c0.2,0,0.3,0,0.4,0.1c0.1,0.1,0.2,0.2,0.2,0.4c0,1.8,0,4.6,0,8.1c0.1,3.5,0.1,6,0,7.7
				c0,0.3-0.1,0.7-0.3,0.9c-0.2,0.3-0.4,0.5-0.5,0.5c-0.4,0.1-0.5-0.1-0.5-0.7l0.1-9.1l0-1.1c-0.1,0.6-0.4,1.7-0.7,3.2
				c-0.4,1.5-0.6,2.6-0.7,3.4l0,0.1c0,0.1,0,0.2-0.1,0.4c0,0.2-0.1,0.4-0.1,0.5c0,0.1-0.1,0.3-0.2,0.5c-0.1,0.4-0.4,0.6-0.7,0.7
				c-0.5,0.1-0.8-0.5-0.8-1.8c0-1.3-0.3-3.1-1-5.5c-0.3-1.2-0.6-2-0.7-2.4c0,1.2-0.1,2.1-0.1,2.7l0.2,8.9c0,0.3-0.1,0.6-0.3,0.9
				c-0.4,0.1-0.6,0.1-0.8-0.1c-0.1-0.2-0.2-0.5-0.2-0.9L35.4,78.4z"/>
			<path class="st20" d="M47.1,64.9L46.7,65c-0.1,0-0.3,0.1-0.3,0.2c-0.1,0.1-0.1,0.2-0.1,0.4c0,1.5,0,3.7,0.1,6.5
				c0.1,2.8,0.1,4.9,0,6.2l0,0.8c0.1-0.1,0.3-0.1,0.4-0.1c0.6-0.2,0.9,0,0.9,0.5l0,0.1L47,80.1l-1.5,0.4c-1.2,0.3-1.9,0.3-1.8-0.1
				c0-0.3,0.2-0.6,0.7-0.7l0.5-0.1c0.2-0.1,0.3-0.2,0.3-0.6c0-1.1,0-2.7,0-4.9c-0.1-2.2-0.1-3.9,0-5.1l0.1-2.3c0-0.5,0-0.9,0-1.3
				c-0.2,0.1-0.4,0.2-0.5,0.2c-0.4,0.1-0.5-0.1-0.5-0.4c0-0.2,0.1-0.4,0.4-0.6c0.2-0.2,0.5-0.4,0.9-0.5c0.6-0.3,1.1-0.4,1.4-0.5
				c0.3-0.1,0.5-0.1,0.6,0c0.1,0.1,0.2,0.2,0.2,0.4c0,0.2-0.1,0.3-0.2,0.5C47.3,64.8,47.2,64.9,47.1,64.9z"/>
			<path class="st20" d="M50.2,71.4l0,0.7l0,0.1c0,1.2-0.1,3.1-0.2,5.6l0,0.5l1.6-0.4c0.3,0.1,0.4,0.3,0.4,0.5
				c0,0.2-0.1,0.3-0.2,0.5c-0.1,0.1-0.2,0.2-0.3,0.3c-0.1,0-0.2,0-0.4,0c-0.1,0.1-0.3,0.1-0.4,0.1l-0.7,0.1
				c-0.2,0.2-0.3,0.3-0.6,0.4c-0.2,0.1-0.4,0-0.5-0.1c-0.1-0.1-0.2-0.2-0.2-0.4l0.2-1c0.1-1.6,0.1-4,0.1-7.3c0-3.3,0-5.9,0.1-7.6
				c0-0.1,0.1-0.3,0.2-0.4c0.1-0.1,0.2-0.2,0.4-0.2c0.2,0,0.3,0,0.4,0.1c0.1,0.1,0.2,0.2,0.2,0.4L50.2,71.4z"/>
			<path class="st20" d="M53.7,71.7l0.3-4.2c0-0.7,0-1.6,0-2.5c0-1-0.1-1.6,0-1.9c0-0.3,0.1-0.5,0.2-0.7c0.1-0.2,0.3-0.3,0.5-0.3
				c0.5-0.1,0.8,0.4,0.7,1.7c0,0-0.1,1.6-0.4,4.6c0.1-0.1,0.2-0.5,0.5-1.2c0.3-0.7,0.5-1.3,0.8-2c0.3-0.7,0.6-1.4,0.9-2.1
				c0.7-1.6,1.2-2.5,1.5-2.5c0.2,0,0.3,0,0.4,0.1c0.1,0.1,0.2,0.2,0.2,0.4c0,0.2-0.5,1.2-1.4,3.1c-0.9,1.9-1.4,3.1-1.5,3.5l0,0.4
				c0.2,0.5,0.6,2.1,1.3,4.8c0.7,2.6,1,4,1,4.2c0,0.2-0.1,0.3-0.2,0.5c-0.1,0.1-0.3,0.2-0.5,0.3l-0.5,0c-0.2-1.9-0.4-3.5-0.7-4.9
				c-0.3-1.4-0.7-2.7-1.2-4c-0.5,0.9-0.7,1.4-0.7,1.6c-0.1,0.4-0.1,0.8-0.1,1l-0.1,3.9l-0.1,1.7c0,0.7-0.3,1.2-0.8,1.3
				c-0.4,0.1-0.6-0.2-0.5-0.9c0-0.7,0.1-1.7,0.3-3C53.5,73.4,53.6,72.4,53.7,71.7z"/>
		</g>
		<polygon class="st21" points="32.1,133.2 62.4,121.2 62.4,128 32.2,140.1 		"/>
	</g>
	<g>
		<rect x="-1.4" y="15.2" transform="matrix(0.8096 -0.587 0.587 0.8096 -7.778 7.456)" class="st4" width="18" height="1"/>
	</g>
	<g>
		<rect x="21.8" y="7.6" transform="matrix(0.7424 -0.67 0.67 0.7424 -6.7484 19.7603)" class="st22" width="1" height="22.2"/>
	</g>
	<g>
		<polygon class="st3" points="62.3,20.7 40.8,6.6 41.9,6.3 62.3,19.6 		"/>
	</g>
	<g>
		<polygon class="st23" points="29.6,27.4 0.3,21.5 0.3,20.5 29.8,26.4 		"/>
	</g>
	<g>
		<path class="st15" d="M46.6,11.7c0.5,1.4,0.5,3-0.1,4.7c-1,2.4-4.9,4-9.5,3.5c-5-0.5-8.9-3.3-8.6-6.2h0c0-1.8,0.6-3.4,1.7-4.7
			c-0.4,0.5-0.7,1.1-0.7,1.7c-0.3,2.7,3.4,5.4,8.1,5.8c4.8,0.5,8.8-1.3,9.1-4.1C46.6,12.2,46.6,12,46.6,11.7z"/>
		<linearGradient id="SVGID_10_" gradientUnits="userSpaceOnUse" x1="32.237" y1="21.288" x2="37.8002" y2="13.4996">
			<stop  offset="0" style="stop-color:#008069"/>
			<stop  offset="1" style="stop-color:#000000"/>
		</linearGradient>
		<path class="st24" d="M46.6,11.7c0.5,1.4,0.5,3-0.1,4.7c-1,2.4-4.9,4-9.5,3.5c-5-0.5-8.9-3.3-8.6-6.2h0c0-1.8,0.6-3.4,1.7-4.7
			c-0.4,0.5-0.7,1.1-0.7,1.7c-0.3,2.7,3.4,5.4,8.1,5.8c4.8,0.5,8.8-1.3,9.1-4.1C46.6,12.2,46.6,12,46.6,11.7z"/>
		<linearGradient id="SVGID_11_" gradientUnits="userSpaceOnUse" x1="49.6334" y1="8.0432" x2="39.7178" y2="20.2471">
			<stop  offset="0" style="stop-color:#7ACEFF"/>
			<stop  offset="1" style="stop-color:#000000"/>
		</linearGradient>
		<path class="st25" d="M38.9,17.2c0,0.7-0.1,1.8-0.1,2.5c2.5,0,4.7-0.6,6.1-1.7c0.1-0.8,0.2-1.8,0.3-2.6
			C44.2,16.6,41.1,17.6,38.9,17.2z"/>
		<path class="st11" d="M46.6,11.7c0,0.3,0.1,0.5,0,0.8c-0.3,2.7-4.4,4.6-9.1,4.1c-4.7-0.5-8.4-3.1-8.1-5.8c0.1-0.6,0.3-1.2,0.7-1.7
			c0.1-0.1,0.1-0.1,0.2-0.2c0.1-0.1,0.2-0.3,0.4-0.4c0,0,0,0,0.1,0c1.6-1.4,4.6-2.1,7.8-1.8c3.4,0.3,6.2,1.8,7.4,3.5v0
			c0.3,0.4,0.4,0.9,0.6,1.3C46.5,11.6,46.6,11.6,46.6,11.7z"/>
		<linearGradient id="SVGID_12_" gradientUnits="userSpaceOnUse" x1="32.4673" y1="18.0705" x2="40.8445" y2="8.2974">
			<stop  offset="0" style="stop-color:#7ACEFF"/>
			<stop  offset="1" style="stop-color:#000000"/>
		</linearGradient>
		<path class="st26" d="M46.6,11.7c0,0.3,0.1,0.5,0,0.8c-0.3,2.7-4.4,4.6-9.1,4.1c-4.7-0.5-8.4-3.1-8.1-5.8c0.1-0.6,0.3-1.2,0.7-1.7
			c0.1-0.1,0.1-0.1,0.2-0.2c0.1-0.1,0.2-0.3,0.4-0.4c0,0,0,0,0.1,0c1.6-1.4,4.6-2.1,7.8-1.8c3.4,0.3,6.2,1.8,7.4,3.5v0
			c0.3,0.4,0.4,0.9,0.6,1.3C46.5,11.6,46.6,11.6,46.6,11.7z"/>
		<linearGradient id="SVGID_13_" gradientUnits="userSpaceOnUse" x1="33.6873" y1="19.106" x2="42.0587" y2="9.3397">
			<stop  offset="0" style="stop-color:#7ACEFF"/>
			<stop  offset="1" style="stop-color:#000000"/>
		</linearGradient>
		<path class="st27" d="M46.5,11.5c-0.2-0.5-0.4-0.9-0.6-1.3v0C45.1,9,43.6,8,41.7,7.4c-3.6,2.2-7.1,4.5-10.6,6.8
			c1.5,1.2,3.7,2.1,6.3,2.4c1.2,0.1,2.3,0.1,3.3,0c1.9-1.5,3.8-3.1,5.8-4.6c0-0.1,0-0.1,0-0.2C46.6,11.6,46.5,11.6,46.5,11.5z"/>
	</g>
	<g>
		<rect x="29.4" y="23" transform="matrix(0.9795 -0.2015 0.2015 0.9795 -3.7929 9.7626)" class="st28" width="33.3" height="1"/>
	</g>
	<g>
		<defs>
			<polygon id="SVGID_35_" points="62.4,20.2 62.4,137.1 32.5,150.8 29.7,26.9 			"/>
		</defs>
		<clipPath id="SVGID_14_">
			<use xlink:href="#SVGID_35_"  style="overflow:visible;"/>
		</clipPath>
		
			<radialGradient id="SVGID_15_" cx="25.178" cy="-116.3635" r="23.0924" gradientTransform="matrix(0.5741 -6.300000e-03 5.630000e-02 5.1682 20.3617 686.4954)" gradientUnits="userSpaceOnUse">
			<stop  offset="0.1314" style="stop-color:#FFFFFF"/>
			<stop  offset="0.2737" style="stop-color:#C2C2C2"/>
			<stop  offset="0.4088" style="stop-color:#8D8D8D"/>
			<stop  offset="0.5876" style="stop-color:#4C4C4C"/>
			<stop  offset="0.708" style="stop-color:#2B2B2B"/>
			<stop  offset="0.8431" style="stop-color:#0D0D0D"/>
			<stop  offset="1" style="stop-color:#000000"/>
		</radialGradient>
		<path class="st29" d="M41.5,84.8c0.7,65.9-4.6,119.4-12,119.5C22.2,204.4,15.7,151,15,85.1C14.3,19.2,19.6-34.3,27-34.4
			C34.3-34.5,40.8,18.9,41.5,84.8z"/>
	</g>
	<g>
		<defs>
			<polygon id="SVGID_38_" points="29.7,26.9 32.5,150.8 4.8,134.1 0.3,21 			"/>
		</defs>
		<clipPath id="SVGID_16_">
			<use xlink:href="#SVGID_38_"  style="overflow:visible;"/>
		</clipPath>
		
			<radialGradient id="SVGID_17_" cx="-69.1639" cy="-118.141" r="23.092" gradientTransform="matrix(0.8957 -9.800000e-03 4.610000e-02 4.2317 67.1491 572.8358)" gradientUnits="userSpaceOnUse">
			<stop  offset="0" style="stop-color:#C2C2C2"/>
			<stop  offset="0.1642" style="stop-color:#8D8D8D"/>
			<stop  offset="0.4088" style="stop-color:#4C4C4C"/>
			<stop  offset="0.6204" style="stop-color:#2B2B2B"/>
			<stop  offset="0.8431" style="stop-color:#0D0D0D"/>
			<stop  offset="1" style="stop-color:#000000"/>
		</radialGradient>
		<path class="st30" d="M20.4,73.3c0.6,54-8.2,97.8-19.6,97.9c-11.4,0.1-21.2-43.5-21.7-97.5c-0.6-54,8.2-97.8,19.6-97.9
			C10.1-24.3,19.9,19.4,20.4,73.3z"/>
	</g>
</g>
</svg>
