<?xml version="1.0" encoding="utf-8"?>
<!-- Generator: Adobe Illustrator 25.2.3, SVG Export Plug-In . SVG Version: 6.00 Build 0)  -->
<svg version="1.1" id="Capa_1" xmlns="http://www.w3.org/2000/svg" xmlns:xlink="http://www.w3.org/1999/xlink" x="0px" y="0px"
	 width="48.9px" height="145.4px" viewBox="0 0 48.9 145.4" style="enable-background:new 0 0 48.9 145.4;" xml:space="preserve">
<style type="text/css">
	.st0{fill:url(#SVGID_1_);}
	.st1{fill:url(#SVGID_2_);}
	.st2{fill:url(#SVGID_3_);}
	.st3{fill:#B6B8B5;}
	.st4{fill:url(#SVGID_4_);}
	.st5{fill:url(#SVGID_5_);}
	.st6{fill:url(#SVGID_6_);}
	.st7{fill:#949593;}
	.st8{fill:url(#SVGID_7_);}
	.st9{fill:#EBEBEB;}
	.st10{fill:url(#SVGID_8_);}
	.st11{fill:url(#SVGID_9_);}
	.st12{fill:#FFFFF2;}
	.st13{fill:#ECEFD5;}
	.st14{fill:url(#SVGID_10_);}
	.st15{fill:url(#SVGID_11_);}
	.st16{fill:url(#SVGID_12_);}
	.st17{fill:url(#SVGID_13_);}
	.st18{clip-path:url(#SVGID_14_);fill:url(#SVGID_15_);}
	.st19{clip-path:url(#SVGID_14_);fill:url(#SVGID_16_);}
	.st20{clip-path:url(#SVGID_14_);fill:url(#SVGID_17_);}
	.st21{clip-path:url(#SVGID_14_);fill:url(#SVGID_18_);}
	.st22{clip-path:url(#SVGID_19_);fill:url(#SVGID_20_);}
	.st23{fill:#019FDD;}
	.st24{clip-path:url(#SVGID_21_);fill:url(#SVGID_22_);}
	.st25{clip-path:url(#SVGID_21_);fill:url(#SVGID_23_);}
	.st26{clip-path:url(#SVGID_21_);}
	.st27{fill:#9DA2A6;}
	.st28{fill:#007396;}
</style>
<g>
	<g>
		<g>
			<linearGradient id="SVGID_1_" gradientUnits="userSpaceOnUse" x1="31.5219" y1="-13.82" x2="17.4186" y2="17.3197">
				<stop  offset="3.980100e-02" style="stop-color:#A86A18"/>
				<stop  offset="0.1592" style="stop-color:#F1CF65"/>
				<stop  offset="0.2637" style="stop-color:#F3C954"/>
				<stop  offset="0.4229" style="stop-color:#DBB054"/>
				<stop  offset="0.6716" style="stop-color:#F5F7BB"/>
				<stop  offset="0.7711" style="stop-color:#F1C148"/>
				<stop  offset="0.8756" style="stop-color:#F5CE5B"/>
				<stop  offset="1" style="stop-color:#A86A18"/>
			</linearGradient>
			<path class="st0" d="M38.1,2.2c0,0,0,0.1,0,0.1c0,1.3-6.2,2.3-13.8,2.3c-7.6,0-13.9-1-13.9-2.3c0-0.2,0.2-0.5,0.6-0.7
				C12.8,0.7,18,0,24.2,0C31.6,0,37.7,1,38.1,2.2z"/>
			<linearGradient id="SVGID_2_" gradientUnits="userSpaceOnUse" x1="22.1673" y1="7.8975" x2="24.6866" y2="1.0396">
				<stop  offset="0" style="stop-color:#FFFFFF"/>
				<stop  offset="1" style="stop-color:#000000"/>
			</linearGradient>
			<path class="st1" d="M38.1,2.2c0,0,0,0.1,0,0.1c0,1.3-6.2,2.3-13.8,2.3c-7.6,0-13.9-1-13.9-2.3c0-0.2,0.2-0.5,0.6-0.7
				C12.8,0.7,18,0,24.2,0C31.6,0,37.7,1,38.1,2.2z"/>
			<linearGradient id="SVGID_3_" gradientUnits="userSpaceOnUse" x1="9.395" y1="6.2927" x2="38.9408" y2="6.2927">
				<stop  offset="3.980100e-02" style="stop-color:#A86A18"/>
				<stop  offset="0.1592" style="stop-color:#F1CF65"/>
				<stop  offset="0.2637" style="stop-color:#F3C954"/>
				<stop  offset="0.4229" style="stop-color:#DBB054"/>
				<stop  offset="0.6716" style="stop-color:#F5F7BB"/>
				<stop  offset="0.7711" style="stop-color:#F1C148"/>
				<stop  offset="0.8756" style="stop-color:#F5CE5B"/>
				<stop  offset="1" style="stop-color:#A86A18"/>
			</linearGradient>
			<path class="st2" d="M37.5,9c-0.1,0-0.1,0.1-0.2,0.1c-1.9,1.1-7,1.9-13.1,1.9C18,11,12.8,10.2,11,9c-2.2-0.8-2.1-6.7,0-7.4
				c-0.4,0.2-0.6,0.4-0.6,0.7c0,1.3,6.2,2.3,13.9,2.3c7.6,0,13.8-1,13.8-2.3c0,0,0-0.1,0-0.1C39.4,3.8,39.2,8.1,37.5,9z"/>
			<path class="st3" d="M37.5,9c1.6,0.7,1.6,3.8,0,4.7h0c-0.4,0.3-1,0.6-1.8,0.8c-2.5,0.8-6.7,1.4-11.4,1.4c-4.8,0-8.9-0.5-11.4-1.4
				C12,14.3,11.4,14,11,13.8c-1.6-0.9-1.6-4,0-4.7c1.7,1.1,7,2,13.2,2c6.1,0,11.2-0.8,13.1-1.9C37.4,9.1,37.4,9.1,37.5,9z"/>
			<linearGradient id="SVGID_4_" gradientUnits="userSpaceOnUse" x1="24.248" y1="9.0767" x2="24.248" y2="14.8305">
				<stop  offset="0" style="stop-color:#D6D0C3"/>
				<stop  offset="1" style="stop-color:#FFFFFF"/>
			</linearGradient>
			<path class="st4" d="M37.5,9c1.6,0.7,1.6,3.8,0,4.7h0c-0.4,0.3-1,0.6-1.8,0.8c-2.5,0.8-6.7,1.4-11.4,1.4c-4.8,0-8.9-0.5-11.4-1.4
				C12,14.3,11.4,14,11,13.8c-1.6-0.9-1.6-4,0-4.7c1.7,1.1,7,2,13.2,2c6.1,0,11.2-0.8,13.1-1.9C37.4,9.1,37.4,9.1,37.5,9z"/>
			<linearGradient id="SVGID_5_" gradientUnits="userSpaceOnUse" x1="24.248" y1="22.513" x2="24.248" y2="11.6779">
				<stop  offset="0" style="stop-color:#FFFFFF"/>
				<stop  offset="1" style="stop-color:#000000"/>
			</linearGradient>
			<path class="st5" d="M37.5,9c1.6,0.7,1.6,3.8,0,4.7h0c-0.4,0.3-1,0.6-1.8,0.8c-2.5,0.8-6.7,1.4-11.4,1.4c-4.8,0-8.9-0.5-11.4-1.4
				C12,14.3,11.4,14,11,13.8c-1.6-0.9-1.6-4,0-4.7c1.7,1.1,7,2,13.2,2c6.1,0,11.2-0.8,13.1-1.9C37.4,9.1,37.4,9.1,37.5,9z"/>
			<linearGradient id="SVGID_6_" gradientUnits="userSpaceOnUse" x1="14.4473" y1="6.3211" x2="19.2979" y2="16.1161">
				<stop  offset="0" style="stop-color:#FFFFFF"/>
				<stop  offset="1" style="stop-color:#000000"/>
			</linearGradient>
			<path class="st6" d="M21.8,11.4c-3.5,0-6.6-0.4-8.4-1c-0.3,1.2-0.3,2.4,0,3.7c0.1,0,0.2,0.1,0.3,0.1c1.8,0.6,4.7,1,8,1
				C21.6,14,21.6,12.7,21.8,11.4z"/>
			<path class="st7" d="M47.6,51.5c2.8,8.4,0,68,0,78.4c0,10.4-4.3,11.7-9.2,13.4c-3.5,1.3-8.6,2.1-14.2,2.1c-5.4,0-10.3-0.8-13.8-2
				v0c-5.1-2.2-9.2-3.1-9.2-13.5c0-10.4-2.8-70,0-78.4C4,43.3,11,27.7,11,13.8c0.4,0.3,1,0.6,1.8,0.8l0,0.1c0,12.9-6,27.1-9,35.7
				c-0.3,0.4-0.4,0.7-0.4,1.1c0,0,0,0,0,0c-0.1,0.3-0.2,0.6-0.3,0.9c-2.8,8.4,0,68,0,78.4c0,2.9,1,5.1,2.6,6.8
				c4.2,4.3,12.7,5.1,18.6,5.1c5.9,0,14.4-0.7,18.6-5.1c1.6-1.7,2.6-3.9,2.6-6.8c0-10.4,2.8-70,0-78.4c-0.1-0.3-0.2-0.6-0.3-0.9
				c0,0,0,0,0,0c0-0.4-0.1-0.7-0.4-1.1c-3.1-8.6-9-22.8-9-35.7l0-0.1c0.8-0.2,1.4-0.5,1.8-0.8h0h0.4C37.9,27.7,44.9,43.3,47.6,51.5z
				"/>
			<linearGradient id="SVGID_7_" gradientUnits="userSpaceOnUse" x1="24.4368" y1="-5.4312" x2="24.4368" y2="146.0955">
				<stop  offset="0" style="stop-color:#A0BAAC"/>
				<stop  offset="1" style="stop-color:#000000"/>
			</linearGradient>
			<path class="st8" d="M47.6,51.5c2.8,8.4,0,68,0,78.4c0,10.4-4.3,11.7-9.2,13.4c-3.5,1.3-8.6,2.1-14.2,2.1c-5.4,0-10.3-0.8-13.8-2
				v0c-5.1-2.2-9.2-3.1-9.2-13.5c0-10.4-2.8-70,0-78.4C4,43.3,11,27.7,11,13.8c0.4,0.3,1,0.6,1.8,0.8l0,0.1c0,12.9-6,27.1-9,35.7
				c-0.3,0.4-0.4,0.7-0.4,1.1c0,0,0,0,0,0c-0.1,0.3-0.2,0.6-0.3,0.9c-2.8,8.4,0,68,0,78.4c0,2.9,1,5.1,2.6,6.8
				c4.2,4.3,12.7,5.1,18.6,5.1c5.9,0,14.4-0.7,18.6-5.1c1.6-1.7,2.6-3.9,2.6-6.8c0-10.4,2.8-70,0-78.4c-0.1-0.3-0.2-0.6-0.3-0.9
				c0,0,0,0,0,0c0-0.4-0.1-0.7-0.4-1.1c-3.1-8.6-9-22.8-9-35.7l0-0.1c0.8-0.2,1.4-0.5,1.8-0.8h0h0.4C37.9,27.7,44.9,43.3,47.6,51.5z
				"/>
			<path class="st9" d="M35.7,14.7c0,12.9,6,27.1,9,35.7c-1.9-2.7-10.3-4.7-20.5-4.7s-18.7,2-20.5,4.7c3.1-8.6,9-22.8,9-35.7l0-0.1
				c2.5,0.8,6.7,1.4,11.4,1.4c4.7,0,8.9-0.5,11.4-1.4L35.7,14.7z"/>
			<linearGradient id="SVGID_8_" gradientUnits="userSpaceOnUse" x1="23.0261" y1="9.8279" x2="23.7718" y2="34.8317">
				<stop  offset="0" style="stop-color:#D6D0C3"/>
				<stop  offset="1" style="stop-color:#FFFFFF"/>
			</linearGradient>
			<path class="st10" d="M35.7,14.7c0,12.9,6,27.1,9,35.7c-1.9-2.7-10.3-4.7-20.5-4.7s-18.7,2-20.5,4.7c3.1-8.6,9-22.8,9-35.7l0-0.1
				c2.5,0.8,6.7,1.4,11.4,1.4c4.7,0,8.9-0.5,11.4-1.4L35.7,14.7z"/>
			<linearGradient id="SVGID_9_" gradientUnits="userSpaceOnUse" x1="11.2119" y1="6.7215" x2="37.6628" y2="21.2765">
				<stop  offset="0" style="stop-color:#D6D0C3"/>
				<stop  offset="1" style="stop-color:#FFFFFF"/>
			</linearGradient>
			<path class="st11" d="M37.5,13.8L37.5,13.8c-0.4,0.3-1,0.6-1.8,0.8c-2.5,0.8-6.7,1.4-11.4,1.4c-4.8,0-8.9-0.5-11.4-1.4
				C12,14.3,11.4,14,11,13.8c0,0.2,0,0.3,0,0.5c8.5,3.8,17.9,5.1,27.1,4.1c-0.2-1.5-0.2-3.1-0.2-4.6H37.5z"/>
			<path class="st12" d="M45.1,51.5C45.1,51.5,45.1,51.5,45.1,51.5c0,3.2-9.4,5.8-20.9,5.8c-11.5,0-20.9-2.6-20.9-5.8c0,0,0,0,0,0
				c0.1-0.4,0.2-0.7,0.4-1.1c1.9-2.7,10.3-4.7,20.5-4.7s18.7,2,20.5,4.7C44.9,50.8,45,51.1,45.1,51.5z"/>
			<path class="st13" d="M45.5,52.4c-0.1-0.3-0.2-0.6-0.3-0.9c0,3.2-9.4,5.8-20.9,5.8c-11.5,0-20.9-2.6-20.9-5.8
				c-0.1,0.3-0.2,0.6-0.3,0.9c-2.8,8.4,0,68,0,78.4c0,2.9,1,5.1,2.6,6.8c4.2,4.3,12.7,5.1,18.6,5.1c5.9,0,14.4-0.7,18.6-5.1
				c1.6-1.7,2.6-3.9,2.6-6.8C45.5,120.4,48.3,60.9,45.5,52.4z"/>
			<linearGradient id="SVGID_10_" gradientUnits="userSpaceOnUse" x1="-31.1343" y1="102.4355" x2="42.3858" y2="94.0386">
				<stop  offset="0" style="stop-color:#E0D6C1"/>
				<stop  offset="1" style="stop-color:#FFFFFF"/>
			</linearGradient>
			<path class="st14" d="M45.5,52.4c-0.1-0.3-0.2-0.6-0.3-0.9c0,3.2-9.4,5.8-20.9,5.8c-11.5,0-20.9-2.6-20.9-5.8
				c-0.1,0.3-0.2,0.6-0.3,0.9c-2.8,8.4,0,68,0,78.4c0,2.9,1,5.1,2.6,6.8c4.2,4.3,12.7,5.1,18.6,5.1c5.9,0,14.4-0.7,18.6-5.1
				c1.6-1.7,2.6-3.9,2.6-6.8C45.5,120.4,48.3,60.9,45.5,52.4z"/>
			<linearGradient id="SVGID_11_" gradientUnits="userSpaceOnUse" x1="6.1612" y1="33.844" x2="13.9984" y2="115.015">
				<stop  offset="0" style="stop-color:#FFFFFF"/>
				<stop  offset="1" style="stop-color:#000000"/>
			</linearGradient>
			<path class="st15" d="M18.6,61c-6.5-0.8-9.6-1.4-14.5-3c-1.2,24.5,0.9,49.7,1.6,72.8c4.2,2.7,8.5,4.1,12.9,4.7
				C18.6,111.6,17.2,85.2,18.6,61z"/>
			<linearGradient id="SVGID_12_" gradientUnits="userSpaceOnUse" x1="16.511" y1="18.1811" x2="15.6973" y2="51.0495">
				<stop  offset="0" style="stop-color:#FFFFFF"/>
				<stop  offset="1" style="stop-color:#000000"/>
			</linearGradient>
			<path class="st16" d="M7.8,46.7c4,1.3,8.1,2.1,12.2,2.5c1.3-9.2,2.7-18.1,4.4-27.1c-3.2-0.1-6.4-0.4-9.6-1
				C12.9,31.8,10.4,38.7,7.8,46.7z"/>
		</g>
		<linearGradient id="SVGID_13_" gradientUnits="userSpaceOnUse" x1="25.1221" y1="38.808" x2="24.0025" y2="54.856">
			<stop  offset="0" style="stop-color:#E0D6C1"/>
			<stop  offset="1" style="stop-color:#FFFFFF"/>
		</linearGradient>
		<path class="st17" d="M45.1,51.5C45.1,51.5,45.1,51.5,45.1,51.5c0,3.2-9.4,5.8-20.9,5.8c-11.5,0-20.9-2.6-20.9-5.8c0,0,0,0,0,0
			c0.1-0.4,0.2-0.7,0.4-1.1c1.9-2.7,10.3-4.7,20.5-4.7s18.7,2,20.5,4.7C44.9,50.8,45,51.1,45.1,51.5z"/>
		<g>
			<defs>
				<path id="SVGID_40_" d="M47.6,51.5c-2.7-8.2-9.8-23.8-9.8-37.7h-0.4h0c-0.4,0.3-1,0.6-1.8,0.8c-2.5,0.8-6.7,1.4-11.4,1.4
					c-4.8,0-8.9-0.5-11.4-1.4C12,14.3,11.4,14,11,13.8c0,13.9-7,29.5-9.8,37.7c-2.8,8.4,0,68,0,78.4c0,10.4,4,11.3,9.2,13.5v0
					c3.5,1.2,8.4,2,13.8,2c5.6,0,10.7-0.8,14.2-2.1c5-1.8,9.2-3,9.2-13.4C47.6,119.5,50.4,59.9,47.6,51.5z M45.1,51.5
					c-0.1-0.4-0.3-0.7-0.4-1.1C45,50.7,45.1,51.1,45.1,51.5z M3.7,50.4c-0.1,0.4-0.3,0.7-0.4,1.1C3.3,51.1,3.5,50.7,3.7,50.4z"/>
			</defs>
			<clipPath id="SVGID_14_">
				<use xlink:href="#SVGID_40_"  style="overflow:visible;"/>
			</clipPath>
			
				<radialGradient id="SVGID_15_" cx="51.2454" cy="-63.5784" r="24.6893" gradientTransform="matrix(0.5741 -6.300000e-03 2.590000e-02 2.3773 11.7997 247.4216)" gradientUnits="userSpaceOnUse">
				<stop  offset="0.1314" style="stop-color:#FFFFFF"/>
				<stop  offset="0.2737" style="stop-color:#C2C2C2"/>
				<stop  offset="0.4088" style="stop-color:#8D8D8D"/>
				<stop  offset="0.5876" style="stop-color:#4C4C4C"/>
				<stop  offset="0.708" style="stop-color:#2B2B2B"/>
				<stop  offset="0.8431" style="stop-color:#0D0D0D"/>
				<stop  offset="1" style="stop-color:#000000"/>
			</radialGradient>
			<path class="st18" d="M53.7,95.8c0.3,32.4-5.7,58.8-13.5,58.8c-7.8,0.1-14.5-26.1-14.8-58.5C25,63.7,31.1,37.3,38.9,37.3
				C46.8,37.2,53.4,63.4,53.7,95.8z"/>
			
				<radialGradient id="SVGID_16_" cx="1.5133" cy="-58.4723" r="19.3535" gradientTransform="matrix(0.5741 -6.300000e-03 2.590000e-02 2.3773 11.7997 247.4216)" gradientUnits="userSpaceOnUse">
				<stop  offset="0.1314" style="stop-color:#FFFFFF"/>
				<stop  offset="0.2737" style="stop-color:#C2C2C2"/>
				<stop  offset="0.4088" style="stop-color:#8D8D8D"/>
				<stop  offset="0.5876" style="stop-color:#4C4C4C"/>
				<stop  offset="0.708" style="stop-color:#2B2B2B"/>
				<stop  offset="0.8431" style="stop-color:#0D0D0D"/>
				<stop  offset="1" style="stop-color:#000000"/>
			</radialGradient>
			<path class="st19" d="M22.3,108.3c0.3,25.4-4.5,46.1-10.6,46.1C5.5,154.5,0.3,133.9,0,108.5c-0.3-25.4,4.5-46.1,10.6-46.1
				C16.8,62.3,22,82.9,22.3,108.3z"/>
			
				<radialGradient id="SVGID_17_" cx="533.9335" cy="-99.5591" r="7.1689" gradientTransform="matrix(-4.000000e-04 0.3329 -2.7271 -4.000000e-03 -247.0559 -34.0256)" gradientUnits="userSpaceOnUse">
				<stop  offset="0" style="stop-color:#FFFFFF"/>
				<stop  offset="0.1277" style="stop-color:#C2C2C2"/>
				<stop  offset="0.2737" style="stop-color:#8D8D8D"/>
				<stop  offset="0.4416" style="stop-color:#4C4C4C"/>
				<stop  offset="0.5401" style="stop-color:#2B2B2B"/>
				<stop  offset="0.6277" style="stop-color:#191919"/>
				<stop  offset="0.7336" style="stop-color:#0D0D0D"/>
				<stop  offset="0.8796" style="stop-color:#040404"/>
				<stop  offset="1" style="stop-color:#000000"/>
			</radialGradient>
			<path class="st20" d="M24.2,146.5c-10.8,0-19.5-1.1-19.5-2.4c0-1.3,8.8-2.4,19.5-2.4c10.8,0,19.5,1.1,19.5,2.4
				C43.8,145.5,35,146.5,24.2,146.5z"/>
			
				<radialGradient id="SVGID_18_" cx="27.3254" cy="-91.6486" r="9.7412" gradientTransform="matrix(0.8147 -0.1744 0.4976 2.3247 58.2792 253.2283)" gradientUnits="userSpaceOnUse">
				<stop  offset="0.1314" style="stop-color:#FFFFFF"/>
				<stop  offset="0.2737" style="stop-color:#C2C2C2"/>
				<stop  offset="0.4088" style="stop-color:#8D8D8D"/>
				<stop  offset="0.5876" style="stop-color:#4C4C4C"/>
				<stop  offset="0.708" style="stop-color:#2B2B2B"/>
				<stop  offset="0.8431" style="stop-color:#0D0D0D"/>
				<stop  offset="1" style="stop-color:#000000"/>
			</radialGradient>
			<path class="st21" d="M42.9,33.7c2.7,12.5,1.3,23.4-3.1,24.3C35.4,59,29.7,49.6,27,37.1c-2.7-12.5-1.3-23.4,3.1-24.3
				C34.5,11.8,40.2,21.2,42.9,33.7z"/>
		</g>
		<g>
			<defs>
				<path id="SVGID_46_" d="M37.5,9c1.6,0.7,1.6,3.8,0,4.7h0c-0.4,0.3-1,0.6-1.8,0.8c-2.5,0.8-6.7,1.4-11.4,1.4
					c-4.8,0-8.9-0.5-11.4-1.4C12,14.3,11.4,14,11,13.8c-1.6-0.9-1.6-4,0-4.7c1.7,1.1,7,2,13.2,2c6.1,0,11.2-0.8,13.1-1.9
					C37.4,9.1,37.4,9.1,37.5,9z"/>
			</defs>
			<clipPath id="SVGID_19_">
				<use xlink:href="#SVGID_46_"  style="overflow:visible;"/>
			</clipPath>
			
				<radialGradient id="SVGID_20_" cx="-74.1661" cy="-91.2683" r="3.3629" gradientTransform="matrix(0.1455 0.6577 -2.4953 0.5518 -181.5148 111.5149)" gradientUnits="userSpaceOnUse">
				<stop  offset="0" style="stop-color:#C2C2C2"/>
				<stop  offset="0.1496" style="stop-color:#8D8D8D"/>
				<stop  offset="0.2993" style="stop-color:#4C4C4C"/>
				<stop  offset="0.4526" style="stop-color:#2B2B2B"/>
				<stop  offset="0.5839" style="stop-color:#191919"/>
				<stop  offset="0.7007" style="stop-color:#0D0D0D"/>
				<stop  offset="0.8796" style="stop-color:#040404"/>
				<stop  offset="1" style="stop-color:#000000"/>
			</radialGradient>
			<path class="st22" d="M35.9,14.6c-4.6,1-8.6,0.9-8.9-0.4c-0.3-1.2,3.3-3,7.9-4.1c4.6-1,8.6-0.9,8.9,0.4
				C44.1,11.7,40.6,13.6,35.9,14.6z"/>
		</g>
		<path class="st23" d="M0,74.9c0.1,12.4,0.5,27,0.8,38c13.3,4.2,27.7,5,41.2,1.7c0.6-12.7,1-25.5,1-38.1C28.9,80,13.7,79.5,0,74.9z
			"/>
	</g>
	<g>
		<defs>
			<path id="SVGID_49_" d="M0,74.9c0.1,12.4,0.5,27,0.8,38c13.3,4.2,27.7,5,41.2,1.7c0.6-12.7,1-25.5,1-38.1
				C28.9,80,13.7,79.5,0,74.9z"/>
		</defs>
		<clipPath id="SVGID_21_">
			<use xlink:href="#SVGID_49_"  style="overflow:visible;"/>
		</clipPath>
		
			<radialGradient id="SVGID_22_" cx="1.5133" cy="-58.4723" r="19.3535" gradientTransform="matrix(0.5741 -6.300000e-03 2.590000e-02 2.3773 11.7997 247.4216)" gradientUnits="userSpaceOnUse">
			<stop  offset="9.489050e-02" style="stop-color:#8D8D8D"/>
			<stop  offset="0.4343" style="stop-color:#4C4C4C"/>
			<stop  offset="0.5949" style="stop-color:#2B2B2B"/>
			<stop  offset="0.7883" style="stop-color:#0D0D0D"/>
			<stop  offset="1" style="stop-color:#000000"/>
		</radialGradient>
		<path class="st24" d="M22.3,108.3c0.3,25.4-4.5,46.1-10.6,46.1C5.5,154.5,0.3,133.9,0,108.5c-0.3-25.4,4.5-46.1,10.6-46.1
			C16.8,62.3,22,82.9,22.3,108.3z"/>
		
			<radialGradient id="SVGID_23_" cx="51.2454" cy="-63.5784" r="24.6893" gradientTransform="matrix(0.5741 -6.300000e-03 2.590000e-02 2.3773 11.7997 247.4216)" gradientUnits="userSpaceOnUse">
			<stop  offset="0" style="stop-color:#C2C2C2"/>
			<stop  offset="0.1715" style="stop-color:#8D8D8D"/>
			<stop  offset="0.3905" style="stop-color:#4C4C4C"/>
			<stop  offset="0.573" style="stop-color:#2B2B2B"/>
			<stop  offset="0.7956" style="stop-color:#0D0D0D"/>
			<stop  offset="1" style="stop-color:#000000"/>
		</radialGradient>
		<path class="st25" d="M53.7,95.8c0.3,32.4-5.7,58.8-13.5,58.8c-7.8,0.1-14.5-26.1-14.8-58.5C25,63.7,31.1,37.3,38.9,37.3
			C46.8,37.2,53.4,63.4,53.7,95.8z"/>
		<g class="st26">
			<path class="st27" d="M41.1,96.6c0,0.1,0-1.2,0.7-0.9c0.5,0.2,0.4,1.9,0.2,2.1C41.5,98.5,40.7,97.4,41.1,96.6z"/>
			<path class="st27" d="M42.8,100.7c0.8,2.5-3.2,4.5-3.1,1.3c0.1-1.5,1.5-3.1,1.8-3.1C42.2,98.9,42.6,100.3,42.8,100.7z"/>
			<path class="st27" d="M-0.9,84.3c0.4,1.6-3.6,4.2-4.5,2.5c0,0,0-0.1-0.1-0.1C-6.1,84.9-1.6,81.2-0.9,84.3z"/>
			<path class="st27" d="M9.2,82.2c-0.2,2.5,3.6,2,3.8,0.3c0.1-1.4-3.4-2.2-3.8-0.5C9.2,82,9.2,82.1,9.2,82.2z M-0.6,91.6
				c-3.2,2.6-0.4,7.7,1.6,4.3c1-1.7,3.6-4.7,2.5-6.6C1.8,86.4,0.6,90.7-0.6,91.6z M-5.1,100c0.2-1.7,1.6-2.2,1.4-4.2
				c-0.2-1.9-0.1-3.2,0.5-4.9c0.3-0.8-0.4-1.2,0.3-2.1c1-1.3,2.1-2,3.6-2.6c3.1-1.2-2.1-3.3-2-5c0.2-1.9,2.3-1.9,3-0.5
				c0.4,0.7,2.9,3.5,3.9,2.6c1-1,1-2.6,2.5-3.7c1.4-1.1,2.5-0.9,4-0.2c1.1,0.6,3,1.6,3.7-0.1c0.8-1.9,0.2-3,0-4.8
				c-0.1-1.4,0.2-3.2,1.8-3.7c2.1-0.6,2.3,3.1,2.1,4.3c-0.2,1.1-1.4,5.2,1,5c1.5-0.1,2.7-1.7,4.3-1.9c1.3-0.2,3.4-0.3,3.7,1.3
				c0.2,1,0.1,2.9,1.7,2.5c3-0.7,4.7-5.2,8-4.5c2.2,0.4,1.5,2.4,0.4,3.5c-1.2,1.2-2.4,1.3-3.6,2.1c-1.4,0.9,3.3,1.4,5.3,6.9
				c1.1,3.2-1.3,7-2.5,10c-1.6,3.9,0.8,5.1,3.8,7.1c1,0.7,3,2,3.1,3.5c0.2,2-2,3.2-4,0.6c-1-1.4-2.8-3-4.6-3.5
				c-2.1-0.5,0.5,2.6,0.7,2.9c0.9,1,1.2,3.2-0.9,2.5c-0.7-0.2-2.2-3.2-3.2-2.5c-0.7,0.5,2.9,4.3,3.2,5.1c0.9,2.2-2.5,3.4-3.9,0.5
				c-0.6-1.3-0.6-2.6-2-3.3c-3.2-1.5-5.6,4.2-8.1,5.2c-3.8,1.4-6.1-2.8-8-2.3c-2.3,0.6-2.3,5.3-5.5,4.9c-1.8-0.2-1-4.3-3-5.7
				c-1.8-1.3-3.7,2.3-5.3,3.9c-0.9,0.9-2.4,2.5-3.8,1.6c-1.9-1.2-1.2-3.9,0.8-4.4c2.2-0.4,4.4-1.4,5-3.7c0.4-1.3,1-2.3-1.1-2.1
				c-1.5,0.2-2.5-0.6-2.8-2.1c-0.5-2.2,0.8-3.3-1.7-4.5C-5.1,103-5.2,101.7-5.1,100z M34.4,93.1c-0.1,1-0.8,5.1,0.3,5.3
				c1.8-3.1,3.3-6.2,1.4-9.7c-0.5-1-2-2.2-2.3-0.4c-0.3,1.8,0.7,3.1,0.6,4.8C34.4,93,34.4,93,34.4,93.1z"/>
		</g>
		<g class="st26">
			<path class="st28" d="M7,100.6L7,92c0-1,0-1.9,0.1-2.9l0.6-0.3c0.4,0,0.9,1.2,1.5,3.6c0.4,1.9,0.8,3.6,1,5.2
				c0.3,1.5,0.4,2.4,0.4,2.5c0.1-0.5,0.3-1.3,0.6-2.6c0.3-1.2,0.5-2.2,0.7-2.9c0.4-2,0.7-3.8,0.8-5.3v-0.1c0-0.2,0.1-0.3,0.3-0.5
				c0.2-0.1,0.3-0.2,0.5-0.2c0.2,0,0.3,0.1,0.4,0.2c0.1,0.1,0.2,0.3,0.2,0.4c0,1.8,0,4.5,0.1,8c0.1,3.6,0.1,6.2,0.1,8
				c0,0.4-0.1,0.7-0.3,0.9c-0.2,0.3-0.4,0.4-0.6,0.4c-0.4,0-0.5-0.3-0.5-0.9l0-9.4l0-1.1c-0.1,0.6-0.4,1.6-0.7,3
				c-0.4,1.4-0.6,2.5-0.7,3.3l0,0.1c0,0.1,0,0.2-0.1,0.4c0,0.2-0.1,0.4-0.1,0.5c0,0.1-0.1,0.3-0.2,0.5c-0.1,0.3-0.4,0.5-0.7,0.5
				c-0.5,0-0.8-0.7-0.8-2.1c0-1.4-0.3-3.3-0.9-5.8c-0.3-1.2-0.5-2.1-0.6-2.5c0,1.2-0.1,2.1-0.1,2.7l0.1,9.2c0,0.3-0.1,0.6-0.3,0.8
				c-0.4,0-0.6-0.1-0.8-0.4c-0.1-0.2-0.2-0.6-0.2-1L7,100.6z"/>
			<path class="st28" d="M18.5,90.1l-0.4,0c-0.1,0-0.3,0-0.3,0.1c-0.1,0.1-0.1,0.2-0.1,0.4c0,1.5,0,3.6,0.2,6.5
				c0.1,2.9,0.2,5.1,0.2,6.5l0,0.9c0.2,0,0.3,0,0.5,0c0.6,0,0.9,0.3,0.9,0.8l0,0.1l-0.6,0.4l-1.5,0c-1.3,0-1.9-0.2-1.9-0.7
				c0-0.4,0.2-0.5,0.7-0.5l0.5,0c0.2,0,0.3-0.2,0.3-0.5c0-1.2,0-2.9-0.1-5.2c-0.1-2.3-0.2-4-0.1-5.2l0.1-2.3c0-0.5,0-0.9,0-1.2
				c-0.2,0.1-0.4,0.1-0.5,0.1c-0.3,0-0.5-0.2-0.5-0.5c0-0.2,0.1-0.3,0.3-0.5c0.2-0.1,0.5-0.2,0.8-0.3c0.6-0.1,1.1-0.1,1.4-0.1
				c0.3,0,0.5,0.1,0.6,0.2c0.1,0.1,0.2,0.3,0.2,0.4c0,0.2-0.1,0.3-0.2,0.4C18.8,90.1,18.7,90.1,18.5,90.1z"/>
			<path class="st28" d="M21.9,97.4l0,0.7l0,0.1c0,1.3,0,3.2,0,5.8l0,0.6l1.7,0c0.3,0.2,0.5,0.4,0.5,0.6c0,0.2-0.1,0.4-0.2,0.5
				c-0.1,0.1-0.2,0.2-0.3,0.2c-0.1,0-0.2,0-0.4-0.1c-0.1,0-0.3,0-0.4,0l-0.7,0c-0.2,0.2-0.3,0.3-0.6,0.3c-0.2,0-0.4-0.1-0.6-0.2
				c-0.2-0.1-0.2-0.3-0.2-0.5l0.2-1c0-1.7,0-4.2-0.1-7.6c-0.1-3.4-0.1-5.9-0.1-7.6c0-0.1,0.1-0.2,0.2-0.3c0.1-0.1,0.2-0.1,0.4-0.1
				c0.2,0,0.3,0.1,0.4,0.2c0.1,0.1,0.2,0.3,0.2,0.5L21.9,97.4z"/>
			<path class="st28" d="M25.6,98.7l0.1-4.2c0-0.7,0-1.6-0.1-2.6c-0.1-1-0.1-1.6-0.1-1.9c0-0.3,0.1-0.5,0.2-0.7
				c0.1-0.1,0.3-0.2,0.5-0.2c0.6,0,0.8,0.6,0.8,1.8c0,0-0.1,1.5-0.2,4.6c0.1-0.1,0.2-0.5,0.4-1.1c0.2-0.6,0.5-1.2,0.7-1.8
				c0.3-0.6,0.5-1.2,0.8-1.9c0.7-1.5,1.1-2.2,1.4-2.2c0.2,0,0.3,0.1,0.4,0.2c0.1,0.1,0.2,0.2,0.2,0.4c0,0.2-0.4,1.1-1.3,2.8
				c-0.8,1.7-1.3,2.8-1.4,3.2l0,0.4c0.2,0.6,0.8,2.4,1.7,5.5c0.9,3.1,1.4,4.7,1.4,4.9c0,0.2-0.1,0.3-0.2,0.5
				c-0.1,0.1-0.3,0.2-0.5,0.2l-0.5-0.1c-0.3-2.1-0.7-4-1.1-5.6c-0.4-1.6-0.9-3.1-1.5-4.5c-0.5,0.8-0.7,1.3-0.7,1.4
				c0,0.5-0.1,0.8-0.1,1.1l0.1,4.2l0,1.8c0,0.8-0.3,1.2-0.8,1.2c-0.4,0-0.7-0.4-0.6-1.1c0-0.8,0.1-1.8,0.2-3.1
				C25.5,100.4,25.6,99.4,25.6,98.7z"/>
		</g>
	</g>
</g>
</svg>
