<?xml version="1.0" encoding="utf-8"?>
<!-- Generator: Adobe Illustrator 25.2.3, SVG Export Plug-In . SVG Version: 6.00 Build 0)  -->
<svg version="1.1" id="Capa_1" xmlns="http://www.w3.org/2000/svg" xmlns:xlink="http://www.w3.org/1999/xlink" x="0px" y="0px"
	 width="67.5px" height="70.9px" viewBox="0 0 67.5 70.9" style="enable-background:new 0 0 67.5 70.9;" xml:space="preserve">
<style type="text/css">
	.st0{fill:url(#SVGID_1_);}
	.st1{opacity:0.5;fill:#B5BF2D;}
	.st2{opacity:0.69;fill:#889726;}
	.st3{fill:url(#SVGID_2_);}
	.st4{opacity:0.42;fill:#889726;}
	.st5{opacity:0.85;fill:#F9FBD4;}
	.st6{fill:url(#SVGID_3_);}
	.st7{opacity:0.82;fill:#E3DA33;}
	.st8{opacity:0.66;fill:#FFFF71;}
	.st9{opacity:0.56;fill:#F9FBD4;}
	.st10{opacity:0.82;fill:#FFFFF2;}
	.st11{opacity:0.57;fill:#A9A127;}
	.st12{opacity:0.79;fill:#F9FBD4;}
	.st13{opacity:0.63;fill:#F9FBD4;}
	.st14{opacity:0.84;fill:#B5BF2D;}
</style>
<g>
	<g>
		
			<linearGradient id="SVGID_1_" gradientUnits="userSpaceOnUse" x1="-0.7489" y1="59.9955" x2="7.723" y2="48.567" gradientTransform="matrix(0.9942 0.1072 -0.1072 0.9942 8.4024 13.7424)">
			<stop  offset="0" style="stop-color:#F7F961"/>
			<stop  offset="5.490073e-02" style="stop-color:#F6F758"/>
			<stop  offset="0.2211" style="stop-color:#F5F143"/>
			<stop  offset="0.3293" style="stop-color:#F4EF3B"/>
			<stop  offset="0.6272" style="stop-color:#C7CE32"/>
			<stop  offset="0.8066" style="stop-color:#B1BD2D"/>
		</linearGradient>
		<path class="st0" d="M16.2,69.1c-4.1-1-5.3,0.2-5.3,0.2c-0.3,0.2-0.6,0.4-1,0.5c-1.3,0.6-2.6,0.7-2.6,0.7
			c-5.2-0.4-5.1-3.8-4.8-5.1c0.1-0.3,0.1-0.5,0.1-0.5c0.2-0.5,0.4-1,0.4-1.6c0.2-1.5,0-3.1-0.1-3.9l0.1-0.1l6.8,3.3l3.6,3.1l1,1.3
			L16.2,69.1z"/>
		<path class="st1" d="M16.2,69.1c-4.1-1-5.3,0.2-5.3,0.2c-1.5,1.1-3.5,1.2-3.5,1.2c-5.2-0.4-5.1-3.8-4.8-5.1
			c5.2,5.5,9.2,1.6,9.2,1.6l0.9-0.6l1.9,0.6L16.2,69.1z"/>
		<path class="st2" d="M16.2,69.1c-4.1-1-5.3,0.2-5.3,0.2c-0.3,0.2-0.6,0.4-1,0.5c-0.6-4.8-5.5-6.3-6.8-6.6c0.2-1.5,0-3.1-0.1-3.9
			l0.1-0.1l6.8,3.3l3.6,3.1l1,1.3L16.2,69.1z"/>
	</g>
	<g>
		
			<linearGradient id="SVGID_2_" gradientUnits="userSpaceOnUse" x1="56.0688" y1="-25.9955" x2="43.8768" y2="-2.675" gradientTransform="matrix(0.9942 0.1072 -0.1072 0.9942 8.4024 13.7424)">
			<stop  offset="0" style="stop-color:#F7F961"/>
			<stop  offset="5.490073e-02" style="stop-color:#F6F758"/>
			<stop  offset="0.2211" style="stop-color:#F5F143"/>
			<stop  offset="0.3293" style="stop-color:#F4EF3B"/>
			<stop  offset="0.6272" style="stop-color:#C7CE32"/>
			<stop  offset="0.8066" style="stop-color:#B1BD2D"/>
		</linearGradient>
		<path class="st3" d="M63.8,12.8l-2.3,0.6l-9.2-8.4l0-0.1l-0.6-2.4c0,0,3,0.4,5.2-0.9c0,0,2.6-2.8,5.7-0.9c0,0,2.3,0.7,1.4,4.6
			C63.9,5.2,62,9,63.8,12.8z"/>
		<path class="st4" d="M63.8,12.8l-2.3,0.6l-9.2-8.4l0-0.1c6.5,2.1,9.3-0.2,9.3-0.2c2.3-2,1-4,1-4s2.3,0.7,1.4,4.6
			C63.9,5.2,62,9,63.8,12.8z"/>
		<path class="st5" d="M60.4,0.6c-0.6-0.2-1.3,0-1.8,0.4c-0.3,0.3-0.8,0.7-0.2,1c0.4,0.2,1,0,1.4-0.1c0.3-0.1,0.9-0.3,1-0.6
			C61,1,60.8,0.7,60.4,0.6z"/>
	</g>
	
		<linearGradient id="SVGID_3_" gradientUnits="userSpaceOnUse" x1="-5.9933" y1="-4.0335" x2="81.15" y2="57.2875" gradientTransform="matrix(0.9942 0.1072 -0.1072 0.9942 8.4024 13.7424)">
		<stop  offset="0" style="stop-color:#F7F961"/>
		<stop  offset="5.490073e-02" style="stop-color:#F6F758"/>
		<stop  offset="0.2211" style="stop-color:#F5F143"/>
		<stop  offset="0.3293" style="stop-color:#F4EF3B"/>
		<stop  offset="0.6272" style="stop-color:#C7CE32"/>
		<stop  offset="0.8066" style="stop-color:#B1BD2D"/>
	</linearGradient>
	<path class="st6" d="M60.4,50.4c-12,19-29.5,24.5-47,17.7C8.4,66.2,5,63,2.9,59c-3-5.7-3.5-13.1-2.2-20.9
		c0.9-5.1,2.5-10.4,4.7-15.6C11.5,8,27.7-0.3,42,0.4c0,0,0,0,0,0c2.7,0.1,5.4,0.6,7.9,1.4c1.5,0.5,2.9,1,4.2,1.7
		C69.9,11.7,71.3,33.1,60.4,50.4z"/>
	<path class="st7" d="M60.4,50.4c-0.2,0.3-0.4,0.6-0.6,0.9c-12,18.3-29.2,23.5-46.4,16.8C8.4,66.2,5,63,2.9,59
		c-1.7-3.2-2.6-6.9-2.8-10.9c0,0,0,0,0,0c-0.2-3.2,0.1-6.6,0.6-10.1l0,0c6,12.2,29.8,8.2,29.8,8.2C54.5,38.8,53,12.4,53,12.4
		C51,1.7,42.9,0.5,42,0.4c2.7,0.1,5.4,0.6,7.9,1.4c1.5,0.5,2.9,1,4.2,1.7C69.9,11.7,71.3,33.1,60.4,50.4z"/>
	<path class="st1" d="M60.4,50.4c-12,19-29.5,24.5-47,17.7C8.4,66.2,5,63,2.9,59c46,14.5,54.2-30.8,54.2-30.8
		C59.8,11.5,52.6,4,49.9,1.8c1.5,0.5,2.9,1,4.2,1.7C69.9,11.7,71.3,33.1,60.4,50.4z"/>
	<path class="st8" d="M14.1,12.1c-2.2,2.8-3.6,6.3-2.7,9.7c0.3,1.1,0.9,2.7,1.8,3.5c2.1,1.7,5.1,2.7,7.7,3c3.1,0.4,6.3,0,9.3-1.1
		c3.4-1.2,7.1-3,9.3-6c2.4-3.1,3.8-7.1,3.6-11c-0.1-2.5-2-5.9-4.8-7c-1-0.4-2-0.6-3-0.7C31.6,2,28.5,2.4,25.1,4.1
		c-1.2,0.6-2.5,1.3-3.7,2c-1.7,1-3.2,2.2-4.7,3.4C15.8,10.2,14.9,11.1,14.1,12.1z"/>
	<path class="st9" d="M21.8,8.4c-1,0.9-1.8,1.9-2.3,3.2c-0.8,2.3,0,4.6,2.5,5.1c2.5,0.5,5.2-1.1,7.3-2.4c2.1-1.3,4.7-5,2.7-7.4
		c-0.5-0.6-1.2-1-2-1.1c-1.5-0.4-3.3-0.1-4.8,0.5C24.1,6.9,22.9,7.6,21.8,8.4z"/>
	<path class="st10" d="M23.2,8c-0.7,0.6-1.3,1.3-1.6,2.2c-0.6,1.6,0,3.1,1.7,3.5c1.7,0.3,3.6-0.7,5-1.6c1.5-0.9,3.2-3.4,1.8-5.1
		c-0.3-0.4-0.9-0.7-1.4-0.8c-1-0.2-2.3-0.1-3.3,0.4C24.8,6.9,23.9,7.4,23.2,8z"/>
	<path class="st11" d="M59.8,51.3c-12,18.3-29.2,23.5-46.4,16.8C8.4,66.2,5,63,2.9,59c-1.7-3.2-2.6-6.9-2.8-10.9
		c0.2,0.4,8,13.9,24.6,15C24.7,63.1,43.8,66.8,59.8,51.3z"/>
	<path class="st12" d="M21.7,22.2c0,0.4-0.3,0.7-0.8,0.7c-0.4,0-0.7-0.4-0.7-0.8c0.1-0.6,0.7-0.7,1.1-0.4
		C21.5,21.8,21.6,22,21.7,22.2z"/>
	<path class="st12" d="M17.8,14.2c0,0.4-0.3,0.7-0.8,0.7c-0.4,0-0.7-0.4-0.7-0.8c0.1-0.6,0.7-0.7,1.1-0.4
		C17.7,13.8,17.8,14,17.8,14.2z"/>
	<path class="st12" d="M27.8,22.8c0,0.4-0.3,0.7-0.8,0.7c-0.4,0-0.7-0.4-0.7-0.8c0.1-0.6,0.7-0.7,1.1-0.4
		C27.7,22.4,27.8,22.6,27.8,22.8z"/>
	<path class="st12" d="M24.4,25.6c0,0.4-0.3,0.7-0.8,0.7c-0.4,0-0.7-0.4-0.7-0.8c0.1-0.6,0.7-0.7,1.1-0.4
		C24.3,25.2,24.4,25.4,24.4,25.6z"/>
	<path class="st12" d="M40.8,9.6c0,0.4-0.3,0.7-0.8,0.7c-0.4,0-0.7-0.4-0.7-0.8c0.1-0.6,0.7-0.7,1.1-0.4C40.7,9.2,40.8,9.4,40.8,9.6
		z"/>
	<path class="st13" d="M45.4,9.4c0,0.4-0.3,0.7-0.8,0.7c-0.4,0-0.7-0.4-0.7-0.8C44,8.6,44.6,8.5,45,8.9C45.3,9,45.3,9.2,45.4,9.4z"
		/>
	<path class="st1" d="M43.5,13.1c0,0.4-0.3,0.7-0.8,0.7c-0.4,0-0.7-0.4-0.7-0.8c0.1-0.6,0.7-0.7,1.1-0.4
		C43.4,12.7,43.5,12.9,43.5,13.1z"/>
	<path class="st1" d="M37.8,12.4c0,0.4-0.3,0.7-0.8,0.7c-0.4,0-0.7-0.4-0.7-0.8c0.1-0.6,0.7-0.7,1.1-0.4
		C37.7,12,37.8,12.2,37.8,12.4z"/>
	<path class="st13" d="M45.5,21.9c0,0.5-0.4,0.9-1,0.9c-0.5-0.1-0.9-0.5-0.9-1.1c0.1-0.8,0.9-0.9,1.5-0.5
		C45.4,21.4,45.5,21.6,45.5,21.9z"/>
	<path class="st13" d="M26.5,36.3c0,0.4-0.3,0.7-0.8,0.7c-0.4,0-0.7-0.4-0.7-0.8c0.1-0.6,0.7-0.7,1.1-0.4
		C26.4,35.9,26.5,36.1,26.5,36.3z"/>
	<path class="st1" d="M32.2,30.2c0,0.5-0.4,0.9-1,0.9c-0.5-0.1-0.9-0.5-0.9-1.1c0.1-0.8,0.9-0.9,1.5-0.5
		C32.1,29.7,32.2,29.9,32.2,30.2z"/>
	<path class="st1" d="M10.5,27.2c0,0.4-0.3,0.7-0.8,0.7c-0.4,0-0.7-0.4-0.7-0.8c0.1-0.6,0.7-0.7,1.1-0.4
		C10.4,26.8,10.5,27,10.5,27.2z"/>
	<path class="st13" d="M13.4,23c0,0.4-0.3,0.7-0.8,0.7c-0.4,0-0.7-0.4-0.7-0.8c0.1-0.6,0.7-0.7,1.1-0.4C13.3,22.6,13.4,22.8,13.4,23
		z"/>
	<path class="st12" d="M18.1,18c0,0.4-0.3,0.7-0.8,0.7c-0.4,0-0.7-0.4-0.7-0.8c0.1-0.6,0.7-0.7,1.1-0.4C18,17.6,18.1,17.8,18.1,18z"
		/>
	<path class="st13" d="M36.8,30.7c0,0.5-0.4,0.9-1,0.9c-0.5-0.1-0.9-0.5-0.9-1.1c0.1-0.8,0.9-0.9,1.5-0.5
		C36.6,30.1,36.8,30.4,36.8,30.7z"/>
	<path class="st13" d="M23,39.7c0,0.5-0.4,0.9-1,0.8c-0.5-0.1-0.9-0.5-0.8-1c0.1-0.8,0.9-0.9,1.4-0.5C22.9,39.2,23,39.4,23,39.7z"/>
	<path class="st14" d="M14.6,48.9c0,0.4-0.3,0.8-0.9,0.8c-0.5-0.1-0.8-0.5-0.8-1c0.1-0.7,0.8-0.8,1.3-0.4
		C14.5,48.4,14.6,48.6,14.6,48.9z"/>
	<path class="st13" d="M9.8,42.1c0,0.5-0.4,0.9-1,0.8c-0.5-0.1-0.9-0.5-0.8-1c0.1-0.8,0.9-0.9,1.4-0.5C9.7,41.6,9.8,41.8,9.8,42.1z"
		/>
	<path class="st14" d="M7.6,48.1c0,0.4-0.3,0.8-0.9,0.8c-0.5-0.1-0.8-0.5-0.8-1c0.1-0.7,0.8-0.8,1.3-0.4C7.5,47.6,7.6,47.9,7.6,48.1
		z"/>
	<path class="st14" d="M31.1,44.6c0,0.4-0.3,0.8-0.9,0.8c-0.5-0.1-0.8-0.5-0.8-1c0.1-0.7,0.8-0.8,1.3-0.4
		C31,44.1,31.1,44.3,31.1,44.6z"/>
	<path class="st14" d="M44,46.9c0,0.5-0.4,0.9-1,0.8c-0.5-0.1-0.9-0.5-0.8-1c0.1-0.8,0.9-0.9,1.4-0.5C43.9,46.4,44,46.6,44,46.9z"/>
	<path class="st14" d="M44.5,41.9c0,0.5-0.4,0.9-1,0.8c-0.5-0.1-0.9-0.5-0.8-1c0.1-0.8,0.9-0.9,1.4-0.5
		C44.4,41.4,44.5,41.7,44.5,41.9z"/>
	<path class="st13" d="M48.4,42.5c0,0.5-0.4,0.9-1,0.8c-0.5-0.1-0.9-0.5-0.8-1c0.1-0.8,0.9-0.9,1.4-0.5C48.2,42,48.4,42.2,48.4,42.5
		z"/>
	<path class="st14" d="M47.3,38.6c0,0.5-0.4,0.9-1,0.8c-0.5-0.1-0.9-0.5-0.8-1c0.1-0.8,0.9-0.9,1.4-0.5
		C47.2,38.1,47.3,38.3,47.3,38.6z"/>
	<path class="st13" d="M27.3,39.3c0,0.5-0.4,0.9-1,0.8c-0.5-0.1-0.9-0.5-0.8-1c0.1-0.8,0.9-0.9,1.4-0.5
		C27.1,38.8,27.2,39.1,27.3,39.3z"/>
	<path class="st14" d="M26.9,50.2c0,0.4-0.3,0.8-0.9,0.8c-0.5-0.1-0.8-0.5-0.8-1c0.1-0.7,0.8-0.8,1.3-0.4
		C26.8,49.7,26.9,49.9,26.9,50.2z"/>
	<path class="st14" d="M21.9,49.6c0,0.4-0.3,0.8-0.9,0.8c-0.5-0.1-0.8-0.5-0.8-1c0.1-0.7,0.8-0.8,1.3-0.4
		C21.8,49.2,21.9,49.4,21.9,49.6z"/>
	<path class="st14" d="M11.1,50.9c0,0.4-0.3,0.8-0.9,0.8c-0.5-0.1-0.8-0.5-0.8-1c0.1-0.7,0.8-0.8,1.3-0.4
		C11,50.4,11.1,50.7,11.1,50.9z"/>
	<path class="st1" d="M43.2,26.6c0,0.5-0.4,0.9-1,0.9c-0.5-0.1-0.9-0.5-0.9-1.1c0.1-0.8,0.9-0.9,1.5-0.5
		C43.1,26.1,43.2,26.4,43.2,26.6z"/>
	<path class="st13" d="M48,18.9c0,0.5-0.4,0.9-1,0.9c-0.5-0.1-0.9-0.5-0.9-1.1c0.1-0.8,0.9-0.9,1.5-0.5C47.8,18.4,47.9,18.7,48,18.9
		z"/>
	<path class="st1" d="M55.5,9.8c0,0.4-0.3,0.7-0.8,0.7c-0.4,0-0.7-0.4-0.7-0.8C54.2,9,54.8,9,55.2,9.3C55.4,9.4,55.5,9.6,55.5,9.8z"
		/>
	<path class="st1" d="M57.5,12.4c0,0.4-0.3,0.7-0.8,0.7c-0.4,0-0.7-0.4-0.7-0.8c0.1-0.6,0.7-0.7,1.1-0.4
		C57.4,12,57.5,12.2,57.5,12.4z"/>
	<path class="st1" d="M44.1,18.5c0,0.5-0.4,0.9-1,0.9c-0.5-0.1-0.9-0.5-0.9-1.1c0.1-0.8,0.9-0.9,1.5-0.5C44,18,44.1,18.3,44.1,18.5z
		"/>
	<path class="st13" d="M46.2,11.4c0,0.3-0.2,0.7-0.6,0.6c-0.3,0-0.5-0.4-0.5-0.7c0.1-0.6,0.5-0.6,0.9-0.4
		C46.2,11,46.2,11.2,46.2,11.4z"/>
	<path class="st13" d="M47.8,7.8c0,0.3-0.2,0.7-0.6,0.6c-0.3,0-0.5-0.4-0.5-0.7c0.1-0.6,0.5-0.6,0.9-0.4C47.8,7.4,47.8,7.6,47.8,7.8
		z"/>
	<path class="st1" d="M35.2,23.1c0,0.4-0.2,0.7-0.6,0.7c-0.3,0-0.5-0.4-0.5-0.8c0.1-0.6,0.6-0.7,0.9-0.4
		C35.1,22.8,35.2,23,35.2,23.1z"/>
	<path class="st1" d="M59.6,10.9c0,0.4-0.2,0.7-0.6,0.7c-0.3,0-0.5-0.4-0.5-0.8c0.1-0.6,0.6-0.7,0.9-0.4
		C59.5,10.5,59.6,10.7,59.6,10.9z"/>
	<path class="st1" d="M34.7,25.7c0.3,0.3,0.3,0.7,0,0.9c-0.2,0.2-0.6,0.1-0.9-0.2c-0.4-0.5-0.1-0.9,0.3-0.9
		C34.4,25.4,34.6,25.5,34.7,25.7z"/>
	<path class="st1" d="M13.1,29.9c-0.3,0.2-0.7,0.2-0.9-0.1c-0.1-0.3,0-0.7,0.4-0.8c0.6-0.3,0.9,0.1,0.8,0.5
		C13.4,29.7,13.3,29.8,13.1,29.9z"/>
	<path class="st13" d="M13.1,27.4c-0.2,0.1-0.4,0.1-0.6-0.2c-0.1-0.2-0.1-0.5,0.1-0.6c0.3-0.2,0.6,0.2,0.6,0.5
		C13.2,27.2,13.2,27.3,13.1,27.4z"/>
	<path class="st1" d="M36.8,24.5c0.2,0.2,0.3,0.5,0,0.7c-0.2,0.2-0.5,0.1-0.7-0.2c-0.3-0.4-0.1-0.7,0.3-0.7
		C36.5,24.3,36.7,24.4,36.8,24.5z"/>
	<path class="st12" d="M23.2,23c-0.1,0.3-0.3,0.5-0.6,0.4c-0.2-0.1-0.3-0.4-0.2-0.7c0.2-0.5,0.6-0.4,0.7-0.2
		C23.2,22.7,23.2,22.8,23.2,23z"/>
	<path class="st12" d="M30.2,17.8c-0.1,0.3-0.3,0.5-0.6,0.4c-0.2-0.1-0.3-0.4-0.2-0.7c0.2-0.5,0.6-0.4,0.7-0.2
		C30.2,17.5,30.2,17.7,30.2,17.8z"/>
	<path class="st13" d="M18,16.5c-0.1,0.3-0.3,0.5-0.6,0.4c-0.2-0.1-0.4-0.4-0.2-0.8c0.2-0.5,0.6-0.5,0.8-0.2
		C18.1,16.2,18.1,16.3,18,16.5z"/>
	<path class="st13" d="M41.5,6.8c0.1,0.3,0,0.6-0.2,0.7C41,7.5,40.7,7.3,40.6,7c-0.1-0.5,0.2-0.7,0.5-0.6
		C41.3,6.5,41.4,6.7,41.5,6.8z"/>
	<path class="st13" d="M43.2,5.7c-0.2,0.2-0.5,0.4-0.7,0.2c-0.2-0.2-0.2-0.5,0.1-0.7c0.3-0.4,0.7-0.2,0.7,0.1
		C43.4,5.4,43.3,5.6,43.2,5.7z"/>
	<path class="st13" d="M43.4,7.9c-0.1,0.3-0.3,0.5-0.6,0.4c-0.2-0.1-0.3-0.4-0.2-0.7c0.2-0.5,0.6-0.4,0.7-0.2
		C43.4,7.6,43.4,7.8,43.4,7.9z"/>
	<path class="st12" d="M20.1,23.2c0.3,0.2,0.4,0.6,0.1,0.8c-0.2,0.2-0.6,0.1-0.9-0.2c-0.4-0.4-0.2-0.8,0.2-0.9
		C19.7,23,19.9,23.1,20.1,23.2z"/>
	<path class="st12" d="M28.4,17.9c0.3,0.2,0.4,0.6,0.1,0.8c-0.2,0.2-0.6,0.1-0.8-0.2c-0.4-0.4-0.2-0.8,0.2-0.8
		C28.1,17.7,28.3,17.8,28.4,17.9z"/>
	<path class="st12" d="M22.8,19.1c0.3,0.3,0.4,0.7,0.1,1c-0.2,0.2-0.7,0.1-1-0.2c-0.5-0.5-0.2-1,0.3-1
		C22.4,18.9,22.6,18.9,22.8,19.1z"/>
	<path class="st12" d="M16.1,15.7c0.2,0.2,0.4,0.6,0.1,0.8c-0.2,0.2-0.6,0.1-0.8-0.2c-0.4-0.4-0.2-0.8,0.2-0.8
		C15.8,15.5,15.9,15.6,16.1,15.7z"/>
</g>
</svg>
