<?xml version="1.0" encoding="utf-8"?>
<!-- Generator: Adobe Illustrator 25.2.3, SVG Export Plug-In . SVG Version: 6.00 Build 0)  -->
<svg version="1.1" id="Capa_1" xmlns="http://www.w3.org/2000/svg" xmlns:xlink="http://www.w3.org/1999/xlink" x="0px" y="0px"
	 width="1107.3px" height="461.1px" viewBox="0 0 1107.3 461.1" style="enable-background:new 0 0 1107.3 461.1;"
	 xml:space="preserve">
<style type="text/css">
	.st0{fill:#B04652;}
	.st1{fill:#D6C0B4;}
	.st2{fill:#F5DBD5;}
	.st3{fill:#CB8480;}
	.st4{fill:#E0918F;}
	.st5{fill:#915D59;}
	.st6{fill:#C0ACA4;}
	.st7{fill:#883946;}
	.st8{opacity:0.29;fill:#FFFFFF;}
</style>
<g>
	<g>
		<path class="st0" d="M701.2,376.6c15.9-12.7,28.8-30.3,31.5-50.4c1.9-14-1.2-28.2-5.6-41.6c-1-3.2-2.2-6.4-4.5-8.9
			c-4-4.3-10.5-5.2-16.4-5.2c-25.2-0.1-50.3,10.6-67.7,29c-17.3,18.4-26.6,44-25,69.2c0.6,9.9,3,20,8.9,27.9
			C642.1,422.7,682.6,391.4,701.2,376.6z"/>
		<path class="st1" d="M5.3,374.2c1.1,4.8,2.4,9.6,5.3,13.6c3.5,4.8,8.8,7.8,14.1,10.5c70.9,36.3,153.8,37,232.7,47.7
			c39.4,5.3,78.5,13.4,118.2,14.8c42.6,1.5,85-4.5,127-11.5c55.4-9.2,111.9-20.3,160.3-48.7c8.2-4.8,16.6-10.6,20.4-19.4
			c3.2-7.4,2.6-15.8,1.9-23.8c-0.8-10.4-1.7-20.8-2.5-31.3c-0.2-3-0.5-6.2-2.3-8.7c-2.8-4.1-8.5-4.9-13.4-5.4
			c-79.5-7.4-159.6-6.1-239.4-7.9c-71.5-1.7-142.9-5.9-214.2-11.3c-35.7-2.7-71.3-5.7-106.9-8.8c-18-1.6-36-3.2-54-4.8
			c-9.6-0.9-32.2-7.6-41.4-3.8c-11.4,4.7-10.4,34-10.8,44.6C-0.5,338.2,1.2,356.5,5.3,374.2z"/>
		<path class="st2" d="M16,261.2c-13.1,15.4-19,38.5-9.6,56.5c11.1,21.2,37.6,28.1,61.1,32.8c54.6,10.9,109.3,21.8,163.9,32.7
			c25.4,5.1,50.8,10.1,76.4,13.7c110.4,15.3,224.7,1.7,328.5-39.2c20.8-8.2,42.6-18.7,53.1-38.4c1.1-2.1,2.1-4.4,1.7-6.7
			c-0.8-5.2-7.3-6.9-12.6-7.5c-187.1-20.5-378.8,4.7-562.7-35.3c-9.9-2.2-20.5-4.6-28.8-10.8c-7.8-5.8-11.8-16.3-20.3-21
			C49.9,228.7,26.3,249.1,16,261.2z"/>
		<path class="st3" d="M31.4,275c1.7-21.4,18.9-39,38.6-47.4c19.7-8.5,41.6-9.5,63-10.4c49.9-2.2,99.8-4.3,149.6-6.5
			c33.8-1.5,67.7-2.9,101.3,0.3c47.9,4.5,94.4,18.4,142.1,25.2c60.5,8.7,123.7,6.2,180.3,29.2c8.1,3.3,17.1,8.4,18.5,17.1
			c1.1,6.8-2.9,13.4-7.4,18.6c-16.5,19.1-40.8,29.6-64.6,37.9c-143.1,49.6-299.7,41.5-449.3,18c-49.2-7.8-98.7-17.3-144.1-38
			C44.3,311.9,30,292.3,31.4,275z"/>
		<path class="st4" d="M64.1,250.6c-5.6,4.9-11.5,11.3-10.5,18.6c0.8,5.8,5.7,10.2,11,12.6c5.3,2.5,11.1,3.6,16.5,5.9
			c7.4,3.2,13.7,8.8,21.4,11.1c7.6,2.2,15.8,1,23.5-1.2c33.2-9.5,59.6-35.6,92.6-45.7c32.5-9.9,67.5-3.2,101.5-4.2
			c10.2-0.3,20.6-1.4,30.2-4.9c2.9-1.1,6.1-2.7,7.1-5.7c2-5.9-5.5-10.4-11.5-11.4c-23.5-4.2-47.3,3.3-71,6.2
			C208.8,240.3,118.8,202.1,64.1,250.6z"/>
		<path class="st4" d="M442,275.2c8.2,4.7,15.5,13,14.6,22.4c-0.7,7.2-6.1,13.3-12.5,16.8c-6.4,3.5-13.6,5-20.7,6.6
			c-15.6,3.6-31,8.3-46,14.1c-6.1,2.4-13.3,6.6-12.7,13.2c0.6,7.5,10.4,9.9,17.9,10.1c91.7,2.2,181.3-24.5,269.2-51
			c7.4-2.2,15.7-5.3,18.4-12.5c2.3-6.1-0.6-13.2-5.5-17.4c-4.9-4.3-11.3-6.2-17.7-7.4c-23-4.4-46.7-0.6-70-2.7
			c-15.6-1.4-30.9-5.3-46.1-9.2c-19.9-5.2-39.9-10.3-59.8-15.5c-13.3-3.4-42.1-12-55.6-4.8C385.9,253.7,432.2,269.6,442,275.2z"/>
		<path class="st2" d="M500.3,361.1c5.5-5.3,9.7-15.2,3.7-19.8c-2.9-2.2-6.8-2-10.4-1.7c-7.1,0.6-14.8,1-20.7-2.9
			c-5.9-4-7.6-14.3-1.4-17.7c1,8.9,12,12.6,21,12.6c8.9,0,18.9-1.5,25.9,4.1c8.3,6.7,7.6,19.3,6.2,29.9c-0.2,1.5-0.4,3,0,4.4
			c0.7,2.3,3,3.8,5.3,4.6c9.4,3.1,20.2-4.1,22.6-13.6c2.4-9.6-2.6-20-10.6-25.7c-8.2-5.9-19.1-7.6-26.3-14.7
			c-5.8-5.8-8.1-14.2-12.8-20.9c-7.5-10.5-20.4-15.6-32.5-20.1c3.2-2.5,8-1.7,11.5,0.4c3.5,2,6.3,5.1,9.7,7.4
			c6.9,4.6,15.6,5.6,22.9,9.6c14.5,7.8,21.2,25.7,35.4,33.8c15.9,9.1,38.2,4.4,51.3,17.2c2,2,3.8,4.7,3.3,7.5
			c-0.7,3.7-4.9,5.4-8.5,6.4c-40.2,11.7-81,23.6-123,26.3c-6,0.4-26.4,4.1-30.8-0.9c-4.8-5.5,4.1-7.8,9-8.7
			C469.9,374.6,485.1,375.7,500.3,361.1z"/>
		<path class="st2" d="M644.4,313.9c-10.3-3.8-21.5-4-32.3-5.2c-26.7-2.9-53.1-11.8-74.5-28.1c7.2-3.9,15.7,0.8,23.1,4.2
			c17.2,8,36.7,9.4,55.5,12.3c18.8,2.9,38.4,8.2,51.6,21.8c3.4,3.5,6.4,7.8,6.1,12.6c-0.2,5-4.9,9-9.6,7.4
			C666.3,326.9,654.6,317.7,644.4,313.9z"/>
		<path class="st4" d="M166.1,305.8c-5.4,4.5-10.6,13-5.3,17.7c1.7,1.5,4,2,6.2,2.3c13.6,2.4,27.4,3.1,41.1,5.2
			c25,3.9,49.2,12.5,74.5,13.7c10.4,0.5,21.2-0.5,30.2-5.7c8.3-4.9,14.2-13.1,22.1-18.6c18-12.6,42.3-9.3,63.8-14
			c2.9-0.6,6.1-1.6,7.9-4c3.2-4.4,0.2-10.7-3.8-14.5c-16.6-15.5-43.2-10.1-64.9-16.9c-14.2-4.5-27.7-15.1-43.2-14.2
			c-14,0.8-29.7,3.6-43.5,6.8C219.9,270.6,190.4,285.2,166.1,305.8z"/>
	</g>
	<path class="st5" d="M153.9,286.1c-0.7,6.3,3.3,12.3,8.4,15.9c5.2,3.6,11.4,5.2,17.6,6.7c47.7,11.3,96.8,18,142.6,35.4
		c12.3,4.7,24.3,10.1,36.6,14.7c38.8,14.7,80,21.5,121,28.3c13.4,2.2,27.1,4.5,40.6,3.1c7.9-0.8,15.6-2.8,23.3-4.8
		c9.6-2.5,19.2-4.9,28.7-7.4c2.3-0.6,4.7-1.2,6.3-2.9c3.2-3.1,2.4-8.8-0.5-12.2c-2.9-3.4-7.3-5.1-11.6-6.4
		c-23.4-7.5-48.1-10.1-72.2-15.2c-54.2-11.6-104.6-36.1-156.8-54.9c-33-11.9-67.3-21.7-102.4-24.2
		C216.8,260.8,157,256.9,153.9,286.1z"/>
	<path class="st6" d="M514.3,390.6c0,0,15.8,16.8,21.1,28.7c5.3,11.9,15.5,21.2,15.5,21.2s41.5-11.7,72.5-20.8
		c31-9.1,64.9-29.1,64.9-29.1l-150.7-7.4L514.3,390.6z"/>
	<g>
		<path class="st7" d="M842.1,352.3c17.7-10,33.2-25.3,39.1-44.7c4.1-13.5,3.3-28,1.1-42c-0.5-3.3-1.1-6.7-3-9.5
			c-3.3-4.9-9.5-6.8-15.3-7.8c-24.9-4.1-51.4,2.5-71.4,17.9c-20,15.4-33.3,39.2-35.7,64.4c-1,9.8-0.2,20.2,4.4,28.9
			C776.4,388.4,821.3,364,842.1,352.3z"/>
		<path class="st1" d="M155.4,239.2c0.3,4.9,0.9,9.9,3.1,14.2c2.7,5.3,7.5,9.1,12.2,12.6c64.2,47.1,145.9,61,222.1,84.2
			c38,11.5,75.3,25.7,114.3,33.4c41.8,8.3,84.6,9,127.2,8.9c56.2-0.2,113.7-2.3,166.1-22.6c8.9-3.5,18.1-7.9,23.2-15.9
			c4.3-6.8,5-15.2,5.7-23.2c0.8-10.4,1.6-20.8,2.5-31.3c0.2-3,0.5-6.2-0.9-9c-2.2-4.5-7.6-6.2-12.4-7.5
			c-77.3-19.9-156.6-31.4-235.1-45.9c-70.3-13-140.2-28.6-209.7-45.2c-34.8-8.3-69.5-17-104.2-25.7c-17.5-4.4-35.1-8.9-52.6-13.3
			c-9.3-2.4-30.6-12.6-40.2-10.4c-12,2.8-15.6,31.9-17.8,42.4C155.4,202.8,154.1,221.1,155.4,239.2z"/>
		<path class="st2" d="M184,129.3c-15.4,13.2-24.9,35-18.5,54.2c7.5,22.7,32.6,33.7,55.1,42.1c52.2,19.5,104.4,38.9,156.6,58.4
			c24.2,9,48.5,18.1,73.2,25.7c106.6,32.7,221.6,37.4,330.5,13.6c21.8-4.8,45-11.7,58.6-29.5c1.4-1.9,2.8-4,2.8-6.4
			c0-5.3-6.1-8-11.2-9.4c-181.4-50-374.7-55.7-549.9-124.5c-9.4-3.7-19.5-7.8-26.7-15.2c-6.8-6.9-9-17.9-16.7-24
			C222.6,102.6,196,119.1,184,129.3z"/>
		<path class="st3" d="M197,145.4c5-20.8,24.9-35.4,45.6-40.7c20.8-5.2,42.6-2.8,63.9-0.3c49.6,5.8,99.2,11.6,148.8,17.4
			c33.6,3.9,67.3,7.9,100,16.4c46.6,12.1,90.3,33.2,136.2,47.5c58.3,18.2,121.1,25.8,173.3,57.5c7.5,4.6,15.5,11,15.6,19.8
			c0,6.9-5,12.7-10.3,17.2c-19.3,16.3-44.9,22.7-69.8,27.1c-149.2,26.2-302.5-6.7-446.4-53.8c-47.4-15.5-94.7-32.8-136.2-60.4
			C203.8,183.9,192.9,162.3,197,145.4z"/>
		<path class="st4" d="M233.1,126.5c-6.3,4-13.1,9.3-13.3,16.7c-0.2,5.8,4,11,8.8,14.2c4.8,3.3,10.4,5.3,15.3,8.4
			c6.8,4.4,12.1,10.9,19.3,14.3c7.2,3.4,15.5,3.5,23.4,2.5c34.3-4.1,64.5-25.7,98.7-30.4c33.7-4.6,67.1,7.6,100.8,12
			c10.1,1.3,20.5,1.9,30.6,0c3.1-0.6,6.4-1.7,7.9-4.5c2.9-5.5-3.7-11.1-9.6-13.1c-22.5-7.9-47.2-4.3-71-5.1
			C377.6,139.4,294.9,87.3,233.1,126.5z"/>
		<path class="st4" d="M602.3,211c7.4,5.9,13.2,15.3,10.8,24.5c-1.8,7-8.2,12.2-15,14.6c-6.8,2.5-14.2,2.7-21.5,3.2
			c-16,1-31.9,3.3-47.6,6.6c-6.4,1.4-14.1,4.4-14.7,11c-0.6,7.5,8.7,11.4,16.1,12.8c90.2,16.8,182.9,4.7,273.8-7.5
			c7.6-1,16.3-2.7,20.1-9.4c3.2-5.6,1.5-13.1-2.6-18.1s-10.2-8-16.3-10.2c-22-8-46-8.1-68.7-13.8c-15.2-3.8-29.6-10.2-44-16.5
			c-18.9-8.3-37.7-16.5-56.6-24.8c-12.6-5.5-39.6-18.6-54.1-13.6C550.3,180.8,593.5,203.9,602.3,211z"/>
		<path class="st2" d="M646.2,305.1c6.3-4.4,12-13.4,6.8-19c-2.5-2.6-6.4-3.1-10-3.4c-7.1-0.6-14.8-1.3-20-6.2
			c-5.2-4.9-5.2-15.3,1.5-17.7c-0.4,8.9,9.8,14.4,18.7,15.8c8.8,1.4,18.9,1.5,24.9,8.2c7.2,7.9,4.5,20.3,1.3,30.5
			c-0.4,1.4-0.9,2.9-0.7,4.4c0.3,2.4,2.4,4.3,4.5,5.4c8.8,4.5,20.6-0.8,24.4-9.9c3.9-9.1,0.6-20.2-6.4-27.1
			c-7.2-7.1-17.7-10.5-23.6-18.7c-4.8-6.6-5.7-15.3-9.4-22.6c-5.8-11.6-17.6-18.6-28.9-25c3.6-1.9,8.1-0.4,11.3,2.2
			c3.1,2.6,5.4,6,8.4,8.8c6,5.7,14.5,8,21.1,13.1c13.1,10,16.8,28.7,29.6,39c14.2,11.5,37,10.5,47.9,25.1c1.7,2.3,3,5.3,2.1,7.9
			c-1.3,3.5-5.7,4.5-9.5,5c-41.6,5.2-83.7,10.4-125.6,6.4c-6-0.6-26.7-0.2-30.2-5.8c-3.9-6.2,5.3-7,10.3-7.2
			C614,313.6,628.8,317.1,646.2,305.1z"/>
		<path class="st2" d="M795.9,281.4c-9.5-5.4-20.5-7.4-31.1-10.3c-25.9-7.1-50.5-20.1-69-39.6c7.7-2.7,15.4,3.3,22.1,7.8
			c15.7,10.7,34.7,15.1,52.8,21c18.1,5.9,36.6,14.2,47.5,29.8c2.8,3.9,5,8.7,4.1,13.4c-1,4.9-6.3,8.1-10.6,5.8
			C815.5,297.7,805.4,286.8,795.9,281.4z"/>
		<path class="st4" d="M325,197.3c-6,3.6-12.5,11.2-8.1,16.6c1.4,1.7,3.6,2.6,5.7,3.3c13,4.5,26.6,7.4,39.7,11.7
			c24,7.8,46.6,20.2,71.4,25.3c10.2,2.1,21,2.9,30.7-0.9c9-3.5,16.1-10.7,24.8-14.9c19.8-9.6,43.3-2.4,65.3-3.7
			c3-0.2,6.3-0.6,8.4-2.7c3.9-3.8,1.9-10.6-1.5-14.9c-13.9-17.9-41.1-16.8-61.4-27c-13.3-6.7-24.9-19.3-40.4-20.9
			c-14-1.4-29.9-1.1-44.1-0.2C383.8,171.1,352.4,180.8,325,197.3z"/>
	</g>
	<path class="st5" d="M393,177.3c8.7,11.3,21.4,19,34.3,25.1c28,13.3,58.3,20.8,87.8,30.1c50.3,15.8,98.7,37.1,148.3,54.7
		c49.7,17.7,101.3,31.8,154,32.7c7.1,0.1,16.3-1.7,17.3-8.7c1-7.2-7.5-11.5-14.5-13.5C713.1,267,605.9,232,511.1,173.4
		c-28-17.3-56.5-37.7-89.8-43.3C387.8,124.5,370.7,148.4,393,177.3z"/>
	<g>
		<path class="st0" d="M1060.4,291.3c18.4-8.7,35-22.9,42.2-41.8c5-13.2,5.3-27.7,4.1-41.8c-0.3-3.3-0.7-6.8-2.3-9.7
			c-2.9-5.1-9-7.4-14.7-8.8c-24.5-5.9-51.4-1.2-72.5,12.7c-21.1,13.9-36,36.8-40.2,61.6c-1.7,9.8-1.7,20.1,2.3,29.2
			C992.3,322.6,1038.9,301.5,1060.4,291.3z"/>
		<path class="st1" d="M383.5,129.4c0,4.9,0.2,9.9,2,14.4c2.3,5.5,6.8,9.7,11.3,13.5c60.7,51.6,141.2,71.3,215.5,99.8
			c37.1,14.2,73.3,31,111.6,41.5c41.1,11.2,83.8,15.1,126.3,17.9c56.1,3.8,113.5,5.9,167.2-10.7c9.1-2.8,18.6-6.5,24.3-14.2
			c4.8-6.5,6.1-14.8,7.3-22.7c1.6-10.3,3.1-20.7,4.7-31c0.5-3,0.9-6.2-0.2-9c-1.8-4.6-7.1-6.8-11.8-8.3
			c-75.7-25.4-153.9-42.5-231.2-62.6c-69.2-18-137.8-38.5-205.9-60.1C570.6,87.1,536.6,76,502.6,64.8c-17.2-5.7-34.3-11.4-51.5-17.1
			c-9.2-3-29.6-14.8-39.4-13.2c-12.2,1.9-17.9,30.7-20.7,41C386.1,93,383.6,111.2,383.5,129.4z"/>
		<path class="st2" d="M419.9,21.8c-16.3,12-27.3,33.1-22.3,52.8c5.9,23.2,30.1,36,51.9,45.9c50.7,23.1,101.4,46.3,152,69.4
			c23.5,10.7,47.1,21.5,71.2,30.8c104,40.2,218.4,53.2,328.7,37.2c22.1-3.2,45.7-8.5,60.5-25.2c1.6-1.8,3.1-3.8,3.2-6.2
			c0.4-5.3-5.5-8.4-10.5-10.2c-177.4-62.8-369.8-82.3-539.6-163.4c-9.1-4.4-18.9-9.2-25.5-17.1c-6.3-7.4-7.7-18.5-14.9-25.1
			C460.4-2,432.7,12.4,419.9,21.8z"/>
		<path class="st3" d="M431.7,38.8c6.5-20.4,27.3-33.6,48.4-37.3c21.1-3.7,42.7,0.3,63.7,4.3c49,9.3,98.1,18.7,147.1,28
			c33.2,6.3,66.6,12.7,98.6,23.5c45.6,15.4,87.7,39.6,132.5,57.1c56.9,22.3,119,34.4,168.8,69.8c7.2,5.1,14.7,12.1,14.1,20.8
			c-0.5,6.9-5.9,12.3-11.5,16.4c-20.5,14.8-46.5,19.5-71.6,22c-150.6,15.5-301.3-28.3-441.4-85.5c-46.1-18.8-92.1-39.5-131.5-70
			C435.8,77.7,426.4,55.3,431.7,38.8z"/>
		<path class="st4" d="M469.2,22.6c-6.5,3.5-13.8,8.3-14.5,15.7c-0.6,5.8,3.2,11.2,7.8,14.8c4.6,3.6,10,6,14.7,9.5
			c6.4,4.8,11.3,11.7,18.3,15.7c6.9,3.9,15.2,4.6,23.1,4.2c34.5-1.7,66.1-21,100.6-23.2c33.9-2.2,66.4,12.4,99.7,19.2
			c10,2,20.3,3.4,30.5,2.2c3.1-0.4,6.6-1.2,8.2-3.9c3.3-5.2-2.9-11.3-8.6-13.8c-21.9-9.5-46.8-7.7-70.5-10.2
			C612.3,45.7,533.5-12.1,469.2,22.6z"/>
		<path class="st4" d="M831.4,133.2c6.9,6.4,12.1,16.2,9,25.2c-2.3,6.9-9,11.5-16,13.5c-7,2-14.4,1.7-21.7,1.6
			c-16-0.1-32.1,1-48,3.2c-6.5,0.9-14.4,3.4-15.4,9.9c-1.1,7.5,7.8,12,15.1,13.9c88.7,23.2,182.1,17.7,273.7,12.1
			c7.7-0.5,16.5-1.5,20.7-7.9c3.6-5.4,2.5-13-1.3-18.2c-3.8-5.3-9.6-8.7-15.5-11.3c-21.4-9.5-45.3-11.3-67.6-18.7
			c-14.9-4.9-28.8-12.2-42.7-19.6c-18.2-9.6-36.4-19.2-54.7-28.8c-12.2-6.4-38.2-21.4-53-17.4C781.6,99.4,823.1,125.5,831.4,133.2z"
			/>
		<path class="st2" d="M868.4,230.2c6.6-3.9,13-12.5,8.1-18.5c-2.3-2.8-6.2-3.5-9.7-4.1c-7-1.1-14.6-2.4-19.5-7.6
			c-4.8-5.2-4.1-15.7,2.7-17.6c-1,8.9,8.8,15,17.5,17.1c8.7,2,18.8,2.9,24.3,9.9c6.6,8.4,3,20.6-0.9,30.5c-0.5,1.4-1.1,2.8-1,4.3
			c0.2,2.4,2.1,4.4,4.1,5.7c8.4,5.1,20.6,0.7,25.1-8.1c4.5-8.8,2.1-20.1-4.4-27.5c-6.6-7.6-16.9-11.8-22.2-20.3
			c-4.3-7-4.6-15.7-7.7-23.2c-4.9-11.9-16.3-19.8-27-27c3.7-1.6,8.1,0.2,11.1,3c3,2.8,5,6.4,7.7,9.4c5.6,6.1,13.9,9.1,20.1,14.6
			c12.3,10.9,14.7,29.8,26.7,41c13.4,12.5,36.2,13.1,46,28.5c1.5,2.4,2.7,5.5,1.5,8.1c-1.6,3.4-6,4.1-9.8,4.3
			c-41.8,2.2-84.2,4.4-125.7-2.6c-5.9-1-26.6-2.1-29.8-8c-3.4-6.5,5.8-6.6,10.8-6.4C835.7,236.3,850.2,240.9,868.4,230.2z"/>
		<path class="st2" d="M1019.4,217.2c-9.1-6-20-8.8-30.3-12.5c-25.3-8.9-49-23.7-66-44.4c7.9-2.1,15.1,4.4,21.5,9.4
			c14.9,11.8,33.6,17.5,51.2,24.7c17.6,7.2,35.5,16.8,45.2,33.1c2.5,4.1,4.4,9.1,3.1,13.7c-1.4,4.8-6.9,7.7-11,5
			C1037.8,234.9,1028.6,223.3,1019.4,217.2z"/>
		<path class="st4" d="M555.7,99.7c-6.3,3.2-13.3,10.2-9.2,16c1.3,1.8,3.4,2.8,5.5,3.7c12.7,5.4,26,9.3,38.8,14.5
			c23.4,9.5,45.1,23.5,69.4,30.4c10,2.8,20.8,4.4,30.7,1.3c9.2-2.9,16.8-9.5,25.8-13.1c20.5-8.1,43.3,0.7,65.3,1
			c3,0,6.3-0.2,8.6-2.1c4.2-3.5,2.6-10.4-0.4-15c-12.6-18.9-39.8-19.7-59.3-31.3c-12.8-7.6-23.5-21.1-38.8-23.8
			c-13.8-2.4-29.7-3.3-43.9-3.4C616.2,77.8,584.2,85.2,555.7,99.7z"/>
		<path class="st8" d="M473.5,41.8c-5,16.1,7.9,32.1,21.2,42.6c30.5,23.9,67.7,37.5,104.7,48.9c28.2,8.7,57.9,16.4,86.9,10.8
			c2.5-0.5,5.1-1.1,7-2.9c3.4-3.2,2.9-9,0-12.8c-2.8-3.7-7.3-5.8-11.6-7.4c-44.2-17.1-96.9-13.4-134.7-42
			c-9.8-7.4-18.8-19.8-14.2-31.3c4.1-10.1,15.1-15.7,9.1-27.5c-4.5-8.8-12.1-8.9-20.6-7.6C504.5,15,478.9,24,473.5,41.8z"/>
	</g>
	<path class="st8" d="M206.7,153.1c-0.7,7.9,4.2,15.5,10.5,20.3c6.3,4.8,14,7.4,21.4,10.3c16.9,6.7,33.1,15.2,48.2,25.5
		c15.4,10.5,30.8,23.1,49.3,24.5c3.2,0.2,6.7,0,9-2.2c1.6-1.6,2.3-3.9,2.2-6.1c-0.1-5.3-4.2-9.8-8.9-12.2
		c-4.7-2.4-10.1-3.1-15.3-4.1c-24.8-4.6-48.1-15.2-71.1-25.7c-5.6-2.6-11.3-5.2-16.5-8.5c-6.6-4.2-13-10.7-12.3-18.5
		c0.5-6.2,5.3-11.1,9.8-15.4c1-0.9-7.2-2.3-7.8-2.2c-2.2,0.2-5.8,0.9-7.9,1.5C211.7,141.9,207.2,147.2,206.7,153.1z"/>
	<path class="st8" d="M52.1,252.7c-5.3,3.7-9.2,9.7-9.3,16.1c-0.2,8.1,5.2,15.3,10.9,21.2c3.4,3.5,7,6.9,11.1,9.5
		c11.6,7.5,26,8.8,39.2,13c14.3,4.6,27.1,12.6,40.9,18.4c1.4,0.6,3,1.2,4.5,0.8c2.3-0.6,3.5-3.2,3.7-5.6c0.6-6.5-3.6-12.6-9-16.2
		c-5.4-3.6-11.9-5.1-18.2-6.5c-17.1-3.8-34.4-7.4-50.8-13.5c-3.8-1.4-7.6-3-10.6-5.7c-3-2.7-5.1-6.8-4.5-10.8
		c0.7-4.3,4.2-7.5,8.2-9.4c3.9-1.8,8.2-2.5,12.4-3.7c2-0.6,4.2-1.5,5.1-3.4c1.2-2.9-1.3-5.9-4-7.5C73,244.5,59.8,247.3,52.1,252.7z"
		/>
</g>
</svg>
