<?xml version="1.0" encoding="utf-8"?>
<!-- Generator: Adobe Illustrator 25.2.3, SVG Export Plug-In . SVG Version: 6.00 Build 0)  -->
<svg version="1.1" id="Capa_1" xmlns="http://www.w3.org/2000/svg" xmlns:xlink="http://www.w3.org/1999/xlink" x="0px" y="0px"
	 width="245.7px" height="194.7px" viewBox="0 0 245.7 194.7" style="enable-background:new 0 0 245.7 194.7;" xml:space="preserve"
	>
<style type="text/css">
	.st0{fill:#A21E25;}
	.st1{fill:#CF7A29;}
	.st2{fill:#B35830;}
	.st3{fill:#D8923B;}
	.st4{fill:#F2BA5F;}
	.st5{fill:#342530;}
	.st6{fill:#FFCC73;}
	.st7{fill:#966C62;}
	.st8{fill:#D12E37;}
</style>
<g>
	<path class="st0" d="M241.6,79.3c-4.3,0-224.6-21.5-224.6-21.5s-9.8,0-9.2,5.5c0.6,5.5-5.5,1.2-6.8,7.4c-1.2,6.1,3.1,4.9,3.1,8.6
		s-5.5,8.6-3.7,11c1.8,2.5,7.4,1.2,10.4,3.7c3.1,2.5-2.5,11.7,1.2,12.9c3.7,1.2,9.8-3.1,12.9-0.6c3.1,2.5,0.6,8,5.5,9.2
		c4.9,1.2,8.6-3.1,11.7-1.2c3.1,1.8,0.6,8,4.3,9.2c3.7,1.2,5.5-3.7,9.2-3.1c3.7,0.6,2.5,8,6.1,8c3.7,0,2.5-7.4,7.4-6.1
		c4.9,1.2,3.7,8,7.4,9.2c3.7,1.2,6.8-5.5,10.4-3.7c3.7,1.8,3.1,9.2,8,9.2c4.9,0,2.5-6.8,8.6-6.1c6.1,0.6,3.1,6.8,8,7.4
		c4.9,0.6,5.5-4.9,12.3-5.5c6.8-0.6,6.1,4.9,8.6,5.5c2.5,0.6,1.2-5.5,8-6.1c6.8-0.6,6.1,4.9,9.8,4.3c3.7-0.6,3.1-8,8.6-9.2
		c5.5-1.2,6.8,4.3,10.4,4.9c3.7,0.6,3.1-7.4,7.4-8.6c4.3-1.2,5.5,2.5,9.8,1.8c4.3-0.6,6.1-9.2,9.8-7.4c3.7,1.8,6.1,4.9,11,2.5
		c4.9-2.5,3.7-9.2,8-8c4.3,1.2,3.7,3.7,7.4,2.5c3.7-1.2,1.8-3.1,6.1-3.7c3.3-0.5,5.6-5.4,7.6-6.5l2.3-3.9c0.6-3.8,0.2-9.4,4.2-9.9
		c0.9-0.1,1.5-0.6,2-1.2C246.9,86.7,245.1,79.3,241.6,79.3z"/>
	<path class="st1" d="M15.1,83.6c0,0,3.7,39.9,34.4,58.9c30.7,19,125.8,9.8,149.1-4.9c23.3-14.7,36.2-50.3,36.2-50.3L15.1,83.6z"/>
	<path class="st2" d="M222.5,114.9c-3.7,1.2-3.1-1.2-7.4-2.5c-4.3-1.2-3.1,5.5-8,8c-4.9,2.5-7.4-0.6-11-2.5
		c-3.7-1.8-5.5,6.8-9.8,7.4c-4.3,0.6-5.5-3.1-9.8-1.8c-4.3,1.2-3.7,9.2-7.4,8.6c-3.7-0.6-4.9-6.1-10.4-4.9c-5.5,1.2-4.9,8.6-8.6,9.2
		c-3.7,0.6-3.1-4.9-9.8-4.3c-6.7,0.6-5.5,6.8-8,6.1c-2.5-0.6-1.8-6.1-8.6-5.5c-6.8,0.6-7.4,6.1-12.3,5.5c-4.9-0.6-1.8-6.8-8-7.4
		c-6.1-0.6-3.7,6.1-8.6,6.1c-4.9,0-4.3-7.4-8-9.2c-3.7-1.8-6.8,4.9-10.4,3.7c-3.7-1.2-2.5-8-7.4-9.2c-4.9-1.2-3.7,6.1-7.4,6.1
		c-3.7,0-2.5-7.4-6.1-8c-3.7-0.6-5.5,4.3-9.2,3.1c-3.7-1.2-1.2-7.4-4.3-9.2c-3.1-1.8-6.8,2.5-11.7,1.2c-4.9-1.2-2.5-6.8-5.5-9.2
		c-3.1-2.5-9.2,1.8-12.9,0.6c-3.7-1.2,1.8-10.4-1.2-12.9c-3.1-2.5-8.6-1.2-10.4-3.7c0,0,38.7,67.5,44.8,74.3
		c6.1,6.8,30.7,30.1,80.4,30.1s74.3-28.8,74.3-28.8l36.4-61.1c-2,1.1-5.1,0.7-7.6,2.8C225,110.6,226.2,113.7,222.5,114.9z"/>
	<path class="st3" d="M15.1,83.6c-2.8-7.5,2.5-36.8,8.6-41.1c6.1-4.3,27.6-34.4,36.8-37.4c9.2-3.1,20.3,3.1,27.6,0
		c7.4-3.1,37.4-6.8,44.8-3.7c7.4,3.1,50.9,10.4,58.9,14.1c8,3.7,16,12.9,21.5,16c5.5,3.1,23.3,18.4,24.5,34.4
		c1.2,16-2.5,26.4-11,32.5c-8.6,6.1-51.5,32.5-106.2,28.2C63.6,122.1,22.5,103.3,15.1,83.6z"/>
	<path class="st4" d="M149.5,86.1c20.3-3.7,14.1-29.5,31.9-33.8c10.5-2.5,25.5-10.7,33.8-19.7c-0.7-0.5-1.4-0.9-1.9-1.2
		c-5.5-3.1-13.5-12.3-21.5-16c-8-3.7-51.6-11-58.9-14.1C125.6-1.7,95.5,2,88.1,5.1c-7.4,3.1-18.4-3.1-27.6,0
		c-9.2,3.1-30.7,33.1-36.8,37.4c0,0-6.8,23.9,12.3,31.9c19,8,41.1-16.6,59.5-11.7C113.9,67.7,129.3,89.8,149.5,86.1z"/>
	<path class="st5" d="M83.2,72.6c-7.2,7.2,6.5,39,40.6,33.7c3.4-0.5,5.6-3.7,5.2-7.1c-0.9-6.7-4.1-17.2-15.7-22.8
		C95.5,67.7,89.4,66.4,83.2,72.6z"/>
	<path class="st5" d="M71.6,9.4c-3.6-3-28.2,7.4-31.3,27C37.2,56,82,18,71.6,9.4z"/>
	<path class="st5" d="M139.1,9.4c0-4.9,5.5-11,10.4-8c4.9,3.1,9.8-4.3,17.2,0c7.4,4.3,11,15.3,9.8,20.9
		C175.3,27.8,139.1,9.4,139.1,9.4z"/>
	<path class="st5" d="M182,68.3c-0.5,3.3,3.1,14.1,13.5,17.2c10.4,3.1,12.3,12.3,18.4,8.6c6.1-3.7,7.4-19.6-8.6-27.6
		C189.4,58.5,183.3,60.3,182,68.3z"/>
	<path class="st6" d="M126.8,9.4c0,0-38-4.9-53.4,19.6c-15.3,24.5,18.4,18.4,25.8,9.2C106.5,29,135.4,20.4,126.8,9.4z"/>
	<path class="st7" d="M89.4,75.6c-1.5,3.6-3.7,9.8,1.8,8.6c5.5-1.2,16.6,0.6,16.6,4.3c0,3.7,4.3,8,8,6.1c3.7-1.8,2.5-9.8-3.1-11.7
		c-5.5-1.8-16.6-4.9-17.2-6.8C94.9,74.4,90.6,72.6,89.4,75.6z"/>
	<path class="st7" d="M94.3,89.8c-3,0.8,3.1,9.2,6.8,8.6C104.7,97.7,101,87.9,94.3,89.8z"/>
	<path class="st7" d="M189.4,67c-2.3,2.3-1.2,10.4,4.3,7.4c5.5-3.1,11.7-0.6,11,3.1c-0.6,3.7,0,6.1,3.7,6.1c3.7,0,3.7-9.8-0.6-11.7
		C203.5,70.1,192.5,64,189.4,67z"/>
	<path class="st7" d="M64.2,16.1c-1-4.8-17.2,7.4-16.6,10.4C48.2,29.6,64.8,19.2,64.2,16.1z"/>
	<path class="st7" d="M144.6,6.3c0,0,5.5-2.5,8.6,0c3.1,2.5,4.3,2.5,7.4,0c3.1-2.5,5.5,4.9,4.3,6.8C163.6,14.9,145.8,8.7,144.6,6.3z
		"/>
	<g>
		<path class="st8" d="M211.5,120.4c2.2-1.1-0.1,16.1-2.2,29.6l27-45.3c-2,1.1-5.1,0.7-7.6,2.8c-3.7,3.1-2.5,6.1-6.1,7.4
			c-3.7,1.2-3.1-1.2-7.4-2.5c-4.3-1.2-3.1,5.5-8,8c-4.9,2.5-7.4-0.6-11-2.5c-3.7-1.8-5.5,6.8-9.8,7.4c-4.3,0.6-5.5-3.1-9.8-1.8
			c-4.3,1.2-3.7,9.2-7.4,8.6c-3.7-0.6-4.9-6.1-10.4-4.9c-5.5,1.2-4.9,8.6-8.6,9.2c-3.7,0.6-3.1-4.9-9.8-4.3c-6.7,0.6-5.5,6.8-8,6.1
			c-2.5-0.6-1.8-6.1-8.6-5.5c-6.8,0.6-7.4,6.1-12.3,5.5c-4.9-0.6-1.8-6.8-8-7.4c-6.1-0.6-3.7,6.1-8.6,6.1c-4.9,0-4.3-7.4-8-9.2
			c-3.7-1.8-6.8,4.9-10.4,3.7c-3.7-1.2-2.5-8-7.4-9.2c-4.9-1.2-3.7,6.1-7.4,6.1c-3.7,0-2.5-7.4-6.1-8c-3.7-0.6-5.5,4.3-9.2,3.1
			c-3.7-1.2-1.2-7.4-4.3-9.2c-3.1-1.8-6.8,2.5-11.7,1.2c-4.9-1.2-2.5-6.8-5.5-9.2c-3.1-2.5-9.2,1.8-12.9,0.6
			c-3.7-1.2,1.8-10.4-1.2-12.9c-3.1-2.5-8.6-1.2-10.4-3.7c0,0,8.9,15.5,18.8,32.4c0-5.6,0.6-11.2,3.3-11.5c4-0.4,6.3,18.6,7.4,29.5
			c2.5,4.2,4.9,8.1,7.1,11.6c-0.2-13.3,0.1-33.1,3.4-31.9c3.8,1.4,5,31,5.4,44.7c1.5,1.6,3.8,3.9,7.1,6.5c-1-13-3.1-45.4,2.3-44.5
			c5.9,1.1,6.2,40.6,6.2,50.5c1.5,0.9,3.1,1.9,4.7,2.8c-0.3-15.8-0.5-53.5,3.8-52.1c4.4,1.5,4.5,40.5,4.4,56.2c2.4,1.1,5,2.1,7.7,3
			c-0.7-11.4-3-54.2,4.5-53.7c7.8,0.6,6,47.6,5.6,56.7c2.3,0.6,4.7,1.1,7.2,1.6c-0.1-12.7-0.2-54.2,5-55.3
			c5.6-1.1,5.6,47.7,5.5,56.8c2.8,0.3,5.7,0.5,8.7,0.7c-0.7-7.4-1.9-21.2-1.9-31.1c0-14.1,1.9-24.4,6.8-25.2
			c8-1.2,6.8,17.8,6.1,25.8c-0.5,5.9-0.6,22.3-0.6,30.6c2.3-0.1,4.5-0.2,6.7-0.3c-0.3-12.7-0.8-56.1,5-56.1c5.6,0,3.6,41.6,2.7,55.2
			c2.5-0.4,4.9-0.8,7.2-1.3c0.6-11.5,3.2-58.3,9.1-58.8c5.8-0.5,0.3,44.4-1.4,56.9c3.2-0.9,6.2-2,9-3.1c1-12.3,4.9-56,10.2-57.6
			c5-1.5,0.6,38.8-1.2,53.6c2.5-1.3,4.8-2.6,7-3.9c1-11.5,4.9-51.9,10.2-54c4.9-2,0,33.9-2.1,48.5c5.9-4.5,8.9-8,8.9-8l0.2-0.4
			C202.8,151.2,208.7,121.8,211.5,120.4z"/>
		<path class="st0" d="M123.1,138.2c-4.9,0.8-6.8,11-6.8,25.2c0,9.9,1.2,23.7,1.9,31.1c2.4,0.1,4.8,0.2,7.3,0.2c1,0,2.1,0,3.1-0.1
			c0-8.3,0.2-24.8,0.6-30.6C129.9,156,131.1,137,123.1,138.2z"/>
		<path class="st0" d="M140.3,138.2c-5.8,0-5.3,43.4-5,56.1c2.7-0.2,5.2-0.5,7.7-0.9C143.9,179.8,145.9,138.2,140.3,138.2z"/>
		<path class="st0" d="M159.3,133.3c-5.9,0.5-8.5,47.4-9.1,58.8c2.7-0.6,5.2-1.2,7.7-1.9C159.6,177.8,165.1,132.8,159.3,133.3z"/>
		<path class="st0" d="M177.1,129.6c-5.3,1.6-9.2,45.3-10.2,57.6c3.2-1.3,6.2-2.6,9-4C177.7,168.4,182.1,128.1,177.1,129.6z"/>
		<path class="st0" d="M193.1,125.3c-5.3,2.1-9.2,42.4-10.2,54c3.1-1.9,5.8-3.8,8-5.5C193.1,159.2,198,123.4,193.1,125.3z"/>
		<path class="st0" d="M211.5,120.4c-2.8,1.4-8.7,30.7-11.4,45l9.2-15.4C211.4,136.5,213.7,119.3,211.5,120.4z"/>
		<path class="st0" d="M104.1,137c-5.2,1-5.1,42.6-5,55.3c3.3,0.6,6.8,1.2,10.5,1.6C109.7,184.7,109.7,135.9,104.1,137z"/>
		<path class="st0" d="M86.3,133.9c-7.5-0.5-5.2,42.3-4.5,53.7c3.1,1.1,6.5,2.1,10.1,3C92.3,181.5,94,134.5,86.3,133.9z"/>
		<path class="st0" d="M69.7,128.4c-4.4-1.5-4.1,36.3-3.8,52.1c2.5,1.4,5.2,2.8,8.2,4.1C74.2,168.9,74.1,129.9,69.7,128.4z"/>
		<path class="st0" d="M55,127.2c-5.4-1-3.3,31.5-2.3,44.5c2.3,1.9,5.1,4,8.4,6C61.2,167.7,60.9,128.3,55,127.2z"/>
		<path class="st0" d="M40.3,120.4c-3.3-1.2-3.5,18.5-3.4,31.9c3.9,6.2,6.9,10.8,8.3,12.3c0.1,0.2,0.3,0.3,0.5,0.5
			C45.3,151.4,44,121.9,40.3,120.4z"/>
		<path class="st0" d="M22.5,111.2c-2.7,0.3-3.3,5.9-3.3,11.5c3.5,6,7.2,12.2,10.7,18C28.8,129.9,26.4,110.8,22.5,111.2z"/>
	</g>
	<path class="st6" d="M143.1,23.2c-5.4,0-11.7,6.5-8.4,11.7c3.2,5.2,5.2-5.8,11-5.2C151.5,30.4,149.6,23.2,143.1,23.2z"/>
	<path class="st6" d="M117.1,38.2c-3.8,0.6-5.8,4.5-3.9,9.1c1.9,4.5-4.5,6.5-4.5,6.5s7.1,5.8,10.4-1.3
		C122.3,45.3,121,37.5,117.1,38.2z"/>
	<path class="st6" d="M139.8,44c-4.3-2.9-11.7,4.5-9.1,9.7C133.3,59,143.7,46.6,139.8,44z"/>
	<path class="st6" d="M60,45.3c-4.5,0-6.5,1.3-7.8,8.4c-1.3,7.1-8.4,3.9-8.4,3.9s1.9,7.1,9.7,5.2C61.2,60.9,66.4,45.3,60,45.3z"/>
	<path class="st6" d="M33.3,44.7c-4.1,0-5.2,7.8-1.3,10.4C35.9,57.7,35.9,44.7,33.3,44.7z"/>
	<path class="st4" d="M165.8,32.3c-5.7-1.4-9.1,8.4-6.5,10.4C161.9,44.7,171,33.6,165.8,32.3z"/>
	<path class="st4" d="M63.2,81.1c-5.3,0.6-8.4,7.8-3.2,9.1C65.1,91.4,69,80.4,63.2,81.1z"/>
	<path class="st4" d="M25.5,78.5c-3.3,0,0,12.3,7.1,11C39.8,88.2,28.8,78.5,25.5,78.5z"/>
	<path class="st4" d="M150.9,105.7c-3.6-2.4,3.9-8.4,7.8-7.1c3.9,1.3,4.5-5.2,6.5-7.8c1.9-2.6,5.2,8.4,0,12.3
		C160,107,154.8,108.3,150.9,105.7z"/>
	<path class="st4" d="M210.6,46c0,0-2.6,7.1,1.9,9.1c4.5,1.9,3.9,7.8,7.1,7.1C223,61.6,216.5,42.7,210.6,46z"/>
</g>
</svg>
