<?xml version="1.0" encoding="utf-8"?>
<!-- Generator: Adobe Illustrator 25.2.3, SVG Export Plug-In . SVG Version: 6.00 Build 0)  -->
<svg version="1.1" id="Capa_1" xmlns="http://www.w3.org/2000/svg" xmlns:xlink="http://www.w3.org/1999/xlink" x="0px" y="0px"
	 width="69.5px" height="86.1px" viewBox="0 0 69.5 86.1" style="enable-background:new 0 0 69.5 86.1;" xml:space="preserve">
<style type="text/css">
	.st0{fill:#614B22;}
	.st1{fill:url(#SVGID_1_);}
	.st2{opacity:0.58;fill:#98AC2F;}
	.st3{opacity:0.71;fill:#728C2A;}
	.st4{fill:#4E412B;}
	.st5{fill:#6F5F46;}
	.st6{fill:url(#SVGID_2_);}
	.st7{opacity:0.58;fill:#A0BA31;}
	.st8{opacity:0.62;fill:#8FAA35;}
	.st9{opacity:0.6;fill:#D4DF50;}
	.st10{opacity:0.82;fill:#7E9929;}
	.st11{opacity:0.3;fill:#D4DF50;}
	.st12{opacity:0.65;fill:#EDFF66;}
	.st13{fill:#F9FBD4;}
	.st14{fill:#528521;}
	.st15{fill:url(#SVGID_3_);}
	.st16{opacity:0.65;fill:#9CCF53;}
</style>
<g>
	<path class="st0" d="M35.9,83.1C35.5,83.2,35,85.4,35,86c0.5,0.1,0.6-0.3,1-0.3c0.3,0,0.5,0.3,0.8,0.3c0.2,0,0.4-0.3,0.6-0.3
		c0.2,0,0.3,0.3,0.4,0.3c0.2,0,0.8,0.1,1-0.1c0.7-0.6,0.1-2.4-0.6-2.8C37.7,82.8,36.2,82.9,35.9,83.1z"/>
	<linearGradient id="SVGID_1_" gradientUnits="userSpaceOnUse" x1="38.2501" y1="21.9257" x2="38.1775" y2="33.0436">
		<stop  offset="0.1027" style="stop-color:#C6DD3C"/>
		<stop  offset="0.1552" style="stop-color:#C1D53A"/>
		<stop  offset="0.2558" style="stop-color:#BCCB38"/>
		<stop  offset="0.3899" style="stop-color:#BAC837"/>
		<stop  offset="0.4217" style="stop-color:#B1C536"/>
		<stop  offset="0.5087" style="stop-color:#9EBE35"/>
		<stop  offset="0.611" style="stop-color:#91BA35"/>
		<stop  offset="0.7418" style="stop-color:#89B734"/>
		<stop  offset="0.9987" style="stop-color:#87B634"/>
	</linearGradient>
	<path class="st1" d="M58.9,29.7l-7.4,1.9L41,34.4l-17-5.4l-6.4-2c0,0,7.6-2.9,17.5-1.6c0,0,3.5,0.4,6.1,0.2
		C41.2,25.6,51.7,25.2,58.9,29.7z"/>
	<path class="st2" d="M51.5,31.7l-8,2.1L41,34.4l-8.8-2.8l-8.2-2.6c0.3-0.2,0.7-0.3,0.9-0.5c0.8-0.5,1.6-1,2.4-1.3
		c2.2-0.8,4.8-0.7,7.1-0.4c1.4,0.2,2.9,0.4,4.3,0.3c1.2,0,2.4-0.4,3.7-0.3C45.3,27.2,50.3,28.5,51.5,31.7z"/>
	<path class="st3" d="M45.4,33.7l-3.3,0.7l-11.4-3c0.3-0.9,1.2-1.9,2.1-2.3c1.4-0.8,3.8-1,5.5-0.8c1.6,0.2,3.7,0.3,5.1,1.1
		c1,0.5,1.8,1.2,2.1,2.2C45.6,32.4,45.6,33.1,45.4,33.7z"/>
	<path class="st0" d="M31.2,17.4c0,0,4.6,4,6.5,15.2l1.5-0.9c0,0-2.6-12.2-7-15.4L31.2,17.4z"/>
	<path class="st4" d="M32.3,16.7c-0.1,0.1-0.1,0.1-0.2,0.2c-0.2,0.1-0.3,0.2-0.5,0.3c-0.3,0.2-0.6,0.3-0.9,0.3
		c-0.5-0.1-0.9-0.5-1.2-0.8c-0.5-0.4-0.9-0.9-1.3-1.4c-0.5-0.5-1.3-1.3-1.2-1.8c0.1-0.2,0.3-0.4,0.7-0.6c0.1,0,0.2,0,0.3-0.1
		c0.6-0.1,1.7-0.2,2.3-0.1c0.3,0.1,0.7,0.4,1,0.8C31.7,14.1,32.9,16,32.3,16.7z"/>
	<path class="st5" d="M31.3,13.6c-0.2,0.5-0.7,0.3-1.3,0.4c-0.7,0-1.5,0.8-2.2,0.4c-0.3-0.2-0.5-1.4-0.1-1.5c0.1,0,0.2,0,0.3-0.1
		c0.6-0.1,1.7-0.2,2.3-0.1C30.7,12.8,31,13.2,31.3,13.6z"/>
	<linearGradient id="SVGID_2_" gradientUnits="userSpaceOnUse" x1="-6.9425" y1="36.8127" x2="69.8257" y2="67.7383">
		<stop  offset="0.1027" style="stop-color:#C6DD3C"/>
		<stop  offset="0.4733" style="stop-color:#BAC837"/>
		<stop  offset="0.9987" style="stop-color:#87B634"/>
	</linearGradient>
	<path class="st6" d="M68.1,58.5C68,58.5,68,58.5,68.1,58.5c-0.8,2.5-1.8,4.8-3,7l0,0c-1,1.9-2.1,3.6-3.3,5.3
		c-2.5,3.6-5.4,6.9-8.8,9.8c-1.7,1.5-3.7,3.3-5.8,4.2c-1.8,0.8-4.1,0.3-5.9-0.6c0,0-5.1-1.5-9.6,0.1c-1.9,0.7-3.6,0.2-5.2-0.5
		c-0.8-0.4-1.6-0.8-2.4-1.3c-0.9-0.5-1.7-1-2.6-1.6c-2.4-1.7-4.7-3.6-6.9-5.5c-1.5-1.3-3-2.7-4.4-4.2c-1.5-1.6-2.9-3.3-4.2-5.1
		c0,0,0,0,0,0c-1.4-2-2.6-4.1-3.6-6.3c-2.8-6.1-3.3-12.8-1.3-19.1c0.3-0.8,0.6-1.6,0.9-2.5c0,0,2.1-4.7,7-8.1
		c3.5-2.4,8.4-4.1,15-3.1c0,0,0,0,0.1,0c0.2,0,0.4,0.1,0.6,0.1c0,0,4.5,0.7,8.7,3c0,0,0.8,0.5,2.2,0.9c0,0,0,0,0,0
		c0.2,0.1,0.4,0.1,0.7,0.1c0,0,0,0,0,0c0.4,0.1,0.8,0.1,1.3,0.1c0,0,0,0,0.1,0h0c0.3,0,0.6,0,1,0h0c1,0,2.2-0.2,3.5-0.6
		c0,0,12.1-5.4,20.1,0.9c0.7,0.5,1.3,1.2,1.9,1.9C64.3,33.6,72.7,40.8,68.1,58.5z"/>
	<path class="st7" d="M68.1,58.5C68,58.5,68,58.5,68.1,58.5c-1.4,4.5-3.7,8.6-6.3,12.4c-2.5,3.6-5.4,6.9-8.8,9.8
		c-1.7,1.5-3.7,3.3-5.8,4.2c-1.8,0.8-4.1,0.3-5.9-0.6c0,0-5.1-1.5-9.6,0.1c-1.9,0.7-3.6,0.2-5.2-0.5c-0.8-0.4-1.6-0.8-2.4-1.3
		c-0.9-0.5-1.7-1-2.6-1.6c-2.4-1.7-4.7-3.6-6.9-5.5c-1.5-1.3-3-2.7-4.4-4.2c6.5,2.2,15.5,0.8,15.5,0.8c16.7-5.5,19.7-21.5,19.7-21.5
		C49,35.5,39.2,32,36.4,31.3c0.4,0.1,0.8,0.1,1.3,0.1c0,0,0,0,0.1,0h0c0.3,0,0.6,0,1,0h0c1,0,2.2-0.2,3.5-0.6c0,0,14.3-6.3,22,2.8
		C64.3,33.6,72.7,40.8,68.1,58.5z"/>
	<path class="st8" d="M65,65.5c-1,1.9-2.1,3.6-3.3,5.3c-2.5,3.6-5.4,6.9-8.8,9.8c-1.7,1.5-3.7,3.3-5.8,4.2c-1.8,0.8-4.1,0.3-5.9-0.6
		c0,0-5.1-1.5-9.6,0.1c-1.9,0.7-3.6,0.2-5.2-0.5c-0.8-0.4-1.6-0.8-2.4-1.3c-0.9-0.5-1.7-1-2.6-1.6c-2.4-1.7-4.7-3.6-6.9-5.5
		c-1.5-1.3-3-2.7-4.4-4.2c-1.5-1.6-2.9-3.3-4.2-5.1C7.3,67.3,35.6,94.6,65,65.5z"/>
	<path class="st9" d="M32.1,38.3c0,0,0.4,13.2-17.4,18.7c0,0-11.7,4.3-13.9-7.9c0,0,0-5,0.4-8.3c0.3-0.8,0.6-1.6,0.9-2.5
		c0,0,5.9-13.6,22.1-11.2c0,0,0,0,0.1,0C27.3,27.9,32.8,30.3,32.1,38.3z"/>
	<path class="st10" d="M68.1,58.5C68,58.5,68,58.5,68.1,58.5c-1.4,4.5-3.7,8.6-6.3,12.4c-2.5,3.6-5.4,6.9-8.8,9.8
		c-1.7,1.5-3.7,3.3-5.8,4.2c-1.8,0.8-4.1,0.3-5.9-0.6c0,0-5.1-1.5-9.6,0.1c-1.9,0.7-3.6,0.2-5.2-0.5c-0.8-0.4-1.6-0.8-2.4-1.3
		c-0.9-0.5-1.7-1-2.6-1.6c3.8,1.3,7.3,0.8,7.3,0.8c3.4-0.7,9.2,0,9.2,0c8.5-0.3,11.2-4.6,11.2-4.6c13.2-11.6,9.5-30.8,9.5-30.8
		c-4.1-13.5-16.3-14.9-20.1-15c1,0,2.2-0.2,3.5-0.6c0,0,14.3-6.3,22,2.8C64.3,33.6,72.7,40.8,68.1,58.5z"/>
	<path class="st11" d="M62.3,31.7c-3.2,0-6.2,1.1-9.2,2.2c-6.3,2.4-12.9,4.5-19.6,2.8c-5.5-1.5-10.6-3.8-16.1-5.4
		c-2.2-0.7-5.6-1.4-8.4-1c3.5-2.4,8.4-4.1,15-3.1c0,0,0,0,0.1,0c0.2,0,0.4,0.1,0.6,0.1c0,0,4.5,0.7,8.7,3c0,0,0.8,0.5,2.2,0.9
		c0,0,0,0,0,0c0.2,0.1,0.4,0.1,0.7,0.1c0,0,0,0,0,0c0.4,0.1,0.8,0.1,1.3,0.1c0,0,0,0,0.1,0h0c0.3,0,0.6,0,1,0h0c1,0,2.2-0.2,3.5-0.6
		C42.3,30.8,54.4,25.4,62.3,31.7z"/>
	<path class="st12" d="M8.4,34.4c-1.8,2.3-3.3,5.3-3.3,8.3c0,4,3.3,6.4,7.1,5.7c2.8-0.5,5.3-2.1,7.4-3.8c1.6-1.3,3.5-3.4,4.4-5.2
		c0.5-0.9,0.7-2,0.9-3c0.4-2.5-0.3-5-2.5-6.5C17.8,26.6,12,29.8,8.4,34.4z"/>
	<path class="st13" d="M10.1,44.4c-1.3-1.7,1.3-5.2,2.9-3.3c1.1,1.3-0.4,3.5-1.8,3.7C10.6,44.9,10.3,44.7,10.1,44.4z"/>
	<path class="st13" d="M13.3,37.8c0.9,0.8,2.7,0.8,4.1,0.2c1.5-0.6,2.7-1.5,3.4-3c2.5-5.2-3.4-5.3-6.4-2.3c-0.8,0.8-1.4,1.8-1.6,2.8
		C12.6,36.6,12.8,37.3,13.3,37.8z"/>
	<g>
		<path class="st14" d="M38.1,27.7c0,0,1.3-7.1,5.9-11.8c0,0-5.9,8.8-5.4,13.5L38.1,27.7z"/>
		<linearGradient id="SVGID_3_" gradientUnits="userSpaceOnUse" x1="65.7119" y1="2.640786e-02" x2="38.7566" y2="21.0311">
			<stop  offset="0" style="stop-color:#8AC73A"/>
			<stop  offset="0.9987" style="stop-color:#5D8C30"/>
		</linearGradient>
		<path class="st15" d="M61.2,0c0,0,0,9.3-2.1,15.4c-0.2,0.6-0.4,1.1-0.6,1.6c-0.4,0.8-0.7,1.7-1.1,2.5c-1.2,2-3,3.7-5.4,4.3
			c-1.6,0.4-3.3,0.3-4.8-0.2c-2.4-0.6-3.9-1.7-5.5-3.5c0,0-10.5-1.9-5.8-10c0,0,1.5-3.2,8.3-4.8c1.4-0.3,3-0.6,4.9-0.7
			C48.9,4.6,57.3,4.5,61.2,0z"/>
		<path class="st14" d="M41.1,19.8c0,0,2.2-5.4,9.6-9.9c0,0,6.3-4.2,9.1-7.4c0,0,0,0,0,0c-1.2,1.7-2.3,2.6-3.7,3.9
			c-1,0.9-2.4,1.9-3.4,2.8c-1,0.8-2,1.4-3,2.1c-0.7,0.5-1.3,1-2,1.5c-2.5,2-4.9,4.4-6.1,7.3L41,20L41.1,19.8z"/>
		<path class="st14" d="M50.8,5c0,0-2.1,3.4-1.6,6.2l0.2-0.3C49.4,11,49,9.1,50.8,5z"/>
		<path class="st14" d="M53.6,8.6c0,0,2.9,0.8,6-1c0,0-3.4,1.2-5.6,0.7L53.6,8.6z"/>
		<path class="st14" d="M46.4,13.9c0,0,5.4,2.3,11.8,0.2c0,0-7,1.5-11.4-0.6L46.4,13.9z"/>
		<path class="st14" d="M43.7,15.8c0,0-1.7-6.1,1.9-9.5c0,0-3.1,3.4-1.5,9.1L43.7,15.8z"/>
		<path class="st14" d="M42.7,18c0,0,5.3,3.1,12.1,1c0,0-6.2,2.5-12.3-0.5L42.7,18z"/>
		<path class="st14" d="M41.7,18.6c0,0-2.5-4.7-1.1-9.4c0,0,0.2-0.7,0.4-1.3c0,0-3.1,4.4,0.5,11.3L41.7,18.6z"/>
		<path class="st16" d="M59.1,15.4C60.1,5.4,58,4.7,58,4.7c-6.3,2.2-14,0.7-14,0.7c1.4-0.3,3-0.6,4.9-0.7c0,0,8.4-0.1,12.3-4.6
			C61.2,0,61.2,9.3,59.1,15.4z"/>
	</g>
</g>
</svg>
