<?xml version="1.0" encoding="utf-8"?>
<!-- Generator: Adobe Illustrator 25.2.3, SVG Export Plug-In . SVG Version: 6.00 Build 0)  -->
<svg version="1.1" id="Capa_1" xmlns="http://www.w3.org/2000/svg" xmlns:xlink="http://www.w3.org/1999/xlink" x="0px" y="0px"
	 width="69px" height="70.9px" viewBox="0 0 69 70.9" style="enable-background:new 0 0 69 70.9;" xml:space="preserve">
<style type="text/css">
	.st0{fill:url(#SVGID_1_);}
	.st1{opacity:0.92;fill:#842B21;}
	.st2{fill:url(#SVGID_2_);}
	.st3{fill:url(#SVGID_3_);}
	.st4{fill:#4F6D2D;}
	.st5{opacity:0.65;fill:#9CCF53;}
	.st6{fill:#573A22;}
	.st7{fill:url(#SVGID_4_);}
	.st8{opacity:0.69;fill:#BB2E17;}
	.st9{opacity:0.92;fill:#A02619;}
	.st10{opacity:0.83;fill:#CC4921;}
	.st11{opacity:0.84;fill:#BB2E17;}
	.st12{opacity:0.87;fill:#E27945;}
	.st13{opacity:0.87;fill:#E48C51;}
	.st14{fill:#F7E4D8;}
	.st15{fill:#F2D0B6;}
	.st16{opacity:0.7;fill:#CE6C26;}
	.st17{opacity:0.45;fill:#E9A74F;}
	.st18{opacity:0.92;fill:#9C2514;}
</style>
<g>
	<linearGradient id="SVGID_1_" gradientUnits="userSpaceOnUse" x1="36.9607" y1="-4.1071" x2="39.9867" y2="17.7527">
		<stop  offset="0" style="stop-color:#DE7744"/>
		<stop  offset="0.2838" style="stop-color:#DB6434"/>
		<stop  offset="0.6393" style="stop-color:#C12D1D"/>
	</linearGradient>
	<path class="st0" d="M28.2,12.2c0,0,11.8-5.2,22.1,0.6l-8.7,3.3L28.2,12.2z"/>
	<path class="st1" d="M32.3,13.1c1.2-0.8,3.4-1.3,4.9-1.8c1.4-0.4,3.7-0.5,5.2-0.1c1.1,0.3,3,0.9,3.6,1.9c2.4,3.7-7.1,3.6-8.5,3.3
		C36.4,16.2,31.7,15.2,32.3,13.1z"/>
	<linearGradient id="SVGID_2_" gradientUnits="userSpaceOnUse" x1="73.2084" y1="10.8328" x2="49.8384" y2="39.4386">
		<stop  offset="0" style="stop-color:#DE7744"/>
		<stop  offset="0.2838" style="stop-color:#DB6434"/>
		<stop  offset="0.6421" style="stop-color:#CF361D"/>
	</linearGradient>
	<path class="st2" d="M69,32.9c0,4.1-0.7,9.2-2.6,15.3c0,0-6.2,16.2-15.4,20.7c0,0-4.8,1.8-8.8,1h0c-0.3-0.1-0.5-0.1-0.7-0.2
		c-0.2-0.1-0.4-0.1-0.6-0.2l0.6-2.2L47,60l6.6-8.8l1.8-14l-1.8-11.5l-6.2-9l-4.3-2.4c0,0,0.7-0.4,1.8-0.8c0.7-0.3,1.6-0.5,2.7-0.8
		c0,0,0,0,0,0c4.1-0.9,10.3-1,15.7,4.1C63.3,16.8,68.9,21.4,69,32.9z"/>
	<g>
		<linearGradient id="SVGID_3_" gradientUnits="userSpaceOnUse" x1="6.2587" y1="4.0382" x2="35.688" y2="6.6965">
			<stop  offset="0" style="stop-color:#8AC73A"/>
			<stop  offset="1" style="stop-color:#52803D"/>
		</linearGradient>
		<path class="st3" d="M37.3,9.6c-4.9,3.6-11.1,1.2-13.8-0.1c-0.8-0.4-1.3-0.7-1.3-0.7c-2.8-1.5-6.8-1.1-8.1-0.5
			C12.8,8.7,8.5,9.8,7.7,10c1.8-0.6,5.4-4.4,5.4-4.4c3-2.6,5.4-3.8,5.4-3.8c0.7-0.3,1.5-0.6,2.2-0.9C33-3.3,37.1,8.4,37.1,8.4
			L37.3,9.6z"/>
		<path class="st4" d="M39.8,11c0,0-6.7-8.6-20.6-6.7c0,0-3.4,0.5-5.6,2c0,0,13.7-6.1,24.7,4.2l1,1.3L39.8,11z"/>
		<path class="st4" d="M28.8,1.1c0,0,3.7,2,5.1,5.3l-0.7-0.3C33.2,6.1,31.7,3.1,28.8,1.1z"/>
		<path class="st4" d="M24.1,0.7c0,0,3.4,0.9,5.5,4.1l-0.8-0.2C28.8,4.6,27.2,1.9,24.1,0.7z"/>
		<path class="st4" d="M18.3,2.5c0,0,3.4-0.4,5.3,1.5H23C23,4,22,2.8,18.3,2.5z"/>
		<path class="st4" d="M27.6,5c0,0-0.6,2.6-5.8,2.7c0,0,4.5-0.4,5.3-2.8L27.6,5z"/>
		<path class="st4" d="M35.4,8.2c0,0-2.1,2.7-7.4,1.4c0,0,4.6,0.8,7-1.7L35.4,8.2z"/>
		<path class="st4" d="M19.3,4.8c0,0-1.3,1.7-3.2,2.2c0,0,2-1.2,2.7-2.2H19.3z"/>
		<path class="st5" d="M21.6,7.1c0.5,0.8,1.2,1.6,1.9,2.3c-0.8-0.4-1.3-0.7-1.3-0.7c-2.8-1.5-6.8-1.1-8.1-0.5
			C12.8,8.7,8.5,9.8,7.7,10c1.8-0.6,5.4-4.4,5.4-4.4c3-2.6,5.4-3.8,5.4-3.8c0.7-0.3,1.5-0.6,2.2-0.9c-0.2,0.1-0.4,0.2-0.6,0.3
			c-1.1,0.6-2,1.6-3,2.5c-0.6,0.6-1.3,1.2-1.6,2c1.4,0.1,2.7-0.5,4.1-0.2C20.6,5.8,21,6.3,21.6,7.1z"/>
		<path class="st5" d="M28.7,0.1C28.8,0.1,28.8,0.1,28.7,0.1C28.8,0.1,28.8,0.1,28.7,0.1C28.8,0.1,28.8,0.1,28.7,0.1
			C28.8,0.1,28.8,0.1,28.7,0.1z"/>
	</g>
	<path class="st6" d="M42.7,1.9c0,0-4.6,5.8-2.9,12.3l1.6,0.3c0,0-1.1-6.9,4-11.9C45.4,2.6,44.3,1.4,42.7,1.9z"/>
	<linearGradient id="SVGID_4_" gradientUnits="userSpaceOnUse" x1="-3.0193" y1="17.2363" x2="58.9291" y2="59.522">
		<stop  offset="6.312990e-02" style="stop-color:#DE7744"/>
		<stop  offset="0.4429" style="stop-color:#DB6434"/>
		<stop  offset="0.9878" style="stop-color:#D04426"/>
	</linearGradient>
	<path class="st7" d="M56.6,39.8c-0.2,3.4-0.6,6.9-1.4,10.3c0,0.1-0.1,0.3-0.1,0.4c-0.5,2.1-1.3,4.2-2.2,6.1
		c-1.6,3.3-3.8,6.4-6.5,8.9c-1.3,1.2-2.5,2.4-4,3.3c-0.3,0.2-0.6,0.3-0.9,0.5c-1,0.4-2.2,0.7-3.3,1c-3.3,0.9-6.8,0.6-10.2,0.2
		c-3.2-0.4-6.4-1.3-9.4-2.7C14,65.7,10,62.3,7,58.3c-1.1-1.5-2.3-3.1-3.1-4.9c-0.1-0.3-0.3-0.5-0.4-0.8c-0.3-0.8-0.7-1.7-1-2.5
		C-0.1,42.9-0.9,35,1.2,27.6c0.6-1.9,1.3-3.7,2.3-5.5c0.3-0.6,0.7-1.2,1-1.7c4.2-6.2,11.7-9,19-9.1c3.6,0,7.8,0.2,11.2,1.6
		c0.9,0.4,1.9,0.6,2.9,0.8c0,0,0,0,0,0c0.7,0.1,1.4,0.2,2.1,0.2c0.8,0.1,1.7,0.1,2.5,0.2c2.3,0.2,4.5,0.7,6.5,2.3
		c2.6,1.9,4.6,4.6,5.8,7.6C56.6,28.9,56.9,34.5,56.6,39.8z"/>
	<path class="st8" d="M66.4,48.2c0,0-6.2,16.2-15.4,20.7c0,0-6,2.3-10.1,0.6l0.6-2.2l3.6-0.6c1.1-0.2,2.7-1.8,3.6-2.5
		c1.1-0.9,2.1-1.8,3-2.7c1-1,2.1-2,3-3c2.1-2.4,3.7-5.1,5.1-7.9c0.8-1.5,1.6-3,2.2-4.5c1.1-3.1,1.9-6.3,2.5-9.5
		c1-5.6,0.5-11.5-2.9-16.3c-2.2-3.1-5.3-5.3-8.9-6.5c-1.4-0.5-3.7-1.3-5.2-1c4.1-0.9,10.3-1,15.7,4.1C63.3,16.8,73.6,25.3,66.4,48.2
		z"/>
	<path class="st9" d="M69,32.9c0,4.1-0.7,9.2-2.6,15.3c0,0-6.2,16.2-15.4,20.7c0,0-4.8,1.8-8.8,1c-0.3-0.1-0.5-0.1-0.7-0.2l-0.1-0.4
		c0.3-0.1,0.6-0.3,0.9-0.5c1.5-0.9,2.8-2.1,4-3.3c1.6-1.5,3-3.2,4.2-4.9c0.8-0.1,1.5-0.3,2.2-0.5c0,0,0,0,0,0
		C67.4,56,68.9,33.9,69,32.9z"/>
	<path class="st10" d="M56.6,39.8c-0.2,3.4-0.6,6.9-1.4,10.3c0,0.1-0.1,0.3-0.1,0.4c-0.5,2.1-1.3,4.2-2.2,6.1
		c-1.6,3.3-3.8,6.4-6.5,8.9c-1.3,1.2-2.5,2.4-4,3.3c-0.3,0.2-0.6,0.3-0.9,0.5c-1,0.4-2.2,0.7-3.3,1c-3.3,0.9-6.8,0.6-10.2,0.2
		c-3.2-0.4-6.4-1.3-9.4-2.7C14,65.7,10,62.3,7,58.3c-1.1-1.5-2.3-3.1-3.1-4.9c-0.1-0.3-0.3-0.5-0.4-0.8c-0.3-0.8-0.7-1.7-1-2.5
		c13.4,14.8,30,3.1,30,3.1c11.4-7.1,11.1-20.2,11.1-20.2c0.3-13.3-8.8-20-8.8-20c0.9,0.4,1.9,0.6,2.9,0.8c0,0,0,0,0,0
		c0.7,0.1,1.4,0.2,2.1,0.2c0.8,0.1,1.7,0.1,2.5,0.2c2.3,0.2,4.5,0.7,6.5,2.3c2.6,1.9,4.6,4.6,5.8,7.6C56.6,28.9,56.9,34.5,56.6,39.8
		z"/>
	<path class="st11" d="M56.6,39.8c-0.2,3.4-0.6,6.9-1.4,10.3c0,0.1-0.1,0.3-0.1,0.4c-0.5,2.1-1.3,4.2-2.2,6.1
		c-1.6,3.3-3.8,6.4-6.5,8.9c-1.3,1.2-2.5,2.4-4,3.3c-0.3,0.2-0.6,0.3-0.9,0.5c-1,0.4-2.2,0.7-3.3,1c-3.3,0.9-6.8,0.6-10.2,0.2
		c-3.2-0.4-6.4-1.3-9.4-2.7C14,65.7,10,62.3,7,58.3c-1.1-1.5-2.3-3.1-3.1-4.9c3.4,4.7,9.2,8,9.2,8c16.2,6.4,27.3-2.7,27.3-2.7
		c12-7.5,10.5-26.4,10.5-26.4c-0.8-14.4-12.3-18.3-13-18.5c0.7,0.1,1.4,0.2,2.1,0.2c0.8,0.1,1.7,0.1,2.5,0.2
		c2.3,0.2,4.5,0.7,6.5,2.3c2.6,1.9,4.6,4.6,5.8,7.6C56.6,28.9,56.9,34.5,56.6,39.8z"/>
	<path class="st12" d="M9.4,44c0,0,10.9,2.7,20.9-12.5c0,0,6.4-15.7-4.8-18.6c0,0-10.4-3-20.2,9.9c0,0-7.7,12.1,0,19.4
		C5.3,42.3,7.1,43.4,9.4,44z"/>
	<path class="st13" d="M10.4,34.6c0,0,8.5,1.8,14.4-8.1c0,0,4.6-9.1-3-11.5c0,0-7.7-0.5-12.9,7.1C8.9,22,2.9,30.7,10.4,34.6z"/>
	<path class="st14" d="M18.6,20.8c-1.7,1.1-3.6,1-4.4-0.1c-0.8-1.2-0.1-3,1.6-4.1c1.7-1.1,3.6-1,4.4,0.1
		C21,17.9,20.3,19.7,18.6,20.8z"/>
	<path class="st15" d="M12.9,25.7c-0.7,0.7-1.6,0.9-2.1,0.5c-0.5-0.5-0.4-1.4,0.3-2.2c0.7-0.7,1.6-0.9,2.1-0.5
		C13.7,24,13.6,24.9,12.9,25.7z"/>
	<path class="st16" d="M17.4,48.6c-1-1.8-1.2-4.5,0.6-5.8c1.9-1.3,4.9-0.7,7-1.4c3.9-1.3,5.6-4.8,9-6.9c1.8-1.1,2.2-1.9,3.1-3.8
		c1-2.1,2.4-3.7,4.1-0.9c1,1.6,1.3,3.8,2,5.6c1.2,3,2.2,5.9,2.2,9.2c0.1,4.8-2.9,7-6.4,9.6c-4.6,3.4-12.2,3.5-16.8-0.3
		C20.2,52.4,18.1,50.2,17.4,48.6z"/>
	<path class="st17" d="M17,51c0.1,0,0.3-0.1,0.4-0.1c1.8-0.6,3.2-1.8,4.8-2.8c4.4-2.8,8.3-6.4,11.4-10.6c0.9-1.2,1.7-2.5,2.5-3.9
		c0.8-1.4,1.2-3.2,2-4.6c0.7-1.1,2-1.6,3.1-0.8c1.1,0.9,1.3,2.9,1.6,4.2c0.6,2.9,0.5,5.9,0,8.7c-1,5.7-3.8,11.3-8.3,15.1
		c-1.5,1.3-3.1,2.3-4.9,3.1c0,0-8.8,4-14.5-4.9c-0.3-0.5-0.7-1.2-0.7-1.8C14.4,51.4,15.9,51.3,17,51z"/>
	<path class="st18" d="M56,54.6c0,0-1.2,2.5-3.2,5.6c0,0,0,0,0,0c-2.5,3.7-6.2,8.2-10.6,9.8h0c-0.2,0.1-0.5,0.2-0.7,0.2l-0.1-0.4
		l-0.1-0.4c0.3-0.1,0.6-0.3,0.9-0.5c1.5-0.9,2.8-2.1,4-3.3c1.6-1.5,3-3.2,4.2-4.9c0.9-1.3,1.7-2.6,2.3-4c1-2,1.7-4,2.2-6.1
		c0-0.1,0.1-0.3,0.1-0.4c0.8-3.4,1.2-6.8,1.4-10.3c0.3-5.3,0-10.9-2-15.8c-1.2-3-3.2-5.7-5.8-7.6c-1.8-1.4-3.7-1.9-5.8-2.2
		c0,0,0.7-0.4,1.8-0.8h0c0,0,8.5,0.2,13.4,11C58.3,24.4,63.7,39.4,56,54.6z"/>
	<path class="st10" d="M19.4,50c-0.2,0.1,0.6,0.9,0.9,1.1c0.7,0.5,1.4,1.1,2.2,1.5c1.3,0.7,2.7,0.6,4.1,0.7c2.4,0.2,4.9-1,6.6-2.6
		c1.7-1.5,3.1-3.3,4.5-5.1C38.8,44.2,43,36,39.2,35c-2.7-0.7-4.4,3-5.7,4.6c-1.1,1.3-2.1,1.9-3.8,1.9c-1.5,0.1-3,0.1-4.5,0
		c-2.7-0.1-4.9,0.5-6.1,3.2c-0.4,1-0.6,1.9-0.5,3C18.7,49.1,19.3,49.7,19.4,50z"/>
</g>
</svg>
