<?xml version="1.0" encoding="utf-8"?>
<!-- Generator: Adobe Illustrator 25.2.3, SVG Export Plug-In . SVG Version: 6.00 Build 0)  -->
<svg version="1.1" id="Capa_1" xmlns="http://www.w3.org/2000/svg" xmlns:xlink="http://www.w3.org/1999/xlink" x="0px" y="0px"
	 width="263.5px" height="224.5px" viewBox="0 0 263.5 224.5" style="enable-background:new 0 0 263.5 224.5;" xml:space="preserve"
	>
<style type="text/css">
	.st0{fill:#A21E25;}
	.st1{fill:#E88023;}
	.st2{fill:#DA6A2D;}
	.st3{fill:#EB9C6E;}
	.st4{fill:#F59953;}
	.st5{fill:#691E18;}
	.st6{fill:#CD3D00;}
	.st7{fill:#4A0500;}
	.st8{fill:#FDBFB0;}
</style>
<g>
	<path class="st0" d="M47.1,192.4C26.1,181.1-6.3,157,2,104.3C10.3,51.6,45.6,33.6,62.2,26c16.6-7.5,58-29.4,91.8-25.6
		c33.9,3.8,73.8,22.6,97.1,68.5c23.3,45.9,8.3,91.1-0.8,97.9c-9,6.8-17.3,8.3-18.8,12.8c-1.5,4.5-9.8,7.5-15.8,13.5
		c-6,6-21.8,27.9-46.7,30.1c-24.8,2.3-30.1-9.8-44.4-9c-14.3,0.8-42.9,0.8-53.4-7.5C60.7,198.4,47.1,192.4,47.1,192.4z"/>
	<path class="st1" d="M47.1,192.4C26.1,181.1-6.3,157,2,104.3C10.3,51.6,45.6,33.6,62.2,26c16.6-7.5,58-29.4,91.8-25.6
		c33.9,3.8,73.8,22.6,97.1,68.5c23.3,45.9,8.3,91.1-0.8,97.9c-9,6.8-17.3,8.3-18.8,12.8c-1.5,4.5-9.8,7.5-15.8,13.5
		c-6,6-21.8,27.9-46.7,30.1c-24.8,2.3-30.1-9.8-44.4-9c-14.3,0.8-42.9,0.8-53.4-7.5C60.7,198.4,47.1,192.4,47.1,192.4z"/>
	<path class="st2" d="M251.1,68.9C227.8,23,187.9,4.2,154,0.4C120.2-3.3,78.8,18.5,62.2,26c-7.2,3.3-18,8.6-28.6,17.9
		c5.4-0.4,70.2-4.2,95.6,16.4c26.5,21.5,61,64.4,68.9,68.9c7.9,4.5,11.3,14.1,11.3,26c0,11.9-1.1,19.2,2.3,16.4
		c3.4-2.8,2.3-35-0.6-41.8c-2.8-6.8-7.9-23.1-4-26.5c4-3.4,10.7,22.6,14.7,25.4c4,2.8,5.6,21.5,5.6,27.1c0,5.6,7.3,7.3,6.8-1.1
		c-0.6-8.5-5.1-31.1,2.3-29.9c7.3,1.1,7.3,28.2,6.8,35c-0.6,6.8,5.6,5.1,6.2-7.9c0.6-13-2.3-36.1-1.1-42.9c1.1-6.8-6.2-22.6-3.4-26
		c2.8-3.4,8.5,16.9,13.5,15.2c0.8-0.3,1.6-1.1,2.4-2.2C258.9,87.1,255.8,78.1,251.1,68.9z"/>
	<path class="st3" d="M154,0.4C120.2-3.3,78.8,18.5,62.2,26c-7.5,3.4-18.8,9-29.7,18.9l2.4,7.5h86.4c0,0,67.2,68.3,76.2,64.9
		c9-3.4-6.7-28.4,1.7-31.1c9-2.8,14.1,14.7,20.3,4.5c6.2-10.2-18.6-25.4-14.1-31.6c4.5-6.2,11.9,0,31.6,10.7
		c9.2,5,12.7,2.7,13.9-1.3C227.6,22.9,187.8,4.2,154,0.4z"/>
	<path class="st4" d="M68.2,32c-12.8,1.6-23.4,5.2-32.1,9.7C21.6,53.6,6.9,72.8,2,104.3c-8.3,52.7,24.1,76.8,45.2,88.1
		c0,0,13.5,6,24.1,14.3c10.5,8.3,39.1,8.3,53.4,7.5c10.6-0.6,16.3,5.9,28.7,8.4c2.5-0.4,5-1,7.4-1.6c24.8-6.8,49.7-47.4,35.4-98.6
		C181.9,71.2,117.1,26,68.2,32z"/>
	<path class="st4" d="M164.2,164.7c-18.1-6.8,6.2-29.4-45.7-75.6C81.2,55.9,32.9,69.7,8.1,80.8c-2.7,7-4.8,14.7-6.2,23.5
		c-8.3,52.7,24.1,76.8,45.2,88.1c0,0,13.5,6,24.1,14.3c10.5,8.3,39.1,8.3,53.4,7.5c10.5-0.6,16.2,5.8,28.4,8.3
		c17.6-1.1,22.5-10.6,24.9-15.3C186.4,190.9,182.3,171.5,164.2,164.7z"/>
	<path class="st5" d="M47.3,164.7c-9.1-1-16.9-20.9-7.3-32.7c9.6-11.9,27.1-13.5,40.6-2.8c13.5,10.7,24.8,40.6,15.8,54.8
		c-9,14.1-29.9,15.8-51.9,2.8c-22-13-37.3-42.9-28.2-68.3C25.3,93,55.8,75.5,89.7,84c33.9,8.5,62.7,48.6,57.6,76.2
		c-5.1,27.7-17.6,47.9-35,51.4c-44.6,9-51.9-18.6-51.9-18.6s33.9,26.5,59.3-1.7c13.4-14.8,20.9-57-28.8-84.7
		c-49.7-27.7-71.1,24.3-64.9,40.1c6.2,15.8,20.3,35.6,41.2,37.8c20.9,2.3,31.6-9,18.6-35c-13-26-27.1-13-28.8-7.3
		C55.2,147.8,58.1,165.8,47.3,164.7z"/>
	<path class="st6" d="M34.9,42.8c0,0,41.2-10.7,58.1-5.1c16.9,5.6,30.5,0.6,45.2,16.9c14.7,16.4,16.4,21.5,28.2,28.2
		c11.9,6.8,22,31.6,26.5,53.1c4.5,21.5-4,57-11.9,63.2c-7.9,6.2-15.8,16.9-28.8,13c-13-4-21.5-4-29.9-2.3
		c-8.5,1.7-28.8,4.9-32.8,3.2c0,0,26,4.1,37.3,4.1c11.3,0,22.6,9.6,33.3,6.8c10.7-2.8,23.7-10.7,29.4-23.7
		c5.6-13,15.2-23.7,10.7-54.2c-4.5-30.5-6.2-46.3-24.3-66.6c-18.1-20.3-14.7-16.9-28.2-28.2s-20.9-14.1-33.9-16.4
		c-13-2.3-20.9-10.7-31.1-7.3c-10.2,3.4-26.8,2.7-35.1,5.9C44.1,34.8,34.9,42.8,34.9,42.8z"/>
	<path class="st5" d="M81.8,209.9c0,0-7.3-10.2-23.1-17.5C42.8,185,7.8,169.2,5.5,130.3c-2.3-39,17.5-62.1,39-70
		C66,52.4,95.3,49,121.8,67.1c26.5,18.1,46.3,44,51.9,74.5c5.6,30.5,5.6,0,4-6.2c-1.7-6.2-5.6-28.8-27.1-51.9
		c-21.5-23.1-42.3-39.5-79-37.3c-36.7,2.3-44.9,16.1-54.2,25.4c-9.3,9.3-19.8,29.4-16.9,57c2.8,27.7,19.4,49.7,46.7,63.8
		C74.4,206.5,71.6,211,81.8,209.9z"/>
	<g>
		<path class="st7" d="M164.8,33.7c2.2,0,2.2-3.4,0-3.4C162.6,30.4,162.6,33.7,164.8,33.7L164.8,33.7z"/>
	</g>
	<g>
		<path class="st7" d="M169.3,29.8c2.2,0,2.2-3.4,0-3.4C167.1,26.4,167.1,29.8,169.3,29.8L169.3,29.8z"/>
	</g>
	<g>
		<path class="st7" d="M164.8,25.3c2.2,0,2.2-3.4,0-3.4C162.6,21.9,162.6,25.3,164.8,25.3L164.8,25.3z"/>
	</g>
	<g>
		<path class="st7" d="M156.8,26.4c2.2,0,2.2-3.4,0-3.4C154.7,23,154.7,26.4,156.8,26.4L156.8,26.4z"/>
	</g>
	<g>
		<path class="st7" d="M150.6,33.7c2.2,0,2.2-3.4,0-3.4C148.5,30.4,148.5,33.7,150.6,33.7L150.6,33.7z"/>
	</g>
	<g>
		<path class="st7" d="M139.9,28.7c2.2,0,2.2-3.4,0-3.4C137.7,25.3,137.7,28.7,139.9,28.7L139.9,28.7z"/>
	</g>
	<g>
		<path class="st7" d="M142.7,21.9c2.2,0,2.2-3.4,0-3.4C140.6,18.5,140.6,21.9,142.7,21.9L142.7,21.9z"/>
	</g>
	<g>
		<path class="st7" d="M129.2,21.9c2.2,0,2.2-3.4,0-3.4C127,18.5,127,21.9,129.2,21.9L129.2,21.9z"/>
	</g>
	<g>
		<path class="st7" d="M128.1,28.1c2.2,0,2.2-3.4,0-3.4C125.9,24.7,125.9,28.1,128.1,28.1L128.1,28.1z"/>
	</g>
	<g>
		<path class="st7" d="M116.2,28.1c2.2,0,2.2-3.4,0-3.4C114,24.7,114,28.1,116.2,28.1L116.2,28.1z"/>
	</g>
	<g>
		<path class="st7" d="M104.3,22.5c2.2,0,2.2-3.4,0-3.4C102.2,19.1,102.2,22.5,104.3,22.5L104.3,22.5z"/>
	</g>
	<g>
		<path class="st7" d="M90.2,23c2.2,0,2.2-3.4,0-3.4C88.1,19.6,88,23,90.2,23L90.2,23z"/>
	</g>
	<g>
		<path class="st7" d="M106.6,14.5c2.2,0,2.2-3.4,0-3.4C104.4,11.2,104.4,14.5,106.6,14.5L106.6,14.5z"/>
	</g>
	<g>
		<path class="st7" d="M97.6,17.9c2.2,0,2.2-3.4,0-3.4C95.4,14.5,95.4,17.9,97.6,17.9L97.6,17.9z"/>
	</g>
	<g>
		<path class="st7" d="M116.8,16.2c2.2,0,2.2-3.4,0-3.4C114.6,12.9,114.6,16.2,116.8,16.2L116.8,16.2z"/>
	</g>
	<g>
		<path class="st7" d="M127.5,12.9c2.2,0,2.2-3.4,0-3.4C125.3,9.5,125.3,12.9,127.5,12.9L127.5,12.9z"/>
	</g>
	<g>
		<path class="st7" d="M134.3,9.5c2.2,0,2.2-3.4,0-3.4C132.1,6.1,132.1,9.5,134.3,9.5L134.3,9.5z"/>
	</g>
	<g>
		<path class="st7" d="M141.6,14c2.2,0,2.2-3.4,0-3.4C139.4,10.6,139.4,14,141.6,14L141.6,14z"/>
	</g>
	<g>
		<path class="st7" d="M148.9,10c2.2,0,2.2-3.4,0-3.4C146.8,6.6,146.8,10,148.9,10L148.9,10z"/>
	</g>
	<g>
		<path class="st7" d="M158,15.7c2.2,0,2.2-3.4,0-3.4C155.8,12.3,155.8,15.7,158,15.7L158,15.7z"/>
	</g>
	<g>
		<path class="st7" d="M150.6,20.2c2.2,0,2.2-3.4,0-3.4C148.5,16.8,148.5,20.2,150.6,20.2L150.6,20.2z"/>
	</g>
	<g>
		<path class="st7" d="M169.3,17.4c2.2,0,2.2-3.4,0-3.4C167.1,14,167.1,17.4,169.3,17.4L169.3,17.4z"/>
	</g>
	<g>
		<path class="st7" d="M182.3,15.7c2.2,0,2.2-3.4,0-3.4C180.1,12.3,180.1,15.7,182.3,15.7L182.3,15.7z"/>
	</g>
	<g>
		<path class="st7" d="M178.3,23c2.2,0,2.2-3.4,0-3.4C176.1,19.6,176.1,23,178.3,23L178.3,23z"/>
	</g>
	<g>
		<path class="st7" d="M186.2,25.8c2.2,0,2.2-3.4,0-3.4C184,22.5,184,25.8,186.2,25.8L186.2,25.8z"/>
	</g>
	<g>
		<path class="st7" d="M194.7,21.9c2.2,0,2.2-3.4,0-3.4C192.5,18.5,192.5,21.9,194.7,21.9L194.7,21.9z"/>
	</g>
	<g>
		<path class="st7" d="M198.6,30.4c2.2,0,2.2-3.4,0-3.4C196.4,27,196.4,30.4,198.6,30.4L198.6,30.4z"/>
	</g>
	<g>
		<path class="st7" d="M191.3,38.8c2.2,0,2.2-3.4,0-3.4C189.1,35.4,189.1,38.8,191.3,38.8L191.3,38.8z"/>
	</g>
	<g>
		<path class="st7" d="M177.7,38.8c2.2,0,2.2-3.4,0-3.4C175.6,35.4,175.6,38.8,177.7,38.8L177.7,38.8z"/>
	</g>
	<g>
		<path class="st7" d="M179.4,51.2c2.2,0,2.2-3.4,0-3.4C177.3,47.9,177.2,51.2,179.4,51.2L179.4,51.2z"/>
	</g>
	<g>
		<path class="st7" d="M168.1,49c2.2,0,2.2-3.4,0-3.4C166,45.6,166,49,168.1,49L168.1,49z"/>
	</g>
	<g>
		<path class="st7" d="M172.1,59.7c2.2,0,2.2-3.4,0-3.4C169.9,56.3,169.9,59.7,172.1,59.7L172.1,59.7z"/>
	</g>
	<g>
		<path class="st7" d="M156.3,48.4c2.2,0,2.2-3.4,0-3.4C154.1,45,154.1,48.4,156.3,48.4L156.3,48.4z"/>
	</g>
	<g>
		<path class="st7" d="M187.9,58c2.2,0,2.2-3.4,0-3.4C185.7,54.6,185.7,58,187.9,58L187.9,58z"/>
	</g>
	<g>
		<path class="st7" d="M196.4,49.5c2.2,0,2.2-3.4,0-3.4C194.2,46.2,194.2,49.5,196.4,49.5L196.4,49.5z"/>
	</g>
	<g>
		<path class="st7" d="M208.8,47.3c2.2,0,2.2-3.4,0-3.4C206.6,43.9,206.6,47.3,208.8,47.3L208.8,47.3z"/>
	</g>
	<g>
		<path class="st7" d="M206.5,39.4c2.2,0,2.2-3.4,0-3.4C204.4,36,204.3,39.4,206.5,39.4L206.5,39.4z"/>
	</g>
	<g>
		<path class="st7" d="M218.4,40.5c2.2,0,2.2-3.4,0-3.4C216.2,37.1,216.2,40.5,218.4,40.5L218.4,40.5z"/>
	</g>
	<g>
		<path class="st7" d="M207.1,28.1c2.2,0,2.2-3.4,0-3.4C204.9,24.7,204.9,28.1,207.1,28.1L207.1,28.1z"/>
	</g>
	<g>
		<path class="st7" d="M143.9,40c2.2,0,2.2-3.4,0-3.4C141.7,36.6,141.7,40,143.9,40L143.9,40z"/>
	</g>
	<g>
		<path class="st7" d="M196.9,67.6c2.2,0,2.2-3.4,0-3.4C194.8,64.2,194.7,67.6,196.9,67.6L196.9,67.6z"/>
	</g>
	<g>
		<path class="st7" d="M220.1,54.6c0,0.2,0,0.4,0,0.6c0,2.2,3.4,2.2,3.4,0c0-0.2,0-0.4,0-0.6C223.5,52.5,220.1,52.4,220.1,54.6
			L220.1,54.6z"/>
	</g>
	<g>
		<path class="st7" d="M230.2,49c0-0.2,0-0.4,0-0.6c0-2.2-3.4-2.2-3.4,0c0,0.2,0,0.4,0,0.6C226.9,51.2,230.2,51.2,230.2,49L230.2,49
			z"/>
	</g>
	<g>
		<path class="st7" d="M231.4,55.2c0,0.2,0,0.4,0,0.6c0,2.2,3.4,2.2,3.4,0c0-0.2,0-0.4,0-0.6C234.8,53,231.4,53,231.4,55.2
			L231.4,55.2z"/>
	</g>
	<g>
		<path class="st7" d="M165.9,10.6c2.2,0,2.2-3.4,0-3.4C163.7,7.2,163.7,10.6,165.9,10.6L165.9,10.6z"/>
	</g>
	<g>
		<path class="st7" d="M134.8,35.4c2.2,0,2.2-3.4,0-3.4C132.7,32,132.6,35.4,134.8,35.4L134.8,35.4z"/>
	</g>
	<g>
		<path class="st7" d="M175.5,32c2.2,0,2.2-3.4,0-3.4C173.3,28.7,173.3,32,175.5,32L175.5,32z"/>
	</g>
	<g>
		<path class="st7" d="M187.3,47.9c0.2,0,0.4,0,0.6,0c2.2,0,2.2-3.4,0-3.4c-0.2,0-0.4,0-0.6,0C185.2,44.5,185.2,47.9,187.3,47.9
			L187.3,47.9z"/>
	</g>
	<g>
		<path class="st7" d="M165.3,42.2c0.2,0,0.4,0,0.6,0c2.2,0,2.2-3.4,0-3.4c-0.2,0-0.4,0-0.6,0C163.1,38.8,163.1,42.2,165.3,42.2
			L165.3,42.2z"/>
	</g>
	<g>
		<path class="st7" d="M154.6,43.3c2.2,0,2.2-3.4,0-3.4C152.4,40,152.4,43.3,154.6,43.3L154.6,43.3z"/>
	</g>
	<g>
		<path class="st7" d="M174.4,15.7c2.2,0,2.2-3.4,0-3.4C172.2,12.3,172.2,15.7,174.4,15.7L174.4,15.7z"/>
	</g>
	<g>
		<path class="st7" d="M145,27c2.2,0,2.2-3.4,0-3.4C142.8,23.6,142.8,27,145,27L145,27z"/>
	</g>
	<g>
		<path class="st7" d="M123,19.6c2.2,0,2.2-3.4,0-3.4C120.8,16.2,120.8,19.6,123,19.6L123,19.6z"/>
	</g>
	<g>
		<path class="st7" d="M180,32c2.2,0,2.2-3.4,0-3.4C177.8,28.7,177.8,32,180,32L180,32z"/>
	</g>
	<g>
		<path class="st7" d="M191.9,28.7c2.2,0,2.2-3.4,0-3.4C189.7,25.3,189.7,28.7,191.9,28.7L191.9,28.7z"/>
	</g>
	<g>
		<path class="st7" d="M203.1,72.7c2.2,0,2.2-3.4,0-3.4C201,69.3,201,72.7,203.1,72.7L203.1,72.7z"/>
	</g>
	<g>
		<path class="st7" d="M191.9,83.4c2.2,0,2.2-3.4,0-3.4C189.7,80,189.7,83.4,191.9,83.4L191.9,83.4z"/>
	</g>
	<g>
		<path class="st7" d="M32.1,91.3c2.2,0,2.2-3.4,0-3.4C29.9,87.9,29.9,91.3,32.1,91.3L32.1,91.3z"/>
	</g>
	<g>
		<path class="st7" d="M24.2,98.1c2.2,0,2.2-3.4,0-3.4C22,94.7,22,98.1,24.2,98.1L24.2,98.1z"/>
	</g>
	<g>
		<path class="st7" d="M40,81.2c2.2,0,2.2-3.4,0-3.4C37.8,77.8,37.8,81.2,40,81.2L40,81.2z"/>
	</g>
	<g>
		<path class="st7" d="M47.3,82.9c2.2,0,2.2-3.4,0-3.4C45.1,79.5,45.1,82.9,47.3,82.9L47.3,82.9z"/>
	</g>
	<g>
		<path class="st7" d="M52.4,75.5c2.2,0,2.2-3.4,0-3.4C50.2,72.1,50.2,75.5,52.4,75.5L52.4,75.5z"/>
	</g>
	<g>
		<path class="st7" d="M59.7,78.3c2.2,0,2.2-3.4,0-3.4C57.6,75,57.6,78.3,59.7,78.3L59.7,78.3z"/>
	</g>
	<g>
		<path class="st7" d="M54.7,85.1c2.2,0,2.2-3.4,0-3.4C52.5,81.7,52.5,85.1,54.7,85.1L54.7,85.1z"/>
	</g>
	<g>
		<path class="st7" d="M73.3,84c2.2,0,2.2-3.4,0-3.4C71.1,80.6,71.1,84,73.3,84L73.3,84z"/>
	</g>
	<g>
		<path class="st7" d="M73.3,82.9c2.2,0,2.2-3.4,0-3.4C71.1,79.5,71.1,82.9,73.3,82.9L73.3,82.9z"/>
	</g>
	<g>
		<path class="st7" d="M80.1,77.8c2.2,0,2.2-3.4,0-3.4C77.9,74.4,77.9,77.8,80.1,77.8L80.1,77.8z"/>
	</g>
	<g>
		<path class="st7" d="M86.8,84c2.2,0,2.2-3.4,0-3.4C84.7,80.6,84.7,84,86.8,84L86.8,84z"/>
	</g>
	<g>
		<path class="st7" d="M95.3,80c2.2,0,2.2-3.4,0-3.4C93.1,76.6,93.1,80,95.3,80L95.3,80z"/>
	</g>
	<g>
		<path class="st7" d="M93.1,72.7c2.2,0,2.2-3.4,0-3.4C90.9,69.3,90.9,72.7,93.1,72.7L93.1,72.7z"/>
	</g>
	<g>
		<path class="st7" d="M20.2,111.6c0.2,0,0.4,0,0.6,0c2.2,0,2.2-3.4,0-3.4c-0.2,0-0.4,0-0.6,0C18,108.3,18,111.6,20.2,111.6
			L20.2,111.6z"/>
	</g>
	<g>
		<path class="st7" d="M11.2,112.8c2.2,0,2.2-3.4,0-3.4C9,109.4,9,112.8,11.2,112.8L11.2,112.8z"/>
	</g>
	<g>
		<path class="st7" d="M11.8,120.7c2.2,0,2.2-3.4,0-3.4C9.6,117.3,9.6,120.7,11.8,120.7L11.8,120.7z"/>
	</g>
	<g>
		<path class="st7" d="M115.6,90.8c2.2,0,2.2-3.4,0-3.4C113.5,87.4,113.5,90.8,115.6,90.8L115.6,90.8z"/>
	</g>
	<g>
		<path class="st7" d="M106.6,87.4c2.2,0,2.2-3.4,0-3.4C104.4,84,104.4,87.4,106.6,87.4L106.6,87.4z"/>
	</g>
	<g>
		<path class="st7" d="M133.7,103.7c2.2,0,2.2-3.4,0-3.4C131.5,100.4,131.5,103.7,133.7,103.7L133.7,103.7z"/>
	</g>
	<g>
		<path class="st7" d="M123,98.7c2.2,0,2.2-3.4,0-3.4C120.8,95.3,120.8,98.7,123,98.7L123,98.7z"/>
	</g>
	<g>
		<path class="st7" d="M145.6,119c2.2,0,2.2-3.4,0-3.4C143.4,115.6,143.4,119,145.6,119L145.6,119z"/>
	</g>
	<g>
		<path class="st7" d="M139.3,115.6c2.2,0,2.2-3.4,0-3.4C137.2,112.2,137.2,115.6,139.3,115.6L139.3,115.6z"/>
	</g>
	<g>
		<path class="st7" d="M155.2,135.9c2.2,0,2.2-3.4,0-3.4C153,132.5,153,135.9,155.2,135.9L155.2,135.9z"/>
	</g>
	<g>
		<path class="st7" d="M151.8,144.4c2.2,0,2.2-3.4,0-3.4C149.6,141,149.6,144.4,151.8,144.4L151.8,144.4z"/>
	</g>
	<g>
		<path class="st7" d="M154,162.5c2.2,0,2.2-3.4,0-3.4C151.8,159.1,151.8,162.5,154,162.5L154,162.5z"/>
	</g>
	<g>
		<path class="st7" d="M163.1,166.4c2.2,0,2.2-3.4,0-3.4C160.9,163,160.9,166.4,163.1,166.4L163.1,166.4z"/>
	</g>
	<g>
		<path class="st7" d="M158.5,180c2.2,0,2.2-3.4,0-3.4C156.4,176.6,156.4,180,158.5,180L158.5,180z"/>
	</g>
	<g>
		<path class="st7" d="M150.1,182.2c2.2,0,2.2-3.4,0-3.4C147.9,178.8,147.9,182.2,150.1,182.2L150.1,182.2z"/>
	</g>
	<g>
		<path class="st7" d="M146.1,194.1c2.2,0,2.2-3.4,0-3.4C143.9,190.7,143.9,194.1,146.1,194.1L146.1,194.1z"/>
	</g>
	<g>
		<path class="st7" d="M138.2,201.4c2.2,0,2.2-3.4,0-3.4C136,198,136,201.4,138.2,201.4L138.2,201.4z"/>
	</g>
	<g>
		<path class="st7" d="M156.8,194.1c2.2,0,2.2-3.4,0-3.4C154.7,190.7,154.7,194.1,156.8,194.1L156.8,194.1z"/>
	</g>
	<g>
		<path class="st7" d="M149.5,175.4c2.2,0,2.2-3.4,0-3.4C147.3,172.1,147.3,175.4,149.5,175.4L149.5,175.4z"/>
	</g>
	<g>
		<path class="st7" d="M68.8,103.7c2.2,0,2.2-3.4,0-3.4C66.6,100.4,66.6,103.7,68.8,103.7L68.8,103.7z"/>
	</g>
	<g>
		<path class="st7" d="M58.1,107.7c2.2,0,2.2-3.4,0-3.4C55.9,104.3,55.9,107.7,58.1,107.7L58.1,107.7z"/>
	</g>
	<g>
		<path class="st7" d="M49,110c2.2,0,2.2-3.4,0-3.4C46.8,106.6,46.8,110,49,110L49,110z"/>
	</g>
	<g>
		<path class="st7" d="M76.1,110c2.2,0,2.2-3.4,0-3.4C73.9,106.6,73.9,110,76.1,110L76.1,110z"/>
	</g>
	<g>
		<path class="st7" d="M86.3,113.3c2.2,0,2.2-3.4,0-3.4C84.1,110,84.1,113.3,86.3,113.3L86.3,113.3z"/>
	</g>
	<g>
		<path class="st7" d="M93.6,118.4c2.2,0,2.2-3.4,0-3.4C91.4,115,91.4,118.4,93.6,118.4L93.6,118.4z"/>
	</g>
	<g>
		<path class="st7" d="M86.3,120.7c2.2,0,2.2-3.4,0-3.4C84.1,117.3,84.1,120.7,86.3,120.7L86.3,120.7z"/>
	</g>
	<g>
		<path class="st7" d="M104.9,124.1c2.2,0,2.2-3.4,0-3.4C102.7,120.7,102.7,124.1,104.9,124.1L104.9,124.1z"/>
	</g>
	<g>
		<path class="st7" d="M98.7,127.5c2.2,0,2.2-3.4,0-3.4C96.5,124.1,96.5,127.5,98.7,127.5L98.7,127.5z"/>
	</g>
	<g>
		<path class="st7" d="M110,131.4c2.2,0,2.2-3.4,0-3.4C107.8,128,107.8,131.4,110,131.4L110,131.4z"/>
	</g>
	<g>
		<path class="st7" d="M115.1,138.7c2.2,0,2.2-3.4,0-3.4C112.9,135.4,112.9,138.7,115.1,138.7L115.1,138.7z"/>
	</g>
	<g>
		<path class="st7" d="M110,141c2.2,0,2.2-3.4,0-3.4C107.8,137.6,107.8,141,110,141L110,141z"/>
	</g>
	<g>
		<path class="st7" d="M118.5,147.2c2.2,0,2.2-3.4,0-3.4C116.3,143.8,116.3,147.2,118.5,147.2L118.5,147.2z"/>
	</g>
	<g>
		<path class="st7" d="M117.9,155.1c2.2,0,2.2-3.4,0-3.4C115.7,151.7,115.7,155.1,117.9,155.1L117.9,155.1z"/>
	</g>
	<g>
		<path class="st7" d="M113.9,161.9c2.2,0,2.2-3.4,0-3.4C111.8,158.5,111.8,161.9,113.9,161.9L113.9,161.9z"/>
	</g>
	<g>
		<path class="st7" d="M124.1,163c2.2,0,2.2-3.4,0-3.4C121.9,159.6,121.9,163,124.1,163L124.1,163z"/>
	</g>
	<g>
		<path class="st7" d="M123.5,176c2.2,0,2.2-3.4,0-3.4C121.4,172.6,121.4,176,123.5,176L123.5,176z"/>
	</g>
	<g>
		<path class="st7" d="M115.1,180c2.2,0,2.2-3.4,0-3.4C112.9,176.6,112.9,180,115.1,180L115.1,180z"/>
	</g>
	<g>
		<path class="st7" d="M114.5,188.4c2.2,0,2.2-3.4,0-3.4C112.3,185,112.3,188.4,114.5,188.4L114.5,188.4z"/>
	</g>
	<g>
		<path class="st7" d="M60.3,150.6c2.2,0,2.2-3.4,0-3.4C58.1,147.2,58.1,150.6,60.3,150.6L60.3,150.6z"/>
	</g>
	<g>
		<path class="st7" d="M63.7,145c2.2,0,2.2-3.4,0-3.4C61.5,141.6,61.5,145,63.7,145L63.7,145z"/>
	</g>
	<g>
		<path class="st7" d="M69.3,150c2.2,0,2.2-3.4,0-3.4C67.2,146.7,67.2,150,69.3,150L69.3,150z"/>
	</g>
	<g>
		<path class="st7" d="M59.7,164.7c2.2,0,2.2-3.4,0-3.4C57.6,161.3,57.6,164.7,59.7,164.7L59.7,164.7z"/>
	</g>
	<g>
		<path class="st7" d="M69.9,141.6c2.2,0,2.2-3.4,0-3.4C67.7,138.2,67.7,141.6,69.9,141.6L69.9,141.6z"/>
	</g>
	<g>
		<path class="st7" d="M32.1,130.8c2.2,0,2.2-3.4,0-3.4C29.9,127.5,29.9,130.8,32.1,130.8L32.1,130.8z"/>
	</g>
	<g>
		<path class="st7" d="M38.9,125.2c2.2,0,2.2-3.4,0-3.4C36.7,121.8,36.7,125.2,38.9,125.2L38.9,125.2z"/>
	</g>
	<g>
		<path class="st7" d="M147.8,128.6c2.2,0,2.2-3.4,0-3.4C145.6,125.2,145.6,128.6,147.8,128.6L147.8,128.6z"/>
	</g>
	<g>
		<path class="st8" d="M186.6,95.4c0,2.7,1.2,5.3,2.2,7.8c0.9,2.4,1.9,4.7,3.7,6.6c1.1,1.2,1.7-1.3,1.6-2c-0.4-2.7-1.6-5.2-2.6-7.7
			c-0.9-2.1-1.5-4.7-3.2-6.2C187.2,92.9,186.6,94.6,186.6,95.4L186.6,95.4z"/>
	</g>
	<g>
		<path class="st8" d="M47.8,34.1c10.1-2.3,20.3-3.6,30.6-4.8c12.9-1.4,22.5,1.3,34.3,6c6.1,2.5,12.6,4.1,18.6,6.9
			c8.2,3.9,14.8,10.1,21.4,16.2c10.6,9.8,20.4,20.3,30.2,30.9c0.9,1,1.6-1.4,1-2.1c-9.7-11.7-20.5-22.6-31.6-32.9
			c-5.2-4.9-10.5-10-16.8-13.6c-6.9-4-14.9-5.8-22.3-8.8c-11.3-4.6-19.9-7.7-32.3-6.3c-11,1.2-22.8,3.4-33.3,7.1
			C47.2,32.9,47.3,34.2,47.8,34.1L47.8,34.1z"/>
	</g>
</g>
</svg>
