<?xml version="1.0" encoding="utf-8"?>
<!-- Generator: Adobe Illustrator 25.2.3, SVG Export Plug-In . SVG Version: 6.00 Build 0)  -->
<svg version="1.1" id="Capa_1" xmlns="http://www.w3.org/2000/svg" xmlns:xlink="http://www.w3.org/1999/xlink" x="0px" y="0px"
	 width="72.9px" height="88.5px" viewBox="0 0 72.9 88.5" style="enable-background:new 0 0 72.9 88.5;" xml:space="preserve">
<style type="text/css">
	.st0{fill:url(#SVGID_1_);}
	.st1{opacity:0.69;fill:#DE8120;}
	.st2{opacity:0.78;fill:#D4711B;}
	.st3{opacity:0.77;fill:#E8AE2C;}
	.st4{opacity:0.79;fill:#EBBE34;}
	.st5{opacity:0.83;fill:#F9FBD4;}
	.st6{opacity:0.56;fill:#C45C16;}
	.st7{opacity:0.79;fill:#EAB531;}
	.st8{fill:#D47A1F;}
	.st9{fill:#A85E1A;}
	.st10{fill:#58862F;}
	.st11{fill:url(#SVGID_2_);}
	.st12{opacity:0.65;fill:#9CCF53;}
	.st13{fill:#4C7623;}
	.st14{fill:#70A73C;}
	.st15{opacity:0.69;fill:#F5DF8F;}
	.st16{opacity:0.79;fill:#EDBC49;}
	.st17{opacity:0.69;fill:#CD731B;}
</style>
<g>
	<linearGradient id="SVGID_1_" gradientUnits="userSpaceOnUse" x1="-7.677" y1="43.4133" x2="82.3072" y2="66.8986">
		<stop  offset="0" style="stop-color:#F3D944"/>
		<stop  offset="0" style="stop-color:#E49624"/>
		<stop  offset="0.52" style="stop-color:#E49624"/>
		<stop  offset="0.9901" style="stop-color:#BF761D"/>
	</linearGradient>
	<path class="st0" d="M72.9,54.9c0,16.6-13.1,30.3-30.3,33c-2,0.3-4.1,0.5-6.2,0.5c-11.1,0-21.1-4.6-27.8-11.8v0
		c-2.4-2.6-4.4-5.5-5.8-8.7C1,63.9,0,59.5,0,54.9c0-3.9,0.7-7.7,2.1-11.2c0,0,0,0,0,0c1.8-4.8,4.8-9.1,8.7-12.6c0,0,0,0,0.1-0.1
		c5-4.6,11.5-7.8,18.8-9.1c2.2-0.4,4.5-0.6,6.8-0.6c12,0,22.7,5.4,29.3,13.6v0C70.2,40.6,72.9,47.5,72.9,54.9z"/>
	<path class="st1" d="M72.9,54.9c0,16.6-13.1,30.3-30.3,33c-2,0.3-4.1,0.5-6.2,0.5c-11.1,0-21.1-4.6-27.8-11.8v0
		c4.8,3.7,11,4.9,11,4.9c20.4,2.7,29.2-15,29.2-15c12.4-21.9-4.7-34.3-4.7-34.3c-17.6-11.3-32-2.2-33.3-1.2c5-4.6,11.5-7.8,18.8-9.1
		c2.2-0.4,4.5-0.6,6.8-0.6C56.6,21.4,72.9,36.4,72.9,54.9z"/>
	<path class="st2" d="M72.9,54.9c0,16.6-13.1,30.3-30.3,33c13.2-3.1,18.8-15.9,19.7-18c0.1-0.2,0.1-0.3,0.1-0.3
		c3.2-8.4,4-17.2,1.6-26c-2-7.1-5.8-12.1-12.2-15.8c-3.3-1.9-6.9-3.3-10.5-4.3c-3.4-0.9-8.2-2.2-11.8-1.5c2.2-0.4,4.5-0.6,6.8-0.6
		c12.4,0,23.4,5.7,30,14.5C70.5,41.3,72.9,47.9,72.9,54.9z"/>
	<path class="st3" d="M19.1,74.6c0,0-10,2.8-16.3-6.7C1,63.9,0,59.5,0,54.9c0-3.9,0.7-7.7,2.1-11.2c0.2-0.4,3.9-7.1,12.2-7.5
		C35.7,35.3,40.2,70.6,19.1,74.6z"/>
	<ellipse transform="matrix(0.2083 -0.9781 0.9781 0.2083 -40.9328 51.5234)" class="st4" cx="11.4" cy="51" rx="11.7" ry="8.8"/>
	<path class="st5" d="M8.1,41.3c-0.9,0.6-1.7,1.6-2,2.6c-0.4,1-0.6,2.4,0.1,3.3c0.8,1,2.1,1,3.2,0.5c1.3-0.6,2.1-2.3,2.3-3.7
		C12,41.6,10.3,39.7,8.1,41.3z"/>
	<path class="st5" d="M9.4,51.9C9.4,51.9,9.4,52,9.4,51.9c0.7,0.2,0.7,1.2,0.6,1.7c-0.1,0.6-0.5,1.4-1.2,1.5
		c-1.6,0.2-1.4-2.3-0.7-2.8C8.4,52,8.9,51.8,9.4,51.9z"/>
	<path class="st6" d="M72.9,54.9c0,16.6-13.1,30.3-30.3,33c-2,0.3-4.1,0.5-6.2,0.5c-11.1,0-21.1-4.6-27.8-11.8v0
		c24.8,16.2,45.8,0.1,45.8,0.1C75.4,62.2,66.1,35.9,65.8,35C70.2,40.6,72.9,47.5,72.9,54.9z"/>
	<path class="st7" d="M23.7,28.6c-1.3,1.1-2.2,3.3-1,4.9c0.7,1,2.4,1.3,3.5,1.5c1.4,0.2,3,0.5,4.4,0.3c2.5-0.4,6.9-2,7.7-4.5
		c0.5-1.5,0.1-2.5-1.2-3.4c-0.5-0.4-1-0.7-1.5-1.1c-0.7-0.5-1.3-1.4-2.1-1.8c-1.9-0.7-5.3-0.8-6.7,0.8c-0.6,0.7-1.1,1.5-1.7,2.2
		C24.5,27.9,23.7,28.4,23.7,28.6z"/>
	<path class="st8" d="M20.1,32.7c-0.1-0.5,0.6-1,1.1-1.3c0.6-0.4,1.3-0.5,1.9-0.8c1.1-0.4,3.3-0.5,3.6-1.9c0.2-0.7-0.1-1.5-0.4-2.1
		c-0.2-0.4-0.4-0.8-0.8-1.1c-0.2-0.2-0.7-0.4-0.8-0.7c-0.3-1.1,1.8,0.1,2.1,0.4c0.7,0.7,1.1,1.7,2,2.2c1,0.5,1.7,0.3,2.6-0.2
		c1.1-0.7,2.3-1.2,3.7-1.4c0.3,0,1.3-0.2,1.5,0c0.4,0.5-0.6,1.1-0.9,1.2c-0.6,0.3-3.4,1.2-2.8,2.1c0.3,0.5,1.9,0.5,2.4,0.6
		c0.8,0.1,1.8,0,2.5,0.4c0.3,0.1,0.7,0.4,0.7,0.8c0,1-1.9,0.9-2.5,0.9c-1.6,0.1-3.1,0.1-3.1,2.1c0,0.6,0.4,2.8-0.8,1.7
		c-0.9-0.8-1.5-2.9-3.1-2.2c-1.4,0.6-1.7,2.8-3.3,3.1c-0.8,0.2-0.8-0.2-0.6-0.9c0.3-0.9,1.3-2.2,1.2-3.2c-0.1-1.4-3,0.1-3.6,0.3
		c-0.6,0.2-1.4,0.7-2,0.4C20.2,33,20.1,32.9,20.1,32.7z"/>
	<path class="st9" d="M29.2,28.9c-0.9-0.1-2,1.3-2.3,2c-0.3,1,0.4,1.6,1.3,1.8c1.2,0.3,2.6,0.3,3.7-0.3c1.1-0.7,1.7-2.1,0.3-2.8
		c-0.6-0.3-1.2-0.6-1.8-0.7C30,28.9,29.3,28.8,29.2,28.9z"/>
	<path class="st10" d="M30.3,29.6L30,29.7l-0.7,0.2c-0.9-9.3-3.3-13.5-4.4-15.1c-0.3-0.4-0.3-0.8-0.2-1.2v0c0.1-0.3,0.3-0.5,0.6-0.6
		c0.5-0.2,1,0,1,0C30.1,17.7,30.3,29.6,30.3,29.6z"/>
	<linearGradient id="SVGID_2_" gradientUnits="userSpaceOnUse" x1="26.3967" y1="1.9401" x2="50.5801" y2="12.226">
		<stop  offset="0" style="stop-color:#8AC73A"/>
		<stop  offset="0.9987" style="stop-color:#5D8C30"/>
	</linearGradient>
	<path class="st11" d="M46.2,17.7c0,0-3.2,1.3-6.6,1.9c0,0,0,0,0,0c-2.8,0.5-5.8,0.5-7.4-0.9c0,0-5.8-5.4,0.8-11.1
		c0,0,2.6-2.6,8.8-2.7c0,0,3.1-0.1,6.6-1c2.9-0.7,6.1-1.9,7.7-4C56,0,57.6,11.1,46.2,17.7z"/>
	<path class="st10" d="M30,26.5c0,0,0.4-8.2,7.3-12.5c0,0,4-2.4,7.3-3.4c0,0,7.4-2.8,10.6-8.6c0,0,0,0,0,0
		c-3.2,3.5-6.9,6.7-11.4,8.1c-4.3,1.4-9.8,3.9-11.8,8.2c0,0-2,3.2-2.1,5.8L30,26.5z"/>
	<path class="st10" d="M32.9,16.7c0,0-2.4-4.4,2.4-9.1c0,0-3.7,5-1.9,8.4L32.9,16.7z"/>
	<path class="st10" d="M37.7,12.8c0,0-1.1-3.4,3.3-6.5c0,0-3.3,3.1-2.8,6.3L37.7,12.8z"/>
	<path class="st10" d="M43.4,10.3c0,0,0.8-3.8,4.6-5.4c0,0-3.3,2.3-3.9,5.1L43.4,10.3z"/>
	<path class="st10" d="M48,8.9c0,0,2.8,0.6,6.1-1c0,0-3,2-6.6,1.5L48,8.9z"/>
	<path class="st10" d="M40.8,12.2c0,0,3.7,2.3,10.5,0.3c0,0-7.7,1.1-9.6-0.7L40.8,12.2z"/>
	<path class="st10" d="M35,15.8c0,0,3.9,2.4,11.1,0.3c0,0-8.4,1.4-10.3-0.9L35,15.8z"/>
	<path class="st12" d="M48.3,4c-0.4,0.3-0.8,0.5-1.1,0.7c-1.1,0.7-2.5,1-3.8,1.3c-2.7,0.7-6.1,1.4-8.2,3.5c-1.5,1.4-3.1,4.3-2.4,6.4
		c0.7,2,3.1,3.1,5.1,3.5c0.6,0.1,1.1,0.2,1.7,0.2c-2.8,0.5-5.8,0.5-7.4-0.9c0,0-5.8-5.4,0.8-11.1c0,0,2.6-2.6,8.8-2.7
		C41.7,4.9,44.9,4.8,48.3,4z"/>
	<path class="st10" d="M32.2,31L32.2,31c-0.3,0.6-0.9,1-1.7,1.2c-1.2,0.2-2.2-0.3-2.4-1.1c-0.1-0.6,0.3-1.3,1.1-1.7
		c0.2-0.1,0.5-0.2,0.8-0.3c1.2-0.2,2.2,0.3,2.4,1.1C32.3,30.5,32.3,30.8,32.2,31z"/>
	<path class="st13" d="M31.1,30.2c0.1,0.4-0.4,0.8-1,0.9c-0.6,0.1-1.2-0.1-1.2-0.5c-0.1-0.4,0.4-0.8,1-0.9
		C30.5,29.6,31.1,29.8,31.1,30.2z"/>
	<path class="st13" d="M30.3,29.6L30,29.7C29.7,20.5,26.3,14,26.3,14c-0.8-1-1.7-0.4-1.7-0.4v0c0.1-0.3,0.3-0.5,0.6-0.6
		c0.5-0.2,1,0,1,0C30.1,17.7,30.3,29.6,30.3,29.6z"/>
	<path class="st14" d="M32.2,31L32.2,31c-0.3,0.6-0.9,1-1.7,1.2c-1.2,0.2-2.2-0.3-2.4-1.1c-0.1-0.6,0.3-1.3,1.1-1.7
		c0,0-0.2,0.2-0.2,0.3c-0.1,0.2-0.3,0.5-0.3,0.7c-0.2,0.9,0.7,1.4,1.4,1.4C30.7,31.9,31.5,31.4,32.2,31z"/>
	<path class="st15" d="M16.5,50.1c0.4,0.7-0.8,1.5-1.2,0.7C14.8,50,16.1,49.3,16.5,50.1C16.5,50.1,16.5,50.1,16.5,50.1z"/>
	<path class="st15" d="M11.9,50.9c0.3,0.6-0.7,1.2-1,0.6C10.6,50.8,11.6,50.3,11.9,50.9C11.9,50.9,11.9,50.9,11.9,50.9z"/>
	<path class="st15" d="M15.1,46.5c0.3,0.6-0.7,1.2-1,0.6C13.8,46.4,14.8,45.9,15.1,46.5C15.1,46.4,15.1,46.5,15.1,46.5z"/>
	<path class="st15" d="M5.4,50.6c0.6,0.2,0.4,1.3-0.3,1.1C4.5,51.5,4.7,50.4,5.4,50.6C5.4,50.6,5.4,50.6,5.4,50.6z"/>
	<path class="st15" d="M13.7,40.1c0.6,0.2,0.4,1.3-0.3,1.1C12.7,41.1,13,40,13.7,40.1C13.6,40.1,13.6,40.1,13.7,40.1z"/>
	<path class="st15" d="M16.6,44.8c0.6,0.2,0.4,1.3-0.3,1.1C15.6,45.7,15.9,44.6,16.6,44.8C16.5,44.8,16.5,44.8,16.6,44.8z"/>
	<path class="st16" d="M22.3,49.8c0.8,0.4,0.3,1.8-0.6,1.5C20.8,50.9,21.4,49.4,22.3,49.8C22.2,49.7,22.3,49.7,22.3,49.8z"/>
	<path class="st16" d="M32.6,39.4c0.8,0.4,0.3,1.8-0.6,1.5C31.2,40.5,31.7,39,32.6,39.4C32.6,39.4,32.6,39.4,32.6,39.4z"/>
	<path class="st17" d="M47,39.4c0.8,0.4,0.3,1.8-0.6,1.5C45.5,40.5,46.1,39,47,39.4C47,39.4,47,39.4,47,39.4z"/>
	<path class="st16" d="M37,41.4c0.8-0.3,1.4,0.9,0.7,1.3C36.9,43.1,36.2,41.8,37,41.4C36.9,41.4,36.9,41.4,37,41.4z"/>
	<path class="st16" d="M37,56.7c0.8-0.3,1.4,0.9,0.7,1.3C36.9,58.4,36.2,57.1,37,56.7C36.9,56.8,36.9,56.7,37,56.7z"/>
	<path class="st16" d="M16.1,63c0.8-0.3,1.4,0.9,0.7,1.3C15.9,64.7,15.3,63.4,16.1,63C16,63,16,63,16.1,63z"/>
	<path class="st16" d="M19,67.2c0.7,0.6-0.2,1.9-1,1.3C17.3,67.9,18.3,66.6,19,67.2C19,67.2,19,67.2,19,67.2z"/>
	<path class="st16" d="M13,34.2c0.6,0.3,0.2,1.4-0.4,1.1C11.9,35,12.3,33.9,13,34.2C13,34.1,13,34.1,13,34.2z"/>
	<path class="st16" d="M22.4,46.5c0.9,0.4,0.3,2.1-0.7,1.7C20.8,47.7,21.4,46,22.4,46.5C22.4,46.4,22.4,46.5,22.4,46.5z"/>
	<path class="st16" d="M38.2,62.2c0.9,0.4,0.3,2.1-0.7,1.7C36.5,63.5,37.2,61.8,38.2,62.2C38.2,62.2,38.2,62.2,38.2,62.2z"/>
	<path class="st17" d="M25.5,74.9c0.9,0.4,0.3,2.1-0.7,1.7C23.8,76.2,24.5,74.5,25.5,74.9C25.5,74.9,25.5,74.9,25.5,74.9z"/>
	<path class="st17" d="M52.1,42c0.9,0.4,0.3,2.1-0.7,1.7C50.4,43.2,51.1,41.5,52.1,42C52.1,41.9,52.1,41.9,52.1,42z"/>
	<path class="st17" d="M25.5,70.5c0.9,0.4,0.3,2.1-0.7,1.7C23.8,71.7,24.5,70,25.5,70.5C25.5,70.4,25.5,70.5,25.5,70.5z"/>
	<path class="st16" d="M28,45.8c0.3,1-1.3,1.7-1.7,0.7C25.9,45.5,27.6,44.8,28,45.8C28,45.8,28,45.8,28,45.8z"/>
	<path class="st16" d="M25.7,40.3c0.9,0.4,0.3,2.1-0.7,1.7C24,41.6,24.7,39.9,25.7,40.3C25.6,40.3,25.7,40.3,25.7,40.3z"/>
	<path class="st16" d="M17.2,31.7c0.7,0.8-0.6,2-1.3,1.2C15.1,32.2,16.4,30.9,17.2,31.7C17.1,31.7,17.1,31.7,17.2,31.7z"/>
	<path class="st16" d="M20.1,35.5c-0.2,0.9-1.8,0.6-1.6-0.4C18.8,34.2,20.3,34.5,20.1,35.5C20.1,35.5,20.1,35.5,20.1,35.5z"/>
	<path class="st16" d="M33.3,48c0.9,0.4,0.3,2.1-0.7,1.7C31.7,49.3,32.3,47.6,33.3,48C33.3,48,33.3,48,33.3,48z"/>
	<path class="st16" d="M42.8,57.5c0.9,0.4,0.3,2.1-0.7,1.7C41.1,58.7,41.8,57.1,42.8,57.5C42.8,57.5,42.8,57.5,42.8,57.5z"/>
	<path class="st16" d="M25.4,57.2c0,1-1.7,1.2-1.8,0.1C23.6,56.3,25.4,56.2,25.4,57.2C25.4,57.2,25.4,57.2,25.4,57.2z"/>
	<path class="st17" d="M28.9,74.1c0,1-1.7,1.2-1.8,0.1C27.1,73.2,28.9,73.1,28.9,74.1C28.9,74.1,28.9,74.1,28.9,74.1z"/>
	<path class="st17" d="M40.1,70.4c0,1-1.7,1.2-1.8,0.1C38.2,69.5,40,69.3,40.1,70.4C40.1,70.4,40.1,70.4,40.1,70.4z"/>
	<path class="st17" d="M31.8,62.1c0,1-1.7,1.2-1.8,0.1C29.9,61.2,31.7,61,31.8,62.1C31.8,62.1,31.8,62.1,31.8,62.1z"/>
	<path class="st17" d="M34.9,65.2c0,1-1.7,1.2-1.8,0.1C33,64.3,34.8,64.1,34.9,65.2C34.9,65.2,34.9,65.2,34.9,65.2z"/>
	<path class="st17" d="M51.7,65.2c0,1-1.7,1.2-1.8,0.1C49.9,64.3,51.7,64.1,51.7,65.2C51.7,65.2,51.7,65.2,51.7,65.2z"/>
	<path class="st17" d="M51.7,53.5c0,1-1.7,1.2-1.8,0.1C49.9,52.6,51.7,52.5,51.7,53.5C51.7,53.5,51.7,53.5,51.7,53.5z"/>
	<path class="st17" d="M54.9,56.7c0,1-1.7,1.2-1.8,0.1C53,55.7,54.8,55.6,54.9,56.7C54.8,56.6,54.8,56.7,54.9,56.7z"/>
	<path class="st17" d="M54.9,46.1c0,1-1.7,1.2-1.8,0.1C53,45.2,54.8,45.1,54.9,46.1C54.8,46.1,54.8,46.1,54.9,46.1z"/>
	<path class="st17" d="M48.5,46.1c0,1-1.7,1.2-1.8,0.1C46.6,45.2,48.4,45.1,48.5,46.1C48.5,46.1,48.5,46.1,48.5,46.1z"/>
	<path class="st16" d="M14.6,68.1c0,1-1.7,1.2-1.8,0.1C12.7,67.2,14.5,67.1,14.6,68.1C14.6,68.1,14.6,68.1,14.6,68.1z"/>
	<path class="st15" d="M18.7,46.2c0.8,0.4,0.3,1.7-0.6,1.4C17.3,47.3,17.8,45.9,18.7,46.2C18.7,46.2,18.7,46.2,18.7,46.2z"/>
</g>
</svg>
