<?xml version="1.0" encoding="utf-8"?>
<!-- Generator: Adobe Illustrator 25.2.3, SVG Export Plug-In . SVG Version: 6.00 Build 0)  -->
<svg version="1.1" id="Capa_1" xmlns="http://www.w3.org/2000/svg" xmlns:xlink="http://www.w3.org/1999/xlink" x="0px" y="0px"
	 width="31.6px" height="84.1px" viewBox="0 0 31.6 84.1" style="enable-background:new 0 0 31.6 84.1;" xml:space="preserve">
<style type="text/css">
	.st0{fill:#5D98E6;}
	.st1{fill:#80B4EE;}
	.st2{fill:#4678D5;}
	.st3{fill:#D5EAFA;}
	.st4{fill:#ADD8F9;}
	.st5{fill:#54914A;}
	.st6{fill:#DC3F3F;}
	.st7{fill:#F6E03E;}
	.st8{fill:#F7E4E7;}
	.st9{fill:#EBAFB6;}
	.st10{fill:#F1CBD0;}
	.st11{fill:#FFFFFF;}
</style>
<g>
	<g>
		<g>
			<path class="st0" d="M31.6,24.9l0,39.5l-1,10.7c0,2-1.6,3.6-3.6,3.6h-5.4V26.9c0-1.1-0.9-2-2-2L31.6,24.9z"/>
			<path class="st1" d="M21.6,26.9v52.9h-18c-0.1,0-0.3,0-0.4,0c-0.3,0-0.7-0.1-1-0.2c-0.1-0.1-0.3-0.1-0.4-0.2
				c-1.1-0.6-0.8-1.8-0.8-3.1L0,72.1V24.9h19.6C20.7,24.9,21.6,25.8,21.6,26.9z"/>
		</g>
		<path class="st2" d="M25.9,38.3c-0.3-0.8-0.7-1.5-1.2-2.1c0,0,0,0,0,0c-2-2.7-5.1-4.4-8.7-4.4c-4.4,0-8.2,2.7-9.9,6.5H0v2v4.5v2h6
			c1.7,3.8,5.5,6.5,9.9,6.5c3.6,0,6.7-1.7,8.7-4.4c0,0,0,0,0,0c0.5-0.7,0.9-1.4,1.2-2.1h5.7v-2v-4.5v-2H25.9z"/>
		<path class="st3" d="M29.1,21.5V9.8c0-5.4-4.4-9.8-9.8-9.8h-6.9C6.9,0,2.5,4.4,2.5,9.8v11.7H1.1C0.5,21.5,0,22,0,22.6v2.3l31.6,0
			l0-2.3c0-0.6-0.5-1.1-1.1-1.1H29.1z"/>
		<path class="st4" d="M25.9,21.5V9.8c0-5.4-4.4-9.8-9.8-9.8h-3.2c5.4,0,9.8,4.4,9.8,9.8v11.7H25.9z"/>
		<path class="st4" d="M5.7,21.5V9.8c0-5.4,4.4-9.8,9.8-9.8h3.2c-5.4,0-9.8,4.4-9.8,9.8v11.7H5.7z"/>
		<rect x="0" y="24.9" class="st4" width="31.6" height="3.6"/>
		<rect x="14.4" class="st4" width="3.2" height="21.5"/>
		<g>
			<path class="st5" d="M3.9,63.8c0.9-0.7,2-1.1,3.2-1.1c-1.2-1.2-1.8-2.5-2-3.7C5.1,58.4,5.5,58,6,58.1c1.1,0.2,2.5,1,3.6,2.1
				c0.1-1.1,0.5-2.1,1.1-2.9c0.3-0.4,0.9-0.4,1.2,0c0.7,0.9,1.1,2.1,1.1,3.3c0,0.4-0.1,0.9-0.2,1.4c-0.4,2.1-2.1,3.8-4.2,4.1
				c-0.5,0.1-1.1,0.1-1.4,0.1c-1.3,0-2.4-0.5-3.3-1.3C3.6,64.6,3.6,64.1,3.9,63.8z"/>
			<path class="st6" d="M17,62c-2.2-2.3-5.9-2.3-8.2-0.1c-2.3,2.2-2.3,5.9-0.1,8.2c2.2,2.3,8.5,5,10.8,2.7S19.2,64.3,17,62z"/>
			<g>
				<path class="st7" d="M14.9,63.3c0.3-0.3,0.3-0.7,0-1l-0.7-0.8c-0.3-0.3-0.7-0.3-1,0c-0.3,0.3-0.3,0.7,0,1l0.7,0.8
					C14.2,63.6,14.6,63.6,14.9,63.3z"/>
				<path class="st7" d="M11.8,64.9c0.3-0.3,0.3-0.7,0-1L11,63.1c-0.3-0.3-0.7-0.3-1,0c-0.3,0.3-0.3,0.7,0,1l0.7,0.8
					C11,65.1,11.5,65.1,11.8,64.9z"/>
				<path class="st7" d="M14.7,67.9c0.3-0.3,0.3-0.7,0-1L14,66.2c-0.3-0.3-0.7-0.3-1,0c-0.3,0.3-0.3,0.7,0,1l0.7,0.8
					C14,68.2,14.4,68.2,14.7,67.9z"/>
				<path class="st7" d="M10.1,67.9c0.3-0.3,0.3-0.7,0-1l-0.7-0.8c-0.3-0.3-0.7-0.3-1,0c-0.3,0.3-0.3,0.7,0,1l0.7,0.8
					C9.4,68.2,9.8,68.2,10.1,67.9z"/>
				<path class="st7" d="M17.7,70.9c0.3-0.3,0.3-0.7,0-1l-0.7-0.8c-0.3-0.3-0.7-0.3-1,0c-0.3,0.3-0.3,0.7,0,1l0.7,0.8
					C16.9,71.2,17.4,71.2,17.7,70.9z"/>
			</g>
		</g>
		<g>
			<path class="st8" d="M30,65.4c0.1-0.8,0-1.5-0.3-2.2c-2.6-1.5-5.7-2.4-9.1-2.6c2.3,0.2,4,2.3,3.7,4.8C24,67.5,22.1,69,20,69h5.7
				C27.8,69,29.7,67.5,30,65.4z"/>
			<path class="st9" d="M31.6,64.5v16c0,2-1.6,3.6-3.6,3.6H7.9v-4.5c0-5.8,4.7-10.6,10.6-10.6h7.2c2,0,3.9-1.4,4.3-3.4
				c0.2-0.9,0.1-1.7-0.2-2.4C30.4,63.6,31,64,31.6,64.5z"/>
			<g>
				<path class="st10" d="M18.7,69c-5.9,0-10.6,4.7-10.6,10.6v4.5H3.2v0c-0.3,0-0.7-0.1-1-0.2c-0.1-0.1-0.3-0.1-0.4-0.2v-4
					C1.9,73.7,6.6,69,12.4,69H18.7z"/>
				<path class="st8" d="M13.8,69C7.9,69,3.2,73.7,3.2,79.6V84c-0.3,0-0.7-0.1-1-0.2c-0.1-0.1-0.3-0.1-0.4-0.2C0.7,83,0,81.8,0,80.5
					v-8.4C1.9,70.2,4.6,69,7.5,69H13.8z"/>
			</g>
		</g>
	</g>
	<circle class="st11" cx="16" cy="42.6" r="7.5"/>
</g>
</svg>
