<?xml version="1.0" encoding="utf-8"?>
<!-- Generator: Adobe Illustrator 25.2.3, SVG Export Plug-In . SVG Version: 6.00 Build 0)  -->
<svg version="1.1" id="Capa_1" xmlns="http://www.w3.org/2000/svg" xmlns:xlink="http://www.w3.org/1999/xlink" x="0px" y="0px"
	 width="582.2px" height="487.1px" viewBox="0 0 582.2 487.1" style="enable-background:new 0 0 582.2 487.1;" xml:space="preserve"
	>
<style type="text/css">
	.st0{fill:#F4B73A;}
	.st1{fill:#F19E37;}
	.st2{fill:#F1931F;}
	.st3{fill:#AB4E15;}
	.st4{fill:#D0642A;}
	.st5{opacity:0.62;fill:#CFA586;}
	.st6{fill:#E6BA93;}
</style>
<g>
	<path class="st0" d="M6.9,343.7C9,353.8-15,412.4,16,452.4c31,40,56.3,14.5,62.6,17.5c6.3,3.1,57,22.3,93.9,15.9
		c36.9-6.5,96.4-54.3,106.8-73.1c10.5-18.8,15.2-11.9,25.5-11.2c10.4,0.7,50.4-31.5,64.7-48.8c14.3-17.2,18.3-37.8,27.5-38.4
		c9.2-0.6,16.7,3.8,29.1-5.7c12.4-9.5,53.1-32.7,61.5-58.1c8.3-25.4,6.4-30.5,10.4-31.6c4-1,25-11.6,32.9-27.9
		c7.7-15.8,9.3-20.2,13.2-21.2c4-1,17-1.4,27.3-17.6c10.3-16.2,13.6-26.4,8-56.7c-5.6-30.4-24.8-53.9-51.3-48
		c0,0-15.7-16.8-34.1-15.5c0,0-12.1-30.8-48.5-32.1c-36.4-1.3-58.4,33.6-58.4,33.6s-11.8,0.5-25.2,6c-13.4,5.5-17.9,13-17.9,13
		s-32.8-15.4-64,3.2c-31.3,18.6-64.8,68.3-64.8,68.3s-21.7-5.5-49.2,14.7C138.6,159,113,208,113,208s-33.2-8.9-68.1,23.8
		C9.9,264.4,2.1,301.6,2.3,316C2.6,330.3,4.9,334.4,6.9,343.7z"/>
	<path class="st1" d="M402.4,32.7c-3.8,0.2-8.7,0-14.3-0.3c-0.6,0.8-0.9,1.3-0.9,1.3s-11.8,0.5-25.2,6c-13.4,5.5-17.9,13-17.9,13
		s-32.8-15.4-64,3.2c-31.3,18.6-64.8,68.3-64.8,68.3s-21.7-5.5-49.2,14.7C138.6,159,113,208,113,208s-33.2-8.9-68.1,23.8
		C9.9,264.4,2.1,301.6,2.3,316c0.3,14.3,2.6,18.4,4.5,27.7c0.8,3.6-1.8,13.5-4,26.4L117.1,332c0,0,23.2-10.4,17-42.2
		c-6.2-31.8,1.5-41.6,16.6-57.8c15.2-16.2-22.4-24.3,15.3-40.5c37.7-16.2,51.1-9.9,76.8-4.5c25.6,5.5,37.9-17.9,32.2-34
		c-5.7-16.1,2.5-32.8,34-35.6c31.5-2.8,38.5,18.6,60.7,23.8c22.2,5.2,39.9-21.2,39.6-40.4c-0.3-19.1-39.6-27.4-39.6-27.4
		s16.7-14.3,40-0.4c23.2,14,44.1,13.8,41.7-0.2C449.1,58.8,430.3,31.3,402.4,32.7z"/>
	<path class="st2" d="M285,247.7c-15.1-25.8-57.1-47.9-110.1-32.6c-12.3,3.5-9.4,22.8-14.6,58.9c-5.2,36.1-24.8,55.5-37,97.6
		c-12.1,42.1-2.4,70.2-12.3,81.2c-9.9,11-17.4-11.7-20.4-6.7c-3,5-12.1,23.9-12.1,23.9c6.3,3.1,57,22.3,93.9,15.9
		c36.9-6.5,96.4-54.3,106.8-73.1c3.3-10.2,16.8-34,21.2-59.7C305,327.3,300.1,273.5,285,247.7z"/>
	<path class="st2" d="M528.2,47.6c0,0-15.7-16.8-34.1-15.5c0,0-12.1-30.8-48.5-32.1c-27-1-46.1,18-54.1,27.8l41.2,24.7
		c0,0,21.4-14.1,29.4,16c8.1,30.2-58.7-4.5-62,16c-2.6,16.3,10.4,55.6,15.9,71.3c-1.9-1.7-4.7-3.8-8.8-6.4
		c-18.2-11.8-100.3-28.6-112.2-8.7c-11.4,19-2.4,78.8-0.3,89.1c-3.2-3.6-9.8-9.7-22.4-19.6c-34.4-27-97.3,4.9-97.3,4.9l-1.7,270.5
		c37-7,95.6-54.3,106-72.9c10.5-18.8,15.2-11.9,25.5-11.2c10.4,0.7,50.4-31.5,64.7-48.8c14.3-17.2,18.3-37.8,27.5-38.4
		c9.2-0.6,16.7,3.8,29.1-5.7s53.1-32.7,61.5-58.1c8.3-25.4,9.5-34.1,11.3-30.4c4.7,9.4,13.8-5.5,23.9-20.4
		c10.2-14.9,17.3-28.7,21.3-29.7c4-1,17-1.4,27.3-17.6c10.3-16.2,13.6-26.4,8-56.7C573.8,65.2,554.7,41.7,528.2,47.6z"/>
	<path class="st3" d="M369.6,352.7c14.3-17.2,18.3-37.8,27.5-38.4c0.4,0,0.8,0,1.2,0c3.2-8.5,6.6-17.5,9.8-26.5
		c13-35.5,3.8-107.8-8.2-121.7c-12-13.9-85.4-25.7-95.3-14.6c-9.9,11,5.2,68.6,15.4,116.3c16.1,75.2-15.1,133.7-15.1,133.7
		C321.9,399.9,355.3,369.9,369.6,352.7z"/>
	<path class="st3" d="M429.1,86.1c-23.3-1.7-14.9,8-5,33.5c9.9,25.5,11.9,88.1,6.4,129.4c-3.3,24.6-1.2,44.1,1.1,55.7
		c16.1-11.1,48.7-31.8,56.1-54.3c1.1-3.5,2.1-6.6,2.9-9.3c3.6-24.4,6.9-57.3,3.7-82.7C488.4,112.5,452.4,87.8,429.1,86.1z"/>
	<path class="st3" d="M448.9,45c5.6,5.7,20.5-7.2,28.9,9c8.4,16.2-20.4,30.7,3.6,47.1c24,16.5,24.9,40.9,27.3,67.1
		c2,20.8-3.9,44.3-6.5,53.1c-0.4,1.4,1.3,2,2.5,1.3c7.2-4.3,24-16,32.4-40.2c10.9-31.3,17.8-93.7,4-118.2
		c-13.9-24.4-32.8-37.8-71.1-35.1C451.7,30.4,444.8,40.7,448.9,45z"/>
	<path class="st3" d="M344.2,52.7c0,0,14.2-16.8,36.3-21.3c22-4.5,40.6,2.9,52.3,21.1c11.7,18.2,12.3,22.6,7,23.9
		c-5.3,1.4-15.1-19.3-42.1-18.6C370.7,58.5,354.1,59.9,344.2,52.7z"/>
	<path class="st3" d="M187.5,227.9c-20.6,19.3-3.5,67.5-25,98.8c-21.5,31.3-43.8,93.9-27.2,126.4c16.6,32.6,60.6,25.5,86.1,10.1
		c25.5-15.4,44.4-32.2,57.9-50.7c13.5-18.5,20.3-33.8,21.2-59.7c0.9-25.9,11.4-94.5-16.6-113.2C255.8,221.1,221,196.7,187.5,227.9z"
		/>
	<path class="st3" d="M547.9,48.9c-0.5,5.9-2.1,16.3,5.7,28.5c18.2,28.3,12.4,59.4,8,85.8c3.3-2.5,6.7-5.9,9.9-10.9
		c10.3-16.2,13.6-26.4,8-56.7C575.3,73.4,564,54.9,547.9,48.9z"/>
	<path class="st3" d="M445.6,0c-21.9-0.8-38.6,11.6-48.4,21.5c7.4,2.9,17.3,4.7,25.3-1.2c14.8-11,33.6-7.8,45.3-1.7
		c5,2.6,11.1,1.1,16.3-1.4C476.6,9.1,464.3,0.7,445.6,0z"/>
	<path class="st4" d="M230.2,260.8c-8.7-44.1-42.6-32.8-42.6-32.8c-20.6,19.3-3.5,67.5-25,98.8c-21.5,31.3-43.8,93.9-27.2,126.4
		C193.3,445.5,238.9,304.9,230.2,260.8z"/>
	<path class="st4" d="M320,267.7c8.2,38.5,4.1,72.6-2,96.8c34.1-12.8,43.6-77.8,41.8-140.6c-1.8-66.2-55.3-72.5-55.3-72.5
		C294.7,162.4,309.8,220,320,267.7z"/>
	<path class="st5" d="M204.7,259.4c-15.6,1.7-24.6,66.3-6,68.3C217.2,329.6,236.1,256,204.7,259.4z"/>
	<path class="st4" d="M439.7,76.5c2.2-0.6,3.4-1.7,3.2-4.1c-6.3-6.9-25-24.7-50.4-23.6c-16.3,0.8-29.1-2.4-37.7-5.7
		c-6.8,5-10.6,9.5-10.6,9.5c9.9,7.2,26.5,5.8,53.5,5.1C424.6,57.1,434.4,77.8,439.7,76.5z"/>
	<path class="st4" d="M424,119.6c0,0,21.7-1.5,28.6,61.6c6.8,63.1-3.7,102.9-21.1,123.6c0,0-6.4-30.6,0.1-87.4
		C437.9,161.7,424,119.6,424,119.6z"/>
	<path class="st4" d="M502.5,223c2.2,0.9,6.4-2.8,10.5-6.2c4.1-11.9,8.2-30.1,9.1-57.6c1.7-55.9-24.3-56.6-28.6-68.7
		c-4.3-12.1,5.6-21.7-2.2-39.3c-5.1-11.6-23.8-20.3-35.4-18.6c-7.5,3.8-9.8,9.4-7,12.3c5.6,5.7,20.5-7.2,28.9,9
		c8.4,16.2-20.4,30.7,3.6,47.1c24,16.5,24.9,40.9,27.3,67.1c1.9,19.9-3.3,41-5.9,50.7C502.8,218.9,500.4,222.1,502.5,223z"/>
	<path class="st3" d="M365.7,128.4c-16.4,1.3-27-34.9-67.9-22.2C257,118.9,253.1,136,253.1,136s-10.7-19.9-35.4-14.7
		c0,0,10.8-29.6,38.3-50.2c27.5-20.6,49.8-28.6,78.1-23.1c28.3,5.5,39.5,18.5,51.1,37.5c11.7,19.1,6.1,23.9,3.9,29.8
		C387,121.3,377,127.5,365.7,128.4z"/>
	<path class="st4" d="M389.2,115.4c1.9-5.1,6.3-9.4-0.2-22.9c-2.1,14.8-25.2,19-43.3,4.8c-18.4-14.5-49.4-18.2-79.4-0.9
		c-18.6,10.7-30.6,7.3-37,3.3c-8.1,12.1-11.6,21.7-11.6,21.7c24.7-5.2,35.4,14.7,35.4,14.7s3.8-17.1,44.7-29.8
		c40.8-12.7,51.4,23.6,67.9,22.2C377,127.5,387,121.3,389.2,115.4z"/>
	<path class="st3" d="M113,208c0,0,14.7-34.9,38.9-57.5c24.2-22.6,31-32.8,65.1-33.2c25.5-0.3,36.2,14.1,43.3,24.2
		c7.1,10.1,0.1,27.1-10.7,32.4c-10.8,5.3-40-23.7-84.4,2.6c-44.4,26.3-46,35.8-46,35.8L113,208z"/>
	<path class="st4" d="M211.7,145.6c-17.4-6.7-60.3,19.8-85.3,37c-8.7,14-13.5,25.5-13.5,25.5l6.2,4.4c0,0,1.5-9.4,46-35.8
		c41.4-24.5,69.5-1.1,81.9-2l2.5-0.6C249.5,173.9,237,155.3,211.7,145.6z"/>
	<path class="st3" d="M17.5,340.5c0,0-13.8-25.7,24.6-34.7c38.4-9,64.1,13.7,77.8,4.3c13.7-9.4-7.6-57.8,5.1-71.3
		c12.7-13.4,24.5-15.2,21.2-23.2c-3.3-8.1-34.2-10.4-55.4-7.9c-29.7,3.5-63.6,30.2-78.4,60.5c-16.1,32.9-13,51.5-6.8,74.4
		C9.4,356.9,17.5,340.5,17.5,340.5z"/>
	<path class="st4" d="M55.2,282.6c-29.7-2-45.8,12.6-54.5,27.2c-0.4,11.4,1.9,21.6,4.9,32.8c3.8,14.3,11.9-2.1,11.9-2.1
		s-13.8-25.7,24.6-34.7c38.4-9,64.1,13.7,77.8,4.3c2.1-1.5,3.4-3.9,4.1-7C122.1,292.9,96.8,285.4,55.2,282.6z"/>
	<path class="st3" d="M117.1,332c-7.4-20.8-83.5-16.4-101.7,1.8c-3,3-5.8,7.5-8.5,12.9c-1.2,15.8-19.6,68.7,9.1,105.7
		c31,40,56.3,14.5,62.6,17.5C78.6,469.9,132.3,374.8,117.1,332z"/>
	<path class="st4" d="M6.9,346.7c-1.2,15.8-19.6,68.7,9.1,105.7c31,40,56.3,14.5,62.6,17.5c0,0,53.7-95.1,38.5-137.9
		c1.1,33.2-27,122.9-79.2,101.5c-35.2-14.4-22.5-99.7-22.5-99.7C12.4,336.8,9.6,341.3,6.9,346.7z"/>
	<path class="st5" d="M95.8,335.5c-9.1-10.6-60.2-8.1-58.7,18c1.4,26.2,35.5,35.8,50.2,24.7C102.1,367.3,103.8,344.8,95.8,335.5z"/>
	<path class="st5" d="M60.4,232.9c-16.9,4.5,2,40.6,16.5,39.1C91.3,270.5,87,225.8,60.4,232.9z"/>
	<path class="st5" d="M329.5,196.3c-17.1-3.8-16.9,36.9-3.3,42.3C339.6,243.9,356.3,202.3,329.5,196.3z"/>
	<path class="st5" d="M447.9,155c-9.7-2.2-9.6,20.9-1.9,24C453.7,182,463.1,158.4,447.9,155z"/>
	<g>
		<path class="st6" d="M254.4,273.9c0.7,1.3,1.6,3.4,1.5,4.9c-0.1,1-0.6,2-0.7,3.1c-0.3,2.6-0.6,5.2-0.8,7.8
			c-0.2,1.8,1.2,4.8,3.4,3.3c3.6-2.5,4.9-8.8,3.9-12.7c-0.8-3.2-3.5-6.6-5.9-8.9C254.5,270.1,253.9,273.1,254.4,273.9L254.4,273.9z"
			/>
	</g>
	<g>
		<path class="st6" d="M265.9,295.7c-2,3-3.5,6.3-4.2,9.9c-0.6,3-0.8,8.6,2.4,10.2c1.1,0.6,2.1-0.5,2.5-1.4c1.2-2.4,0.8-5.4,0.6-8
			c-0.2-3,0.1-5.7,0.9-8.5C268.5,296.6,267.2,293.8,265.9,295.7L265.9,295.7z"/>
	</g>
	<g>
		<path class="st6" d="M268.6,275.9c0.6,4.7,3.5,9,8.4,9.7c4.8,0.6,9.4-2.6,10.2-7.4c0.2-1.3-0.3-3.8-2.1-2.8
			c-2.2,1.3-4.1,3.1-6.8,3c-2.6-0.1-5.5-2-6.4-4.5C270.8,271,268.4,273.7,268.6,275.9L268.6,275.9z"/>
	</g>
	<g>
		<path class="st6" d="M276.8,304.4c-0.4,3.7,0.8,7.5,3.1,10.4c1.9,2.4,6.6,5.3,9.4,2.9c1.1-1,1.4-3.4,0.2-4.5
			c-1.7-1.5-4.4-1.7-6.3-3c-2-1.3-3.7-3.2-3.7-5.7C279.4,302,277,301.8,276.8,304.4L276.8,304.4z"/>
	</g>
	<g>
		<path class="st6" d="M268.9,324.1c0.9,5.1-2.6,7.6-5.3,11.3c-0.7,1-1,4.3,0.9,4.3c3.5,0,6-3.7,7.2-6.7c1.4-3.6,1.6-7.2,0.7-10.9
			C271.6,319,268.5,321.8,268.9,324.1L268.9,324.1z"/>
	</g>
	<g>
		<path class="st6" d="M249.7,316.9c-2.8,1.9-4.2,5.2-4.4,8.5c-0.1,2.3,0.7,8,4,7.9c1.3-0.1,1.8-1.8,1.6-2.8c-0.6-3.2-2.8-6,0.4-8.6
			C252.9,320.4,252.3,315.2,249.7,316.9L249.7,316.9z"/>
	</g>
	<g>
		<path class="st6" d="M249.1,301c-0.1,0.9-0.8,1.4-1.6,1.8c-1,0.5-2.1,0.9-3.1,1.6c-0.9,0.6-0.9,2.5-0.2,3.1
			c1.8,1.6,3.9,0.8,5.3-0.9c1.4-1.6,2-3.9,1.9-6c0-0.7-0.5-1.5-1.2-1.4C249.5,299.3,249.1,300.3,249.1,301L249.1,301z"/>
	</g>
	<g>
		<path class="st6" d="M260.6,323.8c-1.7,2.7-3.6,5.4-4.5,8.5c-0.2,0.7,0.4,2.9,1.5,1.9c2.3-2.1,3.5-5.3,4.9-8
			C263.1,325,261.8,322,260.6,323.8L260.6,323.8z"/>
	</g>
	<g>
		<path class="st6" d="M279.3,330.2c0.7,1.2,1.4,2.3,2.1,3.5c0.6,1,1.5,2.3,2.7,2.3c1,0,1.6-1.3,1.6-2.2c-0.1-2.9-2.1-5.1-3.8-7.3
			C280,323.8,278.2,328.3,279.3,330.2L279.3,330.2z"/>
	</g>
	<g>
		<path class="st6" d="M284.5,301.1c2-0.3,3.7-0.3,4.9-2.1c0.5-0.7,0.7-2.2-0.1-2.8c-0.8-0.6-1.3-0.8-2.3-0.7
			c-0.9,0.1-1.8,0.5-2.7,0.8c-1,0.4-1.3,1.7-1.3,2.6C283.1,299.7,283.5,301.3,284.5,301.1L284.5,301.1z"/>
	</g>
	<g>
		<path class="st6" d="M268.8,256.4c0.9,0.8,1.6,1.6,2.1,2.7c0.4,0.8,1,2,1.9,2.3c0.6,0.2,1.1-0.1,1.3-0.7c1.2-3.2-1.1-6.5-3.5-8.4
			C268.5,250.6,267.3,255.1,268.8,256.4L268.8,256.4z"/>
	</g>
	<g>
		<path class="st6" d="M289.9,267.4c1,1.2,1.8,2.5,2.2,4c0.4,1.4,0.5,2.8,0.9,4.2c0.5,1.5,2,1.6,2.6,0.1c2-4.3-0.6-9.6-4-12.3
			C289.6,261.6,288.7,266,289.9,267.4L289.9,267.4z"/>
	</g>
	<g>
		<path class="st6" d="M294.4,293.6c0.7,3.3-0.7,5.7-1.3,8.8c-0.2,1,0.1,4.1,1.9,3.3c2.6-1.1,3.5-4.7,3.6-7.2
			c0.1-2.8-0.6-5.3-2.4-7.3C294.9,289.7,294.3,292.8,294.4,293.6L294.4,293.6z"/>
	</g>
	<g>
		<path class="st6" d="M292,330.3c0,3-1.1,5.5-1.6,8.3c-0.2,1.1,0.5,4.2,2.1,2.8c3.2-2.6,3.4-7.9,3.1-11.7
			C295.3,326.7,291.9,327.5,292,330.3L292,330.3z"/>
	</g>
	<g>
		<path class="st6" d="M272.8,346.4c0.1,1.7-1,3.6-2,4.9c-0.5,0.6-0.4,3.1,0.8,2.5c3.3-1.5,4.3-5,4.1-8.4c-0.1-0.9-0.7-1.9-1.7-1.7
			C273,344,272.8,345.5,272.8,346.4L272.8,346.4z"/>
	</g>
	<g>
		<path class="st6" d="M262.6,348.4c-2.1,3.5-4.4,7-5.8,10.9c-0.2,0.6,0.1,3.5,1.3,2.3c2.7-2.8,4.6-6.3,6.6-9.6
			c0.6-1,0.8-2.4,0.2-3.5C264.3,347.7,263.2,347.4,262.6,348.4L262.6,348.4z"/>
	</g>
	<g>
		<path class="st6" d="M249.6,345.4c-1.1,2.6-1.5,7.9,2,8.8c1.3,0.3,1.7-2,1.6-2.7c-0.2-1.3-1.1-2.7-0.7-4c0.2-0.9,0.1-2.3-0.8-2.9
			C250.8,343.9,250,344.5,249.6,345.4L249.6,345.4z"/>
	</g>
	<g>
		<path class="st6" d="M274,361.5c-0.4,4.4,3.1,10.4,8.2,8.8c2.3-0.7,2.2-5.6-0.2-6.1c-1.1-0.2-2.3-0.7-3.2-1.4
			c-0.8-0.6-1.1-1.1-1.1-1.9c-0.1-1-0.8-2.3-1.9-2.1C274.6,359,274.1,360.5,274,361.5L274,361.5z"/>
	</g>
	<g>
		<path class="st6" d="M285,350.7c0.9,1.3,1.9,3.7,3.8,3.4c1-0.2,1.2-1.8,1.1-2.6c-0.2-1.9-1.6-3-2.9-4.2
			C285.1,345.7,284.2,349.5,285,350.7L285,350.7z"/>
	</g>
	<g>
		<path class="st6" d="M263.2,369.1c-0.8,3.9-3.5,6.1-6.4,8.6c-1.1,1-1.2,4.6,0.9,4.2c4.9-1,7.9-6.7,8.7-11.2c0.2-1,0.1-2.7-1-3.2
			C264.2,366.9,263.4,368.1,263.2,369.1L263.2,369.1z"/>
	</g>
	<g>
		<path class="st6" d="M243.4,367.8c0.2,1.3,0.4,2.7,0.7,4c0.3,1.5,0.7,3.6,1.9,4.6c2.2,1.8,3.6-1.2,3.8-3c0.3-3-1.5-6-2.7-8.6
			c-0.5-1-1.7-1.3-2.6-0.6C243.5,364.9,243.2,366.6,243.4,367.8L243.4,367.8z"/>
	</g>
	<g>
		<path class="st6" d="M269.5,390.3c-2.1,2.7-5.1,4.6-7,7.4c-0.8,1.2-1.1,4.7,1.1,4.9c2,0.1,4-1.3,5.3-2.7c1.5-1.7,2.6-3.6,3.5-5.8
			c0.5-1.2,0.6-2.8-0.3-3.9C271.3,389.2,270.2,389.3,269.5,390.3L269.5,390.3z"/>
	</g>
	<g>
		<path class="st6" d="M235.8,392.4c0,0.1-0.2,1.4-0.1,1c-0.1,0.3-0.1,0.4-0.2,0.7c-0.4,0.8-0.9,1.6-1.3,2.4c-0.5,0.9-0.4,3.2,1,3.3
			c3.4,0.1,5.1-4.4,5.1-7.2c0-1.3-0.4-3.5-2.1-3.6C236.6,389,235.9,391.2,235.8,392.4L235.8,392.4z"/>
	</g>
	<g>
		<path class="st6" d="M229.5,332.6c0.2,2.8-1.8,3.9-3,6.2c-0.7,1.3-0.3,6.4,2.3,5.2c4.2-2,4.6-9,3.7-13c-0.2-0.9-1-1.4-1.9-1.1
			C229.6,330.4,229.5,331.8,229.5,332.6L229.5,332.6z"/>
	</g>
	<g>
		<path class="st6" d="M233.7,299.1c-1,1.4-2.2,2.3-3.8,2.9c-1.7,0.6-3.6,0.7-5,2c-1.5,1.5-1.8,4.7,0.2,5.9c2.1,1.3,4.7-0.3,6.4-1.6
			c1.8-1.4,3.4-3.2,4.5-5.2c0.7-1.1,0.9-2.7,0.2-3.8C235.6,298.2,234.4,298.1,233.7,299.1L233.7,299.1z"/>
	</g>
	<g>
		<path class="st6" d="M232,268.3c0,2.4,0.4,4.7,1.3,6.9c0.7,1.8,2.8,5.2,5.2,4.2c1.2-0.5,1.8-2.3,1.5-3.5c-0.8-3.5-4.1-5.2-5.1-8.6
			C234.3,264.9,231.9,266.5,232,268.3L232,268.3z"/>
	</g>
	<g>
		<path class="st6" d="M245.4,253.5c-0.6-2-0.9-4.2-1.8-6c-0.6-1.2-2-1.4-2.9-0.4c-1.1,1.1-1.2,2.9-0.8,4.3c0.3,1.1,1,1.9,1.5,2.9
			c0.4,0.7,0.7,1.6,1,2.3c0.5,1,1.6,1.1,2.3,0.3C245.6,256.1,245.7,254.7,245.4,253.5L245.4,253.5z"/>
	</g>
	<g>
		<path class="st6" d="M216.4,336.5c-3.5,0.3-6.4,1.2-8.9,3.9c-2.5,2.7-4.2,6.9-3,10.6c0.5,1.4,1.8,2,2.8,0.7c1.4-1.8,2-4.1,3.3-6
			c1.5-2.1,3.5-4.2,5.9-5.2C217.7,340,218.2,336.4,216.4,336.5L216.4,336.5z"/>
	</g>
	<g>
		<path class="st6" d="M217.3,361.9c-3.1,2.8-6.7,9-3.5,13c0.5,0.6,1.4,0.6,1.9,0.1c1.2-1,1.4-2.5,2-3.8c0.5-1.3,1.2-2.4,2.2-3.5
			c1-1.1,1-3.4,0.4-4.7C219.8,361.9,218.5,360.9,217.3,361.9L217.3,361.9z"/>
	</g>
	<g>
		<path class="st6" d="M191.9,361.3c-1,2.2-1.4,4.5-1.1,6.9c0.2,1.9,0.9,4.3,2.9,5.1c1.4,0.6,2.1-1.2,2.2-2.3c0.1-2.3-0.5-4.7,0-7
			c0.3-1.3,0.2-3.2-1.1-4C193.5,359.3,192.4,360.2,191.9,361.3L191.9,361.3z"/>
	</g>
	<g>
		<path class="st6" d="M174,367.5c-1.9,3.2-2.3,7.1-1,10.6c1.1,3.1,3.8,6,7.4,5.7c1.8-0.2,1.9-3.2,0.6-4.1c-2.7-1.7-5.9-5.2-4.1-8.6
			c0.5-1.1,0.5-2.8-0.3-3.7C175.8,366.6,174.6,366.5,174,367.5L174,367.5z"/>
	</g>
	<g>
		<path class="st6" d="M191.5,401.2c4.3,2,11.8,1.7,12.2-4.4c0.1-1.4-0.1-2.9-1.4-3.6c-1-0.6-1.9-0.1-3,0.3c-2.1,0.9-3.9,2-6.3,1.2
			C189.8,393.7,188.9,400,191.5,401.2L191.5,401.2z"/>
	</g>
	<g>
		<path class="st6" d="M218.7,402c-0.4,2.7-2,4.6-2.9,7c-0.4,1.1-0.4,4.6,1.7,3.9c3.6-1.3,4.7-6.6,4.9-9.9c0.1-1.1-0.3-2.7-1.5-2.9
			C219.8,399.8,218.9,401,218.7,402L218.7,402z"/>
	</g>
	<g>
		<path class="st6" d="M215.2,432.8c-1.7,2.7-4.5,4.2-6.6,6.5c-1.1,1.1-0.9,4.5,1,4.7c4.1,0.4,7.1-4,8.7-7.2
			c0.6-1.2,0.5-3.1-0.3-4.1C217.2,431.8,215.9,431.7,215.2,432.8L215.2,432.8z"/>
	</g>
	<g>
		<path class="st6" d="M254.5,424.6c-0.8,1.8-1.5,3.6-1.5,5.6c0,1.3,0.9,3.8,2.7,2.6c1.4-1,2.1-2.8,2.7-4.4c0.6-1.5,0.7-3.7-0.6-4.9
			C256.6,422.4,255,423.3,254.5,424.6L254.5,424.6z"/>
	</g>
	<g>
		<path class="st6" d="M157.2,408.3c-0.7,2.2-1.5,4.3-1.6,6.6c-0.1,1.4,1.3,3.5,2.5,1.8c1.3-1.7,1.9-3.9,2.5-5.9
			c0.4-1.1,0.1-2.9-0.9-3.5C158.7,406.6,157.5,407.3,157.2,408.3L157.2,408.3z"/>
	</g>
	<g>
		<path class="st6" d="M165.3,435.5c0.5,0.7,1,1.5,1.4,2.2c0.7,1.1,2,1.5,3,0.4c1.1-1.2,1.2-2.9,0.8-4.4c-0.2-1-0.5-2-0.7-3
			c-0.4-1.9-2.5-2.8-3.9-1.4C164.4,430.8,164.2,433.8,165.3,435.5L165.3,435.5z"/>
	</g>
	<g>
		<path class="st6" d="M235.5,236.4c1.5,0.5,2.8,1,4.4,1.1c2.1,0.1,2.4-3.9,1.2-5c-1.3-1.1-2.6-1.8-4.1-2.5
			C234.1,228.8,232.8,235.5,235.5,236.4L235.5,236.4z"/>
	</g>
	<g>
		<path class="st6" d="M265.3,245.7c1.8,0.2,3.2,0.2,4.8-0.8c1.3-0.7,1.4-3.7,0.2-4.6c-1.4-1.1-2.9-1.4-4.7-1.4
			C262.6,238.7,262.3,245.3,265.3,245.7L265.3,245.7z"/>
	</g>
	<g>
		<path class="st6" d="M363.5,243.4c-0.2,1.9-0.4,3.7-0.5,5.6c-0.1,1.8-0.4,3.9,0.6,5.5c0.4,0.7,1.4,1.3,2.2,0.5
			c1.5-1.5,1.6-3.4,1.7-5.4c0.2-2,0.2-4,0.4-5.9c0.1-1.3-0.4-3.3-2-3.4C364.3,240,363.6,242.2,363.5,243.4L363.5,243.4z"/>
	</g>
	<g>
		<path class="st6" d="M351.9,265.2c-0.7,3.4-0.5,9.1,3.1,10.9c1.7,0.8,2.2-2.2,1.8-3.2c-0.8-2.4-2-4.2-1.6-6.8
			c0.1-0.9-0.3-2.4-1.4-2.7C352.9,263.2,352.1,264.3,351.9,265.2L351.9,265.2z"/>
	</g>
	<g>
		<path class="st6" d="M364.5,279.9c-0.3,2.4,0.5,4.9,2,6.7c1.1,1.4,3.2,2.7,5.1,2c1.4-0.5,1.9-2.5,1.8-3.8
			c-0.2-1.4-0.9-2.2-2.1-2.7c-0.6-0.3-1.3-0.6-1.8-1.2c0,0-0.6-0.7-0.4-0.5c-0.1-0.4-0.1-0.4-0.1-0.2c0,0.3,0,0.3,0-0.1
			c0.1-1.3-0.5-3.5-2.1-3.5C365.3,276.5,364.7,278.7,364.5,279.9L364.5,279.9z"/>
	</g>
	<g>
		<path class="st6" d="M383,249.1c1.1,3,0.2,5.2-0.3,8.1c-0.2,1.1,0.6,4.8,2.4,3.1c3.7-3.3,3.2-10,1.5-14.1
			C385,242.6,382,246.5,383,249.1L383,249.1z"/>
	</g>
	<g>
		<path class="st6" d="M380.1,205.7c0.7,2.4,1.3,4.8,2.7,6.9c0.4,0.7,1.2,1,1.9,0.5c0.8-0.6,0.9-1.8,0.9-2.6c-0.2-2.6-1.1-5-1.9-7.5
			c-0.4-1.1-1.5-2-2.6-1.2C379.9,202.6,379.7,204.4,380.1,205.7L380.1,205.7z"/>
	</g>
	<g>
		<path class="st6" d="M363.6,193c-0.8,3.4-2.5,7.5-1.6,11c0.2,0.8,1.3,1.8,2.1,1c1.3-1.2,1.6-3,2-4.6c0.5-1.8,0.8-3.7,1.2-5.6
			c0.3-1.2,0.1-3.2-1.2-3.8C364.8,190.5,363.9,192,363.6,193L363.6,193z"/>
	</g>
	<g>
		<path class="st6" d="M369.2,176.3c1.7,0.6,3.1,1.4,4.3,2.7c0.6,0.6,1.2,1.5,2.1,1.5c1.1,0.1,1.8-1.1,2-2c1.1-4.5-4.1-7.1-7.7-7.9
			c-1.2-0.3-1.9,1.6-2,2.4C367.8,174,368,175.9,369.2,176.3L369.2,176.3z"/>
	</g>
	<g>
		<path class="st6" d="M393.8,197.6c0.6,1.3,1.1,2.7,1.7,4c0.3,0.6,1,0.8,1.6,0.4c0.6-0.5,0.8-1.5,0.7-2.2c-0.1-1.4-0.3-2.8-0.4-4.2
			c-0.1-1.2-1.1-2.7-2.4-2C393.7,194.3,393.3,196.4,393.8,197.6L393.8,197.6z"/>
	</g>
	<g>
		<path class="st6" d="M396.5,240.2c0.3,3.4-0.4,7-1.2,10.4c-0.3,1.1,0.8,3.7,2,2c2.9-4.1,3.5-8.8,3-13.7c-0.1-1.1-1-2.6-2.3-2.2
			C396.7,237,396.4,239,396.5,240.2L396.5,240.2z"/>
	</g>
	<g>
		<path class="st6" d="M390.1,291c-0.6,4-4.1,5.6-6.2,8.5c-0.8,1.1-0.8,3.8,0.9,4.1c2.6,0.4,5.1-2.3,6.3-4.2
			c1.6-2.5,2.5-5.2,2.7-8.1c0.1-1-0.4-2.8-1.7-2.9C390.7,288.3,390.2,290,390.1,291L390.1,291z"/>
	</g>
	<g>
		<path class="st6" d="M363.4,313.2c1.2,1.4,0.6,3.4,0,4.7c-0.7,1.6-0.7,3.9,0.4,5.3c1,1.2,2.5,1.2,3.5-0.1c1.9-2.5,2.5-5.9,1.5-8.9
			c-0.7-2.3-2.2-3.6-4.1-4.9c-0.8-0.6-1.6,0.6-1.8,1.2C362.6,311.4,362.7,312.4,363.4,313.2L363.4,313.2z"/>
	</g>
	<g>
		<path class="st6" d="M399.2,261.8c-1.6,3.9-4.3,8.4-4.4,12.7c0,0.8,0.8,3.3,2.1,2c1.5-1.6,2.1-3.5,2.7-5.6
			c0.8-2.4,1.5-4.8,2.3-7.3C402.4,261.9,400.2,259.2,399.2,261.8L399.2,261.8z"/>
	</g>
	<g>
		<path class="st6" d="M396.1,219.4c-2.4,1.2-4.1,3.2-5.2,5.7c-0.9,2.3-1.5,5.9,0.5,7.8c0.8,0.8,1.8-0.2,1.9-1
			c0.2-1.6,0.1-3.2,0.5-4.7c0.4-1.7,1.7-3,3.1-3.9C398.2,222.5,397.7,218.6,396.1,219.4L396.1,219.4z"/>
	</g>
	<g>
		<path class="st6" d="M365.5,296.3c0.6,0,0.7-1.4,0.1-1.4C365,294.8,364.9,296.2,365.5,296.3L365.5,296.3z"/>
	</g>
	<g>
		<path class="st6" d="M378.9,229.4c-0.2-1.9,3-3.1,4.5-3.4c1.3-0.3,1.8-2.4,1.7-3.5c-0.1-1.3-0.6-2.6-1.9-2.9
			c-5.9-1.4-9,7-7.2,11.5C377,233.7,379.1,231.4,378.9,229.4L378.9,229.4z"/>
	</g>
	<g>
		<path class="st6" d="M462.7,125.3c1.8,1.7,3.3,3.6,4.6,5.7c1,1.8,2,4.2,3.7,5.5c1.4,1,2.5-0.6,2.5-2c0-5.9-4.8-10.3-9.4-13.3
			C462.3,120.1,461.7,124.3,462.7,125.3L462.7,125.3z"/>
	</g>
	<g>
		<path class="st6" d="M457.6,137.3c1.9,1.7,0.7,3.1,0.4,5.4c-0.2,1.3,0.6,2.9,2.1,2.7c2.7-0.4,3.1-4.9,2.8-7.1
			c-0.3-2.5-1.5-4.6-3.6-6c-1-0.7-2,0.7-2.2,1.5C456.7,134.9,456.7,136.5,457.6,137.3L457.6,137.3z"/>
	</g>
	<g>
		<path class="st6" d="M450.8,117.4c0.8,2.3,0.6,4.6,0.9,7c0.2,1.8,1.8,2.3,2.7,0.7c1.7-3.1,1-7.3-0.2-10.4c-0.4-1.1-1.4-2-2.5-1.2
			C450.5,114.3,450.4,116.2,450.8,117.4L450.8,117.4z"/>
	</g>
	<g>
		<path class="st6" d="M474.9,152c-1.9,1.8-3.4,4-4.2,6.6c-0.6,2.1-1.3,6.1,0.7,7.6c0.6,0.4,1.3,0.4,1.7-0.2c1-1.4,1-3.1,1.4-4.8
			c0.4-1.9,1.1-3.4,2.3-4.9C477.9,155,476.9,150.1,474.9,152L474.9,152z"/>
	</g>
	<g>
		<path class="st6" d="M462.5,154.1c-0.7,2.6-1.6,5.5-1.6,8.2c0,0.6,0.8,2.1,1.4,1c1.4-2.4,1.9-5.4,2.5-8.1c0.2-0.8,0.1-2.1-0.8-2.4
			C463.3,152.4,462.7,153.4,462.5,154.1L462.5,154.1z"/>
	</g>
	<g>
		<path class="st6" d="M480.2,172.2c1.2,0.5,1.9,1.4,2.6,2.5c0.2,0.3,0.3,0.5,0.4,0.8c0,0,0.5,0.9,0.3,0.4c0.4,0.8,0.6,1.5,1.3,2.1
			c0.8,0.7,1.7,0.5,2.3-0.3c1.7-2.4,1.1-6.2-0.6-8.4c-1.4-1.8-3.2-2.7-5.4-3C478.4,165.9,478.2,171.3,480.2,172.2L480.2,172.2z"/>
	</g>
	<g>
		<path class="st6" d="M468.9,182c0.1,1.5,0.2,3,0.4,4.5c0.2,1.5,0.3,3,1.1,4.3c1,1.6,2.3,0.3,2.7-0.9c0.5-1.5,0.3-3,0.2-4.6
			c-0.1-1.6-0.2-3.2-0.4-4.8c-0.1-1.2-1-2.7-2.4-2.3C469.1,178.7,468.8,180.8,468.9,182L468.9,182z"/>
	</g>
	<g>
		<path class="st6" d="M461.5,178.6c-0.7,2.4-1.3,4.6-1.6,7.1c-0.2,1.7,1.6,3.1,2.5,1.2c1-2.1,1.7-4.4,2.3-6.7c0.3-1,0.1-2.8-1-3.3
			C462.6,176.3,461.8,177.7,461.5,178.6L461.5,178.6z"/>
	</g>
	<g>
		<path class="st6" d="M474.8,205.9c0.1,1.7,0.3,3.5,0.4,5.2c0.1,1.7,0.4,3.5,1.9,4.5c0.6,0.4,1.4-0.1,1.7-0.6
			c1.1-1.6,1-3.6,0.8-5.5c-0.2-1.7-0.4-3.4-0.6-5.1c-0.1-1.2-1-2.8-2.5-2.4C475,202.5,474.7,204.7,474.8,205.9L474.8,205.9z"/>
	</g>
	<g>
		<path class="st6" d="M464.3,211.9c-1.3,3.2-2.6,6.3-3.3,9.7c-0.2,0.9-0.1,2.1,0.6,2.8c0.6,0.6,1.5,0.4,2-0.3c1.7-2.9,2.8-5.9,4-9
			c0.5-1.3,0.6-3.1-0.5-4.1C466,210,464.7,210.8,464.3,211.9L464.3,211.9z"/>
	</g>
	<g>
		<path class="st6" d="M449.3,205.7c-0.7,2.1-1.5,4.2-1.7,6.4c-0.1,1.2,1.2,3.2,2.3,1.6c1.2-1.8,1.8-3.8,2.4-5.8
			c0.3-1,0.1-2.6-0.8-3.2C450.6,204.1,449.6,204.7,449.3,205.7L449.3,205.7z"/>
	</g>
	<g>
		<path class="st6" d="M445.4,233c0.5,1.4,0.9,2.8,1.6,4.1c0.3,0.7,1.2,0.9,1.8,0.5c0.8-0.6,0.9-1.7,0.8-2.5
			c-0.1-1.4-0.3-2.8-0.5-4.2c-0.2-1.2-1.1-2.9-2.5-2.1C445.2,229.6,445,231.7,445.4,233L445.4,233z"/>
	</g>
	<g>
		<path class="st6" d="M344.3,164c0.3,0.1,0.6,0.2,0.8,0.3c-0.3-0.3-0.5-0.7-0.8-1c0.6,1.7,1.8,1.6,3.2,2.3c1.2,0.6,2.1,1.6,3.1,2.4
			c2.9,2.2,4-3.2,2.9-5.1c-1.5-2.6-4.5-3.6-7.4-3.3c-0.8,0.1-1.3,0.5-1.6,1.2c0.1-0.3,0-0.3-0.4,0.1
			C343.4,161.5,343.3,163.7,344.3,164L344.3,164z"/>
	</g>
	<g>
		<path class="st6" d="M328.2,173.4c1.3,1.7,2.6,3.5,3.9,5.2c1,1.3,2.4,4.2,4.3,4c1.5-0.1,1.9-1.9,1.8-3.2c-0.3-2.4-1.9-3.8-3.5-5.5
			c-1.4-1.5-2.8-3.1-4.3-4.6C328.7,167.5,327.2,172,328.2,173.4L328.2,173.4z"/>
	</g>
	<g>
		<path class="st6" d="M320.7,162.4c1.7-1.5,4.1-1.7,6.2-2.1c1.6-0.3,1.4-3.4,0.2-4c-3-1.6-6,0.2-8,2.6c-0.6,0.7-0.6,2-0.3,2.8
			C319.2,162.5,320,163.1,320.7,162.4L320.7,162.4z"/>
	</g>
	<g>
		<path class="st6" d="M175.3,159.7c2.9-2.8,5.9-5.9,6.4-10c0.1-0.8-0.4-2.5-1.4-2.4c-1.7,0.1-3,1.5-3.9,2.7
			c-1.2,1.5-2.2,3.1-3.2,4.8c-0.7,1.2-1,2.7-0.4,4C173.2,159.7,174.3,160.7,175.3,159.7L175.3,159.7z"/>
	</g>
	<g>
		<path class="st6" d="M188.6,141.1c3-0.4,7.2-0.2,9.1-2.9c0.6-0.9,0.9-3-0.1-3.8c-2.6-1.9-6.5,0.4-9.2,1.4
			c-1.1,0.4-1.5,1.9-1.4,2.9C187.1,139.5,187.5,141.3,188.6,141.1L188.6,141.1z"/>
	</g>
	<g>
		<path class="st6" d="M206.8,136.2c1.5,1.4,3,2.4,4.9,2.9c2,0.5,3.9,0.5,5.9,0.4c4.3-0.1,2.7-8.8-0.3-7.3c-2.7,1.4-6.4,1-9.3,0.1
			C206.1,131.8,205.7,135.2,206.8,136.2L206.8,136.2z"/>
	</g>
	<g>
		<path class="st6" d="M226,145c0.2-0.3-0.2,0,0.4-0.3c0.3-0.1,0.5-0.3,0.8-0.4c0.7-0.2,1.4-0.4,2.1-0.5c1.6-0.3,1.5-3.7,0.2-4.3
			c-2.8-1.4-5,1.3-5.6,3.9C223.6,144.9,224.9,146.9,226,145L226,145z"/>
	</g>
	<g>
		<path class="st6" d="M228.8,131.7c0.8-0.4,1.7-0.7,2.6-0.8c0.9,0,1.7,0,2.6-0.4c0.9-0.4,1.1-2.1,0.4-2.8c-1.8-1.8-4.5-0.7-6.3,0.6
			C227.1,129.1,227.4,132.5,228.8,131.7L228.8,131.7z"/>
	</g>
	<g>
		<path class="st6" d="M202.7,128.5c1.3,0,2.6,0.1,3.9-0.1c1.1-0.1,1.6-2.5,0.4-2.8c-1.4-0.4-2.7-0.6-4.1-0.7
			C201.3,124.6,201,128.4,202.7,128.5L202.7,128.5z"/>
	</g>
	<g>
		<path class="st6" d="M240.8,141.8c0.9,1.3,2,3.5,3.9,3.1c1-0.2,1.1-1.8,1.1-2.5c-0.1-1.9-1.4-3.2-2.8-4.5
			C241.1,136.2,239.9,140.5,240.8,141.8L240.8,141.8z"/>
	</g>
	<g>
		<path class="st6" d="M166.4,150.1c1.1-0.9,2.1-1.7,3-2.8c0.5-0.6,0.4-3.4-0.9-2.7c-1.2,0.7-2.1,1.4-3.1,2.4
			c-0.6,0.6-0.8,1.6-0.5,2.4C165.1,150,165.7,150.6,166.4,150.1L166.4,150.1z"/>
	</g>
	<g>
		<path class="st6" d="M200.6,155.7c1.9,0.3,4,1.2,5.8,0c0.8-0.6,0.9-2.2,0.2-2.9c-1.5-1.4-3.8-0.9-5.7-0.9
			C199.1,152,198.9,155.4,200.6,155.7L200.6,155.7z"/>
	</g>
	<g>
		<path class="st6" d="M84.1,252.8c2.4-0.8,4.9-0.8,7.4-0.5c2.4,0.3,2.5-4.8,0.3-5.3c-2.8-0.7-5.6-0.3-8.3,0.9
			C81.5,248.7,81.7,253.6,84.1,252.8L84.1,252.8z"/>
	</g>
	<g>
		<path class="st6" d="M84.3,235.3c1.9,2.4,6,5.3,8.9,3.1c1.1-0.8,0.9-2.9-0.1-3.7c-1.2-0.8-2.5-0.8-3.8-1.2c-1.3-0.4-2.4-1.1-3.4-2
			c-0.8-0.7-1.6-0.1-2,0.7C83.4,233.3,83.6,234.5,84.3,235.3L84.3,235.3z"/>
	</g>
	<g>
		<path class="st6" d="M68.3,242.4c-1.2,3.2-2.4,6.4-3.1,9.7c-0.2,1.1-0.1,2.6,0.9,3.3c1,0.6,1.8-0.1,2.3-1c1.5-3,2.4-6.3,3.3-9.5
			c0.3-1.1,0.1-2.8-0.9-3.5C69.8,240.7,68.7,241.4,68.3,242.4L68.3,242.4z"/>
	</g>
	<g>
		<path class="st6" d="M52.3,260.5C52.1,259.8,52.3,260.4,52.3,260.5c-0.1,0.2-0.1,0.4-0.2,0.5c-0.1,0.2,0,0.2,0.1-0.1
			c0.1-0.3,0.2-0.3,0.1-0.1c-0.1,0.2-0.1,0.2,0.1-0.1c-0.3,0.1,0.1-0.1,0.3-0.2c0.2-0.2,0.5-0.3,0.7-0.5c0.1,0,0.7-0.4,0.4-0.3
			c0.9-0.4,1.4-0.8,2-1.5c0.9-1.1,1-3.2,0.2-4.4c-0.5-0.7-1-1.5-2-1.6c-0.6-0.1-1.3,0-1.8,0.2c-1.4,0.4-2.4,1.7-3.2,2.9
			c-1.5,2.5-1.7,6-0.2,8.6c0.6,1,1.7,1.2,2.5,0.4C52.5,263.3,52.8,261.7,52.3,260.5L52.3,260.5z"/>
	</g>
	<g>
		<path class="st6" d="M51,234.8c-0.8,1.9-0.9,4.2-0.1,6.1c0.7,1.6,2,3.2,3.9,2.8c1.4-0.3,1.3-2.7,0.8-3.6c-0.5-1-1.9-2-1.6-3.2
			c0.3-1,0.1-2.5-0.8-3.1C52.3,233.3,51.3,233.9,51,234.8L51,234.8z"/>
	</g>
	<g>
		<path class="st6" d="M36.3,261.6c0.8-3.9,3.8-6.5,6.4-9.3c0.6-0.7,0.7-3.4-0.7-3.2c-5.6,0.5-8.3,6.9-8.7,11.8
			C33.1,263.1,35.8,264.2,36.3,261.6L36.3,261.6z"/>
	</g>
	<g>
		<path class="st6" d="M69.7,225.3c1.4,0.8,3.1,0.8,4.5,0.1c2-0.9,2.8-2.9,2.7-5c0-0.7-0.8-2.1-1.7-1.6c-1.5,0.7-2.6,2.6-4.5,2
			C68.5,220.3,68,224.4,69.7,225.3L69.7,225.3z"/>
	</g>
	<g>
		<path class="st6" d="M104.7,228.2c1.4,0.9,2.3,2.6,2.7,4.2c0.1,0.6,0.7,1.1,1.3,1.1c0.7-0.1,1-0.8,1.2-1.4
			c1.1-3.5-0.7-7.3-4.1-8.6C103.5,222.5,103,227.1,104.7,228.2L104.7,228.2z"/>
	</g>
	<g>
		<path class="st6" d="M103.3,243.6c-2.1,1.7-3.1,4.3-3.1,7c0,2,1,6.5,3.8,6.3c1.4-0.1,1.8-2.1,1.4-3.2c-0.9-2.4-2.7-4.1-0.5-6.4
			C105.9,246.1,105.1,242.1,103.3,243.6L103.3,243.6z"/>
	</g>
	<g>
		<path class="st6" d="M34.4,366.3c0.1-3.3,3.4-4.7,4.7-7.4c0.4-0.9,0.5-3.3-0.8-3.7c-2.4-0.8-4.6,2-5.5,3.9c-1.1,2.3-1.3,5-0.9,7.6
			C32.2,368.9,34.3,368.3,34.4,366.3L34.4,366.3z"/>
	</g>
	<g>
		<path class="st6" d="M50.2,377.2c2.4-3.8,6.2-10.3,3.9-14.9c-0.3-0.7-1.3-1-1.9-0.5c-1.5,1.4-1.7,3.6-2.2,5.5
			c-0.5,2.3-1.4,4.4-2.5,6.5C46.7,375.5,48.6,379.7,50.2,377.2L50.2,377.2z"/>
	</g>
	<g>
		<path class="st6" d="M55.1,348.6c1-1.3,2.4-2.2,4.1-2.3c1.6-0.1,3.1,0.5,4.6,0c1.6-0.5,1.6-3.3,0.6-4.4c-3.1-3.3-9.1,0.9-11,3.8
			c-0.5,0.8-0.7,2-0.2,2.8C53.7,349.2,54.5,349.3,55.1,348.6L55.1,348.6z"/>
	</g>
	<g>
		<path class="st6" d="M75.2,366.6c1.6-0.4,3.1-1.2,4.4-2.3c1.6-1.3,2.3-3.3,2.8-5.3c0.2-1.1,0.1-2.7-0.9-3.3c-1-0.7-1.9,0.1-2.3,1
			c-0.5,1-1.2,1.8-1.9,2.8c-0.7,1-1.6,1.8-2.6,2.4c-1,0.6-1.4,1.8-1.3,2.9C73.5,365.8,74.1,366.9,75.2,366.6L75.2,366.6z"/>
	</g>
	<g>
		<path class="st6" d="M77.7,348.2c0.8-3.6,1.9-10.2-1.2-13c-1.2-1.1-2.1,0.7-2.2,1.7c-0.2,1.6,0.2,3.2,0.4,4.8
			c0.2,1.7,0.2,3.3-0.1,5c-0.2,1-0.1,2.6,1,3.1C76.7,350.3,77.5,349.1,77.7,348.2L77.7,348.2z"/>
	</g>
	<g>
		<path class="st6" d="M90.3,348.4c1.5-1.5,2.9-1.9,4.9-2.3c1.1-0.2,2.4-0.5,3.1-1.4c0.8-1.1,1-2.5,0.5-3.8
			c-0.9-2.3-3.7-2.2-5.6-1.2c-2,1-3.6,2.5-4.9,4.3c-0.7,1-0.8,2.4-0.3,3.6C88.4,348.4,89.5,349.2,90.3,348.4L90.3,348.4z"/>
	</g>
	<g>
		<path class="st6" d="M69.7,380.7c1.3,3.2,0,5.5-0.6,8.7c-0.1,0.7,0.2,3.4,1.5,2.6c4.6-2.6,3.5-10.1,1.4-13.9
			C70.9,375.9,69.2,379.3,69.7,380.7L69.7,380.7z"/>
	</g>
	<g>
		<path class="st6" d="M57,387.9c0.5,2-3.6,3.6-4.9,4.4c-1.5,1-1.6,4.6,0.2,5.4c3,1.4,5.9-1.1,7.2-3.6c1.4-2.6,1.8-6,0.8-8.9
			c-0.4-1.1-1.3-1.9-2.4-1.1C56.7,384.9,56.7,386.7,57,387.9L57,387.9z"/>
	</g>
	<g>
		<path class="st6" d="M37.6,374.4c-2.2,0-3.9,1.5-4.8,3.4c-1.3,2.8-1,6,1,8.4c0.4,0.5,1.3,0.8,1.9,0.5c1.4-0.7,2-1.9,2-3.4
			c0-0.7,0-1.5-0.2-2.2c-0.4-0.9-0.5-1.1-0.2-0.5c-0.1-0.4-0.1-0.4,0,0.1c0-0.2,0-0.4-0.1-0.5c-0.1-0.4-0.1-0.3-0.1,0.2
			c0-0.1,0-0.2,0-0.3c-0.1,0.5-0.1,0.5,0,0.1c-0.1,0.4-0.1,0.4,0,0c-0.1,0.2-0.1,0.2,0.1-0.1c-0.1,0.1,0.4-0.3,0.5-0.3
			c1.1-0.5,1.5-1.8,1.5-3C39.3,376,38.8,374.4,37.6,374.4L37.6,374.4z"/>
	</g>
	<g>
		<path class="st6" d="M92.6,365.1c0.1,0.4,0.2,0.8,0.2,1.2c0.1,0.7,0.4,1.5,1.2,1.7c0.7,0.2,1.3-0.4,1.5-1c0.1-0.3,0.2-0.7,0.4-1
			c0.5-1.3,0.6-3.8-1.1-4.2C93.1,361.4,92.4,363.9,92.6,365.1L92.6,365.1z"/>
	</g>
	<g>
		<path class="st6" d="M282.8,78c1.4-1.2,3.1-1.9,4.8-2.6c1.8-0.8,3.9-1.2,5.2-2.9c0.9-1.2,0.9-3.5-0.5-4.3c-2-1.2-4.8,0.9-6.3,2.3
			c-1.8,1.6-3,3.8-4.1,5.9C281.6,76.9,281.9,78.8,282.8,78L282.8,78z"/>
	</g>
	<g>
		<path class="st6" d="M302.2,64.3c2.9,3.2,9.9,7.7,13.4,3c0.7-1,1-3.3-0.1-4.1c-1.8-1.4-3.7-0.8-5.8-0.9c-2.2-0.2-4.3-0.6-6.2-1.7
			C301.7,59.5,301.4,63.4,302.2,64.3L302.2,64.3z"/>
	</g>
	<g>
		<path class="st6" d="M318.9,58.4c2.1,0.3,4.2,0.6,6.3,0.8c2,0.3,3.9,0.7,5.8-0.1c1.5-0.6,1.5-3.2,0.2-4.1c-1.7-1.1-3.7-1-5.7-1
			c-2.1,0-4.2-0.1-6.3-0.1C317.1,53.9,316.9,58.1,318.9,58.4L318.9,58.4z"/>
	</g>
	<g>
		<path class="st6" d="M330.1,66.5c0.9,1.9,1.9,5.4,4.1,6.2c1.6,0.5,2.2-1.6,2.1-2.8c-0.4-2.8-2.4-4.8-4.2-6.8
			c-0.7-0.7-1.6-0.2-2,0.5C329.6,64.5,329.7,65.6,330.1,66.5L330.1,66.5z"/>
	</g>
	<g>
		<path class="st6" d="M345.6,66.8c3.8-0.3,7.4,3,7.6,6.8c0.1,1.5,1.6,1.4,2,0.1c1.7-6-3.6-11.8-9.7-10.7
			C344,63.2,344,66.9,345.6,66.8L345.6,66.8z"/>
	</g>
	<g>
		<path class="st6" d="M345.1,76.4c0.9,0.9,1.3,1.9,1,3c0.8-0.8,1.6-1.7,2.4-2.5c-2.4-0.3-5.1,0.8-6.5,2.8c-0.8,1.2-0.9,3.9,0.9,4.2
			c0.8,0.1,1.6,0,2.5,0c0.9,0,1.8,0.1,2.7,0.2c1.7,0.1,2.4-2.2,2.5-3.5c0.4-3.6-1-7-3.9-9.1c-1-0.7-2,0.7-2.2,1.5
			C344.2,74,344.3,75.5,345.1,76.4L345.1,76.4z"/>
	</g>
	<g>
		<path class="st6" d="M362.6,76.4c-3.3,1.9-4.8,7.6-1.7,10.3c2.3,2.1,3.7-2.5,3-4.1c-0.2-0.5-0.6-2.1-0.3-0.4c0,0.1,0.2-0.2,0,0
			c-0.2,0.2,0.4-0.2,0.2-0.1c1.1-0.8,1.3-2.6,1-3.8C364.7,77.5,363.8,75.8,362.6,76.4L362.6,76.4z"/>
	</g>
	<g>
		<path class="st6" d="M266.1,79.7c1.3-1.8,2.3-3.6,3-5.7c0.2-0.7,0.3-1.5-0.1-2.2c-0.3-0.5-0.9-0.8-1.4-0.4
			c-1.6,1.6-2.6,3.4-3.7,5.4c-0.4,0.8-0.4,2.2,0.2,2.9C264.7,80.4,265.6,80.4,266.1,79.7L266.1,79.7z"/>
	</g>
	<g>
		<path class="st6" d="M380.3,41.5c1.2-0.5,2.4-1.1,3.6-1.6c0.6-0.3,1.3-0.5,1.8-0.8c0.6-0.3,1-0.8,1.5-1.3c0.8-0.7,0.8-3-0.6-2.8
			c-0.6,0.1-1.2,0.2-1.7,0.4c-0.6,0.3-1.2,0.7-1.8,1c-1.2,0.7-2.3,1.4-3.5,2.1C378.7,39.1,379,42,380.3,41.5L380.3,41.5z"/>
	</g>
	<g>
		<path class="st6" d="M396,37.9c0.1,0.4,0.1,0.8,0.2,1.2c0.2,0.9,1.3,1.7,1.8,0.5c0.1-0.3,0.2-0.7,0.4-1c0.3-0.9,0.4-2.7-0.8-3
			C396.4,35.2,395.9,37,396,37.9L396,37.9z"/>
	</g>
	<g>
		<path class="st6" d="M505.2,72.6c-1.1,3.9-1.4,8.3,1.2,11.7c1.3,1.6,2.3-1.5,2.2-2.3c-0.2-2.9-0.8-5.7-0.5-8.6
			C508.4,71,505.9,70.1,505.2,72.6L505.2,72.6z"/>
	</g>
	<g>
		<path class="st6" d="M513.9,77.7c-1.7,3-0.8,6.9,1.4,9.4c0.9,1,2.2,2.1,3.6,2.1c1.8,0.1,3.4-0.9,4-2.5c0.4-1,0.6-3-0.4-3.7
			c-0.4-0.3-0.8-0.7-1.4-0.7c-0.2,0-0.8,0-0.8,0c-0.8-0.2-1.4-0.4-2-0.7c-0.5-0.2-0.8-0.6-1.1-0.9c-0.1-0.2-0.1-0.4-0.1-0.1
			c0-0.7,0,0.2-0.1,0.3c0.5-1.3,0.6-3-0.5-4.1C515.6,75.8,514.5,76.8,513.9,77.7L513.9,77.7z"/>
	</g>
	<g>
		<path class="st6" d="M518.2,71.3c3.5,2.5,8.2-1,7.5-5c-0.2-1.1-1-2.4-2.2-1.5c-1,0.6-2.2,2.5-4.1,1.5c-1.1-0.6-2,0.8-2.2,1.7
			C516.9,69.2,517.1,70.6,518.2,71.3L518.2,71.3z"/>
	</g>
	<g>
		<path class="st6" d="M514.2,53.1c0.3,0.2,0.4,0.4,0.7,0.7c-0.1-0.2,0.2,0.4,0.1,0.2c-0.2-0.5,0.2,0,0,0c0,0,0.1-0.5,0,0
			c-0.1,0.9-0.2,1.2-0.1,0.7c0-0.1,0-0.2,0-0.3c0.2-0.3-0.2,0.3-0.2,0.4c-0.1,0.2-0.5,1.3-0.3,0.9c-0.4,1.1-0.5,3.9,1.3,4
			c2.9,0.1,3.8-4.1,3.4-6.3c-0.3-2.1-1.5-4.4-3.6-5.1C512.9,47.6,512.4,52.1,514.2,53.1L514.2,53.1z"/>
	</g>
	<g>
		<path class="st6" d="M530.5,88.2c1.8,1.6,0.5,3-0.7,4.6c-0.7,1-1,4.3,0.9,4.3c3.2,0.1,4.5-3.7,4.7-6.4c0.1-2.9-0.9-5.7-3.3-7.5
			C530.1,81.8,529.1,86.9,530.5,88.2L530.5,88.2z"/>
	</g>
	<g>
		<path class="st6" d="M520.2,104.2c-1.8,2.1-2.2,5-1.7,7.6c0.4,2.1,2.1,5.4,4.8,4.8c1.2-0.3,1.2-2.3,0.7-3.1
			c-1.1-1.9-3.5-3.8-2-6.2c0.5-0.8,0.7-2.1,0.2-3C521.6,103.5,520.8,103.5,520.2,104.2L520.2,104.2z"/>
	</g>
	<g>
		<path class="st6" d="M531.6,116.3c0.2,1.2,0.3,2.4,0.4,3.6c0.1,1.5,1.7,1.5,2,0.1c0.2-1.2,0.6-2.4,0.9-3.6c0.3-1,0-3.3-1.5-3.4
			C531.9,113.1,531.4,115.2,531.6,116.3L531.6,116.3z"/>
	</g>
	<g>
		<path class="st6" d="M371.3,267.7c0.2,1.9,1.1,3.6,2.7,4.6c1.6,1.1,3.5,1.2,4.7-0.6c0.4-0.7,0.5-1.8-0.3-2.3
			c-1.7-1.1-4.3-0.6-4.9-3.1c-0.2-0.6-0.8-1.1-1.4-0.8C371.3,266,371.2,267,371.3,267.7L371.3,267.7z"/>
	</g>
	<g>
		<path class="st6" d="M372.4,239c0.8,0.5,1.4,1.4,1.5,2.3c0.1,0.9-0.2,1.8-0.2,2.7c0,0.5,0.3,1.7,1.1,1.4c1.8-0.7,1.8-3.7,1.5-5.2
			c-0.4-1.9-1.5-3.4-3.1-4.4C371.7,235,371.3,238.2,372.4,239L372.4,239z"/>
	</g>
	<g>
		<path class="st6" d="M365.2,217.4c0,1.2-0.3,2.3-0.9,3.3c-0.7,1.1-1.7,2-2.2,3.2c-0.2,0.7-0.4,2.4,0.6,2.7c2,0.6,3.5-2,4.2-3.6
			c0.9-2.1,0.9-4.3,0.4-6.4C366.9,214.9,365.2,216.1,365.2,217.4L365.2,217.4z"/>
	</g>
	<g>
		<path class="st6" d="M374.3,188.5c0.1,2,0.2,3.9,0.4,5.9c0.1,1.7,0.2,3.3,1.4,4.6c0.8,0.9,1.6-0.3,1.9-1c0.6-1.8,0.1-3.6-0.3-5.4
			c-0.4-1.8-0.8-3.5-1.3-5.3c-0.2-0.6-0.7-1-1.3-0.7C374.4,187,374.3,187.9,374.3,188.5L374.3,188.5z"/>
	</g>
	<g>
		<path class="st6" d="M398.7,215.9c1.3,0.7,3,2,4.5,1.4c1.1-0.4,1.3-2.2,0.7-3.1c-0.9-1.5-2.6-1.8-4.2-2.4
			C397.6,211.1,397.1,215,398.7,215.9L398.7,215.9z"/>
	</g>
	<g>
		<path class="st6" d="M388.1,238c0.2,1.7,0.5,3.6,1.6,5c0.8,1.1,1.7-0.7,1.7-1.4c0.1-1.7-0.4-3.4-1-4.9
			C389.6,234.6,387.9,236.5,388.1,238L388.1,238z"/>
	</g>
	<g>
		<path class="st6" d="M401.3,229.2c0.8,1.5,0.9,3.3,0.6,5c-0.2,1.1,0.9,2.9,1.7,1.2c1.4-2.7,1.1-6-0.6-8.5
			c-0.4-0.6-1.1-0.7-1.6-0.1C400.9,227.4,401,228.5,401.3,229.2L401.3,229.2z"/>
	</g>
	<g>
		<path class="st6" d="M383.1,174.7c4.2-1.1,6.5,1.8,9.3,4.2c0.9,0.7,1.4-0.7,1.3-1.4c-0.5-5.2-6.6-7.1-11-5.4
			C381.8,172.5,381.9,175.1,383.1,174.7L383.1,174.7z"/>
	</g>
	<g>
		<path class="st6" d="M336.6,250.4c-0.2,1.5-0.7,3.6,0.2,5c0.4,0.6,0.9,0.6,1.4,0.1c1-1.1,0.8-3.5,0.9-4.9c0-0.7-0.2-1.9-1.1-1.9
			C337,248.5,336.6,249.7,336.6,250.4L336.6,250.4z"/>
	</g>
	<g>
		<path class="st6" d="M347,304.5c-1.9,2.3-3,7.6,0,9.5c1,0.6,1.5-1.3,1.4-2c-0.3-1.7-0.8-3,0.3-4.4c0.6-0.8,0.7-2.1,0.2-3
			C348.5,303.8,347.6,303.7,347,304.5L347,304.5z"/>
	</g>
	<g>
		<path class="st6" d="M354.1,342.2c0.2,3.2-1.4,6.2-2.5,9.1c-0.3,0.9-0.1,3.2,1.3,2.3c4-2.4,4.4-8.2,3.9-12.3
			c-0.1-0.8-0.6-1.8-1.6-1.5C354.2,340,354,341.4,354.1,342.2L354.1,342.2z"/>
	</g>
	<g>
		<path class="st6" d="M232.6,350.8c-0.7,1.4-1,3-0.8,4.5c0.2,1.3,0.7,3.2,2.1,3.5c1.4,0.4,1.7-1.6,1.5-2.5
			c-0.3-1.1-1.1-2.2-0.6-3.4c0.4-0.8,0.4-2.1-0.3-2.8C233.7,349.5,233,350.1,232.6,350.8L232.6,350.8z"/>
	</g>
	<g>
		<path class="st6" d="M233.8,315.9c0.2,1.7,0.9,3.3,2.4,4.3c1.4,0.9,3.1,0.9,4.3-0.2c0.7-0.7,1.1-2.9-0.1-3.3
			c-1.5-0.6-3.7-0.7-4.4-2.4c-0.3-0.6-1-0.7-1.5-0.4C233.9,314.2,233.7,315.2,233.8,315.9L233.8,315.9z"/>
	</g>
	<g>
		<path class="st6" d="M244.2,287.5c-1.6,2.3-1.2,5.7,1.3,7.2c0.7,0.4,1.3-0.5,1.5-1c0.3-0.8,0.2-1.8-0.4-2.4
			c-0.3-0.3-0.6-0.9-0.5-1.3c0.3-0.8,0.4-1.9-0.2-2.6C245.4,286.8,244.6,286.8,244.2,287.5L244.2,287.5z"/>
	</g>
	<g>
		<path class="st6" d="M276.1,268.6c1,0.6,1.7,1.6,2.2,2.7c0.5,1.1,0.5,2.4,1.9,2.7c0.4,0.1,0.8-0.3,1-0.5c1.3-1.5,0.5-4.1-0.4-5.6
			c-0.8-1.4-2.2-2.5-3.7-3C275.1,264.1,274.8,267.8,276.1,268.6L276.1,268.6z"/>
	</g>
	<g>
		<path class="st6" d="M275,292.4c-2.2,2.5-3.2,6.9-2.2,10c0.5,1.6,2.1,1,2.4-0.3c0.6-2.5,0.9-4.8,1.7-7.2c0.3-0.8,0.4-1.8-0.2-2.6
			C276.2,291.7,275.5,291.8,275,292.4L275,292.4z"/>
	</g>
	<g>
		<path class="st6" d="M290,364.8c-0.9,2.8-2.9,4.6-4.3,7.1c-0.4,0.7-0.1,3,1.1,2.5c3.1-1.2,4.8-5.5,5.7-8.4
			C293.1,363.9,290.8,362.3,290,364.8L290,364.8z"/>
	</g>
	<g>
		<path class="st6" d="M23.1,273.3c2.6,1.3,6.5,1.3,8.8-0.7c0.6-0.6,1.1-3.3-0.4-3.1c-1.3,0.1-2.6,0.5-3.9,0.7
			c-1.4,0.1-2.7-0.1-4-0.3C22.1,269.5,22,272.8,23.1,273.3L23.1,273.3z"/>
	</g>
	<g>
		<path class="st6" d="M75.5,269.7c0.3-1.2,0.9-2.2,1.8-3c1-0.8,2.4-1.3,3.3-2.2c0.6-0.6,0.9-2.3-0.1-2.8c-1.6-0.8-3.7,0.7-4.8,1.9
			c-1.3,1.4-2.2,3.2-2.5,5.1c-0.1,0.7-0.1,1.9,0.7,2.3C74.8,271.2,75.4,270.3,75.5,269.7L75.5,269.7z"/>
	</g>
	<g>
		<path class="st6" d="M96.5,267.4c1.5,1,3.6,3.1,5.6,2.8c1.1-0.2,1-2.1,0.6-2.8c-1-1.8-3.6-2.8-5.3-3.8
			C95.8,262.7,95.3,266.5,96.5,267.4L96.5,267.4z"/>
	</g>
	<g>
		<path class="st6" d="M53.7,403.1C53.7,403.1,53.7,403,53.7,403.1C53.7,403,53.7,403.1,53.7,403.1L53.7,403.1z"/>
	</g>
	<g>
		<path class="st6" d="M56.3,413.6c1.5-1.7,3.8-3.5,4.5-5.8c0.2-0.8-0.1-2.3-1.2-2.1c-1.1,0.2-1.8,1.4-2.5,2.2
			c-0.8,1-1.6,1.9-2.4,2.9C53.6,412,54.7,415.4,56.3,413.6L56.3,413.6z"/>
	</g>
	<g>
		<path class="st6" d="M41.6,410.3c-2,3.7-2.3,9.6,1,12.7c1.2,1.1,1.9-1.3,1.6-2.1c-1.3-2.9-2.2-5.6-0.7-8.6
			C44.3,410.7,42.7,408.3,41.6,410.3L41.6,410.3z"/>
	</g>
	<g>
		<path class="st6" d="M30.5,398.6c-2.3,0.4-3.7,2.4-4.3,4.6c-0.6,2.1-0.5,5.4,1.7,6.6c1.4,0.8,1.9-1.7,1.8-2.5
			c-0.2-2-0.1-3.6,1.7-5C32.4,401.4,32.4,398.2,30.5,398.6L30.5,398.6z"/>
	</g>
	<g>
		<path class="st6" d="M15.8,374.5c0.3,2,2.3,3.8,3.9,1.8c0.4-0.4,0.4-1.5-0.2-1.8c-0.4-0.2-1.6-0.6-1.8-1.1
			C17.1,371.6,15.6,373.2,15.8,374.5L15.8,374.5z"/>
	</g>
	<g>
		<path class="st6" d="M85.1,388.7c0.4-0.1,0.8-0.2,1.2-0.3c0.8-0.2,0.8-1.9,0.1-2.2c-0.4-0.2-0.8-0.3-1.2-0.5
			C83.6,385,83.2,389.2,85.1,388.7L85.1,388.7z"/>
	</g>
	<g>
		<path class="st6" d="M60.7,358c1.3,1,2.5,2,4,2.8c1.3,0.7,1.4-2,0.9-2.6c-1.1-1.2-2.3-2.2-3.5-3.3C60.6,353.6,59.5,357.1,60.7,358
			L60.7,358z"/>
	</g>
	<g>
		<path class="st6" d="M83.2,379.9c0.5-0.1,0.8-0.2,1.2-0.4c0.8-0.4,1.2-2.1,0.4-2.7c-0.5-0.3-0.9-0.5-1.4-0.7
			C81.3,375.3,80.9,380.3,83.2,379.9L83.2,379.9z"/>
	</g>
	<g>
		<path class="st6" d="M221.6,383c1.4,0.7,2.8,1.6,4.4,1.2c0.9-0.2,1.1-2,0.6-2.6c-1-1.5-2.5-1.9-4.1-2.6
			C220.7,378.2,220.1,382.2,221.6,383L221.6,383z"/>
	</g>
	<g>
		<path class="st6" d="M221.1,353.8c0.5,0.4,1,0.8,1.6,1.1c1,0.5,1.4-1.4,1.1-2c-0.3-0.7-0.7-1.4-1-2.1
			C221.6,348.8,219.4,352.6,221.1,353.8L221.1,353.8z"/>
	</g>
	<g>
		<path class="st6" d="M235,372.8c0.4,0.6,0.8,1.1,1.4,1.5c0.2,0.1,0.4,0.1,0.6,0c1.8-1,0.7-3.3-0.4-4.4
			C235.3,368.5,234.2,371.8,235,372.8L235,372.8z"/>
	</g>
	<g>
		<path class="st6" d="M243.8,346.5c0.5,0.6,1.1,1.1,1.9,1.2c1,0.2,1.1-1.6,1-2.2c-0.2-0.9-0.7-1.7-1.3-2.4c-0.7-0.7-1.5,0-1.8,0.6
			C243,344.7,243.1,345.8,243.8,346.5L243.8,346.5z"/>
	</g>
	<g>
		<path class="st6" d="M253.3,265.6c1.2-0.1,2-0.1,3.1-0.7c0.6-0.4,0.7-1.8,0.1-2.3c-1-0.8-1.8-0.9-3-1.2
			C251.7,261,251.4,265.7,253.3,265.6L253.3,265.6z"/>
	</g>
	<g>
		<path class="st6" d="M343.3,279.6c-0.1,1-0.1,2,0,3.1c0.1,1.7,1.9,1.7,2.2,0.1c0.2-1,0.4-2,0.4-3c0-0.8-0.3-2-1.2-2.1
			C343.8,277.5,343.4,278.8,343.3,279.6L343.3,279.6z"/>
	</g>
	<g>
		<path class="st6" d="M350.8,251.9c1.6,0.1,1.8-3.5,0.2-3.6C349.4,248.2,349.2,251.8,350.8,251.9L350.8,251.9z"/>
	</g>
	<g>
		<path class="st6" d="M470.4,230.3c-0.2,1.5-0.9,2.5-2.4,3.2c-1.5,0.7-3.1,0.4-4.5,0.9c-1.1,0.4-1.3,2.3-0.7,3.1
			c1.7,2.3,4.8,1.7,6.9,0.2c2.3-1.7,3.5-4.5,3.3-7.3C472.9,228.5,470.7,228.3,470.4,230.3L470.4,230.3z"/>
	</g>
	<g>
		<path class="st6" d="M482.3,191.9c0.9,0.9,1.8,1.9,3,2.3c1.4,0.5,1.5-1.8,1.1-2.5c-0.6-1.3-1.5-2.3-2.6-3.3
			c-0.7-0.7-1.5-0.1-1.9,0.6C481.6,189.9,481.7,191.1,482.3,191.9L482.3,191.9z"/>
	</g>
	<g>
		<path class="st6" d="M477,141.4c-0.5,0.6-1,1.1-1.3,1.8c-0.2,0.4-0.2,2.1,0.6,2c0.8-0.1,1.3-0.5,2-0.9
			C479.7,143.3,478.5,139.8,477,141.4L477,141.4z"/>
	</g>
	<g>
		<path class="st6" d="M443.5,143.3c1.6,1,3.3,1.8,5.1,2.3c1.2,0.3,1.4-1.7,0.8-2.3c-1.5-1.5-3.2-2.7-5-3.8
			C442.8,138.6,442.2,142.4,443.5,143.3L443.5,143.3z"/>
	</g>
	<g>
		<path class="st6" d="M441.8,111c-2.8,1.9-4.5,5.3-3.7,8.7c0.3,1.3,1.6,1.1,2.1,0.1c1-2,1.4-4.1,2.9-5.9
			C443.8,113,443.4,110,441.8,111L441.8,111z"/>
	</g>
	<g>
		<path class="st6" d="M538.9,110.1c1.2,0.2,2.1,0.5,3.1-0.3c0.7-0.6,0.7-1.8,0.1-2.5c-0.8-1-1.9-0.7-3-0.8
			C537.6,106.6,537.4,109.9,538.9,110.1L538.9,110.1z"/>
	</g>
	<g>
		<path class="st6" d="M536.8,136.2c0,1.1-1.4,2.4-2,3.1c-0.6,0.6-1,2.9,0.4,2.9c3.5,0.1,4.7-4.2,4.4-7c-0.1-0.8-0.7-1.9-1.6-1.6
			C536.9,133.9,536.8,135.3,536.8,136.2L536.8,136.2z"/>
	</g>
	<g>
		<path class="st6" d="M308.1,75.8c2.6,2.7,6.4,3.3,9.8,2.1c1.2-0.4,1.4-3.8-0.1-3.6c-3.1,0.5-5.8-0.2-8.7-1.3
			C307.6,72.4,307.4,75.1,308.1,75.8L308.1,75.8z"/>
	</g>
	<g>
		<path class="st6" d="M286.3,60.3c1.7-0.7,3.5-1.3,4.5-2.9c0.4-0.7,0.5-2.1-0.5-2.3c-1.7-0.3-3.4,1.1-4.7,1.9
			C284.5,57.7,284.8,60.9,286.3,60.3L286.3,60.3z"/>
	</g>
	<g>
		<path class="st6" d="M253.5,96.9c1.6-0.8,2.9-1.6,4.2-2.9c0.6-0.6,0.7-2.6-0.5-2.3c-1.7,0.4-3,1.1-4.4,2.1
			C251.8,94.3,252.1,97.6,253.5,96.9L253.5,96.9z"/>
	</g>
	<g>
		<path class="st6" d="M155.9,161.9c1.9-2,3.9-4.1,5-6.7c0.3-0.8,0-2.9-1.2-2.1c-2.1,1.4-3.6,3.9-5,6c-0.4,0.7-0.5,1.5-0.2,2.2
			C154.7,161.9,155.3,162.5,155.9,161.9L155.9,161.9z"/>
	</g>
	<g>
		<path class="st6" d="M178.4,133.9c1.1-1.5,3.1-1.7,4.7-2.3c1-0.4,0.9-2.1,0.1-2.7c-2.3-1.6-5.1,0.1-6.4,2.2
			c-0.5,0.8-0.6,1.9-0.1,2.7C177.1,134.5,177.9,134.6,178.4,133.9L178.4,133.9z"/>
	</g>
	<g>
		<path class="st6" d="M201.7,146.8c2.8-0.5,5.6-1.2,8.1-2.6c0.9-0.5,0.9-3.2-0.4-3.2c-2.8,0-5.6,1.1-8.2,2.2
			C199.8,143.8,199.9,147.2,201.7,146.8L201.7,146.8z"/>
	</g>
	<g>
		<path class="st6" d="M90.4,227.8c0.2-1.1,0.5-2.1,1.1-3c0.6-1,1.4-1.8,1.9-2.9c0.4-0.8,0.2-2.7-1.1-2.4c-1.5,0.3-2.4,1.9-2.9,3.2
			c-0.7,1.4-1,3-1.1,4.6c0,0.6,0.2,1.5,0.9,1.7C89.8,229.1,90.3,228.4,90.4,227.8L90.4,227.8z"/>
	</g>
	<g>
		<path class="st6" d="M114.1,219.3c1.3,1.1,2.7,2.2,4.4,2.5c1,0.1,1-1.6,0.7-2.1c-1-1.6-2.4-2.7-4-3.7
			C113.9,215,113.1,218.5,114.1,219.3L114.1,219.3z"/>
	</g>
	<g>
		<path class="st6" d="M58.3,274.5c1.3,0.6,2.6,1.3,4.1,1.2c1-0.1,1.1-1.7,0.5-2.2c-1.1-1.1-2.4-1.7-3.9-2.2
			C57.5,270.6,57,273.9,58.3,274.5L58.3,274.5z"/>
	</g>
	<g>
		<path class="st6" d="M429.2,11.4c0.7-0.9,1.4-1.2,2.5-1.4c0.9-0.1,1.9,0,2.7-0.6c0.6-0.5,0.8-1.8,0.3-2.4
			c-2.1-2.7-5.7,0.5-6.8,2.6C427.3,10.5,428.2,12.7,429.2,11.4L429.2,11.4z"/>
	</g>
	<g>
		<path class="st6" d="M446.4,8c0.8,0.8,1.8,2.1,3,2c0.9-0.1,1.3-1.4,1-2.2c-0.6-1.4-1.7-2-3-2.8C446.1,4.1,445.6,7.3,446.4,8
			L446.4,8z"/>
	</g>
	<g>
		<path class="st6" d="M408.2,43.8c1.3,0.6,3.5,1.7,4.9,1c0.9-0.5,1.3-2,0.7-2.9c-1.1-1.5-3.2-1.9-5-2C407,39.8,407,43.2,408.2,43.8
			L408.2,43.8z"/>
	</g>
	<g>
		<path class="st6" d="M498.5,44.4c1.4,0.7,2.9,1.8,4.5,1.7c1.2-0.1,1.1-1.8,0.6-2.5c-1.1-1.3-2.8-1.9-4.3-2.6
			C497.7,40.3,497.3,43.7,498.5,44.4L498.5,44.4z"/>
	</g>
	<g>
		<path class="st6" d="M501.3,58c0.7,1.5,0.7,3.3,0.5,5c-0.1,1.1,0.9,1.8,1.5,0.7c1.4-2.5,0.9-5.5-0.5-7.8c-0.4-0.6-1-0.6-1.4-0.1
			C501,56.4,501,57.3,501.3,58L501.3,58z"/>
	</g>
	<g>
		<path class="st6" d="M556,67.6c-0.5,1.8-0.3,3.7,0.4,5.4c0.6,1.4,2,3.1,3.7,2.7c0.8-0.2,0.9-1.6,0.5-2.2c-1.1-1.6-3.2-2.7-2.6-4.9
			C558.3,66.9,556.6,65.6,556,67.6L556,67.6z"/>
	</g>
	<g>
		<path class="st6" d="M568.5,83.4c0.1,1.1-0.8,2-1.4,2.8c-0.4,0.5-0.5,2.3,0.5,2.3c2.7-0.1,3.6-3.7,3.2-5.9
			c-0.1-0.7-0.5-1.6-1.4-1.3C568.6,81.5,568.4,82.7,568.5,83.4L568.5,83.4z"/>
	</g>
	<g>
		<path class="st6" d="M572.7,101.2c-2.8,3.1-3.4,8.3-0.9,11.8c1.3,1.7,2.3-1.1,1.7-2.3c-1.2-2.4-1-4.9,0.7-6.9
			C575.1,102.6,574.2,99.6,572.7,101.2L572.7,101.2z"/>
	</g>
	<g>
		<path class="st6" d="M477.6,236.5c-0.3,3.7-2.6,6.1-4.7,9c-0.4,0.6-0.5,2.9,0.8,2.4c4.3-1.5,6-7.2,6.2-11.3
			C480,234.5,477.8,234.4,477.6,236.5L477.6,236.5z"/>
	</g>
	<g>
		<path class="st6" d="M458.6,252.1c-1.5,1.8-2.1,4.1-1.9,6.4c0.1,2,1,4.5,3,5.3c1.3,0.5,1.5-1.7,1.1-2.5c-1.1-2.1-2.2-4.2-0.6-6.4
			C461.1,253.6,460.1,250.3,458.6,252.1L458.6,252.1z"/>
	</g>
	<g>
		<path class="st6" d="M338.8,267.5c-0.3,2.7-4,1.9-5.2,3.6c-0.5,0.7-0.6,1.8-0.1,2.6c1.2,2.2,3.9,0.8,5.2-0.5
			c1.5-1.4,2.4-3.5,2.4-5.6c0-0.7-0.2-1.8-1.1-1.8C339.2,265.7,338.9,266.8,338.8,267.5L338.8,267.5z"/>
	</g>
</g>
</svg>
