<?xml version="1.0" encoding="utf-8"?>
<!-- Generator: Adobe Illustrator 25.2.3, SVG Export Plug-In . SVG Version: 6.00 Build 0)  -->
<svg version="1.1" id="Capa_1" xmlns="http://www.w3.org/2000/svg" xmlns:xlink="http://www.w3.org/1999/xlink" x="0px" y="0px"
	 width="1031.9px" height="604.5px" viewBox="0 0 1031.9 604.5" style="enable-background:new 0 0 1031.9 604.5;"
	 xml:space="preserve">
<style type="text/css">
	.st0{fill:#FDAC54;}
	.st1{fill:#F79A2F;}
	.st2{fill:#FABF64;}
	.st3{fill:#DB872B;}
	.st4{opacity:0.6;fill:#FFE0AB;}
	.st5{fill:#FCE170;}
	.st6{fill:#FFC952;}
	.st7{fill:#FFD47D;}
	.st8{opacity:0.37;fill:#FF9730;}
</style>
<g>
	<path class="st0" d="M8.2,573.1c-15.3-25.4-12.6-66.4,38.7-102.6c51.3-36.2,117.2-69.9,154.7-85.8
		c37.5-15.9,166.1-100.3,210.1-119.3c44-18.9,156.7-84.4,188.1-95.7c31.4-11.2,126.3-68.1,144.7-73.3c18.4-5.3,72.9-52.6,112-60.1
		c39.1-7.4,77.2-48.2,136.5-33c59.3,15.2,37.9,88,19.6,112.6c0,0-21,18.1-27.9,27.3c-6.8,9.2-49.9,36.6-57.7,37.4
		c-7.8,0.8-10.7,2.7-13.6,5.2c-2.8,2.5-66.4,40.4-98.7,54.5c-32.4,14.1-35,13.9-43.2,19.5c-8.2,5.5-101.6,57-126.1,66.9
		c-24.6,10-103.8,59.4-117.8,65.4c-14.1,6-34.4,10.5-42.2,14.6c-7.8,4.1-15.5,12.2-29.5,18.8c-13.9,6.6-50.8,32.1-89,50
		c-38.3,17.8-66.8,31.2-83.7,43c-16.9,11.8-70.7,41.9-97.4,50.9c-26.7,9-50.1,18.1-64.2,24.1c-14.1,6-43.4,11.6-64.1,10.8
		C36.9,603.8,23,597.6,8.2,573.1z"/>
	<path class="st1" d="M201.6,384.7c-18.2,7.7-43.1,19.6-69.7,34c-22,27.7-20.8,71.4-39.2,126c-15.1,45-55.6,44.7-75.1,41.6
		c11.6,13.6,23.7,17.6,40,18.1c20.6,0.7,50-4.9,64.1-10.8c14.1-6,37.5-15.1,64.2-24.1c26.7-9,80.5-39.1,97.4-50.9
		c16.9-11.8,45.5-25.2,83.7-43c38.3-17.8,75.1-43.4,89-50c13.9-6.6,21.7-14.7,29.5-18.8c7.8-4.1,28.1-8.6,42.2-14.6
		c14.1-6,93.3-55.4,117.8-65.4c24.6-10,117.9-61.4,126.1-66.9c8.2-5.5,10.9-5.4,43.2-19.5c32.4-14.1,95.9-51.9,98.7-54.5
		c2.8-2.5,5.8-4.4,13.6-5.2c7.8-0.8,50.8-28.2,57.7-37.4c6.8-9.2,27.9-27.3,27.9-27.3c18-24.3,39-95.3-17.1-111.9
		c4,6.3,7.1,13.9,8.1,22.8c3.8,33.7-26.1,62.3-50.9,98.7c-24.8,36.4-67,46.2-86,39.3c-19-7-56.5,9-68.3,39.4
		c-11.8,30.5-58.9,51.7-75.5,47.9c-16.6-3.9-55.2,15.8-65.9,33.7c-10.7,17.9-47.6,37.2-68.9,27.2c-21.3-10.1-54-33.8-80-13
		c-26,20.8-23.6,52.1-50,80c-26.4,27.9-33.5,18.7-43.5,3c-10-15.7-65.1-17.6-83.3,7c-18.2,24.6-41.9,48.5-69,73.1
		c-27.1,24.5-49.7,81.7-45.3,49.2c4.4-32.6-21.6-85.8-27.9-100.5C182.8,397.1,201.6,384.7,201.6,384.7z"/>
	<path class="st2" d="M75.6,516.2c-25.3,17.4-48,9.1-46.8-1.7c1.2-10.8,37.9-62.2,58.2-48.1C112.8,484.4,89.7,506.5,75.6,516.2z"/>
	<path class="st2" d="M163.1,432.6c0,0,11.6-41,38.5-47.9c26.9-6.9,41.3,13.3,43.8,35.7c2.5,22.4-42.2,83.8-42.2,83.8L163.1,432.6z"
		/>
	<path class="st2" d="M399.1,292.5c0,0-0.5-21.1,12.5-27.1c13-6,33-2.7,35.5,19.7c2.5,22.4-9.3,81.1-24.8,101.7
		c-15.5,20.6-29.1,23.2-29.1,23.2L399.1,292.5z"/>
	<path class="st2" d="M536.2,234.7c0,0,13.8-20.2,24.4-29.3c10.6-9.1,13.5-22,21.6-25.3c8.2-3.3,29.1,13.9,28.7,49.2
		c-0.3,35.3-32,73.1-32,73.1L536.2,234.7z"/>
	<path class="st2" d="M732.7,118.1c0,0,7-19,18.5-14.1c11.5,4.9,9.5,31.7,4.6,52c-5,20.3-39.7,69.3-39.7,69.3L732.7,118.1z"/>
	<path class="st2" d="M863.4,54.4c0,0-0.8-22.8,18.2-24.6c19-1.9,26.2,63.8,19.2,82.7c-7,19,34.4-78.8,54.1-77.3
		c19.7,1.5,2.2,57.8-11.3,79.7c-13.5,22-72.4,73.7-81.2,73.6c-8.8-0.1-11.9-34.8-11.9-34.8L863.4,54.4z"/>
	<path class="st3" d="M283.3,499.4c0,0-13.9-27.8,20.5-110.3C336.5,310.6,417,275,417,275l-65.7,90.1L283.3,499.4z"/>
	<path class="st4" d="M17.2,555.5c-6.2-13.4,13.1-51.8,27.3-51c14.3,0.8,6.4,42.9-2.5,51.6S20.2,562,17.2,555.5z"/>
	<path class="st3" d="M109.6,575.3c0,0-0.1-1-0.3-2.8c-1.1-11-3.8-52.4,13.3-93.4c20-47.9,37.2-50.3,54.4-61.5
		c17.3-11.2,32.1-22,32.1-22l-73.5,124.2L109.6,575.3z"/>
	<path class="st5" d="M209.1,395.6c0,0,22.8-4.3,18.4,51.2c-4.4,55.5-17.3,80.9-67.3,114.2L209.1,395.6z"/>
	<path class="st6" d="M209.1,395.6c0,0-28,24.5-45.3,35.4c-24,15.1-40.8,54.7-46.7,96.8c-3.5,24.8-3.2,42.5-7.5,47.5
		c-4.3,5,2.8,5.3,5.3,4.9c2.5-0.5,53.9-15.7,73.5-42.4c18.6-25.4,30.7-71.1,32.4-99.1C222.3,410.7,218.3,393.9,209.1,395.6z"/>
	<path class="st7" d="M114.8,580.1c0.6-0.1,4.4-1.2,10.1-3.2c17.7-11.6,30.8-51.4,43.4-93.4c11.2-37.3,34.2-56.7,42.3-55.6
		c6.3,0.9,8.7,12,9.5,16.9c0.2-2.1,0.4-4.2,0.5-6.2c1.6-27.9-2.4-44.7-11.6-43c0,0-20.1,17.6-36.7,29.6c7.3-1.2,14.8-1.3,10.5,4.5
		c-7.7,10.3-21.2,18.1-31.7,46.6c-10.5,28.4-5.3,59.8-41.5,99c0,0-0.9,1.3-1.3,2.7C108.3,580.4,112.9,580.5,114.8,580.1z"/>
	<path class="st5" d="M308.6,484.3c0,0,42.9-6.4,73.1-42.1C412,406.4,431,367.6,427.6,340c-3.5-27.5-11-43.9-11-43.9l-20.6,81.6
		L308.6,484.3z"/>
	<path class="st6" d="M283.3,499.4c-5.5,0.2,11.5-69.3,23.6-98.5c12.1-29.2,47.7-82.9,80.1-107.6c32.3-24.6,33.4-18.9,36.5-12
		c3.1,7-8,9.1-6.9,14.7c1.1,5.7,8.2,57.2-6.8,89.4c-15,32.2-39.3,67.1-75.2,86.5C298.5,491.5,293.8,499.1,283.3,499.4z"/>
	<path class="st7" d="M423.5,281.4c-3.1-7-4.2-12.6-36.5,12c-2.8,2.1-5.6,4.5-8.4,7c3,0.8,12.6,4.6,6.1,17.9
		c-7.6,15.6-20,22.3-36.3,57.1c-16.3,34.8-8.3,46.5-31.9,75.7c-20.1,24.8-33.1,48.4-33.1,48.4s35.2-28.5,42.5-36
		c30.6-31.4,43.1-98.1,67.1-120.3c17.1-15.8,23.8-15.3,26.3-13.8c-0.1-5.8-0.3-11.3-0.7-16l-2-17.2
		C415.5,290.4,426.5,288.3,423.5,281.4z"/>
	<path class="st3" d="M491,386.1c0,0-8.2-54.8,11.9-108.9c20.1-54.1,77.2-76.4,77.2-76.4l-47.6,72.1L491,386.1z"/>
	<path class="st5" d="M587.8,204.6c0,0,16.3,20.7,7.4,80.6c-6.8,45.5-41.9,81.1-81.4,95.7L587.8,204.6z"/>
	<path class="st6" d="M491,386.1c-2.9-2,4.5-8.7,4-20.7c-0.5-12.1,0.8-79.1,33.2-117.4c32.4-38.3,48.7-40.5,51.9-47.2
		c3.1-6.7,10.7,0.6,10.8,19.6c0.1,19.1,1.6,87.4-26.8,118.8S499.1,391.5,491,386.1z"/>
	<path class="st3" d="M732.7,118.1c0,0-40.1,6.7-71.4,64.7c-31.3,58-20.1,126.3-20.1,126.3L732.7,118.1z"/>
	<path class="st5" d="M746.7,122.4c0,0,5,63.4-8.9,92.5c-13.9,29.1-22.6,52.8-71.4,78.8L746.7,122.4z"/>
	<path class="st6" d="M641.2,309.1c-4.7-1.7,2.7-55.2,12.3-93.1c9.5-38,49.6-87,79.2-97.9c29.7-10.9,12.9,2.8,11.5,19
		c-1.3,16.1-7.1,83.3-29.8,112.3c-22.7,29-60.6,52.1-65.1,56.4C644.9,310.2,641.2,309.1,641.2,309.1z"/>
	<path class="st3" d="M769.7,238.6c0,0-2.3-7.3,6.8-29.2c9-22,10.8-68.2,28.2-106.7c17.4-38.6,55.8-59.1,66-61l-48.9,108.9
		L769.7,238.6z"/>
	<path class="st5" d="M873.5,42.7c0,0,30.5,21.6,14.7,77.5c-15.2,53.7-41.9,76.4-82.4,99.7L873.5,42.7z"/>
	<path class="st6" d="M769.7,238.6c-4.7-1.2,20.7-39.3,22.2-54.8c1.5-15.4,13.9-75.1,35.8-103.7c21.9-28.6,40.6-41.4,45.8-37.4
		c5.2,4.1,9.7,15.5,12.4,23.8c4.2,12.8,2.9,61.5-20.2,93.2c-19.1,26.2-37.3,45-59.9,60.3C783.2,235.2,777.1,240.5,769.7,238.6z"/>
	<path class="st3" d="M932.9,160.2c0,0,2.2-11.9,13.5-30.8c11.4-18.9,5.6-54,25.4-79.8c19.8-25.8,31.8-22.8,31.8-22.8l-30.9,83.4
		L932.9,160.2z"/>
	<path class="st5" d="M1003.6,26.9c0,0,20.5,24.3,10,57.2c-10.5,32.8-17,40.3-37.7,56.5L1003.6,26.9z"/>
	<path class="st6" d="M932.9,160.2c-4.4-0.3,17.6-23.6,19.9-34.6c2.3-11,17.1-63.2,28.3-78.5s19-20.4,22.6-20.2
		c3.6,0.2,2.5,8.3,4.8,15.8c2.3,7.5-0.6,47.7-8.1,64.1c-7.5,16.4-18.8,30.9-38.8,41.7C941.5,159.5,940,160.6,932.9,160.2z"/>
	<path class="st7" d="M580,200.8c-2.4,5.1-12.4,7.6-31.2,25.2c3,0.7,6.6,3.3,1.4,13.1c-7.8,14.7-21.6,25.3-30.1,55.1
		c-8.4,29.5,3,53.5-25.7,77.5c-1.5,8.2-5.9,12.9-3.6,14.5c5.1,3.4,21.8-3.7,40.6-17.5c4-9,7.9-23.3,6.9-43.5
		c-2-38.4,5-57.4,28.5-82.1c15.5-16.3,21.6-11.7,23.9-6.6c0.1-6.7,0-12.3,0-16C590.7,201.4,583.2,194.1,580,200.8z"/>
	<path class="st7" d="M728.5,133c-8.2,5-35.8,48.2-44.6,85.2c-8.8,36.9-21.5,58.7-21.5,58.7s41.4-28.1,55.3-61.6
		C731.6,181.7,751.4,118.9,728.5,133z"/>
	<path class="st7" d="M659.1,250.2c1.5-43.8,30.7-95.1,47.1-115c-23.2,20.5-45.9,53.5-52.8,80.8c-8.6,34.2-15.5,80.8-13.3,91.1
		l1.1,2C641.2,309.1,657.4,297.2,659.1,250.2z"/>
	<path class="st7" d="M805.8,219.9c22.7-15.3,40.8-34.1,59.9-60.3c23.1-31.6,24.4-80.3,20.2-93.2c-2.7-8.2-7.2-19.6-12.4-23.7
		c-0.6-0.3-1.2-0.5-1.6-0.7c-0.6-0.1-1.2-0.1-2,0c-4.6,3.9-32.8,29.1-37.4,72.8c-5,47.7-1.2,58.4-26.6,82.6
		c-25.4,24.2-36.3,41-36.3,41C777.1,240.5,783.2,235.2,805.8,219.9z"/>
	<path class="st7" d="M1001,36.2c0,0-25.3,19.8-27.8,48.5c-1.9,22-4,44-12.7,53.5c0,0,31.1-17.4,37.5-53
		C1003.1,56.9,1001,36.2,1001,36.2z"/>
	<path class="st8" d="M201.6,384.7c-18.2,7.7-43.1,19.6-69.7,34c-22,27.7-20.8,71.4-39.2,126c-15.1,45-55.6,44.7-75.1,41.6
		c11.6,13.6,23.7,17.6,40,18.1c20.6,0.7,50-4.9,64.1-10.8c14.1-6,37.5-15.1,64.2-24.1c26.7-9,80.5-39.1,97.4-50.9
		c16.9-11.8,45.5-25.2,83.7-43c38.3-17.8,75.1-43.4,89-50c13.9-6.6,21.7-14.7,29.5-18.8c7.8-4.1,28.1-8.6,42.2-14.6
		c14.1-6,93.3-55.4,117.8-65.4c24.6-10,117.9-61.4,126.1-66.9c8.2-5.5,10.9-5.4,43.2-19.5c32.4-14.1,95.9-51.9,98.7-54.5
		c2.8-2.5,5.8-4.4,13.6-5.2c7.8-0.8,50.8-28.2,57.7-37.4c6.8-9.2,27.9-27.3,27.9-27.3c18-24.3,39-95.3-17.1-111.9
		c4,6.3,7.1,13.9,8.1,22.8c3.8,33.7-26.1,62.3-50.9,98.7c-24.8,36.4-67,46.2-86,39.3c-19-7-56.5,9-68.3,39.4
		c-11.8,30.5-58.9,51.7-75.5,47.9c-16.6-3.9-55.2,15.8-65.9,33.7c-10.7,17.9-47.6,37.2-68.9,27.2c-21.3-10.1-54-33.8-80-13
		c-26,20.8-23.6,52.1-50,80c-26.4,27.9-33.5,18.7-43.5,3c-10-15.7-65.1-17.6-83.3,7c-18.2,24.6-41.9,48.5-69,73.1
		c-27.1,24.5-49.7,81.7-45.3,49.2c4.4-32.6-21.6-85.8-27.9-100.5C182.8,397.1,201.6,384.7,201.6,384.7z"/>
</g>
</svg>
