<?xml version="1.0" encoding="utf-8"?>
<!-- Generator: Adobe Illustrator 25.2.3, SVG Export Plug-In . SVG Version: 6.00 Build 0)  -->
<svg version="1.1" id="Capa_1" xmlns="http://www.w3.org/2000/svg" xmlns:xlink="http://www.w3.org/1999/xlink" x="0px" y="0px"
	 width="506.3px" height="389.8px" viewBox="0 0 506.3 389.8" style="enable-background:new 0 0 506.3 389.8;" xml:space="preserve"
	>
<style type="text/css">
	.st0{fill:#FAB955;}
	.st1{fill:#FFCC6E;}
	.st2{fill:#FDAC54;}
	.st3{fill:#FFD47D;}
	.st4{fill:#D18038;}
	.st5{fill:#FFDA91;}
	.st6{fill:#F39C4F;}
	.st7{fill:#FFE2A8;}
</style>
<g>
	<path class="st0" d="M60.4,314.4c-39-33.6-90.9-120.8-37.7-211.7C76,11.8,260.5-16.8,338.4,9.2c77.9,26,174.1,102.6,167.6,232.5
		c-6.5,129.9-159.8,146.8-236.4,139C192.9,372.9,134.4,378.1,60.4,314.4z"/>
	<path class="st1" d="M338.4,9.2c-77.9-26-262.4,2.6-315.7,93.5C8.6,126.9,1.8,150.8,0.3,173.5c2.9,18.1,16.4,50.4,30.2,57.8
		c19.5,10.4,24.7-14.3,52,31.2c12.4,20.7,35.1,18.2,54.6,14.3c19.5-3.9,31.2,33.8,57.2,39c26,5.2,51.3-15,68.8,1.3
		c18.2,16.9,73.1,32.5,109.1,7.8c41.6-28.6,54.6-6.5,80.5-31.2c28.3-26.9,10.4-52,53.3-52C512.5,111.8,416.3,35.2,338.4,9.2z"/>
	<path class="st2" d="M275,356.3c-70.1,0-109.5-10.9-194.8-58.5C55.3,284,33.4,262.8,3.8,218.1c9.5,42.9,35,77.8,56.6,96.3
		c74,63.7,135.1,66.2,211.7,74c74.5,7.6,218.8-16,232.9-136.2C465.9,334.6,376.3,356.3,275,356.3z"/>
	<path class="st3" d="M331,310.9c-7.4-8.3-6.2-34.5,15.7-54.1c30.3-27,79.2-108.3,100.2-131c21-22.7,33.8,17,36.5,31.1
		c1.3,6.6,4.7,50.1-11.6,75.2c-16.3,25.1-42.9,61.1-85.4,77.6C353.5,322.4,339.1,320.1,331,310.9z"/>
	<path class="st3" d="M302.7,12.4c-15.5-14-63-15.6-107.8,42.2c-44.8,57.8-79.2,124.7-65.6,179.3c13.6,54.6,53.9,30.5,71.4-13.6
		c17.5-44.2,63.7-118.9,94.8-142.9C326.7,53.3,323.5,31.3,302.7,12.4z"/>
	<path class="st3" d="M143.5,113.7c32.9-63.5,65.8-92.7,81-111.1C192,6.3,158.1,14,126.9,25.8c-15.4,15-42.2,46.1-55.5,90.6
		c-18.8,63-15.4,116.1,12.3,123.4C108.5,246.2,124.3,150.9,143.5,113.7z"/>
	<path class="st4" d="M46.1,187.1c0,0-7.8,3.9-14.7-18.6c-6.9-22.5-7.4-40.7,1.3-62.4C41.4,84.5,73,62.4,82.9,62.4L48.7,98.8
		l-10.4,36.8L46.1,187.1z"/>
	<path class="st3" d="M385.2,41c-13.3-4.8-49.4,15.6-78.6,53.3c-29.2,37.7-69.5,99.4-94.8,126.7c-25.3,27.3-24.7,64.3-2.6,72.7
		c22.1,8.4,61.7,1.9,104.6-43.5c42.9-45.5,96.8-70.1,102.6-128.6C422.2,63.1,415.7,52,385.2,41z"/>
	<path class="st4" d="M89.4,217.9c0,0-13.4-1.3-18.2-29c-4.8-27.7,11.7-76.2,29.4-107.8c17.8-31.6,48.1-52,65-58.9
		c16.9-6.9,33.8-3.9,33.8-3.9L166.5,36l-44.2,46.8L94.2,136L89.4,217.9z"/>
	<path class="st4" d="M152.2,240c0,0-10.8-4.8-6.9-38.1c3.9-33.3,22.9-72.7,37.2-97.9c14.3-25.1,35.1-50.7,52.4-64.1
		C252.2,26.5,270,20,281.2,19.6c11.3-0.4-38.1,43.3-38.1,43.3l-57.2,74l-27.3,68L152.2,240z"/>
	<path class="st4" d="M217.6,270.7c0,0-12.8-3.1,0-26c11.2-20,36.4-51.1,52.8-72.3c16.5-21.2,40.7-50.2,61.5-73.2
		c20.3-22.5,33.6-29.4,39.4-37.7c4.6-6.5,11.1-14.2,14.9-11.7c3.7,2.6-53.8,96.5-53.8,96.5L217.6,270.7z"/>
	<path class="st4" d="M336.4,302.8c0,0,5.2-31.9,37.1-69.6c31.8-37.7,55.9-53.9,66.9-70.8c9.7-14.8,21.4-32.8,21.4-32.8l-3.3,45.1
		l-81.2,90.3L336.4,302.8z"/>
	<path class="st5" d="M46.1,187.1c0,0,7.1-7.8,9.1-43.5c1.9-35.7,30.1-73.5,30-78.3c-0.1-4.8-30,36.7-30,36.7l-12.3,55.9L46.1,187.1
		z"/>
	<path class="st6" d="M46.1,187.1c-5.7,1.1-26-36.4-11.3-74.5c10.4-27,34.8-43.1,48.1-50.2c1.8-1,3.7,1.3,2.3,2.9
		c-9.1,10.4-24.8,31.1-29.6,55.1C48.7,155.1,50.4,186.3,46.1,187.1z"/>
	<path class="st7" d="M89.4,217.9c0,0,14.5,4.3,19.7-19.1c5.2-23.4,29.2-89,43.5-113.7c14.3-24.7,48.7-59.8,46.8-66.9l-53.9,48.1
		L102,152.1L89.4,217.9z"/>
	<path class="st6" d="M89.4,217.9c-10.7,0-24.2-32.9-6.1-86.6c18.2-53.7,32.9-67.5,58.9-89.6c24.9-21.2,52.8-26,57.2-23.4
		c4.3,2.6-21.7,15.2-43.3,50.7c-21.7,35.5-44.2,91.8-47.6,111.7C105,200.6,102.4,217.9,89.4,217.9z"/>
	<path class="st7" d="M157.2,241c0,0,12.3,0,25.3-30.5c13-30.5,61.1-102,77.3-122.8C276,67,283.2,59.8,292.3,53.3
		c9.1-6.5,13.6-18.2,13.6-18.2l-31.8,23.4l-55.2,65.6l-41.6,71.4L157.2,241z"/>
	<path class="st0" d="M154.4,241.3c-11.6-3.5-8.7-40.7,6.1-75.3c14.7-34.6,45.9-94.4,68.4-115.2c22.5-20.8,44.2-32,56.3-31.2
		c12.1,0.9,24.2,4.3,20.8,15.6c-3.5,11.3-18.2,10.4-38.1,34.6c-19.9,24.2-66.7,84.9-81.4,120.4C171.7,225.7,163,243.9,154.4,241.3z"
		/>
	<path class="st6" d="M300.1,22.8c-4-1.9-9.5-2.9-15-3.3C273,18.7,251.4,30,228.8,50.7C206.3,71.5,177.7,120,163,154.7
		c-8,18.8-15.1,49.7-15.7,64.2c9.5-17.6,46.6-80.3,70.2-116.2C252.7,49.4,282.5,49.4,300.1,22.8z"/>
	<path class="st7" d="M226,272.2c0,0,12.3,2.6,25.3-7.8c13-10.4,25.3-14.9,32.5-22.1c7.1-7.1,76-74,90.9-95.5
		c14.9-21.4,31.2-58.5,20.1-79.9L226,272.2z"/>
	<path class="st6" d="M217.6,270.7c-8.9-6.3,2.6-28.6,24.2-53.7c21.7-25.1,71.9-80.5,77.9-94.4c6.1-13.9,51.1-52.8,56.3-62.4
		c5.2-9.5,12.1-15.6,16.5-4.3s5.8,26.7,0.4,42.9c-8.2,24.7-27.3,51.5-46.3,71.4c-19.1,19.9-65.8,71-79.7,78.8
		C253.1,256.9,232.3,281.1,217.6,270.7z"/>
	<path class="st0" d="M376.1,60.3c-5.2,9.5-32.5,30.7-59.8,63.2c-19.1,22.7-52.8,68.4-74.5,93.5c-2,2.3-3.9,4.6-5.7,6.9
		c25-11.1,64.7-35.4,101-86.1c36.2-50.7,46.5-76,49.1-87.9C382.8,50.3,379.1,54.6,376.1,60.3z"/>
	<path class="st7" d="M336.4,302.8c0,0,39,3.2,85.8-47.5c46.8-50.7,46.8-68.2,48.7-78.6c1.9-10.4-5.2-42.9-5.2-42.9L428,194.3
		L336.4,302.8z"/>
	<path class="st6" d="M463.5,130c-0.5-0.3-1.1-0.4-1.7-0.3c-5.5,15.8-18.6,42.1-49.4,70.4c-39.9,36.8-67.1,85.4-76,102.7
		c0.8-0.2,1.6-0.3,2.4-0.5c41.6-8.7,92.9-61.9,111.7-89.2C474.8,178,469.6,134.3,463.5,130z"/>
	<path class="st0" d="M182.1,35.6c0,0-26-2.6-52,32.9c-25.7,35.2-56.6,116.2-35.2,148.1c8.3-4.4,10.7-19.2,13.6-35.9
		c3.5-19.9,26-76.2,47.6-111.7c8.8-14.4,18.2-25,26.1-32.7L182.1,35.6z"/>
	<path class="st0" d="M450.5,213.1c24.2-35.1,19.1-78.8,13-83.1c-0.5-0.3-1.1-0.4-1.7-0.3c5.2,36.9-23.4,88.6-56.3,106.8
		c-32.9,18.2-69.1,66.3-69.1,66.3c0.8-0.2,1.6-0.3,2.4-0.5C380.4,293.7,431.7,240.4,450.5,213.1z"/>
	<path class="st0" d="M45.2,116.1c-10.4,39,0.9,71,0.9,71l2.7-8.3c1.4-11.7,2-34.2,6.9-58.4c4.8-24,20.4-44.7,29.6-55.1
		C85.2,65.3,55.6,77.2,45.2,116.1z"/>
	<g>
		<path class="st7" d="M32.3,197.3c-2.5,0-2.5,3.9,0,3.9C34.8,201.2,34.8,197.3,32.3,197.3z"/>
		<path class="st7" d="M40.9,202.5c-2.5,0-2.5,3.9,0,3.9C43.4,206.4,43.4,202.5,40.9,202.5z"/>
		<path class="st7" d="M22.7,186.5c2.5,0,2.5-3.9,0-3.9C20.2,182.6,20.2,186.5,22.7,186.5z"/>
		<path class="st7" d="M22.7,205.1c-2.5,0-2.5,3.9,0,3.9C25.2,209,25.2,205.1,22.7,205.1z"/>
		<path class="st7" d="M53,194.3c2.5,0,2.5-3.9,0-3.9C50.5,190.4,50.5,194.3,53,194.3z"/>
		<path class="st7" d="M60,177.4c-2.5,0-2.5,3.9,0,3.9C62.5,181.3,62.5,177.4,60,177.4z"/>
		<path class="st7" d="M57.4,166.6c2.5,0,2.5-3.9,0-3.9C54.9,162.7,54.9,166.6,57.4,166.6z"/>
		<path class="st7" d="M64.3,145.4c-2.5,0-2.5,3.9,0,3.9C66.8,149.3,66.8,145.4,64.3,145.4z"/>
		<path class="st7" d="M65.2,133.7c2.5,0,2.5-3.9,0-3.9C62.7,129.8,62.7,133.7,65.2,133.7z"/>
		<path class="st7" d="M73,121.1c-2.5,0-2.5,3.9,0,3.9C75.5,125,75.5,121.1,73,121.1z"/>
		<path class="st7" d="M70.4,111.1c2.5,0,2.5-3.9,0-3.9C67.9,107.3,67.9,111.1,70.4,111.1z"/>
		<path class="st7" d="M77.3,94.3c-2.5,0-2.5,3.9,0,3.9C79.8,98.2,79.8,94.3,77.3,94.3z"/>
		<path class="st7" d="M85.1,89.1c-2.5,0-2.5,3.9,0,3.9C87.6,93,87.6,89.1,85.1,89.1z"/>
		<path class="st7" d="M87.7,80c2.5,0,2.5-3.9,0-3.9C85.2,76.1,85.2,80,87.7,80z"/>
		<path class="st7" d="M100.7,64.4c2.5,0,2.5-3.9,0-3.9C98.2,60.5,98.2,64.4,100.7,64.4z"/>
		<path class="st7" d="M117.1,48.8c2.5,0,2.5-3.9,0-3.9C114.6,44.9,114.6,48.8,117.1,48.8z"/>
		<path class="st7" d="M105,45.8c-2.5,0-2.5,3.9,0,3.9C107.5,49.7,107.5,45.8,105,45.8z"/>
		<path class="st7" d="M108.5,226.8c-2.5,0-2.5,3.9,0,3.9C111,230.7,111,226.8,108.5,226.8z"/>
		<path class="st7" d="M91.1,232.8c-2.5,0-2.5,3.9,0,3.9C93.7,236.7,93.7,232.8,91.1,232.8z"/>
		<path class="st7" d="M99.8,242.3c-2.5,0-2.5,3.9,0,3.9C102.3,246.2,102.3,242.3,99.8,242.3z"/>
		<path class="st7" d="M98.1,255.3c-2.5,0-2.5,3.9,0,3.9C100.6,259.2,100.6,255.3,98.1,255.3z"/>
		<path class="st7" d="M114.5,253.6c-2.5,0-2.5,3.9,0,3.9C117,257.5,117,253.6,114.5,253.6z"/>
		<path class="st7" d="M114.7,241.7c0-0.3,0-0.6,0-0.9c0-2.5-3.9-2.5-3.9,0c0,0.3,0,0.6,0,0.9C110.9,244.2,114.7,244.2,114.7,241.7z
			"/>
		<path class="st7" d="M127.5,226.8c-2.5,0-2.5,3.9,0,3.9C130,230.7,130,226.8,127.5,226.8z"/>
		<path class="st7" d="M118.9,215.5c-2.5,0-2.5,3.9,0,3.9C121.4,219.4,121.4,215.5,118.9,215.5z"/>
		<path class="st7" d="M119.7,205.1c-2.5,0-2.5,3.9,0,3.9C122.2,209,122.2,205.1,119.7,205.1z"/>
		<path class="st7" d="M126.7,200.8c-2.5,0-2.5,3.9,0,3.9C129.2,204.7,129.2,200.8,126.7,200.8z"/>
		<path class="st7" d="M119.7,183.5c-2.5,0-2.5,3.9,0,3.9C122.2,187.4,122.2,183.5,119.7,183.5z"/>
		<path class="st7" d="M128,165.1c0.3-0.3,0.6-0.6,0.9-0.9c1.8-1.8-1-4.5-2.8-2.8c-0.3,0.3-0.6,0.6-0.9,0.9
			C123.5,164.2,126.3,166.9,128,165.1z"/>
		<path class="st7" d="M140.5,154c-2.5,0-2.5,3.9,0,3.9C143,157.9,143,154,140.5,154z"/>
		<path class="st7" d="M142.2,144.1c2.5,0,2.5-3.9,0-3.9C139.7,140.2,139.7,144.1,142.2,144.1z"/>
		<path class="st7" d="M142.2,131.1c2.5,0,2.5-3.9,0-3.9C139.7,127.2,139.7,131.1,142.2,131.1z"/>
		<path class="st7" d="M157,115c-2.5,0-2.5,3.9,0,3.9C159.5,118.9,159.5,115,157,115z"/>
		<path class="st7" d="M166.5,99c2.5,0,2.5-3.9,0-3.9C164,95.1,164,99,166.5,99z"/>
		<path class="st7" d="M161.3,93.8c2.5,0,2.5-3.9,0-3.9C158.8,89.9,158.8,93.8,161.3,93.8z"/>
		<path class="st7" d="M169.1,81.7c1.8,0,2.3-2.1,1.5-3.2c0.1,0.1,0.3,0.2,0.6,0.2c1.3,0,1.3-1.9,0-1.9c-0.9,0-1.1,1-0.8,1.6
			c-0.3-0.3-0.7-0.5-1.3-0.5C166.6,77.8,166.6,81.7,169.1,81.7z"/>
		<path class="st7" d="M187.3,80c2.5,0,2.5-3.9,0-3.9C184.8,76.1,184.8,80,187.3,80z"/>
		<path class="st7" d="M192.5,62.2c-2.5,0-2.5,3.9,0,3.9C195,66.1,195,62.2,192.5,62.2z"/>
		<path class="st7" d="M186.4,60.9c2.5,0,2.5-3.9,0-3.9C183.9,57,183.9,60.9,186.4,60.9z"/>
		<path class="st7" d="M194.2,51.4c2.5,0,2.5-3.9,0-3.9C191.7,47.5,191.7,51.4,194.2,51.4z"/>
		<path class="st7" d="M211.5,49.7c2.5,0,2.5-3.9,0-3.9C209,45.8,209,49.7,211.5,49.7z"/>
		<path class="st7" d="M63.4,212.9c-2.5,0-2.5,3.9,0,3.9C65.9,216.8,65.9,212.9,63.4,212.9z"/>
		<path class="st7" d="M67.8,225.9c-2.5,0-2.5,3.9,0,3.9C70.3,229.8,70.3,225.9,67.8,225.9z"/>
		<path class="st7" d="M46.1,219.8c-2.5,0-2.5,3.9,0,3.9C48.6,223.7,48.6,219.8,46.1,219.8z"/>
		<path class="st7" d="M155.2,260.5c-2.5,0-2.5,3.9,0,3.9C157.7,264.4,157.7,260.5,155.2,260.5z"/>
		<path class="st7" d="M139.6,252.7c-2.5,0-2.5,3.9,0,3.9C142.2,256.6,142.2,252.7,139.6,252.7z"/>
		<path class="st7" d="M135.3,263.1c-2.5,0-2.5,3.9,0,3.9C137.8,267,137.8,263.1,135.3,263.1z"/>
		<path class="st7" d="M172.6,254.9c2.5,0,2.5-3.9,0-3.9C170,251,170,254.9,172.6,254.9z"/>
		<path class="st7" d="M177.7,260.5c-2.5,0-2.5,3.9,0,3.9C180.3,264.4,180.3,260.5,177.7,260.5z"/>
		<path class="st7" d="M165.6,268.3c-2.5,0-2.5,3.9,0,3.9C168.1,272.2,168.1,268.3,165.6,268.3z"/>
		<path class="st7" d="M187.3,266.2c2.5,0,2.5-3.9,0-3.9C184.8,262.3,184.8,266.2,187.3,266.2z"/>
		<path class="st7" d="M185.5,243.2c-2.5,0-2.5,3.9,0,3.9C188.1,247.1,188.1,243.2,185.5,243.2z"/>
		<path class="st7" d="M201.1,232c-2.5,0-2.5,3.9,0,3.9C203.6,235.9,203.6,232,201.1,232z"/>
		<path class="st7" d="M195.1,221.6c-2.5,0-2.5,3.9,0,3.9C197.6,225.5,197.6,221.6,195.1,221.6z"/>
		<path class="st7" d="M202.6,207.9c0,0.3,0,0.6,0,0.9c0,2.5,3.9,2.5,3.9,0c0-0.3,0-0.6,0-0.9C206.5,205.4,202.6,205.4,202.6,207.9z
			"/>
		<path class="st7" d="M220.2,192.6c2.5,0,2.5-3.9,0-3.9C217.7,188.7,217.7,192.6,220.2,192.6z"/>
		<path class="st7" d="M223.6,173.5c2.5,0,2.5-3.9,0-3.9C221.1,169.6,221.1,173.5,223.6,173.5z"/>
		<path class="st7" d="M208.1,174.8c-2.5,0-2.5,3.9,0,3.9C210.6,178.7,210.6,174.8,208.1,174.8z"/>
		<path class="st7" d="M204.6,196c2.5,0,2.5-3.9,0-3.9C202.1,192.1,202.1,196,204.6,196z"/>
		<path class="st7" d="M235.8,186.9c-2.5,0-2.5,3.9,0,3.9C238.3,190.8,238.3,186.9,235.8,186.9z"/>
		<path class="st7" d="M239.2,166.6c2.5,0,2.5-3.9,0-3.9C236.7,162.7,236.7,166.6,239.2,166.6z"/>
		<path class="st7" d="M232.3,147.5c2.5,0,2.5-3.9,0-3.9C229.8,143.6,229.8,147.5,232.3,147.5z"/>
		<path class="st7" d="M249.6,130.2c2.5,0,2.5-3.9,0-3.9C247.1,126.3,247.1,130.2,249.6,130.2z"/>
		<path class="st7" d="M265.2,140.6c2.5,0,2.5-3.9,0-3.9C262.7,136.7,262.7,140.6,265.2,140.6z"/>
		<path class="st7" d="M251.4,143.6c-2.5,0-2.5,3.9,0,3.9C253.9,147.5,253.9,143.6,251.4,143.6z"/>
		<path class="st7" d="M263.5,154.4c2.5,0,2.5-3.9,0-3.9C261,150.6,261,154.4,263.5,154.4z"/>
		<path class="st7" d="M260,111.1c2.5,0,2.5-3.9,0-3.9C257.5,107.3,257.5,111.1,260,111.1z"/>
		<path class="st7" d="M277.3,90.4c2.5,0,2.5-3.9,0-3.9C274.8,86.5,274.8,90.4,277.3,90.4z"/>
		<path class="st7" d="M294.7,88.2c-2.5,0-2.5,3.9,0,3.9C297.2,92.1,297.2,88.2,294.7,88.2z"/>
		<path class="st7" d="M296.4,74.8c2.5,0,2.5-3.9,0-3.9C293.9,70.9,293.9,74.8,296.4,74.8z"/>
		<path class="st7" d="M312,69.6c2.5,0,2.5-3.9,0-3.9C309.5,65.7,309.5,69.6,312,69.6z"/>
		<path class="st7" d="M317.2,52.3c2.5,0,2.5-3.9,0-3.9C314.7,48.4,314.7,52.3,317.2,52.3z"/>
		<path class="st7" d="M334.5,55.7c2.4,0,2.5-3.5,0.3-3.8c0.6-0.5,0.4-1.7-0.6-1.7c-1.1,0-1.2,1.4-0.5,1.8
			C332,52.7,332.3,55.7,334.5,55.7z"/>
		<path class="st7" d="M305.1,92.1c0.6,0,1-0.2,1.3-0.5c0.1,0.1,0.3,0.1,0.5,0.1c1.3,0,1.3-1.9,0-1.9c0,0,0,0,0,0
			c-0.2-0.8-0.7-1.5-1.8-1.5C302.5,88.2,302.5,92.1,305.1,92.1z"/>
		<path class="st7" d="M301.6,107.7c2.5,0,2.5-3.9,0-3.9C299.1,103.8,299.1,107.7,301.6,107.7z"/>
		<path class="st7" d="M287.6,107.1c-0.1,0-0.2-0.1-0.4-0.1c-1.3,0-1.3,1.9,0,1.9c0.3,0,0.6-0.1,0.7-0.3c0.3,0.4,0.8,0.7,1.5,0.7
			c2.5,0,2.5-3.9,0-3.9C288.4,105.5,287.8,106.3,287.6,107.1z"/>
		<path class="st7" d="M284.4,125.8c-0.4,0.6-0.1,1.5,0.8,1.5c0.4,0,0.7-0.3,0.9-0.6c2.1,0,2.4-2.7,1-3.6c0.2-0.6-0.1-1.4-0.9-1.4
			c-0.7,0-1,0.7-0.9,1.2C284.2,123.4,283.9,124.8,284.4,125.8z"/>
		<path class="st7" d="M202.9,280.5c-2.5,0-2.5,3.9,0,3.9C205.4,284.4,205.4,280.5,202.9,280.5z"/>
		<path class="st7" d="M195.9,268.3c-2.5,0-2.5,3.9,0,3.9C198.4,272.2,198.4,268.3,195.9,268.3z"/>
		<path class="st7" d="M187.3,280.5c-2.5,0-2.5,3.9,0,3.9C189.8,284.4,189.8,280.5,187.3,280.5z"/>
		<path class="st7" d="M225.4,284.4c2.5,0,2.5-3.9,0-3.9C222.9,280.5,222.9,284.4,225.4,284.4z"/>
		<path class="st7" d="M235.8,294.3c-2.5,0-2.5,3.9,0,3.9C238.3,298.2,238.3,294.3,235.8,294.3z"/>
		<path class="st7" d="M247.9,277.4c2.5,0,2.5-3.9,0-3.9C245.4,273.5,245.4,277.4,247.9,277.4z"/>
		<path class="st7" d="M261.8,264.9c-2.5,0-2.5,3.9,0,3.9C264.3,268.8,264.3,264.9,261.8,264.9z"/>
		<path class="st7" d="M270.4,280.5c-2.5,0-2.5,3.9,0,3.9C272.9,284.4,272.9,280.5,270.4,280.5z"/>
		<path class="st7" d="M256.6,282.2c-2.5,0-2.5,3.9,0,3.9C259.1,286.1,259.1,282.2,256.6,282.2z"/>
		<path class="st7" d="M268.7,299.5c-2.5,0-2.5,3.9,0,3.9C271.2,303.4,271.2,299.5,268.7,299.5z"/>
		<path class="st7" d="M291.2,292.6c-2.5,0-2.5,3.9,0,3.9C293.7,296.5,293.7,292.6,291.2,292.6z"/>
		<path class="st7" d="M284.3,266.6c-2.5,0-2.5,3.9,0,3.9C286.8,270.5,286.8,266.6,284.3,266.6z"/>
		<path class="st7" d="M296.4,247.5c-2.5,0-2.5,3.9,0,3.9C298.9,251.4,298.9,247.5,296.4,247.5z"/>
		<path class="st7" d="M306.8,264.9c-2.5,0-2.5,3.9,0,3.9C309.3,268.8,309.3,264.9,306.8,264.9z"/>
		<path class="st7" d="M296.4,278.7c-2.5,0-2.5,3.9,0,3.9C298.9,282.6,298.9,278.7,296.4,278.7z"/>
		<path class="st7" d="M312,287.8c2.5,0,2.5-3.9,0-3.9C309.5,283.9,309.5,287.8,312,287.8z"/>
		<path class="st7" d="M329.3,265.3c2.5,0,2.5-3.9,0-3.9C326.8,261.4,326.8,265.3,329.3,265.3z"/>
		<path class="st7" d="M318.9,249.7c2.5,0,2.5-3.9,0-3.9C316.4,245.8,316.4,249.7,318.9,249.7z"/>
		<path class="st7" d="M315.4,234.1c2.5,0,2.5-3.9,0-3.9C312.9,230.2,312.9,234.1,315.4,234.1z"/>
		<path class="st7" d="M332.8,212.9c-2.5,0-2.5,3.9,0,3.9C335.3,216.8,335.3,212.9,332.8,212.9z"/>
		<path class="st7" d="M338,226.8c-2.5,0-2.5,3.9,0,3.9C340.5,230.7,340.5,226.8,338,226.8z"/>
		<path class="st7" d="M359.6,202.1c2.5,0,2.5-3.9,0-3.9C357.1,198.2,357.1,202.1,359.6,202.1z"/>
		<path class="st7" d="M357.7,211.4c0,0.3,0,0.6,0,0.9c0,2.5,3.9,2.5,3.9,0c0-0.3,0-0.6,0-0.9C361.6,208.9,357.7,208.9,357.7,211.4z
			"/>
		<path class="st7" d="M345.8,212.9c-2.5,0-2.5,3.9,0,3.9C348.3,216.8,348.3,212.9,345.8,212.9z"/>
		<path class="st7" d="M348.4,197.3c-2.5,0-2.5,3.9,0,3.9C350.9,201.2,350.9,197.3,348.4,197.3z"/>
		<path class="st7" d="M370,180c-2.5,0-2.5,3.9,0,3.9C372.5,183.9,372.5,180,370,180z"/>
		<path class="st7" d="M383,162.2c2.5,0,2.5-3.9,0-3.9C380.5,158.3,380.5,162.2,383,162.2z"/>
		<path class="st7" d="M394.3,161.4c2.5,0,2.5-3.9,0-3.9C391.7,157.5,391.7,161.4,394.3,161.4z"/>
		<path class="st7" d="M397.7,143.2c2.5,0,2.5-3.9,0-3.9C395.2,139.3,395.2,143.2,397.7,143.2z"/>
		<path class="st7" d="M408.1,134.1c-2.5,0-2.5,3.9,0,3.9C410.6,138,410.6,134.1,408.1,134.1z"/>
		<path class="st7" d="M406.4,122.4c2.5,0,2.5-3.9,0-3.9C403.9,118.5,403.9,122.4,406.4,122.4z"/>
		<path class="st7" d="M417.6,117.2c2.5,0,2.5-3.9,0-3.9C415.1,113.3,415.1,117.2,417.6,117.2z"/>
		<path class="st7" d="M428.9,112c2.5,0,2.5-3.9,0-3.9C426.4,108.1,426.4,112,428.9,112z"/>
		<path class="st7" d="M400.3,167c-2.5,0-2.5,3.9,0,3.9C402.8,170.9,402.8,167,400.3,167z"/>
		<path class="st7" d="M384.7,182.2c2.5,0,2.5-3.9,0-3.9C382.2,178.3,382.2,182.2,384.7,182.2z"/>
		<path class="st7" d="M377.8,197.3c-2.5,0-2.5,3.9,0,3.9C380.3,201.2,380.3,197.3,377.8,197.3z"/>
		<path class="st7" d="M322.4,305.6c-2.5,0-2.5,3.9,0,3.9C324.9,309.5,324.9,305.6,322.4,305.6z"/>
		<path class="st7" d="M319.8,296c-2.5,0-2.5,3.9,0,3.9C322.3,299.9,322.3,296,319.8,296z"/>
		<path class="st7" d="M373.5,297.8c-2.5,0-2.5,3.9,0,3.9C376,301.7,376,297.8,373.5,297.8z"/>
		<path class="st7" d="M364.8,304.7c-2.5,0-2.5,3.9,0,3.9C367.3,308.6,367.3,304.7,364.8,304.7z"/>
		<path class="st7" d="M356.1,316c-2.5,0-2.5,3.9,0,3.9C358.7,319.9,358.7,316,356.1,316z"/>
		<path class="st7" d="M386.5,302.1c-2.5,0-2.5,3.9,0,3.9C389,306,389,302.1,386.5,302.1z"/>
		<path class="st7" d="M404.6,296c-2.5,0-2.5,3.9,0,3.9C407.2,299.9,407.2,296,404.6,296z"/>
		<path class="st7" d="M405.5,283.1c-2.5,0-2.5,3.9,0,3.9C408,286.9,408,283.1,405.5,283.1z"/>
		<path class="st7" d="M417.6,277.9c-2.5,0-2.5,3.9,0,3.9C420.1,281.8,420.1,277.9,417.6,277.9z"/>
		<path class="st7" d="M431.5,285.2c2.5,0,2.5-3.9,0-3.9C429,281.3,429,285.2,431.5,285.2z"/>
		<path class="st7" d="M433.2,264.9c-2.5,0-2.5,3.9,0,3.9C435.7,268.8,435.7,264.9,433.2,264.9z"/>
		<path class="st7" d="M438.4,251c-2.5,0-2.5,3.9,0,3.9C440.9,254.9,440.9,251,438.4,251z"/>
		<path class="st7" d="M453.1,242.3c-2.5,0-2.5,3.9,0,3.9C455.6,246.2,455.7,242.3,453.1,242.3z"/>
		<path class="st7" d="M470.5,227.6c-2.5,0-2.5,3.9,0,3.9C473,231.5,473,227.6,470.5,227.6z"/>
		<path class="st7" d="M476.5,210.3c-2.5,0-2.5,3.9,0,3.9C479,214.2,479,210.3,476.5,210.3z"/>
		<path class="st7" d="M61.7,193.1c-1.3,0-1.3,1.9,0,1.9C63,195,63,193.1,61.7,193.1z"/>
		<path class="st7" d="M55.6,202.6c-1.3,0-1.3,1.9,0,1.9C56.9,204.6,56.9,202.6,55.6,202.6z"/>
		<path class="st7" d="M47.8,210.4c-1.3,0-1.3,1.9,0,1.9C49.1,212.4,49.1,210.4,47.8,210.4z"/>
		<path class="st7" d="M35.7,215.6c-1.3,0-1.3,1.9,0,1.9C37,217.6,37,215.6,35.7,215.6z"/>
		<path class="st7" d="M37.5,196.6c-1.3,0-1.3,1.9,0,1.9C38.7,198.5,38.7,196.6,37.5,196.6z"/>
		<path class="st7" d="M20.1,194.8c-1.3,0-1.3,1.9,0,1.9C21.4,196.8,21.4,194.8,20.1,194.8z"/>
		<path class="st7" d="M11.5,173.2c-1.3,0-1.3,1.9,0,1.9C12.7,175.1,12.7,173.2,11.5,173.2z"/>
		<path class="st7" d="M16.7,160.2c-1.3,0-1.3,1.9,0,1.9C17.9,162.1,17.9,160.2,16.7,160.2z"/>
		<path class="st7" d="M18.4,169.7c-1.3,0-1.3,1.9,0,1.9C19.7,171.7,19.7,169.7,18.4,169.7z"/>
		<path class="st7" d="M26.2,171.4c-1.3,0-1.3,1.9,0,1.9C27.5,173.4,27.5,171.4,26.2,171.4z"/>
		<path class="st7" d="M33.1,185.5c1.3,0,1.3-1.9,0-1.9C31.9,183.6,31.9,185.5,33.1,185.5z"/>
		<path class="st7" d="M52.2,224.3c-1.3,0-1.3,1.9,0,1.9C53.4,226.2,53.4,224.3,52.2,224.3z"/>
		<path class="st7" d="M58.2,230.3c-1.3,0-1.3,1.9,0,1.9C59.5,232.3,59.5,230.3,58.2,230.3z"/>
		<path class="st7" d="M62.6,220.8c-1.3,0-1.3,1.9,0,1.9C63.8,222.8,63.8,220.8,62.6,220.8z"/>
		<path class="st7" d="M70.4,218.2c-1.3,0-1.3,1.9,0,1.9C71.6,220.2,71.6,218.2,70.4,218.2z"/>
		<path class="st7" d="M74.7,226.9c-1.3,0-1.3,1.9,0,1.9C75.9,228.8,76,226.9,74.7,226.9z"/>
		<path class="st7" d="M78.2,234.7c-1.3,0-1.3,1.9,0,1.9C79.4,236.6,79.4,234.7,78.2,234.7z"/>
		<path class="st7" d="M67.8,205.2c-1.3,0-1.3,1.9,0,1.9C69,207.2,69,205.2,67.8,205.2z"/>
		<path class="st7" d="M61.7,175.1c1.3,0,1.3-1.9,0-1.9C60.5,173.2,60.4,175.1,61.7,175.1z"/>
		<path class="st7" d="M55.6,157.8c1.3,0,1.3-1.9,0-1.9C54.4,155.9,54.4,157.8,55.6,157.8z"/>
		<path class="st7" d="M62.6,157.6c-1.3,0-1.3,1.9,0,1.9C63.8,159.5,63.8,157.6,62.6,157.6z"/>
		<path class="st7" d="M57.4,146.5c1.3,0,1.3-1.9,0-1.9C56.1,144.6,56.1,146.5,57.4,146.5z"/>
		<path class="st7" d="M64.3,139.4c-1.3,0-1.3,1.9,0,1.9C65.6,141.4,65.6,139.4,64.3,139.4z"/>
		<path class="st7" d="M70.4,134.2c-1.3,0-1.3,1.9,0,1.9C71.6,136.2,71.6,134.2,70.4,134.2z"/>
		<path class="st7" d="M68.6,121.4c1.3,0,1.3-1.9,0-1.9C67.4,119.5,67.4,121.4,68.6,121.4z"/>
		<path class="st7" d="M78.2,111.7c-1.3,0-1.3,1.9,0,1.9C79.4,113.6,79.4,111.7,78.2,111.7z"/>
		<path class="st7" d="M73,103.2c1.3,0,1.3-1.9,0-1.9C71.7,101.3,71.7,103.2,73,103.2z"/>
		<path class="st7" d="M78.2,86.8c1.3,0,1.3-1.9,0-1.9C76.9,84.8,76.9,86.8,78.2,86.8z"/>
		<path class="st7" d="M88.6,82.2c-1.3,0-1.3,1.9,0,1.9C89.8,84.2,89.8,82.2,88.6,82.2z"/>
		<path class="st7" d="M92.9,72.9c1.3,0,1.3-1.9,0-1.9S91.6,72.9,92.9,72.9z"/>
		<path class="st7" d="M91.1,63.4c1.3,0,1.3-1.9,0-1.9C89.9,61.5,89.9,63.4,91.1,63.4z"/>
		<path class="st7" d="M105.9,53.7c-1.3,0-1.3,1.9,0,1.9C107.1,55.6,107.1,53.7,105.9,53.7z"/>
		<path class="st7" d="M112.8,42.6c1.3,0,1.3-1.9,0-1.9C111.5,40.7,111.5,42.6,112.8,42.6z"/>
		<path class="st7" d="M124.9,33.7c-1.3,0-1.3,1.9,0,1.9C126.2,35.7,126.2,33.7,124.9,33.7z"/>
		<path class="st7" d="M120.6,40.9c1.3,0,1.3-1.9,0-1.9C119.3,38.9,119.3,40.9,120.6,40.9z"/>
		<path class="st7" d="M127.5,40.9c1.3,0,1.3-1.9,0-1.9C126.3,38.9,126.3,40.9,127.5,40.9z"/>
		<path class="st7" d="M132.7,33.1c1.3,0,1.3-1.9,0-1.9C131.5,31.2,131.5,33.1,132.7,33.1z"/>
		<path class="st7" d="M81.6,244.2c-1.3,0-1.3,1.9,0,1.9C82.9,246.1,82.9,244.2,81.6,244.2z"/>
		<path class="st7" d="M90.3,245.1c-1.3,0-1.3,1.9,0,1.9C91.5,247,91.5,245.1,90.3,245.1z"/>
		<path class="st7" d="M89.4,257.2c-1.3,0-1.3,1.9,0,1.9C90.7,259.1,90.7,257.2,89.4,257.2z"/>
		<path class="st7" d="M87.7,252c-1.3,0-1.3,1.9,0,1.9C88.9,253.9,88.9,252,87.7,252z"/>
		<path class="st7" d="M102.4,264.1c-1.3,0-1.3,1.9,0,1.9C103.7,266.1,103.7,264.1,102.4,264.1z"/>
		<path class="st7" d="M107.6,268.4c-1.3,0-1.3,1.9,0,1.9C108.9,270.4,108.9,268.4,107.6,268.4z"/>
		<path class="st7" d="M100.7,270.2c-1.3,0-1.3,1.9,0,1.9C101.9,272.1,101.9,270.2,100.7,270.2z"/>
		<path class="st7" d="M105.9,256.3c-1.3,0-1.3,1.9,0,1.9C107.1,258.3,107.1,256.3,105.9,256.3z"/>
		<path class="st7" d="M101.5,251.3c1.3,0,1.3-1.9,0-1.9C100.3,249.4,100.3,251.3,101.5,251.3z"/>
		<path class="st7" d="M108.5,245.9c-1.3,0-1.3,1.9,0,1.9C109.7,247.9,109.7,245.9,108.5,245.9z"/>
		<path class="st7" d="M105,239.9c-1.3,0-1.3,1.9,0,1.9C106.3,241.8,106.3,239.9,105,239.9z"/>
		<path class="st7" d="M126.2,242.5c-1.3,0-1.3,1.9,0,1.9C127.5,244.4,127.5,242.5,126.2,242.5z"/>
		<path class="st7" d="M133.2,243.1c1.3,0,1.3-1.9,0-1.9C131.9,241.2,131.9,243.1,133.2,243.1z"/>
		<path class="st7" d="M128.8,239.2c1.3,0,1.3-1.9,0-1.9C127.6,237.3,127.6,239.2,128.8,239.2z"/>
		<path class="st7" d="M135.3,235.7c1.3,0,1.3-1.9,0-1.9C134.1,233.8,134.1,235.7,135.3,235.7z"/>
		<path class="st7" d="M133.6,225.1c-1.3,0-1.3,1.9,0,1.9C134.8,227.1,134.8,225.1,133.6,225.1z"/>
		<path class="st7" d="M130.1,219.1c-1.3,0-1.3,1.9,0,1.9C131.4,221,131.4,219.1,130.1,219.1z"/>
		<path class="st7" d="M134,217.6c1.3,0,1.3-1.9,0-1.9C132.8,215.6,132.8,217.6,134,217.6z"/>
		<path class="st7" d="M134.9,208c1.3,0,1.3-1.9,0-1.9C133.6,206.1,133.6,208,134.9,208z"/>
		<path class="st7" d="M140.1,202.4c1.3,0,1.3-1.9,0-1.9C138.8,200.5,138.8,202.4,140.1,202.4z"/>
		<path class="st7" d="M132.3,194.2c1.3,0,1.3-1.9,0-1.9C131,192.2,131,194.2,132.3,194.2z"/>
		<path class="st7" d="M133.6,187.5c-1.3,0-1.3,1.9,0,1.9C134.8,189.4,134.8,187.5,133.6,187.5z"/>
		<path class="st7" d="M131.4,178.8c-1.3,0-1.3,1.9,0,1.9C132.7,180.8,132.7,178.8,131.4,178.8z"/>
		<path class="st7" d="M127.1,178.4c-1.3,0-1.3,1.9,0,1.9C128.3,180.3,128.3,178.4,127.1,178.4z"/>
		<path class="st7" d="M126.2,184c-0.1,0-0.3,0-0.4,0c-1.3,0-1.3,1.9,0,1.9c0.1,0,0.3,0,0.4,0C127.5,185.9,127.5,184,126.2,184z"/>
		<path class="st7" d="M121,192c1.3,0,1.3-1.9,0-1.9C119.8,190.1,119.8,192,121,192z"/>
		<path class="st7" d="M117.1,194.4c-1.3,0-1.3,1.9,0,1.9C118.4,196.3,118.4,194.4,117.1,194.4z"/>
		<path class="st7" d="M112.4,202.8c1.3,0,1.3-1.9,0-1.9C111.1,200.9,111.1,202.8,112.4,202.8z"/>
		<path class="st7" d="M108,208.5c1.3,0,1.3-1.9,0-1.9C106.8,206.5,106.8,208.5,108,208.5z"/>
		<path class="st7" d="M109.3,213.2c1.3,0,1.3-1.9,0-1.9C108.1,211.3,108.1,213.2,109.3,213.2z"/>
		<path class="st7" d="M108.9,216.9c-1.3,0-1.3,1.9,0,1.9c0.1,0,0.3,0,0.4,0c1.3,0,1.3-1.9,0-1.9C109.2,216.9,109,216.9,108.9,216.9
			z"/>
		<path class="st7" d="M102.4,219.9c-1.3,0-1.3,1.9,0,1.9C103.7,221.9,103.7,219.9,102.4,219.9z"/>
		<path class="st7" d="M98.1,229.3c1.3,0,1.3-1.9,0-1.9C96.8,227.3,96.8,229.3,98.1,229.3z"/>
		<path class="st7" d="M114.1,224.1c1.3,0,1.3-1.9,0-1.9C112.8,222.1,112.8,224.1,114.1,224.1z"/>
		<path class="st7" d="M115.4,231.4c1.3,0,1.3-1.9,0-1.9C114.1,229.5,114.1,231.4,115.4,231.4z"/>
		<path class="st7" d="M119.3,235.1c-1.3,0-1.3,1.9,0,1.9C120.5,237,120.6,235.1,119.3,235.1z"/>
		<path class="st7" d="M122.3,251.1c-1.3,0-1.3,1.9,0,1.9C123.6,253.1,123.6,251.1,122.3,251.1z"/>
		<path class="st7" d="M123.2,260.6c-1.3,0-1.3,1.9,0,1.9C124.4,262.6,124.4,260.6,123.2,260.6z"/>
		<path class="st7" d="M131.9,250.7c-1.3,0-1.3,1.9,0,1.9C133.1,252.6,133.1,250.7,131.9,250.7z"/>
		<path class="st7" d="M137.5,184.2c1.3,0,1.3-1.9,0-1.9S136.2,184.2,137.5,184.2z"/>
		<path class="st7" d="M133.6,171.7c1.3,0,1.3-1.9,0-1.9C132.3,169.7,132.3,171.7,133.6,171.7z"/>
		<path class="st7" d="M132.7,161.7c1.3,0,1.3-1.9,0-1.9C131.5,159.8,131.5,161.7,132.7,161.7z"/>
		<path class="st7" d="M129.7,153.7c-1.3,0-1.3,1.9,0,1.9C130.9,155.6,130.9,153.7,129.7,153.7z"/>
		<path class="st7" d="M130.6,147.4c1.3,0,1.3-1.9,0-1.9C129.3,145.5,129.3,147.4,130.6,147.4z"/>
		<path class="st7" d="M133.2,143.9c1.3,0,1.3-1.9,0-1.9C131.9,142,131.9,143.9,133.2,143.9z"/>
		<path class="st7" d="M128.4,140.9c1.3,0,1.3-1.9,0-1.9C127.1,139,127.1,140.9,128.4,140.9z"/>
		<path class="st7" d="M121.9,153c1.3,0,1.3-1.9,0-1.9C120.6,151.1,120.6,153,121.9,153z"/>
		<path class="st7" d="M144,150.2c-1.3,0-1.3,1.9,0,1.9C145.2,152.2,145.2,150.2,144,150.2z"/>
		<path class="st7" d="M148.2,146c0,0.1,0,0.3,0,0.4c0,1.3,1.9,1.3,1.9,0c0-0.1,0-0.3,0-0.4C150.1,144.8,148.2,144.7,148.2,146z"/>
		<path class="st7" d="M148.3,138.8c1.3,0,1.3-1.9,0-1.9C147.1,136.8,147,138.8,148.3,138.8z"/>
		<path class="st7" d="M137.5,137.5c1.3,0,1.3-1.9,0-1.9S136.2,137.5,137.5,137.5z"/>
		<path class="st7" d="M149.2,133.6c1.3,0,1.3-1.9,0-1.9C147.9,131.6,147.9,133.6,149.2,133.6z"/>
		<path class="st7" d="M156.5,132.7c1.3,0,1.3-1.9,0-1.9C155.3,130.7,155.3,132.7,156.5,132.7z"/>
		<path class="st7" d="M152.2,145c-1.3,0-1.3,1.9,0,1.9S153.5,145,152.2,145z"/>
		<path class="st7" d="M148.7,155c-1.3,0-1.3,1.9,0,1.9C150,156.9,150,155,148.7,155z"/>
		<path class="st7" d="M145.7,163.4c1.3,0,1.3-1.9,0-1.9C144.5,161.5,144.5,163.4,145.7,163.4z"/>
		<path class="st7" d="M140.5,164.9c-1.3,0-1.3,1.9,0,1.9S141.8,164.9,140.5,164.9z"/>
		<path class="st7" d="M142.7,169.7c-1.3,0-1.3,1.9,0,1.9C143.9,171.7,143.9,169.7,142.7,169.7z"/>
		<path class="st7" d="M214.1,209.5c-1.3,0-1.3,1.9,0,1.9C215.4,211.5,215.4,209.5,214.1,209.5z"/>
		<path class="st7" d="M216.3,206.7c1.3,0,1.3-1.9,0-1.9C215,204.8,215,206.7,216.3,206.7z"/>
		<path class="st7" d="M210.7,202c1.3,0,1.3-1.9,0-1.9C209.4,200,209.4,202,210.7,202z"/>
		<path class="st7" d="M209.8,191.8c-1.3,0-1.3,1.9,0,1.9C211,193.7,211,191.8,209.8,191.8z"/>
		<path class="st7" d="M199.4,197.4c-1.3,0-1.3,1.9,0,1.9C200.7,199.4,200.7,197.4,199.4,197.4z"/>
		<path class="st7" d="M195.9,208.5c1.3,0,1.3-1.9,0-1.9C194.7,206.5,194.7,208.5,195.9,208.5z"/>
		<path class="st7" d="M191.6,205.7c-1.3,0-1.3,1.9,0,1.9C192.9,207.6,192.9,205.7,191.6,205.7z"/>
		<path class="st7" d="M191.6,215.8c1.3,0,1.3-1.9,0-1.9S190.4,215.8,191.6,215.8z"/>
		<path class="st7" d="M186.4,220.2c1.3,0,1.3-1.9,0-1.9C185.2,218.2,185.2,220.2,186.4,220.2z"/>
		<path class="st7" d="M186.4,228.4c1.3,0,1.3-1.9,0-1.9C185.2,226.4,185.2,228.4,186.4,228.4z"/>
		<path class="st7" d="M189,236.6c1.3,0,1.3-1.9,0-1.9C187.8,234.7,187.8,236.6,189,236.6z"/>
		<path class="st7" d="M193.3,232.9c-1.3,0-1.3,1.9,0,1.9C194.6,234.9,194.6,232.9,193.3,232.9z"/>
		<path class="st7" d="M200.7,226.9c-1.3,0-1.3,1.9,0,1.9C202,228.8,202,226.9,200.7,226.9z"/>
		<path class="st7" d="M205.5,219.9c-1.3,0-1.3,1.9,0,1.9C206.7,221.9,206.7,219.9,205.5,219.9z"/>
		<path class="st7" d="M211.5,221.7c-1.3,0-1.3,1.9,0,1.9C212.8,223.6,212.8,221.7,211.5,221.7z"/>
		<path class="st7" d="M208.5,231.4c1.3,0,1.3-1.9,0-1.9C207.2,229.5,207.2,231.4,208.5,231.4z"/>
		<path class="st7" d="M207.6,240.9c1.3,0,1.3-1.9,0-1.9S206.4,240.9,207.6,240.9z"/>
		<path class="st7" d="M202.9,239.4c-1.3,0-1.3,1.9,0,1.9C204.1,241.4,204.1,239.4,202.9,239.4z"/>
		<path class="st7" d="M197.2,246.8c-1.3,0-1.3,1.9,0,1.9C198.5,248.7,198.5,246.8,197.2,246.8z"/>
		<path class="st7" d="M193.3,245.5c-1.3,0-1.3,1.9,0,1.9C194.6,247.4,194.6,245.5,193.3,245.5z"/>
		<path class="st7" d="M190.3,252.2c1.3,0,1.3-1.9,0-1.9S189.1,252.2,190.3,252.2z"/>
		<path class="st7" d="M184.2,253.5c1.3,0,1.3-1.9,0-1.9C183,251.5,183,253.5,184.2,253.5z"/>
		<path class="st7" d="M179.5,255c-1.3,0-1.3,1.9,0,1.9C180.7,257,180.7,255,179.5,255z"/>
		<path class="st7" d="M177.3,250c1.3,0,1.3-1.9,0-1.9C176.1,248.1,176.1,250,177.3,250z"/>
		<path class="st7" d="M180.3,241.2c-1.3,0-1.3,1.9,0,1.9C181.6,243.1,181.6,241.2,180.3,241.2z"/>
		<path class="st7" d="M175.2,239.9c-1.3,0-1.3,1.9,0,1.9C176.4,241.8,176.4,239.9,175.2,239.9z"/>
		<path class="st7" d="M180.8,232.5c-1.3,0-1.3,1.9,0,1.9C182,234.4,182,232.5,180.8,232.5z"/>
		<path class="st7" d="M186.8,239.4c-1.3,0-1.3,1.9,0,1.9C188.1,241.4,188.1,239.4,186.8,239.4z"/>
		<path class="st7" d="M192,242c-1.3,0-1.3,1.9,0,1.9C193.3,244,193.3,242,192,242z"/>
		<path class="st7" d="M167.4,252.6c1.3,0,1.3-1.9,0-1.9C166.1,250.7,166.1,252.6,167.4,252.6z"/>
		<path class="st7" d="M168.7,257.6c-1.3,0-1.3,1.9,0,1.9C169.9,259.6,169.9,257.6,168.7,257.6z"/>
		<path class="st7" d="M162.6,263.2c-1.3,0-1.3,1.9,0,1.9C163.8,265.2,163.9,263.2,162.6,263.2z"/>
		<path class="st7" d="M170.4,267.6c-1.3,0-1.3,1.9,0,1.9C171.6,269.5,171.6,267.6,170.4,267.6z"/>
		<path class="st7" d="M156.5,273.2c-1.3,0-1.3,1.9,0,1.9C157.8,275.1,157.8,273.2,156.5,273.2z"/>
		<path class="st7" d="M147,269.3c-1.3,0-1.3,1.9,0,1.9C148.3,271.3,148.3,269.3,147,269.3z"/>
		<path class="st7" d="M137.9,269.7c-1.3,0-1.3,1.9,0,1.9C139.2,271.7,139.2,269.7,137.9,269.7z"/>
		<path class="st7" d="M130.1,271.5c-1.3,0-1.3,1.9,0,1.9C131.4,273.4,131.4,271.5,130.1,271.5z"/>
		<path class="st7" d="M134,277.5c-1.3,0-1.3,1.9,0,1.9C135.3,279.5,135.3,277.5,134,277.5z"/>
		<path class="st7" d="M135.3,283.2c-1.3,0-1.3,1.9,0,1.9C136.6,285.1,136.6,283.2,135.3,283.2z"/>
		<path class="st7" d="M128.4,284c-1.3,0-1.3,1.9,0,1.9C129.6,286,129.6,284,128.4,284z"/>
		<path class="st7" d="M146.6,286.2c-1.3,0-1.3,1.9,0,1.9C147.8,288.1,147.8,286.2,146.6,286.2z"/>
		<path class="st7" d="M161.3,282.7c-1.3,0-1.3,1.9,0,1.9C162.5,284.7,162.6,282.7,161.3,282.7z"/>
		<path class="st7" d="M157.8,290.1c-1.3,0-1.3,1.9,0,1.9C159.1,292,159.1,290.1,157.8,290.1z"/>
		<path class="st7" d="M162.2,294.9c-1.3,0-1.3,1.9,0,1.9C163.4,296.8,163.4,294.9,162.2,294.9z"/>
		<path class="st7" d="M165.2,291c-1.3,0-1.3,1.9,0,1.9C166.4,292.9,166.4,291,165.2,291z"/>
		<path class="st7" d="M172.6,285.8c-1.3,0-1.3,1.9,0,1.9C173.8,287.7,173.8,285.8,172.6,285.8z"/>
		<path class="st7" d="M177.3,276.2c-1.3,0-1.3,1.9,0,1.9C178.6,278.2,178.6,276.2,177.3,276.2z"/>
		<path class="st7" d="M173.9,273.2c-1.3,0-1.3,1.9,0,1.9C175.1,275.1,175.1,273.2,173.9,273.2z"/>
		<path class="st7" d="M179,269.3c-1.3,0-1.3,1.9,0,1.9C180.3,271.3,180.3,269.3,179,269.3z"/>
		<path class="st7" d="M184.7,271.5c-1.3,0-1.3,1.9,0,1.9C185.9,273.4,185.9,271.5,184.7,271.5z"/>
		<path class="st7" d="M188.6,270c1.3,0,1.3-1.9,0-1.9C187.3,268,187.3,270,188.6,270z"/>
		<path class="st7" d="M191.2,259.8c-1.3,0-1.3,1.9,0,1.9C192.4,261.7,192.4,259.8,191.2,259.8z"/>
		<path class="st7" d="M196.4,266.5c1.3,0,1.3-1.9,0-1.9C195.1,264.5,195.1,266.5,196.4,266.5z"/>
		<path class="st7" d="M203.3,266.5c1.3,0,1.3-1.9,0-1.9C202,264.5,202,266.5,203.3,266.5z"/>
		<path class="st7" d="M200.7,257.6c-1.3,0-1.3,1.9,0,1.9C202,259.6,202,257.6,200.7,257.6z"/>
		<path class="st7" d="M191.2,278.6c1.3,0,1.3-1.9,0-1.9C189.9,276.7,189.9,278.6,191.2,278.6z"/>
		<path class="st7" d="M192.5,281c-1.3,0-1.3,1.9,0,1.9C193.7,282.9,193.7,281,192.5,281z"/>
		<path class="st7" d="M191.2,287.9c-1.3,0-1.3,1.9,0,1.9C192.4,289.9,192.4,287.9,191.2,287.9z"/>
		<path class="st7" d="M185.1,287.9c-1.3,0-1.3,1.9,0,1.9C186.4,289.9,186.4,287.9,185.1,287.9z"/>
		<path class="st7" d="M182.9,281.9c-1.3,0-1.3,1.9,0,1.9C184.2,283.8,184.2,281.9,182.9,281.9z"/>
		<path class="st7" d="M177.7,289.7c-1.3,0-1.3,1.9,0,1.9C179,291.6,179,289.7,177.7,289.7z"/>
		<path class="st7" d="M182.5,297.9c-1.3,0-1.3,1.9,0,1.9C183.8,299.8,183.8,297.9,182.5,297.9z"/>
		<path class="st7" d="M189,303.9c-1.3,0-1.3,1.9,0,1.9S190.3,303.9,189,303.9z"/>
		<path class="st7" d="M145.3,295.3c-1.3,0-1.3,1.9,0,1.9C146.5,297.2,146.5,295.3,145.3,295.3z"/>
		<path class="st7" d="M100.7,279.7c-1.3,0-1.3,1.9,0,1.9C101.9,281.6,101.9,279.7,100.7,279.7z"/>
		<path class="st7" d="M93.7,276.7c-1.3,0-1.3,1.9,0,1.9C95,278.6,95,276.7,93.7,276.7z"/>
		<path class="st7" d="M93.7,269.3c-1.3,0-1.3,1.9,0,1.9C95,271.3,95,269.3,93.7,269.3z"/>
		<path class="st7" d="M201.5,184.5c0,0.1,0,0.3,0,0.4c0,1.3,1.9,1.3,1.9,0c0-0.1,0-0.3,0-0.4C203.4,183.3,201.5,183.3,201.5,184.5z
			"/>
		<path class="st7" d="M201.6,179.9c1.3,0,1.3-1.9,0-1.9C200.3,177.9,200.3,179.9,201.6,179.9z"/>
		<path class="st7" d="M205.5,172.5c1.3,0,1.3-1.9,0-1.9C204.2,170.6,204.2,172.5,205.5,172.5z"/>
		<path class="st7" d="M208.5,169.5c1.3,0,1.3-1.9,0-1.9C207.2,167.5,207.2,169.5,208.5,169.5z"/>
		<path class="st7" d="M212.4,165.8c-1.3,0-1.3,1.9,0,1.9C213.6,167.8,213.6,165.8,212.4,165.8z"/>
		<path class="st7" d="M215,161.5c-1.3,0-1.3,1.9,0,1.9C216.2,163.4,216.2,161.5,215,161.5z"/>
		<path class="st7" d="M221.1,156.5c1.3,0,1.3-1.9,0-1.9C219.8,154.6,219.8,156.5,221.1,156.5z"/>
		<path class="st7" d="M222.8,150.9c1.3,0,1.3-1.9,0-1.9C221.5,148.9,221.5,150.9,222.8,150.9z"/>
		<path class="st7" d="M225.8,144.8c1.3,0,1.3-1.9,0-1.9C224.6,142.9,224.6,144.8,225.8,144.8z"/>
		<path class="st7" d="M236.6,143.9c1.3,0,1.3-1.9,0-1.9C235.4,142,235.4,143.9,236.6,143.9z"/>
		<path class="st7" d="M217.6,150.4c1.3,0,1.3-1.9,0-1.9C216.3,148.5,216.3,150.4,217.6,150.4z"/>
		<path class="st7" d="M229.3,156.9c1.3,0,1.3-1.9,0-1.9C228,155,228,156.9,229.3,156.9z"/>
		<path class="st7" d="M236.2,154.3c1.3,0,1.3-1.9,0-1.9S234.9,154.3,236.2,154.3z"/>
		<path class="st7" d="M234.9,160.4c1.3,0,1.3-1.9,0-1.9S233.7,160.4,234.9,160.4z"/>
		<path class="st7" d="M230.1,162.1c1.3,0,1.3-1.9,0-1.9C228.9,160.2,228.9,162.1,230.1,162.1z"/>
		<path class="st7" d="M232.3,165.8c-1.3,0-1.3,1.9,0,1.9C233.6,167.8,233.6,165.8,232.3,165.8z"/>
		<path class="st7" d="M227.1,166.2c-1.3,0-1.3,1.9,0,1.9C228.4,168.2,228.4,166.2,227.1,166.2z"/>
		<path class="st7" d="M225.8,177.7c1.3,0,1.3-1.9,0-1.9C224.6,175.8,224.6,177.7,225.8,177.7z"/>
		<path class="st7" d="M221.1,177.3c1.3,0,1.3-1.9,0-1.9C219.8,175.3,219.8,177.3,221.1,177.3z"/>
		<path class="st7" d="M216.7,179.2c-1.3,0-1.3,1.9,0,1.9C218,181.2,218,179.2,216.7,179.2z"/>
		<path class="st7" d="M223.2,184.7c1.3,0,1.3-1.9,0-1.9C222,182.7,222,184.7,223.2,184.7z"/>
		<path class="st7" d="M230.6,179.9c1.3,0,1.3-1.9,0-1.9C229.3,177.9,229.3,179.9,230.6,179.9z"/>
		<path class="st7" d="M231.9,171.9c-1.3,0-1.3,1.9,0,1.9C233.1,173.8,233.1,171.9,231.9,171.9z"/>
		<path class="st7" d="M240.5,172.5c1.3,0,1.3-1.9,0-1.9C239.3,170.6,239.3,172.5,240.5,172.5z"/>
		<path class="st7" d="M244,164.9c-1.3,0-1.3,1.9,0,1.9C245.3,166.9,245.3,164.9,244,164.9z"/>
		<path class="st7" d="M244,158.7c1.3,0,1.3-1.9,0-1.9C242.7,156.7,242.7,158.7,244,158.7z"/>
		<path class="st7" d="M250.9,156.7c-1.3,0-1.3,1.9,0,1.9C252.2,158.7,252.2,156.7,250.9,156.7z"/>
		<path class="st7" d="M252.2,153.9c1.3,0,1.3-1.9,0-1.9C251,152,251,153.9,252.2,153.9z"/>
		<path class="st7" d="M256.6,150.9c1.3,0,1.3-1.9,0-1.9C255.3,148.9,255.3,150.9,256.6,150.9z"/>
		<path class="st7" d="M257.9,143.9c1.3,0,1.3-1.9,0-1.9C256.6,142,256.6,143.9,257.9,143.9z"/>
		<path class="st7" d="M253.5,137.5c1.3,0,1.3-1.9,0-1.9C252.3,135.5,252.3,137.5,253.5,137.5z"/>
		<path class="st7" d="M248.3,134.9c1.3,0,1.3-1.9,0-1.9C247.1,132.9,247.1,134.9,248.3,134.9z"/>
		<path class="st7" d="M243.1,132.3c1.3,0,1.3-1.9,0-1.9C241.9,130.3,241.9,132.3,243.1,132.3z"/>
		<path class="st7" d="M255.3,129.2c1.3,0,1.3-1.9,0-1.9C254,127.3,254,129.2,255.3,129.2z"/>
		<path class="st7" d="M267.8,132.7c1.3,0,1.3-1.9,0-1.9C266.6,130.7,266.6,132.7,267.8,132.7z"/>
		<path class="st7" d="M273,138.3c1.3,0,1.3-1.9,0-1.9C271.8,136.4,271.8,138.3,273,138.3z"/>
		<path class="st7" d="M271.7,145.2c1.3,0,1.3-1.9,0-1.9C270.5,143.3,270.5,145.2,271.7,145.2z"/>
		<path class="st7" d="M267.4,144.2c-1.3,0-1.3,1.9,0,1.9C268.6,146.1,268.6,144.2,267.4,144.2z"/>
		<path class="st7" d="M269.1,154.8c1.3,0,1.3-1.9,0-1.9C267.9,152.8,267.9,154.8,269.1,154.8z"/>
		<path class="st7" d="M259.2,159.8c-1.3,0-1.3,1.9,0,1.9C260.4,161.7,260.4,159.8,259.2,159.8z"/>
		<path class="st7" d="M239.7,183.1c-1.3,0-1.3,1.9,0,1.9C240.9,185.1,240.9,183.1,239.7,183.1z"/>
		<path class="st7" d="M234,183.1c-1.3,0-1.3,1.9,0,1.9C235.3,185.1,235.3,183.1,234,183.1z"/>
		<path class="st7" d="M228.4,191.4c-1.3,0-1.3,1.9,0,1.9C229.7,193.3,229.7,191.4,228.4,191.4z"/>
		<path class="st7" d="M221.5,198.3c-1.3,0-1.3,1.9,0,1.9C222.7,200.2,222.7,198.3,221.5,198.3z"/>
		<path class="st7" d="M232.3,198.3c-1.3,0-1.3,1.9,0,1.9C233.6,200.2,233.6,198.3,232.3,198.3z"/>
		<path class="st7" d="M241.4,192.4c1.3,0,1.3-1.9,0-1.9C240.1,190.5,240.1,192.4,241.4,192.4z"/>
		<path class="st7" d="M247.5,188.1c1.3,0,1.3-1.9,0-1.9C246.2,186.2,246.2,188.1,247.5,188.1z"/>
		<path class="st7" d="M221.1,222.1c-1.3,0-1.3,1.9,0,1.9C222.3,224.1,222.3,222.1,221.1,222.1z"/>
		<path class="st7" d="M218.9,218.2c-1.3,0-1.3,1.9,0,1.9C220.1,220.2,220.1,218.2,218.9,218.2z"/>
		<path class="st7" d="M223.6,215.4c1.3,0,1.3-1.9,0-1.9C222.4,213.4,222.4,215.4,223.6,215.4z"/>
		<path class="st7" d="M223.2,208.9c1.3,0,1.3-1.9,0-1.9C222,207,222,208.9,223.2,208.9z"/>
		<path class="st7" d="M228.8,208c1.3,0,1.3-1.9,0-1.9C227.6,206.1,227.6,208,228.8,208z"/>
		<path class="st7" d="M123.2,168c-1.3,0-1.3,1.9,0,1.9C124.4,169.9,124.4,168,123.2,168z"/>
		<path class="st7" d="M208.9,277.1c-1.3,0-1.3,1.9,0,1.9C210.2,279,210.2,277.1,208.9,277.1z"/>
		<path class="st7" d="M205,274.1c-1.3,0-1.3,1.9,0,1.9C206.3,276,206.3,274.1,205,274.1z"/>
		<path class="st7" d="M212,283.6c-1.3,0-1.3,1.9,0,1.9C213.2,285.5,213.2,283.6,212,283.6z"/>
		<path class="st7" d="M208.1,288.1c1.3,0,1.3-1.9,0-1.9C206.8,286.2,206.8,288.1,208.1,288.1z"/>
		<path class="st7" d="M207.6,291.8c-1.3,0-1.3,1.9,0,1.9C208.9,293.8,208.9,291.8,207.6,291.8z"/>
		<path class="st7" d="M202,290.5c-1.3,0-1.3,1.9,0,1.9C203.3,292.5,203.3,290.5,202,290.5z"/>
		<path class="st7" d="M201.1,297.4c-1.3,0-1.3,1.9,0,1.9C202.4,299.4,202.4,297.4,201.1,297.4z"/>
		<path class="st7" d="M209.4,299.2c-1.3,0-1.3,1.9,0,1.9C210.6,301.1,210.6,299.2,209.4,299.2z"/>
		<path class="st7" d="M214.1,293.1c-1.3,0-1.3,1.9,0,1.9C215.4,295.1,215.4,293.1,214.1,293.1z"/>
		<path class="st7" d="M214.1,287.1c-1.3,0-1.3,1.9,0,1.9C215.4,289,215.4,287.1,214.1,287.1z"/>
		<path class="st7" d="M217.6,287.5c-1.3,0-1.3,1.9,0,1.9C218.8,289.4,218.8,287.5,217.6,287.5z"/>
		<path class="st7" d="M216.3,282.3c-0.1,0-0.3,0-0.4,0c-1.3,0-1.3,1.9,0,1.9c0.1,0,0.3,0,0.4,0
			C217.5,284.2,217.5,282.3,216.3,282.3z"/>
		<path class="st7" d="M221.1,278.4c-0.1,0-0.3,0-0.4,0c-1.3,0-1.3,1.9,0,1.9c0.1,0,0.3,0,0.4,0
			C222.3,280.3,222.3,278.4,221.1,278.4z"/>
		<path class="st7" d="M231.4,277.1c-1.3,0-1.3,1.9,0,1.9C232.7,279,232.7,277.1,231.4,277.1z"/>
		<path class="st7" d="M228.4,282.7c-1.3,0-1.3,1.9,0,1.9C229.7,284.7,229.7,282.7,228.4,282.7z"/>
		<path class="st7" d="M227.1,290.5c-1.3,0-1.3,1.9,0,1.9C228.4,292.5,228.4,290.5,227.1,290.5z"/>
		<path class="st7" d="M223.2,290.1c-1.3,0-1.3,1.9,0,1.9C224.5,292,224.5,290.1,223.2,290.1z"/>
		<path class="st7" d="M225.4,298.7c-1.3,0-1.3,1.9,0,1.9C226.6,300.7,226.6,298.7,225.4,298.7z"/>
		<path class="st7" d="M224.9,305.7c-1.3,0-1.3,1.9,0,1.9C226.2,307.6,226.2,305.7,224.9,305.7z"/>
		<path class="st7" d="M230.6,302.6c-1.3,0-1.3,1.9,0,1.9C231.8,304.6,231.8,302.6,230.6,302.6z"/>
		<path class="st7" d="M241.4,298.7c-1.3,0-1.3,1.9,0,1.9C242.7,300.7,242.7,298.7,241.4,298.7z"/>
		<path class="st7" d="M234.9,287.5c-1.3,0-1.3,1.9,0,1.9C236.2,289.4,236.2,287.5,234.9,287.5z"/>
		<path class="st7" d="M239.2,286.6c-1.3,0-1.3,1.9,0,1.9C240.5,288.6,240.5,286.6,239.2,286.6z"/>
		<path class="st7" d="M237.1,281c-1.3,0-1.3,1.9,0,1.9C238.3,282.9,238.3,281,237.1,281z"/>
		<path class="st7" d="M240.5,280.8c1.3,0,1.3-1.9,0-1.9C239.3,278.8,239.3,280.8,240.5,280.8z"/>
		<path class="st7" d="M242.7,286.8c1.3,0,1.3-1.9,0-1.9C241.4,284.9,241.4,286.8,242.7,286.8z"/>
		<path class="st7" d="M248.8,287.1c-0.1,0-0.3,0-0.4,0c-1.3,0-1.3,1.9,0,1.9c0.1,0,0.3,0,0.4,0C250,289,250,287.1,248.8,287.1z"/>
		<path class="st7" d="M247.5,291c-1.3,0-1.3,1.9,0,1.9C248.7,292.9,248.7,291,247.5,291z"/>
		<path class="st7" d="M253.1,292.3c-1.3,0-1.3,1.9,0,1.9C254.3,294.2,254.3,292.3,253.1,292.3z"/>
		<path class="st7" d="M257,296.1c-1.3,0-1.3,1.9,0,1.9C258.2,298.1,258.2,296.1,257,296.1z"/>
		<path class="st7" d="M250.1,299c1.3,0,1.3-1.9,0-1.9C248.8,297,248.8,299,250.1,299z"/>
		<path class="st7" d="M249.2,303.1c-1.3,0-1.3,1.9,0,1.9C250.4,305,250.5,303.1,249.2,303.1z"/>
		<path class="st7" d="M257.9,303.1c-1.3,0-1.3,1.9,0,1.9C259.1,305,259.1,303.1,257.9,303.1z"/>
		<path class="st7" d="M264.8,292.3c-1.3,0-1.3,1.9,0,1.9C266,294.2,266,292.3,264.8,292.3z"/>
		<path class="st7" d="M254,307c-1.3,0-1.3,1.9,0,1.9C255.2,308.9,255.2,307,254,307z"/>
		<path class="st7" d="M243.6,308.3c-1.3,0-1.3,1.9,0,1.9C244.8,310.2,244.8,308.3,243.6,308.3z"/>
		<path class="st7" d="M245.3,314.3c-1.3,0-1.3,1.9,0,1.9C246.6,316.3,246.6,314.3,245.3,314.3z"/>
		<path class="st7" d="M250.5,314.8c-1.3,0-1.3,1.9,0,1.9C251.7,316.7,251.8,314.8,250.5,314.8z"/>
		<path class="st7" d="M247,322.1c-1.3,0-1.3,1.9,0,1.9C248.3,324.1,248.3,322.1,247,322.1z"/>
		<path class="st7" d="M234.9,319.1c-1.3,0-1.3,1.9,0,1.9C236.2,321,236.2,319.1,234.9,319.1z"/>
		<path class="st7" d="M229.7,310.9c-1.3,0-1.3,1.9,0,1.9C231,312.8,231,310.9,229.7,310.9z"/>
		<path class="st7" d="M267.4,306.5c-1.3,0-1.3,1.9,0,1.9C268.6,308.5,268.6,306.5,267.4,306.5z"/>
		<path class="st7" d="M273,307c-1.3,0-1.3,1.9,0,1.9C274.3,308.9,274.3,307,273,307z"/>
		<path class="st7" d="M273.9,296.6c-1.3,0-1.3,1.9,0,1.9C275.1,298.5,275.1,296.6,273.9,296.6z"/>
		<path class="st7" d="M269.1,292.9c1.3,0,1.3-1.9,0-1.9C267.9,291,267.9,292.9,269.1,292.9z"/>
		<path class="st7" d="M277.3,284.5c-1.3,0-1.3,1.9,0,1.9C278.6,286.4,278.6,284.5,277.3,284.5z"/>
		<path class="st7" d="M277.3,290.5c-1.3,0-1.3,1.9,0,1.9C278.6,292.5,278.6,290.5,277.3,290.5z"/>
		<path class="st7" d="M281.2,289.2c-1.3,0-1.3,1.9,0,1.9C282.5,291.2,282.5,289.2,281.2,289.2z"/>
		<path class="st7" d="M280.8,283.2c-1.3,0-1.3,1.9,0,1.9C282.1,285.1,282.1,283.2,280.8,283.2z"/>
		<path class="st7" d="M284.7,279.3c-1.3,0-1.3,1.9,0,1.9C286,281.2,286,279.3,284.7,279.3z"/>
		<path class="st7" d="M287.7,281.9c-1.3,0-1.3,1.9,0,1.9C289,283.8,289,281.9,287.7,281.9z"/>
		<path class="st7" d="M293.4,287.7c1.3,0,1.3-1.9,0-1.9C292.1,285.8,292.1,287.7,293.4,287.7z"/>
		<path class="st7" d="M286.9,289.2c-1.3,0-1.3,1.9,0,1.9C288.1,291.2,288.1,289.2,286.9,289.2z"/>
		<path class="st7" d="M285.1,297.9c-1.3,0-1.3,1.9,0,1.9C286.4,299.8,286.4,297.9,285.1,297.9z"/>
		<path class="st7" d="M294.2,302.6c-1.3,0-1.3,1.9,0,1.9C295.5,304.6,295.5,302.6,294.2,302.6z"/>
		<path class="st7" d="M290.8,302.2c-1.3,0-1.3,1.9,0,1.9C292,304.2,292,302.2,290.8,302.2z"/>
		<path class="st7" d="M299.4,296.6c-1.3,0-1.3,1.9,0,1.9C300.7,298.5,300.7,296.6,299.4,296.6z"/>
		<path class="st7" d="M296.8,291.4c-1.3,0-1.3,1.9,0,1.9C298.1,293.3,298.1,291.4,296.8,291.4z"/>
		<path class="st7" d="M302.5,287.1c-1.3,0-1.3,1.9,0,1.9C303.7,289,303.7,287.1,302.5,287.1z"/>
		<path class="st7" d="M300.3,283.6c-1.3,0-1.3,1.9,0,1.9C301.5,285.5,301.5,283.6,300.3,283.6z"/>
		<path class="st7" d="M304.6,279.3c-1.3,0-1.3,1.9,0,1.9C305.9,281.2,305.9,279.3,304.6,279.3z"/>
		<path class="st7" d="M300.3,274.5c-1.3,0-1.3,1.9,0,1.9C301.5,276.4,301.5,274.5,300.3,274.5z"/>
		<path class="st7" d="M299.4,267.8c1.3,0,1.3-1.9,0-1.9C298.2,265.8,298.2,267.8,299.4,267.8z"/>
		<path class="st7" d="M294.7,269.3c-1.3,0-1.3,1.9,0,1.9C295.9,271.3,295.9,269.3,294.7,269.3z"/>
		<path class="st7" d="M288.2,263.2c-1.3,0-1.3,1.9,0,1.9C289.4,265.2,289.4,263.2,288.2,263.2z"/>
		<path class="st7" d="M288.2,268.9c-1.3,0-1.3,1.9,0,1.9C289.4,270.8,289.4,268.9,288.2,268.9z"/>
		<path class="st7" d="M278.2,271c-1.3,0-1.3,1.9,0,1.9C279.5,273,279.5,271,278.2,271z"/>
		<path class="st7" d="M277.3,266.9c1.3,0,1.3-1.9,0-1.9C276.1,265,276.1,266.9,277.3,266.9z"/>
		<path class="st7" d="M273,269.5c1.3,0,1.3-1.9,0-1.9C271.8,267.6,271.8,269.5,273,269.5z"/>
		<path class="st7" d="M268.7,272.8c-1.3,0-1.3,1.9,0,1.9C269.9,274.7,269.9,272.8,268.7,272.8z"/>
		<path class="st7" d="M259.2,273.6c-1.3,0-1.3,1.9,0,1.9C260.4,275.6,260.4,273.6,259.2,273.6z"/>
		<path class="st7" d="M346.9,38.4c1.3,0,1.3-1.9,0-1.9C345.7,36.4,345.7,38.4,346.9,38.4z"/>
		<path class="st7" d="M351.8,47.8c1.3,0,1.3-1.9,0-1.9C350.5,45.9,350.5,47.8,351.8,47.8z"/>
		<path class="st7" d="M356.3,46.8c1.3,0,1.3-1.9,0-1.9C355,44.9,355,46.8,356.3,46.8z"/>
		<path class="st7" d="M343.3,58.8c1.3,0,1.3-1.9,0-1.9C342,56.8,342,58.8,343.3,58.8z"/>
		<path class="st7" d="M339,55.3c-1.3,0-1.3,1.9,0,1.9C340.3,57.3,340.3,55.3,339,55.3z"/>
		<path class="st7" d="M337.8,47.2c1.3,0,1.3-1.9,0-1.9C336.5,45.3,336.5,47.2,337.8,47.2z"/>
		<path class="st7" d="M343.9,49.1c1.3,0,1.3-1.9,0-1.9C342.7,47.1,342.7,49.1,343.9,49.1z"/>
		<path class="st7" d="M340.7,38.3c-1.3,0-1.3,1.9,0,1.9C342,40.3,342,38.3,340.7,38.3z"/>
		<path class="st7" d="M331.2,39.3c1.3,0,1.3-1.9,0-1.9C330,37.3,330,39.3,331.2,39.3z"/>
		<path class="st7" d="M322.5,40.9c1.3,0,1.3-1.9,0-1.9C321.3,39,321.3,40.9,322.5,40.9z"/>
		<path class="st7" d="M332.4,72.8c1.3,0,1.3-1.9,0-1.9C331.2,70.9,331.2,72.8,332.4,72.8z"/>
		<path class="st7" d="M337.2,71.5c1.3,0,1.3-1.9,0-1.9C335.9,69.5,335.9,71.5,337.2,71.5z"/>
		<path class="st7" d="M325.4,71.5c1.3,0,1.3-1.9,0-1.9C324.2,69.5,324.2,71.5,325.4,71.5z"/>
		<path class="st7" d="M325.6,66.8c1.3,0,1.3-1.9,0-1.9C324.4,64.8,324.4,66.8,325.6,66.8z"/>
		<path class="st7" d="M321.3,61.2c-1.3,0-1.3,1.9,0,1.9C322.6,63.1,322.6,61.2,321.3,61.2z"/>
		<path class="st7" d="M325.7,59.3c1.3,0,1.3-1.9,0-1.9C324.4,57.4,324.4,59.3,325.7,59.3z"/>
		<path class="st7" d="M320.6,54.5c1.3,0,1.3-1.9,0-1.9C319.4,52.6,319.4,54.5,320.6,54.5z"/>
		<path class="st7" d="M314.4,60.2c1.3,0,1.3-1.9,0-1.9C313.1,58.2,313.1,60.2,314.4,60.2z"/>
		<path class="st7" d="M316.4,67.6c1.3,0,1.3-1.9,0-1.9C315.2,65.6,315.2,67.6,316.4,67.6z"/>
		<path class="st7" d="M321.3,69.2c-1.3,0-1.3,1.9,0,1.9C322.6,71.2,322.6,69.2,321.3,69.2z"/>
		<path class="st7" d="M318.9,73.7c1.3,0,1.3-1.9,0-1.9C317.7,71.8,317.7,73.7,318.9,73.7z"/>
		<path class="st7" d="M323.1,74.3c-0.7,1,0.9,2,1.7,1c0.1-0.1,0.2-0.2,0.3-0.3c0.7-1-0.9-2-1.7-1C323.2,74,323.2,74.1,323.1,74.3z"
			/>
		<path class="st7" d="M325.3,81c0.6-0.8-0.3-1.5-1.1-1.4c0-0.9-0.7-1.9-1.9-1.9c-2.5,0-2.5,3.9,0,3.9c0.4,0,0.7-0.1,1-0.3
			c0.4,0.5,1.2,0.6,1.7,0C325.2,81.3,325.3,81.1,325.3,81z"/>
		<path class="st7" d="M319.2,89.1c-1.3,0-1.3,1.9,0,1.9C320.4,91,320.4,89.1,319.2,89.1z"/>
		<path class="st7" d="M316.4,85.3c1.3,0,1.3-1.9,0-1.9C315.2,83.3,315.2,85.3,316.4,85.3z"/>
		<path class="st7" d="M310.9,79.6c1.3,0,1.3-1.9,0-1.9C309.6,77.7,309.6,79.6,310.9,79.6z"/>
		<path class="st7" d="M313.5,74.8c-1.3,0-1.3,1.9,0,1.9C314.8,76.7,314.8,74.8,313.5,74.8z"/>
		<path class="st7" d="M305.3,73.4c1.3,0,1.3-1.9,0-1.9C304,71.4,304,73.4,305.3,73.4z"/>
		<path class="st7" d="M299.9,68.9c1.3,0,1.3-1.9,0-1.9C298.7,67,298.7,68.9,299.9,68.9z"/>
		<path class="st7" d="M299,75.3c1.3,0,1.3-1.9,0-1.9C297.8,73.3,297.8,75.3,299,75.3z"/>
		<path class="st7" d="M295.8,84.3c-1.3,0-1.3,1.9,0,1.9C297.1,86.3,297.1,84.3,295.8,84.3z"/>
		<path class="st7" d="M308.7,87.7c1.3,0,1.3-1.9,0-1.9C307.5,85.7,307.5,87.7,308.7,87.7z"/>
		<path class="st7" d="M312.7,93.3c1.3,0,1.3-1.9,0-1.9C311.4,91.3,311.4,93.3,312.7,93.3z"/>
		<path class="st7" d="M312.4,97.3c1.3,0,1.3-1.9,0-1.9C311.2,95.4,311.1,97.3,312.4,97.3z"/>
		<path class="st7" d="M306.2,93.6c-1.3,0-1.3,1.9,0,1.9C307.5,95.5,307.5,93.6,306.2,93.6z"/>
		<path class="st7" d="M300.1,97.7c-0.7,1,1,2,1.7,1c0.1-0.1,0.2-0.2,0.3-0.3c0.7-1-0.9-2-1.7-1C300.2,97.4,300.2,97.5,300.1,97.7z"
			/>
		<path class="st7" d="M298.5,93.8c-1.3,0-1.3,1.9,0,1.9C299.8,95.8,299.8,93.8,298.5,93.8z"/>
		<path class="st7" d="M294.2,99.6c1.3,0,1.3-1.9,0-1.9C292.9,97.6,292.9,99.6,294.2,99.6z"/>
		<path class="st7" d="M288.7,100.4c1.3,0,1.3-1.9,0-1.9C287.5,98.5,287.5,100.4,288.7,100.4z"/>
		<path class="st7" d="M292.1,94.3c1.3,0,1.3-1.9,0-1.9C290.8,92.4,290.8,94.3,292.1,94.3z"/>
		<path class="st7" d="M287.7,90c1.3,0,1.3-1.9,0-1.9C286.5,88.1,286.5,90,287.7,90z"/>
		<path class="st7" d="M282.6,97c1.3,0,1.3-1.9,0-1.9C281.4,95.1,281.4,97,282.6,97z"/>
		<path class="st7" d="M281.8,89.6c-1.3,0-1.3,1.9,0,1.9C283,91.6,283,89.6,281.8,89.6z"/>
		<path class="st7" d="M286.8,82.4c1.3,0,1.3-1.9,0-1.9C285.6,80.5,285.6,82.4,286.8,82.4z"/>
		<path class="st7" d="M280.9,80.2c1.3,0,1.3-1.9,0-1.9C279.7,78.3,279.7,80.2,280.9,80.2z"/>
		<path class="st7" d="M277.5,84.2c1.3,0,1.3-1.9,0-1.9C276.3,82.2,276.3,84.2,277.5,84.2z"/>
		<path class="st7" d="M273.6,77c1.3,0,1.3-1.9,0-1.9C272.4,75.1,272.4,77,273.6,77z"/>
		<path class="st7" d="M283.2,69c1.3,0,1.3-1.9,0-1.9C282,67.1,282,69,283.2,69z"/>
		<path class="st7" d="M292.9,69.7c1.3,0,1.3-1.9,0-1.9C291.7,67.7,291.7,69.7,292.9,69.7z"/>
		<path class="st7" d="M274.2,102.7c1.3,0,1.3-1.9,0-1.9C272.9,100.7,272.9,102.7,274.2,102.7z"/>
		<path class="st7" d="M270.5,107c1.3,0,1.3-1.9,0-1.9C269.3,105,269.3,107,270.5,107z"/>
		<path class="st7" d="M278.4,111.8c-0.6,0-0.8,0.4-0.9,0.8c0-1-0.6-1.9-1.9-1.9c-2.5,0-2.5,3.9,0,3.9c1.2,0,1.8-0.9,1.9-1.8
			c0,0.5,0.3,1,0.9,1C279.7,113.8,279.7,111.8,278.4,111.8z"/>
		<path class="st7" d="M285.8,113.3c1.3,0,1.3-1.9,0-1.9C284.5,111.3,284.5,113.3,285.8,113.3z"/>
		<path class="st7" d="M281.3,118.2c-1.3,0-1.3,1.9,0,1.9C282.5,120.2,282.5,118.2,281.3,118.2z"/>
		<path class="st7" d="M280,124.1c1.3,0,1.3-1.9,0-1.9C278.7,122.1,278.7,124.1,280,124.1z"/>
		<path class="st7" d="M286,132.7c1.3,0,1.3-1.9,0-1.9C284.7,130.8,284.7,132.7,286,132.7z"/>
		<path class="st7" d="M282.1,133.7c1.3,0,1.3-1.9,0-1.9C280.9,131.7,280.9,133.7,282.1,133.7z"/>
		<path class="st7" d="M275.6,134c-1.3,0-1.3,1.9,0,1.9C276.9,135.9,276.9,134,275.6,134z"/>
		<path class="st7" d="M276.7,126.7c-1.3,0-1.3,1.9,0,1.9C277.9,128.6,277.9,126.7,276.7,126.7z"/>
		<path class="st7" d="M270.7,120.2c-1.3,0-1.3,1.9,0,1.9C272,122.1,272,120.2,270.7,120.2z"/>
		<path class="st7" d="M263.9,124.1c1.3,0,1.3-1.9,0-1.9C262.6,122.2,262.6,124.1,263.9,124.1z"/>
		<path class="st7" d="M300.7,121.7c-1.3,0-1.3,1.9,0,1.9C301.9,123.6,302,121.7,300.7,121.7z"/>
		<path class="st7" d="M305.6,113.5c-1.3,0-1.3,1.9,0,1.9C306.9,115.4,306.9,113.5,305.6,113.5z"/>
		<path class="st7" d="M222.2,30.8c1.3,0,1.3-1.9,0-1.9C221,28.8,221,30.8,222.2,30.8z"/>
		<path class="st7" d="M227.1,40.2c1.3,0,1.3-1.9,0-1.9C225.8,38.3,225.8,40.2,227.1,40.2z"/>
		<path class="st7" d="M231.6,39.2c1.3,0,1.3-1.9,0-1.9C230.3,37.3,230.3,39.2,231.6,39.2z"/>
		<path class="st7" d="M218.6,51.2c1.3,0,1.3-1.9,0-1.9C217.3,49.2,217.3,51.2,218.6,51.2z"/>
		<path class="st7" d="M214.3,49.7c1.3,0,1.3-1.9,0-1.9C213.1,47.7,213.1,49.7,214.3,49.7z"/>
		<path class="st7" d="M209.5,44.5c1.3,0,1.3-1.9,0-1.9C208.2,42.6,208.2,44.5,209.5,44.5z"/>
		<path class="st7" d="M213.1,39.6c1.3,0,1.3-1.9,0-1.9C211.8,37.7,211.8,39.6,213.1,39.6z"/>
		<path class="st7" d="M219.2,41.5c1.3,0,1.3-1.9,0-1.9C218,39.5,218,41.5,219.2,41.5z"/>
		<path class="st7" d="M216,32.7c1.3,0,1.3-1.9,0-1.9C214.8,30.7,214.8,32.7,216,32.7z"/>
		<path class="st7" d="M206.6,31.7c1.3,0,1.3-1.9,0-1.9S205.3,31.7,206.6,31.7z"/>
		<path class="st7" d="M197.8,33.3c1.3,0,1.3-1.9,0-1.9C196.6,31.4,196.6,33.3,197.8,33.3z"/>
		<path class="st7" d="M207.8,65.3c1.3,0,1.3-1.9,0-1.9C206.5,63.3,206.5,65.3,207.8,65.3z"/>
		<path class="st7" d="M200.7,63.9c1.3,0,1.3-1.9,0-1.9C199.5,61.9,199.5,63.9,200.7,63.9z"/>
		<path class="st7" d="M200.9,59.2c1.3,0,1.3-1.9,0-1.9C199.7,57.2,199.7,59.2,200.9,59.2z"/>
		<path class="st7" d="M196.6,55.5c1.3,0,1.3-1.9,0-1.9C195.4,53.6,195.4,55.5,196.6,55.5z"/>
		<path class="st7" d="M201,51.7c1.3,0,1.3-1.9,0-1.9C199.8,49.8,199.7,51.7,201,51.7z"/>
		<path class="st7" d="M195.9,47c1.3,0,1.3-1.9,0-1.9C194.7,45,194.7,47,195.9,47z"/>
		<path class="st7" d="M189.7,52.6c1.3,0,1.3-1.9,0-1.9C188.4,50.6,188.4,52.6,189.7,52.6z"/>
		<path class="st7" d="M191.8,60c1.3,0,1.3-1.9,0-1.9C190.5,58,190.5,60,191.8,60z"/>
		<path class="st7" d="M196.6,61.6c-1.3,0-1.3,1.9,0,1.9C197.9,63.6,197.9,61.6,196.6,61.6z"/>
		<path class="st7" d="M200.1,67.6c0.1-0.1,0.2-0.2,0.3-0.3c0.7-1-0.9-2-1.7-1c-0.1,0.1-0.2,0.2-0.3,0.3
			C197.6,67.7,199.3,68.7,200.1,67.6z"/>
		<path class="st7" d="M199,72.5c-0.1,0.1-0.2,0.2-0.3,0.3c-0.7,1,1,2,1.7,1c0.1-0.1,0.2-0.2,0.3-0.3
			C201.4,72.4,199.7,71.5,199,72.5z"/>
		<path class="st7" d="M191.7,75.7c-1.3,0-1.3,1.9,0,1.9C193,77.7,193,75.7,191.7,75.7z"/>
		<path class="st7" d="M186.2,72c1.3,0,1.3-1.9,0-1.9C184.9,70.1,184.9,72,186.2,72z"/>
		<path class="st7" d="M180.6,65.8c1.3,0,1.3-1.9,0-1.9C179.3,63.8,179.3,65.8,180.6,65.8z"/>
		<path class="st7" d="M175.2,61.3c1.3,0,1.3-1.9,0-1.9C174,59.4,174,61.3,175.2,61.3z"/>
		<path class="st7" d="M174.4,67.7c1.3,0,1.3-1.9,0-1.9C173.1,65.7,173.1,67.7,174.4,67.7z"/>
		<path class="st7" d="M184,80.1c1.3,0,1.3-1.9,0-1.9C182.8,78.2,182.8,80.1,184,80.1z"/>
		<path class="st7" d="M188,83.7c-1.3,0-1.3,1.9,0,1.9C189.3,85.7,189.3,83.7,188,83.7z"/>
		<path class="st7" d="M187.7,89.8c1.3,0,1.3-1.9,0-1.9C186.5,87.8,186.5,89.8,187.7,89.8z"/>
		<path class="st7" d="M181.5,87.9c1.3,0,1.3-1.9,0-1.9C180.3,86,180.3,87.9,181.5,87.9z"/>
		<path class="st7" d="M175.4,90.1c-0.7,1,1,2,1.7,1c0.1-0.1,0.2-0.2,0.3-0.3c0.7-1-0.9-2-1.7-1C175.5,89.8,175.5,90,175.4,90.1z"/>
		<path class="st7" d="M173.8,88.2c1.3,0,1.3-1.9,0-1.9C172.6,86.2,172.6,88.2,173.8,88.2z"/>
		<path class="st7" d="M169.5,92c1.3,0,1.3-1.9,0-1.9C168.2,90,168.2,92,169.5,92z"/>
		<path class="st7" d="M167.4,86.7c1.3,0,1.3-1.9,0-1.9C166.2,84.8,166.2,86.7,167.4,86.7z"/>
		<path class="st7" d="M163,80.5c-1.3,0-1.3,1.9,0,1.9C164.3,82.4,164.3,80.5,163,80.5z"/>
		<path class="st7" d="M157.9,87.5c-1.3,0-1.3,1.9,0,1.9C159.2,89.4,159.2,87.5,157.9,87.5z"/>
		<path class="st7" d="M162.6,99.5c-1.3,0-1.3,1.9,0,1.9C163.8,101.4,163.8,99.5,162.6,99.5z"/>
		<path class="st7" d="M157.1,84c1.3,0,1.3-1.9,0-1.9C155.8,82,155.8,84,157.1,84z"/>
		<path class="st7" d="M162.1,74.8c1.3,0,1.3-1.9,0-1.9C160.9,72.9,160.9,74.8,162.1,74.8z"/>
		<path class="st7" d="M168.2,62.1c1.3,0,1.3-1.9,0-1.9S167,62.1,168.2,62.1z"/>
		<path class="st7" d="M149.5,95.1c1.3,0,1.3-1.9,0-1.9C148.2,93.1,148.2,95.1,149.5,95.1z"/>
		<path class="st7" d="M145.8,99.4c1.3,0,1.3-1.9,0-1.9C144.6,97.4,144.6,99.4,145.8,99.4z"/>
		<path class="st7" d="M153.7,106.2c1.3,0,1.3-1.9,0-1.9C152.5,104.3,152.5,106.2,153.7,106.2z"/>
		<path class="st7" d="M161.1,103.7c-1.3,0-1.3,1.9,0,1.9C162.3,105.7,162.3,103.7,161.1,103.7z"/>
		<path class="st7" d="M161.5,114.2c-1.3,0-1.3,1.9,0,1.9C162.7,116.2,162.7,114.2,161.5,114.2z"/>
		<path class="st7" d="M156.6,112.6c1.3,0,1.3-1.9,0-1.9C155.3,110.6,155.3,112.6,156.6,112.6z"/>
		<path class="st7" d="M160.5,117.8c-1.3,0-1.3,1.9,0,1.9C161.7,119.7,161.7,117.8,160.5,117.8z"/>
		<path class="st7" d="M161.3,123.2c-1.3,0-1.3,1.9,0,1.9C162.6,125.2,162.6,123.2,161.3,123.2z"/>
		<path class="st7" d="M157.4,126.1c1.3,0,1.3-1.9,0-1.9C156.2,124.1,156.2,126.1,157.4,126.1z"/>
		<path class="st7" d="M151,126.4c-1.3,0-1.3,1.9,0,1.9C152.2,128.3,152.2,126.4,151,126.4z"/>
		<path class="st7" d="M152,121c1.3,0,1.3-1.9,0-1.9C150.7,119.1,150.7,121,152,121z"/>
		<path class="st7" d="M146,112.6c-1.3,0-1.3,1.9,0,1.9C147.3,114.5,147.3,112.6,146,112.6z"/>
		<path class="st7" d="M139.2,116.5c1.3,0,1.3-1.9,0-1.9C137.9,114.6,137.9,116.5,139.2,116.5z"/>
		<path class="st7" d="M266.1,268.9c-1.3,0-1.3,1.9,0,1.9C267.3,270.8,267.3,268.9,266.1,268.9z"/>
		<path class="st7" d="M268.2,264.8c1.3,0,1.3-1.9,0-1.9C267,262.8,267,264.8,268.2,264.8z"/>
		<path class="st7" d="M262.6,260.6c-1.3,0-1.3,1.9,0,1.9C263.9,262.6,263.9,260.6,262.6,260.6z"/>
		<path class="st7" d="M254.4,264.5c-1.3,0-1.3,1.9,0,1.9C255.6,266.5,255.6,264.5,254.4,264.5z"/>
		<path class="st7" d="M273.9,255c-1.3,0-1.3,1.9,0,1.9C275.1,257,275.1,255,273.9,255z"/>
		<path class="st7" d="M279.1,257.6c-1.3,0-1.3,1.9,0,1.9C280.3,259.6,280.3,257.6,279.1,257.6z"/>
		<path class="st7" d="M283.4,253.1c1.3,0,1.3-1.9,0-1.9C282.1,251.1,282.1,253.1,283.4,253.1z"/>
		<path class="st7" d="M289,254.1c-1.3,0-1.3,1.9,0,1.9c0.1,0,0.3,0,0.4,0c1.3,0,1.3-1.9,0-1.9C289.3,254.1,289.2,254.1,289,254.1z"
			/>
		<path class="st7" d="M296.8,257.2c-1.3,0-1.3,1.9,0,1.9C298.1,259.1,298.1,257.2,296.8,257.2z"/>
		<path class="st7" d="M300.7,253.3c-1.3,0-1.3,1.9,0,1.9C302,255.2,302,253.3,300.7,253.3z"/>
		<path class="st7" d="M304.2,253.3c-1.3,0-1.3,1.9,0,1.9C305.4,255.2,305.4,253.3,304.2,253.3z"/>
		<path class="st7" d="M304.2,249.6c1.3,0,1.3-1.9,0-1.9C302.9,247.7,302.9,249.6,304.2,249.6z"/>
		<path class="st7" d="M300.7,243.5c1.3,0,1.3-1.9,0-1.9C299.5,241.6,299.5,243.5,300.7,243.5z"/>
		<path class="st7" d="M294.7,243.3c-1.3,0-1.3,1.9,0,1.9C295.9,245.3,295.9,243.3,294.7,243.3z"/>
		<path class="st7" d="M298.1,239.6c1.3,0,1.3-1.9,0-1.9C296.9,237.7,296.9,239.6,298.1,239.6z"/>
		<path class="st7" d="M304.6,238.6c-1.3,0-1.3,1.9,0,1.9C305.9,240.5,305.9,238.6,304.6,238.6z"/>
		<path class="st7" d="M308.5,242.9c-0.1,0-0.3,0-0.4,0c-1.3,0-1.3,1.9,0,1.9c0.1,0,0.3,0,0.4,0
			C309.8,244.8,309.8,242.9,308.5,242.9z"/>
		<path class="st7" d="M312.4,241.2c-1.3,0-1.3,1.9,0,1.9C313.7,243.1,313.7,241.2,312.4,241.2z"/>
		<path class="st7" d="M309.4,238.8c1.3,0,1.3-1.9,0-1.9C308.1,236.8,308.1,238.8,309.4,238.8z"/>
		<path class="st7" d="M309.4,231.2c-1.3,0-1.3,1.9,0,1.9C310.6,233.1,310.6,231.2,309.4,231.2z"/>
		<path class="st7" d="M316.3,226.2c1.3,0,1.3-1.9,0-1.9C315.1,224.3,315.1,226.2,316.3,226.2z"/>
		<path class="st7" d="M325,226.2c1.3,0,1.3-1.9,0-1.9C323.7,224.3,323.7,226.2,325,226.2z"/>
		<path class="st7" d="M323.7,231c1.3,0,1.3-1.9,0-1.9C322.4,229,322.4,231,323.7,231z"/>
		<path class="st7" d="M321.9,235.5c-1.3,0-1.3,1.9,0,1.9C323.2,237.5,323.2,235.5,321.9,235.5z"/>
		<path class="st7" d="M317.2,239.6c1.3,0,1.3-1.9,0-1.9C315.9,237.7,315.9,239.6,317.2,239.6z"/>
		<path class="st7" d="M313.3,250.3c-1.3,0-1.3,1.9,0,1.9C314.5,252.2,314.5,250.3,313.3,250.3z"/>
		<path class="st7" d="M315,258.3c1.3,0,1.3-1.9,0-1.9C313.8,256.3,313.8,258.3,315,258.3z"/>
		<path class="st7" d="M316.3,266.1c1.3,0,1.3-1.9,0-1.9C315.1,264.1,315.1,266.1,316.3,266.1z"/>
		<path class="st7" d="M320.6,268.4c-1.3,0-1.3,1.9,0,1.9C321.9,270.4,321.9,268.4,320.6,268.4z"/>
		<path class="st7" d="M331,267.6c-1.3,0-1.3,1.9,0,1.9C332.3,269.5,332.3,267.6,331,267.6z"/>
		<path class="st7" d="M334.9,264.1c-1.3,0-1.3,1.9,0,1.9C336.2,266.1,336.2,264.1,334.9,264.1z"/>
		<path class="st7" d="M330.6,258.7c1.3,0,1.3-1.9,0-1.9C329.3,256.7,329.3,258.7,330.6,258.7z"/>
		<path class="st7" d="M325,254.1c-1.3,0-1.3,1.9,0,1.9C326.2,256.1,326.2,254.1,325,254.1z"/>
		<path class="st7" d="M331,245.9c-1.3,0-1.3,1.9,0,1.9C332.3,247.9,332.3,245.9,331,245.9z"/>
		<path class="st7" d="M325.7,244.3c0,0.1,0,0.3,0,0.4c0,1.3,1.9,1.3,1.9,0c0-0.1,0-0.3,0-0.4C327.7,243,325.7,243,325.7,244.3z"/>
		<path class="st7" d="M329.3,239.6c1.3,0,1.3-1.9,0-1.9C328,237.7,328,239.6,329.3,239.6z"/>
		<path class="st7" d="M335.4,236.8c-1.3,0-1.3,1.9,0,1.9C336.6,238.8,336.6,236.8,335.4,236.8z"/>
		<path class="st7" d="M341,232.5c-1.3,0-1.3,1.9,0,1.9C342.2,234.4,342.2,232.5,341,232.5z"/>
		<path class="st7" d="M343.2,229.3c1.3,0,1.3-1.9,0-1.9C341.9,227.3,341.9,229.3,343.2,229.3z"/>
		<path class="st7" d="M338.8,224.1c1.3,0,1.3-1.9,0-1.9C337.6,222.1,337.6,224.1,338.8,224.1z"/>
		<path class="st7" d="M336.2,216.5c-1.3,0-1.3,1.9,0,1.9C337.5,218.4,337.5,216.5,336.2,216.5z"/>
		<path class="st7" d="M337.1,207.8c-1.3,0-1.3,1.9,0,1.9C338.3,209.8,338.4,207.8,337.1,207.8z"/>
		<path class="st7" d="M329.7,211.1c1.3,0,1.3-1.9,0-1.9C328.5,209.1,328.5,211.1,329.7,211.1z"/>
		<path class="st7" d="M325.8,213.9c-0.1,0-0.3,0-0.4,0c-1.3,0-1.3,1.9,0,1.9c0.1,0,0.3,0,0.4,0
			C327.1,215.8,327.1,213.9,325.8,213.9z"/>
		<path class="st7" d="M329.7,220.2c1.3,0,1.3-1.9,0-1.9C328.5,218.2,328.5,220.2,329.7,220.2z"/>
		<path class="st7" d="M344.5,211.1c1.3,0,1.3-1.9,0-1.9C343.2,209.1,343.2,211.1,344.5,211.1z"/>
		<path class="st7" d="M351.4,205.7c-1.3,0-1.3,1.9,0,1.9C352.6,207.6,352.6,205.7,351.4,205.7z"/>
		<path class="st7" d="M354.4,202c1.3,0,1.3-1.9,0-1.9C353.2,200,353.2,202,354.4,202z"/>
		<path class="st7" d="M353.1,193.5c-1.3,0-1.3,1.9,0,1.9C354.4,195.5,354.4,193.5,353.1,193.5z"/>
		<path class="st7" d="M349.2,196.3c1.3,0,1.3-1.9,0-1.9C348,194.4,348,196.3,349.2,196.3z"/>
		<path class="st7" d="M356.6,192c1.3,0,1.3-1.9,0-1.9C355.3,190.1,355.3,192,356.6,192z"/>
		<path class="st7" d="M360.5,195.5c1.3,0,1.3-1.9,0-1.9C359.2,193.5,359.2,195.5,360.5,195.5z"/>
		<path class="st7" d="M363.9,187.7c1.3,0,1.3-1.9,0-1.9C362.7,185.7,362.7,187.7,363.9,187.7z"/>
		<path class="st7" d="M364.4,182.9c1.3,0,1.3-1.9,0-1.9C363.1,181,363.1,182.9,364.4,182.9z"/>
		<path class="st7" d="M370.4,176.4c1.3,0,1.3-1.9,0-1.9C369.2,174.5,369.2,176.4,370.4,176.4z"/>
		<path class="st7" d="M383,174.3c1.3,0,1.3-1.9,0-1.9C381.7,172.3,381.7,174.3,383,174.3z"/>
		<path class="st7" d="M381.3,169.3c-1.3,0-1.3,1.9,0,1.9C382.5,171.2,382.5,169.3,381.3,169.3z"/>
		<path class="st7" d="M386.5,166.9c1.3,0,1.3-1.9,0-1.9C385.2,164.9,385.2,166.9,386.5,166.9z"/>
		<path class="st7" d="M377.8,165.6c1.3,0,1.3-1.9,0-1.9C376.5,163.7,376.5,165.6,377.8,165.6z"/>
		<path class="st7" d="M380.4,153.7c-1.3,0-1.3,1.9,0,1.9C381.6,155.6,381.7,153.7,380.4,153.7z"/>
		<path class="st7" d="M386.9,153.5c1.3,0,1.3-1.9,0-1.9C385.6,151.5,385.6,153.5,386.9,153.5z"/>
		<path class="st7" d="M392.1,150.7c-1.3,0-1.3,1.9,0,1.9C393.3,152.6,393.3,150.7,392.1,150.7z"/>
		<path class="st7" d="M391.7,146.5c1.3,0,1.3-1.9,0-1.9C390.4,144.6,390.4,146.5,391.7,146.5z"/>
		<path class="st7" d="M392.1,138.8c0.1,0,0.3,0,0.4,0c1.3,0,1.3-1.9,0-1.9c-0.1,0-0.3,0-0.4,0C390.8,136.8,390.8,138.8,392.1,138.8
			z"/>
		<path class="st7" d="M400.3,131.8c1.3,0,1.3-1.9,0-1.9C399.1,129.9,399.1,131.8,400.3,131.8z"/>
		<path class="st7" d="M403.3,141.8c1.3,0,1.3-1.9,0-1.9C402.1,139.8,402.1,141.8,403.3,141.8z"/>
		<path class="st7" d="M406.4,145.9c-1.3,0-1.3,1.9,0,1.9C407.6,147.8,407.6,145.9,406.4,145.9z"/>
		<path class="st7" d="M411.1,147c1.3,0,1.3-1.9,0-1.9C409.9,145,409.9,147,411.1,147z"/>
		<path class="st7" d="M414.6,135.9c-1.3,0-1.3,1.9,0,1.9C415.9,137.9,415.9,135.9,414.6,135.9z"/>
		<path class="st7" d="M409.8,131.4c1.3,0,1.3-1.9,0-1.9C408.6,129.4,408.6,131.4,409.8,131.4z"/>
		<path class="st7" d="M409.4,156.5c0.1,0,0.3,0,0.4,0c1.3,0,1.3-1.9,0-1.9c-0.1,0-0.3,0-0.4,0C408.2,154.6,408.2,156.5,409.4,156.5
			z"/>
		<path class="st7" d="M404.6,154.1c-1.3,0-1.3,1.9,0,1.9C405.9,156.1,405.9,154.1,404.6,154.1z"/>
		<path class="st7" d="M402,166c1.3,0,1.3-1.9,0-1.9C400.8,164.1,400.8,166,402,166z"/>
		<path class="st7" d="M394.7,167.5c-1.3,0-1.3,1.9,0,1.9C395.9,169.5,395.9,167.5,394.7,167.5z"/>
		<path class="st7" d="M396,179c1.3,0,1.3-1.9,0-1.9C394.7,177.1,394.7,179,396,179z"/>
		<path class="st7" d="M390.8,185.9c1.3,0,1.3-1.9,0-1.9C389.5,184,389.5,185.9,390.8,185.9z"/>
		<path class="st7" d="M381.3,191.1c1.3,0,1.3-1.9,0-1.9C380,189.2,380,191.1,381.3,191.1z"/>
		<path class="st7" d="M373.9,192.4c1.3,0,1.3-1.9,0-1.9C372.6,190.5,372.6,192.4,373.9,192.4z"/>
		<path class="st7" d="M369.6,203.1c-1.3,0-1.3,1.9,0,1.9C370.8,205,370.8,203.1,369.6,203.1z"/>
		<path class="st7" d="M364.4,211.7c-1.3,0-1.3,1.9,0,1.9c0.1,0,0.3,0,0.4,0c1.3,0,1.3-1.9,0-1.9
			C364.7,211.7,364.5,211.7,364.4,211.7z"/>
		<path class="st7" d="M367,217.3c-1.3,0-1.3,1.9,0,1.9C368.2,219.3,368.2,217.3,367,217.3z"/>
		<path class="st7" d="M357.4,224.7c-1.3,0-1.3,1.9,0,1.9C358.7,226.7,358.7,224.7,357.4,224.7z"/>
		<path class="st7" d="M354.4,220.8c-1.3,0-1.3,1.9,0,1.9C355.7,222.8,355.7,220.8,354.4,220.8z"/>
		<path class="st7" d="M351.4,230.8c-1.3,0-1.3,1.9,0,1.9C352.6,232.7,352.6,230.8,351.4,230.8z"/>
		<path class="st7" d="M345.8,236c-1.3,0-1.3,1.9,0,1.9C347,237.9,347,236,345.8,236z"/>
		<path class="st7" d="M345.8,244.2c-1.3,0-1.3,1.9,0,1.9C347,246.1,347,244.2,345.8,244.2z"/>
		<path class="st7" d="M341,244.2c-1.3,0-1.3,1.9,0,1.9C342.2,246.1,342.2,244.2,341,244.2z"/>
		<path class="st7" d="M328.4,276.2c-1.3,0-1.3,1.9,0,1.9C329.7,278.2,329.7,276.2,328.4,276.2z"/>
		<path class="st7" d="M324.1,281.2c1.3,0,1.3-1.9,0-1.9C322.9,279.3,322.8,281.2,324.1,281.2z"/>
		<path class="st7" d="M320.6,287.7c1.3,0,1.3-1.9,0-1.9C319.4,285.8,319.4,287.7,320.6,287.7z"/>
		<path class="st7" d="M315.9,290.5c-1.3,0-1.3,1.9,0,1.9C317.1,292.5,317.1,290.5,315.9,290.5z"/>
		<path class="st7" d="M310.2,300.5c-1.3,0-1.3,1.9,0,1.9C311.5,302.4,311.5,300.5,310.2,300.5z"/>
		<path class="st7" d="M314.6,306.5c-1.3,0-1.3,1.9,0,1.9C315.8,308.5,315.8,306.5,314.6,306.5z"/>
		<path class="st7" d="M312.8,311.3c-1.3,0-1.3,1.9,0,1.9C314.1,313.3,314.1,311.3,312.8,311.3z"/>
		<path class="st7" d="M318,314.3c-0.1,0-0.3,0-0.4,0c-1.3,0-1.3,1.9,0,1.9c0.1,0,0.3,0,0.4,0C319.3,316.3,319.3,314.3,318,314.3z"
			/>
		<path class="st7" d="M321.1,323.4c-1.3,0-1.3,1.9,0,1.9C322.3,325.4,322.3,323.4,321.1,323.4z"/>
		<path class="st7" d="M327.6,316.9c-1.3,0-1.3,1.9,0,1.9S328.8,316.9,327.6,316.9z"/>
		<path class="st7" d="M324.5,313.9c-1.3,0-1.3,1.9,0,1.9C325.8,315.9,325.8,313.9,324.5,313.9z"/>
		<path class="st7" d="M331,307.4c-1.3,0-1.3,1.9,0,1.9C332.3,309.4,332.3,307.4,331,307.4z"/>
		<path class="st7" d="M325.8,298.7c-1.3,0-1.3,1.9,0,1.9C327.1,300.7,327.1,298.7,325.8,298.7z"/>
		<path class="st7" d="M328.9,291c-1.3,0-1.3,1.9,0,1.9C330.1,292.9,330.1,291,328.9,291z"/>
		<path class="st7" d="M343.2,316.1c-1.3,0-1.3,1.9,0,1.9C344.4,318,344.4,316.1,343.2,316.1z"/>
		<path class="st7" d="M343.6,311.7c-1.3,0-1.3,1.9,0,1.9C344.8,313.7,344.8,311.7,343.6,311.7z"/>
		<path class="st7" d="M338,312.6c-1.3,0-1.3,1.9,0,1.9C339.2,314.6,339.2,312.6,338,312.6z"/>
		<path class="st7" d="M337.4,322.2c0,0.1,0,0.3,0,0.4c0,1.3,1.9,1.3,1.9,0c0-0.1,0-0.3,0-0.4C339.4,321,337.4,321,337.4,322.2z"/>
		<path class="st7" d="M345.8,326c-1.3,0-1.3,1.9,0,1.9C347,328,347,326,345.8,326z"/>
		<path class="st7" d="M349.7,311.3c-1.3,0-1.3,1.9,0,1.9C350.9,313.3,350.9,311.3,349.7,311.3z"/>
		<path class="st7" d="M355.5,308.2c0.1-0.1,0.3-0.3,0.4-0.4c0.9-0.9-0.5-2.3-1.4-1.4c-0.1,0.1-0.3,0.3-0.4,0.4
			C353.3,307.7,354.6,309.1,355.5,308.2z"/>
		<path class="st7" d="M360,312.2c-1.3,0-1.3,1.9,0,1.9C361.3,314.1,361.3,312.2,360,312.2z"/>
		<path class="st7" d="M367,314.8c-1.3,0-1.3,1.9,0,1.9C368.2,316.7,368.2,314.8,367,314.8z"/>
		<path class="st7" d="M370,308.7c-1.3,0-1.3,1.9,0,1.9C371.3,310.7,371.3,308.7,370,308.7z"/>
		<path class="st7" d="M364.7,301.9c0,0.1,0,0.3,0,0.4c0,1.3,1.9,1.3,1.9,0c0-0.1,0-0.3,0-0.4C366.6,300.6,364.7,300.6,364.7,301.9z
			"/>
		<path class="st7" d="M377.4,308.3c-1.3,0-1.3,1.9,0,1.9C378.6,310.2,378.6,308.3,377.4,308.3z"/>
		<path class="st7" d="M381.9,297.3c-0.1-0.1-0.3-0.3-0.4-0.4c-0.9-0.9-2.3,0.5-1.4,1.4c0.1,0.1,0.3,0.3,0.4,0.4
			C381.5,299.6,382.8,298.2,381.9,297.3z"/>
		<path class="st7" d="M390.4,291c-1.3,0-1.3,1.9,0,1.9C391.6,292.9,391.6,291,390.4,291z"/>
		<path class="st7" d="M388.6,294.4c-1.3,0-1.3,1.9,0,1.9C389.9,296.4,389.9,294.4,388.6,294.4z"/>
		<path class="st7" d="M394.7,297.4c-1.3,0-1.3,1.9,0,1.9C395.9,299.4,395.9,297.4,394.7,297.4z"/>
		<path class="st7" d="M397.3,290.1c-1.3,0-1.3,1.9,0,1.9C398.5,292,398.5,290.1,397.3,290.1z"/>
		<path class="st7" d="M396.8,304.8c-1.3,0-1.3,1.9,0,1.9C398.1,306.8,398.1,304.8,396.8,304.8z"/>
		<path class="st7" d="M392.1,305c1.3,0,1.3-1.9,0-1.9C390.8,303.1,390.8,305,392.1,305z"/>
		<path class="st7" d="M392.5,310.4c-1.3,0-1.3,1.9,0,1.9C393.8,312.4,393.8,310.4,392.5,310.4z"/>
		<path class="st7" d="M409,301.8c-1.3,0-1.3,1.9,0,1.9C410.2,303.7,410.2,301.8,409,301.8z"/>
		<path class="st7" d="M415.9,291.4c-1.3,0-1.3,1.9,0,1.9C417.2,293.3,417.2,291.4,415.9,291.4z"/>
		<path class="st7" d="M411.6,288.4c-1.3,0-1.3,1.9,0,1.9C412.8,290.3,412.8,288.4,411.6,288.4z"/>
		<path class="st7" d="M411.1,274.5c-1.3,0-1.3,1.9,0,1.9C412.4,276.4,412.4,274.5,411.1,274.5z"/>
		<path class="st7" d="M405.5,276.9c1.3,0,1.3-1.9,0-1.9C404.3,274.9,404.3,276.9,405.5,276.9z"/>
		<path class="st7" d="M422,267.1c-1.3,0-1.3,1.9,0,1.9C423.2,269.1,423.2,267.1,422,267.1z"/>
		<path class="st7" d="M424.6,274.9c-1.3,0-1.3,1.9,0,1.9C425.8,276.9,425.8,274.9,424.6,274.9z"/>
		<path class="st7" d="M419.4,271.9c-1.3,0-1.3,1.9,0,1.9C420.6,273.8,420.6,271.9,419.4,271.9z"/>
		<path class="st7" d="M428.9,263.2c-1.3,0-1.3,1.9,0,1.9C430.1,265.2,430.1,263.2,428.9,263.2z"/>
		<path class="st7" d="M432.8,254.8c1.3,0,1.3-1.9,0-1.9C431.5,252.8,431.5,254.8,432.8,254.8z"/>
		<path class="st7" d="M440.2,244.2c-1.3,0-1.3,1.9,0,1.9C441.4,246.1,441.4,244.2,440.2,244.2z"/>
		<path class="st7" d="M444.5,249.8c-1.3,0-1.3,1.9,0,1.9C445.7,251.8,445.7,249.8,444.5,249.8z"/>
		<path class="st7" d="M446.2,242.9c-1.3,0-1.3,1.9,0,1.9C447.5,244.8,447.5,242.9,446.2,242.9z"/>
		<path class="st7" d="M454,238.3c1.3,0,1.3-1.9,0-1.9C452.8,236.4,452.8,238.3,454,238.3z"/>
		<path class="st7" d="M459.2,240.3c-1.3,0-1.3,1.9,0,1.9C460.5,242.2,460.5,240.3,459.2,240.3z"/>
		<path class="st7" d="M467.4,236.4c-1.3,0-1.3,1.9,0,1.9C468.7,238.3,468.7,236.4,467.4,236.4z"/>
		<path class="st7" d="M477.4,231.2c-1.3,0-1.3,1.9,0,1.9C478.6,233.1,478.6,231.2,477.4,231.2z"/>
		<path class="st7" d="M475.7,223.8c-1.3,0-1.3,1.9,0,1.9C476.9,225.8,476.9,223.8,475.7,223.8z"/>
		<path class="st7" d="M470.5,219.3c1.3,0,1.3-1.9,0-1.9C469.2,217.3,469.2,219.3,470.5,219.3z"/>
		<path class="st7" d="M473.9,205.7c-1.3,0-1.3,1.9,0,1.9C475.2,207.6,475.2,205.7,473.9,205.7z"/>
		<path class="st7" d="M479.1,202.6c-1.3,0-1.3,1.9,0,1.9C480.4,204.6,480.4,202.6,479.1,202.6z"/>
		<path class="st7" d="M479.1,198.1c1.3,0,1.3-1.9,0-1.9C477.9,196.1,477.9,198.1,479.1,198.1z"/>
		<path class="st7" d="M451.6,255.3c-0.1,0.1-0.3,0.3-0.4,0.4c-0.9,0.9,0.5,2.3,1.4,1.4c0.1-0.1,0.3-0.3,0.4-0.4
			C453.9,255.8,452.5,254.4,451.6,255.3z"/>
		<path class="st7" d="M447.5,260.2c-0.1,0-0.3,0-0.4,0c-1.3,0-1.3,1.9,0,1.9c0.1,0,0.3,0,0.4,0
			C448.8,262.2,448.8,260.2,447.5,260.2z"/>
		<path class="st7" d="M437.2,280.7c0-0.1,0-0.3,0-0.4c0-1.3-1.9-1.3-1.9,0c0,0.1,0,0.3,0,0.4C435.3,281.9,437.2,281.9,437.2,280.7z
			"/>
		<path class="st7" d="M438.4,284.5c-0.1,0-0.3,0-0.4,0c-1.3,0-1.3,1.9,0,1.9c0.1,0,0.3,0,0.4,0
			C439.7,286.4,439.7,284.5,438.4,284.5z"/>
		<path class="st7" d="M433.2,291c-1.3,0-1.3,1.9,0,1.9C434.5,292.9,434.5,291,433.2,291z"/>
		<path class="st7" d="M428.5,289.7c-1.3,0-1.3,1.9,0,1.9C429.7,291.6,429.7,289.7,428.5,289.7z"/>
		<path class="st7" d="M426.7,297.4c-1.3,0-1.3,1.9,0,1.9C428,299.4,428,297.4,426.7,297.4z"/>
		<path class="st7" d="M430.6,301.3c-1.3,0-1.3,1.9,0,1.9C431.9,303.3,431.9,301.3,430.6,301.3z"/>
		<path class="st7" d="M437.6,298.3c-1.3,0-1.3,1.9,0,1.9C438.8,300.3,438.8,298.3,437.6,298.3z"/>
		<path class="st7" d="M401.1,314.4c0,0.1,0,0.3,0,0.4c0,1.3,1.9,1.3,1.9,0c0-0.1,0-0.3,0-0.4C403,313.2,401.1,313.2,401.1,314.4z"
			/>
		<path class="st7" d="M396.8,317.8c-1.3,0-1.3,1.9,0,1.9C398.1,319.7,398.1,317.8,396.8,317.8z"/>
		<path class="st7" d="M391.7,319.5c-1.3,0-1.3,1.9,0,1.9C392.9,321.5,392.9,319.5,391.7,319.5z"/>
		<path class="st7" d="M392.1,328.2c-1.3,0-1.3,1.9,0,1.9C393.3,330.1,393.3,328.2,392.1,328.2z"/>
		<path class="st7" d="M383,315.6c-1.3,0-1.3,1.9,0,1.9C384.2,317.6,384.2,315.6,383,315.6z"/>
		<path class="st7" d="M382.6,329.9c-1.3,0-1.3,1.9,0,1.9C383.8,331.9,383.8,329.9,382.6,329.9z"/>
		<path class="st7" d="M400.3,329.1c-1.3,0-1.3,1.9,0,1.9C401.6,331,401.6,329.1,400.3,329.1z"/>
		<path class="st7" d="M28.6,205c-1.3,0-1.3,1.9,0,1.9C29.8,207,29.8,205,28.6,205z"/>
		<path class="st7" d="M33.8,209.5c-1.3,0-1.3,1.9,0,1.9C35,211.5,35,209.5,33.8,209.5z"/>
		<path class="st7" d="M27,215.7c0,0.2,0,0.4,0,0.6c0,1.3,1.9,1.3,1.9,0c0-0.2,0-0.4,0-0.6C28.9,214.5,27,214.5,27,215.7z"/>
		<path class="st7" d="M15.3,201.4c0,0.2,0,0.4,0,0.6c0,1.3,1.9,1.3,1.9,0c0-0.2,0-0.4,0-0.6C17.2,200.2,15.3,200.2,15.3,201.4z"/>
		<path class="st7" d="M12.3,192.7c-1.3,0-1.3,1.9,0,1.9C13.6,194.6,13.6,192.7,12.3,192.7z"/>
		<path class="st7" d="M14.9,187.5c-1.3,0-1.3,1.9,0,1.9C16.2,189.4,16.2,187.5,14.9,187.5z"/>
		<path class="st7" d="M8.4,184.9c-1.3,0-1.3,1.9,0,1.9C9.7,186.8,9.7,184.9,8.4,184.9z"/>
		<path class="st7" d="M24.7,190.7c-1.3,0-1.3,1.9,0,1.9C25.9,192.7,25.9,190.7,24.7,190.7z"/>
		<path class="st7" d="M31.2,191.4c1.3,0,1.3-1.9,0-1.9C29.9,189.4,29.9,191.4,31.2,191.4z"/>
		<path class="st7" d="M39,192c-1.3,0-1.3,1.9,0,1.9C40.2,194,40.2,192,39,192z"/>
		<path class="st7" d="M48.7,189.4c-1.3,0-1.3,1.9,0,1.9C50,191.4,50,189.4,48.7,189.4z"/>
		<path class="st7" d="M48.7,197.9c-1.3,0-1.3,1.9,0,1.9C50,199.8,50,197.9,48.7,197.9z"/>
		<path class="st7" d="M54.6,196.6c-1.3,0-1.3,1.9,0,1.9C55.8,198.5,55.8,196.6,54.6,196.6z"/>
		<path class="st7" d="M54.6,183.6c1.3,0,1.3-1.9,0-1.9C53.3,181.6,53.3,183.6,54.6,183.6z"/>
		<path class="st7" d="M54.6,172.5c1.3,0,1.3-1.9,0-1.9C53.3,170.6,53.3,172.5,54.6,172.5z"/>
		<path class="st7" d="M61.1,166.7c-1.3,0-1.3,1.9,0,1.9C62.3,168.6,62.3,166.7,61.1,166.7z"/>
		<path class="st7" d="M67.6,158.9c1.3,0,1.3-1.9,0-1.9C66.3,156.9,66.3,158.9,67.6,158.9z"/>
		<path class="st7" d="M61.7,153c1.3,0,1.3-1.9,0-1.9C60.5,151.1,60.4,153,61.7,153z"/>
		<path class="st7" d="M59.8,140.7c1.3,0,1.3-1.9,0-1.9C58.5,138.8,58.5,140.7,59.8,140.7z"/>
		<path class="st7" d="M60.4,126.4c1.3,0,1.3-1.9,0-1.9C59.2,124.5,59.2,126.4,60.4,126.4z"/>
		<path class="st7" d="M70.1,131c1.3,0,1.3-1.9,0-1.9C68.9,129,68.9,131,70.1,131z"/>
		<path class="st7" d="M76.6,106.3c-1.3,0-1.3,1.9,0,1.9C77.9,108.2,77.9,106.3,76.6,106.3z"/>
		<path class="st7" d="M85.1,97.8c-1.3,0-1.3,1.9,0,1.9C86.3,99.8,86.3,97.8,85.1,97.8z"/>
		<path class="st7" d="M90.3,90.7c1.3,0,1.3-1.9,0-1.9C89,88.7,89,90.7,90.3,90.7z"/>
		<path class="st7" d="M84.4,86.1c1.3,0,1.3-1.9,0-1.9C83.2,84.2,83.2,86.1,84.4,86.1z"/>
		<path class="st7" d="M85.7,74.5c1.3,0,1.3-1.9,0-1.9C84.5,72.5,84.5,74.5,85.7,74.5z"/>
		<path class="st7" d="M95.5,73.8c-1.3,0-1.3,1.9,0,1.9C96.7,75.8,96.7,73.8,95.5,73.8z"/>
		<path class="st7" d="M99.4,68.6c-1.3,0-1.3,1.9,0,1.9C100.6,70.6,100.6,68.6,99.4,68.6z"/>
		<path class="st7" d="M105.2,66.7c1.3,0,1.3-1.9,0-1.9C104,64.7,104,66.7,105.2,66.7z"/>
		<path class="st7" d="M98.1,56.3c1.3,0,1.3-1.9,0-1.9C96.8,54.3,96.8,56.3,98.1,56.3z"/>
	</g>
</g>
</svg>
