<?xml version="1.0" encoding="utf-8"?>
<!-- Generator: Adobe Illustrator 25.2.3, SVG Export Plug-In . SVG Version: 6.00 Build 0)  -->
<svg version="1.1" id="Capa_1" xmlns="http://www.w3.org/2000/svg" xmlns:xlink="http://www.w3.org/1999/xlink" x="0px" y="0px"
	 width="218.4px" height="154.5px" viewBox="0 0 218.4 154.5" style="enable-background:new 0 0 218.4 154.5;" xml:space="preserve"
	>
<style type="text/css">
	.st0{fill:#A7A7A7;}
	.st1{fill:#B77132;}
	.st2{fill:#9D492C;}
</style>
<g>
	<path class="st0" d="M139.6,28.2c7.7-2.1,15-7.4,22.5-10.7c-10.1-0.8-2.9-16.7,4.6-17.5c11.4-1.2,12.9,10.9,4.9,16.7
		c5.8-0.6,15.3,6.5,11.4,13.2c-3.4,5.8-15.4,2.6-17.3-3c-11.5,2.2-28.6,5.9-37.4,14.8L139.6,28.2z"/>
	<path class="st1" d="M60.2,48.8C65.1,31,82,18.3,98.8,12c13.6-5.1,28.3,0.6,40.7,6.9c6.7,3.4,10.1,7.4,11.1,15
		c-6.2,2.8-7.4,15.2-11,20.8c-9.5,14.9-27,17.5-43.3,13.9L60.2,48.8z"/>
	<path class="st2" d="M124.9,27.6c7.6,2.5,18.5,13.8,16.1,22.8c-2.9,11.1-24,3.8-31.5,2.7c-6.7-0.9-13.5-1.4-20.2-1.7
		c-4.9-0.2-14.1,3.1-18-1c-4.8-5,1.4-13.7,6.2-16.5C90,26.5,111.1,23.1,124.9,27.6z"/>
	<path class="st1" d="M9.2,70.3c6.1-9.9,14.3-18.8,22.1-21.2c7-2.2,14.9-2.5,22.1-4.8c31.1-10.2,76-23.5,96.4,16.1
		c7.9,15.4,14.6,45.4,3.8,60.9c-8.2,11.8-20.5,22.1-32.7,28.2c-10.1,5.1-24.7,1.7-35.7,1.1c-19.3-0.9-49-2.4-65.6-15.2
		C7,125.7-2.6,108.7,0.6,91C1.7,84.9,4.9,77.4,9.2,70.3z"/>
	<path class="st2" d="M111.5,103.3c0-17.9,25.6-61.1,44.5-36.3c-19.2,8.6-30.5,22.4-44.5,37V103.3z"/>
	<path class="st2" d="M16.7,98.4c-10.5-12.3,13.9-28.1,22-32c4.7-2.2,17-7.6,10.3,2.4C44.7,75.3,39.9,82,34.8,88
		C31.4,92.1,21.4,103.9,16.7,98.4z"/>
	<path class="st2" d="M4.2,108.3c11.4,13.2,14.5,14.3,29.1,20c6.2,2.4,12.6,7.3,19.4,8.2c12.9,1.7,31.4-7.6,40.3-16.5
		c5-5,8.2-11.6,13.1-16.6c0.8,11.3,1.5,15.4,7.9,24.6c4.7,6.8,9.9,12.1,15,18.5c-9.1,10.2-27.3,8.2-39.4,6.8
		c-15.8-1.9-29.8-3-45.4-6.1c-3.6-0.7-11.9-4.8-14.1-3.1c-7.5-6.6-37-27.8-28-40.2c6.1,3.6,6.4,11,12,14.2L4.2,108.3z"/>
	<path class="st0" d="M173.6,68.6c8.1-1.9,14.6-9.2,22.4-10.6c-6.7-4.9-6.6-15,1.8-18.4c8.1-3.2,13.4,7,7.5,12.7
		c6.2,0.3,16.4,7.1,11.9,14.2c-4,6.4-13.9,2.6-17.5-2.6c-7.7,7-20.7,9.9-29.8,15.3L173.6,68.6z"/>
	<path class="st1" d="M171.2,60.8c19,1.5,13.4,31.8,11.1,43.2c-3.2,15.8-10.8,29-23.3,39.3c-10.1,8.3-28.1,14.3-40.5,7.1
		c-15.4-9-17.8-38.8-13.8-54.1c4.5-17.1,22.9-27,38.8-31.6C152.4,62.1,161.8,60.1,171.2,60.8z"/>
</g>
</svg>
