<?xml version="1.0" encoding="utf-8"?>
<!-- Generator: Adobe Illustrator 25.2.3, SVG Export Plug-In . SVG Version: 6.00 Build 0)  -->
<svg version="1.1" id="Capa_1" xmlns="http://www.w3.org/2000/svg" xmlns:xlink="http://www.w3.org/1999/xlink" x="0px" y="0px"
	 width="139.3px" height="121.8px" viewBox="0 0 139.3 121.8" style="enable-background:new 0 0 139.3 121.8;" xml:space="preserve"
	>
<style type="text/css">
	.st0{fill:#4E841F;}
	.st1{fill:#4E7C1D;}
	.st2{fill:#659933;}
	.st3{fill:#467718;}
	.st4{fill:#37600F;}
	.st5{opacity:0.43;}
	.st6{fill:#C7E28A;}
	.st7{fill:#295114;}
	.st8{fill:#7BAA48;}
</style>
<g id="XMLID_2666_">
	<g id="XMLID_2673_">
		<path id="XMLID_2746_" class="st0" d="M1.2,21.7C2.8,28,6.9,34,10.3,38.1c5,5.9,23.9,25,44.6,42.7c8,6.9,16.3,13.5,24.2,19.1
			c31.9,22.7,48.5,26.6,56.6,14.5c1.5-2.3,2.4-4.5,2.7-6.7c1-7.4-4.1-14.8-13.6-22.7c-3.5-3-7.7-6-12.3-9.2
			C89.2,59.9,65.4,39.3,51.2,24.4c-8.3-8.7-16.7-17.6-25-21.6c0,0,0,0,0,0c-0.1,0-0.1-0.1-0.2-0.1c-0.9-0.4-1.8-0.8-2.7-1.1
			c-0.2-0.1-0.5-0.2-0.7-0.2c-1.1-0.3-2.1-0.5-3.2-0.7l0,0c-0.4,0-0.9-0.1-1.3-0.1c0,0,0,0-0.1,0c0,0-0.1,0-0.1,0
			c-0.4,0-0.9,0-1.3,0c-0.1,0-0.1,0-0.2,0c0,0,0,0,0,0c-0.5,0-0.9,0.1-1.4,0.2c-0.6,0.1-1.2,0.3-1.8,0.4c-0.2,0-0.3,0.1-0.5,0.1
			c-0.8,0.3-1.5,0.6-2.3,1c-0.1,0.1-0.2,0.1-0.3,0.2c0,0-0.1,0-0.1,0.1c-0.1,0-0.1,0.1-0.2,0.1C9.3,3,8.9,3.2,8.5,3.5
			C8.4,3.6,8.2,3.7,8.1,3.8C7.9,3.9,7.7,4.1,7.5,4.2C7.1,4.5,6.7,4.8,6.3,5.1c-0.6,0.5-1.1,1-1.6,1.5C4.5,6.9,4.3,7.2,4,7.4
			C3.7,7.8,3.4,8.3,3.1,8.7c-0.4,0.6-0.7,1.1-1,1.7c0,0.1-0.1,0.1-0.1,0.2c-0.3,0.6-0.5,1.2-0.7,1.8C0.4,15.4,0.5,18.6,1.2,21.7z"/>
	</g>
	<path id="XMLID_2744_" class="st1" d="M54.9,80.8c8,6.9,16.3,13.5,24.2,19.1c31.9,22.7,48.5,26.6,56.6,14.5
		c1.5-2.3,2.4-4.5,2.7-6.7c1-7.4-4.1-14.8-13.6-22.7c-3.5,7.2-15.4,19-54.7-7.3C52.5,65.8,49.7,70.2,54.9,80.8z"/>
	<path id="XMLID_2677_" class="st2" d="M132.8,102.1c0,0,2-2.7-8.1-11.4C113.9,81.5,86,64.3,68.3,47.3S28.9,9.9,26.4,16.3
		s19.1,35.9,45.6,56.7S128.9,108.3,132.8,102.1z"/>
	<path id="XMLID_2741_" class="st3" d="M10.3,38.1c6.9,8.2,40.6,41.8,68.8,61.8c31.9,22.7,48.5,26.6,56.6,14.5
		c1.5-2.3,2.4-4.5,2.7-6.7c-3.9-0.5-9.4,12.9-52.3-17.6C44.9,60.7-2,6.7,26.2,2.8c-3.2-1.5-6.4-2.3-9.6-2.1c-0.1,0-0.1,0-0.2,0
		c-0.5,0-0.9,0.1-1.4,0.2c-0.6,0.1-1.2,0.3-1.8,0.4C12.1,1.6,11,2.1,9.9,2.6c-0.1,0-0.1,0.1-0.2,0.1C9.2,3.1,8.6,3.4,8.1,3.8
		C7.9,3.9,7.7,4.1,7.5,4.2C7.1,4.5,6.7,4.8,6.3,5.1C5.5,5.9,4.7,6.6,4,7.4c-0.8,1-1.5,2.1-2,3.2C-2.5,20.1,4.8,31.6,10.3,38.1z"/>
	<path id="XMLID_2748_" class="st4" d="M10.3,38.1c6.9,8.2,40.6,41.8,68.8,61.8c31.9,22.7,48.5,26.6,56.6,14.5
		c1.5-2.3,2.4-4.5,2.7-6.7c-1.5,3.6-8.7,8-19.8,3.3c-33.4-14.1-58.6-33.7-75-49.4C-12.2,8.2,14.8,1.1,14.9,0.9
		c-0.6,0.1-1.2,0.3-1.8,0.4C12.1,1.6,11,2.1,9.9,2.6c-0.1,0-0.1,0.1-0.2,0.1C9.2,3.1,8.6,3.4,8.1,3.8C7.9,3.9,7.7,4.1,7.5,4.2
		C7.1,4.5,6.7,4.8,6.3,5.1C5.5,5.9,4.7,6.6,4,7.4c-0.8,1-1.5,2.1-2,3.2C-2.5,20.1,4.8,31.6,10.3,38.1z"/>
	<g id="XMLID_2725_" class="st5">
		<path id="XMLID_2727_" class="st6" d="M53.7,64.5c0.1,0,0,0.2,0,0.2C53.5,64.6,53.7,64.4,53.7,64.5z"/>
		<polygon id="XMLID_3077_" class="st6" points="52.1,63.1 51.9,62.8 52.1,63 		"/>
		<path id="XMLID_3078_" class="st6" d="M51.5,62.5l0,0.3c-0.3-0.3-0.7-0.7-1-0.8C50.8,61.8,51,62.4,51.5,62.5L51.5,62.5z"/>
		<path id="XMLID_3079_" class="st6" d="M49.4,62.2C49.4,62.2,49.4,62.2,49.4,62.2c-0.1,0-0.1,0-0.2-0.1C49.3,62,49,61.8,49.4,62.2z
			"/>
		<path id="XMLID_3080_" class="st6" d="M49.3,62.2C49.5,62.3,49.2,62.2,49.3,62.2L49.3,62.2z"/>
		<path id="XMLID_3081_" class="st6" d="M48.6,61.6l0.2,0.2c-0.1,0-0.3-0.1-0.3,0C48.3,61.6,48.4,61.6,48.6,61.6z"/>
		<path id="XMLID_3082_" class="st6" d="M48.5,61.2l0.1,0.1C48.6,61.4,48.5,61.3,48.5,61.2z"/>
		<path id="XMLID_3083_" class="st6" d="M48.7,61.5c0-0.1,0,0,0.1,0.1l-0.2-0.3C48.7,61.3,48.7,61.2,48.7,61.5z"/>
		<path id="XMLID_3084_" class="st6" d="M49,61.7c0.2,0,0.4,0.1,0.2-0.2C49.6,61.8,49.4,62,49,61.7z"/>
		<path id="XMLID_3085_" class="st6" d="M50.9,61.9c0-0.1-0.4-0.1-0.3-0.2l0.2,0L50.9,61.9z"/>
		<path id="XMLID_3086_" class="st6" d="M47.1,60.8c0-0.1,0.2-0.1,0.3-0.2l0.1,0.2C47.3,60.8,47.1,60.7,47.1,60.8z"/>
		<path id="XMLID_3087_" class="st6" d="M47.3,60.6l-0.2-0.3C47.4,60.5,47.4,60.5,47.3,60.6z"/>
		<polygon id="XMLID_3088_" class="st6" points="48.9,61.4 48.6,60.8 48.7,60.9 		"/>
		<polygon id="XMLID_3089_" class="st6" points="46.1,60.1 46.2,60.3 46.1,59.9 		"/>
		<path id="XMLID_3090_" class="st6" d="M45,59.3c0.1,0.1,0.3,0.2,0.5,0.3c0,0.2-0.3,0.1-0.2,0.2C45.2,59.7,45.1,59.5,45,59.3z"/>
		<path id="XMLID_3091_" class="st6" d="M45,59.3c-0.1-0.1-0.1-0.2-0.1-0.3C44.9,59.1,45,59.2,45,59.3z"/>
		<path id="XMLID_3092_" class="st6" d="M46.4,60.1l0.2-0.1c0,0,0.1,0,0.1,0.1C46.7,60.1,46.6,60.1,46.4,60.1z"/>
		<path id="XMLID_3093_" class="st6" d="M46.6,60L46.6,60c-0.1-0.1-0.2-0.1-0.2-0.1C46.4,59.9,46.5,59.9,46.6,60z"/>
		<path id="XMLID_3094_" class="st6" d="M46.7,60.1C46.7,60.1,46.7,60.1,46.7,60.1C46.7,60,46.7,60,46.7,60.1z"/>
		<path id="XMLID_3095_" class="st6" d="M48,60.2c0,0.2-0.2,0.1-0.1,0.4C47.8,60.4,47.6,60.1,48,60.2z"/>
		<path id="XMLID_3096_" class="st6" d="M47.2,60.3L47,60l0.3,0.1C47.3,60.1,47.2,60.2,47.2,60.3z"/>
		<polygon id="XMLID_3097_" class="st6" points="46.9,59.8 47,60 46.9,59.9 		"/>
		<path id="XMLID_3098_" class="st6" d="M45.5,59.2c-0.1-0.2-0.2-0.2-0.3-0.4c0.2,0.1,0.3,0.2,0.5,0.3
			C45.6,59.2,45.6,59.3,45.5,59.2z"/>
		<path id="XMLID_3099_" class="st6" d="M46,59.6L46,59.6C46,59.5,46.1,59.6,46,59.6z"/>
		<polygon id="XMLID_3100_" class="st6" points="43.9,57.8 43.8,57.9 43.8,57.8 		"/>
		<path id="XMLID_3101_" class="st6" d="M45.7,59.1c0.1,0,0.2,0.1,0.2,0.2C45.8,59.3,45.7,59.2,45.7,59.1
			C45.6,59.1,45.6,59.1,45.7,59.1z"/>
		<path id="XMLID_3102_" class="st6" d="M44.6,58.7c0.1,0,0.2,0,0.3,0.1C44.7,58.8,44.6,58.7,44.6,58.7z"/>
		<path id="XMLID_3103_" class="st6" d="M45.9,59.6C46,59.6,46,59.6,45.9,59.6C45.9,59.6,45.9,59.6,45.9,59.6z"/>
		<path id="XMLID_3104_" class="st6" d="M45.9,59.6c0-0.1-0.1-0.1-0.1-0.2C45.9,59.4,46,59.5,45.9,59.6C46,59.6,46,59.6,45.9,59.6z"
			/>
		<path id="XMLID_3105_" class="st6" d="M43.8,57.4c0.1,0,0.7,0.2,0.6-0.1c-0.3-0.3-0.3-0.2-0.5-0.2c0.3-0.1-0.2-0.6,0.1-0.8
			l0.2,0.3c0,0,0-0.2,0.1-0.2c-0.1,0.2,0.1,0.5,0.4,0.5c0.2,0.3-0.4,0.7-0.8,0.8C43.9,57.8,44,57.7,43.8,57.4z"/>
		<path id="XMLID_3106_" class="st6" d="M43.9,58.2c-0.1-0.2-0.1-0.3-0.1-0.3l0.5,0.4l0,0l0.1,0.1C44.3,58.2,44.2,58.2,43.9,58.2z"
			/>
		<path id="XMLID_3107_" class="st6" d="M44.8,58.7C44.8,58.7,44.8,58.7,44.8,58.7L44.8,58.7L44.8,58.7
			C44.9,58.7,44.9,58.7,44.8,58.7C44.9,58.7,44.9,58.7,44.8,58.7c0-0.1,0.1-0.1,0.1-0.1C44.7,58.6,44.8,58.7,44.8,58.7
			C44.9,58.7,44.9,58.7,44.8,58.7L44.8,58.7l-0.4-0.5c0.1,0.1,0.2,0.2,0.5,0.4c0-0.2-0.2-0.5,0.1-0.5c0.3,0.2,0.1,0.3,0.2,0.5
			c-0.5-0.4,0.1,0.2-0.3,0c0.1,0.1,0.2,0.2,0.2,0.2C45,58.8,44.9,58.8,44.8,58.7z"/>
		<path id="XMLID_3108_" class="st6" d="M48,59.6C47.9,59.6,47.9,59.6,48,59.6C47.9,59.6,47.9,59.6,48,59.6z"/>
		<path id="XMLID_3109_" class="st6" d="M47.8,59.9L47.8,59.9c-0.2-0.1-0.5-0.1-0.6-0.1c0.1-0.1,0.3-0.2,0.5-0.2
			C47.7,59.6,47.7,59.7,47.8,59.9c0.2-0.1,0.1-0.2,0.1-0.2C48,59.7,48.1,59.9,47.8,59.9z"/>
		<path id="XMLID_3110_" class="st6" d="M47.2,59.8C47.2,59.8,47.2,59.8,47.2,59.8C47.2,59.8,47.2,59.8,47.2,59.8z"/>
		<path id="XMLID_3111_" class="st6" d="M46.3,59.1L46,58.7l0.3,0l-0.1,0.1C46.5,58.9,46.3,59,46.3,59.1z"/>
		<polygon id="XMLID_3112_" class="st6" points="43.6,58.1 43.6,57.7 43.7,57.9 		"/>
		<polygon id="XMLID_3113_" class="st6" points="43,57.4 43.2,57.5 43.1,57.6 		"/>
		<path id="XMLID_3114_" class="st6" d="M20.2,28.5l0-0.2C20.2,28.4,20.2,28.4,20.2,28.5z"/>
		<path id="XMLID_3115_" class="st6" d="M20.8,29.4L20.8,29.4C20.8,29.4,20.8,29.3,20.8,29.4z"/>
		<path id="XMLID_3116_" class="st6" d="M25.6,36.5l-0.3-0.1C25.4,36.4,25.5,36.4,25.6,36.5z"/>
		<path id="XMLID_3117_" class="st6" d="M17.5,23.4l0.1-0.2C17.7,23.4,17.5,23.3,17.5,23.4z"/>
		<path id="XMLID_3118_" class="st6" d="M38.1,53c-0.2-0.1-0.3-0.1-0.4-0.2C37.9,52.8,38.1,52.8,38.1,53z"/>
		<path id="XMLID_3119_" class="st6" d="M41.1,55.8C41.2,55.9,41.1,55.9,41.1,55.8L41.1,55.8z"/>
		<path id="XMLID_3120_" class="st6" d="M42.1,55.5c0,0,0,0.1,0,0.1C42.1,55.6,42.1,55.6,42.1,55.5z"/>
		<path id="XMLID_3121_" class="st6" d="M37.1,50.5L37.1,50.5C37.1,50.5,37.1,50.5,37.1,50.5z"/>
		<path id="XMLID_3122_" class="st6" d="M41.1,55.8c0,0,0.1,0,0.2,0.1C41.2,55.9,41.2,55.9,41.1,55.8z"/>
		<path id="XMLID_3123_" class="st6" d="M41.2,56c0,0,0.1,0,0.1,0.1C41.3,56.1,41.3,56.1,41.2,56z"/>
		<path id="XMLID_3124_" class="st6" d="M41.1,55.8C41.1,55.8,41.1,55.8,41.1,55.8c-0.1,0-0.1-0.1-0.2-0.1
			C41,55.8,41.1,55.8,41.1,55.8z"/>
		<path id="XMLID_3125_" class="st6" d="M12.7,14.8C12.7,14.8,12.7,14.8,12.7,14.8C12.7,14.7,12.7,14.7,12.7,14.8z"/>
		<path id="XMLID_3126_" class="st6" d="M30.4,42.3C30.4,42.3,30.4,42.3,30.4,42.3L30.4,42.3C30.4,42.3,30.4,42.3,30.4,42.3z"/>
		<path id="XMLID_3127_" class="st6" d="M30.2,41.8c-0.1,0.3,0.1,0.4,0.2,0.5l-0.5,0.3L30.2,41.8z"/>
		<path id="XMLID_3128_" class="st6" d="M37.2,52.4c0,0,0.1,0,0.1,0c0.1,0.1,0.2,0.2,0.3,0.3C37.5,52.7,37.3,52.6,37.2,52.4z"/>
		<path id="XMLID_3129_" class="st6" d="M30.8,46.2l0.2-0.1c0.1,0.1,0.2,0.2,0.3,0.2C31,46.3,30.6,46.3,30.8,46.2z"/>
		<path id="XMLID_3130_" class="st6" d="M36.2,48.5c0,0,0.1,0,0.1,0.1C36.3,48.5,36.2,48.5,36.2,48.5C36.2,48.5,36.2,48.5,36.2,48.5
			z"/>
		<path id="XMLID_3131_" class="st6" d="M18.6,30c0-0.1,0-0.2,0-0.2C18.7,29.9,18.7,30,18.6,30z"/>
		<path id="XMLID_3132_" class="st6" d="M25,37.1C25,37.1,25.1,37.1,25,37.1c0.1,0.1,0,0.2,0,0.2C25,37.3,25,37.2,25,37.1z"/>
		<path id="XMLID_3133_" class="st6" d="M25.4,36.6c0-0.1,0-0.1,0.1,0C25.5,36.6,25.4,36.6,25.4,36.6z"/>
		<path id="XMLID_3134_" class="st6" d="M17.4,23.4C17.4,23.4,17.4,23.4,17.4,23.4L17.4,23.4L17.4,23.4z"/>
		<path id="XMLID_3135_" class="st6" d="M41.9,56.6c0.1,0.1,0.2,0.1,0.3,0.1c0,0-0.1,0.1-0.1,0.1L41.9,56.6z"/>
		<path id="XMLID_3136_" class="st6" d="M45.1,57.4c0,0,0.1,0.1,0.1,0.1l-0.1,0.1C44.9,57.4,44.9,57.3,45.1,57.4z"/>
		<path id="XMLID_3137_" class="st6" d="M43.2,56.6c-0.1,0.2-0.2,0-0.4-0.2C43,56.3,43.1,56.5,43.2,56.6
			C43.2,56.6,43.2,56.6,43.2,56.6z"/>
		<path id="XMLID_3138_" class="st6" d="M43.2,56.7c0,0,0.1,0.1,0.2,0.1C43.4,56.9,43.3,56.8,43.2,56.7z"/>
		<path id="XMLID_3139_" class="st6" d="M40.8,55.6c-0.1,0.3-0.3-0.7,0-0.2C40.9,55.4,40.7,55.6,40.8,55.6z"/>
		<polygon id="XMLID_3140_" class="st6" points="43.3,56.1 43.1,56.2 43.2,56 		"/>
		<path id="XMLID_3141_" class="st6" d="M42,55.1l0.3,0.2c0,0,0,0.1,0,0.1C42.1,55.3,41.9,55.2,42,55.1z"/>
		<path id="XMLID_3142_" class="st6" d="M42.3,55.4c0.1,0.1,0.2,0.1,0.2,0.2C42.4,55.6,42.3,55.5,42.3,55.4z"/>
		<polygon id="XMLID_3143_" class="st6" points="42.7,55.6 43,55.7 42.9,55.7 		"/>
		<path id="XMLID_3144_" class="st6" d="M38.9,52.5c0-0.1,0.1-0.1,0.2,0.1c0,0.1,0.1,0.2,0,0.2L38.9,52.5z"/>
		<path id="XMLID_3145_" class="st6" d="M40.4,53c-0.1,0-0.1,0-0.2,0l0.2-0.2L40.4,53z"/>
		<path id="XMLID_3146_" class="st6" d="M39.7,52.3c0-0.1-0.2-0.5,0.1-0.2C39.7,52.2,40,52.5,39.7,52.3z"/>
		<polygon id="XMLID_3147_" class="st6" points="35.4,48.8 35.5,48.8 35.1,49.1 		"/>
		<path id="XMLID_3148_" class="st6" d="M33,44.9c0,0.2-0.3-0.2-0.3,0c-0.1-0.3-0.2-0.3,0.1-0.5C33.2,44.7,32.7,44.7,33,44.9z"/>
		<path id="XMLID_3149_" class="st6" d="M32.7,44.9c0,0,0,0.1,0,0.1C32.8,45,32.7,44.9,32.7,44.9z"/>
		<path id="XMLID_3150_" class="st6" d="M22.5,31L22.5,31c-0.1,0.1-0.2,0-0.3-0.1L22.5,31z"/>
		<polygon id="XMLID_3151_" class="st6" points="20.3,28 20.3,28.1 20,28.1 		"/>
		<path id="XMLID_3152_" class="st6" d="M19,25.1c0.1,0.1,0.1,0.3,0.2,0.4C19,25.2,18.6,25.3,19,25.1z"/>
		<path id="XMLID_3153_" class="st6" d="M64.3,80.7c0.2,0.1,0,0.2,0,0.3C64.1,80.8,64.3,80.7,64.3,80.7z"/>
		<polygon id="XMLID_3154_" class="st6" points="62,79.1 61.8,78.7 62,79 		"/>
		<path id="XMLID_3155_" class="st6" d="M61,78.3l0.1,0l0,0.3c-0.5-0.3-1-0.8-1.4-1C60.2,77.5,60.6,78.2,61,78.3z"/>
		<path id="XMLID_3156_" class="st6" d="M58.5,77.7C58.5,77.7,58.5,77.7,58.5,77.7c-0.1,0-0.2-0.1-0.3-0.1
			C58.4,77.5,58,77.3,58.5,77.7z"/>
		<path id="XMLID_3157_" class="st6" d="M58.5,77.7C58.7,77.9,58.2,77.7,58.5,77.7L58.5,77.7z"/>
		<path id="XMLID_3158_" class="st6" d="M57.4,77l0.2,0.3c-0.1,0-0.4-0.1-0.3,0C57.1,77,57.2,77,57.4,77z"/>
		<path id="XMLID_3159_" class="st6" d="M57.3,76.6l0.1,0.1C57.3,76.8,57.3,76.8,57.3,76.6z"/>
		<path id="XMLID_3160_" class="st6" d="M57.5,76.9c0-0.1,0,0,0.1,0.2l-0.3-0.3C57.5,76.7,57.5,76.7,57.5,76.9z"/>
		<path id="XMLID_3161_" class="st6" d="M58.1,77c0.6,0.4,0.4,0.5-0.2,0.1C58.1,77.2,58.3,77.3,58.1,77z"/>
		<path id="XMLID_3162_" class="st6" d="M60.3,77.6c-0.1-0.1-0.5-0.2-0.4-0.3l0.3,0.1L60.3,77.6z"/>
		<path id="XMLID_3163_" class="st6" d="M55.4,75.9c0-0.1,0.2-0.1,0.3-0.2l0.2,0.2C55.7,76,55.5,75.9,55.4,75.9z"/>
		<path id="XMLID_3164_" class="st6" d="M55.7,75.8l-0.3-0.3C55.7,75.6,55.8,75.7,55.7,75.8z"/>
		<polygon id="XMLID_3165_" class="st6" points="57.8,76.8 57.3,76.2 57.4,76.3 		"/>
		<polygon id="XMLID_3166_" class="st6" points="54.2,75.4 54,74.9 54.1,75.1 		"/>
		<path id="XMLID_3167_" class="st6" d="M53.1,74.7c-0.2-0.2-0.3-0.4-0.5-0.6c0.1,0.2,0.4,0.3,0.7,0.4C53.4,74.7,53,74.6,53.1,74.7z
			"/>
		<path id="XMLID_3168_" class="st6" d="M52.6,74.1c-0.1-0.1-0.2-0.2-0.2-0.3C52.5,73.9,52.6,74,52.6,74.1z"/>
		<path id="XMLID_3169_" class="st6" d="M54.5,75.1l0.2-0.1c0,0,0.1,0.1,0.1,0.1C54.8,75.1,54.7,75.2,54.5,75.1z"/>
		<path id="XMLID_3170_" class="st6" d="M54.7,75L54.7,75c-0.2-0.1-0.3-0.1-0.3-0.2C54.5,74.9,54.6,74.9,54.7,75z"/>
		<path id="XMLID_3171_" class="st6" d="M54.9,75.1C54.9,75.1,54.9,75.1,54.9,75.1C54.9,75.1,54.9,75.1,54.9,75.1z"/>
		<path id="XMLID_3172_" class="st6" d="M56.4,75.4c0.1,0.2-0.2,0.1,0,0.5C56.3,75.6,55.9,75.3,56.4,75.4z"/>
		<path id="XMLID_3173_" class="st6" d="M55.5,75.4L55.2,75l0.4,0.2C55.5,75.3,55.4,75.3,55.5,75.4z"/>
		<polygon id="XMLID_3174_" class="st6" points="55,75 55,74.9 55.2,75 		"/>
		<path id="XMLID_3175_" class="st6" d="M53.1,74.1c-0.1-0.2-0.3-0.3-0.4-0.4c0.2,0.1,0.4,0.2,0.6,0.4
			C53.3,74.1,53.4,74.2,53.1,74.1z"/>
		<path id="XMLID_3176_" class="st6" d="M53.9,74.5C53.9,74.5,53.9,74.5,53.9,74.5C53.9,74.5,53.9,74.5,53.9,74.5z"/>
		<polygon id="XMLID_3177_" class="st6" points="50.9,72.4 50.9,72.3 50.9,72.4 		"/>
		<path id="XMLID_3178_" class="st6" d="M53.4,74c0.2,0.1,0.2,0.2,0.3,0.3C53.6,74.2,53.5,74.1,53.4,74C53.3,74,53.4,73.9,53.4,74z"
			/>
		<path id="XMLID_3179_" class="st6" d="M52,73.4c0.1,0,0.2,0.1,0.3,0.1C52.2,73.5,52,73.4,52,73.4z"/>
		<path id="XMLID_3180_" class="st6" d="M53.8,74.5L53.8,74.5C53.8,74.5,53.8,74.5,53.8,74.5z"/>
		<path id="XMLID_3181_" class="st6" d="M53.8,74.5c-0.1-0.1-0.1-0.2-0.1-0.2C53.8,74.3,53.8,74.4,53.8,74.5
			C53.9,74.5,53.8,74.5,53.8,74.5z"/>
		<path id="XMLID_3182_" class="st6" d="M51,71.1c0,0-0.1-0.2,0.1-0.2c-0.1,0.2,0.2,0.6,0.7,0.7c0.2,0.3-0.3,0.7-0.8,0.8
			c0-0.1,0.1-0.1-0.2-0.5c0.2,0,0.9,0.3,0.7,0c-0.4-0.4-0.4-0.2-0.7-0.3c0.3-0.1-0.4-0.7-0.1-0.9L51,71.1z"/>
		<path id="XMLID_3183_" class="st6" d="M51.6,72.8l0.1,0.1c-0.2-0.1-0.3-0.1-0.6-0.1c-0.2-0.2-0.2-0.3-0.2-0.4L51.6,72.8L51.6,72.8
			z"/>
		<path id="XMLID_3184_" class="st6" d="M52.4,72.8c0.4,0.3,0.2,0.3,0.4,0.6c-0.6-0.5,0.1,0.2-0.4,0c0.1,0.1,0.2,0.2,0.3,0.3
			c-0.1-0.1-0.3-0.1-0.4-0.2c0,0,0,0,0,0l0,0l0,0c0,0,0.1,0,0,0c0,0,0,0,0,0c0,0,0-0.1,0-0.1c-0.2-0.1-0.1,0,0,0.1c0,0,0,0,0,0l0,0
			l-0.6-0.6c0.2,0.1,0.3,0.2,0.6,0.4C52.4,73.1,52.1,72.8,52.4,72.8z"/>
		<path id="XMLID_3185_" class="st6" d="M56.3,74.8C56.3,74.8,56.3,74.8,56.3,74.8C56.2,74.8,56.2,74.7,56.3,74.8z"/>
		<path id="XMLID_3186_" class="st6" d="M55.4,74.9C55.4,74.9,55.4,74.9,55.4,74.9C55.4,74.9,55.4,74.9,55.4,74.9z"/>
		<path id="XMLID_3187_" class="st6" d="M55.4,74.9c0.2-0.1,0.3-0.1,0.6-0.2c0,0.1,0,0.2,0.2,0.2c0.2,0,0.1-0.1,0.1-0.1
			c0.1,0.1,0.3,0.3-0.1,0.2l0-0.1C55.9,74.9,55.5,74.9,55.4,74.9z"/>
		<path id="XMLID_3188_" class="st6" d="M53.7,73.5l0.4,0L54,73.7c0.3,0.2,0.2,0.2,0.2,0.3L53.7,73.5z"/>
		<polygon id="XMLID_3189_" class="st6" points="50.7,72.6 50.6,72.1 50.8,72.4 		"/>
		<polygon id="XMLID_3190_" class="st6" points="50,72 49.9,71.8 50.1,71.9 		"/>
		<path id="XMLID_3191_" class="st6" d="M16.4,35.6c0,0.1,0.1,0.1,0.1,0.2L16.4,35.6z"/>
		<path id="XMLID_3192_" class="st6" d="M17.3,36.9L17.3,36.9C17.3,36.9,17.3,36.9,17.3,36.9z"/>
		<path id="XMLID_3193_" class="st6" d="M33.1,57.7c0.1,0.2,0.3,0.3,0.4,0.3c-0.3-0.1-0.7-0.1-0.6-0.2L33.1,57.7z"/>
		<path id="XMLID_3194_" class="st6" d="M24.1,46.9c0-0.1-0.1-0.2-0.1-0.3c0,0,0.1,0,0.1,0C24.1,46.7,24.1,46.8,24.1,46.9z"/>
		<path id="XMLID_3195_" class="st6" d="M24.5,45.9l-0.4-0.2C24.2,45.7,24.3,45.8,24.5,45.9z"/>
		<path id="XMLID_3196_" class="st6" d="M12.2,29.4l0-0.3C12.4,29.4,12.2,29.3,12.2,29.4z"/>
		<path id="XMLID_3197_" class="st6" d="M43,66.3c-0.2-0.1-0.4-0.2-0.6-0.3C42.7,66.1,43,66.1,43,66.3z"/>
		<path id="XMLID_3198_" class="st6" d="M42.4,66c-0.2-0.1-0.5-0.2-0.6-0.5c0,0,0.1,0,0.1,0C42.1,65.7,42.2,65.8,42.4,66z"/>
		<path id="XMLID_3199_" class="st6" d="M47.2,69.8C47.3,69.9,47.2,69.8,47.2,69.8L47.2,69.8z"/>
		<path id="XMLID_3200_" class="st6" d="M48.4,69.6c0,0,0,0.1,0,0.1C48.4,69.7,48.3,69.6,48.4,69.6z"/>
		<path id="XMLID_3201_" class="st6" d="M47.2,69.8c0,0,0.1,0,0.2,0.1C47.4,69.9,47.3,69.8,47.2,69.8z"/>
		<path id="XMLID_3202_" class="st6" d="M47.2,69.8c0,0-0.1-0.1-0.2-0.2C47,69.7,47.1,69.8,47.2,69.8C47.2,69.8,47.2,69.8,47.2,69.8
			z"/>
		<path id="XMLID_3203_" class="st6" d="M5.1,18.4C5.1,18.2,5.1,18.2,5.1,18.4C5.1,18.4,5.1,18.4,5.1,18.4z"/>
		<path id="XMLID_3204_" class="st6" d="M31.1,52.5c0,0.4,0.2,0.5,0.3,0.6l-0.6,0.3L31.1,52.5z"/>
		<path id="XMLID_3205_" class="st6" d="M39.7,61c0,0,0.1,0,0.2,0.1C39.8,61,39.7,61,39.7,61C39.7,60.9,39.7,60.9,39.7,61z"/>
		<path id="XMLID_3206_" class="st6" d="M31.4,53.1C31.5,53.1,31.5,53.1,31.4,53.1C31.4,53.1,31.4,53.1,31.4,53.1L31.4,53.1z"/>
		<path id="XMLID_3207_" class="st6" d="M15.1,37.6c0-0.1,0-0.2,0-0.2C15.1,37.5,15.1,37.5,15.1,37.6z"/>
		<path id="XMLID_3208_" class="st6" d="M24.4,46c-0.1,0-0.1,0-0.1,0C24.3,45.9,24.3,45.9,24.4,46z"/>
		<path id="XMLID_3209_" class="st6" d="M12.1,29.4C12.1,29.4,12.1,29.4,12.1,29.4L12.1,29.4L12.1,29.4z"/>
		<path id="XMLID_3210_" class="st6" d="M48.7,71.1l-0.3-0.3c0.1,0.1,0.2,0.1,0.3,0.2C48.7,71,48.6,71,48.7,71.1z"/>
		<path id="XMLID_3211_" class="st6" d="M52.3,72c0,0.1,0.1,0.1,0.1,0.1l-0.1,0.1C52.2,72,52.1,71.9,52.3,72z"/>
		<path id="XMLID_3212_" class="st6" d="M49.9,70.9c-0.1,0.3-0.3,0-0.5-0.2C49.5,70.5,49.7,70.7,49.9,70.9
			C49.9,70.9,49.9,70.9,49.9,70.9z"/>
		<path id="XMLID_3213_" class="st6" d="M50,71c0.1,0.1,0.1,0.1,0.2,0.2C50.1,71.2,50.1,71.1,50,71z"/>
		<path id="XMLID_3214_" class="st6" d="M46.8,69.3c0.1,0-0.1,0.2,0,0.2C46.8,69.8,46.3,68.8,46.8,69.3z"/>
		<polygon id="XMLID_3215_" class="st6" points="49.7,70.4 49.7,70.2 50,70.3 		"/>
		<path id="XMLID_3216_" class="st6" d="M48.5,69.5c-0.2-0.2-0.5-0.3-0.4-0.4l0.4,0.2C48.4,69.4,48.5,69.4,48.5,69.5z"/>
		<path id="XMLID_3217_" class="st6" d="M48.5,69.5c0.1,0.1,0.2,0.2,0.3,0.2C48.7,69.7,48.6,69.6,48.5,69.5z"/>
		<polygon id="XMLID_3218_" class="st6" points="49.1,69.7 49.5,69.9 49.4,69.8 		"/>
		<path id="XMLID_3219_" class="st6" d="M43.9,65.8c0-0.1,0.1,0,0.3,0.1c0.1,0.1,0.2,0.3,0.1,0.3L43.9,65.8z"/>
		<path id="XMLID_3220_" class="st6" d="M45.7,66.3l0.1,0.2c-0.1,0-0.2,0-0.3,0L45.7,66.3z"/>
		<path id="XMLID_3221_" class="st6" d="M44.7,65.6c0-0.1-0.4-0.6,0.1-0.2C44.8,65.5,45.1,65.9,44.7,65.6z"/>
		<polygon id="XMLID_3222_" class="st6" points="38.9,61.2 38.6,61.6 38.8,61.1 		"/>
		<path id="XMLID_3223_" class="st6" d="M35.2,56.5c0,0.2-0.4-0.2-0.4,0c-0.2-0.3-0.4-0.4,0-0.5C35.3,56.2,34.7,56.2,35.2,56.5z"/>
		<path id="XMLID_3224_" class="st6" d="M34.8,56.4c0,0.1,0.1,0.1,0.1,0.2C34.8,56.5,34.8,56.5,34.8,56.4z"/>
		<path id="XMLID_3225_" class="st6" d="M19.4,39l0.3,0.1l0,0.1C19.5,39.2,19.5,39.1,19.4,39z"/>
		<polygon id="XMLID_3226_" class="st6" points="16.4,35.3 16.5,35.3 16.2,35.4 		"/>
		<path id="XMLID_3227_" class="st6" d="M14.2,31.6c0.1,0.1,0.2,0.3,0.3,0.5C14.3,31.8,13.9,31.8,14.2,31.6z"/>
		<path id="XMLID_3228_" class="st6" d="M63.6,44.8c-0.1-0.1,0.1-0.2,0.1-0.2C63.8,44.7,63.6,44.8,63.6,44.8z"/>
		<polygon id="XMLID_3229_" class="st6" points="62.8,43 62.9,43.2 62.8,43.3 		"/>
		<path id="XMLID_3230_" class="st6" d="M61.7,42.2c0.3-0.1,0.4,0.4,0.6,0.5l0.1,0l-0.1,0.3C62.2,42.7,62,42.3,61.7,42.2z"/>
		<path id="XMLID_3231_" class="st6" d="M60.7,42.1c0.1-0.1-0.1-0.2,0.2,0.1c0,0,0,0,0,0C60.8,42.2,60.7,42.2,60.7,42.1z"/>
		<path id="XMLID_3232_" class="st6" d="M60.8,42.2C60.9,42.4,60.6,42.3,60.8,42.2L60.8,42.2z"/>
		<path id="XMLID_3233_" class="st6" d="M60.4,41.9c-0.1,0-0.2-0.1-0.2,0c-0.1-0.2,0-0.2,0.1-0.2L60.4,41.9z"/>
		<path id="XMLID_3234_" class="st6" d="M60.3,41.4l0,0.1C60.3,41.5,60.3,41.5,60.3,41.4z"/>
		<path id="XMLID_3235_" class="st6" d="M60.4,41.6c0.1-0.1,0,0,0,0.1L60.4,41.6C60.4,41.5,60.5,41.4,60.4,41.6z"/>
		<path id="XMLID_3236_" class="st6" d="M60.6,41.8c0.1,0,0.3,0.1,0.2-0.1C61.1,41.9,60.8,42.1,60.6,41.8z"/>
		<path id="XMLID_3237_" class="st6" d="M61.9,41.9l0.2,0l0,0.2C62.1,42,61.8,41.9,61.9,41.9z"/>
		<path id="XMLID_3238_" class="st6" d="M59.2,40.9c0-0.1,0.2-0.1,0.3-0.1l0.1,0.2C59.4,40.9,59.3,40.9,59.2,40.9z"/>
		<path id="XMLID_3239_" class="st6" d="M59.5,40.8l-0.1-0.2C59.5,40.7,59.5,40.7,59.5,40.8z"/>
		<polygon id="XMLID_3240_" class="st6" points="60.5,41.1 60.6,41.5 60.5,41 		"/>
		<polygon id="XMLID_3241_" class="st6" points="58.5,40.5 58.5,40.2 58.6,40.3 		"/>
		<path id="XMLID_3242_" class="st6" d="M58.1,39.9c0,0.2-0.3,0.1-0.2,0.2c-0.1-0.1-0.1-0.3-0.1-0.5C57.8,39.8,57.9,39.9,58.1,39.9z
			"/>
		<path id="XMLID_3243_" class="st6" d="M57.8,39.7c0-0.1,0-0.1,0-0.3C57.7,39.5,57.8,39.6,57.8,39.7z"/>
		<path id="XMLID_3244_" class="st6" d="M59,40.2C59,40.2,59,40.3,59,40.2c0,0.1-0.1,0.1-0.2,0.1L59,40.2z"/>
		<path id="XMLID_3245_" class="st6" d="M59,40.2L59,40.2c-0.1-0.1-0.1-0.1-0.2-0.1C58.9,40.1,58.9,40.2,59,40.2z"/>
		<path id="XMLID_3246_" class="st6" d="M59.1,40.3L59.1,40.3C59.1,40.3,59.1,40.3,59.1,40.3z"/>
		<path id="XMLID_3247_" class="st6" d="M60.1,40.4c0,0.2-0.2,0.1-0.2,0.4C59.9,40.6,59.8,40.3,60.1,40.4z"/>
		<path id="XMLID_3248_" class="st6" d="M59.4,40.5l-0.1-0.3l0.2,0.1C59.5,40.4,59.4,40.4,59.4,40.5z"/>
		<polygon id="XMLID_3249_" class="st6" points="59.3,40.1 59.3,40.2 59.3,40.1 		"/>
		<path id="XMLID_3250_" class="st6" d="M58.2,39.6c0-0.1-0.1-0.2-0.2-0.3c0.1,0.1,0.3,0.2,0.4,0.2C58.3,39.5,58.3,39.7,58.2,39.6z"
			/>
		<path id="XMLID_3251_" class="st6" d="M58.6,39.9L58.6,39.9C58.6,39.8,58.6,39.8,58.6,39.9z"/>
		<polygon id="XMLID_3252_" class="st6" points="57.1,38.3 57,38.4 57,38.4 		"/>
		<path id="XMLID_3253_" class="st6" d="M58.4,39.5c0.1,0,0.1,0.1,0.1,0.2C58.4,39.6,58.4,39.5,58.4,39.5
			C58.3,39.5,58.4,39.4,58.4,39.5z"/>
		<path id="XMLID_3254_" class="st6" d="M57.5,39.1c0.1,0,0.1,0,0.2,0C57.6,39.1,57.5,39.1,57.5,39.1z"/>
		<path id="XMLID_3255_" class="st6" d="M58.5,39.9C58.5,39.9,58.5,39.9,58.5,39.9C58.5,39.9,58.5,39.9,58.5,39.9z"/>
		<path id="XMLID_3256_" class="st6" d="M58.5,39.9c0-0.1,0-0.1,0-0.2C58.5,39.7,58.6,39.8,58.5,39.9C58.6,39.8,58.5,39.9,58.5,39.9
			z"/>
		<path id="XMLID_3257_" class="st6" d="M57.1,38c0.1,0,0.6,0.2,0.5-0.1c-0.2-0.3-0.2-0.1-0.4-0.2c0.3-0.1-0.1-0.5,0.2-0.7l0.1,0.3
			c0,0,0-0.2,0.1-0.1c-0.1,0.1,0,0.5,0.3,0.5c0.1,0.3-0.4,0.6-0.8,0.7C57.1,38.3,57.2,38.2,57.1,38z"/>
		<path id="XMLID_3258_" class="st6" d="M57,38.7c-0.1-0.2,0-0.3,0-0.3l0.4,0.3l0,0l0.1,0.1C57.4,38.7,57.3,38.7,57,38.7z"/>
		<path id="XMLID_3259_" class="st6" d="M57.7,39.1L57.7,39.1L57.7,39.1C57.8,39.1,57.8,39.1,57.7,39.1
			C57.8,39.1,57.8,39.1,57.7,39.1C57.8,39.1,57.8,39.1,57.7,39.1C57.7,39,57.8,39.1,57.7,39.1C57.8,39.1,57.8,39.1,57.7,39.1
			L57.7,39.1l-0.3-0.4C57.6,38.8,57.7,38.9,57.7,39.1c0.1-0.3,0-0.5,0.3-0.6c0.2,0.2,0,0.3,0.1,0.4c-0.3-0.4,0,0.2-0.3,0
			c0,0.1,0.1,0.2,0.2,0.2C57.9,39.2,57.8,39.2,57.7,39.1L57.7,39.1z"/>
		<path id="XMLID_3260_" class="st6" d="M60.2,39.9C60.2,39.9,60.2,39.9,60.2,39.9C60.2,39.9,60.2,39.9,60.2,39.9z"/>
		<path id="XMLID_3261_" class="st6" d="M59.6,40C59.5,40.1,59.5,40.1,59.6,40C59.5,40.1,59.5,40.1,59.6,40z"/>
		<path id="XMLID_3262_" class="st6" d="M60.1,40.1L60.1,40.1C59.9,40,59.6,40,59.6,40c0.1-0.1,0.3-0.1,0.5-0.2
			C60,39.9,60,40,60.1,40.1c0.1-0.1,0.1-0.1,0.1-0.2C60.2,40,60.3,40.2,60.1,40.1z"/>
		<path id="XMLID_3263_" class="st6" d="M58.7,39.1l0.3,0l-0.1,0.1c0.2,0.1,0.1,0.2,0,0.3L58.7,39.1z"/>
		<polygon id="XMLID_3264_" class="st6" points="56.9,38.2 56.9,38.4 56.8,38.6 		"/>
		<polygon id="XMLID_3265_" class="st6" points="56.4,38.2 56.4,38 56.6,38 		"/>
		<path id="XMLID_3266_" class="st6" d="M38,16.7L38,16.7C37.9,16.7,38,16.7,38,16.7z"/>
		<path id="XMLID_3267_" class="st6" d="M42,22.4C42,22.4,42.1,22.4,42,22.4c0.1,0.1,0,0.1,0,0.2C42,22.5,42,22.5,42,22.4z"/>
		<path id="XMLID_3268_" class="st6" d="M42.5,21.7l-0.3-0.1C42.3,21.7,42.4,21.7,42.5,21.7z"/>
		<path id="XMLID_3269_" class="st6" d="M34.5,12.3c0.1,0.2,0,0.2-0.1,0.2L34.5,12.3z"/>
		<path id="XMLID_3270_" class="st6" d="M52.7,34.4c-0.2,0-0.3-0.1-0.4-0.2C52.6,34.3,52.8,34.2,52.7,34.4z"/>
		<path id="XMLID_3271_" class="st6" d="M36.1,17.7c0,0.1,0,0.1,0,0.2C36,17.7,36,17.7,36.1,17.7z"/>
		<path id="XMLID_3272_" class="st6" d="M55,36.7C55.1,36.8,55,36.7,55,36.7L55,36.7z"/>
		<path id="XMLID_3273_" class="st6" d="M56,36.4c0,0,0,0.1,0,0.1C55.9,36.4,55.9,36.4,56,36.4z"/>
		<path id="XMLID_3274_" class="st6" d="M52.2,32.3C52.2,32.2,52.2,32.2,52.2,32.3L52.2,32.3z"/>
		<path id="XMLID_3275_" class="st6" d="M55,36.7c0,0,0.1,0,0.1,0.1C55.1,36.7,55.1,36.7,55,36.7z"/>
		<path id="XMLID_3276_" class="st6" d="M55.1,36.8C55.1,36.8,55.1,36.8,55.1,36.8C55.2,36.9,55.1,36.9,55.1,36.8z"/>
		<path id="XMLID_3277_" class="st6" d="M55,36.7C55,36.7,55,36.7,55,36.7c-0.1,0-0.1-0.1-0.1-0.1C54.9,36.6,55,36.6,55,36.7z"/>
		<path id="XMLID_3278_" class="st6" d="M29,7.1C29,7,29,7,29,7.1C29,7.1,29,7.1,29,7.1z"/>
		<path id="XMLID_3279_" class="st6" d="M46.6,25.5c-0.1,0.3,0,0.3,0.2,0.4l-0.5,0.3L46.6,25.5z"/>
		<path id="XMLID_3280_" class="st6" d="M42.5,21.8c0,0-0.1,0-0.1,0.1l0,0C42.4,21.8,42.4,21.8,42.5,21.8z"/>
		<path id="XMLID_3281_" class="st6" d="M46.8,25.8C46.8,25.9,46.8,25.9,46.8,25.8L46.8,25.8L46.8,25.8z"/>
		<path id="XMLID_3282_" class="st6" d="M46.9,29.3l0.2-0.1c0.1,0.1,0.1,0.2,0.2,0.2C47.1,29.3,46.8,29.4,46.9,29.3z"/>
		<path id="XMLID_3283_" class="st6" d="M44.7,24.3c0,0,0,0.1,0.1,0.1C44.8,24.4,44.7,24.4,44.7,24.3z"/>
		<path id="XMLID_3284_" class="st6" d="M34.5,12.6C34.5,12.6,34.5,12.6,34.5,12.6L34.5,12.6L34.5,12.6z"/>
		<path id="XMLID_3285_" class="st6" d="M51.7,30.6c-0.1,0-0.1,0-0.2,0C51.5,30.5,51.6,30.5,51.7,30.6z"/>
		<path id="XMLID_3286_" class="st6" d="M55.6,37.3c0.1,0.1,0.1,0.1,0.2,0.1c0,0-0.1,0.1-0.1,0.1L55.6,37.3z"/>
		<path id="XMLID_3287_" class="st6" d="M58.2,37.9C58.2,37.9,58.2,37.9,58.2,37.9l0,0.2C58.1,38,58.1,37.8,58.2,37.9z"/>
		<path id="XMLID_3288_" class="st6" d="M56.4,37.1c0.1-0.1,0.2,0,0.3,0.2c0,0,0,0,0,0C56.5,37.5,56.5,37.3,56.4,37.1z"/>
		<path id="XMLID_3289_" class="st6" d="M56.7,37.3c0,0,0.1,0.1,0.1,0.1C56.8,37.5,56.8,37.4,56.7,37.3z"/>
		<path id="XMLID_3290_" class="st6" d="M54.8,36.5c-0.1,0.2-0.2-0.6,0-0.2C54.9,36.3,54.7,36.5,54.8,36.5z"/>
		<polygon id="XMLID_3291_" class="st6" points="56.8,36.7 56.9,36.8 56.7,36.9 		"/>
		<path id="XMLID_3292_" class="st6" d="M55.9,36l0.2,0.1c0,0,0,0.1,0,0.1C56,36.1,55.8,36,55.9,36z"/>
		<path id="XMLID_3293_" class="st6" d="M56.2,36.4c0,0-0.1-0.1-0.1-0.2C56.2,36.3,56.2,36.3,56.2,36.4z"/>
		<polygon id="XMLID_3294_" class="st6" points="56.5,36.3 56.7,36.5 56.6,36.4 		"/>
		<path id="XMLID_3295_" class="st6" d="M53.6,33.8c0-0.1,0.1-0.1,0.2,0c0,0.1,0.1,0.2,0,0.2L53.6,33.8z"/>
		<path id="XMLID_3296_" class="st6" d="M54.8,34l0,0.2c-0.1,0-0.1,0-0.2,0L54.8,34z"/>
		<path id="XMLID_3297_" class="st6" d="M54.3,33.6c0-0.1-0.1-0.5,0.1-0.2C54.3,33.5,54.5,33.7,54.3,33.6z"/>
		<polygon id="XMLID_3298_" class="st6" points="50.9,30.9 50.5,31.3 50.8,30.9 		"/>
		<path id="XMLID_3299_" class="st6" d="M49,27.8c0,0.1-0.3-0.1-0.3,0c-0.1-0.2-0.2-0.3,0.1-0.4C49.2,27.6,48.7,27.7,49,27.8z"/>
		<path id="XMLID_3300_" class="st6" d="M48.7,27.8c0,0,0,0.1,0,0.1C48.7,27.9,48.7,27.8,48.7,27.8z"/>
		<path id="XMLID_3301_" class="st6" d="M39.4,17.7l0.2,0l0,0.1C39.5,17.8,39.5,17.8,39.4,17.7z"/>
		<polygon id="XMLID_3302_" class="st6" points="37.4,15.7 37.5,15.7 37.2,15.8 		"/>
		<path id="XMLID_3303_" class="st6" d="M36,13.6c0.1,0.1,0.1,0.2,0.2,0.3C36.1,13.7,35.7,13.8,36,13.6z"/>
		<path id="XMLID_3304_" class="st6" d="M63.9,68c-0.1-0.2,0.1-0.3,0.1-0.2C64.1,67.8,63.9,67.9,63.9,68z"/>
		<polygon id="XMLID_3305_" class="st6" points="62.5,66 62.4,65.7 62.5,65.9 		"/>
		<path id="XMLID_3306_" class="st6" d="M61.8,65.3L61.8,65.3l0,0.3c-0.3-0.3-0.6-0.9-0.9-1C61.3,64.4,61.5,65.1,61.8,65.3z"/>
		<path id="XMLID_3307_" class="st6" d="M59.9,64.5C59.8,64.5,59.8,64.5,59.9,64.5c-0.1,0-0.1-0.1-0.2-0.1
			C59.8,64.3,59.5,64.1,59.9,64.5z"/>
		<path id="XMLID_3308_" class="st6" d="M59.8,64.5C60,64.6,59.6,64.5,59.8,64.5L59.8,64.5z"/>
		<path id="XMLID_3309_" class="st6" d="M59.2,64c-0.1,0-0.3-0.1-0.3,0c-0.2-0.2-0.1-0.3,0.1-0.2L59.2,64z"/>
		<path id="XMLID_3310_" class="st6" d="M59.1,63.4l0.1,0.1C59.1,63.5,59.1,63.5,59.1,63.4z"/>
		<path id="XMLID_3311_" class="st6" d="M59.2,63.6c0-0.1,0,0,0.1,0.2l-0.2-0.3C59.2,63.5,59.3,63.4,59.2,63.6z"/>
		<path id="XMLID_3312_" class="st6" d="M59.5,63.9c0.2,0.1,0.4,0.2,0.2-0.1C60.1,64.2,59.8,64.3,59.5,63.9z"/>
		<path id="XMLID_3313_" class="st6" d="M61.1,64.2l0.2,0.1l0.1,0.2C61.4,64.4,61,64.3,61.1,64.2z"/>
		<path id="XMLID_3314_" class="st6" d="M57.6,62.7c0-0.1,0.2-0.1,0.3-0.1l0.1,0.2C57.9,62.7,57.7,62.6,57.6,62.7z"/>
		<path id="XMLID_3315_" class="st6" d="M57.9,62.5l-0.2-0.3C58,62.4,58,62.5,57.9,62.5z"/>
		<polygon id="XMLID_3316_" class="st6" points="59.3,63.1 59.5,63.6 59.2,63 		"/>
		<polygon id="XMLID_3317_" class="st6" points="56.7,61.7 56.7,61.8 56.7,62.1 		"/>
		<path id="XMLID_3318_" class="st6" d="M55.6,60.9c0.1,0.2,0.2,0.3,0.5,0.4c0,0.2-0.3,0-0.2,0.2C55.8,61.3,55.7,61.1,55.6,60.9z"/>
		<path id="XMLID_3319_" class="st6" d="M55.6,60.9c0-0.1-0.1-0.2-0.1-0.3C55.6,60.6,55.6,60.8,55.6,60.9z"/>
		<path id="XMLID_3320_" class="st6" d="M57,61.9l0.2-0.1c0,0,0.1,0.1,0.1,0.1C57.3,61.9,57.2,61.9,57,61.9z"/>
		<path id="XMLID_3321_" class="st6" d="M57.2,61.8L57.2,61.8c-0.1-0.1-0.2-0.1-0.2-0.2C57.1,61.6,57.1,61.7,57.2,61.8z"/>
		<path id="XMLID_3322_" class="st6" d="M57.4,61.9C57.3,61.9,57.3,61.9,57.4,61.9C57.4,61.9,57.4,61.9,57.4,61.9z"/>
		<path id="XMLID_3323_" class="st6" d="M58.5,62.6c-0.1-0.2-0.3-0.6,0.1-0.4C58.6,62.4,58.4,62.3,58.5,62.6z"/>
		<path id="XMLID_3324_" class="st6" d="M57.8,62.2l-0.2-0.4l0.3,0.2C57.9,62.1,57.8,62.1,57.8,62.2z"/>
		<polygon id="XMLID_3325_" class="st6" points="57.6,61.7 57.6,61.8 57.5,61.7 		"/>
		<path id="XMLID_3326_" class="st6" d="M56.1,60.8c0-0.2-0.2-0.3-0.3-0.4c0.2,0.1,0.3,0.2,0.5,0.4C56.3,60.8,56.2,61,56.1,60.8z"/>
		<path id="XMLID_3327_" class="st6" d="M56.7,61.3L56.7,61.3C56.7,61.3,56.7,61.3,56.7,61.3z"/>
		<polygon id="XMLID_3328_" class="st6" points="54.6,59.2 54.5,59.2 54.5,59.2 		"/>
		<path id="XMLID_3329_" class="st6" d="M56.3,60.8C56.3,60.7,56.3,60.7,56.3,60.8c0.2,0.1,0.2,0.2,0.2,0.3
			C56.4,60.9,56.4,60.9,56.3,60.8z"/>
		<path id="XMLID_3330_" class="st6" d="M55.2,60.1c0.1,0,0.2,0.1,0.3,0.1C55.4,60.2,55.2,60.2,55.2,60.1z"/>
		<path id="XMLID_3331_" class="st6" d="M56.6,61.3C56.6,61.3,56.6,61.3,56.6,61.3C56.5,61.3,56.5,61.3,56.6,61.3z"/>
		<path id="XMLID_3332_" class="st6" d="M56.6,61.3c0-0.1,0-0.1-0.1-0.2C56.6,61.1,56.6,61.2,56.6,61.3
			C56.6,61.3,56.6,61.3,56.6,61.3z"/>
		<path id="XMLID_3333_" class="st6" d="M54.5,58.7c0.2,0,0.7,0.3,0.6,0c-0.3-0.4-0.3-0.2-0.5-0.3c0.3,0-0.2-0.6,0.1-0.8l0.2,0.4
			c0,0,0-0.2,0.1-0.2c-0.1,0.2,0,0.5,0.4,0.6c0.1,0.3-0.4,0.6-0.9,0.7C54.6,59.1,54.7,59,54.5,58.7z"/>
		<path id="XMLID_3334_" class="st6" d="M54.6,59.6c-0.1-0.2-0.1-0.3-0.1-0.4l0.5,0.5l0-0.1l0.1,0.1C55,59.6,54.9,59.6,54.6,59.6z"
			/>
		<path id="XMLID_3335_" class="st6" d="M55.5,60.2L55.5,60.2L55.5,60.2C55.6,60.2,55.6,60.2,55.5,60.2
			C55.5,60.2,55.5,60.2,55.5,60.2c0-0.1,0-0.1,0-0.1C55.4,60,55.5,60.2,55.5,60.2C55.5,60.2,55.5,60.2,55.5,60.2L55.5,60.2l-0.4-0.5
			c0.1,0.1,0.2,0.2,0.5,0.4c0.1-0.2-0.1-0.5,0.2-0.5c0.3,0.3,0.1,0.3,0.2,0.5c-0.4-0.5,0.1,0.2-0.4,0c0.1,0.1,0.1,0.2,0.2,0.3
			C55.7,60.3,55.6,60.3,55.5,60.2C55.5,60.2,55.5,60.2,55.5,60.2z"/>
		<path id="XMLID_3336_" class="st6" d="M58.7,61.7C58.6,61.7,58.6,61.7,58.7,61.7C58.6,61.6,58.6,61.6,58.7,61.7z"/>
		<path id="XMLID_3337_" class="st6" d="M57.9,61.7C57.9,61.7,57.8,61.7,57.9,61.7C57.8,61.7,57.8,61.7,57.9,61.7z"/>
		<path id="XMLID_3338_" class="st6" d="M58.5,61.9L58.5,61.9c-0.2-0.2-0.5-0.2-0.6-0.2c0.2-0.1,0.3-0.1,0.5-0.1
			C58.4,61.6,58.4,61.7,58.5,61.9c0.2,0,0.1-0.2,0.1-0.2C58.7,61.8,58.8,62,58.5,61.9z"/>
		<path id="XMLID_3339_" class="st6" d="M57,60.8l-0.3-0.4l0.3,0.1l-0.1,0.1C57.2,60.7,57,60.7,57,60.8z"/>
		<polygon id="XMLID_3340_" class="st6" points="54.3,59.4 54.3,59 54.4,59.2 		"/>
		<polygon id="XMLID_3341_" class="st6" points="53.7,58.6 53.9,58.7 53.8,58.8 		"/>
		<path id="XMLID_3342_" class="st6" d="M29.4,26.9c0,0.1,0,0.1,0,0.2L29.4,26.9z"/>
		<path id="XMLID_3343_" class="st6" d="M30.1,28L30.1,28C30,28,30.1,27.9,30.1,28z"/>
		<path id="XMLID_3344_" class="st6" d="M41.5,45.8c0.1,0.1,0.2,0.2,0.3,0.3c-0.3-0.1-0.7-0.1-0.5-0.2L41.5,45.8z"/>
		<path id="XMLID_3345_" class="st6" d="M35,36.4c0-0.1,0-0.2,0-0.3c0,0,0.1,0,0.1,0C35,36.3,35,36.4,35,36.4z"/>
		<path id="XMLID_3346_" class="st6" d="M35.5,35.5l-0.3-0.2C35.3,35.4,35.4,35.4,35.5,35.5z"/>
		<path id="XMLID_3347_" class="st6" d="M26.1,21.7l0.1-0.3C26.4,21.6,26.2,21.6,26.1,21.7z"/>
		<path id="XMLID_3348_" class="st6" d="M48.8,53.5c-0.2-0.1-0.3-0.2-0.4-0.3C48.6,53.3,48.9,53.3,48.8,53.5z"/>
		<path id="XMLID_3349_" class="st6" d="M27.9,28.4c0,0.1,0,0.2,0,0.2C27.9,28.5,27.9,28.5,27.9,28.4z"/>
		<path id="XMLID_3350_" class="st6" d="M48.3,53.2c-0.2-0.1-0.4-0.2-0.4-0.4c0,0,0.1,0,0.1,0C48.1,53,48.2,53.1,48.3,53.2z"/>
		<path id="XMLID_3351_" class="st6" d="M51.8,56.7C51.9,56.9,51.8,56.8,51.8,56.7L51.8,56.7z"/>
		<path id="XMLID_3352_" class="st6" d="M52.9,56.6c0,0,0,0.1,0,0.1C52.9,56.7,52.9,56.6,52.9,56.6z"/>
		<path id="XMLID_3353_" class="st6" d="M47.8,50.8L47.8,50.8C47.9,50.8,47.8,50.8,47.8,50.8z"/>
		<path id="XMLID_3354_" class="st6" d="M51.8,56.7c0,0,0.1,0,0.2,0.1C52,56.8,51.9,56.8,51.8,56.7z"/>
		<path id="XMLID_3355_" class="st6" d="M51.8,56.7C51.8,56.7,51.8,56.7,51.8,56.7c-0.1,0-0.1-0.1-0.2-0.2
			C51.7,56.7,51.8,56.7,51.8,56.7z"/>
		<path id="XMLID_3356_" class="st6" d="M20.5,12.7C20.5,12.5,20.5,12.6,20.5,12.7C20.5,12.7,20.5,12.7,20.5,12.7z"/>
		<path id="XMLID_3357_" class="st6" d="M40.8,41.8C40.8,41.8,40.7,41.7,40.8,41.8L40.8,41.8C40.8,41.7,40.8,41.8,40.8,41.8z"/>
		<path id="XMLID_3358_" class="st6" d="M40.5,41.2c0,0.3,0.1,0.4,0.2,0.5L40.2,42L40.5,41.2z"/>
		<path id="XMLID_3359_" class="st6" d="M51.9,56.9c0,0,0.1,0.1,0.1,0.1C52,57,52,57,51.9,56.9z"/>
		<path id="XMLID_3360_" class="st6" d="M38.3,39.3c0,0.1,0,0.1,0.1,0.2C38.3,39.4,38.2,39.4,38.3,39.3z"/>
		<path id="XMLID_3361_" class="st6" d="M35.4,35.6c0,0-0.1,0-0.1,0C35.3,35.6,35.3,35.5,35.4,35.6z"/>
		<path id="XMLID_3362_" class="st6" d="M26.1,21.7C26.1,21.7,26.1,21.7,26.1,21.7L26.1,21.7L26.1,21.7z"/>
		<path id="XMLID_3363_" class="st6" d="M46.8,48.7c0,0,0.1,0,0.2,0.1C47,48.7,46.9,48.7,46.8,48.7z"/>
		<path id="XMLID_3364_" class="st6" d="M52.8,57.9l-0.2-0.3c0.1,0.1,0.2,0.1,0.3,0.2C52.9,57.8,52.8,57.8,52.8,57.9z"/>
		<path id="XMLID_3365_" class="st6" d="M55.8,58.9c0,0.1,0.1,0.1,0.1,0.1l-0.1,0.1C55.7,58.9,55.7,58.8,55.8,58.9z"/>
		<path id="XMLID_3366_" class="st6" d="M53.6,57.6c0.2-0.1,0.3,0.1,0.4,0.3c0,0,0,0,0,0C53.8,58.1,53.7,57.8,53.6,57.6z"/>
		<path id="XMLID_3367_" class="st6" d="M54,57.9c0,0.1,0.1,0.1,0.1,0.2C54.1,58.1,54.1,58,54,57.9z"/>
		<path id="XMLID_3368_" class="st6" d="M51.5,56.5c-0.1,0.3-0.3-0.7,0-0.2C51.7,56.3,51.4,56.5,51.5,56.5z"/>
		<polygon id="XMLID_3369_" class="st6" points="53.9,57.4 54,57.2 54.1,57.3 		"/>
		<path id="XMLID_3370_" class="st6" d="M52.7,56.1l0.3,0.2c0,0,0,0.1,0,0.1C52.9,56.3,52.7,56.2,52.7,56.1z"/>
		<path id="XMLID_3371_" class="st6" d="M53.2,56.7c0,0-0.1-0.1-0.2-0.2C53.1,56.5,53.2,56.6,53.2,56.7z"/>
		<polygon id="XMLID_3372_" class="st6" points="53.7,56.8 53.5,56.7 53.8,56.9 		"/>
		<path id="XMLID_3373_" class="st6" d="M49.9,53.1c0,0.1,0.1,0.2,0,0.2l-0.2-0.3C49.7,53,49.8,53,49.9,53.1z"/>
		<path id="XMLID_3374_" class="st6" d="M51.2,53.6l0.1,0.2c-0.1,0-0.2,0-0.3,0L51.2,53.6z"/>
		<path id="XMLID_3375_" class="st6" d="M50.5,52.9c0-0.1-0.2-0.6,0.1-0.2C50.5,52.8,50.8,53.1,50.5,52.9z"/>
		<polygon id="XMLID_3376_" class="st6" points="46.1,48.9 45.8,49.2 46.1,48.8 		"/>
		<path id="XMLID_3377_" class="st6" d="M43.6,44.7c0,0.2-0.3-0.2-0.3,0c-0.1-0.3-0.3-0.4,0.1-0.5C43.7,44.5,43.2,44.5,43.6,44.7z"
			/>
		<path id="XMLID_3378_" class="st6" d="M43.3,44.6c0,0,0,0.1,0,0.2C43.3,44.7,43.3,44.7,43.3,44.6z"/>
		<path id="XMLID_3379_" class="st6" d="M31.7,29.6l0.3,0.1l0,0.1C31.9,29.8,31.8,29.7,31.7,29.6z"/>
		<polygon id="XMLID_3380_" class="st6" points="29.4,26.5 29.5,26.6 29.2,26.6 		"/>
		<path id="XMLID_3381_" class="st6" d="M27.8,23.5c0.1,0.1,0.1,0.3,0.2,0.4C27.9,23.6,27.5,23.7,27.8,23.5z"/>
		<path id="XMLID_3384_" class="st6" d="M1.2,21.7c-0.1-1.4,0.6-2.5,0.7-3c0.1-0.6-0.2-0.4,0-0.6c0.2-0.1,0.4,0.1,0-0.9
			c-0.4-1,0.3-1.9,0.1-2.3c0.2,0.6,0.5,1.1,0.8,1.2c-0.4-0.2-0.1,0.1-0.1,0.5l-0.4-0.2c0,0,0.1,0.2,0.2,0.4c0.1,0.2,0.2,0.4,0.2,0.4
			c0,0.2,0.1,0.2,0.1,0.2c0.1,0.1,0.1-0.1,0.3,0.2c0.2,0.5,0.1,0.6,0.1,0.9l-0.1-0.1l0.1,0.3c0.1,0.2-0.2-1,0.3-0.2
			c-0.1,0-0.2,0.7,0.1,0.8c-0.2-0.4,0-0.4,0.1-0.3l0.3,0.6l-0.4,0c0.8,1.6,1.9,3.2,2.8,4.8c0.2-0.2,0.7,1.2,1,0.8l-0.1,0
			C7.3,24.6,7.9,25,8,25.3c-0.3-0.3,0,0.8-0.6,0l0.2,0.8c-0.5,0.8,1.1,1.7,1.5,2.8c0-0.1,0-0.1,0-0.2c0.3,1,1.4,1.8,1.4,2l0.2,0
			c0.2,0.9,0.2,1,0.9,1.8c0,0,0-0.2,0.1-0.1c0,0.3,0,0.6,0.4,1.2l0-0.1l0.6,0.9c0.6-0.4,0.7,1.8,1.6,1.6c0,0.1,0.1,0.4,0.2,0.6
			c0.1,0.3,0.3,0.5,0.3,0.7c0,0,0.1,0,0.1,0c0,0.6,0.8,0.9,1.1,1.3c0.1,0.3-0.1,0.3-0.2,0.2c0.6,0.3,0.8,1.5,1,1.6
			c0.3,0.3,0.3,0,0.5,0c0.4,0.6-0.6,0.3,0.2,0.8c0-0.1-0.1-0.3-0.1-0.2c0.3,0.2,1.3,0.2,1.4,0.5l-0.2-0.1c0.2,0.6,1.4,0.7,1.1,1.1
			l-0.2,0.1c0.9,0.6,0.2,0.4,1.1,1l0,0c0.3,0.4,0.6,0.4,0.5,0.8l-0.1-0.1c0.4,0.5,0.4,0.5,0.8,0.9c0,0.1,0.2,0.3,0.3,0.3
			c-0.2,0.2,0.8,1.1,1,1.3c-0.3-0.4,0-0.3,0.1-0.3c0,0.4,0.1,0.5,0.5,0.7c-0.2,0.3-0.5,0.6,0,1.2c0-0.1-0.1-0.3,0-0.3
			c0.1,0,0.2,0.2,0.2,0.3c0.1,0,0-0.2,0.1-0.2c0.1,0.6,0.6,0.7,1,1.3c-0.1-0.3,0.1-0.1,0.3-0.2c-0.3,0.3,1,0.5,0.4,0.7
			c1.2,0.8,2.6,2.6,3.2,2.8c0.2,0,0.3,0.5,0.5,0.6l0.1-0.2c0.3,0.7,0.3,0.5,0.6,1.3c-0.1-0.4,0.1-0.4,0.5-0.3l0.1,0.7l0.3-0.1
			c0.1,0.2,0.3,0.4,0.5,0.5c-0.1-0.1,0-0.1,0-0.1c0,0,0,0.1,0,0.1c-0.1,0.4,0.6,1,0.6,1.2c0.4-0.1,0.4,0.5,0.8,0.4
			c0,0.1,0.1,0.2,0.1,0.3c-0.2,0-0.4,0.1-0.1,0.2c0,0,0,0,0,0l0.2-0.1c0.1,0.2,0.3,0.4,0.4,0.5c-0.1,0-0.2-0.1-0.2-0.1
			c0.1,0,0.2,0.1,0.3,0.1c0,0,0,0,0.1,0.1c0,0,0,0,0,0c0.1,0.1,0.3,0.1,0.4,0.3c0.8,0.3,1,1.6,2,1.8c-0.1-0.1-0.3-0.2-0.3-0.3
			c0.5,0.5,1.3,0.8,1.6,1.2l-0.2,0.1c0.4,0.4,0.6,0.8,1,1.1l-0.1,0.2c0.5,0.4,1.3,1.6,2,1.4c0,0.3,0.7,0.5,1,0.8l0.2-0.1
			c0.4,0.3,0.6,0.5,0.8,0.7c1,0.3,1.5,1.2,2.1,1.7l0,0l0.6,0.6c-0.1-0.3,0.1,0.2,0.3,0.3c0.2,0.2,0.5,0.5,0.9,0.6l0.4,0.3
			c-0.4-0.5,0.2-0.2,0.3-0.3l0.2,0.3c0.2,0-0.1-0.3,0.2-0.1c0.1,0.2,0.7,0.6,0.7,1c-0.1,0-0.2,0-0.3,0c0,0,0,0,0,0c0,0,0,0,0,0l0,0
			c0,0,0,0,0,0c0,0,0,0.1,0,0.1c0,0-0.1,0-0.1-0.1c0.1,0.1,0.1,0.1,0.1,0.1c0.4,0.2,0.2,0.2,0.1,0.3c0.6,0,0.7,0.3,1.1,0.3
			c-0.4,0.1,1,0.7,0.5,0.8c0.5,0,0.2,0.1,0.6,0c-0.5-0.2-0.7-0.8-1-1.1l0.4,0.1c0-0.4-0.7-0.4-0.9-0.6c0.1,0.1,0.4,0.3,0.5,0.2
			l-0.3,0.2c-0.5-0.3-0.8-0.7-1-1.1c0.4,0.2-0.3-0.4,0.1-0.4l0.2,0.2c0.2,0,0-0.2-0.1-0.4c-0.9-0.4-2.2-1.7-2.6-1.7
			c0.2,0.1,0.5,0.3,0.5,0.5L45.3,67c0.3,0.2,0.7,0.2,1,0.6c-0.2,0.1,0,0.5-0.5,0.5c-1-0.4-0.4-0.9-1.4-1.6c-0.1-0.1,0,0.4-0.4-0.1
			c-0.6-0.7-0.8-1.4-0.5-1.7c0.2,0.3,0.6,0.9,0.9,0.8c-0.2-0.3-0.6-0.8-0.5-0.9c-0.5,0,0.5,0.5-0.1,0.4c-0.2-0.2-0.2-0.3-0.3-0.4
			c0,0.2-0.3,0-0.4,0c-0.6-0.5-1.1-0.7-1.8-1.2c0,0,0.1,0,0,0c0,0,0,0,0,0c-0.1,0-0.2,0-0.2,0.1c-0.3-0.3-0.4-1.1-0.1-1.2
			c-0.4-0.3-0.5-0.2-0.7-0.6c0.7,0.2-0.1,0,0-0.3c-0.3-0.3-0.2,0-0.4-0.1c0-0.1-0.1-0.3,0-0.3c-0.4,0,0,0.8-0.4,0.8
			c-0.3,0-1.2-0.4-1.3-0.4c0-0.3,0.8-1.1,1.3-1.2c0.1-0.2-0.4-0.1-0.6-0.2c-0.6-0.1-0.5-0.7-0.9-1l0.1,0.4c-0.1,0-0.5-0.5-0.5-0.7
			c-0.1,0.1-0.1,0.6-0.3,0.6c-0.6-0.5-0.8-1.5-0.6-1.7l0.7,1.1c0.2-0.2-0.5-0.8-0.2-1L36,57c0.1,0.1,0.4,0.5,0.2,0.4
			c-0.4-0.3-0.2-0.1-0.5-0.3c0.2,0.6,0.4,2,0.4,2.5l-0.3-0.5l-0.2,0c-0.4-0.7-0.3-1.9-0.2-2.3c-0.4-0.3-0.6,0.3-0.6,0.4
			c-0.7-0.6-0.1-1.2-0.8-1.7l0.3,0.1c-0.1-0.2-0.7-0.6-0.6-0.6c-0.2,0-0.5,0.1-0.5,0.3l-0.2-0.9c0,0.1-0.3,0.4-0.3,0.5
			c-0.2-0.2,0-0.7,0.2-0.7c-0.6-0.2-0.4-0.2-1-0.3c-0.1-0.2,0.3-0.3,0.5-0.3c-0.2-0.4-0.4-0.5-0.6-0.6c0.3,0.6-0.6,0.8-0.7,1.2
			l-0.1-2c0,0.1-0.2,0.5-0.3,0.5c0.2-0.4-1-1.6-1.6-2.2l0.1,0.1c0,0.2-0.6-0.2-0.7-0.5c0,0.1,0,0.1,0.1,0.2
			c-0.6-0.2-0.1-0.9-0.7-1.1c0.4,0.3,0.3,0.5,0.2,0.6c-0.2-0.4-1-1-0.5-1.2c-0.3-0.1-0.4-0.3-0.5-0.2l-0.5-0.9c0,0.1,0,0.2-0.3,0
			c0.4,0.4,0.5,1.1,0.9,1.1c-0.2,0.2-0.5,0.2-0.5,0.5c-0.7-0.9-0.7-1.7-0.9-2.4l-0.8-0.6l0.1-0.1l-0.4,0.1c0-0.1,0-0.2-0.1-0.2
			c0,0,0,0.1-0.1,0.1c-0.1-0.1-0.1-0.2-0.1-0.2c-0.2,0.1-0.2,0.3-0.2,0.6c0.1,0,0.2,0.1,0.3,0.1c0,0.3,0,0.5-0.3,0.4
			c0,0,0-0.1,0-0.2c0,0.2,0,0.3-0.1,0.3l-0.4-0.7c0.1,0,0.2,0.1,0.4,0.1c-0.1-0.5-0.3-1.1,0.1-0.9l-0.5-0.3
			c-0.2-0.7-0.2-0.6-0.5-1.4c-0.1,0-0.1,0.3-0.2,0.2c-0.1-0.7-1.3-0.8-1.1-1.1c-0.2-0.4,0.1-0.3,0-0.6c0,0-0.1,0.1-0.1,0l-0.1-0.4
			c-0.2-0.1,0.1,0.4-0.3,0.1c-0.3-0.6-0.5-1-0.9-1.4c-0.5-0.7,0.6,0,0.1-0.5c-0.2,0-0.5,0.1-0.7-0.2c0-0.3,0.1-0.3-0.1-0.7l-0.2,0.2
			c-0.2-0.3-0.4-0.5-0.5-0.4c-0.1-0.3-0.2-0.5-0.4-0.5c-0.2-0.5,0.7-0.1,0.9,0C19,38.3,18.8,38,18.4,38l0.2,0.4
			c-0.9-0.6-0.3-1-1.1-1c0.2,0.3,0.4,0.7,0.1,0.6l-0.2-0.5c-0.1,0,0.1,0.3-0.1,0.1c0-0.2-0.1-0.5-0.1-0.6l0,0l-0.5-0.7
			c0,0.1,0,0.1-0.1,0l-0.2-0.6c0,0.2-0.1,0.1-0.3-0.1c-0.5-0.6,0.2-0.9-0.4-1.2c0.1,0.1,0,0.1,0.1,0.2l-0.3-0.2
			c0.5-0.4-1-1.5-0.5-1.9c-0.5-0.2-0.1,0.1-0.1,0.7L14.5,33c0.1,0.2,0.2,0.3,0.3,0.5c-0.6-0.3-0.6-1-0.7-1.4
			c-0.2-0.1-0.3,0.4-0.6-0.2c-0.4-0.8,0.5-0.1,0.2-0.6l-0.5-0.1c-0.2-0.7-0.7-1-1.1-1.5c-0.1-0.1-0.1-0.2-0.1-0.3
			c-0.5-0.5-0.5-1.3-0.8-1.7c0,0.1-0.3-0.1-0.4-0.1l-0.3-0.8c0.1,0.4,0,0.5-0.2,0.6c-0.1-0.2-0.1-0.4-0.2-0.6c0,0.1,0,0.3-0.1,0.2
			L9.9,26c0.1,0,0.1,0.1,0.2,0.2C10,26,9.8,25.5,9.5,25.3c0,0.1,0,0.2-0.1,0.3c0.3,0.1,0.2,0.4,0.2,0.5c-0.3-0.6-0.1-0.1-0.4-0.3
			c-0.2-0.4-0.1-0.7,0.1-0.7c-0.3-0.4-0.4-0.5-0.5-1.1l-0.2,0.2l-0.2-0.4l-0.1,0.5C7.7,23.7,8.6,24,8,23.2l-0.2,0.1
			c-0.1-0.4,0.2-0.7-0.2-0.8c-0.1-0.4,0.6,0.4,0.2-0.4c-0.2-0.1-0.4-0.3-0.6-0.5c0-0.3,0.3,0,0.4,0.2c-0.5-1.1-1.1-0.3-1.3-1.5
			c0.3,0.3,0.2-0.5,0.7,0.4c-0.1-0.5-0.7-0.7-0.7-1.2l-0.1,0.4C6,19.7,6,19.5,6,19.4l-0.2,0.1c0.1-0.7-0.6-0.9-0.3-1.5
			c-0.3,0.4-0.2-0.4-0.4-0.6c0,0.6,0.6,1.3,0.3,1.5c-0.2-0.2-0.1-0.4-0.3-0.6c0,0.2,0,0.4,0,0.5c-0.5-0.6-0.3-1.2-0.4-1.6
			c0,0,0.1,0.2,0.1,0.4C4.9,17.8,4.9,18,4.9,18c0.3-0.2-0.1-0.4,0.1-0.7c-0.3-0.3-0.2-0.7-0.5-0.9c0,0.1,0,0.1,0,0.2
			c-0.3-0.8-1-0.8-1.1-1.1c-0.2-0.3-0.2-1,0-0.8c0-0.3,0.3,1.1,0.6,0.5c-0.7-0.2-0.2-1-0.9-1.9c0,0.5-0.4-0.2-0.4,0.3
			c-0.2-0.5-0.1-0.6,0-0.8l-0.1-0.1c0-0.2,0.1-0.4,0-0.5c0,0,0,0,0,0C2.7,12,2.7,12,2.7,11.7c0.2-0.5,0.7-1,1.1-0.9
			C4.2,11,4.4,9.7,4.7,8.9C5,8.1,4.9,8.6,5.3,8.4c0.3-0.2,0.4-0.1,0.5-0.7c0-0.6,0.8,0.2,1.4-1.2c0.6-1.4,1.8,0.5,1.8,0.5
			C9,7.2,9,7.4,9,7.6c0.2,0.2,0.3-0.1,0.4,0.2C8.9,7.5,9.3,8.7,9.1,8.6C9.5,8.8,9.4,9.7,10,9.4c0.1,0.4-0.2,0.4-0.3,0.3
			c0.1,0.4,0.2,0.8,0.1,1.2c0.2,0.2,0.5,2,1,2.3c-0.4-0.2-0.1,0.1-0.2,0.4l-0.3-0.1c0,0,0,0.1,0.1,0.3c0.1,0.1,0.1,0.3,0.1,0.3
			c0,0.1,0,0.2,0.1,0.1c0,0.1,0.1-0.1,0.3,0.1c0.2,0.4,0,0.4,0,0.7l-0.1,0l0.1,0.3c0.1,0.2,0-0.8,0.4-0.2c-0.1,0-0.3,0.5,0,0.6
			c-0.1-0.3,0.1-0.3,0.2-0.2l0.2,0.4l-0.4,0c0.5,1.2,1.3,2.5,1.9,3.8c0.3-0.1,0.4,0.9,0.8,0.6l-0.1,0c-0.1-0.3,0.4-0.1,0.4,0.2
			c-0.3-0.2-0.2,0.7-0.5,0.1c0,0,0,0.2,0,0.3c0,0.1,0,0.3,0,0.3c-0.6,0.7,0.7,1.3,0.9,2.2c0-0.1,0-0.1,0.1-0.1c0.1,0.8,1,1.4,1,1.6
			l0.2-0.1c0,0.7,0,0.8,0.5,1.4c0,0,0-0.1,0.1-0.1c-0.1,0.2-0.1,0.5,0.2,0.9l0-0.1l0.4,0.7c0.3-0.2,0.4,0.2,0.5,0.6
			c0.1,0.4,0.3,0.8,0.7,0.7c-0.1,0.2,0.2,0.8,0.2,1.1c0,0,0.1,0,0.1,0c-0.2,0.5,0.6,0.7,0.7,1c0.1,0.2-0.1,0.2-0.3,0.2
			c0.5,0.2,0.4,1.2,0.6,1.3c0.2,0.3,0.3-0.1,0.5-0.1c0.2,0.4-0.6,0.3,0,0.7c0-0.1-0.1-0.2,0-0.2c0.2,0.2,1.1,0.1,1.1,0.4l-0.2-0.1
			c0.1,0.5,1.1,0.5,0.8,0.9l-0.2,0.1c0.7,0.5,0.1,0.3,0.8,0.8l0,0c0.2,0.3,0.5,0.3,0.3,0.6l-0.1-0.1c0.2,0.4,0.3,0.4,0.6,0.7
			c0,0.1,0.1,0.3,0.2,0.3c-0.2,0.2,0.5,0.9,0.6,1.1c-0.2-0.3,0-0.3,0.2-0.2c-0.1,0.3,0,0.4,0.3,0.6c-0.3,0.3-0.5,0.6-0.2,1
			c0-0.1-0.1-0.2,0-0.2c0.1,0,0.1,0.2,0.1,0.2c0.1,0,0-0.2,0.2-0.2c0,0.5,0.4,0.5,0.6,1c0-0.2,0.1-0.1,0.3-0.2
			c-0.3,0.3,0.8,0.4,0.2,0.5c0.9,0.6,1.8,2.1,2.3,2.2c0.2,0,0.2,0.4,0.3,0.5l0.1-0.1c0.1,0.6,0.2,0.4,0.3,1.1c0-0.3,0.1-0.3,0.4-0.2
			l0,0.6l0.3-0.1c0,0.2,0.2,0.3,0.4,0.4c-0.1-0.1,0,0,0-0.1c0,0,0,0.1,0,0.1c-0.1,0.3,0.3,0.8,0.3,1c0.4-0.1,0.3,0.4,0.6,0.3
			c0,0.1,0,0.2,0.1,0.3c-0.2,0-0.3,0.2-0.2,0.2c0,0,0,0,0,0l0.2-0.1c0.1,0.2,0.2,0.3,0.3,0.4c-0.1,0-0.1,0-0.2-0.1
			c0.1,0,0.2,0.1,0.2,0.1c0,0,0,0,0,0c0,0,0,0,0,0c0.1,0,0.2,0.1,0.3,0.3c0.7,0.2,0.6,1.3,1.4,1.5c-0.1,0-0.2-0.1-0.2-0.2
			c0.4,0.4,1,0.6,1.1,1L34,49.1c0.2,0.4,0.4,0.6,0.7,0.9l-0.2,0.2c0.4,0.3,0.9,1.3,1.5,1.1c0,0.2,0.5,0.4,0.7,0.7l0.2-0.1
			c0.3,0.2,0.4,0.4,0.5,0.6c0.8,0.2,1,1,1.5,1.4l0,0l0.4,0.5c0-0.2,0,0.2,0.2,0.3c0.1,0.2,0.4,0.4,0.6,0.5l0.3,0.3
			c-0.3-0.4,0.2-0.2,0.4-0.3l0.1,0.3c0.1,0,0-0.2,0.2-0.1c0.1,0.2,0.5,0.5,0.5,0.8c-0.1,0-0.1,0-0.2,0c0,0,0,0,0,0l0,0c0,0,0,0,0,0
			c0,0,0,0.1,0,0.1c0.3,0.2,0.1,0.2,0.1,0.2c0.5,0,0.5,0.3,0.9,0.2c-0.4,0.1,0.7,0.5,0.3,0.7c0.4-0.1,0.2,0.1,0.5,0
			c-0.4-0.2-0.5-0.7-0.6-1l0.4,0c0.1-0.4-0.5-0.3-0.7-0.5c0.1,0.1,0.3,0.2,0.3,0.2L42.2,56c-0.4-0.2-0.5-0.6-0.7-0.9
			c0.3,0.1-0.2-0.4,0.1-0.4l0.2,0.2c0.1,0,0-0.2,0-0.4c-0.7-0.3-1.6-1.3-1.9-1.3c0.2,0,0.3,0.3,0.4,0.4l-0.3-0.1
			c0.2,0.2,0.5,0.1,0.8,0.5c-0.2,0.1-0.1,0.5-0.5,0.5c-0.8-0.3-0.2-0.8-0.9-1.4c0-0.1,0,0.4-0.4-0.1c-0.4-0.6-0.4-1.2-0.1-1.5
			c0.1,0.3,0.4,0.8,0.6,0.6c-0.1-0.3-0.4-0.6-0.3-0.8c-0.4,0.1,0.3,0.4-0.1,0.4c-0.1-0.1-0.1-0.3-0.1-0.4c0,0.2-0.3,0.1-0.4,0.1
			c-0.4-0.4-0.8-0.5-1.3-1c-0.1,0-0.2,0-0.2,0.1c-0.2-0.3-0.1-1,0.1-1c-0.3-0.3-0.4-0.2-0.5-0.5c0.6,0.1-0.1,0,0.1-0.3
			c-0.2-0.3-0.2,0-0.3,0c0-0.1,0-0.2,0-0.3c-0.3,0-0.2,0.7-0.5,0.8c-0.2,0-1-0.3-1-0.3c0.1-0.3,0.9-1.1,1.3-1.1
			c0.1-0.1-0.4-0.1-0.5-0.2c-0.5-0.1-0.3-0.6-0.6-0.8l0.1,0.3c-0.1,0-0.4-0.4-0.4-0.5c-0.1,0.1-0.2,0.6-0.4,0.5
			c-0.5-0.4-0.5-1.2-0.2-1.4l0.4,0.9c0.2-0.2-0.3-0.7,0-0.9c0,0-0.2-0.1-0.3-0.3c-0.1-0.1-0.3-0.2-0.3-0.3c0.1,0.1,0.2,0.4,0,0.4
			c-0.2-0.3-0.2-0.1-0.4-0.2c0,0.5,0,1.7-0.1,2.2L33,47.2l-0.2,0c-0.3-0.6,0.1-1.7,0.2-2c-0.3-0.2-0.6,0.3-0.6,0.4
			c-0.5-0.5,0.1-1-0.4-1.5l0.3,0.1c-0.1-0.1-0.5-0.5-0.4-0.5c-0.2,0-0.5,0.1-0.5,0.3l0-0.7c0,0.1-0.4,0.3-0.4,0.4
			c-0.2-0.2,0.1-0.6,0.3-0.6c-0.5-0.1-0.3-0.2-0.9-0.2c-0.1-0.1,0.4-0.3,0.5-0.3c-0.1-0.3-0.3-0.4-0.4-0.5c0.2,0.5-0.7,0.8-0.9,1.1
			l0.3-1.7c0,0.1-0.3,0.4-0.3,0.5c0.2-0.3-0.5-1.3-1-1.8l0.1,0.1c0,0.2-0.4-0.2-0.5-0.4c0,0.1,0,0.1,0.1,0.2
			c-0.5-0.1,0.1-0.8-0.4-0.9c0.3,0.3,0.2,0.4,0.1,0.5c-0.1-0.3-0.7-0.8-0.2-1c-0.2-0.1-0.3-0.3-0.4-0.1l-0.3-0.8
			c0,0.1-0.1,0.2-0.2,0c0.3,0.3,0.2,0.9,0.6,0.9c-0.2,0.2-0.4,0.2-0.5,0.5c-0.4-0.7-0.3-1.4-0.4-2l-0.6-0.4l0.1-0.1l-0.3,0.1
			c0-0.1,0-0.2,0-0.2c0,0-0.1,0-0.1,0.1c0-0.1-0.1-0.1,0-0.2c-0.2,0.1-0.2,0.3-0.3,0.5c0.1,0,0.2,0,0.3,0c0,0.2-0.1,0.4-0.3,0.3
			c0,0,0-0.1,0-0.1c0,0.1-0.1,0.3-0.2,0.2l-0.2-0.5c0.1,0,0.2,0,0.4,0.1c0-0.4-0.1-0.9,0.3-0.8l-0.4-0.2c0-0.6,0-0.5-0.2-1.1
			c-0.1,0-0.1,0.2-0.2,0.2c0-0.6-1-0.6-0.8-0.9c-0.1-0.3,0.1-0.3,0.1-0.5c0,0-0.1,0.1-0.1,0l0-0.4c-0.1,0,0,0.3-0.3,0.1
			c-0.2-0.5-0.2-0.8-0.6-1.1c-0.3-0.5,0.5-0.1,0.2-0.5c-0.2,0-0.4,0.1-0.6-0.1c0-0.2,0.2-0.3,0.1-0.6l-0.2,0.2
			c-0.1-0.2-0.2-0.4-0.4-0.3c0-0.3-0.1-0.4-0.2-0.4c-0.1-0.4,0.7-0.1,0.8-0.1c-0.4-0.2-0.5-0.5-0.9-0.5l0.1,0.3
			c-0.7-0.4,0-0.8-0.8-0.8c0.2,0.2,0.2,0.5,0,0.5l-0.1-0.4c-0.1,0,0.1,0.2-0.1,0.1c0-0.1,0-0.4,0-0.5l0,0l-0.3-0.5
			c0,0.1,0,0.1-0.1,0l-0.1-0.5c0,0.2-0.1,0.1-0.3-0.1c-0.4-0.4,0.3-0.7-0.2-1c0,0,0,0.1,0.1,0.1l-0.2-0.1c0.5-0.4-0.6-1.2-0.1-1.6
			c-0.4-0.1-0.1,0.1-0.2,0.6l-0.3-0.2c0.1,0.1,0.2,0.2,0.2,0.4c-0.5-0.3-0.4-0.8-0.4-1.1c-0.2-0.1-0.3,0.4-0.5-0.1
			c-0.2-0.7,0.5-0.1,0.3-0.5l-0.4-0.1c0-0.6-0.4-0.8-0.7-1.2c0-0.1,0-0.2,0-0.2c-0.4-0.4-0.2-1-0.5-1.3c0,0.1-0.3-0.1-0.4-0.1
			l-0.1-0.7c0.1,0.3-0.1,0.4-0.3,0.5c-0.1-0.2,0-0.3-0.1-0.5c0,0.1,0,0.2-0.2,0.2l0-0.8c0,0,0.1,0.1,0.1,0.1
			c-0.1-0.2-0.1-0.5-0.4-0.7c-0.1,0.1-0.1,0.2-0.1,0.2c0.3,0.1,0.2,0.3,0.1,0.4c-0.2-0.4-0.1-0.1-0.3-0.2c-0.1-0.3,0-0.5,0.2-0.5
			c-0.2-0.3-0.3-0.4-0.3-0.8L15,19.5l-0.1-0.4l-0.2,0.4c-0.4-0.5,0.3-0.3-0.1-0.9l-0.2,0.1c0-0.3,0.3-0.5-0.1-0.6
			c0-0.3,0.5,0.3,0.3-0.3c-0.2-0.1-0.3-0.3-0.5-0.4c0-0.2,0.3,0,0.3,0.1c-0.3-0.9-0.9-0.2-1-1.2c0.3,0.2,0.3-0.4,0.6,0.3
			c0-0.4-0.6-0.5-0.5-0.9l-0.2,0.3c-0.1-0.1,0-0.3,0-0.4l-0.2,0.1c0.2-0.6-0.5-0.7-0.1-1.1c-0.3,0.3-0.1-0.3-0.3-0.4
			c-0.1,0.4,0.4,1,0,1.2c-0.2-0.1,0-0.3-0.2-0.4c0,0.1,0,0.3-0.1,0.4c-0.4-0.5-0.1-0.9-0.1-1.3l0.1,0.6c0.3-0.2,0-0.3,0.2-0.5
			c-0.3-0.2-0.1-0.5-0.3-0.7c0,0.1,0,0.1,0,0.1c-0.2-0.6-0.8-0.6-0.9-0.8c-0.1-0.2-0.1-0.8,0.1-0.6c0-0.2,0.2,0.9,0.5,0.4
			c-0.6-0.2,0-0.8-0.6-1.5c-0.1,0.4-0.4-0.1-0.4,0.2c-0.1-0.4,0-0.4,0.1-0.6L11,10.4c0.2-0.6,0.3-0.2,0.3-1c-0.1,0.3-0.3-0.2-0.4,0
			c-0.1-0.2-0.1-0.4,0-0.6l0,0c-0.1-0.8-0.4-0.6-0.3-1.3l0.1,0c0.1-0.5,0-1-0.1-1.5c-0.1-1.2,1.1-2.1,1.3-2.7
			c0.2-0.6,1.8,0.3,2.7-0.3c0.9-0.6,1.7,0.9,1.7,0.9s0,0,0,0c0.1,0.4,0.1,0.7,0.1,1.1c0.2,0.2,0.3-0.1,0.4,0.2
			c-0.5-0.4,0,1.1-0.3,0.8c0.5,0.2,0.4,1.2,1,0.9c0.1,0.4-0.2,0.4-0.3,0.3c0.2,0.5,0.3,0.8,0.2,1.3c0.1,0.1,0.2,0.6,0.4,1.2
			c0.2,0.5,0.4,1.1,0.7,1.2c-0.4-0.2-0.1,0.1-0.2,0.4l-0.3-0.1l0.3,0.6c0,0.1,0,0.2,0.1,0.2c0.1,0.1,0.1-0.1,0.3,0.2
			c0.2,0.4,0.1,0.5,0,0.7l-0.1-0.1l0.1,0.3c0.1,0.2-0.1-0.8,0.4-0.2c-0.1,0-0.2,0.6,0,0.7c-0.2-0.3,0-0.4,0.2-0.3l0.2,0.5l-0.4,0
			c0.6,1.3,1.5,2.6,2.2,4c0.3-0.2,0.5,1,0.8,0.6l-0.1,0c-0.1-0.4,0.4-0.1,0.5,0.2c-0.3-0.2-0.1,0.7-0.5,0.1l0.1,0.6
			c-0.6,0.7,0.9,1.4,1.1,2.3c0-0.1,0-0.1,0-0.1c0.2,0.8,1.1,1.5,1.1,1.7l0.2-0.1c0.1,0.8,0.1,0.9,0.7,1.5c0,0,0-0.1,0.1-0.1
			c0,0.3-0.1,0.5,0.3,1l0-0.1l0.5,0.8c0.6-0.4,0.5,1.5,1.3,1.3c-0.1,0.3,0.2,0.8,0.3,1.1c0,0,0.1,0,0.1,0c-0.1,0.5,0.7,0.7,0.9,1.1
			c0.1,0.3-0.1,0.2-0.3,0.2c0.5,0.2,0.5,1.3,0.7,1.4c0.2,0.3,0.3-0.1,0.5-0.1c0.3,0.5-0.6,0.3,0.1,0.7c0-0.1-0.1-0.2,0-0.2
			c0.2,0.2,1.2,0.1,1.2,0.4l-0.2-0.1c0.1,0.5,1.2,0.6,0.8,0.9l-0.2,0.1c0.8,0.5,0.1,0.3,0.9,0.9l0,0c0.2,0.3,0.5,0.3,0.4,0.7
			l-0.1-0.1c0.3,0.4,0.3,0.4,0.6,0.8c0,0.1,0.1,0.3,0.2,0.3c-0.2,0.2,0.6,1,0.7,1.1c-0.2-0.3,0-0.3,0.2-0.3c0,0.3,0,0.5,0.4,0.6
			c-0.3,0.3-0.5,0.6-0.2,1.1c0-0.1-0.1-0.2,0-0.2c0.1,0,0.1,0.2,0.1,0.2c0.1,0,0-0.2,0.2-0.2c0,0.5,0.4,0.6,0.7,1.1
			c0-0.2,0.1-0.1,0.3-0.2c-0.3,0.3,0.8,0.4,0.2,0.6c1,0.7,1.9,2.3,2.5,2.4c0.2,0,0.2,0.4,0.3,0.6l0.1-0.1c0.1,0.7,0.2,0.4,0.4,1.1
			c0-0.4,0.1-0.3,0.5-0.2l0,0.6l0.3-0.1c0,0.2,0.2,0.3,0.4,0.5c-0.1-0.1,0,0,0-0.1c0,0,0,0,0,0.1c-0.1,0.3,0.4,0.9,0.3,1.1
			c0.4-0.1,0.3,0.5,0.7,0.3c0,0.1,0,0.2,0.1,0.3c-0.2,0-0.4,0.1-0.2,0.2c0,0,0,0,0,0l0.2-0.1c0.1,0.2,0.2,0.3,0.3,0.4
			c-0.1,0-0.1-0.1-0.2-0.1c0.1,0,0.2,0.1,0.2,0.1c0,0,0,0,0,0.1c0,0,0,0,0,0c0.1,0,0.2,0.1,0.3,0.3c0.7,0.3,0.6,1.4,1.5,1.6
			c-0.1,0-0.2-0.1-0.2-0.2c0.4,0.5,1,0.7,1.2,1.1l-0.2,0.1c0.2,0.4,0.4,0.7,0.7,0.9l-0.2,0.2c0.4,0.3,0.9,1.4,1.5,1.3
			c0,0.2,0.5,0.5,0.7,0.7l0.2-0.1c0.3,0.2,0.4,0.5,0.6,0.7c0.8,0.3,1.1,1.1,1.6,1.6l0,0l0.4,0.6c0,0,0-0.1,0-0.1
			c0,0,0.1,0.3,0.2,0.4c0.1,0.2,0.4,0.4,0.7,0.5l0.3,0.3c-0.3-0.4,0.2-0.2,0.4-0.3l0.1,0.3c0.2,0,0-0.2,0.2-0.1
			c0.1,0.2,0.5,0.6,0.4,0.9c-0.1,0-0.1,0-0.2,0c0,0,0,0,0,0l0,0c0,0,0,0,0,0c0,0,0,0.1,0,0.1c0.3,0.2,0.1,0.2,0.1,0.2
			c0.5,0,0.5,0.3,0.9,0.3c-0.4,0.1,0.7,0.6,0.3,0.7c0.4,0,0.2,0.1,0.5,0.1c-0.4-0.2-0.5-0.7-0.6-1.1l0.4,0.1
			c0.1-0.4-0.5-0.4-0.7-0.6c0.1,0.1,0.3,0.3,0.4,0.2L53,57.1c-0.4-0.3-0.5-0.7-0.7-1c0.3,0.2-0.2-0.4,0.2-0.4l0.2,0.2
			c0.2,0,0-0.2,0-0.4c-0.7-0.4-1.6-1.6-2-1.6c0.2,0.1,0.3,0.3,0.4,0.5l-0.3-0.2c0.2,0.2,0.6,0.2,0.8,0.6c-0.2,0.1-0.1,0.5-0.6,0.4
			c-0.8-0.4-0.2-0.8-0.9-1.5c0-0.1-0.1,0.4-0.4-0.1c-0.4-0.6-0.4-1.3-0.1-1.5c0.1,0.3,0.4,0.9,0.6,0.7c-0.1-0.3-0.4-0.7-0.3-0.8
			c-0.4,0,0.3,0.5-0.2,0.4c-0.1-0.2-0.1-0.3-0.1-0.4c0,0.2-0.3,0-0.4,0c-0.5-0.5-0.8-0.6-1.3-1.1c-0.1,0-0.2,0-0.2,0.1
			c-0.2-0.3-0.1-1,0.1-1.1c-0.3-0.3-0.4-0.2-0.6-0.5c0.6,0.2-0.1,0,0.1-0.3c-0.2-0.3-0.2,0-0.4-0.1c0-0.1,0-0.2,0-0.3
			c-0.3,0-0.2,0.7-0.6,0.7c-0.2,0-1-0.3-1.1-0.4c0.1-0.3,0.9-1,1.4-1.1c0.1-0.1-0.4-0.1-0.5-0.2c-0.5-0.1-0.3-0.7-0.6-0.9l0.1,0.3
			c-0.1,0-0.4-0.5-0.4-0.6c-0.1,0.1-0.2,0.6-0.4,0.5c-0.5-0.5-0.5-1.3-0.2-1.5l0.4,1c0.2-0.2-0.3-0.7,0-0.9l-0.7-0.6
			c0.1,0.1,0.3,0.4,0.1,0.4c-0.3-0.3-0.2-0.1-0.4-0.2c0.1,0.6,0,1.8-0.1,2.3l-0.2-0.5l-0.2,0c-0.3-0.6,0.1-1.7,0.2-2
			c-0.3-0.2-0.6,0.2-0.6,0.4c-0.5-0.5,0.1-1.1-0.4-1.5l0.3,0.1c-0.1-0.2-0.6-0.6-0.4-0.6c-0.2,0-0.5,0.1-0.5,0.2l0-0.7
			c0,0.1-0.4,0.3-0.4,0.4c-0.2-0.2,0.1-0.6,0.2-0.6c-0.6-0.2-0.3-0.2-0.9-0.2c-0.1-0.1,0.4-0.3,0.5-0.3c-0.1-0.3-0.3-0.4-0.4-0.5
			c0.2,0.5-0.7,0.8-0.9,1.1l0.2-1.8c0,0.1-0.3,0.4-0.3,0.5c0.2-0.3-0.6-1.4-1.1-1.9l0.1,0.1c0,0.2-0.3,0-0.4-0.3
			c-0.5-0.1,0.1-0.8-0.5-1c0.3,0.3,0.2,0.5,0.1,0.5c-0.1-0.4-0.7-0.9-0.3-1c-0.2-0.1-0.3-0.3-0.5-0.1l-0.3-0.8c0,0.1-0.1,0.2-0.2,0
			c0.3,0.3,0.3,0.9,0.7,0.9c-0.2,0.2-0.4,0.2-0.5,0.5c-0.5-0.8-0.4-1.5-0.5-2.1l-0.7-0.5l0.1-0.1l-0.3,0.1c0-0.1,0-0.2,0-0.2
			c0,0-0.1,0.1-0.1,0.1c0-0.1-0.1-0.2-0.1-0.2c-0.2,0.1-0.2,0.3-0.3,0.5l0.3,0.1c0,0.2-0.1,0.4-0.3,0.3c0,0,0-0.1,0-0.1
			c0,0.2-0.1,0.3-0.2,0.2l-0.3-0.6c0.1,0,0.2,0,0.4,0.1c-0.1-0.4-0.1-0.9,0.3-0.8l-0.4-0.2c-0.1-0.6-0.1-0.5-0.3-1.2
			c-0.1,0-0.1,0.2-0.2,0.2c0-0.6-1.1-0.7-0.9-0.9c-0.2-0.4,0.1-0.3,0.1-0.6c0,0-0.1,0.1-0.1,0l0-0.4c-0.1,0,0,0.3-0.3,0.1
			c-0.2-0.6-0.3-0.9-0.7-1.2c-0.4-0.6,0.6-0.1,0.2-0.5c-0.2,0.1-0.4,0.1-0.7-0.1c0-0.2,0.1-0.3,0-0.6l-0.2,0.2
			c-0.2-0.2-0.3-0.5-0.4-0.3c0-0.3-0.2-0.4-0.3-0.5c-0.1-0.5,0.7-0.1,0.8-0.1c-0.4-0.2-0.5-0.5-0.9-0.5l0.2,0.4
			c-0.8-0.5-0.1-0.9-0.8-0.8c0.2,0.2,0.3,0.6,0,0.5l-0.1-0.4c-0.1,0,0.1,0.2-0.1,0.1c0-0.1,0-0.4,0-0.6l0,0l-0.3-0.6
			c0,0.1,0,0.1-0.1,0L29.4,27c0,0.2-0.1,0.1-0.3-0.1c-0.4-0.5,0.3-0.8-0.3-1c0,0.1,0,0.1,0.1,0.1L28.7,26c0.5-0.4-0.8-1.2-0.3-1.6
			c-0.4-0.1-0.1,0.1-0.1,0.6l-0.4-0.2c0.1,0.1,0.2,0.2,0.2,0.4c-0.5-0.3-0.5-0.8-0.5-1.1c-0.2-0.1-0.3,0.4-0.5-0.1
			c-0.3-0.7,0.5-0.1,0.3-0.6l-0.5-0.1c-0.1-0.6-0.5-0.9-0.8-1.3c0-0.1,0-0.2,0-0.2c-0.4-0.4-0.3-1.1-0.6-1.4c0,0.1-0.3-0.1-0.4-0.1
			L25,19.6c0,0.3-0.1,0.3-0.2,0.5c-0.1-0.2-0.1-0.3-0.1-0.5c0,0.1,0,0.2-0.2,0.2l-0.1-0.8c0,0,0.1,0.1,0.1,0.1
			c-0.1-0.2-0.2-0.6-0.5-0.7c0,0.1-0.1,0.2-0.1,0.2c0.3,0.1,0.2,0.3,0.1,0.5c-0.2-0.5-0.1-0.1-0.3-0.2c-0.2-0.3,0-0.6,0.2-0.6
			c-0.3-0.3-0.4-0.4-0.4-0.9l-0.2,0.2l-0.1-0.4l-0.1,0.4c-0.5-0.6,0.3-0.3-0.2-1l-0.2,0.1c-0.1-0.3,0.2-0.6-0.1-0.7
			c0-0.3,0.5,0.3,0.2-0.3c-0.2-0.1-0.4-0.3-0.5-0.4c0-0.2,0.3,0,0.3,0.1c-0.4-0.9-1-0.2-1.1-1.2c0.3,0.2,0.3-0.4,0.6,0.3
			c0-0.4-0.6-0.5-0.6-1l-0.2,0.4c-0.1-0.1,0-0.3,0-0.4l-0.2,0.1c0.2-0.6-0.5-0.7-0.2-1.2c-0.3,0.3-0.1-0.3-0.3-0.4
			c-0.1,0.5,0.5,1,0.1,1.2c-0.2-0.1-0.1-0.3-0.3-0.5c0,0.1,0,0.3-0.1,0.4c-0.4-0.5-0.2-1-0.2-1.3l0.2,0.6c0.3-0.2-0.1-0.3,0.1-0.6
			c-0.3-0.2-0.1-0.6-0.4-0.8c0,0.1,0,0.1,0,0.1c-0.2-0.7-0.9-0.6-1-0.9c-0.1-0.2-0.1-0.8,0.1-0.7c0-0.3,0.2,0.9,0.5,0.4
			c-0.7-0.2-0.1-0.8-0.7-1.6c-0.1,0.4-0.4-0.1-0.4,0.3c-0.1-0.4,0-0.5,0.1-0.7L18.6,8c0.2-0.6,0.3-0.2,0.3-1.1
			c-0.1,0.3-0.3-0.2-0.4,0c-0.1-0.2-0.1-0.4,0-0.6l0,0c-0.1-0.8-0.4-0.6-0.3-1.4l0.1,0.1c0-0.2,0-0.4,0-0.6c0.6,0-0.1-1.5,0.4-2.2
			c0.5-0.7,2.1,1,3.2,0.5c0.9-0.3,2.1,0.3,2.7,0.6c0.1,0.2,0.2,0.4,0,0.4c0.5,0,0.6,0.7,1,0.3c0.2,0.2-0.1,0.4-0.2,0.3
			c0.2,0.3,0.4,0.5,0.4,0.9c0.2,0.1,0.8,1.4,1.4,1.4c-0.4,0-0.1,0.1-0.1,0.4l-0.3,0L27,7.1C27,7.2,27,7.2,27,7.2
			c0.1,0.1,0.1-0.1,0.3,0c0.2,0.2,0.1,0.3,0.1,0.6l-0.1,0L27.5,8c0.1,0.1-0.1-0.6,0.3-0.3c-0.1,0-0.2,0.5,0.1,0.5
			c-0.2-0.2,0-0.3,0.1-0.3l0.2,0.3l-0.3,0.1c0.7,0.8,1.5,1.5,2.2,2.4c0.2-0.2,0.5,0.6,0.8,0.2l-0.1,0c-0.1-0.2,0.3-0.2,0.4,0
			c-0.3-0.1-0.1,0.6-0.5,0.2l0.1,0.5c-0.5,0.7,0.8,0.8,1.1,1.5c0-0.1,0-0.1,0-0.1c0.2,0.6,1.1,0.8,1,1l0.2-0.1
			c0.1,0.6,0.1,0.7,0.6,1c0,0,0-0.1,0.1-0.1c0,0.2-0.1,0.4,0.3,0.7l0-0.1l0.4,0.5c0.5-0.5,0.4,1.1,1.1,0.7c-0.1,0.2,0.2,0.6,0.3,0.8
			c0,0,0.1,0,0.1,0c-0.1,0.4,0.6,0.4,0.7,0.7c0.1,0.2-0.1,0.2-0.2,0.3c0.5,0.1,0.4,0.9,0.6,0.9c0.2,0.2,0.3-0.1,0.4-0.2
			c0.2,0.3-0.5,0.4,0.1,0.6c0-0.1-0.1-0.2,0-0.2c0.2,0.1,1-0.2,1,0l-0.2,0c0.1,0.4,1,0.2,0.7,0.6l-0.2,0.1c0.6,0.2,0.1,0.2,0.7,0.5
			l0,0c0.2,0.2,0.5,0.1,0.3,0.5l-0.1,0c0.2,0.3,0.3,0.3,0.5,0.5c0,0.1,0.1,0.2,0.2,0.2c-0.2,0.2,0.5,0.7,0.6,0.8
			c-0.2-0.2,0-0.2,0.2-0.3c-0.1,0.3,0,0.4,0.3,0.4c-0.2,0.3-0.5,0.6-0.2,0.9c0-0.1-0.1-0.2,0-0.2c0.1,0,0.1,0.1,0.1,0.2
			c0.1,0,0-0.2,0.2-0.2c0,0.5,0.3,0.4,0.6,0.8c0-0.2,0.1-0.1,0.2-0.2c-0.3,0.3,0.7,0.2,0.2,0.4c0.8,0.4,1.5,1.5,2,1.5
			c0.2,0,0.2,0.3,0.3,0.4l0.1-0.1c0.1,0.5,0.1,0.3,0.2,0.9c0-0.3,0.1-0.3,0.4-0.3l0,0.5l0.2-0.2c0,0.2,0.2,0.2,0.3,0.3
			c-0.1,0.3,0.3,0.6,0.2,0.8c0.4-0.2,0.2,0.3,0.5,0.2c0,0.1,0,0.1,0,0.2c-0.2,0.1-0.3,0.2-0.2,0.2c0,0,0,0,0,0l0.2-0.1
			c0.1,0.1,0.1,0.2,0.2,0.3c0,0-0.1,0-0.2,0c0.1,0,0.1,0,0.2,0c0,0,0,0,0,0c0,0,0,0,0,0c0.1,0,0.2,0.1,0.2,0.2
			c0.6,0.1,0.4,1.1,1.1,1.1c-0.1,0-0.2-0.1-0.1-0.2c0.3,0.3,0.8,0.4,0.9,0.7l-0.2,0.1c0.2,0.3,0.3,0.5,0.5,0.7l-0.2,0.2
			c0.3,0.2,0.7,1,1.2,0.8c-0.1,0.2,0.4,0.3,0.5,0.5l0.2-0.1c0.2,0.1,0.3,0.3,0.4,0.5c0,0-0.1,0-0.1,0c0,0.2,0.2,0.3,0.3,0.3
			c-0.1-0.1-0.2-0.2-0.2-0.3c0.7,0.1,0.8,0.7,1.2,1.1l0,0l0.3,0.4c0,0,0-0.1,0-0.1c0,0,0,0.2,0.1,0.3c0.1,0.2,0.3,0.3,0.5,0.4
			l0.2,0.2c-0.2-0.3,0.2-0.2,0.4-0.3l0,0.3c0.1,0,0-0.2,0.2-0.1c0,0.2,0.3,0.4,0.3,0.7c-0.1,0-0.1,0-0.2,0c0,0,0,0,0,0l0,0
			c0,0,0,0,0,0c0,0,0,0.1,0,0.1c0.2,0.1,0.1,0.1,0,0.2c0.4,0,0.4,0.2,0.8,0.1c-0.4,0.1,0.5,0.4,0.1,0.6c0.4-0.1,0.1,0.1,0.4,0
			c-0.3-0.1-0.3-0.6-0.4-0.8l0.3,0c0.1-0.4-0.5-0.3-0.5-0.5c0,0.1,0.2,0.2,0.3,0.2L56,36.8c-0.3-0.2-0.4-0.5-0.5-0.8
			c0.2,0.1-0.1-0.3,0.2-0.4l0.1,0.2c0.1,0,0.1-0.2,0-0.3c-0.6-0.2-1.2-1.1-1.5-1.1c0.1,0,0.2,0.2,0.3,0.4l-0.3-0.1
			c0.2,0.2,0.5,0.1,0.6,0.4c-0.2,0.1-0.2,0.4-0.5,0.5c-0.6-0.2,0-0.7-0.6-1.2c0-0.1-0.1,0.3-0.3,0c-0.2-0.5-0.2-1,0-1.3
			c0.1,0.2,0.2,0.7,0.5,0.5c-0.1-0.2-0.3-0.5-0.2-0.7c-0.4,0.1,0.2,0.3-0.2,0.4c-0.1-0.1-0.1-0.2-0.1-0.3c0,0.2-0.3,0.1-0.3,0.1
			c-0.3-0.3-0.6-0.4-1-0.7c-0.1,0-0.2,0.1-0.2,0.1c-0.1-0.2,0-0.8,0.2-0.9c-0.2-0.2-0.3-0.1-0.4-0.3c0.5,0.1-0.1,0,0.1-0.3
			c-0.2-0.2-0.2,0-0.3,0c0-0.1,0-0.2,0-0.3c-0.3,0.1-0.2,0.7-0.5,0.7c-0.2,0-0.8-0.1-0.9-0.1c0.1-0.3,0.9-1.1,1.3-1.2
			c0.1-0.1-0.3,0-0.4-0.1c-0.4,0-0.2-0.5-0.5-0.6l0,0.3c-0.1,0-0.3-0.3-0.3-0.4c-0.1,0.1-0.2,0.5-0.4,0.5c-0.4-0.3-0.3-1-0.1-1.2
			l0.3,0.7c0.2-0.2-0.2-0.6,0-0.8L49.5,28c0.1,0.1,0.2,0.3,0,0.3c-0.2-0.2-0.1-0.1-0.4-0.1c0,0.5-0.1,1.5-0.2,2l-0.1-0.4l-0.2,0
			c-0.2-0.5,0.2-1.5,0.3-1.8c-0.2-0.1-0.6,0.3-0.6,0.5c-0.4-0.3,0.2-0.9-0.3-1.2l0.2,0C48.3,27.3,47.9,27,48,27
			c-0.2,0-0.4,0.2-0.5,0.3l0-0.6c0,0.1-0.3,0.4-0.4,0.4c-0.1-0.1,0.1-0.6,0.3-0.6c-0.5,0-0.3-0.1-0.8,0c-0.1-0.1,0.3-0.3,0.4-0.3
			c-0.1-0.3-0.2-0.3-0.3-0.4c0.1,0.4-0.6,0.8-0.8,1.1l0.3-1.6c0,0.1-0.3,0.4-0.3,0.5c0.2-0.3-0.4-1.1-0.8-1.4l0,0.1
			c0,0.1-0.3,0-0.4-0.1c-0.4,0,0.1-0.7-0.4-0.7c0.2,0.2,0.2,0.3,0,0.4c-0.1-0.3-0.6-0.6-0.2-0.8c-0.2,0-0.2-0.2-0.4,0l-0.2-0.6
			c0,0.1-0.1,0.2-0.2,0.1c0.3,0.2,0.2,0.7,0.6,0.6c-0.2,0.2-0.4,0.2-0.5,0.5c-0.4-0.6-0.3-1.2-0.3-1.7L42.7,22l0.1-0.1l-0.3,0.2
			c0-0.1,0-0.2,0-0.2c0,0-0.1,0.1-0.1,0.1c0-0.1,0-0.1,0-0.2c-0.1,0.1-0.2,0.3-0.3,0.5c0.1,0,0.2,0,0.2,0c0,0.2-0.1,0.4-0.3,0.3
			c0,0,0-0.1,0-0.1c0,0.1-0.1,0.2-0.2,0.2l-0.2-0.4c0.1,0,0.2,0,0.3,0c0-0.3-0.1-0.8,0.3-0.7l-0.4-0.1c0-0.5,0-0.4-0.2-0.9
			c-0.1,0.1-0.1,0.2-0.2,0.2c0-0.5-0.9-0.3-0.7-0.6c-0.1-0.3,0.1-0.3,0.1-0.5c0,0-0.1,0.1-0.1,0.1l0-0.3c-0.1,0,0,0.3-0.2,0.2
			c-0.2-0.4-0.2-0.7-0.6-0.8c-0.3-0.4,0.5-0.2,0.2-0.4c-0.2,0.1-0.4,0.2-0.6,0.1c0-0.2,0.1-0.3,0-0.5l-0.2,0.2
			C39.2,18,39.2,17.8,39,18c0-0.2-0.1-0.3-0.2-0.3c-0.1-0.3,0.6-0.2,0.7-0.3c-0.4-0.1-0.4-0.3-0.8-0.2l0.1,0.3
			c-0.7-0.2-0.1-0.7-0.7-0.5c0.2,0.1,0.2,0.4,0,0.4L38,17.1c-0.1,0,0.1,0.2-0.1,0.1c0-0.1,0-0.3,0-0.5l0,0l-0.3-0.4
			c0,0.1,0,0.1-0.1,0.1l-0.1-0.4c0,0.1-0.1,0.1-0.3,0c-0.4-0.3,0.2-0.7-0.2-0.8c0,0,0,0.1,0.1,0.1l-0.2,0c0.4-0.5-0.7-0.8-0.2-1.3
			c-0.4,0-0.1,0.1-0.1,0.5l-0.3-0.1c0.1,0.1,0.2,0.1,0.2,0.3c-0.4-0.1-0.4-0.6-0.4-0.8c-0.2,0-0.3,0.4-0.5,0
			c-0.3-0.5,0.4-0.2,0.2-0.5l-0.4,0c-0.1-0.5-0.5-0.6-0.7-0.8c0-0.1,0-0.1,0-0.2c-0.4-0.2-0.3-0.8-0.6-1c0,0.1-0.3,0-0.3,0l-0.2-0.5
			c0,0.2-0.1,0.3-0.2,0.4c-0.1-0.1-0.1-0.3-0.1-0.4c0,0.1,0,0.2-0.1,0.2l-0.1-0.6c0,0,0.1,0,0.1,0.1c-0.1-0.1-0.2-0.4-0.4-0.4
			c0,0.1-0.1,0.2-0.1,0.2c0.3,0,0.2,0.2,0.1,0.3c-0.2-0.3-0.1,0-0.3-0.1c-0.2-0.2,0-0.4,0.1-0.5c-0.2-0.2-0.3-0.2-0.4-0.6l-0.2,0.2
			l-0.1-0.3l-0.1,0.4c-0.5-0.3,0.3-0.4-0.2-0.7l-0.2,0.1c-0.1-0.2,0.2-0.5-0.2-0.5c0-0.3,0.5,0.1,0.2-0.3c-0.2,0-0.3-0.1-0.5-0.2
			c0-0.2,0.3-0.1,0.3,0C30.7,8,30.2,8.7,30,8c0.3,0.1,0.2-0.4,0.6,0C30.5,7.7,30,7.8,30,7.4l-0.1,0.3c-0.1-0.1-0.1-0.2-0.1-0.3
			l-0.2,0.2c0.1-0.5-0.6-0.4-0.3-0.9c-0.2,0.4-0.1-0.2-0.3-0.2c-0.1,0.4,0.5,0.7,0.2,0.9c-0.2,0-0.1-0.2-0.3-0.3c0,0.1,0,0.3,0,0.3
			c-0.4-0.2-0.2-0.7-0.3-1l0.2,0.4c0.3-0.3-0.1-0.2,0.1-0.5c-0.3-0.1-0.2-0.4-0.4-0.5c0,0,0,0.1,0,0.1c-0.3-0.4-0.9-0.2-1-0.3
			c-0.2-0.1-0.2-0.6,0-0.5c0-0.2,0.3,0.6,0.5,0.1c-0.6,0.1-0.2-0.6-0.9-0.9c0,0.3-0.3,0-0.3,0.3c-0.1-0.3-0.1-0.3,0-0.5l-0.2,0
			c0.1-0.5,0.2-0.3,0.1-0.9c0,0.2-0.3-0.1-0.4,0.1c-0.1-0.1-0.2-0.3-0.1-0.5l0,0c-0.1-0.1-0.1-0.2-0.2-0.3c0,0,0,0,0.1,0
			c-0.1,0-0.1-0.1-0.2-0.1c-0.9-0.4-1.8-0.8-2.7-1.1c-0.2-0.1-0.5-0.2-0.7-0.2c-1.1-0.3-2.1-0.5-3.2-0.7l0,0c-0.4,0-0.9-0.1-1.3-0.1
			c0,0,0,0-0.1,0c0,0-0.1,0-0.1,0c-0.4,0-0.9,0-1.3,0c-0.1,0-0.1,0-0.2,0c0,0,0,0,0,0c-0.5,0-0.9,0.1-1.4,0.2
			c-0.6,0.1-1.2,0.3-1.8,0.4c-0.2,0-0.3,0.1-0.5,0.1c-0.8,0.3-1.5,0.6-2.3,1c-0.1,0.1-0.2,0.1-0.3,0.2c0,0-0.1,0-0.1,0.1
			c-0.1,0-0.1,0.1-0.2,0.1C9.3,3,8.9,3.2,8.5,3.5C8.4,3.6,8.2,3.7,8.1,3.8C7.9,3.9,7.7,4.1,7.5,4.2C7.1,4.5,6.7,4.8,6.3,5.1
			c-0.6,0.5-1.1,1-1.6,1.5C4.5,6.9,4.3,7.2,4,7.4C3.7,7.8,3.4,8.3,3.1,8.7c-0.4,0.6-0.7,1.1-1,1.7c0,0.1-0.1,0.1-0.1,0.2
			c-0.3,0.6-0.5,1.2-0.7,1.8C0.4,15.4,0.5,18.6,1.2,21.7z M42.5,22.4c0.1,0,0.2,0,0.2,0.1C42.6,22.5,42.6,22.4,42.5,22.4z
			 M38.6,17.4c0.1,0,0.1,0.2,0.2,0.3C38.6,17.6,38.5,17.7,38.6,17.4z M35.5,36.3c0.2,0.1,0.3,0.1,0.3,0.2
			C35.7,36.5,35.6,36.4,35.5,36.3z M30.8,29c0.2,0,0.2,0.2,0.2,0.4C30.8,29.3,30.7,29.3,30.8,29z M18.5,11.8
			C18.5,11.7,18.6,11.6,18.5,11.8L18.5,11.8z M25.6,37.2c0.2,0.1,0.3,0.1,0.2,0.2C25.7,37.4,25.6,37.3,25.6,37.2z M21.4,30.4
			c0.2,0,0.1,0.2,0.2,0.3C21.4,30.6,21.3,30.6,21.4,30.4z M10.7,14C10.8,13.9,10.8,13.8,10.7,14L10.7,14z M45.5,68.3
			c0,0,0.1,0,0.2,0.1c0,0,0,0,0,0C45.6,68.4,45.5,68.3,45.5,68.3z M24.7,46.8c0.2,0.1,0.3,0.2,0.3,0.3C24.9,47,24.8,46.9,24.7,46.8z
			 M18.3,38.2c0.2,0,0.2,0.3,0.3,0.4C18.4,38.5,18.2,38.5,18.3,38.2z M2.9,17.2c0-0.1,0.1-0.2,0.1,0.1L2.9,17.2z"/>
	</g>
	<g id="XMLID_2671_">
		<g>
			<path id="XMLID_23_" class="st7" d="M78.8,100.5C50.1,80.1,16.2,46.1,9.9,38.5l0,0c-4.2-5-13.4-17.7-8.4-28.2
				C2,9.2,2.7,8.1,3.5,7C4.2,6.2,5,5.4,5.9,4.6C6.3,4.3,6.7,4,7.1,3.7c0.2-0.1,0.4-0.3,0.6-0.4c0.6-0.4,1.2-0.8,1.8-1.1
				c0,0,0.1-0.1,0.1-0.1l0,0c1.1-0.6,2.2-1.1,3.3-1.4c1.1-0.3,2.2-0.5,3.4-0.6c0.1,0,0.1,0,0.2,0C28.2-0.7,39.8,11.5,51,23.3
				l0.6,0.7c15.9,16.7,40,36.9,61.3,51.4c11.6,7.9,18.8,14.3,22.7,20.1c4.6,6.8,4.8,13.2,0.6,19.4c-2.5,3.7-5.7,5.9-9.9,6.7
				c-2.9,0.5-6.4,0.3-10.3-0.7C106.9,118.4,94.7,111.8,78.8,100.5z M16.6,1.3c0,0-0.1,0-0.2,0c-1,0.1-2.1,0.3-3.1,0.6
				c-1,0.3-2,0.7-3.1,1.3l0,0c-0.1,0-0.1,0.1-0.2,0.1C9.5,3.6,9,3.9,8.4,4.3C8.2,4.4,8,4.6,7.9,4.7C7.5,5,7.1,5.3,6.7,5.6
				C5.9,6.3,5.2,7.1,4.5,7.8c-0.8,1-1.4,2-1.9,3c-4.7,9.9,4.2,22.1,8.2,26.9l0,0c6.3,7.5,40.1,41.4,68.7,61.7
				c22.4,15.9,37.3,22.5,46.7,20.8c3.8-0.7,6.7-2.7,9-6.1c7.2-10.8,0.6-21.7-23-37.7C90.9,61.8,66.7,41.6,50.7,24.8l-0.6-0.7
				c-9.4-9.8-19-19.9-28.4-22.4C20,1.4,18.3,1.2,16.6,1.3z"/>
		</g>
	</g>
	<path id="XMLID_2734_" class="st8" d="M104.5,79.3C82,65.1,53.3,38.2,46,31.1c-7.3-7.1-10.4-6.2-2.4,2.9c8,9.2,41.1,38.4,58.7,49.1
		C122.6,95.4,125,92.3,104.5,79.3z"/>
</g>
</svg>
