<?xml version="1.0" encoding="utf-8"?>
<!-- Generator: Adobe Illustrator 25.2.3, SVG Export Plug-In . SVG Version: 6.00 Build 0)  -->
<svg version="1.1" id="Capa_1" xmlns="http://www.w3.org/2000/svg" xmlns:xlink="http://www.w3.org/1999/xlink" x="0px" y="0px"
	 width="79.5px" height="109.5px" viewBox="0 0 79.5 109.5" style="enable-background:new 0 0 79.5 109.5;" xml:space="preserve">
<style type="text/css">
	.st0{fill:#D22024;}
	.st1{fill:#B71820;}
	.st2{fill:#7C0F1A;}
	.st3{fill:#F24E5E;}
	.st4{fill:#FF92A2;}
	.st5{fill:#649936;}
	.st6{fill:#4B7523;}
	.st7{fill:#426619;}
	.st8{fill:#AACE6B;}
	.st9{fill:#C4E57C;}
	.st10{fill:#39421D;}
	.st11{fill:#A51321;}
	.st12{fill:#ED353E;}
</style>
<g id="XMLID_51_">
	<g id="XMLID_2428_">
		<path id="XMLID_2436_" class="st0" d="M43.3,46.9c-36.3,0-40.7-5-40.7-5s1.1-12.9,9.7-14.4c0.3-0.1,0.7-0.1,1-0.2
			c8-1.2,12.5,1.1,12.5,1.1s13-12.4,29.5-1.2c0,0,5.3-1,10.7,0.3c4.9,1.2,9.9,4.3,11.3,11.8C77.4,39.2,79.7,46.9,43.3,46.9z"/>
		<path id="XMLID_2424_" class="st1" d="M77.4,39.2C76,31.7,70.9,28.6,66,27.4c1.9,5.7-14.7,3.1-14.7,3.1l-3.2,0.3
			c2.5-3.9,7.2-3,6-4.2c-1.3-1.3-7.4-3.5-7.4-3.5s3.9,6.2-6.9,7c-10.8,0.8-9.3-5-9.3-5c-1.2,0.5-4.6,2.9-4.6,2.9s1,1.9,2.5,4.7
			L24.9,33c-10.4,0.7-11.5-4.2-11.5-5.7c-0.3,0-0.7,0.1-1,0.2c-8.7,1.5-9.7,14.4-9.7,14.4s4.4,5,40.7,5
			C79.7,46.9,77.4,39.2,77.4,39.2z"/>
		<path id="XMLID_2421_" class="st2" d="M78.2,39c-0.8-4.4-2.9-7.7-6.2-10c-6.2-4.2-14.6-3.2-16.4-2.9c-15-10-27.5-0.9-29.9,1.1
			c-1.5-0.6-6.2-2-13.5-0.8c-3.8,0.7-6.9,3.5-8.7,8.3c-1.4,3.5-1.7,6.8-1.7,6.9l0,0.4L2,42.4c0.5,0.5,5.7,5.3,41.3,5.3
			c24.4,0,32-3.4,34.2-6.3C78.4,40.3,78.2,39.3,78.2,39z M76.1,40.6C71.9,45.5,51.8,46,43.3,46c-31,0-38.5-3.6-39.8-4.6
			c0.3-2.2,1.9-12,9-13.3c5.6-1,9.5-0.2,11.5,0.3c1.9,0.7,4.4,2.3,5.5,5.9l1.3-1c-0.7-2.6-2.1-4.2-3.6-5.2C30,26,40.3,19,53.3,26.7
			c-1.9,0.5-5.9,1.9-7.2,6.7l1.5,0.5c1.6-5.7,6.7-5.8,8.2-6.2c1.5-0.2,9.6-1.3,15.3,2.6c2.9,2,4.8,5,5.5,9
			C76.6,39.4,76.6,39.9,76.1,40.6z"/>
		<path id="XMLID_2409_" class="st3" d="M15.7,29.1c-0.7-1.1,5.4-0.9,8.3,0.5S18.2,32.8,15.7,29.1z"/>
		<path id="XMLID_2427_" class="st4" d="M17.9,29.3c-0.4-0.5,2.7-0.4,4.2,0.2C23.5,30.2,19.1,31.1,17.9,29.3z"/>
		<path id="XMLID_2425_" class="st3" d="M53.8,28.8c2.3-0.6,6.6-1.2,9.4-0.4c2.7,0.9-2.2,1.4-7.4,1.4S53.2,28.9,53.8,28.8z"/>
		<path id="XMLID_2422_" class="st4" d="M56.1,28.6c1.1-0.2,3.3-0.5,4.6-0.1C62,28.8,59.6,29,57,29C54.5,29,55.8,28.7,56.1,28.6z"/>
	</g>
	<g id="XMLID_2418_">
		<path id="XMLID_2536_" class="st5" d="M57.5,35.5c-1.5,1-5.3,2.4-16.5,2.7C29.7,38.4,26.5,37,26.5,37c-1.6-0.2-6-1.4-4.6-2
			c2.1-0.9,3.2-2,4.4-3.4c1.2-1.4,2.9-1.4,3.8-1.5c0.9-0.1,0.6,0.1,4-0.7c0,0,0,0,0,0c0.3-3.7-1.8-14.4-11.1-19.6
			C14.4,5.1,11.2,6,9.3,8.8C9,9.3,8.6,10.2,8,11.2c-0.6,1-3.5,1.1-4.7,0c-1-0.9-3.5-5.5-1.9-7.9C1.6,2.8,2,2.4,2.6,2.2
			c1.6-0.7,2.7-1,3.8-1.1C7.9,0.9,9,1.2,10.5,1.1c2.5-0.1,4.5-0.8,7.8,0.3c3.3,1.1,13.8,3.7,19.2,12.2c2.6,4,4.4,7.8,5.7,11
			c0.9,2.2,1.6,4,2,5.2c0.1,0,0.2,0.1,0.3,0.1c1.4,0.4,3.6,0.3,4.5,0.3c2.6,0,3.4,2.9,5.4,3.4C57.5,34.1,59,34.5,57.5,35.5z"/>
		<path id="XMLID_2534_" class="st6" d="M57.5,35.5c-1.5,1-5.3,2.4-16.5,2.7C29.7,38.4,26.5,37,26.5,37c-1.6-0.2-6-1.4-4.6-2
			c2.1-0.9,3.2-2,4.4-3.4c0.8-0.9,1.9-1.3,2.8-1.4c0.4-0.1,0.7-0.1,1-0.1c0.9-0.1,0.6,0.1,4-0.7c0,0,0,0,0,0
			c0.3-3.7-1.8-14.4-11.1-19.6C14.4,5.1,11.2,6,9.3,8.8C9,9.3,8.6,10.2,8,11.2c-0.6,1-3.5,1.1-4.7,0c0,0,2.7,0.7,3.5-1.7
			C6.8,9.3,6.9,9.2,7,9C6.6,9.8,4.7,10.8,4,9.8C3.4,8.9,3,7.9,3.8,9c1,1.2,2.7,0.3,3-1.2c0.4-1.5,2.5-4.5,6.3-4
			c3.6,0.4,6.7,2.1,5.2,1.6c-1.5-0.5-3.9-1.2-6.5-1c-1,0.1-1.9,0.7-2.7,1.5c0.8-0.6,1.7-1.1,2.8-1.1c2.7-0.2,10.5,1.7,16.3,6.7
			c7.5,6.4,8.2,14.1,8.5,15.9c0.1,0.4,0.1,0.7,0.1,1.1c0,1.2,0.8,4.7,8.5,1.5c1.1,0.4,2.7,0.4,3.8,0.4c0.4,0,0.7,0,1,0
			c2.6,0,3.4,2.9,5.4,3.4C57.5,34.1,59,34.5,57.5,35.5z"/>
		<path id="XMLID_2432_" class="st7" d="M57.5,35.5c-1.5,1-5.3,2.4-16.5,2.7C29.7,38.4,26.5,37,26.5,37c-1.6-0.2-6-1.4-4.6-2
			c2.1-0.9,3.2-2,4.4-3.4c0.8-0.9,1.9-1.3,2.8-1.4c1.4,1.1,4.6,2.8,10.3,2.8c4.7,0,8-1.6,9.9-2.9c0.4,0,0.7,0,1,0
			c2.6,0,3.4,2.9,5.4,3.4C57.5,34.1,59,34.5,57.5,35.5z"/>
		<path id="XMLID_2530_" class="st8" d="M4.7,8.9C4.2,9,3.5,8.1,3.1,6.7v0c0,0,0-0.1,0-0.1c-0.3-1.1-0.3-2.2,0-2.6c0,0,0,0,0,0
			c0.1-0.1,0.2-0.2,0.3-0.2C3.9,3.5,4.7,4.6,5.1,6C5.4,7.5,5.3,8.8,4.7,8.9z"/>
		<path id="XMLID_2532_" class="st6" d="M33.4,16.7C33.4,16.7,33.3,16.7,33.4,16.7L33.4,16.7C33.3,16.7,33.4,16.7,33.4,16.7z"/>
		<path id="XMLID_2539_" class="st6" d="M37.5,27.4c0-0.3-0.1-0.6-0.1-0.9C37.4,26.8,37.5,27.1,37.5,27.4z"/>
		<path id="XMLID_2383_" class="st8" d="M23.8,4.1c0,0,9.8,2.9,14.6,12.1c3.2,6,4.6,9.5,5.2,11.2c0.3,0.8-0.3,1.7-1.2,1.7
			c-1,0-2.4-0.6-3-3.1C34.6,7.4,16.9,2.8,14.1,2.6c-2.8-0.1,0.5-1,2.5-0.8C18.5,2.1,22.8,3.7,23.8,4.1z"/>
		<path id="XMLID_2417_" class="st9" d="M43,27.3c0.3,0.9-0.4,1.6-1,0.2C34.5,8.3,23.3,4.7,21.2,3.9s0.5-0.2,2,0.4
			C28.8,6.7,35.9,9.3,43,27.3z"/>
		<path id="XMLID_2414_" class="st8" d="M4.5,2.6c0.5,0.6,1.4,2.1,1.4,3.9c0,0.3,0.3,0.3,0.4,0.1c0.4-0.7,0.8-1.6,1-2.1
			c0.4-1.1,2-1.8,2.7-1.8c0.7-0.1,0.6-0.8-1.3-0.9C7,1.6,5.8,1.5,4.6,2C4.4,2.1,4.3,2.4,4.5,2.6z"/>
		<path id="XMLID_2527_" class="st9" d="M3.1,6.7L3.1,6.7c0-0.1,0-0.1,0-0.2c-0.3-1.1-0.3-2.2,0-2.6c0,0,0,0,0,0
			c0.1,0,0.5-0.3,1,1.6C4.5,7.6,3.4,7.4,3.1,6.7z"/>
		<path id="XMLID_2416_" class="st9" d="M5,2.6C4.8,2.4,5,2.1,5.9,2.1c0.6,0,1.8,0,2.7,0.1c0.2,0,0.2,0.2,0,0.3
			C6.6,2.8,6.6,4.6,6.3,4.6C5.8,4.6,6,3.5,5,2.6z"/>
		<path id="XMLID_2412_" class="st10" d="M38,39c-8.1,0-11.1-0.9-11.7-1.1c-0.7-0.1-5.3-0.9-5.5-2.4c0-0.2-0.1-0.8,0.7-1.2
			c1.9-0.9,2.9-1.8,4.1-3.2c1.4-1.5,3.2-1.7,4.2-1.7l0.1,0c0.2,0,0.3,0,0.4,0c0.4,0,0.7,0,2.9-0.5c0-3.8-2.2-13.5-10.7-18.2
			C12.7,5.1,10.9,7.8,10,9.3C9.9,9.4,9.7,9.7,9.6,10c-0.2,0.5-0.5,1.1-0.9,1.6c-0.5,0.8-1.6,1-2.2,1.1c-1.1,0.1-2.8,0-3.8-0.9
			c-1-0.9-3.1-4.5-2.6-7.4C0.3,3,1,2,2.3,1.4C5.3,0,7,0.1,8.7,0.2c0.6,0,1.1,0.1,1.8,0.1c0.6,0,1.2-0.1,1.8-0.1
			C14.1,0,16-0.2,18.6,0.7c0.3,0.1,0.6,0.2,1,0.3c4,1.3,13.5,4.2,18.7,12.2c4.1,6.3,6.4,12.4,7.6,15.7l0.1,0.2
			c1,0.2,2.5,0.2,3.4,0.2c0.3,0,0.5,0,0.7,0c1.8,0,2.9,1.2,3.8,2.1c0.6,0.6,1.1,1.2,1.8,1.4l0.2,0c1.7,0.5,2.9,0.8,3,1.7
			c0.1,0.9-0.7,1.4-1,1.6c-2.6,1.6-8.3,2.6-17,2.8C39.9,39,38.9,39,38,39z M23.1,35.3c0.9,0.3,2.4,0.7,3.5,0.9l0.2,0.1
			c0,0,3.4,1.3,14.2,1C51,37,55.2,35.8,56.9,34.9c-0.4-0.1-0.9-0.3-1.4-0.4l-0.2,0c-1.1-0.3-1.8-1.1-2.6-1.8
			C52,31.8,51.2,31,50.1,31c-0.2,0-0.4,0-0.7,0c-1.2,0-3.1,0-4.4-0.4l-0.4-0.1l-0.4-1c-1.2-3.2-3.4-9.2-7.4-15.4
			C32.1,6.6,23,3.8,19.2,2.6c-0.4-0.1-0.7-0.2-1-0.3c-2.3-0.8-3.9-0.6-5.6-0.4c-0.6,0.1-1.3,0.1-2,0.2c-0.7,0-1.3,0-1.9-0.1
			C7,1.8,5.6,1.7,3,2.9C2.2,3.2,1.8,3.8,1.7,4.6c-0.3,2.1,1.3,5.3,2.1,6c0.5,0.4,1.5,0.5,2.4,0.5c1.1,0,1.6-1.4,1.9-1.9
			c0.2-0.4,0.3-0.7,0.5-0.9c2.6-3.8,6.9-3.6,14.8,0.8c9.5,5.3,11.9,16.2,11.5,20.4l0,0.6l-0.7,0.1C31.4,30.9,31,31,30.5,31
			c-0.1,0-0.2,0-0.4,0l-0.2,0c-0.9,0.1-2.2,0.2-3.1,1.2C25.8,33.5,24.7,34.5,23.1,35.3z"/>
	</g>
	<g id="XMLID_2401_">
		<path id="XMLID_2410_" class="st0" d="M76.8,62.9c-0.1,0.4-0.2,0.8-0.2,1.2c-2,9.6-1.6,34.1-10.5,38c-5.3,2.3-7.5,0-12.7,1.2
			c-3.7,4.3-10,5.4-11.9,5.4c-4.3,0-7.7-1.7-12-4.6c-2.3-0.5-3.9,1.8-8.5,1.1c-3.7-0.6-6.9-5.4-9.4-12.3c-1-2.8-2-5.9-2.8-9.3
			C7.8,79.1,7,74.3,6.4,69.4c-2-17.5-6-24.7-2.7-29.9c6.5-10.2,15.4-6.5,18.6-4.1c0.9,0.7,2.8,1.4,3.8,0.8
			c6.5-4.1,20.4-4.8,26.7-0.3c0.4,0.3,0.9,0.6,1.3,0.7c0.7,0.2,1.3,0.2,2-0.4c2.9-2.6,7.3-4.7,11.8-4.1c2.8,0.4,5.6,1.7,8.3,4.4
			C80,40.7,78.8,53.4,76.8,62.9z"/>
		<path id="XMLID_2407_" class="st1" d="M76.8,62.9c-0.1,0.4-0.2,0.8-0.2,1.2c-2,9.6-1.6,34.1-10.5,38c-5.3,2.3-7.5,0-12.7,1.2
			c-3.7,4.3-10,5.4-11.9,5.4c-4.3,0-7.7-1.7-12-4.6c-2.3-0.5-3.9,1.8-8.5,1.1c-3.7-0.6-6.9-5.4-9.4-12.3c-1-2.8-2-5.9-2.8-9.3h0
			c4.3,1.9,11.2-0.5,9.8-15.2c-1.5-14.7,0.6-26.6,2.1-29.6c1.4-2.9-2.8-5-3.3-5.3l7.4,3.2c0,0-1.4,3.1-3.2,12.4
			c-1.9,9.3,2.2,34.5,2.2,34.5s12.2,17.2,24.3-4.8c12.1-22,4.5-42.9,4.5-42.9s0.4-0.1,1.3,0.7c0.7,0.7,1.8,2.2,3.1,5
			c5.2,11.1,1.1,39.2,1.1,39.2s7.4,1.8,9.7-6.1c11.6-40.4-0.2-42.5-0.2-42.5s0,0,0.1,0c2.8,0.4,5.6,1.7,8.3,4.4
			C80,40.7,78.8,53.4,76.8,62.9z"/>
		<path id="XMLID_2406_" class="st11" d="M76.8,62.9c-0.1,0.4-0.2,0.8-0.2,1.2c-2,9.6-1.6,34.1-10.5,38c-5.3,2.3-7.5,0-12.7,1.2
			c-3.7,4.3-10,5.4-11.9,5.4c-4.3,0-7.7-1.7-12-4.6c-2.3-0.5-3.9,1.8-8.5,1.1c-3.7-0.6-6.9-5.4-9.4-12.3c3.5,2.5,11,2.8,9.9-6.2
			c-1.3-10.6,0-22.8,0-22.8c0.9,6.9,4.4,28.7,4.4,28.7s0.4,9.3,14.7,8.2c14.3-1.1,19.2-42.3,19.2-42.3C60.5,72.3,56.7,89,56.7,89
			s8.8,4.5,13.4-5.8C72.7,77.5,74.9,67.6,76.8,62.9z"/>
		<path id="XMLID_2402_" class="st2" d="M76.7,36.1c-3.3-3.4-7.4-5.1-11.6-4.7c-3.4,0.3-6.9,1.8-9.7,4.3c-0.5,0.5-1,0.5-2.3-0.4
			c-6.6-4.8-21-3.9-27.6,0.2c-0.5,0.3-1.9-0.1-2.8-0.8c-2.4-1.8-6.4-3.4-10.5-2.6c-3.6,0.7-6.7,3-9.2,6.9c-2.2,3.5-1.4,7.8,0,14.9
			C3.8,58,4.8,63,5.6,69.5c2,17.3,7.6,35.3,15.4,36.6c2.8,0.4,4.6-0.2,6-0.7c0.9-0.3,1.5-0.5,2.2-0.5c4.4,2.9,7.8,4.7,12.3,4.7
			c1.6,0,8.2-0.9,12.3-5.5c2-0.4,3.5-0.2,5-0.1c2.2,0.2,4.4,0.4,7.6-1c7-3.1,8.5-17.3,9.7-28.8c0.4-3.8,0.8-7.4,1.3-9.8
			C78.5,59,81.8,41.3,76.7,36.1z M26.4,103.8c-1.3,0.5-2.8,1-5.2,0.6c-5.9-0.9-11.7-15.4-14-35.1c-0.8-6.5-1.8-11.6-2.6-15.7
			C3.2,46.7,2.5,42.9,4.4,40c2.3-3.5,5-5.6,8.2-6.2c4.6-0.9,8.5,1.8,9.3,2.3c0.5,0.4,1.3,0.8,2.2,1c-1.3,2.3-3.7,8.7-3.2,24.6
			c0.7,21.9,6,37.3,7.6,41.5C27.7,103.3,27.1,103.5,26.4,103.8z M30.5,102.8c-1.4-1.7-7.3-17.3-8.1-41.1c-0.7-20,2.9-23.8,4.1-24.7
			c5.7-4.4,19.7-4.6,25.7-0.3c0.3,0.2,6.7,4.1,6.7,24.7c0,24-6.2,40-7.3,41.7c-2.9,4.2-8.8,4.9-10,4.9
			C37.5,107.9,33.6,106.6,30.5,102.8z M75.8,63.9c-0.5,2.5-0.9,6-1.3,10c-1.1,10.5-2.6,24.8-8.7,27.5c-2.9,1.3-4.7,1.1-6.8,0.9
			c-1.4-0.1-2.9-0.3-4.7,0c0.7-2,1.7-5.2,2.8-9.7c1.6-6.8,3.5-17.8,3.6-31.3c0-15.4-2.7-21.5-4.7-23.9c0.2-0.1,0.4-0.3,0.6-0.5
			c3.7-3.3,11.8-7,19,0.3C77.9,39.7,79.2,47.9,75.8,63.9z"/>
		<path id="XMLID_2382_" class="st12" d="M59.4,40.7c-0.5-1.3-0.1-2.8,1.1-3.5c2.7-1.6,7.3-3.8,8.9-1.1c2.3,3.8,1.7,15.7,0,21.8
			c-1.7,6.1-5.5,9.7-5.9,0.6C63.5,57.9,62.9,49,59.4,40.7z"/>
		<path id="XMLID_2394_" class="st12" d="M26.3,42.8c0,0,0.9-4.4,5.4-5.1c4.4-0.7,13.4-1.2,16,0c2.6,1.2,2.8,2.6,3.2,5.1
			c0.4,2.6,1.2,19.5-5,27.6s-16.4,10.1-19.7-6.1C24.1,53.5,26.3,42.8,26.3,42.8z"/>
		<path id="XMLID_2396_" class="st12" d="M16.3,40.1c0.3-1.8-1.1-3.4-2.9-3.2c-2.7,0.3-6.1,1.5-6.8,5.4C5.4,49.1,7.4,52,8.1,58.6
			c0.7,6.5,6.5,12.7,6.4,5.7C14.4,58.7,15.1,46.3,16.3,40.1z"/>
		<path id="XMLID_2399_" class="st3" d="M14.6,40.7c0.3-1.1-1.1-1.7-2.2-1.7c-1.7,0.1-3.4,0.3-4,2.7c-1,4.3,0.1,6.2,0.3,10.4
			c0.2,4.2,3.6,8.3,3.8,3.9C12.6,52.3,13.6,44.6,14.6,40.7z"/>
		<path id="XMLID_2397_" class="st3" d="M63.7,37.4c0.8-0.6,2.7-1.6,3.7-0.7c1.5,1.5,2.3,14,1,17.7c-1.3,3.6-2.2-2.9-2.8-6.2
			C64.8,43,61.9,38.8,63.7,37.4z"/>
		<path id="XMLID_2400_" class="st3" d="M28.3,43.6c0-0.4,0.7-3.7,3.6-4s12.2-0.9,13.8-0.5c1.7,0.5,3.4,1.9,3.5,4.4
			c0.1,2.5-1.9,21.4-11.8,21.8C27.5,65.7,27.9,50.9,28.3,43.6z"/>
		<path id="XMLID_2405_" class="st4" d="M63.9,38.9c0,0-0.1-0.7,1.1-1.2c1.3-0.5,1.9-0.4,2.1,0c0.3,0.4,0.7,1.7,0.8,2.5
			s-0.4-0.1-1.5-0.5C65.5,39.3,64.3,40.3,63.9,38.9z"/>
		<path id="XMLID_2408_" class="st4" d="M13.3,41.7c0,0,0.4-1.6-1-1.7c-1.3-0.1-2,0.1-2.2,0.5C9.8,41,9.3,42.3,9.3,43
			c-0.1,0.7,0.4-0.1,1.4-0.5C11.7,42.1,13,43.1,13.3,41.7z"/>
		<path id="XMLID_2411_" class="st4" d="M44.5,40.2c-0.7-0.1-11.3,0.4-12.9,0.8c-1.5,0.3-1.6,3.3-1.6,3.3c-0.2,4,2.2,0.9,4.7-0.6
			c1.1-0.7,3.6-0.9,6.1-1c0,0,0,0,0,0c2.4-0.1,6.7,3.4,6.9,1.9C47.9,43,47.4,40.5,44.5,40.2z"/>
	</g>
</g>
</svg>
