<?xml version="1.0" encoding="utf-8"?>
<!-- Generator: Adobe Illustrator 25.2.3, SVG Export Plug-In . SVG Version: 6.00 Build 0)  -->
<svg version="1.1" id="Capa_1" xmlns="http://www.w3.org/2000/svg" xmlns:xlink="http://www.w3.org/1999/xlink" x="0px" y="0px"
	 width="56.7px" height="93px" viewBox="0 0 56.7 93" style="enable-background:new 0 0 56.7 93;" xml:space="preserve">
<style type="text/css">
	.st0{fill:#4D7B35;}
	.st1{fill:#416B2B;}
	.st2{fill:#5F892E;}
	.st3{fill:#557E25;}
	.st4{fill:#72A535;}
	.st5{fill:#86BF41;}
	.st6{fill:url(#SVGID_1_);}
	.st7{opacity:0.86;fill:#CF8D23;}
	.st8{opacity:0.8;fill:#BD7B21;}
	.st9{opacity:0.53;fill:#F1D743;}
	.st10{opacity:0.6;fill:#F8E895;}
	.st11{opacity:0.6;fill:#B6671D;}
	.st12{opacity:0.47;fill:#EAC243;}
	.st13{opacity:0.24;fill:#995114;}
	.st14{opacity:0.71;fill:#86591C;}
	.st15{opacity:0.93;fill:#9B6C1B;}
	.st16{fill:#FFFFFF;}
	.st17{opacity:0.58;fill:#FFFFFF;}
	.st18{opacity:0.42;fill:#FFFFFF;}
</style>
<g>
	<g>
		<g>
			<path class="st0" d="M15,14.9c0-2-0.5-3.7-0.8-5.6c-0.2-2.1-0.9-4.6-1.8-6.5c2.7,0.2,5.2,3,7.1,4.6c1.2,1,1.9,2.3,3,3.3
				c0.8-1.1,1-3.8,1-5.1c0.1-1.8-0.3-3.9,0.1-5.7c3.7,2.6,5.4,6.4,6.5,10.6c-0.4-1.4,3.1-4.5,4.1-5.2c1.3-1,3.8-2.6,5.5-2.4
				c0.1,0-1.9,3.5-2,3.9c-0.4,1.2-0.6,2.6-1,3.9c-0.8,3-1.8,5.3-4.1,7.5c-3.7,3.6-10.1,3.8-14.2,0.5C17.1,17.7,15.9,15.8,15,14.9z"
				/>
			<path class="st1" d="M17,16c0.2-1.3,0.5-2.6,0.4-3.9c-0.1-1.4-0.5-2.4,1.2-1.5c0.8,0.4,1.7,1.1,2.3,1.7c0.2,0.2,1,1.3,1.2,1.3
				c0.7,0.1,1-1.7,1.3-2.2c0.5-1.1,1.3-2.1,1.8-3.3c0.2-0.5,0.4-1.3,0.7-1.7C26.3,6,26,6.1,26.5,6.4C27.4,7,28,8.8,28.4,9.8
				c0.4,0.9,0.4,2.3,1.3,2.9c0.2,0.2,3.3-3.4,3.6-3.7c0.4-0.4,1.7-1.7,2.4-1.2c0.5,0.4-0.2,1.8-0.2,2.3c-0.2,1.1,0.3,2.3-0.2,3.3
				c-0.5,1.1-1.5,2.1-2.3,3c-1.3,1.5-2.4,2.8-4.4,3.4c-3.2,0.9-7.5,0.1-10.5-1.5C16.9,17.5,16.5,16.7,17,16z"/>
			<path class="st2" d="M32.7,1.4l-0.1-0.1C32.7,1.3,32.7,1.3,32.7,1.4z"/>
			<path class="st2" d="M44.3,9c-1.7,1.7-3.4,3.1-4.6,4.9c-0.5,0.8-1,1.6-1.3,2.6c-1.1,3.1-1.6,6.4-2.1,9.6
				c-2.3-0.6-4.4-0.8-6.7-0.8c-2.1,0-4.1-0.1-6.2-0.2c-0.9,0-2.1,0.2-3,0C18,24.6,18,21,16.6,21c0-1-2.1-2.7-3.3-3.9
				c-0.3-0.2-0.5-0.4-0.6-0.6c-1.7-1.9-3.2-3.4-5.4-4.7c1.6-0.5,3.5,0,5,0.6c1.7,0.6,3.6,1.1,5,2.3c0,0,0.1,0.1,0.2,0.1
				c0.9,0.7,3.5,2.4,3.5,2.8c0-1.1-0.1-2.3-0.2-3.4c0,0,0,0,0,0c-0.1-1.1-0.3-2.2-0.5-3.3c-0.3-1.5-1.1-2.8-1.5-4.3
				C18.7,6.1,18.3,5.1,19,5c0.5-0.1,2.3,1.3,2.7,1.6c1.1,0.8,1.9,1.9,2.7,2.9c0.7,0.9,1.6,1.8,2.1,2.8c0.3,0.5,0.5,1,0.5,1.6
				c0.3-1.2,0.6-2.4,0.9-3.6c0.4-1.3,0.7-2.5,1.2-3.8c0.5-1.4,1-2.9,2-4.1c0.4-0.5,1-0.8,1.4-1.3l0.1,0.1h0
				c-0.8,2.5-0.6,5.3-0.2,7.9c0.1,0.6,0.1,1.1,0.1,1.7c0,0.7,0.1,1.3,0.3,1.9c0.6-1,1.6-1.9,2.8-2.6C38.3,8.8,42,8.2,44.3,9z"/>
			<path class="st3" d="M18.9,21.4c-0.6-1.3-1.3-2.5-1.9-3.7c-0.4-0.8,0.1-0.7,0.8-0.4c1.3,0.5,2.6,1.3,3.7,2.2
				c0.9,0.7,1.8,1.4,2.6,2c0-0.7,0.2-1.5,0.3-2.2c0.2-0.9,0.3-2,0.8-2.8c0.3-0.6,0.5-0.8,0.8,0c0.2,0.7,0.4,1.5,0.7,2.2
				c0.5,0.9,1,1.9,1.8,2.6c0.1-1.7,0.3-3.1,1.1-4.7c0.4-1,0.6-2.1,1.2-3c0.2-0.3,0.6-1,0.9-0.8c0.2,0.2,0,1.3,0,1.5
				c0,2.2-0.2,5,1.6,6.6c0.3-0.2,0.5-0.6,0.7-0.9c0.5-0.8,1-1.5,1.5-2.3c0.5-0.7,0.9-1.6,1.6-2.2c0.3-0.3,0.7-0.6,0.7-0.1
				c0.1,0.5-0.8,1.6-1,2.1c-0.6,1.4-0.7,2.9-1,4.3c-0.1,0.7-0.3,1.8-1,2.2c-1.1,0.7-3.4,0.3-4.6,0.3c-3.1,0-6.5,0-9.4-1.4
				C19.9,22.7,19,22,18.9,21.4z"/>
			<path class="st4" d="M39.2,28.7c0,1,0.1,2,0.5,2.9c-1.3-0.9-3.1-1.2-4.6-1.5c-2.8-0.6-5.8-1.2-8.7-1c-1.8,0.1-3.7,0.9-5.6,0.8
				c-1.1-0.1-1.1-0.1-1.4-0.8c0-0.1-0.1-0.2-0.2-0.4c-0.3-0.5-0.5-0.8-0.9-1.2c-0.2-0.3-0.5-0.5-0.7-0.8c-1.6-1.9-2.9-3.5-5.2-4.8
				c0,0-0.1,0-0.1-0.1c-1.4-0.8-2.8-1-4.2-1.6c3.2-2,10.3,0.3,13.2,2c-0.5-3.5-0.9-9,2.5-11.4c0.6,2.3,0.7,4.7,1.5,7
				c0.1,0.2,0.1,0.4,0.2,0.6c0.8,1.7,2.1,2.9,3,4.5c1.1-0.7,2.1-1.9,3-3.2c1.7-2.7,2.6-6.2,2.6-8.8c1.8,2,1.5,5.5,1.8,8
				c0.1,0.7,0.2,1.3,0.2,2c0.2,1.5,0.3,3,0.1,4.6c1.8-3.2,5.5-5,8.9-5.9c-2.5,2.1-4.8,3.9-5.6,7.3C39.3,27.4,39.2,28.1,39.2,28.7z"
				/>
			<path class="st2" d="M39.6,31.6c-1.3-0.9-3.1-1.2-4.6-1.5c-2.8-0.6-5.8-1.2-8.7-1c-1.8,0.1-3.7,0.9-5.6,0.8
				c-1.1-0.1-1.1-0.1-1.4-0.8c0-0.1-0.1-0.2-0.2-0.4c-0.3-0.5-0.5-0.8-0.9-1.2c-0.2-0.3-0.5-0.5-0.7-0.8c-0.1-0.5-0.1-1,0.3-1.2
				c0.9-0.5,2.6,0.5,3.4,0.8c0.4-0.9,0.8-2.4,2.2-2.1c0.6,0.1,1.5,1.1,2,1.4c0.2,0.1,0.3,0.5,0.5,0.6c0.5,0.1,0.8-0.7,1.2-0.8
				c1.1-0.4,1.2,0.9,2.1,0.8c1.3,0,2.3-2.3,3.2-0.7c0.7,1.3,0.7,2,2.4,1.2c0.6-0.3,1.4-1,2.2-0.8c0.7,0.2,0.3,0.5,0.5,1.2
				c0.2,0.9,1,1.2,1.5,1.6C39.1,29.8,39.3,30.8,39.6,31.6z"/>
			<path class="st5" d="M23.7,10.8c0.6,2.3,0.7,4.7,1.5,7c-0.1-0.1-0.1-0.1-0.2-0.2c-0.5-0.5-1-1.1-1.4-1.7
				c-0.3-0.4-0.3-0.9-0.6-1.2c-0.9,1.5-1.1,3.5-1.4,5.2c-0.2,0.9-0.2,2-0.5,2.9c-1.1-0.3-2.5-0.3-3.7-0.5c-1.7-0.3-3.6-1-5.3-1
				c0,0.2,0.1,0.4,0.1,0.6c0,0-0.1,0-0.1-0.1c-1.4-0.8-2.8-1-4.2-1.6c3.2-2,10.3,0.3,13.2,2C20.7,18.7,20.4,13.1,23.7,10.8z"/>
			<path class="st5" d="M36,20.7c-0.2-0.6-0.4-1.2-0.7-1.8c-0.4-1-0.9-2-0.8-3.1c-0.4,1.5-1.6,3-3.1,3.8c1.7-2.7,2.6-6.2,2.6-8.8
				c1.8,2,1.5,5.5,1.8,8C35.9,19.4,35.9,20.1,36,20.7z"/>
			<path class="st4" d="M13.3,17.3C13.3,17.3,13.3,17.3,13.3,17.3C13.2,17.2,13.3,17.3,13.3,17.3z"/>
			<path class="st4" d="M17.5,15c-2.1-0.6-4.3-0.9-6.4-1.4c0.5,0.9,1.9,2.3,2.2,3.6c-0.3-0.2-0.5-0.4-0.6-0.6
				c-1.7-1.9-3.2-3.4-5.4-4.7c1.6-0.5,3.5,0,5,0.6c1.7,0.6,3.6,1.1,5,2.3C17.4,14.8,17.4,14.9,17.5,15z"/>
			<path class="st4" d="M24.4,9.5c0.7,0.9,1.6,1.8,2.1,2.8c-0.9-0.4-1.6-1.3-2.2-2c-1.1-1.1-2.4-1.7-3.6-2.6
				c0.4,1.5,0.9,2.9,0.5,4.5c-0.1,0.6-0.3,1.4-0.5,2.1c-0.1-1.1-0.3-2.2-0.5-3.3c-0.3-1.5-1.1-2.8-1.5-4.3C18.7,6.1,18.3,5.1,19,5
				c0.5-0.1,2.3,1.3,2.7,1.6C22.8,7.4,23.6,8.4,24.4,9.5z"/>
			<path class="st4" d="M32.6,1.2l0.1,0.1h0c-0.8,2.5-0.6,5.3-0.2,7.9c0.1,0.6,0.1,1.1,0.1,1.7c-0.6-1.5-1.6-3.3-1.5-5
				c-1.1,1.4-2.1,2.9-3,4.4c0.4-1.3,0.7-2.5,1.2-3.8c0.5-1.4,1-2.9,2-4.1C31.6,2,32.1,1.7,32.6,1.2z"/>
			<path class="st4" d="M32.7,1.4l-0.1-0.1C32.7,1.3,32.7,1.3,32.7,1.4z"/>
			<path class="st4" d="M44.3,9c-1.7,1.7-3.4,3.1-4.6,4.9c0.1-1.1,0.5-2.2,0.8-3.3c-1.3-0.4-2.8-0.6-4.1-0.5c-0.2,0-0.5,0-0.8,0.1
				C38.3,8.8,42,8.2,44.3,9z"/>
		</g>
		<linearGradient id="SVGID_1_" gradientUnits="userSpaceOnUse" x1="-5.2018" y1="50.8615" x2="60.4591" y2="69.8859">
			<stop  offset="0" style="stop-color:#E5B933"/>
			<stop  offset="0.4859" style="stop-color:#E1B02E"/>
			<stop  offset="1" style="stop-color:#D48022"/>
		</linearGradient>
		<path class="st6" d="M56.6,69.4c0,0.1,0,0.2,0,0.3c0,0.4,0,0.8-0.1,1.2c0,0.4-0.1,0.8-0.1,1.3c-0.2,1.6-0.5,3.1-1,4.6v0
			c-0.3,1.1-0.8,2.1-1.2,3.1c-0.1,0.2-0.2,0.5-0.4,0.7v0c-0.3,0.5-0.5,1-0.8,1.4c-1.4,2.2-3.1,4-5.2,5.6c-1.1,0.8-2.4,1.6-3.7,2.2
			c-1.5,0.7-3.1,1.4-4.9,1.8c0,0,0,0,0,0c-1.4,0.4-3,0.7-4.6,0.9c0,0,0,0,0,0c-1.2,0.2-2.5,0.3-3.9,0.4c-0.1,0-0.3,0-0.4,0
			c0,0,0,0,0,0c-0.8,0-1.5,0.1-2.3,0.1c-2.6,0-5.3-0.2-8-0.7c0,0,0,0,0,0c-2-0.4-3.9-0.9-5.8-1.6c-0.6-0.2-1.2-0.5-1.9-0.8l0,0
			c0,0,0,0,0,0h0c-1.2-0.6-2.4-1.3-3.4-2.1v0c-0.1-0.1-0.2-0.1-0.2-0.2c-1.7-1.3-3.2-3-4.4-5.1c-0.2-0.4-0.5-0.9-0.7-1.3
			c-0.3-0.6-0.6-1.3-0.9-2c-0.7-1.8-1.3-3.9-1.7-6l0,0c0,0,0,0,0,0c-0.1-0.7-0.3-1.4-0.4-2.1c0,0,0,0,0,0c0-0.1,0-0.1,0-0.2
			C0,68-0.1,65.1,0.1,62.2c0-0.1,0-0.2,0-0.4c0-0.3,0.1-0.7,0.1-1c0.1-0.9,0.2-1.8,0.4-2.6c0.2-1.5,0.6-3,0.9-4.5c0,0,0,0,0,0
			c0.4-1.5,0.8-2.9,1.3-4.3c0-0.2,0.1-0.3,0.2-0.5c0.2-0.6,0.4-1.2,0.7-1.8c0.5-1.2,1-2.4,1.6-3.6c0.6-1.2,1.3-2.4,2-3.5
			c0.3-0.5,0.6-0.9,0.9-1.3c0.4-0.6,0.8-1.1,1.2-1.7c0.4-0.6,0.9-1.1,1.4-1.6c0.6-0.7,1.2-1.3,1.8-1.9c0.3-0.3,0.6-0.6,0.9-0.9h0
			c1.2-1.1,2.5-2,3.8-2.8c0.1-0.1,0.2-0.1,0.3-0.2c0,0,0,0,0.1,0c0.5-0.3,1.1-0.6,1.6-0.8c1.5-0.7,3-1.2,4.6-1.6
			c0.3-0.1,0.6-0.1,0.9-0.2c0.3-0.1,0.7-0.1,1-0.1c0.1,0,0.2,0,0.3,0c0.6-0.1,1.2-0.1,1.8-0.1s1.2,0,1.8,0.1
			c0.9,0.1,1.7,0.2,2.6,0.4c0,0,0,0,0.1,0c0.7,0.2,1.4,0.4,2,0.6c1.8,0.6,3.5,1.6,5.2,2.7c0.7,0.5,1.4,1.1,2.1,1.7
			c0.5,0.4,0.9,0.8,1.3,1.3c2.9,2.9,5.4,6.6,7.5,10.8v0c0.1,0.2,0.2,0.3,0.2,0.5c0.4,0.9,0.8,1.7,1.2,2.6v0c0,0,0,0,0,0
			c0.9,2.2,1.8,4.5,2.4,6.9c0.3,1,0.5,1.9,0.8,2.9c0.1,0.5,0.2,0.9,0.3,1.4c0.2,0.8,0.3,1.6,0.5,2.3c0,0.2,0.1,0.5,0.1,0.7
			c0.2,1.3,0.4,2.6,0.5,3.8C56.6,66.9,56.6,68.2,56.6,69.4z"/>
		<path class="st7" d="M27.8,93c-1.5,0-3.1-0.1-4.6-0.2l0,0c-5.2-0.5-10.4-1.9-14.5-5v0c-1.8-1.4-3.4-3.1-4.6-5.3
			c-1.5-2.6-2.6-5.8-3.3-9.3c5.5,7.5,10.7,7.5,10.8,7.5c12.3,2.5,21.8-7.9,21.8-7.9c10.8-11.9,9-38.4-8.9-42.7
			c-0.4-0.1-6.2-0.6-6.8-0.4c2.2-1.3,4.6-2.1,7-2.6c0.3-0.1,0.7-0.1,1-0.1c0.7-0.1,1.4-0.1,2.1-0.1c9,0,16.2,6.2,21.3,15.2
			c0,0,0,0,0,0c3.1,5.5,5.4,12.1,6.7,19.1C59.5,79.6,49.8,93.1,27.8,93z"/>
		<path class="st8" d="M27.8,93c-6.6,0-13.8-1.2-19.1-5.3v0c18.2,5.7,30-7.5,30-7.5c3.8-4.3,5.9-9.6,6.9-15.2
			c1.2-6.4,1.4-13.2-0.9-19.2c-0.8-2.1-1.8-4.2-2.9-6.2c-2.2-3.9-5.2-7.4-9-9.9c-0.3-0.2-5.1-2.5-7.2-2.9c0.7-0.1,1.4-0.1,2.1-0.1
			c14.5,0,24.6,16.1,28.1,34.3C59.5,79.6,49.8,93.1,27.8,93z"/>
		<path class="st9" d="M23.5,36.1c0.4,0.3,0.8,0.6,1.2,0.9c5.1,4.4,4.4,14.9,1.7,20.7c-3.1,6.8-9.8,10.3-16.6,8
			c0,0-6.6-3.3-5.1-16.1c0.4-3.2,2.2-6.7,4-9.1C12.4,35.6,18.6,33.1,23.5,36.1z"/>
		<path class="st10" d="M13,36.9c-2.5,1.8-4.4,4.7-5.7,7.1C6,46.5,5.6,51,6.4,53.8c0.8,2.8,4.5,4.6,7.5,4.2
			c7.5-0.9,12.4-10,10.5-16.5C24,40,23.2,38.4,22,37.3C19.4,34.7,15.9,34.8,13,36.9z"/>
		<path class="st11" d="M42.9,33.6c-14.9-8.3-28.7-1.4-29.4-1c1.3-1.2,2.6-2.1,4.1-3c0,0,0,0,0.1,0c2.2-1.3,4.6-2.1,7-2.6
			c0.3-0.1,0.7-0.1,1-0.1c0.7-0.1,1.4-0.1,2.1-0.1C33.6,26.8,38.7,29.4,42.9,33.6z"/>
		<path class="st12" d="M34.3,28C32,30.5,23.8,38.2,8.2,38.7c0.4-0.6,0.8-1.1,1.2-1.7c3.4-0.5,13.7-2.4,22.9-9.7
			C32.9,27.5,33.6,27.7,34.3,28z"/>
		<path class="st12" d="M41.6,32.4c-3,3.2-16.3,15.7-38.5,16.8v-0.2c0.2-0.6,0.4-1.2,0.7-1.8c4-0.5,25.2-3.7,35.7-16.5
			C40.2,31.2,40.9,31.8,41.6,32.4z"/>
		<path class="st12" d="M46.7,38.1c0,0-10.8,17.6-46.4,22.8c0.1-0.9,0.2-1.8,0.4-2.6c5.5-0.6,30.2-4.5,44.4-22.3L46.7,38.1z"/>
		<path class="st12" d="M51.8,47.6C47.3,53,30.3,70.8,0.8,73.1c-0.2-0.8-0.3-1.5-0.4-2.3c5-0.2,30.9-2.6,50-26.4
			C50.9,45.4,51.4,46.5,51.8,47.6z"/>
		<path class="st12" d="M55.1,57.4c-5.3,5.8-24.9,24.9-51.7,23.8c-0.3-0.6-0.6-1.3-0.9-2c6.2,0.2,30.7-0.5,51.8-24.6
			C54.6,55.4,54.8,56.4,55.1,57.4z"/>
		<path class="st12" d="M56.6,69.4C51.6,75,36.2,90,12.2,89.9l0,0c0,0,0,0,0,0h0c-1.2-0.6-2.4-1.3-3.4-2.1v0
			c-0.1-0.1-0.2-0.1-0.2-0.2c6.2,0.4,30.1,0.4,48-21.9C56.6,66.9,56.6,68.2,56.6,69.4z"/>
		<path class="st13" d="M55.4,76.7c-0.4,1.3-1,2.6-1.6,3.8v0c-2.9,3.2-7.8,7.8-14.7,11.1c0,0,0,0,0,0c-2.5,0.7-5.4,1.2-8.5,1.3
			C35.6,91.3,44.5,87,55.4,76.7z"/>
		<path class="st12" d="M51.8,47.5c-4.2-1.3-17-6.2-22.2-20.6c0.9,0.1,1.7,0.2,2.6,0.4c1.9,4,7.6,13.9,18.4,17.5
			C51,45.7,51.4,46.6,51.8,47.5z"/>
		<path class="st14" d="M51,45.7c-4.2-1.3-13.5-4.6-19.4-18.5c0.9,0.1-0.3-0.1,0.6,0.1c1.9,4,7.6,13.9,18.4,17.5
			C51,45.7,50.7,44.8,51,45.7z"/>
		<path class="st12" d="M56,61.8c-5.2-2-23.6-10.8-32.2-34.6c0.3-0.1,0.6-0.1,0.9-0.2c0.3-0.1,0.7-0.1,1-0.1c0.1,0,0.2,0,0.3,0
			c2,5.1,10.4,23.5,29.4,31.8c0.2,0.8,0.3,1.6,0.5,2.3C55.9,61.3,56,61.6,56,61.8z"/>
		<path class="st14" d="M25.5,27c9.2,23.5,24.9,30.5,30.1,32.6c0-0.2-0.1-0.5-0.1-0.7c-0.2-0.8,0.1,0.7-0.1-0.1
			C36.4,50.4,28,32,26,26.9c-0.1,0-0.2,0-0.3,0L25.5,27z"/>
		<path class="st12" d="M56.6,69.6c0,0.4,0,0.8-0.1,1.2c0,0.4-0.1,0.8-0.1,1.3c-7-2.6-30.8-13.3-39-42.2c0.1-0.1,0.2-0.1,0.3-0.2
			c0,0,0,0,0.1,0c0.5-0.3,1.1-0.6,1.6-0.8C21.5,36.2,30.2,57.9,56.6,69.6z"/>
		<path class="st14" d="M56.6,69.6c0,0.4,0-0.2,0,0.2c0,0.4,0,0,0,0.4C49.5,67.7,27,56.5,18.7,29c0.1-0.1,0.2-0.1,0.3-0.2
			c0,0,0,0,0.1,0c0.5-0.3-0.3,0.2,0.2,0C21.5,36.2,30.2,57.9,56.6,69.6z"/>
		<path class="st12" d="M54.2,79.8c-0.1,0.2-0.2,0.5-0.4,0.7v0c-0.3,0.5-0.5,1-0.8,1.4c-6.2-2.6-33-15.6-42.2-46.5
			c0.6-0.7,1.2-1.3,1.8-1.9C13.8,37.4,23.2,64.3,54.2,79.8z"/>
		<path class="st14" d="M54.2,79.8c-0.1,0.2-0.2,0.5-0.4,0.7v0c-0.3,0.5,0.3-0.5,0,0C47.6,77.9,22.4,64.4,12.1,34
			c0.6-0.7-0.2,0.1,0.5-0.5C13.8,37.4,23.2,64.3,54.2,79.8z"/>
		<path class="st12" d="M47.7,87.5c-1.1,0.8-2.4,1.6-3.7,2.2c-7.9-4-31.3-18-38.6-46.2c0.6-1.2,1.3-2.4,2-3.5
			C8.9,46.5,17.6,74.3,47.7,87.5z"/>
		<path class="st14" d="M47.7,87.5c-1.1,0.8,0.2,0.2-1.1,0.8c-12.9-6.4-31.9-19.2-40-47.2c0.6-1.2,0,0,0.7-1.1
			C8.9,46.5,17.6,74.3,47.7,87.5z"/>
		<path class="st12" d="M34.5,92.6c-1.2,0.2-2.5,0.3-3.9,0.4c-0.1,0-0.3,0-0.4,0c0,0,0,0,0,0C23.3,89.1,8.3,78.1,1.6,53.7
			c0,0,0,0,0,0c0.4-1.5,0.8-2.9,1.3-4.3C4.6,56.2,11.7,78.6,34.5,92.6z"/>
		<path class="st14" d="M33.3,92.7c0.2,0.1,1-0.2,1.1-0.1C11.7,78.6,4.6,56.2,2.9,49.4L2.3,51C2.3,51,8.4,77.8,33.3,92.7z"/>
		<path class="st12" d="M19.8,92.3c-2-0.4-3.9-0.9-5.8-1.6C10.6,87.5,4.6,80.8,0.4,71c0,0,0,0,0,0c0-0.1,0-0.1,0-0.2
			C0,68-0.1,65.1,0.1,62.2C2.1,68.3,7.7,81.9,19.8,92.3z"/>
		<path class="st14" d="M0.1,62.2c2.2,7.4,9,20.4,19.7,30.1L18.4,92c0,0-13.9-13-18.4-27.8L0.1,62.2z"/>
		<path class="st14" d="M34.3,28C32,30.5,23.8,38.2,8.2,38.7c0.4-0.6,0,0,0.4-0.6c11.1-0.9,18.4-4.1,25-10.4
			C34.3,27.9,33.6,27.7,34.3,28z"/>
		<path class="st14" d="M41.6,32.4c-3,3.2-16.3,15.7-38.5,16.8v-0.2c0.2-0.6,0,0,0.2-0.6c4.3,0,24.3-1.9,37.6-16.6
			C41.6,32.3,40.9,31.8,41.6,32.4z"/>
		<path class="st14" d="M46.7,38.1c0,0-10.8,17.6-46.4,22.8c0.1-0.9-0.1,0,0.1-0.9c5.5-0.6,32.2-4.6,45.8-22.5L46.7,38.1z"/>
		<path class="st14" d="M51.8,47.6C47.3,53,30.3,70.8,0.8,73.1c-0.2-0.8-0.1,0-0.2-0.8c5-0.2,31-2.2,50.9-25.6
			C52,47.7,51.6,46.9,51.8,47.6z"/>
		<path class="st14" d="M55.1,57.4c-5.3,5.8-24.9,24.9-51.7,23.8c-0.3-0.6-0.1,0-0.3-0.7c6.2,0.2,30.1,0,51.8-24
			C55.1,57.3,54.8,56.4,55.1,57.4z"/>
		<path class="st14" d="M12.1,89.9C36.2,90,51.6,75,56.6,69.4c0-1.2,0.1,0.1,0-1.2c0,0-7.5,10.3-24.4,17.4c0,0-8.8,3.7-21.2,3.8
			L12.1,89.9z"/>
		<path class="st11" d="M56.5,70.8c-1,13.3-10.8,22.3-28.7,22.2c-6.6,0-13.8-1.2-19.1-5.3v0c-1.8-1.4-3.4-3.1-4.6-5.3
			c-1.5-2.6-2.6-5.8-3.3-9.3c0,0,8.8,14,25.3,14.2C26.1,87.3,44.9,87.1,56.5,70.8z"/>
		<path class="st15" d="M27.8,93c-1.5,0-3.1-0.1-4.6-0.2l0,0c18.3,0.8,27-12.6,27-12.6c7.3-14-0.7-37.2-1.1-38.2
			c3.1,5.5,5.4,12.1,6.7,19.1C59.5,79.6,49.8,93.1,27.8,93z"/>
	</g>
	<path class="st16" d="M11.5,44.9c-0.4,0.1-0.8-0.1-1-0.4c-0.3-0.6-0.7-1.1-0.9-1.8c-0.1-0.4-0.6-1-0.5-1.3c0-0.5,0.4-0.6,0.9-0.8
		c0.8-0.4,2.3-1.4,3-0.6c0.5,0.6,0.6,1.6,0.9,2.3c0.2,0.5,0.7,1.5,0,1.8C13.2,44.6,12.3,44.8,11.5,44.9z"/>
	<path class="st17" d="M15.2,52.5c-0.4-0.2-0.6-1-0.8-1.3c-0.2-0.4-0.6-0.7-0.7-1.1c-0.5-1,1-1.4,1.7-1.8c0.4-0.2,1.1-0.7,1.6-0.6
		c0.3,0.1,0.6,0.8,0.7,1.1c0.5,0.9,1.2,2,0.1,2.7c-0.6,0.3-1.2,0.6-1.9,0.9C15.7,52.4,15.4,52.6,15.2,52.5z"/>
	<path class="st17" d="M5.3,50.7c0.1-0.1,0.2-0.2,0.3-0.3C6.1,50,6.9,50,7.5,49.9c0.4-0.1,0.8-0.2,1.1,0.2c0.2,0.3,0.3,0.7,0.5,1
		c0.1,0.3,0.4,0.7,0.4,1.1c0.1,0.5-0.3,0.6-0.6,0.9c-0.5,0.4-1.5,1.1-2.2,0.6c-0.5-0.3-0.7-0.9-0.9-1.4C5.5,51.7,5.1,51.2,5.3,50.7z
		"/>
	<path class="st17" d="M17.6,38.8C17.6,38.7,17.6,38.7,17.6,38.8c0.4-0.4,1.2-0.4,1.6-0.6c0.4-0.2,1-0.7,1.5-0.4
		c0.5,0.3,0.7,1,0.9,1.5c0.2,0.5,0.6,1,0.5,1.6c-0.1,0.6-0.8,0.7-1.3,0.8c-0.5,0.1-1.1,0.1-1.6,0.2c-0.4,0.1-0.6,0.2-0.9-0.1
		c-0.3-0.2-0.4-0.7-0.5-1C17.7,40.2,17.2,39.2,17.6,38.8z"/>
	<path class="st17" d="M14.6,36c-0.4-0.4-0.8-1.3-0.6-1.7c0.1-0.3,0.7-0.6,0.9-0.8c0.3-0.3,0.7-0.6,1.1-0.8c0.3-0.2,0.6-0.4,0.9-0.2
		c0.2,0.2,0.4,1,0.5,1.4c0.2,0.4,0.4,0.9,0.3,1.4c-0.1,0.5-0.4,0.5-0.8,0.6c-0.6,0.2-1.7,0.8-2.3,0.3C14.7,36.1,14.6,36.1,14.6,36z"
		/>
	<path class="st18" d="M11.8,62c-0.3-0.5-1-1-1.1-1.6c-0.1-0.7,0.9-0.8,1.6-1c0.9-0.2,1,0.1,1.5,0.8c0.4,0.6,0.7,1.1,0.1,1.6
		c-0.3,0.2-0.8,0.4-1.1,0.5C12.1,62.4,12.2,62.2,11.8,62z"/>
</g>
</svg>
