<?xml version="1.0" encoding="utf-8"?>
<!-- Generator: Adobe Illustrator 25.2.3, SVG Export Plug-In . SVG Version: 6.00 Build 0)  -->
<svg version="1.1" id="Capa_1" xmlns="http://www.w3.org/2000/svg" xmlns:xlink="http://www.w3.org/1999/xlink" x="0px" y="0px"
	 width="90.7px" height="76.8px" viewBox="0 0 90.7 76.8" style="enable-background:new 0 0 90.7 76.8;" xml:space="preserve">
<style type="text/css">
	.st0{fill:#AC9625;}
	.st1{fill:#BCAD2F;}
	.st2{fill:#96801E;}
	.st3{opacity:0.83;fill:#E8D13A;}
	.st4{fill:url(#SVGID_1_);}
	.st5{opacity:0.84;fill:#C39A25;}
	.st6{opacity:0.96;fill:#FAF055;}
	.st7{opacity:0.71;fill:#FBF5B7;}
	.st8{opacity:0.46;fill:#FBF2EA;}
	.st9{opacity:0.94;fill:#FBF2EA;}
	.st10{fill:url(#SVGID_2_);}
	.st11{opacity:0.69;fill:#EFC331;}
	.st12{opacity:0.71;fill:#FCF7CC;}
	.st13{fill:#AF9F2A;}
	.st14{fill:#644F37;}
	.st15{opacity:0.51;fill:#F2D153;}
	.st16{fill:#7D5D43;}
	.st17{fill:#9D8655;}
	.st18{fill:#5D4029;}
</style>
<g>
	<path class="st0" d="M87.5,15.4l-0.2-0.1l-6.9-2.5c0,0,0-0.1-0.1-0.1l-0.3-0.5l-1.5-2.4L78.1,9l1-6.8l0.5,0.2L83.3,4l1.1,0.4
		c0,0-0.3,2.4,0.8,6c0.5,1.5,1.2,3.1,2.3,4.9C87.5,15.3,87.5,15.3,87.5,15.4z"/>
	<path class="st1" d="M74.8,14c0.1-0.1,0.7-2.8,1.5-5.7c0.7-2.5,1.5-5.1,2.2-6.3l1,0.3c0,0,0,0,0,0C79.5,3,78.8,7,79.5,10.2
		c0.1,0.8,0.4,1.5,0.7,2.1c0.1,0.2,0.2,0.4,0.3,0.5c0,0,0,0.1,0.1,0.1L74.8,14z"/>
	<path class="st2" d="M87.5,15.4l-7-2.5l-0.1-0.1c0-0.1,0-0.1,0-0.2c0.4-0.7,1.1-0.9,1.8-1.1c0.5-0.1,0.9-0.6,0.9-1.2
		c0-0.2,0-0.4-0.1-0.8c-0.1-0.7-0.2-1.5-0.4-2.2c-0.1-0.7,0-1.3,0-2c0-0.4-0.1-1.1,0.3-1.3C83.1,4,83.2,4,83.3,4l1.1,0.4
		C84.4,4.4,83.7,9.4,87.5,15.4z"/>
	<path class="st3" d="M87.4,15.2C87.4,15.3,87.4,15.3,87.4,15.2l-6.9-2.4L74.8,14c0.1-0.1,0.7-2.8,1.5-5.7C76.6,8.6,77,8.8,77.1,9
		c0.5,0.3,1,0.6,1.5,0.9c0.1,0,0.1,0.1,0.2,0.1c0.2,0.1,0.4,0.2,0.7,0.3c0.9,0.3,1.9,0.4,3,0.3c1,0,1.8-0.3,2.8-0.1
		C85.6,11.8,86.4,13.5,87.4,15.2z"/>
	
		<linearGradient id="SVGID_1_" gradientUnits="userSpaceOnUse" x1="74.7835" y1="-31.7688" x2="99.647" y2="-9.0683" gradientTransform="matrix(0.9548 0.2972 -0.2972 0.9548 -39.0954 29.7088)">
		<stop  offset="0.4262" style="stop-color:#EFC433"/>
		<stop  offset="0.5892" style="stop-color:#E9BF34"/>
		<stop  offset="0.8116" style="stop-color:#D7B037"/>
		<stop  offset="1" style="stop-color:#C39F3A"/>
	</linearGradient>
	<path class="st4" d="M76.5,29c-4.7,11.4-11.5,18.6-11.5,18.6c-12.8,9.8-29.3,8.6-29.3,8.6C14.8,52.6,10.2,43.1,9.6,41.5
		c-0.1-0.1-0.1-0.2-0.1-0.2c-0.6-1.6-0.7-3.3-0.7-4.5c0-0.9,0.5-1.7,1.2-2.1c0.9-0.6,1.7-0.9,2-1c0.2-0.1,0.3-0.1,0.3-0.1
		c0.1,0,0.3,0,0.4,0c0.1,0,0.2,0,0.4,0c1.8,0,3.7,0.1,5.5,0.3c5.3,0.7,10.4,1.3,15.8,1.1c4.4-0.2,8.8-0.7,13.1-1.8
		c6-1.5,11.8-4.1,16.7-8c2.6-2,4.8-4.4,6.7-7.1c1.7-2.4,3.5-4.4,6.5-5.2c0.1,0,2.7-0.4,3-0.1l0,0l0,0.1C80,18.8,78.4,24.3,76.5,29z"
		/>
	<path class="st5" d="M76.5,29c-4.7,11.4-11.5,18.6-11.5,18.6c-12.8,9.8-29.3,8.6-29.3,8.6c-22.8-3.9-26.1-15-26.1-15
		c-0.6-1.6-0.7-3.3-0.7-4.5c0-0.1,0-0.3,0.1-0.4c0.1-0.7,0.6-1.3,1.2-1.7c0.8-0.5,1.5-0.8,1.9-1c0.1,0,0.1,0,0.1,0
		c0,0.1,0,0.2,0,0.4c0.4,2.8,3.2,10.7,22.3,13.9c2.6,0.4,5.7-0.1,8.2-0.5c2.6-0.4,5.2-0.9,7.7-1.8c3.2-1.1,5.8-2.3,8.6-4.2
		c1.6-1.1,3.1-2.3,4.5-3.7c3.9-3.8,6.9-8.4,9.4-13.2l0.1-0.2c0.6-1.1,1.1-2.3,1.6-3.4L76.5,29z"/>
	<path class="st6" d="M80.5,12.9C80.5,12.9,80.5,12.9,80.5,12.9c-4.2,1-11.1,11.1-11.1,11.1c-4.5,7.2-13,10.4-13,10.4
		c-10.1,4.8-22.2,5-22.2,5c-11,0.3-18.4-3.9-21-5.7c0.2,0,0.5,0,0.7,0c1.6,0,3.2,0.1,4.8,0.3c5.3,0.7,10.4,1.3,15.8,1.1
		c4.4-0.2,8.8-0.7,13.1-1.8c6-1.5,11.8-4.1,16.7-8c2.6-2,4.8-4.4,6.7-7.1c1.7-2.4,3.5-4.4,6.5-5.2C77.6,12.9,80.2,12.5,80.5,12.9
		L80.5,12.9L80.5,12.9z"/>
	<path class="st7" d="M80.5,12.8L80.5,12.8c-4.2,1.1-11.1,11.1-11.1,11.1c-4.5,7.2-13,10.4-13,10.4c-10.1,4.8-22.2,5-22.2,5
		c-11,0.3-18.4-3.9-21-5.7c0.2,0,0.5,0,0.7,0c0,0,13,6.8,29.8,3.2c0,0,14.8-2.9,21.8-9.9c0,0,2-1.8,4.5-5.6
		C70,21.2,74.7,12.8,80.5,12.8z"/>
	<path class="st8" d="M35,40.6c0,0.1,0,0.3,0.1,0.5c0.5,0.9,2.8,1.4,3.7,1.4c1.1,0.1,2.2,0.1,3.3,0c1.7-0.1,3.4-0.3,5.1-0.7
		c1.8-0.4,3.4-1.1,5-2.1c0.8-0.5,3.3-2,3.3-2.9c0-1.8-2.5,0-3.1,0.3c-2.4,1.1-5.1,1.8-7.7,2.3c-2.3,0.4-4.6,0.6-6.9,0.5
		C37.3,40.1,35.1,39.8,35,40.6z"/>
	<path class="st9" d="M61,33.2c-1.2-0.2-4.3,2.5-2.5,2.9c0.8,0.2,2.2-0.8,2.7-1.3C61.7,34.5,62.2,32.9,61,33.2z"/>
	<g>
		
			<linearGradient id="SVGID_2_" gradientUnits="userSpaceOnUse" x1="86.865" y1="-13.3069" x2="117.8775" y2="8.6502" gradientTransform="matrix(0.9548 0.2972 -0.2972 0.9548 -39.0954 29.7088)">
			<stop  offset="0.4262" style="stop-color:#EFC433"/>
			<stop  offset="0.6088" style="stop-color:#EBC234"/>
			<stop  offset="0.7835" style="stop-color:#E0BB39"/>
			<stop  offset="0.9545" style="stop-color:#CCB040"/>
			<stop  offset="1" style="stop-color:#C6AC43"/>
		</linearGradient>
		<path class="st10" d="M81.9,54.1c-2.5,3.5-5.2,6.9-8.3,9.9c-1.6,1.5-3.2,3-5,4.3c-4.3,3.2-9.2,4.9-14.3,6.6c0,0-27,9.2-52.3-12.7
			c0,0-0.2-0.1-0.5-0.4c-0.1-0.1-0.1-0.2-0.2-0.3c-0.4-0.6-1-1.9-1.4-4.3c-0.1-0.7,0.1-1.5,0.6-2c0.7-0.7,2-1.8,3.9-2.5
			c0.2-0.1,0.4-0.2,0.7-0.2c0.1,0,0.2-0.1,0.4-0.1c0.7-0.2,1.4-0.3,2.2-0.4c0.8-0.1,2.2,0.6,2.9,0.8c2.6,0.6,5.2,1.1,7.8,1.4
			c16.8,2,36.3-2.1,47-16.1c3.2-4.3,5.8-9,7.9-14c0-0.1,0.1-0.2,0.1-0.3c0.4-1.5,3.4-12.5,10.3-11.5c1.8,0.3,3.5,2.7,4.3,4.1
			c3.5,6.1,2.8,14.2,1.7,20.9C88.9,43.6,85.5,49,81.9,54.1z"/>
		<path class="st5" d="M81.9,54.1c-2.5,3.5-5.2,6.9-8.3,9.9c-1.6,1.5-3.2,3-5,4.3c-4.3,3.2-9.2,4.9-14.3,6.6c0,0-27,9.2-52.3-12.7
			c0,0-0.3-0.1-0.6-0.7c0.7-1,1.7-1.7,2.4-2c0.4-0.2,0.7-0.3,0.7-0.3c8.4,6.8,21.2,8.5,21.2,8.5C58.5,72.6,74.2,53,74.2,53
			c16.1-22,9.6-40.6,9.6-40.6c0.2,0,0.4,0.1,0.6,0.2c1.6,0.6,3,2.7,3.8,4c3.5,6.1,2.8,14.2,1.7,20.9C88.9,43.6,85.5,49,81.9,54.1z"
			/>
		<path class="st11" d="M53.3,68.1c0,0-31,8.7-49.5-8.6c0.4-0.2,0.7-0.3,0.7-0.3c8.4,6.8,21.2,8.5,21.2,8.5
			C58.5,72.6,74.2,53,74.2,53c16.1-22,9.6-40.6,9.6-40.6c0.2,0,0.4,0.1,0.6,0.2c1.5,2.9,4.6,10.9,0.8,24.1
			C85.2,36.7,79.5,61,53.3,68.1z"/>
		<path class="st6" d="M78.2,20.6c-1.5,5.3-6.4,16.2-6.4,16.2c-10.9,16.7-28.6,21-28.6,21c-21.9,4.7-38-5.4-38-5.4
			C6,52.3,6.8,52.1,7.7,52c0.8-0.1,2.2,0.6,2.9,0.8c2.6,0.6,5.2,1.1,7.8,1.4c16.8,2,36.3-2.1,47-16.1c3.3-4.3,5.9-9.1,8-14.1
			c0,0,3-12.8,10.4-11.6C80.3,13.3,78.2,20.6,78.2,20.6z"/>
		<path class="st12" d="M79.1,22.6C73.5,42.8,61,50.9,61,50.9C43.4,64,24.2,60.2,24.2,60.2c-13.9-1.5-19.7-7.4-19.7-7.4
			c0.2-0.1,0.4-0.2,0.7-0.2c0,0,16.1,10,38,5.4c0,0,17.7-4.3,28.6-21c0,0,4.9-11,6.4-16.2c0,0,2.1-7.3,5.6-8.2
			C81.1,14.5,79.1,22.6,79.1,22.6z"/>
		<path class="st13" d="M5.5,58.4c0,0-1.8,2.3-3.8,3.4c-0.1-0.1-0.1-0.2-0.2-0.3c-0.2-0.4-0.5-0.9-0.8-1.8C0.4,59,0.2,58.2,0,57.2
			c-0.1-0.7,0.1-1.5,0.6-2c0.6-0.6,1.6-1.4,2.9-2.1c0.3-0.1,0.6-0.3,0.9-0.4c0.2-0.1,0.4-0.2,0.7-0.2c0.1,0,0.2-0.1,0.4-0.1
			C5.8,53.7,6.1,56.4,5.5,58.4z"/>
		<path class="st14" d="M3.8,56.9c0,0-1.1,2-3.2,2.8C0.4,59,0.2,58.2,0,57.2c-0.1-0.7,0.1-1.5,0.6-2c0.6-0.6,1.6-1.4,2.9-2.1
			C3.8,53.8,4.2,55.3,3.8,56.9z"/>
		<path class="st8" d="M70,45.6c0.5-0.7,1-1.3,1.5-2c0.7-1,1.4-2.8,2.6-3.1c2.2-0.6,0.4,3,0,3.9c-1.4,2.9-3,5.2-5.2,7.5
			c-3.9,4.3-9.5,8-14.8,8.7c-0.9,0.1-4.9,1.1-4.4-0.4c0.3-1.1,2.1-1.4,2.9-1.8c1.5-0.7,3-1.1,4.4-1.8c3.8-2,7.4-4.6,10.4-8
			C68.3,47.6,69.2,46.6,70,45.6z"/>
		<path class="st9" d="M76.2,38.6c1.3-0.5,2.7-2.2,3-3.5c0.5-1.9-1.3-2.3-2.4-0.9c-0.5,0.7-1,1.5-1.2,2.3C75.5,36.9,75,39,76.2,38.6
			z"/>
	</g>
	<path class="st15" d="M72.7,24.6c-2.4,4.8-5.5,9.4-9.4,13.2c-1.4,1.4-2.9,2.6-4.5,3.7c-2.7,1.9-5.4,3.1-8.6,4.2
		c-2.5,0.8-5.1,1.4-7.7,1.8c-2.5,0.4-5.7,0.9-8.2,0.5C15.3,44.8,12.5,36.9,12.1,34c1,1.7,6.2,9.5,19.5,11.8c0,0,8.4,2.8,23.7-3.7
		C55.4,42.2,66,35.7,72.7,24.6z"/>
	<path class="st13" d="M14.3,37.8c-0.2,0.9-1.9,1.9-2.7,2.4c-0.6,0.5-1.3,0.9-2,1.3c0,0,0,0-0.1,0c-0.1-0.1-0.1-0.2-0.1-0.2
		c-0.3-0.8-0.5-1.7-0.6-2.5c-0.1-0.8-0.1-1.4-0.1-2c0-0.9,0.5-1.7,1.2-2.1c0.8-0.5,1.5-0.8,1.9-1c0.1,0,0.1,0,0.1,0
		c0.2-0.1,0.3-0.1,0.3-0.1c0.1,0,0.3,0,0.4,0C13.3,34.9,14.6,36.3,14.3,37.8z"/>
	<path class="st14" d="M11.7,37.4c-0.3,0.6-1.8,1.4-2.5,1.4c-0.1,0-0.2,0-0.3,0c-0.1-0.8-0.1-1.4-0.1-2c0-0.9,0.5-1.7,1.2-2.1
		c0.8-0.5,1.5-0.8,1.9-1C12.2,34.9,12.2,36.5,11.7,37.4z"/>
	<path class="st16" d="M85.2,3.3c-0.1,0.4-0.4,1.2-0.7,1.4c-0.6,0.5-1.4,0-2.1-0.2c-1.1-0.3-2.2-0.6-3.3-0.8c-0.4-0.1-1-0.1-1.2-0.5
		c-0.1-0.1-0.1-0.2-0.1-0.3c0-0.1,0-0.2,0-0.4c0-0.2,0.1-0.4,0.1-0.5c0.1-0.5,0.4-1.1,0.8-1.6c0.2-0.2,0.4-0.3,0.6-0.4
		c0.5-0.2,1.6,0.3,2.1,0.4C82.2,0.6,83,0.8,83.8,1c0.4,0.1,1.6,0.3,1.8,0.6c0.1,0.1,0.1,0.3,0,0.5C85.6,2.5,85.3,3.1,85.2,3.3z"/>
	<path class="st17" d="M85.6,2.1c-0.4,0-0.9,0-1.1,0c-1.2,0-2.2-0.5-3.4-0.8c-0.3-0.1-0.6-0.1-0.9-0.1c-0.4,0-0.8,0.2-1.2,0.1
		c-0.5-0.1-0.5-0.5-0.4-1c0.2-0.2,0.4-0.3,0.6-0.4c0.5-0.2,1.6,0.3,2.1,0.4C82.2,0.6,83,0.8,83.8,1c0.4,0.1,1.6,0.3,1.8,0.6
		C85.7,1.7,85.7,1.9,85.6,2.1z"/>
	<path class="st18" d="M85.6,2.1c-0.1,0.4-0.3,0.9-0.4,1.2c-0.1,0.4-0.4,1.2-0.7,1.4c-0.6,0.5-1.4,0-2.1-0.2
		c-1.1-0.3-2.2-0.6-3.3-0.8c-0.4-0.1-1-0.1-1.2-0.5c-0.1-0.1-0.1-0.2-0.1-0.3c0-0.1,0-0.2,0-0.4c0.8,0,2,0.5,2.4,0.6
		c1.1,0.2,2.5,0.4,3.6,0.2c0.5-0.1,0.8-0.3,1.1-0.6C85.1,2.7,85.4,2.3,85.6,2.1z"/>
</g>
</svg>
