<?xml version="1.0" encoding="utf-8"?>
<!-- Generator: Adobe Illustrator 25.2.3, SVG Export Plug-In . SVG Version: 6.00 Build 0)  -->
<svg version="1.1" id="Capa_1" xmlns="http://www.w3.org/2000/svg" xmlns:xlink="http://www.w3.org/1999/xlink" x="0px" y="0px"
	 width="915.4px" height="565.3px" viewBox="0 0 915.4 565.3" style="enable-background:new 0 0 915.4 565.3;" xml:space="preserve"
	>
<style type="text/css">
	.st0{fill:#E8B87D;}
	.st1{fill:#DBE3E8;}
	.st2{fill:#CAD1D4;}
	.st3{opacity:0.37;fill:#FFFFFF;}
	.st4{fill:#DAAD74;}
	.st5{fill:#C69D6C;}
	.st6{fill:#B08A64;}
	.st7{opacity:0.29;fill:#FFFFFF;}
</style>
<g>
	<path class="st0" d="M15.1,290.1c-2.8,0.6-5.7,1.1-8.2,3c-6.2,4.8-7,16.2-6.9,25.8c0.1,18.3,1.3,38.5,11,51.4
		c6.8,9.1,16.6,12.8,25.9,15.8c8.9,2.9,17.8,5.5,26.7,7.8c6.8,1.8,14.1,3.3,20.5-0.5c7.4-4.5,11.4-15,14.3-25.1
		c2.7-9.4,4.8-19.1,5.4-29.1c1.5-26.6-10-53.4-27.1-66.7C56.3,256.7,36.7,285.4,15.1,290.1z"/>
	<path class="st1" d="M690.9,34.1c5.4-3,11-6.3,14-11.7c3.9-6.7,3.6-16.3,10-20.6c5.1-3.4,12.1-1.6,17.2,1.8
		c4.8,3.3,8.7,8.1,10.1,13.8c1.3,5.7-0.3,12.1-4.7,15.9c10.9,0,21,9,22.3,19.8c0.8,6.3-2.4,13.9-8.7,15c-6,1-11.2-4.2-17.2-5.8
		c-7.5-2-15.1,2.2-21.9,6.1c-14.2,8.2-28.7,15.7-43.5,22.7c-12.3,5.8-25,11.2-38.3,14c-13.3,2.8-27.5,2.9-40.3-1.7
		c-6.4-2.3-13.3-7.2-12.9-14.1c1.2-20.7,36.1-20.6,49.3-24.6C649.2,57.8,670.3,45.9,690.9,34.1z"/>
	<g>
		<path class="st2" d="M759.8,53.1c-1.3-10.8-11.4-19.8-22.3-19.8c4.4-3.8,6-10.2,4.7-15.9c-1.3-5.7-5.3-10.5-10.1-13.8
			c-4.4-3-10.3-4.7-15.1-2.9c2.1,0.6,4.2,1.6,6,2.9c4.8,3.3,8.7,8.1,10.1,13.8c1.3,5.7-0.3,12.1-4.7,15.9c10.9,0,21,9,22.3,19.8
			c0.6,5.3-1.5,11.6-6,14c2.1,0.8,4.2,1.3,6.5,1C757.4,67,760.5,59.4,759.8,53.1z"/>
		<path class="st2" d="M724.7,62.3c-7.5-2-15.1,2.2-21.9,6.1c-14.2,8.2-28.7,15.7-43.5,22.7c-12.3,5.8-25,11.2-38.3,14
			c-4.5,0.9-9,1.6-13.6,1.8c7.6,0.5,15.3-0.3,22.8-1.8c13.3-2.8,26-8.2,38.3-14c14.8-6.9,29.3-14.5,43.5-22.7
			c4.1-2.4,8.6-4.8,13.1-6C725,62.4,724.9,62.3,724.7,62.3z"/>
	</g>
	<path class="st3" d="M630,75c0.8,1.8,2.9,2.7,4.9,2.7c2,0,3.8-0.9,5.6-1.6c5.5-2.4,10.9-4.8,16.4-7.3c9.6-4.2,19.2-8.5,28.2-13.9
		c4.8-2.9,9.5-6.4,11.7-11.5c0.3-0.8,0.5-1.7,0.1-2.3c-0.9-1.2-2.7-0.2-3.8,0.8c-3.4,3.2-6.9,6.4-10.9,8.8
		C675.9,54.4,625.8,65.3,630,75z"/>
	<path class="st3" d="M712.5,8c-0.5,2.4,1.5,4.6,1.6,7c0.1,1.9-0.9,3.6-1.5,5.4c-0.6,1.8-0.5,4.1,1.2,5.1c0.9,0.6,2.1,0.5,3.2,0.2
		c4.8-1.3,8-6.5,7.7-11.5c-0.1-2-0.7-4-2-5.5C720.9,6.3,713.6,3,712.5,8z"/>
	<path class="st1" d="M846.5,199.8c5.4-3,11-6.3,14-11.7c3.9-6.7,3.6-16.3,10-20.6c5.1-3.4,12.1-1.6,17.2,1.8
		c4.8,3.3,8.7,8.1,10.1,13.8c1.3,5.7-0.3,12.1-4.7,15.9c10.9,0,21,9,22.3,19.8c0.8,6.3-2.4,13.9-8.7,15c-6,1-11.2-4.2-17.2-5.8
		c-7.5-2-15.1,2.2-21.9,6.1c-14.2,8.2-28.7,15.7-43.5,22.7c-12.3,5.8-25,11.2-38.3,14c-13.3,2.8-27.5,2.9-40.3-1.7
		c-6.4-2.3-13.3-7.2-12.9-14.1c1.2-20.7,36.1-20.6,49.3-24.6C804.8,223.4,825.8,211.6,846.5,199.8z"/>
	<g>
		<path class="st2" d="M915.3,218.7C914,208,903.9,199,893.1,199c4.4-3.8,6-10.2,4.7-15.9c-1.3-5.7-5.3-10.5-10.1-13.8
			c-4.4-3-10.3-4.7-15.1-2.9c2.1,0.6,4.2,1.6,6,2.9c4.8,3.3,8.7,8.1,10.1,13.8c1.3,5.7-0.3,12.1-4.7,15.9c10.9,0,21,9,22.3,19.8
			c0.6,5.3-1.5,11.6-6,14c2.1,0.8,4.2,1.3,6.5,1C912.9,232.7,916.1,225.1,915.3,218.7z"/>
		<path class="st2" d="M880.3,228c-7.5-2-15.1,2.2-21.9,6.1c-14.2,8.2-28.7,15.7-43.5,22.7c-12.3,5.8-25,11.2-38.3,14
			c-4.5,0.9-9,1.6-13.6,1.8c7.6,0.5,15.3-0.3,22.8-1.8c13.3-2.8,26-8.2,38.3-14c14.8-6.9,29.3-14.5,43.5-22.7
			c4.1-2.4,8.6-4.8,13.1-6C880.5,228,880.4,228,880.3,228z"/>
	</g>
	<path class="st0" d="M574.7,56.9c23.4-6.2,47.1-14,71.3-12.1c5.4,0.4,11.5,1.8,14,6.6c1.6,3,1.4,6.6,1.1,10
		c-3.6,42.1-10.2,89.6-44.5,114.4c-20.1,14.5-45.9,18-70.7,19.3c-47.4,2.6-97.2-1.7-137.9-26.2c-15.5-9.3-30.7-24.5-28.8-42.5
		c3.2-31.5,50.1-47.6,76.5-51.2C495.9,69.8,535.1,67.4,574.7,56.9z"/>
	<path class="st4" d="M631.2,97.7c-26.3-2.8-51.6-11.4-77.3-17.2c-48.1-10.8-98-11.5-147.1-7.8c-61.3,4.5-122.6,15.8-179.4,39.4
		c-56.7,23.7-108.9,60.2-145.7,109.5c-24.6,32.9-42.2,72-45.2,113c-3,41,9.8,83.9,38.6,113.3c32.5,33.1,80.4,45.4,126.3,53
		c82.4,13.6,166.7,16.5,249.8,8.6c72-6.9,148.3-24.7,196.7-78.4c27.6-30.6,43.2-69.9,58.3-108.3c16.8-42.8,33.6-85.5,50.3-128.3
		c6.9-17.6,13.9-35.6,15.7-54.4c1.8-18.9-2.2-39.1-15-53.1c-17.1-18.7-35.7-15.6-54-4.9C680.3,95.3,657.8,100.5,631.2,97.7z"/>
	<path class="st0" d="M465.5,73.4c-12.1-1.1-24.3-1.8-36.5-2.1c-6.9,0.3-13.8,0.7-20.6,1.2C347,77.1,285.7,88.3,229,112
		C172.2,135.6,120,172.2,83.3,221.5c-9.1,12.2-17.3,25.3-24.1,39c15,3.8,37.3-20.6,45.9-27.7c25.8-21.2,51.1-43,76-65.2
		c11.8-10.5,24-21.5,39.2-25.9c3.6-1,7.8-1.6,10.7,0.8c6,4.8,0.1,14.1-5.7,19.2c-38.2,33.2-76.4,66.4-114.5,99.6
		c-5,4.3-10.5,10-9.2,16.5c1.2,5.9,7.9,9.4,13.9,9c6-0.4,11.4-3.7,16.4-7.1c41.9-28.2,76.7-67.1,122.1-89.2
		c20.8-10.1,43.2-16.4,65.5-22.2c24.7-6.4,49.8-12.3,72.7-23.6c19.8-9.9,37.4-23.6,54.8-37.2c11.7-9.2,23.4-18.3,35.2-27.5
		C478.5,74.9,471.6,73.9,465.5,73.4z"/>
	<path class="st5" d="M772.1,141.2c1.8-18.9-2.2-39.1-15-53.1c-3.6-3.9-7.2-6.8-10.9-9c-1.1,1.4-3.1,2.8-3.3,5
		c-0.6,8.2,13.6,22.5,8.8,44.9c-16.5,77.1-43.3,102.1-79.6,150.2c-16.5,21.9-36.2,42-60.3,55.1c-33.5,18.3-72.8,21.8-110.9,25
		c-97.3,8.1-194.7,16.2-292,24.2c-28.6,2.4-57.6,4.7-86,0.6c-28.4-4.2-56.8-15.5-76.2-36.7c-3.2-3.5-6.6-7.4-10.3-10.4
		C33.8,377.7,46.5,420,75,449c32.5,33.1,80.4,45.4,126.3,53c82.4,13.6,166.7,16.5,249.8,8.6c72-6.9,148.3-24.7,196.7-78.4
		c27.6-30.6,43.2-69.9,58.3-108.3c16.8-42.8,33.6-85.5,50.3-128.3C763.3,178,770.3,160,772.1,141.2z"/>
	<path class="st0" d="M484.7,238.8c28-32.9,66-54.5,106.3-60.4c7.6-1.1,17.5-0.1,20,8.2c2.6,8.8-5.8,16.1-13,20
		c-30.5,16.5-63.9,29.7-86.8,57.8c-13.5,16.6-22.2,37.1-29.2,58.1c-6.5,19.5-9.4,49.3-20.7,65.6c-13.3,19.2-31.1-3.8-32.2-22.1
		c-1.2-18.4,11-40.3,16.6-56.8C454.6,283.1,467.4,259,484.7,238.8z"/>
	<path class="st6" d="M262.9,445.6c23.3-18.6,44-40.7,64.1-63.4c5.9-6.6,12-13.7,14.2-22.7c4.2-17.1-7.8-34.9-22.7-42.1
		c-3,11.4-6.2,23.2-12.9,32.6c-10.8,15.2-28.6,21.9-45.1,28.7c-27.8,11.6-54.6,26.1-79.9,43.1c-11.2,7.6-22.2,15.7-31.6,25.8
		c-6.2,6.7-12.1,16.2-8.9,25.1c1.9,5.4,6.8,9,11.9,10.5c5.1,1.5,10.5,1.3,15.8,1c7.3-0.4,15,0.8,22.2,0.1c8.6-0.9,18.1-5.8,26-9.4
		C232.7,467.4,248.3,457.2,262.9,445.6z"/>
	<path class="st6" d="M420.8,462.6c8.5,14,21.3,25.3,37.2,29.2c15.9,3.9,32.6,2.5,48.9,0.5c22-2.7,43.9-6.4,65.6-11.1
		c6.9-1.5,13.8-3.1,20.4-5.6c23.9-9.1,41.6-29.1,58.4-48.4c10.7-12.3,22.1-26.6,20.7-42.9c-0.1-1.2-0.3-2.4-1.1-3.3
		c-1.2-1.4-3.3-1.5-5.2-1.4c-62.3,2.1-121.8,29.8-184.1,30.4c-15.3,0.1-40.1-55.2-52.6-43.9C418.2,375.8,400.4,428.9,420.8,462.6z"
		/>
	<g>
		<path class="st0" d="M70.2,455.3c-26.9,22.5-28,39.1-26.5,55.2c1.5,16.2,17.8,26.5,33,32.2c31.8,12,66.1,15.2,99.9,17.6
			c31.4,2.2,62.9,3.9,94.4,4.9c8.5,0.3,17.1,0.5,25.1-2.2c6.9-2.3,12.9-6.7,18.8-11.1c45.1-33.4,89-68.2,131.9-104.4
			c-34.3,17.9-69,34.9-104.2,50.8c-8.6,3.9-17.5,7.8-27,8.5c-15.1,1.1-29.4-6.1-43.2-12.3c-28.3-12.7-58.3-21.7-88.9-26.9
			c42.8-31.5,85.7-63,128.5-94.6c9.8-7.2,20.5-15.9,21.7-28.1c1.1-11.4-6.7-21.8-15.8-28.7c-22.4-17.1-49.6-31.3-93.2-24
			c-49.9,8.3-64.7,31.8-83.3,60C115.3,392,106.9,424.6,70.2,455.3z"/>
		<path class="st4" d="M446.9,447.5c-16.4,8.6-33,16.9-49.6,25.1c-2.1,2-4.2,3.9-6.2,5.9c-24,22.6-49.7,44.7-80.9,55.2
			c-9.5,3.2-19.5,5.3-29.5,4.4c-10.5-1-20.4-5.1-30.3-8.9c-50.7-19.4-105.1-28.9-159.4-28c-11.8,0.2-24.3,0.7-34.6-5.1
			c-4.1-2.3-6.6-7.9-9.3-12.7c-4.2,9.7-4.1,18.4-3.4,27c1.5,16.2,17.8,26.5,33,32.2c31.8,12,66.1,15.2,99.9,17.6
			c31.4,2.2,62.9,3.9,94.4,4.9c8.5,0.3,17.1,0.5,25.1-2.2c6.9-2.3,12.9-6.7,18.8-11.1C360.1,518.5,404.1,483.7,446.9,447.5z"/>
		<path class="st4" d="M187.5,468c-1.3-0.2-2.7-0.5-4-0.7c42.8-31.5,85.7-63,128.5-94.6c9.8-7.2,20.5-15.9,21.7-28.1
			c1.1-11.4-6.7-21.8-15.8-28.7c-15.2-11.6-32.6-21.9-55.8-25c-1.9,0.6-3.6,1.7-4.3,3.5c-1,2.6,0.4,5.7,2.5,7.6
			c2.1,1.9,4.8,3.1,7.2,4.6c10.9,7,14.8,21.8,12.1,34.4c-2.7,12.7-10.8,23.5-19.6,33c-19.4,20.8-43.5,37.2-69.4,49
			c-19,8.7-40,15.7-53.4,31.7c-1.9,2.3-3.7,5.1-3,8c1.1,4.3,6.8,5.2,11.3,5.1c8.3-0.1,16.5-0.2,24.8-0.3
			C175.2,467.6,182,468.6,187.5,468z"/>
	</g>
	<path class="st6" d="M721,208.9c20.4-12.8,38.2-30.6,48-52.6c-8.2,26.5-16.3,52.9-24.5,79.4c-1.5,4.8-3.5,10.3-8.3,12.1
		c-3.8,1.4-8-0.1-11.8-1.2c-7.4-2.1-15.2-2.9-22.9-3.6c-10.7-1-21.5-2.1-32.2-3.1c-9.9-1-10.4-3.4-1.2-7.6
		C686,224.2,704.1,219.5,721,208.9z"/>
	<path class="st0" d="M491.6,289.8c-38,25-72.8,65.9-66,110.8c5.1,33.5,33.7,60.4,66.3,69.6c32.6,9.2,68.1,2.8,98.9-11.3
		c30.8-14.1,57.7-35.3,83.8-56.9c44.5-36.9,87.8-75.3,129.5-115.3c7.1-6.8,14.8-16.5,10.7-25.5c-18.1,2.9-31.5-15.9-47.9-24.3
		c-9-4.6-19.2-6-29.2-6.9C654.1,222.6,562.2,243.5,491.6,289.8z"/>
	<path class="st4" d="M814.7,260.6c-11.1,1.8-20.3-4.5-29.6-11.6c-28.9,13.7-53.8,34.7-80.1,53c-24.7,17.2-50.9,32.3-78.2,45
		c-48.5,22.6-100.6,38-153.8,44.9c-12.1,1.6-24.6,3.7-36.2-0.9c-4.8-1.9-8.2-5-12-6.7c-0.3,5.1-0.1,10.4,0.7,15.6
		c5.1,33.5,33.7,60.4,66.3,69.6c32.6,9.2,68.1,2.8,98.9-11.3c30.8-14.1,57.7-35.3,83.8-56.9c44.5-36.9,87.8-75.3,129.5-115.3
		C811.2,279.3,818.9,269.5,814.7,260.6z"/>
	<path class="st0" d="M485.7,99c-2.9,2.6-5.7,5.5-7.2,9.1c-1.5,3.6-1.4,8.1,1.1,11c1.6,1.9,4.1,3,6.5,3.7
		c13.7,4.3,28.5,1.3,42.8-0.3c29.7-3.4,60.7-0.4,87.4,13c9.2,4.6,17.7,10.4,27.2,14.4c15.4,6.5,33.5,7.8,48.9,1.1
		c15.4-6.6,27.4-21.8,28.1-38.5c0.1-2.3,0-4.7-1-6.8c-1.7-3.6-5.7-5.6-9.7-6.1c-4-0.4-7.9,0.5-11.8,1.4
		c-21.6,5.1-43.5,10.1-65.6,8.7c-14.5-1-28.7-4.7-42.8-8.3c-11.2-2.9-22.4-5.9-33.6-8.8c-9.8-2.6-19.6-5.1-29.6-6.2
		C508.5,84.6,499,86.8,485.7,99z"/>
	<path class="st0" d="M153.1,339.7c1.1,4.3,5.3,7.2,9.6,8c4.3,0.9,8.8,0.1,13.1-0.7c23.6-4.2,47.3-8.5,70-16.1
		c8.1-2.8,16.5-6.2,22.1-12.7c5.6-6.5,7.5-17,2.1-23.7c-4.5-5.6-12.3-6.9-19.5-7.4c-21.7-1.4-47.9,1-67.4,11.5
		c-5.9,3.2-9.6,8.1-13.9,13.1C163.4,318.4,150.5,329.6,153.1,339.7z"/>
	<path class="st3" d="M785.6,240.7c0.8,1.8,2.9,2.7,4.9,2.7c2,0,3.8-0.9,5.6-1.6c5.5-2.4,10.9-4.8,16.4-7.3
		c9.6-4.2,19.2-8.5,28.2-13.9c4.8-2.9,9.5-6.4,11.7-11.5c0.3-0.8,0.5-1.7,0.1-2.3c-0.9-1.2-2.7-0.2-3.8,0.8
		c-3.4,3.2-6.9,6.4-10.9,8.8C831.5,220,781.3,231,785.6,240.7z"/>
	<path class="st3" d="M868.1,173.7c-0.5,2.4,1.5,4.6,1.6,7c0.1,1.9-0.9,3.6-1.5,5.4c-0.6,1.8-0.5,4.1,1.2,5.1
		c0.9,0.6,2.1,0.5,3.2,0.2c4.8-1.3,8-6.5,7.7-11.5c-0.1-2-0.7-4-2-5.5C876.4,172,869.1,168.7,868.1,173.7z"/>
	<path class="st7" d="M236.5,122.4c-0.9,1.5-1.6,3.2-1.4,4.9c0.3,3.9,4.7,6.2,8.5,6.4c3.9,0.2,7.8-1,11.6-0.6
		c6.4,0.6,11.8,5.2,18,7.1c8.6,2.7,17.8-0.1,26.3-3.2c40-15,77-40.7,119.5-44.4c3-0.3,6.1-0.5,8.5-2.3c2.4-1.8,3.2-5.9,0.8-7.6
		c-1.5-1.1-3.6-0.9-5.4-0.6c-34,5.2-67.9,10.6-101.8,16.3c-16.8,2.8-33.6,5.7-50.4,8.6C258.4,109.1,243.4,110.1,236.5,122.4z"/>
	<path class="st7" d="M456.8,345.4c-1,4-1.4,8.4,0.3,12.2c2.5,5.7,9.2,8.5,15.4,8.1c6.2-0.4,11.8-3.6,16.8-7.2
		c27.3-19.6,42.5-54,72.4-69.4c10.2-5.2,22.7-8.9,27.5-19.3c-6.5-3.7-14.6-1.6-21.6,0.7C531.9,282.3,467,303.1,456.8,345.4z"/>
	<path class="st7" d="M631.7,262.9c12.5-4,26.2-1.7,39.1-4.3c2.7-0.5,5.5-1.4,7.4-3.4c1.9-2,2.4-5.5,0.4-7.4
		c-0.9-0.9-2.2-1.3-3.5-1.6c-4.5-1-9.2-0.8-13.8-0.6c-14.4,0.6-44.7-1.4-55.9,10c-4.3,4.4-5.2,11.7,1.2,14.7
		C613.2,273.4,625.6,264.8,631.7,262.9z"/>
	<path class="st7" d="M65.1,474.7c-1.5,1.3-3.1,2.9-3.2,5c0,2.4,2.2,4.1,4.3,5.2c7.5,3.6,16.9,3,23.9-1.6
		c10.9-7.2,14.1-21.4,19.8-33.1c6.8-14,17.8-25.3,27.5-37.5s18.3-26.3,18.8-41.8c-10.7,0.3-16.9,11.8-21.7,21.4
		C118.2,424.7,92.1,450.7,65.1,474.7z"/>
</g>
</svg>
