<?xml version="1.0" encoding="utf-8"?>
<!-- Generator: Adobe Illustrator 25.2.3, SVG Export Plug-In . SVG Version: 6.00 Build 0)  -->
<svg version="1.1" id="Capa_1" xmlns="http://www.w3.org/2000/svg" xmlns:xlink="http://www.w3.org/1999/xlink" x="0px" y="0px"
	 width="116.8px" height="120.4px" viewBox="0 0 116.8 120.4" style="enable-background:new 0 0 116.8 120.4;" xml:space="preserve"
	>
<style type="text/css">
	.st0{fill:#DFE997;}
	.st1{fill:#D3D678;}
	.st2{fill:#BABC68;}
	.st3{fill:#C9E08C;}
	.st4{fill:#B9D678;}
	.st5{fill:#8F9E51;}
	.st6{fill:#EEFFB8;}
	.st7{fill:#3B8233;}
	.st8{fill:#44913D;}
	.st9{fill:#499D44;}
	.st10{fill:#36772C;}
	.st11{fill:#34772B;}
	.st12{fill:#2C6D21;}
	.st13{fill:#60AF5A;}
	.st14{fill:#77C16F;}
</style>
<g id="XMLID_983_">
	<g id="XMLID_979_">
		<path id="XMLID_1296_" class="st0" d="M61.2,76.5C75.7,88,96.1,113,100.7,118.6c0.2,0.2,0.4,0.4,0.7,0.6c0.2,0.1,0.4,0.2,0.6,0.3
			c0.4,0.1,0.9,0.2,1.3,0.1c7.8-1.3,11.5-8.5,12.7-12c0.4-1.1,0-2.3-0.8-3.1c-0.2-0.2-0.4-0.4-0.7-0.6c0,0,0,0,0,0
			C108.3,98,89.5,80,74,61.3c-1.1-1.4-2.4-1.8-3.6-1.6c-2.2,0.3-4.5,2.6-6.3,5.5C61.3,69.6,59.6,75.2,61.2,76.5z"/>
		<path id="XMLID_964_" class="st1" d="M107.2,109.3c-2.9,3.8-6.9,8.9-5.3,10.2c1.6,1.2,8.1-2,11-5.8c2.9-3.8,4-7.9,2.4-9.1
			C113.8,103.4,110.1,105.5,107.2,109.3z"/>
		<path id="XMLID_975_" class="st2" d="M108.3,110.6c-1.4,1.8-3.2,4.2-2.5,4.7c0.7,0.6,3.8-0.9,5.1-2.7c1.4-1.8,1.9-3.7,1.1-4.2
			C111.4,107.9,109.7,108.9,108.3,110.6z"/>
		<path id="XMLID_1290_" class="st3" d="M61.2,76.5C75.7,88,96.1,113,100.7,118.6c0.2,0.2,0.4,0.4,0.7,0.6c0.5-1,1.2-2.3,1.9-3.9
			c1.5-3.5,4.2-6.5,6-8.7c1.7-2.1,4.8-2.8,5.2-2.8c0,0,0,0,0,0l-0.1,0c-3.3-1.3-8.4,4.8-13.6,2.3c-5.2-2.6-26.3-29.5-27.8-31.7
			c-1.5-2.1-1.2-4.1,1-4.7c2.2-0.6,3.9-2.7,3.9-2.7s-2.8-4.2-7.5-7.1c-2.2,0.3-4.5,2.6-6.3,5.5C61.3,69.6,59.6,75.2,61.2,76.5z"/>
		<path id="XMLID_988_" class="st4" d="M61.2,76.5C75.7,88,96.1,113,100.7,118.6c0.3,0.4,0.8,0.7,1.3,0.9c0.5-3.9,4-8.8,4-8.8
			c-2.4,2.8-6,0.1-7.5-1.7C87.2,95.6,68.8,71.6,68.8,71.6c-2.3-2.5-3.6-4.7-4.6-6.4C61.3,69.6,59.6,75.2,61.2,76.5z"/>
		<path id="XMLID_981_" class="st5" d="M60.1,72.5c-0.5,2.3-0.3,3.9,0.7,4.6c14.5,11.5,35.3,37,39.3,42c0.4,0.5,0.8,0.8,1.4,1
			c0.6,0.3,1.3,0.3,2,0.2c9.2-1.6,12.7-10.8,13.3-12.6c0.5-1.4,0.1-3-1-4c-5.6-5.2-25-23.7-40.9-43c-1.7-2-3.5-2.1-4.8-1.8
			C65.4,60.1,61.2,67.6,60.1,72.5z M70.3,60.6c1.2-0.3,2.2,0.1,3.1,1.3l0,0c14.9,18,32.9,35.4,39.8,41.9c0,0,0,0-0.1,0
			c-7.2,2.5-10,11.8-10,11.8c5.1-8.1,8.6-9.9,10.1-10.2c1.1-0.2,1.6,0.2,1.6,0.2l0,0c0.3,0.5,0.4,1.2,0.2,1.8
			c-0.6,1.7-3.7,10.1-12,11.5c-0.7,0.1-1.4-0.1-1.8-0.7c-4-5-25-30.6-39.6-42.2c-0.2-0.2-0.5-1-0.1-3C63,66.9,67.4,61.3,70.3,60.6z"
			/>
		<path id="XMLID_963_" class="st6" d="M107.8,100.9c0,0-27.2-27.8-28.6-30c-1.4-2.2-5.2,0-3.4,2.9c1.8,2.9,17.6,22.8,23.6,26.6
			C105.4,104.2,110.6,103.8,107.8,100.9z"/>
	</g>
	<g id="XMLID_980_">
		<path id="XMLID_1289_" class="st7" d="M18.7,21.2c1,1.8,2.7,4.9,4.6,8.2c0,0,0,0,0.1,0c3.8,2.1,5.9,2.4,5.9,2.4S28,27.7,24,19.2
			c-0.6-0.1-1.3-0.1-1.8-0.1C19.8,19.3,18.3,20.5,18.7,21.2z"/>
		<path id="XMLID_1288_" class="st7" d="M22.4,14.5c2,4.9,7.8,18.7,7.8,18.7l2.2,1.1l4.7,2.3c0,0-4.9-16.5-8.4-24.3
			c-0.7-0.1-1.4-0.1-2-0.1C23.9,12.4,22.1,13.9,22.4,14.5z"/>
		<path id="XMLID_1287_" class="st8" d="M27.8,9.9c1.7,5,9.6,26.6,9.6,26.6l4.2,2.4l0,0l1.3,0.7c0,0-3.2-17.2-9.6-33.7
			c-0.5-0.2-1.5,0.1-2.4,0.6c-1.2,0.6-2.2,1.3-2.2,1.3C27.9,8.2,27.5,9.1,27.8,9.9z"/>
		<path id="XMLID_999_" class="st8" d="M12.7,29.3c-0.1,0.3-0.2,0.6-0.4,0.9c-0.1,0.2-0.1,0.3-0.2,0.4c-0.5,1.3-0.3,1.1-0.8,2
			C27.2,38.4,45,52.5,44.6,49.7c-0.3-2.3,0.4-0.8-0.2-3c0-0.1-0.1-0.3-0.1-0.4c-0.9-3.7-0.7-6-1.8-7c-0.1-0.1-0.3-0.2-0.4-0.3
			c-3.5-1.5-20.5-10.5-25.8-13.3c-0.8-0.4-1.5,0.2-2.1,0.9C13.7,27.2,13.2,28.2,12.7,29.3z"/>
		<path id="XMLID_1286_" class="st9" d="M4.6,32.1c-0.1,0.2-0.1,0.5-0.2,0.8c-0.6,2-2,6.2-3,9.1c-0.1,0.3-0.2,0.6-0.3,0.8
			C1,43.1,1,43.3,0.9,43.4c-0.3,0.8,0.2,1.7,1.1,1.9c7.2,1.8,20.4,7.9,32.2,13.9C47,65.8,61,76.9,61,76.9c1.9,1.4,2-0.7,2.6-2.6
			c0.1-0.4,0.2-0.7,0.4-1c0.4-0.9,1.1-1.5,2.3-1.4c0.1,0,0.3,0,0.4,0c1.3,0,2.1-0.5,2.5-1.1c0.5-0.7,0.8-1.7,1.3-2.4
			c0.2-0.3,0.5-0.6,0.9-0.8c1.2-0.6,3.1-0.6,4.4-0.7c0.9-0.1,1.5-0.2,1.4-0.7c0.5,0,0.8,0,0.8,0.1c0,0,0.1,0,0.1,0
			c0-0.1-0.1-0.5-0.5-1.1c-0.6-1-1.6-2.7-2.9-4.5c0,0,0,0,0-0.1c0,0,0,0,0,0c-2.2-3.3-5.1-7.4-7.1-10.3c-4.1-5.8-5.5-14.8-11.7-24.3
			C49.8,16.2,45.4,2.2,42.8,1.1c-0.8-0.3-2.1-0.4-3.5-0.3c-1.2,0.1-2.4,0.2-3.5,0.4c-0.4,0.1-0.7,0.1-1,0.2
			c-0.3,0.1-0.6,0.1-0.9,0.2c-0.8,0.2-1.4,1-1.2,1.8c0.5,2.4,1.8,7.7,4.9,15.5c3.3,8.3,5.8,21.6,6.9,27.9c0.2,1.1,0.3,2,0.4,2.6l0,0
			c0,0.2,0.1,0.4,0.1,0.6c0,0.1,0,0.2,0,0.2c-4.9-2.2-16.8-9.3-21.1-12C19.8,35.5,5.1,30,4.6,32.1z"/>
		<path id="XMLID_992_" class="st8" d="M1.4,42.1c-0.1,0.3-0.2,0.6-0.3,0.8C1,43.1,1,43.3,0.9,43.4c-0.3,0.8,0.2,1.7,1.1,1.9
			c7.2,1.8,20.4,7.9,32.2,13.9C47,65.8,61,76.9,61,76.9c2.2,1.7,2-1.6,3.1-3.7c0.4-0.9,1.1-1.5,2.3-1.4c1.6,0.1,2.4-0.4,2.9-1.1
			c0.5-0.7,0.8-1.7,1.3-2.4c0.2-0.3,0.5-0.6,0.9-0.8c1.2-0.6,3.1-0.6,4.4-0.7C75.9,66.3,76,66,76,66s-7-2.3-8.1,0.5
			c-1.1,2.7-3,1.2-3.7,1.9C61.6,71,46.2,57.3,19,47.6C11.6,44.9,5.8,43.2,1.4,42.1z"/>
		<path id="XMLID_998_" class="st8" d="M32.7,3.4c0.5,2.4,1.8,7.7,4.9,15.5c3.3,8.3,5.8,21.6,6.9,27.9c0.2,1.1,0.3,2,0.4,2.6l0,0
			c0,0.2,0.1,0.4,0.1,0.6c3.4,2.3,14.3,4.6,18.9,7.8c4.7,3.3,13.3,7.7,13.3,7.7l-2.4-4.9l0-0.1c0,0,0,0,0,0c0,0,0,0,0,0
			c-0.4-0.4-7.6-6.2-12.7-8.2c-5.2-2-11.6-2.9-12.5-8.3c-0.9-5.4-4-18.8-6.4-24.8C41,13.6,36.7,5.4,35.9,1.2c-0.4,0.1-0.7,0.1-1,0.2
			c-0.3,0.1-0.6,0.1-0.9,0.2C33.1,1.7,32.5,2.5,32.7,3.4z"/>
		<path id="XMLID_993_" class="st7" d="M32.7,3.4c0.5,2.4,1.8,7.7,4.9,15.5c3.3,8.3,5.8,21.6,6.9,27.9c0.2,1.1,0.3,2,0.4,2.6l0,0
			l14.2,6.4c-0.5-0.2,4.7,1.5,14.2,7.8c1.9,1.2,3.6,1.9,4.8,2.5c0-0.1-0.1-0.5-0.5-1.1c-0.8-0.5-1.5-0.9-1.5-0.9s-7.8-6.9-14-9.5
			c-5.6-2.4-13.8-4.7-14.5-7.4c-0.7-2.7-2.5-16.7-7.4-29.3c-3.2-8-4.8-13.6-5.5-16.5c-0.3,0.1-0.6,0.1-0.9,0.2
			C33.1,1.7,32.5,2.5,32.7,3.4z"/>
		<path id="XMLID_994_" class="st7" d="M12.7,29.3c-0.1,0.3-0.2,0.6-0.4,0.9c-0.1,0.2-0.1,0.3-0.2,0.4c-0.5,1.3-0.3,1.1-0.8,2
			C27.2,38.4,45,52.5,44.6,49.7c-0.3-2.3,0.4-0.8-0.2-3c0-0.1-0.1-0.3-0.1-0.4c-0.9-3.7-0.7-6-1.8-7c-1-0.4-2.3-0.8-2.3-0.8
			s1,5.1,0.3,5c-0.7,0-7.5-3.8-9.3-5.4C29.5,36.5,16.5,30,12.7,29.3z"/>
		<path id="XMLID_995_" class="st10" d="M12.3,30.2c-0.1,0.2-0.1,0.3-0.2,0.4c-0.3,0.7-0.5,1.3-0.8,2C27.2,38.4,45,52.5,44.6,49.7
			c-0.3-2.3,0.4-0.8-0.2-3c-0.1-0.1-0.3-0.1-0.4-0.2c0,0-9.7-4.4-15-8.1C24,34.7,12.6,30.3,12.3,30.2z"/>
		<path id="XMLID_976_" class="st7" d="M59.6,70.2c0.8,0.5,3.1,1.6,4.5,0.6c1.5-1.1,3.7,0.1,3.7,0.1l-1,0.9c-0.1,0-0.2,0-0.4,0
			c-1.2-0.1-1.9,0.5-2.3,1.4c-0.1,0.2-0.1,0.3-0.2,0.5c0,0.1,0,0.1-0.1,0.2c0,0.1-0.1,0.2-0.1,0.3c-0.6,2-0.8,4.3-2.7,2.8
			c0,0-14-11.2-26.8-17.7C22.4,53.3,9.1,47.2,2,45.4c-0.9-0.2-1.4-1.1-1.1-1.9C1,43.3,1,43.1,1.1,42.9
			C25.4,49.3,49.6,63.8,59.6,70.2z"/>
		<path id="XMLID_996_" class="st7" d="M30.9,6.5C31,6.6,31,6.7,31,6.8c0.2,0.9,4.3,12.6,5.7,15.9c1.2,2.9,3.8,15.5,3.8,15.5
			s0.8,0.3,1.2,0.7l0,0l1.3,0.7c0,0-3.2-17.2-9.6-33.7C32.8,5.6,31.8,6,30.9,6.5z"/>
		<path id="XMLID_990_" class="st11" d="M26.6,12.2c0,0.1,0.1,0.3,0.1,0.4c0.1,0.4,6.6,18.8,5.7,21.2c0,0.1-0.1,0.3-0.1,0.4l4.7,2.3
			c0,0-4.9-16.5-8.4-24.3C27.9,12.2,27.2,12.1,26.6,12.2z"/>
		<path id="XMLID_989_" class="st11" d="M22.2,19.2c0,0.2,2.6,8.8,1.3,9.9c-0.1,0.1-0.1,0.2-0.2,0.3c3.8,2.1,5.9,2.4,5.9,2.4
			S28,27.7,24,19.2C23.4,19.1,22.7,19.1,22.2,19.2C22.2,19.2,22.2,19.2,22.2,19.2z"/>
		<path id="XMLID_969_" class="st12" d="M32.3,1.8c-0.3,0.5-0.5,1.1-0.3,1.8c0.1,0.4,0.2,1,0.4,1.6l-4,1.9c-1.1,0.6-1.7,1.9-1.3,3.1
			l0.4,1.1c-2.6,0.4-4.9,1.6-5.6,2.4c-0.4,0.5-0.3,1-0.2,1.2c0.3,0.8,0.8,1.9,1.3,3.2c-2.2,0.5-4.1,1.5-4.8,2.3
			c-0.5,0.6-0.3,1.1-0.2,1.3l3.3,5.8c-1.9-1-3.4-1.8-4.5-2.4c-1.5-0.8-2.7,0.6-3.1,1.1c-1,1.2-1.8,3.4-2.6,5.4
			c-0.1,0.1-0.1,0.3-0.2,0.4C8.1,31,5.7,30.6,4.7,31c-0.6,0.2-0.8,0.7-0.8,0.9c-0.4,1.6-2.7,8.4-3.7,11.2C-0.1,43.8,0,44.5,0.3,45
			c0.3,0.6,0.8,1,1.5,1.1c6.1,1.6,17.8,6.6,32.1,13.8c12.6,6.4,26.6,17.4,26.7,17.6l0,0c0.3,0.2,1.1,0.9,2,0.6
			c1-0.3,1.3-1.5,1.6-2.7c0.6-2.1,1-2.9,2.1-2.8c3,0.3,3.8-1.5,4.4-2.8c0.4-0.8,0.6-1.3,1.1-1.6c0.8-0.4,2.1-0.5,3.2-0.5
			c1.4-0.1,2.4-0.2,2.9-0.8c0.1-0.1,0.9-0.2,1-0.3c0.1-0.2,0.2-0.4,0-0.9c-0.4-1.2-2.6-4.6-10.5-15.9l-0.1-0.2
			c-1.8-2.6-3.1-5.9-4.6-9.7c-1.7-4.4-3.7-9.4-7-14.6c-3-4.6-5.6-10.3-7.6-15c-2.8-6.1-4.3-9.3-5.8-10c-1.9-0.8-6.2-0.2-9.4,0.4
			C33.1,0.9,32.6,1.3,32.3,1.8z M28.6,9.6c-0.1-0.4,0-0.9,0.4-1.1l3.6-1.8c0.8,2.9,2,7.1,4.2,12.5c2.1,5.2,3.9,12.6,5.2,18.9
			c-0.9-0.4-2.4-1.2-4.3-2.1L28.6,9.6z M23.2,14.5c0.6-0.5,2.6-1.4,4.7-1.7l7.7,22.2c-1.6-0.8-3.4-1.7-5.1-2.7
			C28.4,27.2,24.7,18.2,23.2,14.5z M19.6,21.1c0.6-0.5,2.1-1.2,4-1.6c1.5,3.6,3.3,8.1,4.7,11.6c-1.5-0.8-3-1.6-4.4-2.3L19.6,21.1z
			 M12.5,32c0.7-1.9,1.5-4,2.3-4.9c0.8-0.9,1-0.8,1.1-0.7c5.2,2.7,22.3,11.8,25.8,13.4c0.2,0.1,0.4,0.3,0.7,0.6
			c0.7,3.6,1.3,6.7,1.5,8.4c-5.5-2.8-15.9-9-19.6-11.3c-2.1-1.3-7.4-3.6-12-5.1C12.4,32.2,12.5,32.1,12.5,32z M71.1,66.7
			c-1.1,0.5-1.6,1.5-2,2.4c-0.5,1.2-0.9,2-2.7,1.9c-2.7-0.2-3.4,2.3-3.8,4c-0.1,0.5-0.4,1.5-0.6,1.6c0,0-0.2,0-0.6-0.3
			C61.2,76,47.2,65,34.6,58.5C27.8,55.1,11,46.8,2.2,44.6c-0.2-0.1-0.4-0.2-0.5-0.4c-0.1-0.2-0.1-0.4,0-0.5
			c0.9-2.8,3.2-9.3,3.7-11.2c1.9-0.6,13.8,3.5,18.2,6.3c4,2.6,16.1,9.8,21.2,12.1c1.9,0.9,4.7,1.9,7.7,2.9
			c4.8,1.7,10.2,3.6,12.2,5.2c1.6,1.2,4.2,2.7,6.6,4.1C72.9,64,75,65.2,76,66c-0.3,0-0.8,0.1-1.1,0.1C73.7,66.1,72.2,66.2,71.1,66.7
			z M42.5,1.9c1,0.4,3.1,5.1,5,9.1c2.1,4.7,4.7,10.5,7.8,15.2c3.3,5,5.2,10,6.9,14.3c1.5,3.9,2.9,7.3,4.8,10.1l0.1,0.2
			c2.5,3.5,7,10,9.2,13.4c-0.9-0.6-2.2-1.4-4.2-2.5c-2.3-1.3-4.9-2.8-6.5-4c-2.3-1.7-7.6-3.6-12.7-5.4c-2.7-1-5.3-1.9-7.1-2.7
			c-0.5-3-3.5-20.9-7.5-31c-3.1-7.8-4.3-13-4.8-15.4c0-0.2,0-0.4,0.1-0.5c0.1-0.2,0.3-0.3,0.4-0.3C38.2,1.6,41.3,1.4,42.5,1.9z"/>
		<path id="XMLID_1294_" class="st13" d="M8.3,34.6l-1.4,5.1c0,0,27.4,10.2,38.3,16.9c6.9,4.3,11.8,6.9,15,7.8
			c1.9,0.5,3.2,0.5,3.9-0.3c2-2,3.5-0.9,3.5-0.9s2.9,0.4-3.9-3.6c-2.9-1.7-7-3.3-12.7-5.3c-6.5-2.2-16.9-7.7-21.8-10.6
			C24.4,41,16.7,35.7,8.3,34.6z"/>
		<path id="XMLID_1293_" class="st13" d="M46,19.3c1.6,5.1,6.1,20.3,7.3,22.5c0.5,0.9,1.3,1.8,2.4,2.5c2,1.5,4.5,2.6,6.4,3.3
			c0.8,0.3,1.6-0.6,1.2-1.4c-1.1-2.1-2.6-5.2-3.2-7.2c-0.9-3.2-4.1-9.3-7.2-14.4c-3.1-5-10.4-22.1-10.4-22.1s-1-0.2-2.1-0.3
			c-0.6,0-1.2,0.1-1.6,0.3C37.7,3.3,44.3,14.2,46,19.3z"/>
		<path id="XMLID_1291_" class="st14" d="M40.3,2.3c0.2,0.4,7.5,17.5,10,22.1c2.5,4.5,7.9,14.5,8.4,17.9c0.4,3.4-1.5,3.3-3,2.1
			c-0.1,0-0.1-0.1-0.1,0c2,1.5,4.5,2.6,6.4,3.3c0.8,0.3,1.6-0.6,1.2-1.4c-1.1-2.1-2.6-5.2-3.2-7.2c-0.9-3.2-4.1-9.3-7.2-14.4
			c-3.1-5-10.4-22.1-10.4-22.1S41.3,2.4,40.3,2.3z"/>
		<path id="XMLID_997_" class="st14" d="M8.3,34.6l-1.4,5.1c1.5-3.4,4.5-2.6,9.2-0.8c4.6,1.8,9.2,4.6,19,10.4
			c9.8,5.8,24.5,10.6,27,12.4c2.4,1.8-1.7,2.6-1.9,2.6c1.9,0.5,3.2,0.5,3.9-0.3c2-2,3.5-0.9,3.5-0.9s2.9,0.4-3.9-3.6
			c-2.9-1.7-7-3.3-12.7-5.3c-6.5-2.2-16.9-7.7-21.8-10.6C24.4,41,16.7,35.7,8.3,34.6z"/>
	</g>
</g>
</svg>
