<?xml version="1.0" encoding="utf-8"?>
<!-- Generator: Adobe Illustrator 25.2.3, SVG Export Plug-In . SVG Version: 6.00 Build 0)  -->
<svg version="1.1" id="Capa_1" xmlns="http://www.w3.org/2000/svg" xmlns:xlink="http://www.w3.org/1999/xlink" x="0px" y="0px"
	 width="88.1px" height="50.4px" viewBox="0 0 88.1 50.4" style="enable-background:new 0 0 88.1 50.4;" xml:space="preserve">
<style type="text/css">
	.st0{fill:#DD9333;}
	.st1{fill:#E0A13F;}
	.st2{fill:#EDD561;}
	.st3{fill:#956926;}
	.st4{opacity:0.1;}
</style>
<g>
	<g>
		<path class="st0" d="M31.5,17.9c0,0.8-0.4,1.4-0.8,1.4c0,0,0,0,0,0c-0.4,0-0.8-0.7-0.8-1.4c0-0.8,0.4-1.4,0.8-1.4
			c0.1,0,0.2,0,0.2,0.1C31.3,16.7,31.5,17.2,31.5,17.9z"/>
		<path class="st0" d="M21.2,27.8c0,1.7-0.8,3-1.8,3.1c0,0-0.1,0-0.1,0c-1,0-1.9-1.4-1.9-3.1c0-1.7,0.9-3.1,1.9-3.1c0,0,0,0,0.1,0
			C20.3,24.7,21.2,26.1,21.2,27.8z"/>
		<path class="st0" d="M30.4,33.6c0,0.9-0.4,1.6-0.8,1.9c-0.1,0.1-0.2,0.1-0.3,0.1c-0.6,0-1.2-0.9-1.2-1.9c0-1.1,0.5-1.9,1.2-1.9
			c0.1,0,0.2,0,0.3,0.1C30.1,31.9,30.4,32.7,30.4,33.6z"/>
	</g>
	<path class="st1" d="M30.2,12c-8.5,2.9-16.7,5.9-17.6,7c-0.6,0.7-0.7,1.9-0.8,2.7c-0.3,1.7-0.4,3.3-0.5,5c-0.1,2-0.2,4-0.3,5.9
		c0,2-0.4,4.1-0.3,6.1c0,0.8,0.2,1.7,0.2,2.5c0,0.4-0.2,1.2,0,1.6c0,0,0.1,0.1,0.2,0.3c0.9,0.5,1.8,1,2.7,1.4
		c1.1,0.2,2.5,0.2,4.4-0.2c4.4-0.8,11-3.3,14.9-4.8c-0.1-4.6,0.3-9.6,0.6-13.1c0.1-1.2,0.2-2.1,0.2-2.8c0.1-1.1,0.9-2.9,2-4.9
		c2.4-4.2,6.2-9.3,7.5-11C39.8,8.8,34.9,10.4,30.2,12z M19.3,31.4c-1.3,0-2.4-1.6-2.4-3.6c0-2,1.1-3.6,2.4-3.6
		c1.3,0,2.4,1.6,2.4,3.6C21.6,29.7,20.6,31.4,19.3,31.4z M29.3,36c-0.9,0-1.6-1.1-1.6-2.4c0-1.3,0.7-2.4,1.6-2.4
		c0.9,0,1.6,1.1,1.6,2.4C30.9,34.9,30.2,36,29.3,36z M30.7,19.8c-0.7,0-1.3-0.8-1.3-1.9c0-1.1,0.6-1.9,1.3-1.9
		c0.7,0,1.3,0.8,1.3,1.9C32,19,31.4,19.8,30.7,19.8z"/>
	<path class="st1" d="M87.7,25.2c0,21.9-23.3,24.7-43.6,24.7c-2.5,0-5.3-0.1-8.2-0.3c-0.1-0.1-0.2-0.2-0.2-0.2
		c-0.6-0.7-1.1-1.5-1.4-2.4c-0.8-2.4-0.6-5.3-0.6-7.7c0-4.3,0.2-8.5,0.6-12.8c0-0.3,0-0.6,0.1-0.8c0.1-0.8,0.1-1.5,0.1-2
		c0.2-3.8,9.8-16.1,9.9-16.3l0.4-0.6L44,7c-1.2,0.4-29.8,9.3-31.8,11.7c-0.4,0.4-0.6,1-0.7,1.7v0c-0.2,0.8-0.2,1.7-0.3,2.4
		c-0.3,2.6-0.4,5.2-0.5,7.8c-0.1,3.9-0.5,7.8,1,11.2c0.4,0.9,0.9,1.8,1.6,2.6c-0.2-0.3-1.2-0.5-1.6-0.7c-0.5-0.3-0.9-0.6-1.4-0.9
		C9.6,42.2,8.8,41.7,8,41c-1.4-1.1-2.7-2.5-3.8-3.9C4.1,37,4,36.9,4,36.8c-2.4-3.4-3.5-7.5-3.5-11.7c0-6.7,2.6-11.6,6.7-15.2l0,0
		c9.1-8,25.6-9.6,36.9-9.6c6.2,0,12.7,0.3,18.6,1.2c7,1.2,13.4,3.3,18,7.2c0,0,0,0,0,0c3,2.6,5.2,5.9,6.3,10.3
		C87.4,21,87.7,23,87.7,25.2z"/>
	<path class="st2" d="M82.8,14.2c-0.4,2.4-2.6,4-4.7,5.1C73.7,21.6,68.9,23,64,24c-9.8,2-19.8,2.6-29.7,1.7c0.1-0.8,0.1-1.5,0.1-2
		c0.2-3.8,9.8-16.1,9.9-16.3l0.4-0.6L44,7c-1.2,0.4-29.8,9.3-31.8,11.7c-0.4,0.4-0.6,1-0.7,1.7c-1-0.4-2.1-0.9-3-1.6
		c-1.4-1-2.5-2.6-2.7-4.3c-0.2-1.6,0.4-3.1,1.3-4.5l0,0c9.1-8,25.6-9.6,36.9-9.6c6.2,0,12.7,0.3,18.6,1.2c7,1.2,13.4,3.3,18,7.2
		c0,0,0,0,0,0C82.1,10.4,83.2,12.3,82.8,14.2z"/>
	<path class="st0" d="M11.7,41.8c0.4,0.9,0.9,1.8,1.6,2.6c-0.2-0.3-1.2-0.5-1.6-0.7c-0.5-0.3-0.9-0.6-1.4-0.9
		C9.6,42.2,8.8,41.7,8,41c-1.4-1.1-2.7-2.5-3.8-3.9c0.5,0.5,1.1,1,1.7,1.4C7.6,39.9,9.6,40.9,11.7,41.8z"/>
	<path class="st0" d="M87.7,25.2c0,21.9-23.3,24.7-43.6,24.7c-2.5,0-5.3-0.1-8.2-0.3c-0.1-0.1-0.2-0.2-0.2-0.2
		c-0.6-0.7-1.1-1.5-1.4-2.4c12,1.2,24.2,0.1,35.7-3.2c4.8-1.4,9.7-3.3,13-7.1c2.8-3.3,4-7.7,4.2-12c0.1-1.8,0-3.6-0.2-5.5
		C87.4,21,87.7,23,87.7,25.2z"/>
	<g>
		<path class="st3" d="M84.6,12.6c-2.1-3.2-5.3-5.8-9.5-7.7c-3.4-1.6-7.5-2.8-12.4-3.6C57.5,0.4,51.4,0,44.1,0C31,0,20.5,1.9,13,5.7
			C4.4,9.9,0,16.5,0,25.2c0,7.9,3.7,14,10.8,18.3c3.1,1.9,6.3,1.6,7.5,1.3c4.4-0.8,10.9-3.2,14.9-4.8c0.1,4.1,0.6,7.8,2,9.5
			c0,0,0.1,0.1,0.1,0.1c0.1,0.2,0.3,0.3,0.4,0.4c0.5,0,0.9,0.1,1.4,0.1c2.2,0.1,4.5,0.2,6.9,0.2c14.1,0,24-1.5,31.1-4.9
			c4.2-1.9,7.3-4.5,9.5-7.7c2.3-3.4,3.5-7.7,3.5-12.6C88.1,20.2,87,16,84.6,12.6z M33.2,39.6c-3.4,1.3-7,2.6-10.5,3.6
			c-3.1,0.9-7.1,2.5-9.9,0c-0.3-0.3-0.6-0.6-0.9-0.9c-1.5-2.1-0.9-4.2-0.9-6.5c0-2.3,0.1-4.6,0.2-6.9c0.1-2.1,0.2-4.2,0.5-6.3
			c0.1-1.1,0.2-2.7,0.9-3.6c1.4-1.8,20.4-8.1,30.9-11.3c-1.9,2.5-9.3,12.4-9.5,15.9c0,0.7-0.1,1.7-0.2,2.8
			C33.5,30,33.1,35,33.2,39.6z M10.4,37.6c0,0.7,0,1.3,0,2c0.2,1.5,0.7,3,1.8,4C10,42.5,9,41.9,7.7,40.8c-2.2-1.8-4-4-5.3-6.6
			c-1.4-2.8-2-5.9-2-9C0.5,3.7,27.8,0.5,44.1,0.5c6.2,0,12.7,0.3,18.6,1.2c13.7,2.2,25,8.2,25,23.5c0,21.9-23.3,24.7-43.6,24.7
			c-2.5,0-5.3-0.1-8.2-0.3c-0.1-0.1-0.2-0.2-0.2-0.2c-2.3-2.6-2-6.9-2-10.1c0-4.3,0.2-8.5,0.6-12.8c0.1-1.2,0.2-2.2,0.2-2.9
			c0.2-3.8,9.8-16.1,9.9-16.3l0.4-0.6L44,7c-1.2,0.4-29.8,9.3-31.8,11.7c-0.7,0.9-0.8,2.4-1,3.5c-0.3,2.2-0.4,4.4-0.5,6.6
			c-0.1,1.8-0.2,3.5-0.3,5.4C10.5,35.3,10.4,36.5,10.4,37.6z"/>
		<path class="st3" d="M30.7,16c-0.7,0-1.3,0.8-1.3,1.9c0,1.1,0.6,1.9,1.3,1.9c0.7,0,1.3-0.8,1.3-1.9C32,16.8,31.4,16,30.7,16z
			 M30.7,19.3c-0.5,0-0.8-0.7-0.8-1.4c0-0.8,0.4-1.4,0.8-1.4s0.8,0.7,0.8,1.4C31.5,18.7,31.1,19.3,30.7,19.3z"/>
		<path class="st3" d="M29.3,31.2c-0.9,0-1.6,1.1-1.6,2.4c0,1.3,0.7,2.4,1.6,2.4c0.9,0,1.6-1.1,1.6-2.4
			C30.9,32.2,30.2,31.2,29.3,31.2z M29.3,35.5c-0.6,0-1.2-0.9-1.2-1.9c0-1.1,0.5-1.9,1.2-1.9c0.6,0,1.2,0.9,1.2,1.9
			C30.4,34.6,29.9,35.5,29.3,35.5z"/>
		<path class="st3" d="M19.3,24.2c-1.3,0-2.4,1.6-2.4,3.6c0,2,1.1,3.6,2.4,3.6c1.3,0,2.4-1.6,2.4-3.6C21.6,25.8,20.6,24.2,19.3,24.2
			z M19.3,30.9c-1,0-1.9-1.4-1.9-3.1c0-1.7,0.9-3.1,1.9-3.1c1,0,1.9,1.4,1.9,3.1C21.2,29.5,20.3,30.9,19.3,30.9z"/>
	</g>
	<g class="st4">
		<path d="M19.4,30.9c0,0-0.1,0-0.1,0c-1,0-1.9-1.4-1.9-3.1c0-1.7,0.9-3.1,1.9-3.1c0,0,0,0,0.1,0c-0.1,0.3-0.2,0.6-0.3,0.8
			c-0.3,0.8-0.5,1.6-0.5,2.5C18.6,29,18.9,30,19.4,30.9z"/>
		<path d="M30.6,19.3c-0.4,0-0.8-0.7-0.8-1.4c0-0.8,0.4-1.4,0.8-1.4c0.1,0,0.2,0,0.2,0.1c-0.1,0.5-0.3,1-0.3,1.4
			C30.5,18.4,30.6,18.9,30.6,19.3z"/>
		<path d="M29.6,35.4c-0.1,0.1-0.2,0.1-0.3,0.1c-0.6,0-1.2-0.9-1.2-1.9c0-1.1,0.5-1.9,1.2-1.9c0.1,0,0.2,0,0.3,0.1c0,0,0,0.1,0,0.1
			C29.3,33,29.3,34.2,29.6,35.4z"/>
	</g>
	<path class="st4" d="M43.5,7.7c-1.3,1.7-5.1,6.8-7.5,11c-0.1-0.5-0.2-1.1-0.4-1.6c-0.5-1.5-1.3-3-2.6-4c-0.8-0.6-1.7-1-2.7-1.1
		C34.9,10.4,39.8,8.8,43.5,7.7z"/>
</g>
</svg>
