<?xml version="1.0" encoding="utf-8"?>
<!-- Generator: Adobe Illustrator 25.2.3, SVG Export Plug-In . SVG Version: 6.00 Build 0)  -->
<svg version="1.1" id="Capa_1" xmlns="http://www.w3.org/2000/svg" xmlns:xlink="http://www.w3.org/1999/xlink" x="0px" y="0px"
	 width="628px" height="427.5px" viewBox="0 0 628 427.5" style="enable-background:new 0 0 628 427.5;" xml:space="preserve">
<style type="text/css">
	.st0{fill:#F37745;}
	.st1{fill:#BC5937;}
	.st2{fill:#F5C740;}
	.st3{fill:#F4AA34;}
	.st4{fill:#D69230;}
</style>
<g>
	<path class="st0" d="M510.2,22.7C469.1,8.7,402.6,1,375,0C347.3-1,0,108.6,0,108.6l1,13.8l3.9,262.5v11.8c0,0,521,42.4,594,27.6
		c30.9-6.3,30.9-116.5,27.6-199.3C622.7,125.3,628.6,63.2,510.2,22.7z"/>
	<path class="st1" d="M4.9,384.8v11.8c0,0,521,42.4,594,27.6c30.9-6.3,30.9-116.5,27.6-199.3c-2.4-60.9-1.1-107.7-26.7-144.2
		C498.7,71.1,0,108.6,0,108.6l1,13.8L4.9,384.8z"/>
	<path class="st2" d="M0.8,119.4l4.2,265.4c0,0,575.3,51.3,593.1,22.7c20.4-32.8,13.8-306.9-8.2-311.4
		C560.9,90.1,0.8,119.4,0.8,119.4z"/>
	<path class="st3" d="M132,293.1c-12.9-25.9-56.5-46.3-78-17.8c-2.5,3.4-4.2,7.4-5.3,11.7c-17.7,19.4,16.7,57,36.3,61.1
		c14,2.9,35.1-0.4,46.2-9.6C144.8,327.2,138.7,306.7,132,293.1z"/>
	<path class="st3" d="M271.4,147.3c-15.7,4.2-28.4,12.5-38.7,25.2c-6.3,7.8-15.7,24-10.9,34.3c1.4,6.2,5.8,11.8,14.2,16
		c30.3,15.1,82.2-6.1,94-37.3C343.1,150.4,296.3,140.6,271.4,147.3z"/>
	<path class="st3" d="M465.5,298.8c-13.3,7.4-15.6,28.5-12.6,41.7c1.5,6.4,11.5,21.6,21,25.8c8.5,4.5,18.4,3.1,27.4-9.1
		C519,333.2,500.7,279.2,465.5,298.8z"/>
	<path class="st3" d="M583,177.6c-4.8-29.6-36-47.7-64.9-42.2c-7.9,1.5-17.7,5.8-26.3,11.9c-6.8,3.4-12.8,8.2-17.3,14.1
		c-17.5,22.9-5.7,51.4,17,65.6c21.3,13.4,51.1,20.8,72.9,5C580.3,220.4,586.1,196.9,583,177.6z"/>
	<path class="st3" d="M167.7,305.9c2,11.7,7.8,15.7,14.7,15.5c16.1,6.1,40.4-14.2,45.6-27.3C240.5,262,160.3,262.8,167.7,305.9z"/>
	<path class="st3" d="M94.7,168c-25.7,23.8,27.5,74.4,51.1,37.7C166.4,173.9,109.6,137.7,94.7,168z"/>
	<path class="st4" d="M132,293.1c-12.9-25.9-56.5-46.3-78-17.8c-2.3,3-3.9,6.6-4.9,10.5c22.9-12.7,56.1,5.4,67.1,27.4
		c4.3,8.7,8.3,20.1,7.2,30.2c2.9-1.4,5.6-3,7.9-4.9C144.8,327.2,138.7,306.7,132,293.1z"/>
	<path class="st4" d="M271.4,147.3c-15.7,4.2-28.4,12.5-38.7,25.2c-2.3,2.8-5,6.7-7.3,11.1c8.6-7.7,18.6-13.1,30.2-16.2
		c24.9-6.7,71.7,3.1,58.5,38.3c-0.3,0.7-0.6,1.4-0.9,2.1c7.6-6.4,13.6-13.9,16.7-22.2C343.1,150.4,296.3,140.6,271.4,147.3z"/>
	<path class="st3" d="M350.2,356.9c-7.8-14.3-24.6-26.1-40.7-26.4c-13.2-0.2-18.3,5.1-18.5,12.1c-3,4.5-3.6,11.2-0.1,18.7
		c6.7,14.3,23.9,30.7,40.2,31.5C352.3,393.9,359.3,373.5,350.2,356.9z"/>
	<path class="st4" d="M465.5,298.8c-6.8,3.8-10.7,11.1-12.5,19.1c28-11.6,43.9,24.3,37,49.2c3.8-1.7,7.6-4.9,11.3-9.8
		C519,333.2,500.7,279.2,465.5,298.8z"/>
	<path class="st4" d="M350.2,356.9c-7.8-14.3-24.6-26.1-40.7-26.4c-13.2-0.2-18.3,5.1-18.5,12.1c-0.7,1-1.2,2.1-1.6,3.2
		c2.4-0.5,5.5-0.6,8.7-0.5c16.1,0.3,32.8,12.2,40.7,26.4c3.5,6.3,4.6,13.2,3.5,19.2C354.5,385.7,357.5,370.1,350.2,356.9z"/>
	<path class="st4" d="M167.6,295.8c19.7-9,49.3-2,45.3,16.5c7.1-5.6,12.8-12.6,15-18.2C239.4,264.8,173.4,262.9,167.6,295.8z"/>
	<path class="st4" d="M564.3,231.9c15.9-11.5,21.8-35,18.6-54.3c-4.8-29.6-36-47.7-64.9-42.2c-7.9,1.5-17.7,5.8-26.3,11.9
		c-6.8,3.4-12.8,8.2-17.3,14.1c-2.3,3-4.1,6.1-5.4,9.3c1.8-1.2,3.7-2.3,5.7-3.3c8.6-6.1,18.5-10.4,26.3-11.9
		c28.9-5.5,60.1,12.6,64.9,42.2c1.7,10.4-0.3,25.1-4.2,35.9C562.6,233.1,563.5,232.5,564.3,231.9z"/>
	<path class="st4" d="M133.8,216.6c4.4-2,8.5-5.5,12-10.9c20.6-31.9-36.2-68.1-51.1-37.7c-3.5,3.3-5.6,7-6.4,11
		C107,172.4,137.7,193.6,133.8,216.6z"/>
</g>
</svg>
