<?xml version="1.0" encoding="utf-8"?>
<!-- Generator: Adobe Illustrator 25.2.3, SVG Export Plug-In . SVG Version: 6.00 Build 0)  -->
<svg version="1.1" id="Capa_1" xmlns="http://www.w3.org/2000/svg" xmlns:xlink="http://www.w3.org/1999/xlink" x="0px" y="0px"
	 width="862px" height="627.5px" viewBox="0 0 862 627.5" style="enable-background:new 0 0 862 627.5;" xml:space="preserve">
<style type="text/css">
	.st0{fill:#CB8480;}
	.st1{fill:#B77875;}
	.st2{opacity:0.32;fill:#FFFFFF;}
</style>
<g>
	<path class="st0" d="M30.6,133.8c16.5,7.8,35.4,8.9,53.7,8.7c59.3-0.6,117.6-13.6,176.3-21.6c116.6-15.8,235.8-11.9,351,11.5
		c23.4,4.7,51.7,8.8,67.4-9.2c12.3-14.1,10.2-36.8-0.4-52.2c-10.6-15.4-27.7-25-44.9-32.7C536-5.3,424.6-1.9,317.5,2.3
		C233.4,5.6,150,10.5,67.9,30.8C47.1,36,22.6,39,9.3,57.8C-9.7,84.7,1.8,120.2,30.6,133.8z"/>
	<path class="st0" d="M724.7,245.5c37.6,78.5,49.2,174.3,9.7,251.9c-13.2,25.8-47,68.1-38.6,98.9c6.1,22.4,35.2,34.1,49.9,30.6
		c62.7-14.7,94.5-104.4,103.2-131.1c18.3-56.2,13.9-119,8.3-177.9c-2-21.3-5.2-42.5-11-63.1c-12.6-44.3-37.9-85-72.2-115.8
		c-18.6-16.7-80.9-56.8-94.5-13.4C668.5,160.9,710.3,215.4,724.7,245.5z"/>
	<path class="st0" d="M305.8,236.7c-9.9,21.1-6.4,45.9,0.2,68.2c9.3,31.5,24.3,60.9,39.3,90.2c9.6,18.8,19.3,37.7,31.5,54.9
		c11.9,16.6,26.1,31.5,41.1,45.4c35.7,33,76.2,60.8,118.7,84.5c28.6,15.9,58.7,30.2,90.9,35.9c11.5,2,23.4,3,34.6-0.2
		c27.9-8,43.2-41.1,37.9-69.6c-5.2-28.5-26.6-51.8-51.1-67.3c-24.5-15.5-52.4-24.5-79.2-35.5c-44.4-18-87.2-42-120-76.9
		c-29-30.8-49.2-69.5-59.7-110.5c-5-19.4-9.7-40.6-31.2-45.4C337.3,205.6,315.1,216.7,305.8,236.7z"/>
	<path class="st1" d="M678.6,71.1c-5.5-8.1-12.9-14.5-21-19.9c-0.2,2-0.2,4-0.2,5.7c0.5,11.9-9.6,22.2-20.9,26
		c-11.3,3.8-23.6,2.6-35.4,1.6c-145.9-13.4-293.4-10.2-438.6,9.4c-36.5,4.9-73.1,10.9-109.9,8.8c-16.9-1-34.4-4-48.4-13.5
		c-1.5-1-2.8-2.1-4.1-3.2c-0.4,19.7,11.2,38.8,30.6,48c16.5,7.8,35.4,8.9,53.7,8.7c59.3-0.6,117.6-13.6,176.3-21.6
		c116.6-15.8,235.8-11.9,351,11.5c23.4,4.7,51.7,8.8,67.4-9.2c1.4-1.6,2.6-3.3,3.6-5.1c1.7-3.4,3-7,4-10.7
		C689.1,95.4,685.8,81.6,678.6,71.1z"/>
	<g>
		<path class="st1" d="M855.7,303.7c1.6,22.9,1.8,45.9,0.1,68.8c-4.4,60.5-22,120.7-56.1,170.9c-20.3,29.9-50.9,57.9-87,56.5
			c-5.7-0.2-11.6-1.3-16.9-3.6c6.1,22.4,35.2,34,49.9,30.5c62.7-14.7,94.5-104.4,103.2-131.1c18.3-56.2,13.9-119,8.3-177.9
			C856.7,313.1,856.2,308.4,855.7,303.7z"/>
		<path class="st1" d="M724.7,245.5c31.7,66.2,45,144.7,24.6,214.2c28.5-40.4,34.2-95.1,23.4-143.9c-12-54.6-41.9-103.4-73.5-149.6
			c-6.4-9.3-13.4-19.2-15.9-30.4c-1-4.7,0.5-12.3-0.5-17.9c-1.3,2.2-2.5,4.7-3.4,7.7C668.5,160.9,710.3,215.4,724.7,245.5z"/>
	</g>
	<path class="st1" d="M700,545.9c-2.3-12.3-7.5-23.7-14.8-33.9c0.8,11.9,1.1,24.8-6.2,34.2c-6.2,7.9-16.4,11.4-26.2,13.4
		c-33.1,7-68.1,2.5-99.9-9.2c-31.8-11.7-60.7-30.3-87-51.5c-71.4-57.5-125.8-135.9-154.8-222.8c-3-9-5.6-18.4-6.3-27.8
		c-0.2-3,0.2-6.6,0.3-10.1c-9.1,20.8-5.6,45,0.8,66.8c9.3,31.5,24.3,60.9,39.3,90.2c9.6,18.8,19.3,37.7,31.5,54.9
		c11.9,16.6,26.1,31.5,41.1,45.4c35.7,33,76.2,60.8,118.7,84.5c28.6,15.9,58.7,30.2,90.9,35.9c11.5,2,23.4,3,34.6-0.2
		C690,607.5,705.3,574.4,700,545.9z"/>
	<path class="st2" d="M27.7,74.8c2.3,1.6,5.2,1.8,8,1.7c20.5-0.4,38.7-12,57.7-19.6c37.7-15.2,79.5-15.2,120.1-16.7
		c11.3-0.4,23.1-1.1,32.9-6.6c0.8-0.4,1.6-1,1.8-1.8c0.6-1.7-1.4-3.2-3-3.9c-13.3-5.7-28.2-5.5-42.6-4.4
		c-15.9,1.2-31.7,3.3-47.6,5.4c-27.6,3.7-55.3,7.4-82.3,14.3C67.4,44.5,5.2,59.5,27.7,74.8z"/>
	<path class="st2" d="M263.5,21.2c-1.4,2.3-1.7,5.4-0.1,7.6c1.9,2.7,5.6,3.2,8.9,3.3c12.8,0.4,25.6-2.2,37.2-7.5
		c1.8-0.8,4-2.5,3.3-4.4c-0.3-0.8-1-1.3-1.6-1.7c-5.9-3.9-13.5-4.2-20.6-3.5C283.3,15.8,267.9,14.3,263.5,21.2z"/>
	<path class="st2" d="M711.6,548.5c-4.5,7.5-4.9,18.1,1.4,24.1c5.9,5.6,15.7,5.1,22.7,1.1c7-4,12-10.9,16.5-17.6
		c19.9-29.5,37-61.4,45.4-96c1.3-5.3,1.8-12.1-2.9-14.9c-5.3-3.2-11.7,1.8-15.1,7c-8,12-11.5,26.4-17.9,39.3
		c-6.4,12.8-15.6,24.3-25.2,34.8C728.9,534.8,717.7,538.3,711.6,548.5z"/>
	<path class="st2" d="M808,417.4c4.4-7.9,5.7-17.4,3.5-26.2c-0.4-1.5-0.8-3-2-4c-1.1-1-2.7-1.3-4.2-1.3c-4.9,0-9.6,3-11.7,7.4
		c-1.5,3.1-1.7,6.7-1.8,10.2c-0.2,4.4-3.1,16.2,0.5,19.9C797.6,428.9,805.3,422.1,808,417.4z"/>
	<path class="st2" d="M523.8,469.7c4.8,5.4,12,7.8,18.8,10.1c30.4,10.4,59.5,24.4,86.7,41.6c6.7,4.3,16.2,8.5,21.9,2.9
		c1.5-1.5,2.4-3.4,2.9-5.5c1.7-7.1-1.7-14.6-6.8-19.7c-5.1-5.1-11.8-8.4-18.4-11.5c-27-12.9-54.2-25.8-83-34.3
		C534.6,450,507.1,450.7,523.8,469.7z"/>
</g>
</svg>
