<?xml version="1.0" encoding="utf-8"?>
<!-- Generator: Adobe Illustrator 25.2.3, SVG Export Plug-In . SVG Version: 6.00 Build 0)  -->
<svg version="1.1" id="Capa_1" xmlns="http://www.w3.org/2000/svg" xmlns:xlink="http://www.w3.org/1999/xlink" x="0px" y="0px"
	 width="74.6px" height="74.1px" viewBox="0 0 74.6 74.1" style="enable-background:new 0 0 74.6 74.1;" xml:space="preserve">
<style type="text/css">
	.st0{fill:url(#SVGID_1_);}
	.st1{opacity:0.85;fill:#9B1538;}
	.st2{fill:url(#SVGID_2_);}
	.st3{fill:#D0334B;}
	.st4{opacity:0.49;fill:#C12135;}
	.st5{opacity:0.7;fill:#E0707B;}
	.st6{opacity:0.7;fill:#EEBEC5;}
	.st7{opacity:0.49;fill:#B31A35;}
	.st8{fill:#CBC180;}
	.st9{fill:#DED69B;}
	.st10{fill:#D0CB77;}
	.st11{fill:url(#SVGID_3_);}
	.st12{opacity:0.8;fill:#C85E6D;}
	.st13{fill:#BAB467;}
	.st14{fill:#424A19;}
	.st15{opacity:0.89;fill:#FFFFFF;}
	.st16{fill:#3A4112;}
	.st17{opacity:0.65;fill:#788F3B;}
	.st18{opacity:0.8;fill:#3B4D1A;}
	.st19{opacity:0.61;fill:#9F0E30;}
	.st20{fill:#55362B;}
	.st21{fill:#412820;}
	.st22{opacity:0.4;fill:#AF8F88;}
</style>
<g>
	<linearGradient id="SVGID_1_" gradientUnits="userSpaceOnUse" x1="16.5843" y1="45.2442" x2="65.4347" y2="22.8291">
		<stop  offset="0" style="stop-color:#DF645C"/>
		<stop  offset="0.1582" style="stop-color:#D73F53"/>
		<stop  offset="0.9679" style="stop-color:#AC2043"/>
	</linearGradient>
	<path class="st0" d="M72.2,50.9l-6.9,9.2L64.7,61l-0.4-0.7l-0.2-0.3L51.5,36.2L34.8,4.9l-2.7-4.6c0,0,0,0,0.1,0c0,0,0,0,0,0
		c0,0,0,0,0,0c0,0,0.1,0,0.2,0c0,0,0.1,0,0.1,0c0.1,0,0.2,0,0.3,0c0.1,0,0.3,0,0.4,0c1.4-0.1,3.8-0.3,5.8,0.1c0,0,20.4,31.3,29.3,45
		c0.1,0.2,0.2,0.3,0.3,0.5C70.4,48.2,71.6,50.1,72.2,50.9z"/>
	<path class="st1" d="M72.2,50.9l-6.9,9.2l-1.2-0.2L51.5,36.2L34.8,4.9l-2.7-4.6c0,0,0,0,0.1,0c0,0,0,0,0,0c0,0,0,0,0,0
		c0,0,0.1,0,0.2,0c0,0,0.1,0,0.1,0c0.1,0,0.2,0,0.3,0c0.1,0,0.3,0,0.4,0c1.4-0.1,3.8-0.3,5.8,0.1c0,0-3.2,1.1,0,7.2
		c0,0,2.3,1.4,3.6,6.7c0,0,0.6,3.3,6.3,4.4c0,0,1,0.7-1.1,1.3c0,0,0.5,7.9,6,12.9c0,0,1.6,1.6,3.4,2.1c0,0,1.9-0.4,1.9,4
		c0,0,0.5,7.4,3.5,8.5c0,0,1.7,0.7,5.6-2.1c0.1,0.2,0.2,0.3,0.3,0.5C70.4,48.2,71.6,50.1,72.2,50.9z"/>
	<linearGradient id="SVGID_2_" gradientUnits="userSpaceOnUse" x1="3.6579" y1="29.2928" x2="77.7518" y2="46.5288">
		<stop  offset="0" style="stop-color:#DF645C"/>
		<stop  offset="0.4358" style="stop-color:#D73F53"/>
		<stop  offset="0.9679" style="stop-color:#AC2043"/>
	</linearGradient>
	<path class="st2" d="M65.4,59.8l-1,0.5l-16.9,8H17.3L3,57.2v-2.1c0,0,0.8-1.7,2.1-4.5c0.3-0.7,0.7-1.5,1.2-2.4l0,0
		C11.2,38.1,20.6,19,29.2,4.5c0.4-0.7,0.8-1.4,1.3-2.1c0.3-0.5,0.6-1,0.9-1.5c0,0,1.2-1.8,3.4,0.8l17.5,33.1c0,0,6.6,12.6,10.6,20.1
		C64,57.1,64.9,58.9,65.4,59.8z"/>
	<path class="st3" d="M64.4,60.3L64.4,60.3l-16.9,8H17.3L3,57.2v-2.1c0,0,0.5-1,1.3-2.7c0.3-0.5,0.5-1.1,0.9-1.8
		c0.3-0.7,0.7-1.5,1.2-2.4l0,0C12.7,51.5,20,53,27,50.7c4.2-1.4,8.7-4.2,10.7-8.3c3.9-8.1,1.7-19.7-0.7-28
		c-2.9-10.9-7.8-9.9-7.8-9.9c0.4-0.7,0.8-1.4,1.3-2.1c0.3-0.5,0.6-1,0.9-1.5c0,0,0.3-0.4,0.8-0.6c0,0,0,0,0,0c0,0,0,0,0,0
		c0.6-0.1,1.4,0.1,2.5,1.4l17.5,33.1c0,0,6.2,11.7,10.2,19.2c0.2,0.3,0.3,0.6,0.5,0.9L64.4,60.3z"/>
	<path class="st4" d="M65.4,59.8l-1.1,0.5l-16.8,8H17.3L3,57.2v-2.1c0,0,0-0.1,0.1-0.3c0-0.1,0.1-0.3,0.2-0.5
		c0.1-0.3,0.3-0.6,0.5-1.1v0C4,53,4.1,52.7,4.3,52.4c0.3-0.5,0.5-1.1,0.9-1.8c10.6,8,22.6,8.2,22.6,8.2
		c21.5,3.2,18.4-18.4,18.4-18.4c-1.3-10.4-8.1-26.6-8.1-26.6C33.6,0.7,30.4,2.4,30.4,2.4c0.3-0.5,0.6-1,0.9-1.5c0,0,1.2-1.8,3.4,0.8
		l17.5,33.1c0,0,6.2,11.6,10.2,19.2c0.2,0.5,0.5,0.9,0.7,1.3C64.2,57.4,65,58.9,65.4,59.8z"/>
	<path class="st5" d="M19.7,42.3c3.8,0.6,5.9-2.5,6.9-5.8c1.3-4.6,1.9-9.3,3.3-13.9C30.3,21,34,8.6,30.3,9.6c-1.4,0.4-2,1.9-2.6,3.1
		c-1.6,3.1-3.1,6.2-4.8,9.3C20.7,25.9,9.3,40.8,19.7,42.3z"/>
	<path class="st6" d="M24,23.7c-0.5,0.4-1,0.8-1.2,1.2c-1,1.4-2,4.1-1.3,5.8c1.3,3.4,4.5-3.6,4.7-4.8C26.3,24.4,25.6,22.6,24,23.7z"
		/>
	<path class="st6" d="M28.4,15.9c-0.2,0-0.4,0.1-0.6,0.2c-1.1,0.6-2.4,4.5-0.4,4.7C29.3,21,30.1,15.9,28.4,15.9z"/>
	<path class="st7" d="M26.7,33.6c0.6-0.6,2.6,0,3.2,0c1.4,0.1,2.8,0.3,4.2,0.3c2.3,0,4.8-1.6,6.8-2.7c1.2-0.7,3.2-4.8,4.7-3.4
		c3,2.8-6.6,6.2-8.2,6.6c-2.3,0.5-4.9,1.2-7.3,0.9c-0.6-0.1-4-0.4-3.5-1.5C26.6,33.7,26.6,33.6,26.7,33.6z"/>
	<path class="st7" d="M36.2,27c0.7,0.6,2.6,0.8,3.2,0.7c1.4-0.1,3.3-0.4,4.2-1.6c1.1-1.4-0.4-1.8-1.6-1.4c-0.7,0.2-1,0.6-1.8,0.7
		c-0.7,0.1-1.3,0-2,0c-0.5,0-1.4-0.1-1.8,0.3C35.9,26.4,35.9,26.8,36.2,27z"/>
	<path class="st7" d="M34.6,52.8c0.4-0.3,1.1-0.5,1.7-0.4c1.7,0.1,3.5,0.4,5.2,0.4c1.7,0,3.4,0,5.1-0.2c0.8-0.1,1.7-0.2,2.5-0.4
		c1.5-0.3,2.8-0.8,4.1-1.6c0.8-0.5,2.4-1.6,3.2-0.6c1.2,1.6-3.8,3.3-4.6,3.5c-1.1,0.3-2.1,0.4-3.2,0.5c-1.9,0.2-3.8,0.2-5.7,0.4
		c-1.8,0.2-3.6,0.6-5.5,0.5c-0.8,0-4.3-0.2-3-1.9C34.5,52.9,34.5,52.9,34.6,52.8z"/>
	<path class="st4" d="M14.9,42.9c-0.1,0.1-0.2,0.2-0.3,0.3c-1.8,2.1,3.6,3.5,4.8,3.8C23.1,47.8,27,48,30.8,48c2,0,4.6,0.2,6.4-1.1
		c1.7-1.2,0.4-1.8-1.1-1.7c-1.4,0.1-2.7,0.5-4.1,0.6c-2.1,0.1-4.3-0.2-6.4-0.7c-2.1-0.5-4.1-1.1-6.1-1.8
		C18.4,43.1,16.1,42.1,14.9,42.9z"/>
	<path class="st8" d="M72.2,50.9l-6.9,9.2L64.7,61l-0.4-0.7l1.1-0.5c-0.4-0.8-1.3-2.4-2.3-4.3c-0.2-0.4-0.5-0.9-0.7-1.3
		c0.6-0.8,1.4-1.5,2-2.3c0.9-1.3,2.5-2.3,3.1-3.8c0.3-0.6,0.7-1.6,1.3-2.3c0.2,0.4,0.5,0.7,0.7,1C70.8,48.7,71.7,50.2,72.2,50.9z"/>
	<path class="st9" d="M65.4,59.8l-1.1,0.5l-16.8,8H17.3L3,57.2v-2.1c0,0,0-0.1,0.1-0.3c0-0.1,0.1-0.3,0.2-0.5
		c0.1-0.3,0.3-0.6,0.5-1.1v0C4,53,4.1,52.7,4.3,52.4c0.7,0,1.3,0.3,1.9,0.5c1.1,0.3,1.9,0.9,2.9,1.5c1.7,0.9,3.3,2.1,5,3.1
		c1.3,0.7,2.6,1.6,3.9,2.2c1.5,0.7,2.9,0.8,4.5,0.9c3.3,0.3,6.6,1.1,9.9,1.6c4.3,0.7,8.7-0.1,12.9-1c2.1-0.5,4.3-1,6.3-1.7
		c1.8-0.6,3.7-1,5.4-1.9c1.6-0.8,3.3-1.3,4.5-2.5c0.2-0.2,0.3-0.3,0.5-0.5c0.1-0.2,0.3-0.3,0.4-0.5c0.2,0.5,0.5,0.9,0.7,1.3
		C64.2,57.4,65,58.9,65.4,59.8z"/>
	<path class="st10" d="M72.2,50.9l-2.3,6l-4.2,3.7l-2.9,2.6l-14.4,6.9l-22.2,0.3L7.5,62.2l-4.5-5L2.3,56l1.4-2.2
		c0,0,8.6,10.9,30,11.9c0,0,19,0.9,30-8.6c0.2-0.2,0.5-0.4,0.7-0.6c0,0,4.5-5.4,5.9-8.4L72.2,50.9z"/>
	<linearGradient id="SVGID_3_" gradientUnits="userSpaceOnUse" x1="38.0242" y1="64.0082" x2="39.1703" y2="73.9937">
		<stop  offset="0.191" style="stop-color:#576823"/>
		<stop  offset="0.4954" style="stop-color:#4D5920"/>
		<stop  offset="1" style="stop-color:#4D5920"/>
	</linearGradient>
	<path class="st11" d="M74.6,55l-6.8,9.6c0,0,0,0.1-0.1,0.1c-0.4,0.5-1.4,0.9-1.9,1.2c0,0,0,0-0.1,0c-0.7,0.4-1.4,0.8-2.1,1.2
		c-0.2,0.1-0.5,0.3-0.7,0.4c-1.1,0.6-2.2,1.1-3.3,1.7c-0.9,0.4-1.9,0.8-2.9,1.2c-1.6,0.6-3.2,1.2-4.8,1.7c-0.2,0-0.3,0.1-0.5,0.1
		c-2.6,0.8-5.4,1.3-8.1,1.6c-2,0.2-4,0.3-6,0.3c-2.3,0-4.5-0.2-6.8-0.4c-1.4-0.2-2.8-0.4-4.2-0.6c-0.8-0.1-1.6-0.3-2.5-0.5
		c-0.7-0.1-1.4-0.3-2.1-0.5c-2.1-0.5-4.3-1.1-6.4-1.8c-1.6-0.6-3.1-1.2-4.6-1.9c-0.6-0.3-1.1-0.5-1.7-0.8c-0.5-0.2-3-1.8-5.3-3.4
		c-2.2-1.5-4.2-3.1-3.9-3.7c0,0,2.3-4.5,2.3-4.5c1.8,1.5,3.8,2.8,5.7,3.9c0.6,0.4,1.3,0.7,1.9,1c0,0,0,0,0,0c2.2,1.1,4.4,2,6.5,2.7
		c1.6,0.5,3.1,1,4.6,1.4c2.5,0.6,4.8,1.1,6.8,1.4h0c0,0,0,0,0,0c0.9,0.1,1.7,0.2,2.5,0.3c2.6,0.3,4.1,0.3,4.1,0.3c1.3,0,2.6,0,3.9,0
		c1.3-0.1,2.7-0.2,3.9-0.3c2.5-0.3,4.9-0.8,7.1-1.4c1.4-0.4,2.7-0.8,3.9-1.2c2.3-0.8,4.2-1.6,5.9-2.4l0.2-0.1c1-0.5,1.9-0.9,2.6-1.3
		c1.4-0.7,2.2-1.3,2.6-1.5c0,0,0,0,0,0c0.1-0.1,0.1-0.1,0.1-0.1c3.4-2.6,5.5-7,6.1-8.7c0.2-0.4,0.2-0.6,0.2-0.6
		c0.9,0.9,1.5,1.7,2,2.4C74.7,53.9,74.6,55,74.6,55z"/>
	<path class="st12" d="M69.5,46.7c-1.5,4-4.2,6.9-6.3,8.7c-0.2-0.4-0.5-0.9-0.7-1.3c0.6-0.8,1.4-1.5,2-2.3c0.9-1.3,2.5-2.3,3.1-3.8
		c0.3-0.6,0.7-1.6,1.3-2.3C69,46.1,69.2,46.4,69.5,46.7z"/>
	<path class="st5" d="M63.1,55.4c-1.7,1.4-3,2.1-3,2.1c-18,9.4-34.1,5.1-34.1,5.1c-10.9-1.2-22.3-9.3-22.3-9.3v0
		C4,53,4.1,52.7,4.3,52.4c0.7,0,1.3,0.3,1.9,0.5c1.1,0.3,1.9,0.9,2.9,1.5c1.7,0.9,3.3,2.1,5,3.1c1.3,0.7,2.6,1.6,3.9,2.2
		c1.5,0.7,2.9,0.8,4.5,0.9c3.3,0.3,6.6,1.1,9.9,1.6c4.3,0.7,8.7-0.1,12.9-1c2.1-0.5,4.3-1,6.3-1.7c1.8-0.6,3.7-1,5.4-1.9
		c1.6-0.8,3.3-1.3,4.5-2.5c0.2-0.2,0.3-0.3,0.5-0.5c0.1-0.2,0.3-0.3,0.4-0.5C62.7,54.6,62.9,55,63.1,55.4z"/>
	<path class="st13" d="M72.2,50.9l-2.3,6l-4.2,3.7l-1.7-3.8c0.2-0.2,0.2-0.2,0.4-0.4c0,0,4.5-5.4,5.9-8.4L72.2,50.9z"/>
	<path class="st14" d="M74.6,55l-6.8,9.6c0,0,0,0.1-0.1,0.1l-1-1.9l-2.1-4.1c0,0,0,0,0,0c3.4-2.6,5.6-7.1,6.3-8.7
		c0.2-0.4,0.2-0.6,0.2-0.6c0.9,0.9,1.5,1.7,2,2.4C74.7,53.9,74.6,55,74.6,55z"/>
	<path class="st15" d="M27.7,18.9c-0.1,0.5-0.5,0.8-0.8,0.7c-0.3-0.1-0.4-0.5-0.3-1c0.1-0.5,0.5-0.8,0.8-0.7
		C27.7,18,27.8,18.4,27.7,18.9z"/>
	<path class="st15" d="M26.7,23c-0.4,1-1.3,1.5-1.9,1.2c-0.6-0.3-0.7-1.3-0.3-2.2s1.3-1.5,1.9-1.2C27,21,27.1,22,26.7,23z"/>
	<path class="st16" d="M74.6,55l-6.8,9.6c0,0,0,0.1-0.1,0.1c0,0-0.1,0.1-0.1,0.1l-0.9-1.9c0,0,0,0,0.1,0c0,0,5-6.7,6.5-11
		C74.7,53.9,74.6,55,74.6,55z"/>
	<path class="st17" d="M10.9,68.4c-0.6-0.3-1.1-0.5-1.7-0.8c-0.5-0.2-3-1.8-5.3-3.4c0.4-0.3,0.9-0.6,1.2-0.9
		c0.5-0.6,0.9-1.2,1.4-1.8c0.3-0.4,0.5-0.8,0.8-1.1c0.6-0.7,1.8,0.1,2.4,0.5c0.1,0,0.1,0.1,0.2,0.1c0,0,0,0,0,0
		c0.7,0.5,0.4,0.9,0.5,1.9c0.1,1.5,0.4,2.9,0.4,4.4C10.8,67.6,10.9,68,10.9,68.4z"/>
	<path class="st17" d="M21.9,72.1c-2.1-0.5-4.3-1.1-6.4-1.8c0-0.2,0-0.4,0-0.6c0-1.1,0-2.1,0.2-3.1c0.1-1,0.6-1.9,0.7-2.8
		c0,0,0,0,0,0c1.6,0.5,3.1,1,4.6,1.4c0.1,1.7,0.2,3.3,0.6,5C21.7,70.7,21.8,71.4,21.9,72.1z"/>
	<path class="st17" d="M30.8,72.8c0,0.3,0,0.6-0.1,0.8c-1.4-0.2-2.8-0.4-4.2-0.6c0.1-0.4,0.3-0.9,0.5-1.5c0.4-1.4,0.3-4,1-5.1h0
		c0,0,0,0,0,0c0.9,0.1,1.7,0.2,2.5,0.3c0.2,0.2,0.3,0.4,0.3,0.8C31,69.2,30.8,71.2,30.8,72.8z"/>
	<path class="st17" d="M43.3,73.8c-2,0.2-4,0.3-6,0.3c0.7-2.3,1-4.6,1-7.1c1.3-0.1,2.7-0.2,3.9-0.3c0.5,0.5,0.7,1.3,0.8,2.2
		C43.3,70.4,43.4,72.2,43.3,73.8z"/>
	<path class="st17" d="M56.8,70.4c-1.6,0.6-3.2,1.2-4.8,1.7c-0.2,0-0.3,0.1-0.5,0.1c-0.4-2.4-0.6-5-2.1-6.9c1.4-0.4,2.7-0.8,3.9-1.2
		c1,0.7,1.8,2.1,2.4,3C56.3,68,57,69.3,56.8,70.4z"/>
	<path class="st17" d="M65.8,65.9c-0.7,0.4-1.4,0.8-2.1,1.2c-0.2,0.1-0.5,0.3-0.7,0.4c-0.4-1.3-1.4-4-3.7-5.7l0.2-0.1l2.6-1.3
		C62.1,60.3,64.9,63,65.8,65.9z"/>
	<path class="st18" d="M67.6,64.8c-0.5,0.4-1.4,0.8-1.8,1.1c-0.7,0.4-1.4,0.8-2.2,1.2c-1.3,0.7-2.7,1.4-4.1,2
		c-2.5,1.1-5,2.1-7.6,2.9c-8.9,2.8-18.9,2.4-28,0.5c-5.1-1.1-10.1-2.6-14.7-5c-0.9-0.5-9.9-5.8-9.2-7.1c0,0,35,23.7,66.7,2.4
		L67.6,64.8z"/>
	<g>
		<path class="st19" d="M35.3,47.7c0.9-0.6,1.6,0.8,1.9,1.4c0.2,0.4,0.3,0.9,0.5,1.4c0.2,0.5,0.6,0.9,0.6,1.4c0,2.2-3.9,2.2-4.5,0.4
			c-0.3-1,0.6-1.8,0.9-2.7C34.9,48.9,34.9,48.2,35.3,47.7z"/>
		<g>
			<path class="st20" d="M37.3,51.2c0,1-0.9,1.9-2,1.8c-0.6,0-1.1-0.3-1.5-0.8c-0.2-0.3-0.4-0.7-0.4-1.2c0-0.8,1.2-2.6,1.7-3.3
				c0.1-0.1,0.3-0.1,0.4,0C36.1,48.5,37.3,50.4,37.3,51.2z"/>
			<path class="st21" d="M37.3,51.2c0,1-0.9,1.9-2,1.8c-0.6,0-1.1-0.3-1.5-0.8c1.9,0.7,2.2-1.4,2.2-1.4c0.2-1.6-0.9-3.1-0.9-3.1
				c0.1-0.1,0.3-0.1,0.4,0C36.1,48.5,37.3,50.4,37.3,51.2z"/>
			<path class="st22" d="M34.4,51.4c0.7,0.1,0.9-1.9,0.1-1.5C33.9,50.2,33.5,51.5,34.4,51.4C34.4,51.4,34.3,51.4,34.4,51.4z"/>
		</g>
	</g>
	<g>
		<path class="st19" d="M49.9,45.9c0.7-0.8,1.8,0.4,2.2,0.9c0.3,0.4,0.5,0.8,0.8,1.2c0.3,0.4,0.8,0.7,1,1.2c0.5,2.1-3.3,3.1-4.2,1.5
			c-0.5-0.9,0.2-1.9,0.2-2.8C49.8,47.2,49.6,46.5,49.9,45.9z"/>
		<g>
			<path class="st20" d="M52.7,48.9c0.2,1-0.5,2-1.5,2.2c-0.6,0.1-1.2,0-1.6-0.4c-0.3-0.3-0.5-0.6-0.6-1.1c-0.2-0.8,0.5-2.8,0.8-3.6
				c0.1-0.2,0.3-0.2,0.4-0.1C50.8,46.5,52.5,48.1,52.7,48.9z"/>
			<path class="st21" d="M52.7,48.9c0.2,1-0.5,2-1.5,2.2c-0.6,0.1-1.2,0-1.6-0.4c2,0.2,1.8-1.9,1.8-1.9c-0.2-1.6-1.6-2.8-1.6-2.8
				c0.1-0.2,0.3-0.2,0.4-0.1C50.8,46.5,52.5,48.1,52.7,48.9z"/>
			<path class="st22" d="M49.9,49.7c0.7-0.1,0.4-2-0.3-1.5C49.1,48.7,49,50.1,49.9,49.7C49.9,49.7,49.8,49.7,49.9,49.7z"/>
		</g>
	</g>
	<g>
		<path class="st19" d="M19.8,45c1-0.4,1.4,1.1,1.6,1.8c0.1,0.5,0.1,1,0.1,1.4c0.1,0.5,0.4,1,0.3,1.5c-0.5,2.1-4.3,1.2-4.5-0.6
			c-0.1-1,1-1.6,1.5-2.4C19.2,46.1,19.3,45.4,19.8,45z"/>
		<g>
			<path class="st20" d="M20.9,48.9c-0.3,1-1.3,1.6-2.3,1.3c-0.6-0.2-1-0.6-1.2-1.1c-0.2-0.4-0.2-0.8-0.1-1.2
				c0.2-0.8,1.7-2.2,2.4-2.8C19.8,45,20,45,20,45.2C20.3,46,21.1,48.1,20.9,48.9z"/>
			<path class="st21" d="M20.9,48.9c-0.3,1-1.3,1.6-2.3,1.3c-0.6-0.2-1-0.6-1.2-1.1c1.7,1.1,2.4-0.8,2.4-0.8
				c0.5-1.5-0.2-3.2-0.2-3.2C19.8,45,20,45,20,45.2C20.3,46,21.1,48.1,20.9,48.9z"/>
			<path class="st22" d="M18,48.4c0.7,0.2,1.3-1.6,0.4-1.4C17.8,47.1,17.1,48.3,18,48.4C18.1,48.4,18,48.4,18,48.4z"/>
		</g>
	</g>
	<g>
		<path class="st19" d="M46.8,37.9c0.7-0.8,1.8,0.2,2.3,0.7c0.3,0.4,0.6,0.8,0.9,1.1c0.3,0.4,0.9,0.6,1,1.1c0.7,2.1-3.1,3.3-4.1,1.8
			c-0.6-0.8,0-1.9,0-2.9C46.8,39.1,46.6,38.5,46.8,37.9z"/>
		<g>
			<path class="st20" d="M49.8,40.6c0.3,1-0.3,2-1.3,2.3c-0.6,0.2-1.2,0-1.6-0.3c-0.3-0.2-0.6-0.6-0.7-1c-0.2-0.8,0.3-2.8,0.6-3.6
				c0-0.2,0.2-0.2,0.4-0.1C47.8,38.4,49.6,39.8,49.8,40.6z"/>
			<path class="st21" d="M49.8,40.6c0.3,1-0.3,2-1.3,2.3c-0.6,0.2-1.2,0-1.6-0.3c2,0,1.6-2,1.6-2c-0.3-1.6-1.8-2.7-1.8-2.7
				c0-0.2,0.2-0.2,0.4-0.1C47.8,38.4,49.6,39.8,49.8,40.6z"/>
			<path class="st22" d="M47.1,41.7c0.7-0.1,0.3-2.1-0.4-1.5C46.2,40.6,46.2,42.1,47.1,41.7C47.1,41.6,47,41.7,47.1,41.7z"/>
		</g>
	</g>
	<g>
		<path class="st19" d="M32.9,33.1c1-0.4,1.4,1.1,1.6,1.8c0.1,0.5,0.1,0.9,0.2,1.4c0.1,0.5,0.4,1,0.3,1.5c-0.4,2.1-4.3,1.3-4.5-0.5
			c-0.1-1,1-1.6,1.4-2.5C32.3,34.2,32.5,33.5,32.9,33.1z"/>
		<g>
			<path class="st20" d="M34.2,37c-0.3,1-1.3,1.6-2.3,1.4c-0.6-0.1-1-0.5-1.3-1.1c-0.2-0.4-0.2-0.8-0.1-1.2c0.2-0.8,1.7-2.3,2.3-2.9
				c0.1-0.1,0.3-0.1,0.4,0.1C33.5,34.1,34.4,36.2,34.2,37z"/>
			<path class="st21" d="M34.2,37c-0.3,1-1.3,1.6-2.3,1.4c-0.6-0.1-1-0.5-1.3-1.1c1.7,1.1,2.4-0.9,2.4-0.9c0.5-1.5-0.2-3.2-0.2-3.2
				c0.1-0.1,0.3-0.1,0.4,0.1C33.5,34.1,34.4,36.2,34.2,37z"/>
			<path class="st22" d="M31.3,36.5c0.7,0.2,1.3-1.7,0.4-1.4C31.1,35.2,30.4,36.5,31.3,36.5C31.4,36.5,31.3,36.5,31.3,36.5z"/>
		</g>
	</g>
	<g>
		<path class="st19" d="M34.3,20c0.9-0.6,1.6,0.7,2,1.3c0.2,0.4,0.3,0.9,0.5,1.3c0.2,0.5,0.7,0.8,0.7,1.4c0.1,2.2-3.9,2.3-4.5,0.6
			c-0.3-1,0.6-1.8,0.8-2.7C34,21.1,33.9,20.5,34.3,20z"/>
		<g>
			<path class="st20" d="M36.4,23.4c0,1-0.9,1.9-1.9,1.9c-0.6,0-1.1-0.3-1.5-0.7c-0.2-0.3-0.4-0.7-0.4-1.2c0-0.8,1.1-2.6,1.6-3.3
				c0.1-0.1,0.3-0.2,0.4,0C35.1,20.7,36.4,22.6,36.4,23.4z"/>
			<path class="st21" d="M36.4,23.4c0,1-0.9,1.9-1.9,1.9c-0.6,0-1.1-0.3-1.5-0.7c2,0.6,2.1-1.5,2.1-1.5c0.1-1.6-1-3-1-3
				c0.1-0.1,0.3-0.2,0.4,0C35.1,20.7,36.4,22.6,36.4,23.4z"/>
			<path class="st22" d="M33.5,23.7c0.7,0.1,0.8-1.9,0-1.5C33,22.5,32.6,23.8,33.5,23.7C33.6,23.6,33.5,23.7,33.5,23.7z"/>
		</g>
	</g>
</g>
</svg>
