<?xml version="1.0" encoding="utf-8"?>
<!-- Generator: Adobe Illustrator 25.2.3, SVG Export Plug-In . SVG Version: 6.00 Build 0)  -->
<svg version="1.1" id="Capa_1" xmlns="http://www.w3.org/2000/svg" xmlns:xlink="http://www.w3.org/1999/xlink" x="0px" y="0px"
	 width="627.1px" height="446.5px" viewBox="0 0 627.1 446.5" style="enable-background:new 0 0 627.1 446.5;" xml:space="preserve"
	>
<style type="text/css">
	.st0{fill:#883946;}
	.st1{fill:#CB8480;}
	.st2{fill:#F5DBD5;}
	.st3{fill:#F3D3C3;}
	.st4{fill:#B04652;}
	.st5{opacity:0.34;fill:#FFFFFF;}
</style>
<g>
	<path class="st0" d="M574.6,157.9c9.4,7.8,18,16.6,25.5,26.2c7.7,9.9,14.3,20.8,18.4,32.7c4.6,13.4,5.9,27.6,6.9,41.7
		c1.9,26,3.1,52.4-1.3,78.1c-4.4,25.7-14.7,51.1-33.1,69.7c-6.7,6.7-16.3,12.8-25.2,9.5c-4.9-1.9-8.3-6.2-11.3-10.5
		c-18.8-27-30.3-58.3-38.5-90.2c-9.2-35.8-14.2-72.9-11.4-109.7c1-12.8,2.9-25.4,5.7-37.9c2.2-9.7,4.5-29.3,12-36.4
		C535.6,118.7,565.1,150.1,574.6,157.9z"/>
	<path class="st1" d="M53.3,168.8c31-68,73-89.8,103.7-96.7c30.8-6.9,61.3-17.8,92.6-17.7c24.7,0.1,49.3-1.5,73.8-4.9
		c13-1.8,26.2-4.2,37.9-11.3c11.2-6.8,20.5-17.6,31.4-25.3c25-17.8,57.8-17.1,82.3,1.7c14.7,11.3,26.1,28.2,37.1,44.7
		c36.9,55.3,74.9,113.1,89.1,182.6c3.6,17.6,4.9,38.5-5.1,51.7c-7,9.2-17.6,12.2-27.7,14c-62.9,11.2-126.3-7.3-189.1-19.6
		c-46.6-9.1-93.5-14.9-140.6-17.4c-39.1-2-78.4-1.7-117,6.7c-25.2,5.5-85.6,27.8-102.9-8.7c-8.3-17.5,4.9-35.5,12.9-48.1
		C42.3,203.9,45,187.1,53.3,168.8z"/>
	<path class="st0" d="M458.2,7.1c-2-1.3,21.5,2,47.3,30.3c9.8,10.8,48.8,64.5,56.7,79.9c11.9,23.3,20.6,48.9,28.4,74.8
		c8.7,29.1,16.4,59,17.9,90.2c0.2,4.3,0.3,8.8-1.5,12.6c-2,4.4-6.1,7-10.1,7.8c-10.1,2.1-19.7-4.8-26.8-13.5
		c-11.3-13.9-18.2-32.2-26-49.5c-11.7-26.2-25.7-50.8-36.2-77.8c-9.7-24.9-16.5-52.7-14.5-81.1C495.1,57.1,483.5,23.3,458.2,7.1z"/>
	<path class="st2" d="M16.2,262.6C6.5,286.1-0.4,311.3,0,336.8c0.5,25.5,8.9,51.5,26.3,69.8c8.7,9.2,19.5,16.2,30.8,21.8
		C112.1,455.2,176.4,446,237,440c81-8,162.6-9.1,243.9-6.6c21,0.6,42.3,1.5,62.9-2.9c20.6-4.4,40.8-14.8,52.7-32.5
		c9.5-14,12.9-31.3,15.1-48.2c2.7-21.3,3.6-43.7-5.1-63.2c-13.9-30.9-48.2-46.3-80.5-55.6C422.6,201,312.8,206,205.4,212.5
		c-38.2,2.3-76.5,4.8-113.9,12.6C72,229.2,51.8,235.3,38.2,250c-9.5,10.3-15.9,24.7-28.9,29.8L16.2,262.6z"/>
	<path class="st3" d="M605.5,365.1c-12.3,8.7-17.5,24.4-28.4,34.9c-14.6,14.1-36.7,16.5-57,17.6c-66.4,3.7-133,2.5-199.2-3.6
		c-48.8-4.5-97.7-11.7-146.6-8.4c-34.7,2.3-69.6,9.8-104,4.2c-15.2-2.5-30-8.2-42.6-17c-10.5-7.3-15.9-17.7-23.6-26.5
		c4.2,15.1,11.4,29.2,22.1,40.4c8.7,9.2,19.5,16.2,30.8,21.8c54.9,26.8,119.3,17.5,179.9,11.6c81-8,162.6-9.1,243.9-6.6
		c21,0.6,42.3,1.5,62.9-2.9c20.6-4.4,40.8-14.8,52.7-32.5c7-10.4,10.7-22.6,13-35.1C608.1,363.4,606.7,364.2,605.5,365.1z"/>
	<path class="st4" d="M59.7,336.8c-18.1-2.9-36.2-12.7-44.1-29.3c-7.4-15.5-4.8-34.3,2.9-49.6c7.7-15.4,19.9-27.9,32-40.1
		c16.7-16.8,34.1-33.6,55.5-43.8c27.9-13.4,60-14.5,91-13.6c65.1,1.8,131,10.8,194.7-2.5c12.8-2.7,26.4-6.8,34.4-17.2
		c11.7-15.1,8.8-39.6,24.2-50.9c9.7-7.2,24.9-5.3,32.6,4c4.5,5.4,6.3,12.4,9.7,18.6c5.5,10.1,14.8,17.5,23.6,25
		c27.5,23.7,51.4,51.8,70.4,82.7c11.3,18.4,21.1,38.6,21.8,60.2c0.9,31.5-18.7,61.2-45.1,78.3c-26.4,17.1-58.8,23-90.2,23.1
		c-31.5,0.1-62.7-5.1-94-8.4c-43.4-4.7-87.1-5.9-130.6-9.8c-44.9-4-85.5-14.8-128.8-25.9C100,332.5,79.7,340,59.7,336.8z"/>
	<path class="st2" d="M142.6,328.7c12-14.2,30.3-21.5,48.4-26.1c18-4.6,36.8-7.2,53.9-14.5c17.7-7.6,33.1-20.2,44.1-36
		c3.7-5.3,6.9-11,11.3-15.7c4.4-4.7,10.4-8.4,16.9-8.4c-10,2.6-14.2,14.1-19.1,23.1c-12.9,23.5-38.5,36.8-63.4,46.5
		c-25,9.7-51.5,17.6-71.8,35c-3.5,3-6.9,6.5-8.1,10.9c-1.3,4.4,0.3,9.9,4.5,11.8c2.8,1.2,7.1,1.9,6.7,4.9c-0.1,1-0.8,1.8-1.6,2.4
		c-7.8,6.9-19,2.9-24.8-4.4C132.1,349,135.4,337.2,142.6,328.7z"/>
	<path class="st2" d="M587.6,246.4c-3.6,3.1-5.9,7.5-8,11.8c-5.9,11.8-11.8,23.6-17.7,35.4c-3.4,6.8-6.9,13.7-12.6,18.7
		c-7.4,6.5-17.6,8.9-27.4,9.2c-9.8,0.3-19.6-1.2-29.4-1.4c-35.4-0.7-70.3,15.2-105.4,10.5c-10.6-1.4-22.7-4.3-30.9,2.5
		c15.4,2.3,30.9,4.7,46.3,7c8.9,1.3,18,2.7,27,2c7.9-0.6,15.7-2.8,23.5-4.1c8.9-1.4,18-1.7,27-0.7c12.9,1.4,25.7,5.2,38.6,4.6
		c15.9-0.8,31.3-8.9,41.1-21.4c1.5-2,3-4.1,5.2-5.3c2.2-1.2,5.4-0.9,6.7,1.2c0.6,1.1,0.7,2.4,0.5,3.7c-1,8.8-9.1,15.1-17.1,18.9
		c-8,3.8-17,6.3-23.4,12.5c8.6,4.5,18.8-1.3,26.8-6.9c10.3-7.2,21.7-16.8,20.7-29.3c-0.4-5.1-2.9-10.3-1.2-15.1
		c2.7-7.4,12.6-8.1,19.2-12.3c6.7-4.4,9.7-13,9.5-21.1C606.4,256.4,601.9,234.2,587.6,246.4z"/>
	<path class="st2" d="M46.3,311.1c15.2,5.9,32.4,6.8,48.2,2.6c20.4-5.4,37.8-18.9,58-25.4c32.3-10.4,69.5-2.1,99.7-17.6
		c1.9-1,4.1-3.1,3-5c-17.7,5.3-36.1,8.4-54.5,9.1c-15.5,0.6-31.2-0.4-46.2,3.5c-12,3.2-23,9.4-34.5,14c-19.7,8-41.2,11.5-62.4,10.2
		c-14.5-0.9-27.3-5.1-37.1-15.9C23.7,298.8,35.1,306.8,46.3,311.1z"/>
	<path class="st2" d="M544.7,263.2c-3.2,3.4-4.4,8.1-5.7,12.5c-1.3,4.5-2.8,9.1-6.3,12.2c-6.1,5.4-15.3,3.9-23.4,4.1
		c-6.3,0.1-12.6,1.5-18.4,3.9c-1.6,0.7-3.5,2-3.1,3.8c0.2,0.7,0.7,1.2,1.3,1.7c3.9,3.1,9.3,3.2,14.2,2.6c4.9-0.6,9.9-1.8,14.8-0.9
		c4.9,0.9,9.2,4,14.1,5.2c7.5,1.8,16.7-2.2,18.7-9.7c0.8-3.1,0.4-6.4,0.8-9.6c0.4-4,2-7.8,4.5-10.9c2-2.4,4.5-4.4,5.9-7.2
		C566.8,261,550.4,257.1,544.7,263.2z"/>
	<path class="st5" d="M53.7,269.3c-6.5,9.9-13,19.9-17.1,30.9c-8.8,23.8-5,51.8,9.7,72.4c4.6,6.4,10.4,12.3,17.8,15.2
		c7.4,2.9,16.4,2.4,22.4-2.9c6.6-5.8,7.8-15.9,5.7-24.5c-2.1-8.6-6.9-16.2-10.7-24.1c-6-12.5-9.7-26.5-7.2-40.2
		c2.5-14.3,11.5-26.6,21.5-37.1c11.1-11.6,24-21.8,38.9-27.8c8.2-3.3,17-5.3,24.2-10.3c14.3-9.9,12.9-25.7-1.6-33.9
		c-14-7.9-25.7-2.3-38.3,6C90.9,211.9,71.8,241.7,53.7,269.3z"/>
	<path class="st5" d="M110.6,151.5c0.9,1,2.1,1.7,3.3,2.1c8.3,2.9,16.8-2.8,24.4-7.2c20-11.6,43.7-15.4,66.8-17
		c23.1-1.6,46.5-1.1,69.3-5.2c5.7-1,12.8-4.8,11-10.3c-24.3,0.5-48.6,1.1-73,1.6c-15,0.3-30,0.7-44.7,3.2
		C160.3,120.1,99.7,138.3,110.6,151.5z"/>
	<path class="st4" d="M457.2,22.2c7.9,10.2,16,20.4,21.3,32.1c5.3,11.7,7.6,25.4,3.5,37.6c-1.8,5.5-5,11.3-2.9,16.8
		c1,2.6,3.1,4.7,5.1,6.7c7.8,7.6,15.6,15.2,23.4,22.9c5.2,5.1,34,23.2,38.8,28.6c8,9.1-15.3-32.2-16.9-37.6
		c-2.4-7.9-7.2-14.9-10.1-22.7c-4.6-12.1-4.5-25.7-9.7-37.6c-4.2-9.5-11.6-17.3-16.9-26.2c-4.9-8.2-8.1-17.3-13.6-25.1
		c-4.1-5.8-16.9-11.9-28.2-15.3C449.9,2.2,453.4,17.2,457.2,22.2z"/>
	<path class="st5" d="M491.4,114.2c10.4,4.1,17.8,13.5,22.6,23.6c4.8,10.1,7.5,21,11.7,31.4c5.5,13.8,13.6,26.5,23.8,37.3
		c2.9,3.1,6,6.1,7.6,9.9c2.5,5.7,1.2,12.9-3.2,17.3s-11.5,6-17.2,3.7c-8.5-3.4-12.3-13.2-14.4-22.2c-4.8-21.4-5.3-45.6-20-61.9
		c-8.3-9.2-14.7-7.7-25.6-8c-7.5-0.2-13.5-1.8-16-9.7C455.1,117.6,477.7,108.8,491.4,114.2z"/>
	<path class="st0" d="M517,110.4c-6.2-6.5-14-11.7-22.7-14c4.5-1.3,9.4,0.9,14-0.2c5.5-1.3,9.1-7.8,7.3-13.2c0.8-1.4,2.9,0,3.7,1.4
		c7.9,14,13.1,29.5,15.5,45.4c0.1,0.8,0.2,1.7-0.2,2.4c-1.8,3.5-6.9-7.9-7.8-9.3C523.8,118.5,520.7,114.3,517,110.4z"/>
</g>
</svg>
