<?xml version="1.0" encoding="utf-8"?>
<!-- Generator: Adobe Illustrator 25.2.3, SVG Export Plug-In . SVG Version: 6.00 Build 0)  -->
<svg version="1.1" id="Capa_1" xmlns="http://www.w3.org/2000/svg" xmlns:xlink="http://www.w3.org/1999/xlink" x="0px" y="0px"
	 width="72px" height="77.7px" viewBox="0 0 72 77.7" style="enable-background:new 0 0 72 77.7;" xml:space="preserve">
<style type="text/css">
	.st0{fill:#EF2627;}
	.st1{fill:#D81327;}
	.st2{fill:#C90D28;}
	.st3{fill:#7C0F1A;}
	.st4{fill:#FF485A;}
	.st5{fill:#FF667C;}
	.st6{fill:#FF8FA5;}
	.st7{fill:#7FAA3F;}
	.st8{fill:#AACE6B;}
	.st9{fill:#668C1B;}
	.st10{fill:#39421D;}
</style>
<g id="XMLID_2555_">
	<g id="XMLID_2554_">
		<path id="XMLID_2552_" class="st0" d="M71,42.8c0,2.9-0.4,5.8-1,8.5v0C66.5,66,54,76.7,36,76.7c-21.3,0-36.4-16.6-35-40
			c0.3-5.1,2-9,4.4-12c8.8-10.9,27.6-10,27.6-10c8.2-0.3,14.9,0.4,20.3,1.9C65,20,70.2,27.6,70.9,39.5v0C71,40.5,71,41.6,71,42.8z"
			/>
		<path id="XMLID_2548_" class="st1" d="M71,42.8c0,2.9-0.4,5.8-1,8.5v0C66.5,66,54,76.7,36,76.7c-21.3,0-36.4-16.6-35-40
			c0.3-5.1,2-9,4.4-12c8.8-10.9,27.6-10,27.6-10c8.2-0.3,14.9,0.4,20.3,1.9l-3.3,1.6L21,24.6c0,0-10.3-1.6-10.6,3.3
			c-0.3,5-5,31.6,25.7,32.7c30.7,1.2,34.4-17.2,34.9-21.2C71,40.5,71,41.6,71,42.8z"/>
		<path id="XMLID_2549_" class="st2" d="M70,51.3C66.5,66,54,76.7,36,76.7c-21.3,0-36.4-16.6-35-40c0.3-5.1,2-9,4.4-12
			C6.7,25.3,7.3,26,7.3,26s-7.5,28.8,17.5,37.5C49.7,72.2,64.5,60.3,70,51.3z"/>
		<path id="XMLID_2535_" class="st3" d="M36,77.7c-10.2,0-19.5-3.8-26-10.8C2.9,59.3-0.6,48.6,0.1,36.6c1.4-23.7,31.7-23,33-22.9
			c15.3-0.5,25.7,2.2,31.8,8.1c4.8,4.7,7.2,11.6,7.1,21c0,9.7-3.5,18.5-9.8,24.8C55.6,74.2,46.5,77.7,36,77.7z M32.1,15.7
			c-2.2,0-8.2,0.2-14.2,2.2C8,21.1,2.6,27.5,2.1,36.7c-0.7,11.4,2.6,21.6,9.4,28.8c6.2,6.6,14.9,10.2,24.6,10.2
			c19.9,0,33.9-13.6,34-33c0-8.8-2.1-15.2-6.5-19.5c-5.7-5.6-15.7-8-30.4-7.6l0,0l0,0C33,15.7,32.7,15.7,32.1,15.7z"/>
		<path id="XMLID_2473_" class="st4" d="M15,32.1c1.3-4.6,7.5-2.5,8.6,0.9c1.1,3.4,7.2,2.9,8.7,0.9c3.1-4.3,7-1.3,12.2,3.5
			c5.2,4.8,10.7,4.1,13.5,5.3c3.9,1.6,3,9.1-18.5,9.1C13.1,51.8,13.8,36.6,15,32.1z"/>
		<path id="XMLID_2545_" class="st5" d="M16.7,34c1-3.5,5.7-1.9,6.6,0.7c0.8,2.6,7.9,2.9,9,1.3c2.4-3.3,5.5-2.1,9.4,1.6
			c3.9,3.7,6.9,4.6,9.1,5.5c3,1.2,0.9,7-15.5,6.1C18.9,48.4,15.7,37.5,16.7,34z"/>
		<path id="XMLID_2434_" class="st4" d="M47.9,22.9c0,0,14.4,1.8,17.3,7.6c2.9,5.9,3.4,10.6,1.2,11.2c-3,0.8-1.8-4.2-6.1-7.5
			S41,21.9,47.9,22.9z"/>
		<path id="XMLID_2547_" class="st5" d="M52.2,25.1c0,0,10,1.2,12,5.3c2,4.1,3.3,7.2,1.8,7.6c-2.1,0.6-2.2-2.7-5.2-5
			C57.8,30.6,47.4,24.4,52.2,25.1z"/>
		<path id="XMLID_2543_" class="st6" d="M18.4,38.1c-0.2-0.6-0.2-1.2-0.1-1.7c0.1-0.7,0.6-1.5,1.7-1.4c2,0.1,3.1,1.8,4,3.4
			C25,40,27.4,39.1,26,41C24.5,42.9,19.7,41.9,18.4,38.1z"/>
		<path id="XMLID_2544_" class="st6" d="M31.5,39.4c0,0,2-1.1,2.5-2.1c0.5-1,1.9-1.7,3.4-0.5c1.5,1.2,3.1,2.7,3.4,3.1
			c2.1,2.9-7.4,1.8-8.7,1.3C30.8,40.7,30.5,40.1,31.5,39.4z"/>
		<path id="XMLID_2546_" class="st6" d="M53.6,25.9c-0.4-0.1-0.7,0.4-0.3,0.7c0.7,0.6,1.7,1.5,2.6,2c1.6,1,5.8,0,3.8-1
			C58.2,26.9,55.3,26.2,53.6,25.9z"/>
	</g>
	<g id="XMLID_2551_">
		<path id="XMLID_2565_" class="st7" d="M61.6,23.1c-5.1-3.4-15.1-3.3-17.3-2.9c-2.2,0.4-4.8,1.1-4.5,1.9c0.3,0.8,6.9,5.7,10.8,8.9
			c0.6,0.5,1.2,1,1.9,1.5c0,0,0,0,0,0c3.8,2.8,8.2,5.7,5.2,4.7c-3.6-1.1-7.2-1.3-15.5-7.9c-3.9-3.1-6.1-4.4-7.7-4.3
			c-0.1,0-0.2,0-0.3,0c-1.4,0.3-1.3,0.7-2.8,2.6c-0.2,0.3-0.5,0.6-0.8,0.9c-3.9,4.3-6.3-0.2-4.3-0.2c2,0,2.4-3.2,0.3-3.6
			c-2.1-0.4-12.5-2.4-15.1-2.9c-5-1-3.9,3.4-5.1,3.5c-0.1,0-0.1,0-0.2,0c-1.6-0.5-1.3-3.4-1.3-3.4c0.9-5.3,6-4.3,15.5-1.8
			c9.5,2.6,8.5,0,4.9-3.5c-3.6-3.5-0.7-3.7,2.6-1.4c1,0.7,2.2,1.2,3.4,1.4c-0.5-4.7-0.2-10.7,1.4-14c0.9-1.8,1.8-1.9,2.7-1.4
			c0.3,0.2,0.6,0.4,1,0.7c1.1,0.9,2,1.8,1.5,3c-0.9,2.1-2.6,5.2-2.6,11.9c1.6-0.2,3.2-0.7,4.5-1.6c3.3-2.2,0,2.9,1.4,2.8
			c1.4-0.1,7.7-1.3,14.5-0.3C64.6,18.9,66.6,26.4,61.6,23.1z"/>
		<path id="XMLID_2563_" class="st8" d="M37.7,4.9c-0.9,2.1-2.6,5.2-2.6,11.9c-0.4,6-2.5,2.9-2.5,2.9s-0.4-9.6,1.6-16.2
			c0.3-1.1,0.7-1.8,1.1-2.2c0.3,0.2,0.6,0.4,1,0.7C37.3,2.8,38.3,3.7,37.7,4.9z"/>
		<path id="XMLID_2559_" class="st9" d="M31.4,27.6c-0.2,0.3-0.5,0.6-0.8,0.9c-3.9,4.3-6.3-0.2-4.3-0.2c2,0,2.4-3.2,0.3-3.6
			c-2.1-0.4-12.5-2.4-15.1-2.9c-5-1-3.9,3.4-5.1,3.5c-0.1-0.6-0.2-1-0.2-1s-0.7-3.8,3.2-4.2c3.9-0.4,14.2,2.8,17.8,3.1
			c3.7,0.2,4.2,3,4,4.2C31.2,27.6,31.3,27.7,31.4,27.6z"/>
		<path id="XMLID_2528_" class="st9" d="M32,20.8c0,0-0.5,2.2,1.3,2.7c1.8,0.5,3.3,0,3.7-0.9c0.4-0.9-0.6-4.7,2.9-6.4
			c3.5-1.7-4.9,1.4-4.9,1.4l0.2,4C35.2,21.6,32.8,23.7,32,20.8z"/>
		<path id="XMLID_2560_" class="st9" d="M57.8,37.2c-3.6-1.1-7.2-1.3-15.5-7.9c-3.9-3.1-6.1-4.4-7.7-4.3c0.5-0.5,0.9-0.9,0.9-0.9
			s3.5,0.2,7.8,3.4c2.8,2.1,6.9,4,9.3,5.1c0,0,0,0,0,0C56.4,35.4,60.8,38.2,57.8,37.2z"/>
		<path id="XMLID_2542_" class="st10" d="M65.2,22.8c-0.5-2-3.8-5.3-9.6-6.1c-5.8-0.8-11.1-0.2-13.7,0.2c-0.1,0-0.1,0-0.2,0
			c0-0.1,0.1-0.2,0.1-0.3c0.3-1,0.6-2.1-0.3-2.7c-0.9-0.6-2,0.1-2.5,0.5c-0.8,0.6-1.8,1-2.8,1.2c0.3-5.2,1.3-7.8,2.2-9.7l0.2-0.5
			c0.9-1.9-0.8-3.3-1.8-4.2c-0.5-0.5-1.7-1.4-3-1.1c-0.9,0.2-1.6,0.9-2.2,2.1c-1,2.1-1,8.9-0.6,13.4c-1-0.2-1.9-0.6-2.7-1.2
			c-1.9-1.3-4.4-2.4-5.5-1.1c-1.1,1.4,0.9,3.3,1.6,4h0c1.7,1.7,2.1,2.5,2.2,2.7c-0.4,0.1-1.8,0.2-6.2-0.9c-6.7-1.8-11.7-3-14.5-1.2
			c-1.2,0.8-1.9,2-2.2,3.8l0,0.1c0,0.4-0.3,3.8,2,4.5c1.5,0.4,2-1.1,2.2-1.7c0.4-1.3,0.7-2.3,3.3-1.8c1,0.2,3.4,0.6,5.9,1.1
			c3.8,0.7,8,1.5,9.2,1.8c0.6,0.1,0.6,0.7,0.6,0.9c0,0.1-0.1,0.7-0.7,0.7c-0.8,0-1.5,0.4-1.7,1.2C24.4,29.4,25,30.5,26,31
			c0.6,0.3,2.7,1.2,5.4-1.8c0.9-1,1.4-1.7,1.8-2.2c0.6-0.8,0.6-0.9,1.3-1c1.2-0.2,3.3,1,7.2,4.1c7.2,5.7,11,6.7,14.2,7.6
			c0.6,0.2,1.1,0.3,1.7,0.5c0.3,0.1,0.7,0.2,1.1,0.2c0.4,0,0.8-0.1,1-0.6c0.5-1-0.2-1.6-3.8-4.1c-1.5-1.1-3.2-2.3-4.6-3.4
			c-1.3-1.1-3-2.4-4.6-3.7c-2-1.5-4.5-3.6-5.6-4.5c0.5-0.2,1.6-0.6,3.4-0.9c2-0.4,11.8-0.4,16.5,2.8c1.6,1,2.8,1.3,3.6,0.7
			C65.2,24.3,65.4,23.6,65.2,22.8z M62.1,22.3c-5.3-3.6-15.5-3.6-18-3.1c-4.4,0.9-4.9,1.7-5.1,2.1c-0.2,0.3-0.2,0.7-0.1,1.1
			c0.2,0.7,1.2,1.5,6.6,5.8c1.6,1.2,3.2,2.5,4.5,3.6c1.4,1.2,3.1,2.4,4.7,3.5c0,0,0,0,0,0c-2.8-0.8-6.1-2.3-11.8-6.8
			c-4.1-3.2-6.3-4.5-8.1-4.5c-0.2,0-0.4,0-0.7,0.1c-1.4,0.3-1.8,0.8-2.5,1.8c-0.4,0.5-0.8,1.1-1.7,2c-1.5,1.6-2.5,1.6-2.8,1.5
			c-0.1,0-0.1,0-0.2-0.1c1.1-0.3,1.9-1.2,2-2.4c0.2-1.5-0.7-2.8-2.1-3.1c-1.2-0.3-5.5-1.1-9.3-1.8c-2.5-0.5-4.8-0.9-5.9-1.1
			c-4.3-0.8-5.1,1.8-5.5,3.1c0,0,0,0.1,0,0.1c-0.2-0.5-0.3-1.4-0.3-2c0.2-1.2,0.6-1.9,1.3-2.4c2.1-1.3,7.1-0.1,12.9,1.4
			c5.2,1.4,7.7,1.4,8.5,0c0.7-1.2-0.1-2.7-2.6-5.2h0c-0.5-0.5-0.8-0.8-1-1.1c0.5,0.2,1.3,0.5,2.3,1.2c1.2,0.8,2.6,1.3,4,1.6
			c0.2,1.3,0.3,2.2,0.5,2.3C31.4,14.8,32.2,5.9,33.5,3c0.3-0.7,0.7-1,0.8-1.1c0.2,0,0.6,0.2,1.3,0.7c1.1,1,1.4,1.4,1.2,1.8L36.6,5
			c-1.2,2.5-2.6,9.7-2.4,16.3c0,1.4-2,0.1-2.2-0.5c0.2,2.9,4.3,2.5,4.2,0.4c-0.1-1.3-0.1-2.5-0.1-3.5c1.3-0.3,2.6-0.7,3.7-1.4
			c-0.2,0.9-0.4,1.7,0.1,2.3c0.3,0.3,0.7,0.5,1.1,0.5c0.2,0,0.6-0.1,1.2-0.1c2.5-0.3,7.6-1,13.2-0.2c4.7,0.7,7.1,3,7.8,4.2
			C62.9,22.7,62.6,22.6,62.1,22.3z"/>
		<path id="XMLID_2550_" class="st8" d="M28.9,17.5c0,0,1.5,0.9,1.8,0.9c0.3,0,0.5,3.3,1.1,4.7c0.1,0.2,0.1,0.5-0.1,0.7l0,0
			c-0.2,0.3-0.6,0.3-0.8,0c-0.3-0.4-0.9-0.9-1.8-1.1c-0.2-0.1-0.3-0.3-0.1-0.5c0.6-0.5,1.5-1.6,0.5-2.9C28,17.4,27.6,17,28.9,17.5z"
			/>
		<path id="XMLID_2553_" class="st8" d="M38.6,18.8c-0.1-0.1-0.3-0.2-0.3,0c-0.3,0.4-0.6,1.4-0.6,3c0,2.6,1.9,2.8,2.6,3.2
			c0.7,0.5-1.2-1.1-1.7-2.2c-0.5-1.1-0.3-2.5,0.7-2.9C40.2,19.5,39,19.6,38.6,18.8z"/>
	</g>
</g>
</svg>
