<?xml version="1.0" encoding="utf-8"?>
<!-- Generator: Adobe Illustrator 25.2.3, SVG Export Plug-In . SVG Version: 6.00 Build 0)  -->
<svg version="1.1" id="Capa_1" xmlns="http://www.w3.org/2000/svg" xmlns:xlink="http://www.w3.org/1999/xlink" x="0px" y="0px"
	 width="93.3px" height="84.3px" viewBox="0 0 93.3 84.3" style="enable-background:new 0 0 93.3 84.3;" xml:space="preserve">
<style type="text/css">
	.st0{fill:url(#SVGID_1_);}
	.st1{fill:#4E7136;}
	.st2{opacity:0.69;fill:#7DC468;}
	.st3{opacity:0.75;fill:#4E7136;}
	.st4{fill:#60473A;}
	.st5{fill:#502538;}
	.st6{fill:#70224B;}
	.st7{fill:#621D45;}
	.st8{fill:#9B304D;}
	.st9{fill:#8C2547;}
	.st10{fill:#7E2144;}
	.st11{fill:#AE2F59;}
	.st12{fill:#C13F71;}
	.st13{fill:#A14367;}
	.st14{fill:#822A54;}
	.st15{fill:#B6557F;}
	.st16{fill:#C56996;}
	.st17{fill:#B0485C;}
	.st18{fill:#9C3D52;}
	.st19{fill:#8C375B;}
	.st20{opacity:0.83;fill:#FFFFFF;}
	.st21{fill:#C66178;}
	.st22{fill:#D56D89;}
	.st23{fill:#AD4165;}
</style>
<g>
	<g>
		<linearGradient id="SVGID_1_" gradientUnits="userSpaceOnUse" x1="72.9859" y1="11.9865" x2="51.5646" y2="41.5108">
			<stop  offset="0.1262" style="stop-color:#6BA758"/>
			<stop  offset="0.3264" style="stop-color:#67A057"/>
			<stop  offset="0.6211" style="stop-color:#5D8C53"/>
			<stop  offset="0.7625" style="stop-color:#578051"/>
		</linearGradient>
		<path class="st0" d="M87.4,32.1l1.8,0.2c0,0-1.4,3.6-4,4.7c0,0,0.5,0.1,1.9,0.2c0,0-0.1,0.2-0.2,0.4c-0.5,1.1-2.3,4.2-5.9,5.7
			l1.6,0.2c0,0-0.2,0.1-0.5,0.4c-0.8,0.6-2.4,1.6-4.3,2.1l1.7,0.7c0,0-2.8,4.4-16.1-0.2l-3.3-2.1L42.3,32.8c0,0-5.3-2.8-5.7-5.1
			l1.8,0.2c0,0-1.9-2.4-2.4-5.7l1.1,0.1c0,0-1.2-1.9-2.1-3.2c0,0,4.4-0.7,7.4,2l0.1-1.5c0,0,0.3-0.1,0.9-0.1c1.2-0.1,3.4,0,7,0.9
			c0,0-1-3.4-0.5-6.5l2.1,2c0,0-0.4-4.9,1.4-7.1l0.7,1.6c0,0,1.9-4.7,4.6-5.6L60.3,6c0,0,3.6-4.7,6-6c0,0-0.2,2.6,0.4,4.1
			c0,0,1.6,2.9,0.8,6.2l2-0.3c0,0,0.6,2.1,0.6,5.8c0,0,0.6-0.5,1.4-0.7c0,0,0.8,2.1-0.5,5.4c0,0,2.1-1.6,4.9-2l-0.2,2.2
			c0,0,3.7-2,6.1-1.6L81.6,21c0,0,2.9-1.4,7.9,0.2c0,0,2.8,0.7,3.9,0.8c0,0-1.7,1.9-2.6,6C90.7,28,88.9,31.3,87.4,32.1z"/>
		<path class="st1" d="M64.4,2.8c0,0-9.8,25.9-1.3,41.4l1.3-0.9C64.4,43.3,55.8,33.5,64.4,2.8z"/>
		<path class="st1" d="M57.9,7.5c0,0,0.2,4.8,2.9,8.7v1.2C60.9,17.3,57.5,13.5,57.9,7.5z"/>
		<path class="st1" d="M60.9,21c0,0,4.7-0.3,7.7-5.8c0,0-2.5,5.6-7.7,6.7V21z"/>
		<path class="st1" d="M51.4,16.7c0,0,3.4,6.9,9.1,9.6l-0.3,0.7C60.1,27.1,53.3,23.3,51.4,16.7z"/>
		<path class="st1" d="M63.2,39.4c0,0,7.3-11.7,26.5-15.9c0,0-16.2,4.2-26,16.3L63.2,39.4z"/>
		<path class="st1" d="M38.4,21c0,0,11.8,3.8,16.9,12.6l-0.7,0.7C54.6,34.4,49.9,26,38.4,21z"/>
		<path class="st1" d="M70,32.3c0,0-1.2-5.4,3.9-11c0,0-4,5.4-3.2,10.4L70,32.3z"/>
		<path class="st1" d="M80.6,20.7c0,0-3.2,2.5-3.2,7l0.7-0.3C78,27.4,77.7,24.5,80.6,20.7z"/>
		<path class="st1" d="M82.4,26.1c0,0,2.9,1.8,7.6,0.7c0,0-4.9,0.4-7-0.9L82.4,26.1z"/>
		<path class="st1" d="M72.9,31.4c0,0,6.2,3.7,13.3,2.7c0,0-8.2,0.2-12.6-3.1L72.9,31.4z"/>
		<path class="st1" d="M45.3,20.1c0,0,3.7,2.8,4.4,7.3l-0.8-0.6C48.9,26.9,48.5,23.6,45.3,20.1z"/>
		<path class="st1" d="M37,23.5c0,0,2.9,1.5,7.7,1l0.6,0.4C45.3,24.9,40,25.6,37,23.5z"/>
		<path class="st2" d="M87.4,32.1l1.8,0.2c0,0-1.4,3.6-4,4.7c0,0,0.5,0.1,1.9,0.2c0,0-0.1,0.2-0.2,0.4c-1.5,0.1-3,0-4.4,0
			c1.1-1.8,2.8-3.2,3.8-5c-0.2,0-0.5-0.2-0.8-0.3c2.6-2.1,3.7-5.2,4.6-8.2c-2.6-0.6-5.8-1.6-8.5-1.2c-0.8,0.1-1.6,0.5-2.4,0.9
			c-1.3,0.5-3.3,2.5-4.7,2c0-0.6,0.1-1.1,0.1-1.6c-2.7-0.1-5,0.8-7.2,2.4c0.7-2.6,1.9-4.6,2-7.4c-0.6,0.4-1.3,0.8-2,0.5
			c0-1.8,0.3-3.4,0-5.2c-1-0.1-2.1,0.3-3.1,0.3c0.2-3,0.3-6.4-0.5-9.4c-1.5,1-2.9,1.6-4.1,2.9c-1.7,2-2.7,3.9-3.9,6.1
			c-0.5-0.4-0.8-1-1.3-1.4c-0.8,2,0.2,4.2-0.5,6.1c-0.8-0.1-1.4-0.8-2.1-1.1c-0.1,1.4,0.2,3.6-0.3,5c-1.1-1.1-3.2-1.8-4.7-2.4
			c-0.9-0.4-2.1-1-3.3-1.2c1.2-0.1,3.4,0,7,0.9c0,0-1-3.4-0.5-6.5l2.1,2c0,0-0.4-4.9,1.4-7.1l0.7,1.6c0,0,1.9-4.7,4.6-5.6L60.3,6
			c0,0,3.6-4.7,6-6c0,0-0.2,2.6,0.4,4.1c0,0,1.6,2.9,0.8,6.2l2-0.3c0,0,0.6,2.1,0.6,5.8c0,0,0.6-0.5,1.4-0.7c0,0,0.8,2.1-0.5,5.4
			c0,0,2.1-1.6,4.9-2l-0.2,2.2c0,0,3.7-2,6.1-1.6L81.6,21c0,0,2.9-1.4,7.9,0.2c0,0,2.8,0.7,3.9,0.8c0,0-1.7,1.9-2.6,6
			C90.7,28,88.9,31.3,87.4,32.1z"/>
	</g>
	<path class="st3" d="M77.9,45.9l1.7,0.7c0,0-2.8,4.4-16.1-0.2l-3.3-2.1c-0.4-1-0.8-2.1-1.3-3c-1.2-2.1-2.7-4.1-3.8-6.2
		c-0.1-0.3-0.3-0.5-0.4-0.8c-0.5-1-1.1-2-1.7-3c-0.3-0.4-0.5-0.9-0.8-1.3c-0.3-0.4-0.7-0.5-1-0.9c-0.3-0.3-0.6-0.9-0.9-1.2
		c-0.1-0.2-0.2-0.3-0.3-0.5h0c-0.1-0.2-0.2-0.5-0.2-0.7c-0.5-0.2,2.2-2,2.6-2.2c1-0.6,2.4-0.6,3.6-0.7c0,0,0.1,0,0.1,0
		c0.2,0,0.5,0,0.7-0.1c0.9-0.1,1.8-0.1,2.7,0.1c0.2,0,0.4,0.1,0.6,0.1c0.3,0.1,0.5,0.1,0.8,0.2c2.3,0.7,4.3,2.1,4.8,4.6
		c1.5-0.2,3.1-0.2,4.6,0.2c0.2,0.1,0.4,0.1,0.6,0.2c0.6,0.2,1.1,0.5,1.7,0.8c0.2,0.1,0.4,0.2,0.6,0.4c0.2,0.2,0.5,0.4,0.7,0.6
		c0.1,0.1,0.1,0.1,0.2,0.2c0.3,0.3,0.5,0.7,0.7,1.1c0.6,1.1,1.1,2.5,1.3,3.7c0.6,2.3,0.5,5,2.4,6.7c0.8,0.8,1.8,1.2,2.9,1.2
		c0.3,0,0.7,0,1,0C81.4,44.4,79.8,45.5,77.9,45.9z"/>
	<path class="st4" d="M68.2,46.7c0,0,3.3-5.7,16.8-4.6c0.3,0,0.4,0.3,0.3,0.6l-0.6,1.1c-0.1,0.1-0.2,0.2-0.3,0.2
		c-1.8-0.1-13.2-0.4-17.5,5L68.2,46.7z"/>
	<g>
		<path class="st5" d="M18.5,57.4c2.8,4.1,6.7,6.3,11.3,5.2c6-1.5,12.6,0,18.7,0.3c2.2,0.1,5,0.8,7.1,0c3.4-1.3,3-5.7,2.9-8.7
			c-0.1-3.9-1.6-8.1-3.1-11.7c-3.2-7.7-10.9-5.3-16.4-1.3c-3,2.1-4.9,5-8.5,6.2c-3.5,1.2-6.9,1.4-10,3.8C18.2,53,18,54.9,18.5,57.4z
			"/>
		<path class="st6" d="M29.5,66.9c0,4.7-3.8,8.5-8.5,8.5c-4.7,0-8.5-3.8-8.5-8.5c0-1.9,0.6-3.6,1.6-5c1.5-2.1,4-3.5,6.9-3.5
			c1.4,0,2.8,0.4,4,1C27.7,60.9,29.5,63.7,29.5,66.9z"/>
		<path class="st6" d="M3.7,75.3c0,0-2.4,9.4,7.8,7.7l2.3-2.2l-2.1-8.4l-7.4,0.4L3.7,75.3z"/>
		<path class="st6" d="M48.5,63.6l-1.4,9.5c-0.5,0.2-1,0.5-1.4,0.6c-4.5,1.7-7-0.4-8.2-2.2c-0.8-1.1-1-2.2-1-2.2l1.9-5.2l6.2-5.2
			l0.5-0.5l0.4,0.7L48.5,63.6z"/>
		<path class="st7" d="M29.5,66.9c0,4.7-3.8,8.5-8.5,8.5c-4.7,0-8.5-3.8-8.5-8.5c0-1.9,0.6-3.6,1.6-5c1-0.7,2.2-1.1,3.2-0.6
			c0.5,0.3,0.9,0.7,0.7,1.3c1.2,1.3,1.6,3.2,1.6,5c0.7,0.1,1.3-0.4,2-0.2c0.1-1.5,0.2-2.6,0.8-4c0.5-1.2,1.3-3.1,2.5-4
			C27.7,60.9,29.5,63.7,29.5,66.9z"/>
		<path class="st8" d="M63.2,32.1l-2.2,5.6h-5.8l-2.9-6.3L49.4,27c0,0,0.1-0.1,0.2-0.3c0.3-0.3,0.7-0.7,1.4-1.1c1.6-1,4.4-2,8.3-0.2
			c0,0,0.5,0.3,1.1,0.9c0.5,0.4,1,1.1,1.5,1.9C62.5,29.2,63,30.5,63.2,32.1z"/>
		<path class="st9" d="M63.2,32.1l-2.2,5.6h-5.8l-2.9-6.3L49.4,27c0,0,0.5-0.7,1.6-1.4c1.5,0.1,5.5,0.8,6.6,5.7c0,0,3.2,2.9,2.8-5
			C61.5,27.3,62.8,29.1,63.2,32.1z"/>
		<path class="st10" d="M63.2,32.1l-2.2,5.6h-5.8l-2.9-6.3L49.4,27c0,0,0.1-0.1,0.2-0.3c1.5,0.3,3.1,1.3,4.1,2.2
			c1.2,1.1,2.2,2.4,3.2,3.7c0.8,1,2,1.5,3,0.5c0.7-0.7,1.1-1.4,1.4-2.4c0.3-0.8,0.2-1.7,0.5-2.5c0,0,0,0,0,0
			C62.5,29.2,63,30.5,63.2,32.1z"/>
		<path class="st8" d="M22.2,59.5c-1.6,4.2-7.4,6.8-11,5.4c-1.7-0.7-2.9-2-3.4-3.7c-0.6-1.9-0.5-4.2,0.3-6.4c0.9-2.3,2.8-4.1,5-5
			c0,0,0,0,0,0c1.8-0.8,3.8-1,5.5-0.4C22.2,50.8,23.8,55.3,22.2,59.5z"/>
		<path class="st9" d="M22.2,59.5c-1.6,4.2-7.4,6.8-11,5.4c-1.7-0.7-2.9-2-3.4-3.7c3.4-1.9,7.3-0.4,7.3-0.4c3.9-2,4-6.8,4-6.8
			c-0.9-5.2-5.8-4.3-6-4.2c1.8-0.8,3.8-1,5.5-0.4C22.2,50.8,23.8,55.3,22.2,59.5z"/>
		<path class="st11" d="M15,56.2c-1.2,1.7-3.3,2.4-4.7,1.4c-1.4-1-1.5-3.2-0.3-4.9c1.2-1.7,3.9-3.1,5.3-2.2S16.3,54.5,15,56.2z"/>
		<path class="st12" d="M14,54.3c-0.8,1.1-2,1.5-2.7,1c-0.7-0.5-0.7-1.8,0-2.9c0.8-1.1,2-1.5,2.7-1C14.7,52,14.7,53.3,14,54.3z"/>
		<path class="st6" d="M79.8,63.6c0,0.8-0.1,1.5-0.4,2.2c-1,3.1-4.2,5.4-8,5.4c-0.6,0-1.2-0.1-1.7-0.2c-3.8-0.7-6.7-3.8-6.7-7.4
			c0-0.3,0-0.6,0.1-0.9c0.2-1.8,1.2-3.5,2.6-4.6c1.5-1.2,3.5-2,5.7-2C76.1,56.1,79.8,59.5,79.8,63.6z"/>
		<path class="st7" d="M79.8,63.6c0,0.8-0.1,1.5-0.4,2.2c-0.6-1.6-1.9-3.2-3.7-3.4c-2.9-0.3-5.3,1.9-6.4,4.4c0,0-1.1,2.5,0.4,4.2
			c-3.8-0.7-6.7-3.8-6.7-7.4c0-0.3,0-0.6,0.1-0.9l2.6-4.6c1.5-1.2,3.5-2,5.7-2C76.1,56.1,79.8,59.5,79.8,63.6z"/>
		<path class="st13" d="M78.7,53.3c0,0.7-0.1,1.4-0.3,2v0c-0.9,3.2-3.8,5.6-7.3,5.6c-4.2,0-7.6-3.4-7.6-7.6c0-4.2,3.4-7.6,7.6-7.6
			c0.3,0,0.6,0,0.9,0.1C75.8,46.2,78.7,49.4,78.7,53.3z"/>
		<path class="st6" d="M65.4,50.2c0,3-1.5,5.6-3.8,7.2c-1.4,1-3.1,1.5-5,1.5c-4.8,0-8.7-3.9-8.7-8.7c0-1.5,0.4-2.9,1-4.1
			c0.6-1.1,1.4-2,2.4-2.8c0.4-0.3,0.9-0.6,1.4-0.9c1.2-0.6,2.5-0.9,3.9-0.9C61.5,41.5,65.4,45.4,65.4,50.2z"/>
		<path class="st14" d="M78.4,55.3c-0.9,3.2-3.8,5.6-7.3,5.6c-4.2,0-7.6-3.4-7.6-7.6c0-4.2,3.4-7.6,7.6-7.6c0.3,0,0.6,0,0.9,0.1
			c-0.6,0.2-2.5,1.1-3.1,3.2c0,0,5,3.1,4.6,8.5C73.6,57.4,76.7,58.3,78.4,55.3z"/>
		<path class="st15" d="M75.9,48.5c1.1,1.2,1.3,2.9,0.5,3.7c-0.9,0.8-2.5,0.5-3.6-0.8c-1.1-1.2-1.3-2.9-0.5-3.7
			C73.1,46.9,74.7,47.2,75.9,48.5z"/>
		<path class="st16" d="M75.3,48.3c0.7,0.7,0.8,1.7,0.2,2.2C75,51,74,50.9,73.3,50.1c-0.7-0.7-0.8-1.7-0.2-2.2
			C73.6,47.4,74.6,47.6,75.3,48.3z"/>
		<path class="st8" d="M42.2,49.7c-2.5,1.5-5.7,1-8.1-0.8c-0.9-0.7-1.7-1.6-2.4-2.7c-1.1-2-1.5-4.2-1.1-6.2c0.4-2,1.5-3.7,3.3-4.7
			c2.5-1.4,5.5-1.1,7.9,0.6c1,0.7,1.9,1.7,2.6,2.9C46.7,42.8,45.7,47.7,42.2,49.7z"/>
		<path class="st9" d="M42.2,49.7c-3.5,2-8.2,0.4-10.5-3.6c-1.1-2-1.5-4.2-1.1-6.2c1.3,0,5,0.4,6.9,3.6c0,0,3.7,0,1.9-5.5
			c0,0-1.8-3.2-5.5-2.9c3.5-2,8.2-0.4,10.5,3.5C46.7,42.8,45.7,47.7,42.2,49.7z"/>
		<path class="st11" d="M36.2,35.9c1.7,0.6,2.7,2,2.2,3.2c-0.4,1.2-2.1,1.8-3.7,1.2c-1.7-0.6-2.7-2-2.2-3.2
			C32.9,35.9,34.6,35.4,36.2,35.9z"/>
		<path class="st13" d="M73.2,38.2c0,4.2-2.6,7.6-6.1,8.2c-0.3,0-0.6,0.1-0.9,0.1c-3.8,0-6.9-3.7-6.9-8.2c0-0.1,0-0.2,0-0.3
			c0-0.9,0.2-1.7,0.4-2.5c0,0,0,0,0,0c0.9-3.2,3.5-5.4,6.5-5.4c2.2,0,4.2,1.3,5.5,3.2C72.7,34.6,73.2,36.3,73.2,38.2z"/>
		<path class="st7" d="M61.6,57.4c-1.4,1-3.1,1.5-5,1.5c-4.8,0-8.7-3.9-8.7-8.7c0-1.5,0.4-2.9,1-4.1c0.2,0.1,0.5,0.1,0.7,0.3
			c2.1,1.1,3.3,3.2,4,5.5c0.3,1.1,0.8,2.3,1,3.4c0.1,0.5-0.1,1.7,0.7,1.4c0.3-1,0.3-2,0.6-3c0.2-0.8,1.2-2,0.7-2.7
			c-0.5-0.6-1.9-1-2.5-1.4c-1.6-1.2-3.1-4.2-2.8-6.2c0,0,0,0,0-0.1C51.3,43,51.2,43,51.1,43c0.2-0.5,1-0.7,1.6-0.6
			c0.3,0,0.6,0,0.8,0.1c1.6,0.3,3.1,1.7,4.3,2.7c2,1.7,3.1,3.4,3.9,5.8C62.6,53.3,62.5,55.5,61.6,57.4z"/>
		<path class="st7" d="M48.5,63.6l-1.4,9.5c-0.5,0.2-1,0.5-1.4,0.6c-0.3-0.2-0.6-0.5-0.8-0.8c-0.5-0.9-0.6-2-1-2.9
			c-0.7-1.4-1.4-2-2.8-1c-1.1,0.8-2.3,1.9-3.6,2.6c-0.8-1.1-1-2.2-1-2.2l1.9-5.2l6.2-5.2c0.3,0,0.7,0.1,1,0.2L48.5,63.6z"/>
		<path class="st10" d="M42.2,49.7c-2.5,1.5-5.7,1-8.1-0.8c-0.3-1.1-0.4-2.3-0.2-3.4c0.1-0.6,0.7-2.7,1.5-1.9c0,0.4,1.6,1.2,2.1,1.5
			c0.6,0.2,1.2,0.3,1.9,0.4c2.5,0.1,3.4-2.3,3.4-4.4c0-0.8,0-1.4-0.2-2.2c-0.2-0.9-0.8-2-0.7-2.9c1,0.7,1.9,1.7,2.6,2.9
			C46.7,42.8,45.7,47.7,42.2,49.7z"/>
		<path class="st13" d="M52.5,42.2c-3.3,2.5-9.4-0.5-11.8-4c-0.5-0.8-0.9-1.7-1.1-2.6c-0.7-3,0.4-6.2,3-8c2.2-1.5,5.2-1.5,7.7-0.5
			l0,0c1.4,0.6,2.7,1.6,3.6,2.9C56.3,33.5,56.9,38.8,52.5,42.2z"/>
		<path class="st13" d="M13,75.9c-4.6,2.3-10.8,1-12.5-2.5c-0.3-0.6-0.5-1.3-0.5-2c-0.2-3.1,2.1-6.6,5.9-8.5
			c1.4-0.7,2.8-1.1,4.1-1.2c3.2-0.3,6.2,0.9,7.4,3.3C19.1,68.6,17.7,73.6,13,75.9z"/>
		<path class="st13" d="M37.7,50.2c-0.9,4.3-5.6,6.6-11,5.4c-3.7-0.8-6.3-3-7.6-5.7c-0.6-1.2-0.9-2.6-0.8-3.9c0.1-3.7,4.3-6.1,8.8-6
			c0,0,0,0,0,0c0.9,0,1.7,0.1,2.6,0.3C35.1,41.4,38.7,45.9,37.7,50.2z"/>
		<path class="st17" d="M53.1,54.8c0,5-3.6,9.1-8,9.1c-4.2,0-7.6-3.6-8-8.2c0-0.3,0-0.6,0-0.9c0-4,2.2-7.3,5.3-8.6
			c0.8-0.3,1.7-0.5,2.7-0.5C49.6,45.7,53.1,49.8,53.1,54.8z"/>
		<path class="st18" d="M53.1,54.8c0,5-3.6,9.1-8,9.1c-4.2,0-7.6-3.6-8-8.2c3.5,0,5.3,4.3,5.3,4.3c0.1,0.2,2.1-0.2,2.4-0.3
			c0.7-0.2,1.3-0.5,1.9-0.9c1-0.7,1.8-1.6,2.3-2.7c1.1-2.2,1.2-5.1-0.3-7.1c-0.7-0.9-1.6-1.6-2.7-2c-0.8-0.3-1.7-0.6-2.5-0.6
			c-0.1,0-1.1,0-1.1,0l-0.1-0.1c0.8-0.3,1.7-0.5,2.7-0.5C49.6,45.7,53.1,49.8,53.1,54.8z"/>
		<path class="st13" d="M69.7,60.9c-1.5,4.3-5.6,6.8-9.1,5.6c-2.7-0.9-4.5-4.2-4.5-7.6c0-1.1,0.1-2.2,0.5-3.3c1.5-4.3,5.4-6.2,8.9-5
			c1.2,0.4,2.2,1.2,3,2.2c0,0,0,0,0,0C70.1,54.9,70.7,58,69.7,60.9z"/>
		<path class="st13" d="M36.7,70.8c-4.4,2.9-9.8,2.5-12.2-1c-0.5-0.8-0.8-1.7-1-2.7c0,0,0,0,0,0c-0.4-3.4,1.4-7.5,4.8-9.8
			c1.6-1.1,3.3-1.6,4.9-1.6c2.9-0.1,5.6,1.2,7.1,3.4C42.8,62.6,41.1,67.8,36.7,70.8z"/>
		<path class="st17" d="M60.1,70.1c-1,4.9-4.5,7.8-8.9,6.9c-3.3-0.7-5.5-3.7-6-7.2c-0.1-1.1-0.1-2.3,0.1-3.4
			c0.8-3.9,3.4-6.4,6.6-6.8c0.8-0.1,1.7-0.1,2.6,0.1C59,60.5,61.1,65.2,60.1,70.1z"/>
		<path class="st19" d="M36.7,70.8c-4.4,2.9-9.8,2.5-12.2-1c-0.5-0.8-0.8-1.7-1-2.7c1.6,4,5.9,3.5,5.9,3.5c9.1-0.9,9-8.9,9-8.9
			c-0.4-5.2-5.1-6-5.1-6c2.9-0.1,5.6,1.2,7.1,3.4C42.8,62.6,41.1,67.8,36.7,70.8z"/>
		<path class="st15" d="M32.4,64.5c-2,1.7-4.7,1.8-6,0.2c-1.3-1.6-0.8-4.2,1.2-5.9c2-1.7,4.7-1.8,6-0.2
			C34.9,60.2,34.4,62.8,32.4,64.5z"/>
		<path class="st16" d="M31.1,61.8c-1,0.9-2.4,0.9-3.1,0.1c-0.7-0.8-0.4-2.2,0.6-3.1c1-0.9,2.4-0.9,3.1-0.1
			C32.4,59.6,32.1,60.9,31.1,61.8z"/>
		<path class="st20" d="M30.3,59.9c-0.8,0.4-1.6,0.2-1.9-0.3c-0.3-0.6,0.1-1.3,0.9-1.7c0.8-0.4,1.6-0.2,1.9,0.3
			C31.4,58.8,31,59.5,30.3,59.9z"/>
		<path class="st21" d="M44.4,53c-1.3,1.9-3.5,2.7-4.9,1.7c-1.4-0.9-1.4-3.3-0.1-5.2c1.3-1.9,3.5-2.7,4.9-1.7S45.7,51.1,44.4,53z"/>
		<path class="st22" d="M42.9,51.5c-0.8,1.1-2,1.5-2.8,1c-0.8-0.5-0.8-1.9,0-3c0.8-1.1,2-1.5,2.8-1C43.6,49.1,43.7,50.4,42.9,51.5z"
			/>
		<path class="st19" d="M37.7,50.2c-0.9,4.3-5.6,6.6-11,5.4c-3.7-0.8-6.3-3-7.6-5.7c4.9,5.2,10.3,3.7,10.3,3.7
			c5.9-2,4.4-7.3,4.4-7.3c-0.9-4.9-6.5-6.3-6.7-6.4c0.9,0,1.7,0.1,2.6,0.3C35.1,41.4,38.7,45.9,37.7,50.2z"/>
		<path class="st15" d="M29.3,46.5c-0.7,2.2-3.2,3.3-5.6,2.5c-2.4-0.8-4.4-3.1-3.7-5.3c0.7-2.2,3.7-3.3,6.1-2.5
			C28.5,41.9,29.9,44.3,29.3,46.5z"/>
		<path class="st16" d="M26.1,45.1c-0.4,1-1.8,1.4-3.1,0.9c-1.3-0.5-2.1-1.7-1.7-2.7s1.8-1.4,3.1-0.9C25.7,42.8,26.5,44.1,26.1,45.1
			z"/>
		<path class="st19" d="M13,75.9c-4.6,2.3-10.8,1-12.5-2.5c-0.3-0.6-0.5-1.3-0.5-2l0,0c2.1,3.4,6.9,3,6.9,3c1.7-4.2,6.9-5,6.9-5
			c2.8-6.1-2.4-7.4-3.8-7.6c3.2-0.3,6.2,0.9,7.4,3.3C19.1,68.6,17.7,73.6,13,75.9z"/>
		<path class="st15" d="M9.7,69.1c-1.5,1.5-5.2,2.2-6.4,1c-1.2-1.2-0.6-3.8,1-5.3c1.5-1.5,4.6-1.9,5.8-0.7
			C11.2,65.3,11.3,67.5,9.7,69.1z"/>
		<ellipse transform="matrix(0.8981 -0.4397 0.4397 0.8981 -28.5371 9.5007)" class="st16" cx="6.2" cy="66.3" rx="2.8" ry="1.7"/>
		<path class="st19" d="M52.5,42.2c-3.3,2.5-9.4-0.5-11.8-4c-0.5-0.8-0.9-1.7-1.1-2.6c1,1.3,2.1,2.5,3.5,3.4c2,1.3,4.3,1.8,6.4,0.4
			c2.1-1.5,3.1-4,3.2-6.5c0.1-1.1-0.1-2.2-0.5-3.2c-0.4-0.9-1-1.8-1.8-2.4c1.4,0.6,2.7,1.6,3.6,2.9C56.3,33.5,56.9,38.8,52.5,42.2z"
			/>
		<path class="st15" d="M47.6,32.8c-1.4,2-3.8,2.8-5.4,1.7c-1.6-1.1-1.8-3.7-0.3-5.7c1.4-2,3.8-2.8,5.4-1.7
			C48.9,28.2,49,30.8,47.6,32.8z"/>
		<path class="st16" d="M45.8,31.2c-0.9,1.1-2.3,1.3-3.2,0.6c-0.9-0.7-0.8-2.2,0.1-3.2c0.9-1.1,2.3-1.3,3.2-0.6
			C46.7,28.6,46.7,30.1,45.8,31.2z"/>
		<path class="st19" d="M73.2,38.2c0,4.2-2.6,7.6-6.1,8.2c-1.6-1.5-6.4-6-6.4-6l-1.4-2.4c0-0.9,0.2-1.7,0.4-2.5c0,0,0,0,0,0
			c0.3-0.1,6.9-1.2,10.2,4c0,0,2.1-1.3,1.8-6.2C72.7,34.6,73.2,36.3,73.2,38.2z"/>
		<path class="st15" d="M69.4,32.3c0,1.1-1.3,2-2.9,2s-2.9-0.9-2.9-2c0-1.1,1.3-2,2.9-2S69.4,31.2,69.4,32.3z"/>
		<path class="st16" d="M68.6,31.7c0,0.8-0.9,1.4-2.1,1.4c-1.1,0-2.1-0.6-2.1-1.4s0.9-1.4,2.1-1.4C67.7,30.3,68.6,30.9,68.6,31.7z"
			/>
		<path class="st19" d="M69.7,60.9c-1.5,4.3-5.6,6.8-9.1,5.6c-2.7-0.9-4.5-4.2-4.5-7.6c3.3-0.7,4.7,4,4.7,4c10.3,1.6,7.8-9.6,7.7-10
			C70.1,54.9,70.7,58,69.7,60.9z"/>
		<path class="st15" d="M63.6,56.9c-1.5,1.5-3.9,1.7-5,0.6c-1.2-1.2-0.9-3.3,0.5-4.8c1.5-1.5,4.7-2,5.9-0.9
			C66.1,53,65,55.4,63.6,56.9z"/>
		<path class="st16" d="M61.9,54.8c-0.9,0.8-2.1,1-2.8,0.3c-0.6-0.7-0.4-1.9,0.5-2.7c0.9-0.8,2.1-1,2.8-0.3
			C63.1,52.8,62.8,54,61.9,54.8z"/>
		<path class="st19" d="M76.9,65.2c-0.6-0.9-2.1-0.9-3.4,0c-1.2,0.9-1.8,2.3-1.1,3.2c0.6,0.9,2.1,0.9,3.4,0
			C77,67.5,77.5,66.1,76.9,65.2z"/>
		<path class="st18" d="M60.1,70.1c-1,4.9-4.5,7.8-8.9,6.9c-3.3-0.7-5.5-3.7-6-7.2c1.4,2.7,3.3,3.2,3.3,3.2c8.2,2.1,9.3-6.1,9.3-6.1
			c0.2-5.8-5.5-7.4-5.8-7.4c0.8-0.1,1.7-0.1,2.6,0.1C59,60.5,61.1,65.2,60.1,70.1z"/>
		<path class="st21" d="M53.5,66.4c-0.6,2.3-2.8,4.6-5.6,2.8c-1.7-1.1-1.9-3.4-0.9-5.6c0.7-1.4,3-3.2,4.6-2.6
			C53.8,62,54,64.5,53.5,66.4z"/>
		<path class="st22" d="M51.1,65.4c-0.6,1.1-1.7,1.7-2.5,1.3c-0.8-0.4-1.1-1.7-0.5-2.8c0.6-1.1,1.7-1.7,2.5-1.3
			C51.4,63.1,51.6,64.3,51.1,65.4z"/>
		<path class="st20" d="M50.1,64.1c-0.4,0.7-1.1,1.1-1.7,0.8c-0.6-0.3-0.7-1.1-0.3-1.8c0.4-0.7,1.1-1.1,1.7-0.8
			C50.3,62.6,50.5,63.4,50.1,64.1z"/>
		<path class="st20" d="M24.5,43c0,0.6-0.7,1.1-1.6,1.1c-0.9,0-1.6-0.5-1.6-1.1c0-0.6,0.7-1.1,1.6-1.1C23.8,41.9,24.5,42.4,24.5,43z
			"/>
		<path class="st20" d="M7.7,64.8c-0.2-0.5-1-0.6-1.8-0.3c-0.8,0.3-1.3,1-1.1,1.5c0.2,0.5,1,0.6,1.8,0.3C7.4,66,7.9,65.3,7.7,64.8z"
			/>
		<path class="st17" d="M21.3,83c-4.6,2.3-9.8,1.3-11.5-2.2c-0.5-1-0.6-2.1-0.5-3.1v0c0.3-2.8,2.5-5.6,5.8-7.2
			c2.7-1.3,5.5-1.5,7.7-0.9v0c1.7,0.5,3.1,1.5,3.8,3C28.3,76.1,25.9,80.8,21.3,83z"/>
		<path class="st18" d="M21.3,83c-4.6,2.3-9.8,1.3-11.5-2.2c-0.5-1-0.6-2.1-0.5-3.1c1.2,3.1,4.1,4.7,7.4,4c3.2-0.7,6.8-2.9,7.4-6.2
			c0.7-3.8-1.1-5.9-1.2-5.9c2,0.5,3.1,1.5,3.8,3C28.3,76.1,25.9,80.8,21.3,83z"/>
		<path class="st21" d="M19.5,71.8c0.8,1.4-0.3,3.5-2.4,4.7c-2.1,1.2-4.5,1.1-5.3-0.3c-0.8-1.4,0.3-3.5,2.4-4.7
			C16.3,70.3,18.7,70.4,19.5,71.8z"/>
		<path class="st22" d="M17.4,72.1c0.5,0.8-0.1,2.1-1.2,2.7c-1.2,0.7-2.5,0.5-3-0.3c-0.5-0.8,0.1-2.1,1.2-2.7
			C15.6,71.2,16.9,71.3,17.4,72.1z"/>
		<path class="st20" d="M17.5,71.8c0.2,0.5-0.2,1.2-1,1.5c-0.8,0.3-1.5,0.1-1.7-0.4c-0.2-0.5,0.2-1.2,1-1.5
			C16.5,71.1,17.3,71.3,17.5,71.8z"/>
		<path class="st20" d="M13,53.5c-0.5,0.7-1.2,1-1.7,0.6c-0.5-0.3-0.5-1.2,0-1.8c0.5-0.7,1.2-1,1.7-0.6C13.5,52,13.5,52.9,13,53.5z"
			/>
		<path class="st12" d="M36.9,39.1c-0.3,0.7-1.3,1-2.2,0.6c-0.9-0.4-1.3-1.3-1-2c0.3-0.7,1.3-1,2.2-0.6S37.3,38.4,36.9,39.1z"/>
		<path class="st20" d="M44.6,30.3c-0.3,0.6-1,0.9-1.5,0.7c-0.5-0.3-0.7-1-0.4-1.6s1-0.9,1.5-0.7C44.8,28.9,44.9,29.6,44.6,30.3z"/>
		<path class="st20" d="M42.4,50.4c-0.4,0.7-1.2,1.1-1.8,0.7c-0.6-0.3-0.7-1.2-0.3-1.9c0.4-0.7,1.2-1.1,1.8-0.7
			C42.7,48.8,42.8,49.6,42.4,50.4z"/>
		<path class="st20" d="M61.4,53.7c-0.6,0.4-1.3,0.3-1.6-0.1c-0.3-0.5-0.1-1.2,0.4-1.5s1.3-0.3,1.6,0.1C62.2,52.7,62,53.3,61.4,53.7
			z"/>
		<path class="st8" d="M68.1,47.8c-1.9,3.1-7,3.6-11.4,1.4c-2.6-1.3-4.5-3.5-5.1-5.7c-0.4-1.4-0.4-2.9,0.3-4.2
			c1.7-3.3,6.9-4.1,11.4-2.2c0.9,0.4,1.8,0.9,2.5,1.5c0,0,0,0,0,0C68.8,41.1,69.8,45.1,68.1,47.8z"/>
		<path class="st9" d="M68.1,47.8c-1.9,3.1-7,3.6-11.4,1.4c-2.6-1.3-4.5-3.5-5.1-5.7c1,1.2,4.5,4.7,10.5,4.1
			c4.3-0.8,6.2-5.3,3.7-8.9C68.8,41.1,69.8,45.1,68.1,47.8z"/>
		<path class="st11" d="M63.1,40.3c0,2.1-2.3,3.9-5.2,3.9c-2.9,0-5.2-1.7-5.2-3.9c0-2.1,2.3-3.9,5.2-3.9
			C60.8,36.4,63.1,38.1,63.1,40.3z"/>
		<path class="st12" d="M60.3,39.4c0,1-1.2,1.9-2.7,1.9c-1.5,0-2.7-0.9-2.7-1.9s1.2-1.9,2.7-1.9C59.1,37.5,60.3,38.3,60.3,39.4z"/>
		<path class="st20" d="M58.2,38.6c0,0.6-0.6,1.1-1.4,1.1c-0.8,0-1.4-0.5-1.4-1.1c0-0.6,0.6-1.1,1.4-1.1
			C57.6,37.5,58.2,38,58.2,38.6z"/>
		<path class="st23" d="M57.8,25.3c1,0.6,1.4,1.5,1.1,2.2c-0.4,0.7-1.5,0.7-2.4,0.2c-1-0.6-1.4-1.5-1.1-2.2
			C55.8,24.9,56.8,24.8,57.8,25.3z"/>
	</g>
</g>
</svg>
