<?xml version="1.0" encoding="utf-8"?>
<!-- Generator: Adobe Illustrator 25.2.3, SVG Export Plug-In . SVG Version: 6.00 Build 0)  -->
<svg version="1.1" id="Capa_1" xmlns="http://www.w3.org/2000/svg" xmlns:xlink="http://www.w3.org/1999/xlink" x="0px" y="0px"
	 width="59.1px" height="109.4px" viewBox="0 0 59.1 109.4" style="enable-background:new 0 0 59.1 109.4;" xml:space="preserve">
<style type="text/css">
	.st0{fill:#E2842A;}
	.st1{fill:#E8A539;}
	.st2{fill:#D5EAFA;}
	.st3{fill:#F7FAFD;}
	.st4{fill:#F6E1B9;}
	.st5{fill:#F0CD4E;}
	.st6{fill:#CB2323;}
	.st7{fill:#DC3F3F;}
	.st8{fill:#FFFFFF;}
	.st9{fill:#BEE0FA;}
	.st10{fill:#A1CAF3;}
</style>
<g>
	<g>
		<rect x="45.7" y="61.5" class="st0" width="10.8" height="32"/>
		<rect x="2.5" y="61.5" class="st1" width="43.2" height="32"/>
	</g>
	<path class="st0" d="M56.9,93.5H46c1.2,0,2.1,0.9,2.1,2.1v3c0,6-4.9,10.8-10.8,10.8h10.8c6,0,10.8-4.9,10.8-10.8v-3
		C59,94.4,58,93.5,56.9,93.5z"/>
	<path class="st1" d="M48.2,98.6v-3c0-1.2-0.9-2.1-2.1-2.1H2.2c-1.2,0-2.1,0.9-2.1,2.1v3c0,6,4.9,10.8,10.8,10.8h26.4
		C43.3,109.4,48.2,104.6,48.2,98.6z"/>
	<path class="st2" d="M36.7,18l-4.3-3.3H15.9L11.6,18c-1.6,1.2-2.6,2.9-3,4.8h31C39.2,20.9,38.2,19.2,36.7,18z"/>
	<g>
		<path class="st1" d="M43.2,40.4l-3.3-5.1c-1.4-2.1-1.7-4.8-0.8-7.2l0.3-0.9c0.5-1.5,0.6-3,0.3-4.5l-21.2,0c-1.3,1.2-1.7,3.2-1,4.8
			c0.3,0.8,0.5,1.3,0.5,1.8c0.1,1-0.7,2-1.7,2.1c-0.1,0-0.1,0-0.2,0c-0.9,0-1.8-0.7-1.9-1.7c0,0-0.1-0.2-0.2-0.6
			c-0.9-2-0.9-4.3,0-6.3l-5.3,0c-0.3,1.5-0.2,3,0.3,4.5l0.3,0.9c0.9,2.4,0.6,5.1-0.8,7.2l-3.3,5.1C1.8,45.6,0,51.6,0,57.8v1.6
			c0,1.2,0.9,2.1,2.1,2.1h44c1.2,0,2.1-0.9,2.1-2.1v-1.6C48.3,51.6,46.5,45.6,43.2,40.4z M15.6,39.2l-3.3,5.1
			C10,47.9,8.7,52,8.4,56.1c-0.1,1-0.9,1.8-1.9,1.8c0,0-0.1,0-0.1,0c-1-0.1-1.8-1-1.8-2c0.3-4.8,1.9-9.5,4.5-13.6l3.3-5.1
			c0.6-0.9,1.7-1.1,2.6-0.6C15.9,37.2,16.2,38.4,15.6,39.2z"/>
		<path class="st3" d="M18.9,22.3l1-0.7c0.8-0.6,1-1.8,0.4-2.6c-0.6-0.8-1.8-1-2.6-0.4l-1,0.7c-1.3,0.9-2.2,2.1-2.7,3.5h4.5
			C18.6,22.6,18.8,22.5,18.9,22.3z"/>
		<path class="st4" d="M14,29.1c0.2,0.4,0.2,0.6,0.2,0.6c0.1,1,0.9,1.7,1.9,1.7c0.1,0,0.1,0,0.2,0c1-0.1,1.8-1,1.7-2.1
			c0-0.5-0.2-1-0.5-1.8c-0.7-1.6-0.3-3.5,1-4.8H14C13.1,24.7,13.1,27,14,29.1z"/>
		<path class="st4" d="M15,36.6c-0.9-0.6-2-0.3-2.6,0.6l-3.3,5.1C6.5,46.4,5,51.1,4.7,55.9c-0.1,1,0.7,1.9,1.8,2c0,0,0.1,0,0.1,0
			c1,0,1.8-0.8,1.9-1.8c0.3-4.2,1.6-8.2,3.9-11.8l3.3-5.1C16.2,38.4,15.9,37.2,15,36.6z"/>
	</g>
	<rect x="2.5" y="61.5" class="st0" width="54" height="2.5"/>
	<rect x="2.5" y="91" class="st5" width="54" height="2.5"/>
	<g>
		<rect x="45.7" y="67.7" class="st6" width="10.8" height="19.5"/>
		<rect x="2.5" y="67.7" class="st7" width="43.2" height="19.5"/>
	</g>
	<path class="st6" d="M13.4,67.7c0,6-4.8,10.8-10.8,10.8V67.7H13.4z"/>
	<g>
		<path class="st8" d="M41.2,75.6H17.8c-0.7,0-1.4-0.6-1.4-1.4c0-0.7,0.6-1.4,1.4-1.4h23.4c0.7,0,1.4,0.6,1.4,1.4
			C42.6,75,42,75.6,41.2,75.6z"/>
		<path class="st8" d="M22.2,81.8h-4.4c-0.7,0-1.4-0.6-1.4-1.4c0-0.7,0.6-1.4,1.4-1.4h4.4c0.7,0,1.4,0.6,1.4,1.4
			C23.6,81.2,23,81.8,22.2,81.8z"/>
		<path class="st8" d="M41.2,81.8H29.1c-0.7,0-1.4-0.6-1.4-1.4c0-0.7,0.6-1.4,1.4-1.4h12.1c0.7,0,1.4,0.6,1.4,1.4
			C42.6,81.2,42,81.8,41.2,81.8z"/>
	</g>
	<g>
		<path class="st9" d="M47.5,18l-4.3-3.3H32.3l4.3,3.3c1.6,1.2,2.6,2.9,3,4.8h10.8C50.1,20.9,49.1,19.2,47.5,18z"/>
		<path class="st0" d="M50.7,35.3c-1.4-2.1-1.7-4.8-0.8-7.2l0.3-0.9c0.5-1.5,0.6-3,0.3-4.5H39.6c0.3,1.5,0.2,3-0.3,4.5l-0.3,0.9
			c-0.9,2.4-0.5,5.1,0.8,7.2l3.3,5.1c3.3,5.2,5.1,11.2,5.1,17.3v1.6c0,1.2-0.9,2.1-2.1,2.1H57c1.2,0,2.1-0.9,2.1-2.1v-1.6
			c0-6.1-1.8-12.2-5.1-17.3L50.7,35.3z"/>
	</g>
	<g>
		<rect x="15.9" y="9.3" class="st10" width="27.2" height="5.3"/>
		<g>
			<path class="st7" d="M41.6,0H17.5c-2,0-3.6,1.6-3.6,3.6v6.5c0,1.2,0.9,2.1,2.1,2.1h27.2c1.2,0,2.1-0.9,2.1-2.1V3.6
				C45.3,1.6,43.7,0,41.6,0z"/>
			<path class="st6" d="M23.3,9.7c-0.6,0-1.1-0.5-1.1-1.1V3.8c0-0.6,0.5-1.1,1.1-1.1c0.6,0,1.1,0.5,1.1,1.1v4.8
				C24.4,9.2,23.9,9.7,23.3,9.7z"/>
			<path class="st6" d="M17.1,9.7c-0.6,0-1.1-0.5-1.1-1.1V3.8c0-0.6,0.5-1.1,1.1-1.1s1.1,0.5,1.1,1.1v4.8
				C18.2,9.2,17.7,9.7,17.1,9.7z"/>
			<path class="st6" d="M29.5,9.7c-0.6,0-1.1-0.5-1.1-1.1V3.8c0-0.6,0.5-1.1,1.1-1.1c0.6,0,1.1,0.5,1.1,1.1v4.8
				C30.7,9.2,30.2,9.7,29.5,9.7z"/>
			<path class="st6" d="M35.8,9.7c-0.6,0-1.1-0.5-1.1-1.1V3.8c0-0.6,0.5-1.1,1.1-1.1c0.6,0,1.1,0.5,1.1,1.1v4.8
				C36.9,9.2,36.4,9.7,35.8,9.7z"/>
			<path class="st6" d="M42,9.7c-0.6,0-1.1-0.5-1.1-1.1V3.8c0-0.6,0.5-1.1,1.1-1.1c0.6,0,1.1,0.5,1.1,1.1v4.8
				C43.2,9.2,42.7,9.7,42,9.7z"/>
		</g>
	</g>
</g>
</svg>
